<?xml version="1.0" encoding="UTF-8"?><svg xmlns="http://www.w3.org/2000/svg" xmlns:xlink="http://www.w3.org/1999/xlink" fill-opacity="1" color-rendering="auto" color-interpolation="auto" text-rendering="auto" stroke="black" stroke-linecap="square" width="1593" stroke-miterlimit="10" shape-rendering="auto" stroke-opacity="1" fill="black" stroke-dasharray="none" font-weight="normal" stroke-width="1" height="582" font-family="'Dialog'" font-style="normal" stroke-linejoin="miter" font-size="12px" stroke-dashoffset="0" image-rendering="auto">
  <!--Generated by ySVG 2.6-->
  <defs id="genericDefs"/>
  <g>
    <defs id="defs1">
      <clipPath clipPathUnits="userSpaceOnUse" id="clipPath1">
        <path d="M0 0 L1593 0 L1593 582 L0 582 L0 0 Z"/>
      </clipPath>
      <clipPath clipPathUnits="userSpaceOnUse" id="clipPath2">
        <path d="M896 501 L2489 501 L2489 1083 L896 1083 L896 501 Z"/>
      </clipPath>
    </defs>
    <g fill="white" text-rendering="geometricPrecision" shape-rendering="geometricPrecision" transform="translate(-896,-501)" stroke="white">
      <rect x="896" width="1593" height="582" y="501" clip-path="url(#clipPath2)" stroke="none"/>
    </g>
    <g fill="rgb(255,153,204)" text-rendering="geometricPrecision" shape-rendering="geometricPrecision" transform="matrix(1,0,0,1,-896,-501)" stroke="rgb(255,153,204)">
      <circle r="10" clip-path="url(#clipPath2)" cx="1504" cy="897.5" stroke="none"/>
    </g>
    <g text-rendering="geometricPrecision" stroke-miterlimit="1.45" shape-rendering="geometricPrecision" font-family="sans-serif" transform="matrix(1,0,0,1,-896,-501)" stroke-linecap="butt">
      <text x="1371.5098" xml:space="preserve" y="882.9688" clip-path="url(#clipPath2)" stroke="none">:edition_digitization</text>
      <circle fill="none" stroke-width="3" r="10" clip-path="url(#clipPath2)" cx="1504" cy="897.5"/>
    </g>
    <g fill="rgb(255,153,204)" text-rendering="geometricPrecision" shape-rendering="geometricPrecision" transform="matrix(1,0,0,1,-896,-501)" stroke="rgb(255,153,204)">
      <circle r="10" clip-path="url(#clipPath2)" cx="1829" cy="722.5" stroke="none"/>
    </g>
    <g text-rendering="geometricPrecision" stroke-miterlimit="1.45" shape-rendering="geometricPrecision" font-family="sans-serif" transform="matrix(1,0,0,1,-896,-501)" stroke-linecap="butt">
      <text x="1716.5137" xml:space="preserve" y="707.9688" clip-path="url(#clipPath2)" stroke="none">:corpus_creation</text>
      <circle fill="none" stroke-width="3" r="10" clip-path="url(#clipPath2)" cx="1829" cy="722.5"/>
    </g>
    <g fill="rgb(255,153,204)" text-rendering="geometricPrecision" shape-rendering="geometricPrecision" transform="matrix(1,0,0,1,-896,-501)" stroke="rgb(255,153,204)">
      <circle r="10" clip-path="url(#clipPath2)" cx="2137" cy="897.5" stroke="none"/>
    </g>
    <g text-rendering="geometricPrecision" stroke-miterlimit="1.45" shape-rendering="geometricPrecision" font-family="sans-serif" transform="matrix(1,0,0,1,-896,-501)" stroke-linecap="butt">
      <text x="2153" xml:space="preserve" y="921.1016" clip-path="url(#clipPath2)" stroke="none">:platform_creation</text>
      <circle fill="none" stroke-width="3" r="10" clip-path="url(#clipPath2)" cx="2137" cy="897.5"/>
    </g>
    <g fill="rgb(255,153,204)" text-rendering="geometricPrecision" shape-rendering="geometricPrecision" transform="matrix(1,0,0,1,-896,-501)" stroke="rgb(255,153,204)">
      <circle r="10" clip-path="url(#clipPath2)" cx="1229" cy="897.5" stroke="none"/>
    </g>
    <g text-rendering="geometricPrecision" stroke-miterlimit="1.45" shape-rendering="geometricPrecision" font-family="sans-serif" transform="matrix(1,0,0,1,-896,-501)" stroke-linecap="butt">
      <text x="1136.875" xml:space="preserve" y="882.9688" clip-path="url(#clipPath2)" stroke="none">:edition_item</text>
      <circle fill="none" stroke-width="3" r="10" clip-path="url(#clipPath2)" cx="1229" cy="897.5"/>
    </g>
    <g fill="rgb(255,153,204)" text-rendering="geometricPrecision" shape-rendering="geometricPrecision" transform="matrix(1,0,0,1,-896,-501)" stroke="rgb(255,153,204)">
      <circle r="10" clip-path="url(#clipPath2)" cx="1229" cy="797.5" stroke="none"/>
    </g>
    <g text-rendering="geometricPrecision" stroke-miterlimit="1.45" shape-rendering="geometricPrecision" font-family="sans-serif" transform="matrix(1,0,0,1,-896,-501)" stroke-linecap="butt">
      <text x="1245" xml:space="preserve" y="782.9688" clip-path="url(#clipPath2)" stroke="none">:edition_manifestation</text>
      <circle fill="none" stroke-width="3" r="10" clip-path="url(#clipPath2)" cx="1229" cy="797.5"/>
    </g>
    <g fill="rgb(255,153,204)" text-rendering="geometricPrecision" shape-rendering="geometricPrecision" transform="matrix(1,0,0,1,-896,-501)" stroke="rgb(255,153,204)">
      <circle r="10" clip-path="url(#clipPath2)" cx="1829" cy="822.5" stroke="none"/>
    </g>
    <g text-rendering="geometricPrecision" stroke-miterlimit="1.45" shape-rendering="geometricPrecision" font-family="sans-serif" transform="matrix(1,0,0,1,-896,-501)" stroke-linecap="butt">
      <text x="1711.6738" xml:space="preserve" y="807.9688" clip-path="url(#clipPath2)" stroke="none">:edition_digitized</text>
      <circle fill="none" stroke-width="3" r="10" clip-path="url(#clipPath2)" cx="1829" cy="822.5"/>
    </g>
    <g fill="rgb(255,153,204)" text-rendering="geometricPrecision" shape-rendering="geometricPrecision" transform="matrix(1,0,0,1,-896,-501)" stroke="rgb(255,153,204)">
      <circle r="10" clip-path="url(#clipPath2)" cx="2137" cy="722.5" stroke="none"/>
    </g>
    <g text-rendering="geometricPrecision" stroke-miterlimit="1.45" shape-rendering="geometricPrecision" font-family="sans-serif" transform="matrix(1,0,0,1,-896,-501)" stroke-linecap="butt">
      <text x="2153" xml:space="preserve" y="707.9688" clip-path="url(#clipPath2)" stroke="none">:alcide_corpus</text>
      <circle fill="none" stroke-width="3" r="10" clip-path="url(#clipPath2)" cx="2137" cy="722.5"/>
    </g>
    <g fill="rgb(255,153,204)" text-rendering="geometricPrecision" shape-rendering="geometricPrecision" transform="matrix(1,0,0,1,-896,-501)" stroke="rgb(255,153,204)">
      <circle r="10" clip-path="url(#clipPath2)" cx="2362" cy="897.5" stroke="none"/>
    </g>
    <g text-rendering="geometricPrecision" stroke-miterlimit="1.45" shape-rendering="geometricPrecision" font-family="sans-serif" transform="matrix(1,0,0,1,-896,-501)" stroke-linecap="butt">
      <text x="2378" xml:space="preserve" y="882.9688" clip-path="url(#clipPath2)" stroke="none">:alcide_platform</text>
      <circle fill="none" stroke-width="3" r="10" clip-path="url(#clipPath2)" cx="2362" cy="897.5"/>
    </g>
    <g fill="rgb(255,153,204)" text-rendering="geometricPrecision" shape-rendering="geometricPrecision" transform="matrix(1,0,0,1,-896,-501)" stroke="rgb(255,153,204)">
      <circle r="10" clip-path="url(#clipPath2)" cx="1229" cy="672.5" stroke="none"/>
    </g>
    <g text-rendering="geometricPrecision" stroke-miterlimit="1.45" shape-rendering="geometricPrecision" font-family="sans-serif" transform="matrix(1,0,0,1,-896,-501)" stroke-linecap="butt">
      <text x="1245" xml:space="preserve" y="696.1016" clip-path="url(#clipPath2)" stroke="none">:alcide_de_gasperi</text>
      <circle fill="none" stroke-width="3" r="10" clip-path="url(#clipPath2)" cx="1229" cy="672.5"/>
    </g>
    <g fill="yellow" text-rendering="geometricPrecision" shape-rendering="geometricPrecision" transform="matrix(1,0,0,1,-896,-501)" stroke="yellow">
      <rect x="1157.5" y="1009.5" clip-path="url(#clipPath2)" width="143" rx="4" ry="4" height="58" stroke="none"/>
    </g>
    <g font-size="16px" stroke-linecap="butt" transform="matrix(1,0,0,1,-896,-501)" text-rendering="geometricPrecision" font-family="sans-serif" shape-rendering="geometricPrecision" stroke-miterlimit="1.45">
      <text x="1171.5469" xml:space="preserve" y="1044.5469" clip-path="url(#clipPath2)" stroke="none">frbroo:F5_Item</text>
      <rect x="1157.5" y="1009.5" clip-path="url(#clipPath2)" fill="none" width="143" rx="4" ry="4" height="58"/>
    </g>
    <g fill="yellow" text-rendering="geometricPrecision" shape-rendering="geometricPrecision" transform="matrix(1,0,0,1,-896,-501)" stroke="yellow">
      <rect x="979" y="768.5" clip-path="url(#clipPath2)" width="200" rx="4" ry="4" height="58" stroke="none"/>
    </g>
    <g font-size="16px" stroke-linecap="butt" transform="matrix(1,0,0,1,-896,-501)" text-rendering="geometricPrecision" font-family="sans-serif" shape-rendering="geometricPrecision" stroke-miterlimit="1.45">
      <text x="986.1133" xml:space="preserve" y="803.5469" clip-path="url(#clipPath2)" stroke="none">frbroo:F3_Manifestation</text>
      <rect x="979" y="768.5" clip-path="url(#clipPath2)" fill="none" width="200" rx="4" ry="4" height="58"/>
    </g>
    <g fill="yellow" text-rendering="geometricPrecision" shape-rendering="geometricPrecision" transform="matrix(1,0,0,1,-896,-501)" stroke="yellow">
      <rect x="1514" y="793.5" clip-path="url(#clipPath2)" width="192" rx="4" ry="4" height="58" stroke="none"/>
    </g>
    <g font-size="16px" stroke-linecap="butt" transform="matrix(1,0,0,1,-896,-501)" text-rendering="geometricPrecision" font-family="sans-serif" shape-rendering="geometricPrecision" stroke-miterlimit="1.45">
      <text x="1518.1914" xml:space="preserve" y="828.5469" clip-path="url(#clipPath2)" stroke="none">crmdig:D9_Data_Object</text>
      <rect x="1514" y="793.5" clip-path="url(#clipPath2)" fill="none" width="192" rx="4" ry="4" height="58"/>
    </g>
    <g fill="yellow" text-rendering="geometricPrecision" shape-rendering="geometricPrecision" transform="matrix(1,0,0,1,-896,-501)" stroke="yellow">
      <rect x="1043.2769" y="643.5" clip-path="url(#clipPath2)" width="121.4462" rx="4" ry="4" height="58" stroke="none"/>
    </g>
    <g font-size="16px" stroke-linecap="butt" transform="matrix(1,0,0,1,-896,-501)" text-rendering="geometricPrecision" font-family="sans-serif" shape-rendering="geometricPrecision" stroke-miterlimit="1.45">
      <text x="1048.9258" xml:space="preserve" y="678.5469" clip-path="url(#clipPath2)" stroke="none">crm:E1_Entity </text>
      <rect x="1043.2769" y="643.5" clip-path="url(#clipPath2)" fill="none" width="121.4462" rx="4" ry="4" height="58"/>
    </g>
    <g fill="yellow" text-rendering="geometricPrecision" shape-rendering="geometricPrecision" transform="matrix(1,0,0,1,-896,-501)" stroke="yellow">
      <rect x="2034.5" y="593.5" clip-path="url(#clipPath2)" width="205" rx="4" ry="4" height="58" stroke="none"/>
    </g>
    <g font-size="16px" stroke-linecap="butt" transform="matrix(1,0,0,1,-896,-501)" text-rendering="geometricPrecision" font-family="sans-serif" shape-rendering="geometricPrecision" stroke-miterlimit="1.45">
      <text x="2037.6836" xml:space="preserve" y="628.5469" clip-path="url(#clipPath2)" stroke="none">crmdig:D1_Digital_Object</text>
      <rect x="2034.5" y="593.5" clip-path="url(#clipPath2)" fill="none" width="205" rx="4" ry="4" height="58"/>
      <text x="1575.8545" xml:space="preserve" font-size="12px" y="716.9805" clip-path="url(#clipPath2)" stroke="none">"Creation of de </text>
      <text x="1575.8545" xml:space="preserve" font-size="12px" y="731.1133" clip-path="url(#clipPath2)" stroke="none">Gasperi corpus"@en</text>
      <text x="1229.302" xml:space="preserve" font-size="12px" y="578.6345" clip-path="url(#clipPath2)" stroke="none">&lt;viaf.org/viaf/32011324&gt;</text>
      <text x="1164.6553" xml:space="preserve" font-size="12px" y="534.3218" clip-path="url(#clipPath2)" stroke="none">"Alcide de Gasperi"@it</text>
      <text x="982.5443" xml:space="preserve" font-size="12px" y="875.8242" clip-path="url(#clipPath2)" stroke="none">"A. De Gasperi, </text>
      <text x="982.5443" xml:space="preserve" font-size="12px" y="889.957" clip-path="url(#clipPath2)" stroke="none">Scritti e discorsi politici, </text>
      <text x="982.5443" xml:space="preserve" font-size="12px" y="904.0898" clip-path="url(#clipPath2)" stroke="none">I-IV"@it </text>
      <text x="1436.3682" xml:space="preserve" font-size="12px" y="972.0781" clip-path="url(#clipPath2)" stroke="none">"Digitization of </text>
      <text x="1436.3682" xml:space="preserve" font-size="12px" y="986.2109" clip-path="url(#clipPath2)" stroke="none">de Gasperi edition"@en</text>
      <text x="2076.9062" xml:space="preserve" font-size="12px" y="989.957" clip-path="url(#clipPath2)" stroke="none">"Creation of </text>
      <text x="2076.9062" xml:space="preserve" font-size="12px" y="1004.0898" clip-path="url(#clipPath2)" stroke="none">ALCIDE plaform"@en</text>
      <text x="913.8226" xml:space="preserve" font-size="12px" y="991.9688" clip-path="url(#clipPath2)" stroke="none">&lt;mulino.it/collana/scritti-discorsi-de-gasperi&gt;</text>
    </g>
    <g stroke-linecap="butt" transform="matrix(1,0,0,1,-896,-501)" fill="navy" text-rendering="geometricPrecision" shape-rendering="geometricPrecision" stroke="navy" stroke-miterlimit="1.45">
      <path fill="none" d="M1490 897.5 L1250 897.5" clip-path="url(#clipPath2)"/>
      <path d="M1498 897.5 C1498 899.7092 1496.2091 901.5 1494 901.5 C1491.7909 901.5 1490 899.7092 1490 897.5 C1490 895.2908 1491.7909 893.5 1494 893.5 C1496.2091 893.5 1498 895.2908 1498 897.5 Z" clip-path="url(#clipPath2)" stroke="none"/>
      <path d="M1239 897.5 L1251 903.5 L1251 891.5 Z" clip-path="url(#clipPath2)" stroke="none"/>
      <rect x="1306.7031" y="888.4336" clip-path="url(#clipPath2)" fill="white" width="119.5938" height="18.1328" stroke="none"/>
      <text x="1308.7031" xml:space="preserve" y="902.0352" clip-path="url(#clipPath2)" font-family="sans-serif" stroke="none">crmdig:L1_digitized</text>
      <path fill="none" d="M1229 883.5 L1229 818.5" clip-path="url(#clipPath2)"/>
      <path d="M1229 891.5 C1226.7909 891.5 1225 889.7092 1225 887.5 C1225 885.2908 1226.7909 883.5 1229 883.5 C1231.2091 883.5 1233 885.2908 1233 887.5 C1233 889.7092 1231.2091 891.5 1229 891.5 Z" clip-path="url(#clipPath2)" stroke="none"/>
      <path d="M1229 807.5 L1223 819.5 L1235 819.5 Z" clip-path="url(#clipPath2)" stroke="none"/>
      <rect x="1135.9512" y="838.4336" clip-path="url(#clipPath2)" fill="white" width="186.0977" height="18.1328" stroke="none"/>
      <text x="1137.9512" xml:space="preserve" y="852.0352" clip-path="url(#clipPath2)" font-family="sans-serif" stroke="none">frbroo:R7_is_materialization_of</text>
      <path fill="none" d="M1516.024 890.283 L1540 874.5 L1792 874.5 L1821.7286 840.754" clip-path="url(#clipPath2)"/>
      <path d="M1509.3419 894.6818 C1508.1272 892.8366 1508.6384 890.3561 1510.4836 889.1414 C1512.3289 887.9267 1514.8093 888.4378 1516.024 890.283 C1517.2388 892.1282 1516.7275 894.6088 1514.8823 895.8235 C1513.0371 897.0381 1510.5566 896.527 1509.3419 894.6818 Z" clip-path="url(#clipPath2)" stroke="none"/>
      <path d="M1829 832.5 L1816.5654 837.5381 L1825.5698 845.4705 Z" clip-path="url(#clipPath2)" stroke="none"/>
      <rect x="1593.2891" y="865.4336" clip-path="url(#clipPath2)" fill="white" width="145.4219" height="18.1328" stroke="none"/>
      <text x="1595.2891" xml:space="preserve" y="879.0352" clip-path="url(#clipPath2)" font-family="sans-serif" stroke="none">crmdig:L20_has_created</text>
      <path fill="none" d="M1829 736.5 L1829 801.5" clip-path="url(#clipPath2)"/>
      <path d="M1829 728.5 C1831.2091 728.5 1833 730.2908 1833 732.5 C1833 734.7092 1831.2091 736.5 1829 736.5 C1826.7909 736.5 1825 734.7092 1825 732.5 C1825 730.2908 1826.7909 728.5 1829 728.5 Z" clip-path="url(#clipPath2)" stroke="none"/>
      <path d="M1829 812.5 L1835 800.5 L1823 800.5 Z" clip-path="url(#clipPath2)" stroke="none"/>
      <rect x="1749.1143" y="763.4336" clip-path="url(#clipPath2)" fill="white" width="159.7715" height="18.1328" stroke="none"/>
      <text x="1751.1143" xml:space="preserve" y="777.0352" clip-path="url(#clipPath2)" font-family="sans-serif" stroke="none">crmdig:L2_used_as_source</text>
      <path fill="none" d="M1843 722.5 L2116 722.5" clip-path="url(#clipPath2)"/>
      <path d="M1835 722.5 C1835 720.2908 1836.7909 718.5 1839 718.5 C1841.2091 718.5 1843 720.2908 1843 722.5 C1843 724.7092 1841.2091 726.5 1839 726.5 C1836.7909 726.5 1835 724.7092 1835 722.5 Z" clip-path="url(#clipPath2)" stroke="none"/>
      <path d="M2127 722.5 L2115 716.5 L2115 728.5 Z" clip-path="url(#clipPath2)" stroke="none"/>
      <rect x="1911.7217" y="713.4336" clip-path="url(#clipPath2)" fill="white" width="142.5566" height="18.1328" stroke="none"/>
      <text x="1913.7217" xml:space="preserve" y="727.0352" clip-path="url(#clipPath2)" font-family="sans-serif" stroke="none">crmdig:L11_had_output</text>
      <path fill="none" d="M2137 883.5 L2137 743.5" clip-path="url(#clipPath2)"/>
      <path d="M2137 891.5 C2134.7908 891.5 2133 889.7092 2133 887.5 C2133 885.2908 2134.7908 883.5 2137 883.5 C2139.2092 883.5 2141 885.2908 2141 887.5 C2141 889.7092 2139.2092 891.5 2137 891.5 Z" clip-path="url(#clipPath2)" stroke="none"/>
      <path d="M2137 732.5 L2131 744.5 L2143 744.5 Z" clip-path="url(#clipPath2)" stroke="none"/>
      <rect x="2069.917" y="774.9336" clip-path="url(#clipPath2)" fill="white" width="134.166" height="18.1328" stroke="none"/>
      <text x="2071.917" xml:space="preserve" y="788.5352" clip-path="url(#clipPath2)" font-family="sans-serif" stroke="none">crmdig:L10_had_input</text>
      <path fill="none" d="M2124.1077 727.958 L2068.5 751.5 L2068.5 822.5 L1850 822.5" clip-path="url(#clipPath2)"/>
      <path d="M2131.4749 724.8392 C2132.3359 726.8736 2131.385 729.2209 2129.3506 730.0822 C2127.3162 730.9434 2124.969 729.9923 2124.1077 727.958 C2123.2466 725.9236 2124.1975 723.5763 2126.2319 722.7151 C2128.2664 721.8539 2130.6135 722.8049 2131.4749 724.8392 Z" clip-path="url(#clipPath2)" stroke="none"/>
      <path d="M1839 822.5 L1851 828.5 L1851 816.5 Z" clip-path="url(#clipPath2)" stroke="none"/>
      <rect x="1899" y="813.4336" clip-path="url(#clipPath2)" fill="white" width="158.8223" height="18.1328" stroke="none"/>
      <text x="1901" xml:space="preserve" y="827.0352" clip-path="url(#clipPath2)" font-family="sans-serif" stroke="none">crm:P106_is_composed_of</text>
      <path fill="none" d="M2151 897.5 L2341 897.5" clip-path="url(#clipPath2)"/>
      <path d="M2143 897.5 C2143 895.2908 2144.7908 893.5 2147 893.5 C2149.2092 893.5 2151 895.2908 2151 897.5 C2151 899.7092 2149.2092 901.5 2147 901.5 C2144.7908 901.5 2143 899.7092 2143 897.5 Z" clip-path="url(#clipPath2)" stroke="none"/>
      <path d="M2352 897.5 L2340 891.5 L2340 903.5 Z" clip-path="url(#clipPath2)" stroke="none"/>
      <rect x="2178.2217" y="888.4336" clip-path="url(#clipPath2)" fill="white" width="142.5566" height="18.1328" stroke="none"/>
      <text x="2180.2217" xml:space="preserve" y="902.0352" clip-path="url(#clipPath2)" font-family="sans-serif" stroke="none">crmdig:L11_had_output</text>
      <path fill="none" d="M2354.3525 887.0389 L2354.3525 722.5 L2158 722.5" clip-path="url(#clipPath2)"/>
      <path d="M2354.3525 895.0389 C2352.1433 895.0389 2350.3525 893.2481 2350.3525 891.0389 C2350.3525 888.8298 2352.1433 887.0389 2354.3525 887.0389 C2356.5618 887.0389 2358.3525 888.8298 2358.3525 891.0389 C2358.3525 893.2481 2356.5618 895.0389 2354.3525 895.0389 Z" clip-path="url(#clipPath2)" stroke="none"/>
      <path d="M2147 722.5 L2159 728.5 L2159 716.5 Z" clip-path="url(#clipPath2)" stroke="none"/>
      <rect x="2175.8276" y="713.4336" clip-path="url(#clipPath2)" fill="white" width="158.8223" height="18.1328" stroke="none"/>
      <text x="2177.8276" xml:space="preserve" y="727.0352" clip-path="url(#clipPath2)" font-family="sans-serif" stroke="none">crm:P106_is_composed_of</text>
      <path fill="none" d="M1229 783.5 L1229 693.5" clip-path="url(#clipPath2)"/>
      <path d="M1229 791.5 C1226.7909 791.5 1225 789.7092 1225 787.5 C1225 785.2908 1226.7909 783.5 1229 783.5 C1231.2091 783.5 1233 785.2908 1233 787.5 C1233 789.7092 1231.2091 791.5 1229 791.5 Z" clip-path="url(#clipPath2)" stroke="none"/>
      <path d="M1229 682.5 L1223 694.5 L1235 694.5 Z" clip-path="url(#clipPath2)" stroke="none"/>
      <rect x="1169.8389" y="725.9336" clip-path="url(#clipPath2)" fill="white" width="118.3223" height="18.1328" stroke="none"/>
      <text x="1171.8389" xml:space="preserve" y="739.5352" clip-path="url(#clipPath2)" font-family="sans-serif" stroke="none">crm:P129_is_about </text>
      <path fill="none" d="M1499 884.8173 L1499 672.5 L1250 672.5" clip-path="url(#clipPath2)"/>
      <path d="M1499 892.8173 C1496.7909 892.8173 1495 891.0265 1495 888.8173 C1495 886.6082 1496.7909 884.8173 1499 884.8173 C1501.2091 884.8173 1503 886.6082 1503 888.8173 C1503 891.0265 1501.2091 892.8173 1499 892.8173 Z" clip-path="url(#clipPath2)" stroke="none"/>
      <path d="M1239 672.5 L1251 678.5 L1251 666.5 Z" clip-path="url(#clipPath2)" stroke="none"/>
      <rect x="1303.2656" y="663.4336" clip-path="url(#clipPath2)" fill="white" width="140.5938" height="18.1328" stroke="none"/>
      <text x="1305.2656" xml:space="preserve" y="677.0352" clip-path="url(#clipPath2)" font-family="sans-serif" stroke="none">crmdig:L60_documents</text>
      <path fill="none" d="M1229 1009.4502 L1229 915.5" clip-path="url(#clipPath2)" stroke="black"/>
      <path fill="black" d="M1229 907.5 L1224 919.5 L1229 916.5 L1234 919.5 Z" clip-path="url(#clipPath2)" stroke="none"/>
      <path fill="none" d="M1179 797.5 L1211 797.5" clip-path="url(#clipPath2)" stroke="black"/>
      <path fill="black" d="M1219 797.5 L1207 792.5 L1210 797.5 L1207 802.5 Z" clip-path="url(#clipPath2)" stroke="none"/>
      <path fill="none" d="M1815 722.5 L1709.5 722.5" clip-path="url(#clipPath2)" stroke="green"/>
    </g>
    <g stroke-linecap="butt" transform="matrix(1,0,0,1,-896,-501)" fill-opacity="0" fill="rgb(0,0,0)" text-rendering="geometricPrecision" shape-rendering="geometricPrecision" stroke="rgb(0,0,0)" stroke-opacity="0" stroke-miterlimit="1.45">
      <path d="M1823 722.5 C1823 724.7092 1821.2091 726.5 1819 726.5 C1816.7909 726.5 1815 724.7092 1815 722.5 C1815 720.2908 1816.7909 718.5 1819 718.5 C1821.2091 718.5 1823 720.2908 1823 722.5 Z" stroke="none" clip-path="url(#clipPath2)"/>
    </g>
    <g stroke-linecap="butt" transform="matrix(1,0,0,1,-896,-501)" fill="green" text-rendering="geometricPrecision" shape-rendering="geometricPrecision" stroke="green" stroke-miterlimit="1.45">
      <path fill="none" d="M1823 722.5 C1823 724.7092 1821.2091 726.5 1819 726.5 C1816.7909 726.5 1815 724.7092 1815 722.5 C1815 720.2908 1816.7909 718.5 1819 718.5 C1821.2091 718.5 1823 720.2908 1823 722.5 Z" clip-path="url(#clipPath2)"/>
      <path fill="white" d="M1694.5 722.5 L1710.5 728.5 L1710.5 716.5 Z" clip-path="url(#clipPath2)" stroke="none"/>
      <path fill="none" d="M1694.5 722.5 L1710.5 728.5 L1710.5 716.5 Z" clip-path="url(#clipPath2)"/>
      <rect x="1735.3062" y="713.4336" clip-path="url(#clipPath2)" fill="white" width="58.5918" height="18.1328" stroke="none"/>
      <text x="1737.3062" xml:space="preserve" y="727.0352" clip-path="url(#clipPath2)" font-family="sans-serif" stroke="none">rdfs:label</text>
      <path fill="none" d="M1706 822.5 L1811 822.5" clip-path="url(#clipPath2)" stroke="black"/>
      <path fill="black" d="M1819 822.5 L1807 817.5 L1810 822.5 L1807 827.5 Z" clip-path="url(#clipPath2)" stroke="none"/>
      <path fill="none" d="M1164.7231 672.5 L1211 672.5" clip-path="url(#clipPath2)" stroke="black"/>
      <path fill="black" d="M1219 672.5 L1207 667.5 L1210 672.5 L1207 677.5 Z" clip-path="url(#clipPath2)" stroke="none"/>
      <path fill="none" d="M2137 651.4551 L2137 704.5" clip-path="url(#clipPath2)" stroke="black"/>
      <path fill="black" d="M2137 712.5 L2142 700.5 L2137 703.5 L2132 700.5 Z" clip-path="url(#clipPath2)" stroke="none"/>
      <path fill="none" d="M2239.4751 622.5 L2362 622.5 L2362 879.5" clip-path="url(#clipPath2)" stroke="black"/>
      <path fill="black" d="M2362 887.5 L2367 875.5 L2362 878.5 L2357 875.5 Z" clip-path="url(#clipPath2)" stroke="none"/>
      <path fill="none" d="M1237.6906 667.5 L1307.9846 667.5 L1307.9846 591.1658" clip-path="url(#clipPath2)" stroke="black"/>
      <path fill="black" d="M1307.9846 583.1658 L1302.9846 595.1658 L1307.9846 592.1658 L1312.9846 595.1658 Z" clip-path="url(#clipPath2)" stroke="none"/>
      <rect x="1271.5286" y="620.829" clip-path="url(#clipPath2)" fill="white" width="72.9121" height="18.1328" stroke="none"/>
      <text x="1273.5286" y="634.4305" clip-path="url(#clipPath2)" fill="black" font-family="sans-serif" stroke="none" xml:space="preserve">owl:sameAs</text>
      <path fill="none" d="M1229 658.5 L1229 553.8531" clip-path="url(#clipPath2)"/>
    </g>
    <g stroke-linecap="butt" transform="matrix(1,0,0,1,-896,-501)" fill-opacity="0" fill="rgb(0,0,0)" text-rendering="geometricPrecision" shape-rendering="geometricPrecision" stroke="rgb(0,0,0)" stroke-opacity="0" stroke-miterlimit="1.45">
      <path d="M1229 666.5 C1226.7909 666.5 1225 664.7092 1225 662.5 C1225 660.2908 1226.7909 658.5 1229 658.5 C1231.2091 658.5 1233 660.2908 1233 662.5 C1233 664.7092 1231.2091 666.5 1229 666.5 Z" stroke="none" clip-path="url(#clipPath2)"/>
    </g>
    <g stroke-linecap="butt" transform="matrix(1,0,0,1,-896,-501)" fill="green" text-rendering="geometricPrecision" shape-rendering="geometricPrecision" stroke="green" stroke-miterlimit="1.45">
      <path fill="none" d="M1229 666.5 C1226.7909 666.5 1225 664.7092 1225 662.5 C1225 660.2908 1226.7909 658.5 1229 658.5 C1231.2091 658.5 1233 660.2908 1233 662.5 C1233 664.7092 1231.2091 666.5 1229 666.5 Z" clip-path="url(#clipPath2)"/>
      <path fill="white" d="M1229 538.8531 L1223 554.8531 L1235 554.8531 Z" clip-path="url(#clipPath2)" stroke="none"/>
      <path fill="none" d="M1229 538.8531 L1223 554.8531 L1235 554.8531 Z" clip-path="url(#clipPath2)"/>
      <rect x="1199.7041" y="591.6102" clip-path="url(#clipPath2)" fill="white" width="58.5918" height="18.1328" stroke="none"/>
      <text x="1201.7041" xml:space="preserve" y="605.2117" clip-path="url(#clipPath2)" font-family="sans-serif" stroke="none">rdfs:label</text>
      <path fill="none" d="M1215 897.5 L1127.0681 897.5" clip-path="url(#clipPath2)"/>
    </g>
    <g stroke-linecap="butt" transform="matrix(1,0,0,1,-896,-501)" fill-opacity="0" fill="rgb(0,0,0)" text-rendering="geometricPrecision" shape-rendering="geometricPrecision" stroke="rgb(0,0,0)" stroke-opacity="0" stroke-miterlimit="1.45">
      <path d="M1223 897.5 C1223 899.7092 1221.2091 901.5 1219 901.5 C1216.7909 901.5 1215 899.7092 1215 897.5 C1215 895.2908 1216.7909 893.5 1219 893.5 C1221.2091 893.5 1223 895.2908 1223 897.5 Z" stroke="none" clip-path="url(#clipPath2)"/>
    </g>
    <g stroke-linecap="butt" transform="matrix(1,0,0,1,-896,-501)" fill="green" text-rendering="geometricPrecision" shape-rendering="geometricPrecision" stroke="green" stroke-miterlimit="1.45">
      <path fill="none" d="M1223 897.5 C1223 899.7092 1221.2091 901.5 1219 901.5 C1216.7909 901.5 1215 899.7092 1215 897.5 C1215 895.2908 1216.7909 893.5 1219 893.5 C1221.2091 893.5 1223 895.2908 1223 897.5 Z" clip-path="url(#clipPath2)"/>
      <path fill="white" d="M1112.0681 897.5 L1128.0681 903.5 L1128.0681 891.5 Z" clip-path="url(#clipPath2)" stroke="none"/>
      <path fill="none" d="M1112.0681 897.5 L1128.0681 903.5 L1128.0681 891.5 Z" clip-path="url(#clipPath2)"/>
      <rect x="1142.8327" y="888.4336" clip-path="url(#clipPath2)" fill="white" width="58.5918" height="18.1328" stroke="none"/>
      <text x="1144.8326" xml:space="preserve" y="902.0352" clip-path="url(#clipPath2)" font-family="sans-serif" stroke="none">rdfs:label</text>
      <path fill="none" d="M1504 911.5 L1504 944.4052" clip-path="url(#clipPath2)"/>
    </g>
    <g stroke-linecap="butt" transform="matrix(1,0,0,1,-896,-501)" fill-opacity="0" fill="rgb(0,0,0)" text-rendering="geometricPrecision" shape-rendering="geometricPrecision" stroke="rgb(0,0,0)" stroke-opacity="0" stroke-miterlimit="1.45">
      <path d="M1504 903.5 C1506.2091 903.5 1508 905.2908 1508 907.5 C1508 909.7092 1506.2091 911.5 1504 911.5 C1501.7909 911.5 1500 909.7092 1500 907.5 C1500 905.2908 1501.7909 903.5 1504 903.5 Z" stroke="none" clip-path="url(#clipPath2)"/>
    </g>
    <g stroke-linecap="butt" transform="matrix(1,0,0,1,-896,-501)" fill="green" text-rendering="geometricPrecision" shape-rendering="geometricPrecision" stroke="green" stroke-miterlimit="1.45">
      <path fill="none" d="M1504 903.5 C1506.2091 903.5 1508 905.2908 1508 907.5 C1508 909.7092 1506.2091 911.5 1504 911.5 C1501.7909 911.5 1500 909.7092 1500 907.5 C1500 905.2908 1501.7909 903.5 1504 903.5 Z" clip-path="url(#clipPath2)"/>
      <path fill="white" d="M1504 959.4052 L1510 943.4052 L1498 943.4052 Z" clip-path="url(#clipPath2)" stroke="none"/>
      <path fill="none" d="M1504 959.4052 L1510 943.4052 L1498 943.4052 Z" clip-path="url(#clipPath2)"/>
      <rect x="1474.7041" y="912.5" clip-path="url(#clipPath2)" fill="white" width="58.5918" height="18.1328" stroke="none"/>
      <text x="1476.7041" xml:space="preserve" y="926.1016" clip-path="url(#clipPath2)" font-family="sans-serif" stroke="none">rdfs:label</text>
      <path fill="none" d="M2137 911.5 L2137 961.9191" clip-path="url(#clipPath2)"/>
    </g>
    <g stroke-linecap="butt" transform="matrix(1,0,0,1,-896,-501)" fill-opacity="0" fill="rgb(0,0,0)" text-rendering="geometricPrecision" shape-rendering="geometricPrecision" stroke="rgb(0,0,0)" stroke-opacity="0" stroke-miterlimit="1.45">
      <path d="M2137 903.5 C2139.2092 903.5 2141 905.2908 2141 907.5 C2141 909.7092 2139.2092 911.5 2137 911.5 C2134.7908 911.5 2133 909.7092 2133 907.5 C2133 905.2908 2134.7908 903.5 2137 903.5 Z" stroke="none" clip-path="url(#clipPath2)"/>
    </g>
    <g stroke-linecap="butt" transform="matrix(1,0,0,1,-896,-501)" fill="green" text-rendering="geometricPrecision" shape-rendering="geometricPrecision" stroke="green" stroke-miterlimit="1.45">
      <path fill="none" d="M2137 903.5 C2139.2092 903.5 2141 905.2908 2141 907.5 C2141 909.7092 2139.2092 911.5 2137 911.5 C2134.7908 911.5 2133 909.7092 2133 907.5 C2133 905.2908 2134.7908 903.5 2137 903.5 Z" clip-path="url(#clipPath2)"/>
      <path fill="white" d="M2137 976.9191 L2143 960.9191 L2131 960.9191 Z" clip-path="url(#clipPath2)" stroke="none"/>
      <path fill="none" d="M2137 976.9191 L2143 960.9191 L2131 960.9191 Z" clip-path="url(#clipPath2)"/>
      <rect x="2107.7041" y="937.873" clip-path="url(#clipPath2)" fill="white" width="58.5918" height="18.1328" stroke="none"/>
      <text x="2109.7041" xml:space="preserve" y="951.4746" clip-path="url(#clipPath2)" font-family="sans-serif" stroke="none">rdfs:label</text>
      <path fill="none" d="M1220.0675 901.9956 L1071.535 976.7496" clip-path="url(#clipPath2)" stroke="black"/>
      <path fill="black" d="M1064.389 980.3461 L1077.3558 979.4176 L1072.4282 976.3 L1072.8602 970.4851 Z" clip-path="url(#clipPath2)" stroke="none"/>
      <rect x="1105.2385" y="932.373" clip-path="url(#clipPath2)" fill="white" width="72.9121" height="18.1328" stroke="none"/>
      <text x="1107.2384" y="945.9746" clip-path="url(#clipPath2)" fill="black" font-family="sans-serif" stroke="none" xml:space="preserve">owl:sameAs</text>
    </g>
  </g>
</svg>
