<?xml version="1.0" encoding="UTF-8"?><svg xmlns="http://www.w3.org/2000/svg" xmlns:xlink="http://www.w3.org/1999/xlink" fill-opacity="1" color-rendering="auto" color-interpolation="auto" text-rendering="auto" stroke="black" stroke-linecap="square" width="1286" stroke-miterlimit="10" shape-rendering="auto" stroke-opacity="1" fill="black" stroke-dasharray="none" font-weight="normal" stroke-width="1" height="883" font-family="'Dialog'" font-style="normal" stroke-linejoin="miter" font-size="12px" stroke-dashoffset="0" image-rendering="auto">
  <!--Generated by ySVG 2.6-->
  <defs id="genericDefs"/>
  <g>
    <defs id="defs1">
      <clipPath clipPathUnits="userSpaceOnUse" id="clipPath1">
        <path d="M0 0 L1286 0 L1286 883 L0 883 L0 0 Z"/>
      </clipPath>
      <clipPath clipPathUnits="userSpaceOnUse" id="clipPath2">
        <path d="M48 -31 L1334 -31 L1334 852 L48 852 L48 -31 Z"/>
      </clipPath>
      <clipPath clipPathUnits="userSpaceOnUse" id="clipPath3">
        <path d="M-431.1777 33.8997 L-431.1777 -1252.1002 L451.8223 -1252.1002 L451.8223 33.8997 L-431.1777 33.8997 Z"/>
      </clipPath>
      <clipPath clipPathUnits="userSpaceOnUse" id="clipPath4">
        <path d="M-491.3693 636.0664 L-491.3693 -649.9336 L391.6307 -649.9336 L391.6307 636.0664 L-491.3693 636.0664 Z"/>
      </clipPath>
    </defs>
    <g fill="white" text-rendering="geometricPrecision" shape-rendering="geometricPrecision" transform="translate(-48,31)" stroke="white">
      <rect x="48" width="1286" height="883" y="-31" clip-path="url(#clipPath2)" stroke="none"/>
    </g>
    <g fill="yellow" text-rendering="geometricPrecision" shape-rendering="geometricPrecision" transform="matrix(1,0,0,1,-48,31)" stroke="yellow">
      <rect x="849.5" y="446" clip-path="url(#clipPath2)" width="95" rx="4" ry="4" height="58" stroke="none"/>
    </g>
    <g text-rendering="geometricPrecision" stroke-miterlimit="1.45" shape-rendering="geometricPrecision" font-family="sans-serif" transform="matrix(1,0,0,1,-48,31)" stroke-linecap="butt">
      <text x="864.8877" xml:space="preserve" y="479.5352" clip-path="url(#clipPath2)" stroke="none">prov:Agent</text>
      <rect x="849.5" y="446" clip-path="url(#clipPath2)" fill="none" width="95" rx="4" ry="4" height="58"/>
    </g>
    <g fill="yellow" text-rendering="geometricPrecision" shape-rendering="geometricPrecision" transform="matrix(1,0,0,1,-48,31)" stroke="yellow">
      <rect x="937" y="96" clip-path="url(#clipPath2)" width="101" rx="4" ry="4" height="58" stroke="none"/>
    </g>
    <g text-rendering="geometricPrecision" stroke-miterlimit="1.45" shape-rendering="geometricPrecision" font-family="sans-serif" transform="matrix(1,0,0,1,-48,31)" stroke-linecap="butt">
      <text x="947.9199" xml:space="preserve" y="129.5352" clip-path="url(#clipPath2)" stroke="none">prov:Location</text>
      <rect x="937" y="96" clip-path="url(#clipPath2)" fill="none" width="101" rx="4" ry="4" height="58"/>
    </g>
    <g fill="rgb(255,153,204)" text-rendering="geometricPrecision" shape-rendering="geometricPrecision" transform="matrix(1,0,0,1,-48,31)" stroke="rgb(255,153,204)">
      <circle r="10" clip-path="url(#clipPath2)" cx="862.5" cy="125" stroke="none"/>
    </g>
    <g text-rendering="geometricPrecision" stroke-miterlimit="1.45" shape-rendering="geometricPrecision" font-family="sans-serif" transform="matrix(1,0,0,1,-48,31)" stroke-linecap="butt">
      <text x="807.3125" xml:space="preserve" y="110.4688" clip-path="url(#clipPath2)" stroke="none">:trento</text>
      <circle fill="none" stroke-width="3" r="10" clip-path="url(#clipPath2)" cx="862.5" cy="125"/>
    </g>
    <g fill="rgb(255,153,204)" text-rendering="geometricPrecision" shape-rendering="geometricPrecision" transform="matrix(1,0,0,1,-48,31)" stroke="rgb(255,153,204)">
      <circle r="10" clip-path="url(#clipPath2)" cx="897" cy="375" stroke="none"/>
    </g>
    <g text-rendering="geometricPrecision" stroke-miterlimit="1.45" shape-rendering="geometricPrecision" font-family="sans-serif" transform="matrix(1,0,0,1,-48,31)" stroke-linecap="butt">
      <text x="799.6074" xml:space="preserve" y="360.4688" clip-path="url(#clipPath2)" stroke="none">:maurizio_cau</text>
      <circle fill="none" stroke-width="3" r="10" clip-path="url(#clipPath2)" cx="897" cy="375"/>
    </g>
    <g fill="rgb(255,153,204)" text-rendering="geometricPrecision" shape-rendering="geometricPrecision" transform="matrix(1,0,0,1,-48,31)" stroke="rgb(255,153,204)">
      <circle r="10" clip-path="url(#clipPath2)" cx="997" cy="475" stroke="none"/>
    </g>
    <g text-rendering="geometricPrecision" stroke-miterlimit="1.45" shape-rendering="geometricPrecision" font-family="sans-serif" transform="matrix(1,0,0,1,-48,31)" stroke-linecap="butt">
      <text x="956.666" xml:space="preserve" y="460.4688" clip-path="url(#clipPath2)" stroke="none">:isig</text>
      <circle fill="none" stroke-width="3" r="10" clip-path="url(#clipPath2)" cx="997" cy="475"/>
    </g>
    <g fill="yellow" text-rendering="geometricPrecision" shape-rendering="geometricPrecision" transform="matrix(1,0,0,1,-48,31)" stroke="yellow">
      <rect x="681.6667" y="-4" clip-path="url(#clipPath2)" width="88" rx="4" ry="4" height="58" stroke="none"/>
    </g>
    <g text-rendering="geometricPrecision" stroke-miterlimit="1.45" shape-rendering="geometricPrecision" font-family="sans-serif" transform="matrix(1,0,0,1,-48,31)" stroke-linecap="butt">
      <text x="689.3356" xml:space="preserve" y="29.5352" clip-path="url(#clipPath2)" stroke="none">prov:Activity</text>
      <rect x="681.6667" y="-4" clip-path="url(#clipPath2)" fill="none" width="88" rx="4" ry="4" height="58"/>
    </g>
    <g fill="yellow" text-rendering="geometricPrecision" shape-rendering="geometricPrecision" transform="matrix(1,0,0,1,-48,31)" stroke="yellow">
      <rect x="424.5" y="571" clip-path="url(#clipPath2)" width="101" rx="4" ry="4" height="58" stroke="none"/>
    </g>
    <g text-rendering="geometricPrecision" stroke-miterlimit="1.45" shape-rendering="geometricPrecision" font-family="sans-serif" transform="matrix(1,0,0,1,-48,31)" stroke-linecap="butt">
      <text x="443.7461" xml:space="preserve" y="604.5352" clip-path="url(#clipPath2)" stroke="none">prov:Entity</text>
      <rect x="424.5" y="571" clip-path="url(#clipPath2)" fill="none" width="101" rx="4" ry="4" height="58"/>
    </g>
    <g fill="yellow" text-rendering="geometricPrecision" shape-rendering="geometricPrecision" transform="matrix(1,0,0,1,-48,31)" stroke="yellow">
      <rect x="332.3333" y="490" clip-path="url(#clipPath2)" width="101" rx="4" ry="4" height="58" stroke="none"/>
    </g>
    <g text-rendering="geometricPrecision" stroke-miterlimit="1.45" shape-rendering="geometricPrecision" font-family="sans-serif" transform="matrix(1,0,0,1,-48,31)" stroke-linecap="butt">
      <text x="346.5169" xml:space="preserve" y="523.5352" clip-path="url(#clipPath2)" stroke="none">dcat:Dataset</text>
      <rect x="332.3333" y="490" clip-path="url(#clipPath2)" fill="none" width="101" rx="4" ry="4" height="58"/>
    </g>
    <g fill="rgb(255,153,204)" text-rendering="geometricPrecision" shape-rendering="geometricPrecision" transform="matrix(1,0,0,1,-48,31)" stroke="rgb(255,153,204)">
      <circle r="10" clip-path="url(#clipPath2)" cx="475" cy="450" stroke="none"/>
    </g>
    <g text-rendering="geometricPrecision" stroke-miterlimit="1.45" shape-rendering="geometricPrecision" font-family="sans-serif" transform="matrix(1,0,0,1,-48,31)" stroke-linecap="butt">
      <text x="375.709" xml:space="preserve" y="435.4688" clip-path="url(#clipPath2)" stroke="none">:alcide_corpus</text>
      <circle fill="none" stroke-width="3" r="10" clip-path="url(#clipPath2)" cx="475" cy="450"/>
    </g>
    <g fill="rgb(255,153,204)" text-rendering="geometricPrecision" shape-rendering="geometricPrecision" transform="matrix(1,0,0,1,-48,31)" stroke="rgb(255,153,204)">
      <circle r="10" clip-path="url(#clipPath2)" cx="675" cy="125" stroke="none"/>
    </g>
    <g text-rendering="geometricPrecision" stroke-miterlimit="1.45" shape-rendering="geometricPrecision" font-family="sans-serif" transform="matrix(1,0,0,1,-48,31)" stroke-linecap="butt">
      <text x="621.2539" xml:space="preserve" y="110.4688" clip-path="url(#clipPath2)" stroke="none">:alcide</text>
      <circle fill="none" stroke-width="3" r="10" clip-path="url(#clipPath2)" cx="675" cy="125"/>
    </g>
    <g fill="rgb(255,153,204)" text-rendering="geometricPrecision" shape-rendering="geometricPrecision" transform="matrix(1,0,0,1,-48,31)" stroke="rgb(255,153,204)">
      <circle r="10" clip-path="url(#clipPath2)" cx="475" cy="737" stroke="none"/>
    </g>
    <g text-rendering="geometricPrecision" stroke-miterlimit="1.45" shape-rendering="geometricPrecision" font-family="sans-serif" transform="matrix(1,0,0,1,-48,31)" stroke-linecap="butt">
      <text x="374.7715" xml:space="preserve" y="722.4688" clip-path="url(#clipPath2)" stroke="none">:alcide_edition</text>
      <circle fill="none" stroke-width="3" r="10" clip-path="url(#clipPath2)" cx="475" cy="737"/>
    </g>
    <g fill="rgb(255,153,204)" text-rendering="geometricPrecision" shape-rendering="geometricPrecision" transform="matrix(1,0,0,1,-48,31)" stroke="rgb(255,153,204)">
      <circle r="10" clip-path="url(#clipPath2)" cx="197.8333" cy="325" stroke="none"/>
    </g>
    <g text-rendering="geometricPrecision" stroke-miterlimit="1.45" shape-rendering="geometricPrecision" font-family="sans-serif" transform="matrix(1,0,0,1,-48,31)" stroke-linecap="butt">
      <text x="93.8431" xml:space="preserve" y="310.4688" clip-path="url(#clipPath2)" stroke="none">:alcide_website</text>
      <circle fill="none" stroke-width="3" r="10" clip-path="url(#clipPath2)" cx="197.8333" cy="325"/>
    </g>
    <g fill="yellow" text-rendering="geometricPrecision" shape-rendering="geometricPrecision" transform="matrix(1,0,0,1,-48,31)" stroke="yellow">
      <rect x="86.8333" y="372" clip-path="url(#clipPath2)" width="101" rx="4" ry="4" height="58" stroke="none"/>
    </g>
    <g text-rendering="geometricPrecision" stroke-miterlimit="1.45" shape-rendering="geometricPrecision" font-family="sans-serif" transform="matrix(1,0,0,1,-48,31)" stroke-linecap="butt">
      <text x="100.8441" xml:space="preserve" y="405.5352" clip-path="url(#clipPath2)" stroke="none">dcat:Catalog</text>
      <rect x="86.8333" y="372" clip-path="url(#clipPath2)" fill="none" width="101" rx="4" ry="4" height="58"/>
    </g>
    <g fill="yellow" text-rendering="geometricPrecision" shape-rendering="geometricPrecision" transform="matrix(1,0,0,1,-48,31)" stroke="yellow">
      <rect x="803.3333" y="571" clip-path="url(#clipPath2)" width="101" rx="4" ry="4" height="58" stroke="none"/>
    </g>
    <g text-rendering="geometricPrecision" stroke-miterlimit="1.45" shape-rendering="geometricPrecision" font-family="sans-serif" transform="matrix(1,0,0,1,-48,31)" stroke-linecap="butt">
      <text x="805.8773" xml:space="preserve" y="604.5352" clip-path="url(#clipPath2)" stroke="none">dcat:DataService</text>
      <rect x="803.3333" y="571" clip-path="url(#clipPath2)" fill="none" width="101" rx="4" ry="4" height="58"/>
    </g>
    <g fill="rgb(255,153,204)" text-rendering="geometricPrecision" shape-rendering="geometricPrecision" transform="matrix(1,0,0,1,-48,31)" stroke="rgb(255,153,204)">
      <circle r="10" clip-path="url(#clipPath2)" cx="675" cy="600" stroke="none"/>
    </g>
    <g text-rendering="geometricPrecision" stroke-miterlimit="1.45" shape-rendering="geometricPrecision" font-family="sans-serif" transform="matrix(1,0,0,1,-48,31)" stroke-linecap="butt">
      <text x="691" xml:space="preserve" y="585.4688" clip-path="url(#clipPath2)" stroke="none">:alcide_platform</text>
      <circle fill="none" stroke-width="3" r="10" clip-path="url(#clipPath2)" cx="675" cy="600"/>
      <text x="311.8555" xml:space="preserve" y="-1.5195" clip-path="url(#clipPath2)" stroke="none">2018/12/31^^xsd:date</text>
      <text x="484.5" xml:space="preserve" y="-1.5195" clip-path="url(#clipPath2)" stroke="none">2015/01/01^^xsd:date</text>
      <text x="410.6045" xml:space="preserve" y="186.0703" clip-path="url(#clipPath2)" stroke="none">"ALCIDE </text>
      <text x="410.6045" xml:space="preserve" y="200.2031" clip-path="url(#clipPath2)" stroke="none">(Analysis of Language </text>
      <text x="410.6045" xml:space="preserve" y="214.3359" clip-path="url(#clipPath2)" stroke="none">and Content In a </text>
      <text x="410.6045" xml:space="preserve" y="228.4688" clip-path="url(#clipPath2)" stroke="none">Digital Environment)"@en</text>
      <text x="399.3672" xml:space="preserve" y="362.7109" clip-path="url(#clipPath2)" stroke="none">"De Gasperi's Corpus"@en</text>
      <text x="208.4036" xml:space="preserve" font-size="10px" y="448.7344" clip-path="url(#clipPath2)" stroke="none">&lt;github.com/StefanoMenini/</text>
      <text x="208.4036" xml:space="preserve" font-size="10px" y="460.5117" clip-path="url(#clipPath2)" stroke="none">De-Gasperi-s-Corpus&gt;</text>
      <text x="530.6709" xml:space="preserve" y="529.8718" clip-path="url(#clipPath2)" stroke="none">"ALCIDE platform"@en</text>
      <text x="578.3496" xml:space="preserve" y="686.9324" clip-path="url(#clipPath2)" stroke="none">&lt;alcidedigitale.fbk.eu/platform&gt;</text>
      <text x="585.6789" xml:space="preserve" y="727.381" clip-path="url(#clipPath2)" stroke="none">"A. De Gasperi, </text>
      <text x="585.6789" xml:space="preserve" y="741.5139" clip-path="url(#clipPath2)" stroke="none">Scritti e discorsi politici, </text>
      <text x="585.6789" xml:space="preserve" y="755.6467" clip-path="url(#clipPath2)" stroke="none">I-IV"@it </text>
      <text x="392.1543" xml:space="preserve" y="817.7906" clip-path="url(#clipPath2)" stroke="none">&lt;mulino.it/collana/</text>
      <text x="392.1543" xml:space="preserve" y="831.9234" clip-path="url(#clipPath2)" stroke="none">scritti-discorsi-de-gasperi&gt;</text>
      <text x="891.376" xml:space="preserve" y="555.1564" clip-path="url(#clipPath2)" stroke="none">"Istituto Storico Italo-Germanico"@it</text>
      <text x="1127.1124" xml:space="preserve" y="476.0226" clip-path="url(#clipPath2)" stroke="none">&lt;wikidata.org/wiki/Q1674874&gt;</text>
      <text x="946.9688" xml:space="preserve" y="305.4688" clip-path="url(#clipPath2)" stroke="none">&lt;orcid.org/0000-0002-2973-1574&gt;</text>
      <text x="845.0479" xml:space="preserve" y="272.1048" clip-path="url(#clipPath2)" stroke="none">"Maurizio Cau"@it</text>
      <text x="829.6436" xml:space="preserve" y="211.8261" clip-path="url(#clipPath2)" stroke="none">"Trento"@it</text>
      <text x="781.667" xml:space="preserve" y="49.4688" clip-path="url(#clipPath2)" stroke="none">&lt;geonames.org/3165243&gt;</text>
      <text x="136.1488" xml:space="preserve" y="217.4376" clip-path="url(#clipPath2)" stroke="none">"ALCIDE website"@en</text>
      <text x="230.3662" xml:space="preserve" y="187.4227" clip-path="url(#clipPath2)" stroke="none">&lt;alcidedigitale.fbk.eu/&gt;</text>
      <path fill="none" d="M936.9685 125 L880.5 125" clip-path="url(#clipPath2)"/>
      <path d="M872.5 125 L884.5 130 L881.5 125 L884.5 120 Z" clip-path="url(#clipPath2)" stroke="none"/>
      <path fill="none" d="M862.5 139 L862.5 176.2028" clip-path="url(#clipPath2)" stroke="green"/>
    </g>
    <g stroke-linecap="butt" transform="matrix(1,0,0,1,-48,31)" fill-opacity="0" fill="rgb(0,0,0)" text-rendering="geometricPrecision" shape-rendering="geometricPrecision" stroke="rgb(0,0,0)" stroke-opacity="0" stroke-miterlimit="1.45">
      <path d="M862.5 131 C864.7092 131 866.5 132.7909 866.5 135 C866.5 137.2091 864.7092 139 862.5 139 C860.2908 139 858.5 137.2091 858.5 135 C858.5 132.7909 860.2908 131 862.5 131 Z" stroke="none" clip-path="url(#clipPath2)"/>
    </g>
    <g stroke-linecap="butt" transform="matrix(1,0,0,1,-48,31)" fill="green" text-rendering="geometricPrecision" shape-rendering="geometricPrecision" stroke="green" stroke-miterlimit="1.45">
      <path fill="none" d="M862.5 131 C864.7092 131 866.5 132.7909 866.5 135 C866.5 137.2091 864.7092 139 862.5 139 C860.2908 139 858.5 137.2091 858.5 135 C858.5 132.7909 860.2908 131 862.5 131 Z" clip-path="url(#clipPath2)"/>
      <path fill="white" d="M862.5 191.2028 L868.5 175.2028 L856.5 175.2028 Z" clip-path="url(#clipPath2)" stroke="none"/>
      <path fill="none" d="M862.5 191.2028 L868.5 175.2028 L856.5 175.2028 Z" clip-path="url(#clipPath2)"/>
      <rect x="833.2041" y="140" clip-path="url(#clipPath2)" fill="white" width="58.5918" height="18.1328" stroke="none"/>
      <text x="835.2041" xml:space="preserve" y="153.6016" clip-path="url(#clipPath2)" font-family="sans-serif" stroke="none">rdfs:label</text>
      <path fill="none" d="M897 445.9702 L897 393" clip-path="url(#clipPath2)" stroke="black"/>
      <path fill="black" d="M897 385 L892 397 L897 394 L902 397 Z" clip-path="url(#clipPath2)" stroke="none"/>
      <path fill="none" d="M897 361 L897 296.6996" clip-path="url(#clipPath2)"/>
    </g>
    <g stroke-linecap="butt" transform="matrix(1,0,0,1,-48,31)" fill-opacity="0" fill="rgb(0,0,0)" text-rendering="geometricPrecision" shape-rendering="geometricPrecision" stroke="rgb(0,0,0)" stroke-opacity="0" stroke-miterlimit="1.45">
      <path d="M897 369 C894.7908 369 893 367.2091 893 365 C893 362.7909 894.7908 361 897 361 C899.2092 361 901 362.7909 901 365 C901 367.2091 899.2092 369 897 369 Z" stroke="none" clip-path="url(#clipPath2)"/>
    </g>
    <g stroke-linecap="butt" transform="matrix(1,0,0,1,-48,31)" fill="green" text-rendering="geometricPrecision" shape-rendering="geometricPrecision" stroke="green" stroke-miterlimit="1.45">
      <path fill="none" d="M897 369 C894.7908 369 893 367.2091 893 365 C893 362.7909 894.7908 361 897 361 C899.2092 361 901 362.7909 901 365 C901 367.2091 899.2092 369 897 369 Z" clip-path="url(#clipPath2)"/>
      <path fill="white" d="M897 281.6996 L891 297.6996 L903 297.6996 Z" clip-path="url(#clipPath2)" stroke="none"/>
      <path fill="none" d="M897 281.6996 L891 297.6996 L903 297.6996 Z" clip-path="url(#clipPath2)"/>
      <rect x="867.7041" y="307.2502" clip-path="url(#clipPath2)" fill="white" width="58.5918" height="18.1328" stroke="none"/>
      <text x="869.7041" xml:space="preserve" y="320.8518" clip-path="url(#clipPath2)" font-family="sans-serif" stroke="none">rdfs:label</text>
      <path fill="none" d="M907 375 L1036.559 318.551" clip-path="url(#clipPath2)" stroke="black"/>
      <path fill="black" d="M1043.8931 315.3555 L1030.8948 315.5649 L1035.6422 318.9504 L1034.889 324.7325 Z" clip-path="url(#clipPath2)" stroke="none"/>
      <rect x="959.7185" y="327.0801" clip-path="url(#clipPath2)" fill="white" width="72.9121" height="18.1328" stroke="none"/>
      <text x="961.7185" y="340.6817" clip-path="url(#clipPath2)" fill="black" font-family="sans-serif" stroke="none" xml:space="preserve">owl:sameAs</text>
      <path fill="none" d="M909.7009 380 L997 380 L997 454" clip-path="url(#clipPath2)" stroke="navy"/>
      <path fill="navy" d="M901.7009 380 C901.7009 377.7909 903.4917 376 905.7009 376 C907.91 376 909.7009 377.7909 909.7009 380 C909.7009 382.2091 907.91 384 905.7009 384 C903.4917 384 901.7009 382.2091 901.7009 380 Z" clip-path="url(#clipPath2)" stroke="none"/>
      <path fill="navy" d="M997 465 L1003 453 L991 453 Z" clip-path="url(#clipPath2)" stroke="none"/>
      <rect x="931.3057" y="370.9336" clip-path="url(#clipPath2)" fill="white" width="131.3887" height="18.1328" stroke="none"/>
      <text x="933.3057" y="384.5352" clip-path="url(#clipPath2)" fill="navy" font-family="sans-serif" stroke="none" xml:space="preserve">prov:actedOnBehalfOf</text>
      <path fill="none" d="M944.5 475 L979 475" clip-path="url(#clipPath2)" stroke="black"/>
      <path fill="black" d="M987 475 L975 470 L978 475 L975 480 Z" clip-path="url(#clipPath2)" stroke="none"/>
      <path fill="none" d="M475 570.9729 L475 468" clip-path="url(#clipPath2)" stroke="black"/>
      <path fill="black" d="M475 460 L470 472 L475 469 L480 472 Z" clip-path="url(#clipPath2)" stroke="none"/>
      <path fill="none" d="M433.3596 519 L475 519 L475 468" clip-path="url(#clipPath2)" stroke="black"/>
      <path fill="black" d="M475 460 L470 472 L475 469 L480 472 Z" clip-path="url(#clipPath2)" stroke="none"/>
      <path fill="none" d="M725.6667 54 L725.6667 115 L683 115" clip-path="url(#clipPath2)" stroke="black"/>
      <path fill="black" d="M675 115 L687 120 L684 115 L687 110 Z" clip-path="url(#clipPath2)" stroke="none"/>
      <path fill="none" d="M672.5 138.6947 L672.5 450 L496 450" clip-path="url(#clipPath2)" stroke="navy"/>
      <path fill="navy" d="M672.5 130.6947 C674.7092 130.6947 676.5 132.4856 676.5 134.6947 C676.5 136.9039 674.7092 138.6947 672.5 138.6947 C670.2908 138.6947 668.5 136.9039 668.5 134.6947 C668.5 132.4856 670.2908 130.6947 672.5 130.6947 Z" clip-path="url(#clipPath2)" stroke="none"/>
      <path fill="navy" d="M485 450 L497 456 L497 444 Z" clip-path="url(#clipPath2)" stroke="none"/>
      <rect x="558.1484" y="440.9336" clip-path="url(#clipPath2)" fill="white" width="92.4062" height="18.1328" stroke="none"/>
      <text x="560.1484" y="454.5352" clip-path="url(#clipPath2)" fill="navy" font-family="sans-serif" stroke="none" xml:space="preserve">prov:generated</text>
      <path fill="none" d="M675 111 L675 65.4167 L540 65.4167 L540 19.5" clip-path="url(#clipPath2)"/>
    </g>
    <g stroke-linecap="butt" transform="matrix(1,0,0,1,-48,31)" fill-opacity="0" fill="rgb(0,0,0)" text-rendering="geometricPrecision" shape-rendering="geometricPrecision" stroke="rgb(0,0,0)" stroke-opacity="0" stroke-miterlimit="1.45">
      <path d="M675 119 C672.7908 119 671 117.2091 671 115 C671 112.7909 672.7908 111 675 111 C677.2092 111 679 112.7909 679 115 C679 117.2091 677.2092 119 675 119 Z" stroke="none" clip-path="url(#clipPath2)"/>
    </g>
    <g stroke-linecap="butt" transform="matrix(1,0,0,1,-48,31)" fill="green" text-rendering="geometricPrecision" shape-rendering="geometricPrecision" stroke="green" stroke-miterlimit="1.45">
      <path fill="none" d="M675 119 C672.7908 119 671 117.2091 671 115 C671 112.7909 672.7908 111 675 111 C677.2092 111 679 112.7909 679 115 C679 117.2091 677.2092 119 675 119 Z" clip-path="url(#clipPath2)"/>
      <path fill="white" d="M540 4.5 L534 20.5 L546 20.5 Z" clip-path="url(#clipPath2)" stroke="none"/>
      <path fill="none" d="M540 4.5 L534 20.5 L546 20.5 Z" clip-path="url(#clipPath2)"/>
      <rect x="555.7956" y="56.3503" clip-path="url(#clipPath2)" fill="white" width="116.4238" height="18.1328" stroke="none"/>
      <text x="557.7956" xml:space="preserve" y="69.9518" clip-path="url(#clipPath2)" font-family="sans-serif" stroke="none">prov:startedAtTime</text>
      <path fill="none" d="M689 125 L841.5 125" clip-path="url(#clipPath2)" stroke="navy"/>
      <path fill="navy" d="M681 125 C681 122.7909 682.7908 121 685 121 C687.2092 121 689 122.7909 689 125 C689 127.2091 687.2092 129 685 129 C682.7908 129 681 127.2091 681 125 Z" clip-path="url(#clipPath2)" stroke="none"/>
      <path fill="navy" d="M852.5 125 L840.5 119 L840.5 131 Z" clip-path="url(#clipPath2)" stroke="none"/>
      <rect x="721.6123" y="115.9336" clip-path="url(#clipPath2)" fill="white" width="94.2754" height="18.1328" stroke="none"/>
      <text x="723.6123" y="129.5352" clip-path="url(#clipPath2)" fill="navy" font-family="sans-serif" stroke="none" xml:space="preserve">prov:atLocation</text>
      <path fill="none" d="M676.25 139 L676.25 375 L876 375" clip-path="url(#clipPath2)" stroke="navy"/>
      <path fill="navy" d="M676.25 131 C678.4592 131 680.25 132.7909 680.25 135 C680.25 137.2091 678.4592 139 676.25 139 C674.0408 139 672.25 137.2091 672.25 135 C672.25 132.7909 674.0408 131 676.25 131 Z" clip-path="url(#clipPath2)" stroke="none"/>
      <path fill="navy" d="M887 375 L875 369 L875 381 Z" clip-path="url(#clipPath2)" stroke="none"/>
      <rect x="697.2187" y="365.9336" clip-path="url(#clipPath2)" fill="white" width="144.3555" height="18.1328" stroke="none"/>
      <text x="699.2188" y="379.5352" clip-path="url(#clipPath2)" fill="navy" font-family="sans-serif" stroke="none" xml:space="preserve">prov:wasAssociatedWith</text>
      <path fill="none" d="M475 629 L475 719" clip-path="url(#clipPath2)" stroke="black"/>
      <path fill="black" d="M475 727 L480 715 L475 718 L470 715 Z" clip-path="url(#clipPath2)" stroke="none"/>
      <path fill="none" d="M661 125 L72.8333 125 L72.8333 737 L454 737" clip-path="url(#clipPath2)" stroke="navy"/>
      <path fill="navy" d="M669 125 C669 127.2091 667.2092 129 665 129 C662.7908 129 661 127.2091 661 125 C661 122.7909 662.7908 121 665 121 C667.2092 121 669 122.7909 669 125 Z" clip-path="url(#clipPath2)" stroke="none"/>
      <path fill="navy" d="M465 737 L453 731 L453 743 Z" clip-path="url(#clipPath2)" stroke="none"/>
    </g>
    <g stroke-linecap="butt" transform="matrix(0,1,-1,0,33.8997,431.1777)" fill="white" text-rendering="geometricPrecision" shape-rendering="geometricPrecision" stroke="white" stroke-miterlimit="1.45">
      <rect x="0" width="61.6445" height="18.1328" y="0" clip-path="url(#clipPath3)" stroke="none"/>
      <text x="2" y="13.6016" clip-path="url(#clipPath3)" fill="navy" font-family="sans-serif" stroke="none" xml:space="preserve">prov:used</text>
    </g>
    <g stroke-linecap="butt" transform="matrix(1,0,0,1,-48,31)" fill="green" text-rendering="geometricPrecision" shape-rendering="geometricPrecision" stroke="green" stroke-miterlimit="1.45">
      <path fill="none" d="M489 737 L559.6381 737" clip-path="url(#clipPath2)"/>
    </g>
    <g stroke-linecap="butt" transform="matrix(1,0,0,1,-48,31)" fill-opacity="0" fill="rgb(0,0,0)" text-rendering="geometricPrecision" shape-rendering="geometricPrecision" stroke="rgb(0,0,0)" stroke-opacity="0" stroke-miterlimit="1.45">
      <path d="M481 737 C481 734.7908 482.7909 733 485 733 C487.2091 733 489 734.7908 489 737 C489 739.2092 487.2091 741 485 741 C482.7909 741 481 739.2092 481 737 Z" stroke="none" clip-path="url(#clipPath2)"/>
    </g>
    <g stroke-linecap="butt" transform="matrix(1,0,0,1,-48,31)" fill="green" text-rendering="geometricPrecision" shape-rendering="geometricPrecision" stroke="green" stroke-miterlimit="1.45">
      <path fill="none" d="M481 737 C481 734.7908 482.7909 733 485 733 C487.2091 733 489 734.7908 489 737 C489 739.2092 487.2091 741 485 741 C482.7909 741 481 739.2092 481 737 Z" clip-path="url(#clipPath2)"/>
      <path fill="white" d="M574.6381 737 L558.6381 731 L558.6381 743 Z" clip-path="url(#clipPath2)" stroke="none"/>
      <path fill="none" d="M574.6381 737 L558.6381 731 L558.6381 743 Z" clip-path="url(#clipPath2)"/>
      <rect x="502.11" y="727.9336" clip-path="url(#clipPath2)" fill="white" width="48.584" height="18.1328" stroke="none"/>
      <text x="504.11" xml:space="preserve" y="741.5352" clip-path="url(#clipPath2)" font-family="sans-serif" stroke="none">dct:title</text>
      <path fill="none" d="M424.4723 600 L197.8333 600 L197.8333 343" clip-path="url(#clipPath2)" stroke="black"/>
      <path fill="black" d="M197.8333 335 L192.8333 347 L197.8333 344 L202.8333 347 Z" clip-path="url(#clipPath2)" stroke="none"/>
      <path fill="none" d="M670 137.703 L670 325 L218.8333 325" clip-path="url(#clipPath2)" stroke="navy"/>
      <path fill="navy" d="M670 129.703 C672.2092 129.703 674 131.4938 674 133.703 C674 135.9121 672.2092 137.703 670 137.703 C667.7908 137.703 666 135.9121 666 133.703 C666 131.4938 667.7908 129.703 670 129.703 Z" clip-path="url(#clipPath2)" stroke="none"/>
      <path fill="navy" d="M207.8333 325 L219.8333 331 L219.8333 319 Z" clip-path="url(#clipPath2)" stroke="none"/>
      <rect x="397.276" y="315.9336" clip-path="url(#clipPath2)" fill="white" width="92.4062" height="18.1328" stroke="none"/>
      <text x="399.276" y="329.5352" clip-path="url(#clipPath2)" fill="navy" font-family="sans-serif" stroke="none" xml:space="preserve">prov:generated</text>
      <path fill="none" d="M137.3333 371.9541 L137.3333 325 L179.8333 325" clip-path="url(#clipPath2)" stroke="black"/>
      <path fill="black" d="M187.8333 325 L175.8333 320 L178.8333 325 L175.8333 330 Z" clip-path="url(#clipPath2)" stroke="none"/>
      <path fill="none" d="M997 489 L997 520.2404" clip-path="url(#clipPath2)"/>
    </g>
    <g stroke-linecap="butt" transform="matrix(1,0,0,1,-48,31)" fill-opacity="0" fill="rgb(0,0,0)" text-rendering="geometricPrecision" shape-rendering="geometricPrecision" stroke="rgb(0,0,0)" stroke-opacity="0" stroke-miterlimit="1.45">
      <path d="M997 481 C999.2092 481 1001 482.7909 1001 485 C1001 487.2091 999.2092 489 997 489 C994.7908 489 993 487.2091 993 485 C993 482.7909 994.7908 481 997 481 Z" stroke="none" clip-path="url(#clipPath2)"/>
    </g>
    <g stroke-linecap="butt" transform="matrix(1,0,0,1,-48,31)" fill="green" text-rendering="geometricPrecision" shape-rendering="geometricPrecision" stroke="green" stroke-miterlimit="1.45">
      <path fill="none" d="M997 481 C999.2092 481 1001 482.7909 1001 485 C1001 487.2091 999.2092 489 997 489 C994.7908 489 993 487.2091 993 485 C993 482.7909 994.7908 481 997 481 Z" clip-path="url(#clipPath2)"/>
      <path fill="white" d="M997 535.2404 L1003 519.2404 L991 519.2404 Z" clip-path="url(#clipPath2)" stroke="none"/>
      <path fill="none" d="M997 535.2404 L1003 519.2404 L991 519.2404 Z" clip-path="url(#clipPath2)"/>
      <rect x="967.7041" y="490" clip-path="url(#clipPath2)" fill="white" width="58.5918" height="18.1328" stroke="none"/>
      <text x="969.7041" xml:space="preserve" y="503.6016" clip-path="url(#clipPath2)" font-family="sans-serif" stroke="none">rdfs:label</text>
      <path fill="none" d="M525.5 600 L657 600" clip-path="url(#clipPath2)" stroke="black"/>
      <path fill="black" d="M665 600 L653 595 L656 600 L653 605 Z" clip-path="url(#clipPath2)" stroke="none"/>
      <path fill="none" d="M803.3044 600 L693 600" clip-path="url(#clipPath2)" stroke="black"/>
      <path fill="black" d="M685 600 L697 605 L694 600 L697 595 Z" clip-path="url(#clipPath2)" stroke="none"/>
      <path fill="none" d="M675 139 L675 579" clip-path="url(#clipPath2)" stroke="navy"/>
      <path fill="navy" d="M675 131 C677.2092 131 679 132.7909 679 135 C679 137.2091 677.2092 139 675 139 C672.7908 139 671 137.2091 671 135 C671 132.7909 672.7908 131 675 131 Z" clip-path="url(#clipPath2)" stroke="none"/>
      <path fill="navy" d="M675 590 L681 578 L669 578 Z" clip-path="url(#clipPath2)" stroke="none"/>
    </g>
    <g stroke-linecap="butt" transform="matrix(0,1,-1,0,636.0664,491.3693)" fill="white" text-rendering="geometricPrecision" shape-rendering="geometricPrecision" stroke="white" stroke-miterlimit="1.45">
      <rect x="0" width="92.4062" height="18.1328" y="0" clip-path="url(#clipPath4)" stroke="none"/>
      <text x="2" y="13.6016" clip-path="url(#clipPath4)" fill="navy" font-family="sans-serif" stroke="none" xml:space="preserve">prov:generated</text>
    </g>
    <g stroke-linecap="butt" transform="matrix(1,0,0,1,-48,31)" fill="green" text-rendering="geometricPrecision" shape-rendering="geometricPrecision" stroke="green" stroke-miterlimit="1.45">
      <path fill="none" d="M662.3113 595 L600 595 L600 554.7278" clip-path="url(#clipPath2)"/>
    </g>
    <g stroke-linecap="butt" transform="matrix(1,0,0,1,-48,31)" fill-opacity="0" fill="rgb(0,0,0)" text-rendering="geometricPrecision" shape-rendering="geometricPrecision" stroke="rgb(0,0,0)" stroke-opacity="0" stroke-miterlimit="1.45">
      <path d="M670.3113 595 C670.3113 597.2092 668.5205 599 666.3113 599 C664.1022 599 662.3113 597.2092 662.3113 595 C662.3113 592.7908 664.1022 591 666.3113 591 C668.5205 591 670.3113 592.7908 670.3113 595 Z" stroke="none" clip-path="url(#clipPath2)"/>
    </g>
    <g stroke-linecap="butt" transform="matrix(1,0,0,1,-48,31)" fill="green" text-rendering="geometricPrecision" shape-rendering="geometricPrecision" stroke="green" stroke-miterlimit="1.45">
      <path fill="none" d="M670.3113 595 C670.3113 597.2092 668.5205 599 666.3113 599 C664.1022 599 662.3113 597.2092 662.3113 595 C662.3113 592.7908 664.1022 591 666.3113 591 C668.5205 591 670.3113 592.7908 670.3113 595 Z" clip-path="url(#clipPath2)"/>
      <path fill="white" d="M600 539.7278 L594 555.7278 L606 555.7278 Z" clip-path="url(#clipPath2)" stroke="none"/>
      <path fill="none" d="M600 539.7278 L594 555.7278 L606 555.7278 Z" clip-path="url(#clipPath2)"/>
      <rect x="570.7041" y="558.2975" clip-path="url(#clipPath2)" fill="white" width="58.5918" height="18.1328" stroke="none"/>
      <text x="572.7041" xml:space="preserve" y="571.899" clip-path="url(#clipPath2)" font-family="sans-serif" stroke="none">rdfs:label</text>
      <path fill="none" d="M675 614 L675 649.6284" clip-path="url(#clipPath2)"/>
    </g>
    <g stroke-linecap="butt" transform="matrix(1,0,0,1,-48,31)" fill-opacity="0" fill="rgb(0,0,0)" text-rendering="geometricPrecision" shape-rendering="geometricPrecision" stroke="rgb(0,0,0)" stroke-opacity="0" stroke-miterlimit="1.45">
      <path d="M675 606 C677.2092 606 679 607.7908 679 610 C679 612.2092 677.2092 614 675 614 C672.7908 614 671 612.2092 671 610 C671 607.7908 672.7908 606 675 606 Z" stroke="none" clip-path="url(#clipPath2)"/>
    </g>
    <g stroke-linecap="butt" transform="matrix(1,0,0,1,-48,31)" fill="green" text-rendering="geometricPrecision" shape-rendering="geometricPrecision" stroke="green" stroke-miterlimit="1.45">
      <path fill="none" d="M675 606 C677.2092 606 679 607.7908 679 610 C679 612.2092 677.2092 614 675 614 C672.7908 614 671 612.2092 671 610 C671 607.7908 672.7908 606 675 606 Z" clip-path="url(#clipPath2)"/>
      <path fill="white" d="M675 664.6284 L681 648.6284 L669 648.6284 Z" clip-path="url(#clipPath2)" stroke="none"/>
      <path fill="none" d="M675 664.6284 L681 648.6284 L669 648.6284 Z" clip-path="url(#clipPath2)"/>
      <rect x="642.8594" y="615" clip-path="url(#clipPath2)" fill="white" width="64.2812" height="18.1328" stroke="none"/>
      <text x="644.8594" xml:space="preserve" y="628.6016" clip-path="url(#clipPath2)" font-family="sans-serif" stroke="none">prov:value</text>
      <path fill="none" d="M675 111 L675 79.4167 L423.0347 79.4167 L423.0347 22.1525" clip-path="url(#clipPath2)"/>
    </g>
    <g stroke-linecap="butt" transform="matrix(1,0,0,1,-48,31)" fill-opacity="0" fill="rgb(0,0,0)" text-rendering="geometricPrecision" shape-rendering="geometricPrecision" stroke="rgb(0,0,0)" stroke-opacity="0" stroke-miterlimit="1.45">
      <path d="M675 119 C672.7908 119 671 117.2091 671 115 C671 112.7909 672.7908 111 675 111 C677.2092 111 679 112.7909 679 115 C679 117.2091 677.2092 119 675 119 Z" stroke="none" clip-path="url(#clipPath2)"/>
    </g>
    <g stroke-linecap="butt" transform="matrix(1,0,0,1,-48,31)" fill="green" text-rendering="geometricPrecision" shape-rendering="geometricPrecision" stroke="green" stroke-miterlimit="1.45">
      <path fill="none" d="M675 119 C672.7908 119 671 117.2091 671 115 C671 112.7909 672.7908 111 675 111 C677.2092 111 679 112.7909 679 115 C679 117.2091 677.2092 119 675 119 Z" clip-path="url(#clipPath2)"/>
      <path fill="white" d="M423.0347 7.1525 L417.0347 23.1525 L429.0347 23.1525 Z" clip-path="url(#clipPath2)" stroke="none"/>
      <path fill="none" d="M423.0347 7.1525 L417.0347 23.1525 L429.0347 23.1525 Z" clip-path="url(#clipPath2)"/>
      <rect x="416.3077" y="70.3503" clip-path="url(#clipPath2)" fill="white" width="111.4785" height="18.1328" stroke="none"/>
      <text x="418.3077" xml:space="preserve" y="83.9518" clip-path="url(#clipPath2)" font-family="sans-serif" stroke="none">prov:endedAtTime</text>
      <path fill="none" d="M677.5 138.6954 L677.5 214.952 L572.5059 214.952" clip-path="url(#clipPath2)"/>
    </g>
    <g stroke-linecap="butt" transform="matrix(1,0,0,1,-48,31)" fill-opacity="0" fill="rgb(0,0,0)" text-rendering="geometricPrecision" shape-rendering="geometricPrecision" stroke="rgb(0,0,0)" stroke-opacity="0" stroke-miterlimit="1.45">
      <path d="M677.5 130.6954 C679.7092 130.6954 681.5 132.4863 681.5 134.6954 C681.5 136.9046 679.7092 138.6954 677.5 138.6954 C675.2908 138.6954 673.5 136.9046 673.5 134.6954 C673.5 132.4863 675.2908 130.6954 677.5 130.6954 Z" stroke="none" clip-path="url(#clipPath2)"/>
    </g>
    <g stroke-linecap="butt" transform="matrix(1,0,0,1,-48,31)" fill="green" text-rendering="geometricPrecision" shape-rendering="geometricPrecision" stroke="green" stroke-miterlimit="1.45">
      <path fill="none" d="M677.5 130.6954 C679.7092 130.6954 681.5 132.4863 681.5 134.6954 C681.5 136.9046 679.7092 138.6954 677.5 138.6954 C675.2908 138.6954 673.5 136.9046 673.5 134.6954 C673.5 132.4863 675.2908 130.6954 677.5 130.6954 Z" clip-path="url(#clipPath2)"/>
      <path fill="white" d="M557.5059 214.952 L573.5059 220.952 L573.5059 208.952 Z" clip-path="url(#clipPath2)" stroke="none"/>
      <path fill="none" d="M557.5059 214.952 L573.5059 220.952 L573.5059 208.952 Z" clip-path="url(#clipPath2)"/>
      <rect x="597.7705" y="205.8856" clip-path="url(#clipPath2)" fill="white" width="48.584" height="18.1328" stroke="none"/>
      <text x="599.7705" xml:space="preserve" y="219.4872" clip-path="url(#clipPath2)" font-family="sans-serif" stroke="none">dct:title</text>
      <path fill="none" d="M475 436 L475 382.2422" clip-path="url(#clipPath2)"/>
    </g>
    <g stroke-linecap="butt" transform="matrix(1,0,0,1,-48,31)" fill-opacity="0" fill="rgb(0,0,0)" text-rendering="geometricPrecision" shape-rendering="geometricPrecision" stroke="rgb(0,0,0)" stroke-opacity="0" stroke-miterlimit="1.45">
      <path d="M475 444 C472.7909 444 471 442.2091 471 440 C471 437.7909 472.7909 436 475 436 C477.2091 436 479 437.7909 479 440 C479 442.2091 477.2091 444 475 444 Z" stroke="none" clip-path="url(#clipPath2)"/>
    </g>
    <g stroke-linecap="butt" transform="matrix(1,0,0,1,-48,31)" fill="green" text-rendering="geometricPrecision" shape-rendering="geometricPrecision" stroke="green" stroke-miterlimit="1.45">
      <path fill="none" d="M475 444 C472.7909 444 471 442.2091 471 440 C471 437.7909 472.7909 436 475 436 C477.2091 436 479 437.7909 479 440 C479 442.2091 477.2091 444 475 444 Z" clip-path="url(#clipPath2)"/>
      <path fill="white" d="M475 367.2422 L469 383.2422 L481 383.2422 Z" clip-path="url(#clipPath2)" stroke="none"/>
      <path fill="none" d="M475 367.2422 L469 383.2422 L481 383.2422 Z" clip-path="url(#clipPath2)"/>
      <rect x="450.708" y="394.5547" clip-path="url(#clipPath2)" fill="white" width="48.584" height="18.1328" stroke="none"/>
      <text x="452.708" xml:space="preserve" y="408.1562" clip-path="url(#clipPath2)" font-family="sans-serif" stroke="none">dct:title</text>
      <path fill="none" d="M461 450 L368.6945 450" clip-path="url(#clipPath2)"/>
    </g>
    <g stroke-linecap="butt" transform="matrix(1,0,0,1,-48,31)" fill-opacity="0" fill="rgb(0,0,0)" text-rendering="geometricPrecision" shape-rendering="geometricPrecision" stroke="rgb(0,0,0)" stroke-opacity="0" stroke-miterlimit="1.45">
      <path d="M469 450 C469 452.2091 467.2091 454 465 454 C462.7909 454 461 452.2091 461 450 C461 447.7909 462.7909 446 465 446 C467.2091 446 469 447.7909 469 450 Z" stroke="none" clip-path="url(#clipPath2)"/>
    </g>
    <g stroke-linecap="butt" transform="matrix(1,0,0,1,-48,31)" fill="green" text-rendering="geometricPrecision" shape-rendering="geometricPrecision" stroke="green" stroke-miterlimit="1.45">
      <path fill="none" d="M469 450 C469 452.2091 467.2091 454 465 454 C462.7909 454 461 452.2091 461 450 C461 447.7909 462.7909 446 465 446 C467.2091 446 469 447.7909 469 450 Z" clip-path="url(#clipPath2)"/>
      <path fill="white" d="M353.6945 450 L369.6945 456 L369.6945 444 Z" clip-path="url(#clipPath2)" stroke="none"/>
      <path fill="none" d="M353.6945 450 L369.6945 456 L369.6945 444 Z" clip-path="url(#clipPath2)"/>
      <rect x="386.32" y="440.9336" clip-path="url(#clipPath2)" fill="white" width="64.2812" height="18.1328" stroke="none"/>
      <text x="388.32" xml:space="preserve" y="454.5352" clip-path="url(#clipPath2)" font-family="sans-serif" stroke="none">prov:value</text>
      <path fill="none" d="M475 751 L475 782.7303" clip-path="url(#clipPath2)"/>
    </g>
    <g stroke-linecap="butt" transform="matrix(1,0,0,1,-48,31)" fill-opacity="0" fill="rgb(0,0,0)" text-rendering="geometricPrecision" shape-rendering="geometricPrecision" stroke="rgb(0,0,0)" stroke-opacity="0" stroke-miterlimit="1.45">
      <path d="M475 743 C477.2091 743 479 744.7908 479 747 C479 749.2092 477.2091 751 475 751 C472.7909 751 471 749.2092 471 747 C471 744.7908 472.7909 743 475 743 Z" stroke="none" clip-path="url(#clipPath2)"/>
    </g>
    <g stroke-linecap="butt" transform="matrix(1,0,0,1,-48,31)" fill="green" text-rendering="geometricPrecision" shape-rendering="geometricPrecision" stroke="green" stroke-miterlimit="1.45">
      <path fill="none" d="M475 743 C477.2091 743 479 744.7908 479 747 C479 749.2092 477.2091 751 475 751 C472.7909 751 471 749.2092 471 747 C471 744.7908 472.7909 743 475 743 Z" clip-path="url(#clipPath2)"/>
      <path fill="white" d="M475 797.7303 L481 781.7303 L469 781.7303 Z" clip-path="url(#clipPath2)" stroke="none"/>
      <path fill="none" d="M475 797.7303 L481 781.7303 L469 781.7303 Z" clip-path="url(#clipPath2)"/>
      <rect x="442.8594" y="752" clip-path="url(#clipPath2)" fill="white" width="64.2812" height="18.1328" stroke="none"/>
      <text x="444.8594" xml:space="preserve" y="765.6016" clip-path="url(#clipPath2)" font-family="sans-serif" stroke="none">prov:value</text>
      <path fill="none" d="M1007 475 L1115.9192 475" clip-path="url(#clipPath2)" stroke="black"/>
      <path fill="black" d="M1123.9192 475 L1111.9192 470 L1114.9192 475 L1111.9192 480 Z" clip-path="url(#clipPath2)" stroke="none"/>
      <rect x="1025.4623" y="465.9336" clip-path="url(#clipPath2)" fill="white" width="72.9121" height="18.1328" stroke="none"/>
      <text x="1027.4623" y="479.5352" clip-path="url(#clipPath2)" fill="black" font-family="sans-serif" stroke="none" xml:space="preserve">owl:sameAs</text>
      <path fill="none" d="M862.5 115 L862.5 62" clip-path="url(#clipPath2)" stroke="black"/>
      <path fill="black" d="M862.5 54 L857.5 66 L862.5 63 L867.5 66 Z" clip-path="url(#clipPath2)" stroke="none"/>
      <rect x="826.0439" y="75.4336" clip-path="url(#clipPath2)" fill="white" width="72.9121" height="18.1328" stroke="none"/>
      <text x="828.0439" y="89.0352" clip-path="url(#clipPath2)" fill="black" font-family="sans-serif" stroke="none" xml:space="preserve">owl:sameAs</text>
      <path fill="none" d="M197.8333 311 L197.8333 236.9689" clip-path="url(#clipPath2)"/>
    </g>
    <g stroke-linecap="butt" transform="matrix(1,0,0,1,-48,31)" fill-opacity="0" fill="rgb(0,0,0)" text-rendering="geometricPrecision" shape-rendering="geometricPrecision" stroke="rgb(0,0,0)" stroke-opacity="0" stroke-miterlimit="1.45">
      <path d="M197.8333 319 C195.6242 319 193.8333 317.2091 193.8333 315 C193.8333 312.7909 195.6242 311 197.8333 311 C200.0425 311 201.8333 312.7909 201.8333 315 C201.8333 317.2091 200.0425 319 197.8333 319 Z" stroke="none" clip-path="url(#clipPath2)"/>
    </g>
    <g stroke-linecap="butt" transform="matrix(1,0,0,1,-48,31)" fill="green" text-rendering="geometricPrecision" shape-rendering="geometricPrecision" stroke="green" stroke-miterlimit="1.45">
      <path fill="none" d="M197.8333 319 C195.6242 319 193.8333 317.2091 193.8333 315 C193.8333 312.7909 195.6242 311 197.8333 311 C200.0425 311 201.8333 312.7909 201.8333 315 C201.8333 317.2091 200.0425 319 197.8333 319 Z" clip-path="url(#clipPath2)"/>
      <path fill="white" d="M197.8333 221.9689 L191.8333 237.9689 L203.8333 237.9689 Z" clip-path="url(#clipPath2)" stroke="none"/>
      <path fill="none" d="M197.8333 221.9689 L191.8333 237.9689 L203.8333 237.9689 Z" clip-path="url(#clipPath2)"/>
      <rect x="168.5374" y="259.418" clip-path="url(#clipPath2)" fill="white" width="58.5918" height="18.1328" stroke="none"/>
      <text x="170.5374" xml:space="preserve" y="273.0196" clip-path="url(#clipPath2)" font-family="sans-serif" stroke="none">rdfs:label</text>
      <path fill="none" d="M197.8333 311 L197.8333 296.9167 L302 296.9167 L302 206.954" clip-path="url(#clipPath2)"/>
    </g>
    <g stroke-linecap="butt" transform="matrix(1,0,0,1,-48,31)" fill-opacity="0" fill="rgb(0,0,0)" text-rendering="geometricPrecision" shape-rendering="geometricPrecision" stroke="rgb(0,0,0)" stroke-opacity="0" stroke-miterlimit="1.45">
      <path d="M197.8333 319 C195.6242 319 193.8333 317.2091 193.8333 315 C193.8333 312.7909 195.6242 311 197.8333 311 C200.0425 311 201.8333 312.7909 201.8333 315 C201.8333 317.2091 200.0425 319 197.8333 319 Z" stroke="none" clip-path="url(#clipPath2)"/>
    </g>
    <g stroke-linecap="butt" transform="matrix(1,0,0,1,-48,31)" fill="green" text-rendering="geometricPrecision" shape-rendering="geometricPrecision" stroke="green" stroke-miterlimit="1.45">
      <path fill="none" d="M197.8333 319 C195.6242 319 193.8333 317.2091 193.8333 315 C193.8333 312.7909 195.6242 311 197.8333 311 C200.0425 311 201.8333 312.7909 201.8333 315 C201.8333 317.2091 200.0425 319 197.8333 319 Z" clip-path="url(#clipPath2)"/>
      <path fill="white" d="M302 191.954 L296 207.954 L308 207.954 Z" clip-path="url(#clipPath2)" stroke="none"/>
      <path fill="none" d="M302 191.954 L296 207.954 L308 207.954 Z" clip-path="url(#clipPath2)"/>
      <rect x="217.776" y="287.8503" clip-path="url(#clipPath2)" fill="white" width="64.2812" height="18.1328" stroke="none"/>
      <text x="219.776" xml:space="preserve" y="301.4518" clip-path="url(#clipPath2)" font-family="sans-serif" stroke="none">prov:value</text>
    </g>
  </g>
</svg>
