<?xml version="1.0" encoding="UTF-8"?><svg xmlns="http://www.w3.org/2000/svg" xmlns:xlink="http://www.w3.org/1999/xlink" fill-opacity="1" color-rendering="auto" color-interpolation="auto" text-rendering="auto" stroke="black" stroke-linecap="square" width="1231" stroke-miterlimit="10" shape-rendering="auto" stroke-opacity="1" fill="black" stroke-dasharray="none" font-weight="normal" stroke-width="1" height="718" font-family="'Dialog'" font-style="normal" stroke-linejoin="miter" font-size="12px" stroke-dashoffset="0" image-rendering="auto">
  <!--Generated by ySVG 2.6-->
  <defs id="genericDefs"/>
  <g>
    <defs id="defs1">
      <clipPath clipPathUnits="userSpaceOnUse" id="clipPath1">
        <path d="M0 0 L1231 0 L1231 718 L0 718 L0 0 Z"/>
      </clipPath>
      <clipPath clipPathUnits="userSpaceOnUse" id="clipPath2">
        <path d="M218 -44 L1449 -44 L1449 674 L218 674 L218 -44 Z"/>
      </clipPath>
    </defs>
    <g fill="white" text-rendering="geometricPrecision" shape-rendering="geometricPrecision" transform="translate(-218,44)" stroke="white">
      <rect x="218" width="1231" height="718" y="-44" clip-path="url(#clipPath2)" stroke="none"/>
    </g>
    <g fill="yellow" text-rendering="geometricPrecision" shape-rendering="geometricPrecision" transform="matrix(1,0,0,1,-218,44)" stroke="yellow">
      <rect x="410.2769" y="126" clip-path="url(#clipPath2)" width="280" rx="4" ry="4" height="58" stroke="none"/>
    </g>
    <g font-size="16px" stroke-linecap="butt" transform="matrix(1,0,0,1,-218,44)" text-rendering="geometricPrecision" font-family="sans-serif" shape-rendering="geometricPrecision" stroke-miterlimit="1.45">
      <text x="427.1011" xml:space="preserve" y="161.0469" clip-path="url(#clipPath2)" stroke="none">crmdig:D2_Digitization_Process</text>
      <rect x="410.2769" y="126" clip-path="url(#clipPath2)" fill="none" width="280" rx="4" ry="4" height="58"/>
    </g>
    <g fill="rgb(255,153,204)" text-rendering="geometricPrecision" shape-rendering="geometricPrecision" transform="matrix(1,0,0,1,-218,44)" stroke="rgb(255,153,204)">
      <circle r="10" clip-path="url(#clipPath2)" cx="550.2769" cy="530" stroke="none"/>
    </g>
    <g text-rendering="geometricPrecision" stroke-miterlimit="1.45" shape-rendering="geometricPrecision" font-family="sans-serif" transform="matrix(1,0,0,1,-218,44)" stroke-linecap="butt">
      <text x="417.7867" xml:space="preserve" y="515.4688" clip-path="url(#clipPath2)" stroke="none">:edition_digitization</text>
      <circle fill="none" stroke-width="3" r="10" clip-path="url(#clipPath2)" cx="550.2769" cy="530"/>
    </g>
    <g fill="yellow" text-rendering="geometricPrecision" shape-rendering="geometricPrecision" transform="matrix(1,0,0,1,-218,44)" stroke="yellow">
      <rect x="850.2769" y="601" clip-path="url(#clipPath2)" width="150" rx="4" ry="4" height="58" stroke="none"/>
    </g>
    <g font-size="16px" stroke-linecap="butt" transform="matrix(1,0,0,1,-218,44)" text-rendering="geometricPrecision" font-family="sans-serif" shape-rendering="geometricPrecision" stroke-miterlimit="1.45">
      <text x="876.8355" xml:space="preserve" y="636.0469" clip-path="url(#clipPath2)" stroke="none">prov:Activity</text>
      <rect x="850.2769" y="601" clip-path="url(#clipPath2)" fill="none" width="150" rx="4" ry="4" height="58"/>
    </g>
    <g fill="rgb(255,153,204)" text-rendering="geometricPrecision" shape-rendering="geometricPrecision" transform="matrix(1,0,0,1,-218,44)" stroke="rgb(255,153,204)">
      <circle r="10" clip-path="url(#clipPath2)" cx="925.2769" cy="530" stroke="none"/>
    </g>
    <g text-rendering="geometricPrecision" stroke-miterlimit="1.45" shape-rendering="geometricPrecision" font-family="sans-serif" transform="matrix(1,0,0,1,-218,44)" stroke-linecap="butt">
      <text x="941.2769" xml:space="preserve" y="515.4688" clip-path="url(#clipPath2)" stroke="none">:alcide</text>
      <circle fill="none" stroke-width="3" r="10" clip-path="url(#clipPath2)" cx="925.2769" cy="530"/>
    </g>
    <g fill="rgb(255,153,204)" text-rendering="geometricPrecision" shape-rendering="geometricPrecision" transform="matrix(1,0,0,1,-218,44)" stroke="rgb(255,153,204)">
      <circle r="10" clip-path="url(#clipPath2)" cx="875.2769" cy="355" stroke="none"/>
    </g>
    <g text-rendering="geometricPrecision" stroke-miterlimit="1.45" shape-rendering="geometricPrecision" font-family="sans-serif" transform="matrix(1,0,0,1,-218,44)" stroke-linecap="butt">
      <text x="762.7906" xml:space="preserve" y="340.4688" clip-path="url(#clipPath2)" stroke="none">:corpus_creation</text>
      <circle fill="none" stroke-width="3" r="10" clip-path="url(#clipPath2)" cx="875.2769" cy="355"/>
    </g>
    <g fill="yellow" text-rendering="geometricPrecision" shape-rendering="geometricPrecision" transform="matrix(1,0,0,1,-218,44)" stroke="yellow">
      <rect x="735.2769" y="226" clip-path="url(#clipPath2)" width="280" rx="4" ry="4" height="58" stroke="none"/>
    </g>
    <g font-size="16px" stroke-linecap="butt" transform="matrix(1,0,0,1,-218,44)" text-rendering="geometricPrecision" font-family="sans-serif" shape-rendering="geometricPrecision" stroke-miterlimit="1.45">
      <text x="750.0464" xml:space="preserve" y="261.0469" clip-path="url(#clipPath2)" stroke="none">crmdig:D10_Software_Execution</text>
      <rect x="735.2769" y="226" clip-path="url(#clipPath2)" fill="none" width="280" rx="4" ry="4" height="58"/>
    </g>
    <g fill="rgb(255,153,204)" text-rendering="geometricPrecision" shape-rendering="geometricPrecision" transform="matrix(1,0,0,1,-218,44)" stroke="rgb(255,153,204)">
      <circle r="10" clip-path="url(#clipPath2)" cx="1183.2769" cy="530" stroke="none"/>
    </g>
    <g text-rendering="geometricPrecision" stroke-miterlimit="1.45" shape-rendering="geometricPrecision" font-family="sans-serif" transform="matrix(1,0,0,1,-218,44)" stroke-linecap="butt">
      <text x="1199.2769" xml:space="preserve" y="553.6016" clip-path="url(#clipPath2)" stroke="none">:platform_creation</text>
      <circle fill="none" stroke-width="3" r="10" clip-path="url(#clipPath2)" cx="1183.2769" cy="530"/>
    </g>
    <g fill="yellow" text-rendering="geometricPrecision" shape-rendering="geometricPrecision" transform="matrix(1,0,0,1,-218,44)" stroke="yellow">
      <rect x="1153.2769" y="126" clip-path="url(#clipPath2)" width="280" rx="4" ry="4" height="58" stroke="none"/>
    </g>
    <g font-size="16px" stroke-linecap="butt" transform="matrix(1,0,0,1,-218,44)" text-rendering="geometricPrecision" font-family="sans-serif" shape-rendering="geometricPrecision" stroke-miterlimit="1.45">
      <text x="1162.1948" xml:space="preserve" y="161.0469" clip-path="url(#clipPath2)" stroke="none">crmdig:D7_Digital_Machine_Event</text>
      <rect x="1153.2769" y="126" clip-path="url(#clipPath2)" fill="none" width="280" rx="4" ry="4" height="58"/>
    </g>
    <g fill="rgb(255,153,204)" text-rendering="geometricPrecision" shape-rendering="geometricPrecision" transform="matrix(1,0,0,1,-218,44)" stroke="rgb(255,153,204)">
      <circle r="10" clip-path="url(#clipPath2)" cx="1293.2769" cy="55" stroke="none"/>
    </g>
    <g text-rendering="geometricPrecision" stroke-miterlimit="1.45" shape-rendering="geometricPrecision" font-family="sans-serif" transform="matrix(1,0,0,1,-218,44)" stroke-linecap="butt">
      <text x="1238.0894" xml:space="preserve" y="40.4688" clip-path="url(#clipPath2)" stroke="none">:trento</text>
      <circle fill="none" stroke-width="3" r="10" clip-path="url(#clipPath2)" cx="1293.2769" cy="55"/>
    </g>
    <g fill="rgb(255,153,204)" text-rendering="geometricPrecision" shape-rendering="geometricPrecision" transform="matrix(1,0,0,1,-218,44)" stroke="rgb(255,153,204)">
      <circle r="10" clip-path="url(#clipPath2)" cx="875.2769" cy="155" stroke="none"/>
    </g>
    <g text-rendering="geometricPrecision" stroke-miterlimit="1.45" shape-rendering="geometricPrecision" font-family="sans-serif" transform="matrix(1,0,0,1,-218,44)" stroke-linecap="butt">
      <text x="776.4761" xml:space="preserve" y="108.2031" clip-path="url(#clipPath2)" stroke="none">:maurizio_cau, :matteo_largaiolli, </text>
      <text x="781.4771" xml:space="preserve" y="122.3359" clip-path="url(#clipPath2)" stroke="none">:sara_tonelli, :giovanni_moretti, </text>
      <text x="771.3257" xml:space="preserve" y="136.4688" clip-path="url(#clipPath2)" stroke="none">:rachele_sprugnoli, :matteo_moretti</text>
      <circle fill="none" stroke-width="3" r="10" clip-path="url(#clipPath2)" cx="875.2769" cy="155"/>
      <text x="645.1314" xml:space="preserve" y="349.4805" clip-path="url(#clipPath2)" stroke="none">"Creation of de </text>
      <text x="645.1314" xml:space="preserve" y="363.6133" clip-path="url(#clipPath2)" stroke="none">Gasperi corpus"@en</text>
      <text x="482.6451" xml:space="preserve" y="604.5781" clip-path="url(#clipPath2)" stroke="none">"Digitization of </text>
      <text x="482.6451" xml:space="preserve" y="618.7109" clip-path="url(#clipPath2)" stroke="none">de Gasperi edition"@en</text>
      <text x="1123.1831" xml:space="preserve" y="622.457" clip-path="url(#clipPath2)" stroke="none">"Creation of </text>
      <text x="1123.1831" xml:space="preserve" y="636.5898" clip-path="url(#clipPath2)" stroke="none">ALCIDE plaform"@en</text>
    </g>
    <g fill="rgb(255,153,204)" text-rendering="geometricPrecision" shape-rendering="geometricPrecision" transform="matrix(1,0,0,1,-218,44)" stroke="rgb(255,153,204)">
      <circle r="10" clip-path="url(#clipPath2)" cx="435.2769" cy="60" stroke="none"/>
    </g>
    <g text-rendering="geometricPrecision" stroke-miterlimit="1.45" shape-rendering="geometricPrecision" font-family="sans-serif" transform="matrix(1,0,0,1,-218,44)" stroke-linecap="butt">
      <text x="451.2769" xml:space="preserve" y="64.5352" clip-path="url(#clipPath2)" stroke="none">:il_mulino</text>
      <circle fill="none" stroke-width="3" r="10" clip-path="url(#clipPath2)" cx="435.2769" cy="60"/>
    </g>
    <g fill="yellow" text-rendering="geometricPrecision" shape-rendering="geometricPrecision" transform="matrix(1,0,0,1,-218,44)" stroke="yellow">
      <rect x="233.5538" y="31" clip-path="url(#clipPath2)" width="121.4462" rx="4" ry="4" height="58" stroke="none"/>
    </g>
    <g font-size="16px" stroke-linecap="butt" transform="matrix(1,0,0,1,-218,44)" text-rendering="geometricPrecision" font-family="sans-serif" shape-rendering="geometricPrecision" stroke-miterlimit="1.45">
      <text x="237.6558" xml:space="preserve" y="66.0469" clip-path="url(#clipPath2)" stroke="none">crm:E39_Actor</text>
      <rect x="233.5538" y="31" clip-path="url(#clipPath2)" fill="none" width="121.4462" rx="4" ry="4" height="58"/>
    </g>
    <g fill="rgb(255,153,204)" text-rendering="geometricPrecision" shape-rendering="geometricPrecision" transform="matrix(1,0,0,1,-218,44)" stroke="rgb(255,153,204)">
      <circle r="10" clip-path="url(#clipPath2)" cx="592.2769" cy="60" stroke="none"/>
    </g>
    <g text-rendering="geometricPrecision" stroke-miterlimit="1.45" shape-rendering="geometricPrecision" font-family="sans-serif" transform="matrix(1,0,0,1,-218,44)" stroke-linecap="butt">
      <text x="525.1597" xml:space="preserve" y="64.5352" clip-path="url(#clipPath2)" stroke="none">:bologna</text>
      <circle fill="none" stroke-width="3" r="10" clip-path="url(#clipPath2)" cx="592.2769" cy="60"/>
    </g>
    <g fill="yellow" text-rendering="geometricPrecision" shape-rendering="geometricPrecision" transform="matrix(1,0,0,1,-218,44)" stroke="yellow">
      <rect x="680.8307" y="31" clip-path="url(#clipPath2)" width="121.4462" rx="4" ry="4" height="58" stroke="none"/>
    </g>
    <g font-size="16px" stroke-linecap="butt" transform="matrix(1,0,0,1,-218,44)" text-rendering="geometricPrecision" font-family="sans-serif" shape-rendering="geometricPrecision" stroke-miterlimit="1.45">
      <text x="686.0226" xml:space="preserve" y="66.0469" clip-path="url(#clipPath2)" stroke="none">crm:E53_Place</text>
      <rect x="680.8307" y="31" clip-path="url(#clipPath2)" fill="none" width="121.4462" rx="4" ry="4" height="58"/>
      <text x="396.5289" xml:space="preserve" font-size="12px" y="-14.6406" clip-path="url(#clipPath2)" stroke="none">"il Mulino"@it</text>
      <text x="555.3306" xml:space="preserve" font-size="12px" y="-14.6406" clip-path="url(#clipPath2)" stroke="none">"Bologna"@it</text>
      <path fill="none" d="M550.2769 184 L550.2769 512" clip-path="url(#clipPath2)"/>
      <path d="M550.2769 520 L555.2769 508 L550.2769 511 L545.2769 508 Z" stroke="none" clip-path="url(#clipPath2)"/>
      <path fill="none" d="M925.2769 600.9702 L925.2769 548" clip-path="url(#clipPath2)"/>
      <path d="M925.2769 540 L920.2769 552 L925.2769 549 L930.2769 552 Z" stroke="none" clip-path="url(#clipPath2)"/>
    </g>
    <g stroke-linecap="butt" transform="matrix(1,0,0,1,-218,44)" fill="navy" text-rendering="geometricPrecision" shape-rendering="geometricPrecision" stroke="navy" stroke-miterlimit="1.45">
      <path fill="none" d="M911.2769 530 L571.2769 530" clip-path="url(#clipPath2)"/>
      <path d="M919.2769 530 C919.2769 532.2092 917.4861 534 915.2769 534 C913.0677 534 911.2769 532.2092 911.2769 530 C911.2769 527.7908 913.0677 526 915.2769 526 C917.4861 526 919.2769 527.7908 919.2769 530 Z" clip-path="url(#clipPath2)" stroke="none"/>
      <path d="M560.2769 530 L572.2769 536 L572.2769 524 Z" clip-path="url(#clipPath2)" stroke="none"/>
      <rect x="755.3168" y="520.9336" clip-path="url(#clipPath2)" fill="white" width="122.043" height="18.1328" stroke="none"/>
      <text x="757.3168" xml:space="preserve" y="534.5352" clip-path="url(#clipPath2)" font-family="sans-serif" stroke="none">prov:wasInformedBy</text>
      <path fill="none" d="M925.2769 516 L925.2769 476 L925.2769 355 L896.2769 355" clip-path="url(#clipPath2)"/>
      <path d="M925.2769 524 C923.0677 524 921.2769 522.2092 921.2769 520 C921.2769 517.7908 923.0677 516 925.2769 516 C927.4861 516 929.2769 517.7908 929.2769 520 C929.2769 522.2092 927.4861 524 925.2769 524 Z" clip-path="url(#clipPath2)" stroke="none"/>
      <path d="M885.2769 355 L897.2769 361 L897.2769 349 Z" clip-path="url(#clipPath2)" stroke="none"/>
      <rect x="864.2554" y="481.9004" clip-path="url(#clipPath2)" fill="white" width="122.043" height="18.1328" stroke="none"/>
      <text x="866.2554" xml:space="preserve" y="495.502" clip-path="url(#clipPath2)" font-family="sans-serif" stroke="none">prov:wasInformedBy</text>
      <path fill="none" d="M875.2769 284 L875.2769 337" clip-path="url(#clipPath2)" stroke="black"/>
      <path fill="black" d="M875.2769 345 L880.2769 333 L875.2769 336 L870.2769 333 Z" clip-path="url(#clipPath2)" stroke="none"/>
      <path fill="none" d="M939.2769 530 L1162.2769 530" clip-path="url(#clipPath2)"/>
      <path d="M931.2769 530 C931.2769 527.7908 933.0677 526 935.2769 526 C937.4861 526 939.2769 527.7908 939.2769 530 C939.2769 532.2092 937.4861 534 935.2769 534 C933.0677 534 931.2769 532.2092 931.2769 530 Z" clip-path="url(#clipPath2)" stroke="none"/>
      <path d="M1173.2769 530 L1161.2769 524 L1161.2769 536 Z" clip-path="url(#clipPath2)" stroke="none"/>
      <rect x="993.2554" y="520.9336" clip-path="url(#clipPath2)" fill="white" width="122.043" height="18.1328" stroke="none"/>
      <text x="995.2554" xml:space="preserve" y="534.5352" clip-path="url(#clipPath2)" font-family="sans-serif" stroke="none">prov:wasInformedBy</text>
      <path fill="none" d="M1293.2769 184 L1293.2769 530 L1201.2769 530" clip-path="url(#clipPath2)" stroke="black"/>
      <path fill="black" d="M1193.2769 530 L1205.2769 535 L1202.2769 530 L1205.2769 525 Z" clip-path="url(#clipPath2)" stroke="none"/>
      <path fill="none" d="M1293.2769 121.9702 L1293.2769 76" clip-path="url(#clipPath2)"/>
      <path d="M1293.2769 129.9702 C1291.0677 129.9702 1289.2769 128.1794 1289.2769 125.9702 C1289.2769 123.7611 1291.0677 121.9702 1293.2769 121.9702 C1295.486 121.9702 1297.2769 123.7611 1297.2769 125.9702 C1297.2769 128.1794 1295.486 129.9702 1293.2769 129.9702 Z" clip-path="url(#clipPath2)" stroke="none"/>
      <path d="M1293.2769 65 L1287.2769 77 L1299.2769 77 Z" clip-path="url(#clipPath2)" stroke="none"/>
      <rect x="1228.2183" y="86.4336" clip-path="url(#clipPath2)" fill="white" width="130.1172" height="18.1328" stroke="none"/>
      <text x="1230.2183" xml:space="preserve" y="100.0352" clip-path="url(#clipPath2)" font-family="sans-serif" stroke="none">crm:P7_took_place_at</text>
      <path fill="none" d="M1019.2717 255 L1044.7769 255 L1044.7769 55 L1272.2769 55" clip-path="url(#clipPath2)"/>
      <path d="M1011.2717 255 C1011.2717 252.7909 1013.0625 251 1015.2717 251 C1017.4808 251 1019.2717 252.7909 1019.2717 255 C1019.2717 257.2091 1017.4808 259 1015.2717 259 C1013.0625 259 1011.2717 257.2091 1011.2717 255 Z" clip-path="url(#clipPath2)" stroke="none"/>
      <path d="M1283.2769 55 L1271.2769 49 L1271.2769 61 Z" clip-path="url(#clipPath2)" stroke="none"/>
      <rect x="1094.4058" y="45.9336" clip-path="url(#clipPath2)" fill="white" width="130.1172" height="18.1328" stroke="none"/>
      <text x="1096.4058" xml:space="preserve" y="59.5352" clip-path="url(#clipPath2)" font-family="sans-serif" stroke="none">crm:P7_took_place_at</text>
      <path fill="none" d="M1149.2887 155 L896.2769 155" clip-path="url(#clipPath2)"/>
      <path d="M1157.2887 155 C1157.2887 157.2091 1155.4978 159 1153.2887 159 C1151.0796 159 1149.2887 157.2091 1149.2887 155 C1149.2887 152.7909 1151.0796 151 1153.2887 151 C1155.4978 151 1157.2887 152.7909 1157.2887 155 Z" clip-path="url(#clipPath2)" stroke="none"/>
      <path d="M885.2769 155 L897.2769 161 L897.2769 149 Z" clip-path="url(#clipPath2)" stroke="none"/>
      <rect x="947.6294" y="145.9336" clip-path="url(#clipPath2)" fill="white" width="143.2949" height="18.1328" stroke="none"/>
      <text x="949.6295" xml:space="preserve" y="159.5352" clip-path="url(#clipPath2)" font-family="sans-serif" stroke="none">crm:P14_carried_out_by</text>
      <path fill="none" d="M875.2769 222.0449 L875.2769 176" clip-path="url(#clipPath2)"/>
      <path d="M875.2769 230.0449 C873.0677 230.0449 871.2769 228.2541 871.2769 226.0449 C871.2769 223.8358 873.0677 222.0449 875.2769 222.0449 C877.4861 222.0449 879.2769 223.8358 879.2769 226.0449 C879.2769 228.2541 877.4861 230.0449 875.2769 230.0449 Z" clip-path="url(#clipPath2)" stroke="none"/>
      <path d="M875.2769 165 L869.2769 177 L881.2769 177 Z" clip-path="url(#clipPath2)" stroke="none"/>
      <rect x="803.6294" y="186.4336" clip-path="url(#clipPath2)" fill="white" width="143.2949" height="18.1328" stroke="none"/>
      <text x="805.6295" xml:space="preserve" y="200.0352" clip-path="url(#clipPath2)" font-family="sans-serif" stroke="none">crm:P14_carried_out_by</text>
      <path fill="none" d="M861.2769 355 L775 355" clip-path="url(#clipPath2)" stroke="green"/>
    </g>
    <g stroke-linecap="butt" transform="matrix(1,0,0,1,-218,44)" fill-opacity="0" fill="rgb(0,0,0)" text-rendering="geometricPrecision" shape-rendering="geometricPrecision" stroke="rgb(0,0,0)" stroke-opacity="0" stroke-miterlimit="1.45">
      <path d="M869.2769 355 C869.2769 357.2091 867.4861 359 865.2769 359 C863.0677 359 861.2769 357.2091 861.2769 355 C861.2769 352.7909 863.0677 351 865.2769 351 C867.4861 351 869.2769 352.7909 869.2769 355 Z" stroke="none" clip-path="url(#clipPath2)"/>
    </g>
    <g stroke-linecap="butt" transform="matrix(1,0,0,1,-218,44)" fill="green" text-rendering="geometricPrecision" shape-rendering="geometricPrecision" stroke="green" stroke-miterlimit="1.45">
      <path fill="none" d="M869.2769 355 C869.2769 357.2091 867.4861 359 865.2769 359 C863.0677 359 861.2769 357.2091 861.2769 355 C861.2769 352.7909 863.0677 351 865.2769 351 C867.4861 351 869.2769 352.7909 869.2769 355 Z" clip-path="url(#clipPath2)"/>
      <path fill="white" d="M760 355 L776 361 L776 349 Z" clip-path="url(#clipPath2)" stroke="none"/>
      <path fill="none" d="M760 355 L776 361 L776 349 Z" clip-path="url(#clipPath2)"/>
      <rect x="785.8669" y="345.9336" clip-path="url(#clipPath2)" fill="white" width="58.5918" height="18.1328" stroke="none"/>
      <text x="787.8669" xml:space="preserve" y="359.5352" clip-path="url(#clipPath2)" font-family="sans-serif" stroke="none">rdfs:label</text>
      <path fill="none" d="M550.2769 544 L550.2769 576.9052" clip-path="url(#clipPath2)"/>
    </g>
    <g stroke-linecap="butt" transform="matrix(1,0,0,1,-218,44)" fill-opacity="0" fill="rgb(0,0,0)" text-rendering="geometricPrecision" shape-rendering="geometricPrecision" stroke="rgb(0,0,0)" stroke-opacity="0" stroke-miterlimit="1.45">
      <path d="M550.2769 536 C552.4861 536 554.2769 537.7908 554.2769 540 C554.2769 542.2092 552.4861 544 550.2769 544 C548.0677 544 546.2769 542.2092 546.2769 540 C546.2769 537.7908 548.0677 536 550.2769 536 Z" stroke="none" clip-path="url(#clipPath2)"/>
    </g>
    <g stroke-linecap="butt" transform="matrix(1,0,0,1,-218,44)" fill="green" text-rendering="geometricPrecision" shape-rendering="geometricPrecision" stroke="green" stroke-miterlimit="1.45">
      <path fill="none" d="M550.2769 536 C552.4861 536 554.2769 537.7908 554.2769 540 C554.2769 542.2092 552.4861 544 550.2769 544 C548.0677 544 546.2769 542.2092 546.2769 540 C546.2769 537.7908 548.0677 536 550.2769 536 Z" clip-path="url(#clipPath2)"/>
      <path fill="white" d="M550.2769 591.9052 L556.2769 575.9052 L544.2769 575.9052 Z" clip-path="url(#clipPath2)" stroke="none"/>
      <path fill="none" d="M550.2769 591.9052 L556.2769 575.9052 L544.2769 575.9052 Z" clip-path="url(#clipPath2)"/>
      <rect x="520.981" y="545" clip-path="url(#clipPath2)" fill="white" width="58.5918" height="18.1328" stroke="none"/>
      <text x="522.981" xml:space="preserve" y="558.6016" clip-path="url(#clipPath2)" font-family="sans-serif" stroke="none">rdfs:label</text>
      <path fill="none" d="M1183.2769 544 L1183.2769 594.4191" clip-path="url(#clipPath2)"/>
    </g>
    <g stroke-linecap="butt" transform="matrix(1,0,0,1,-218,44)" fill-opacity="0" fill="rgb(0,0,0)" text-rendering="geometricPrecision" shape-rendering="geometricPrecision" stroke="rgb(0,0,0)" stroke-opacity="0" stroke-miterlimit="1.45">
      <path d="M1183.2769 536 C1185.486 536 1187.2769 537.7908 1187.2769 540 C1187.2769 542.2092 1185.486 544 1183.2769 544 C1181.0677 544 1179.2769 542.2092 1179.2769 540 C1179.2769 537.7908 1181.0677 536 1183.2769 536 Z" stroke="none" clip-path="url(#clipPath2)"/>
    </g>
    <g stroke-linecap="butt" transform="matrix(1,0,0,1,-218,44)" fill="green" text-rendering="geometricPrecision" shape-rendering="geometricPrecision" stroke="green" stroke-miterlimit="1.45">
      <path fill="none" d="M1183.2769 536 C1185.486 536 1187.2769 537.7908 1187.2769 540 C1187.2769 542.2092 1185.486 544 1183.2769 544 C1181.0677 544 1179.2769 542.2092 1179.2769 540 C1179.2769 537.7908 1181.0677 536 1183.2769 536 Z" clip-path="url(#clipPath2)"/>
      <path fill="white" d="M1183.2769 609.4191 L1189.2769 593.4191 L1177.2769 593.4191 Z" clip-path="url(#clipPath2)" stroke="none"/>
      <path fill="none" d="M1183.2769 609.4191 L1189.2769 593.4191 L1177.2769 593.4191 Z" clip-path="url(#clipPath2)"/>
      <rect x="1153.981" y="570.373" clip-path="url(#clipPath2)" fill="white" width="58.5918" height="18.1328" stroke="none"/>
      <text x="1155.981" xml:space="preserve" y="583.9746" clip-path="url(#clipPath2)" font-family="sans-serif" stroke="none">rdfs:label</text>
      <path fill="none" d="M435.2769 121.9609 L435.2769 81" clip-path="url(#clipPath2)" stroke="navy"/>
      <path fill="navy" d="M435.2769 129.9609 C433.0678 129.9609 431.2769 128.1701 431.2769 125.9609 C431.2769 123.7518 433.0678 121.9609 435.2769 121.9609 C437.4861 121.9609 439.2769 123.7518 439.2769 125.9609 C439.2769 128.1701 437.4861 129.9609 435.2769 129.9609 Z" clip-path="url(#clipPath2)" stroke="none"/>
      <path fill="navy" d="M435.2769 70 L429.2769 82 L441.2769 82 Z" clip-path="url(#clipPath2)" stroke="none"/>
      <rect x="363.6294" y="88.9336" clip-path="url(#clipPath2)" fill="white" width="143.2949" height="18.1328" stroke="none"/>
      <text x="365.6295" y="102.5352" clip-path="url(#clipPath2)" fill="navy" font-family="sans-serif" stroke="none" xml:space="preserve">crm:P14_carried_out_by</text>
      <path fill="none" d="M354.9661 60 L417.2769 60" clip-path="url(#clipPath2)" stroke="black"/>
      <path fill="black" d="M425.2769 60 L413.2769 55 L416.2769 60 L413.2769 65 Z" clip-path="url(#clipPath2)" stroke="none"/>
      <path fill="none" d="M592.2769 121.9912 L592.2769 81" clip-path="url(#clipPath2)" stroke="navy"/>
      <path fill="navy" d="M592.2769 129.9912 C590.0677 129.9912 588.2769 128.2003 588.2769 125.9912 C588.2769 123.7821 590.0677 121.9912 592.2769 121.9912 C594.4861 121.9912 596.2769 123.7821 596.2769 125.9912 C596.2769 128.2003 594.4861 129.9912 592.2769 129.9912 Z" clip-path="url(#clipPath2)" stroke="none"/>
      <path fill="navy" d="M592.2769 70 L586.2769 82 L598.2769 82 Z" clip-path="url(#clipPath2)" stroke="none"/>
      <rect x="527.2183" y="88.9336" clip-path="url(#clipPath2)" fill="white" width="130.1172" height="18.1328" stroke="none"/>
      <text x="529.2183" y="102.5352" clip-path="url(#clipPath2)" fill="navy" font-family="sans-serif" stroke="none" xml:space="preserve">crm:P7_took_place_at</text>
      <path fill="none" d="M680.8007 60 L610.2769 60" clip-path="url(#clipPath2)" stroke="black"/>
      <path fill="black" d="M602.2769 60 L614.2769 65 L611.2769 60 L614.2769 55 Z" clip-path="url(#clipPath2)" stroke="none"/>
      <path fill="none" d="M435.2769 46 L435.2769 9" clip-path="url(#clipPath2)"/>
    </g>
    <g stroke-linecap="butt" transform="matrix(1,0,0,1,-218,44)" fill-opacity="0" fill="rgb(0,0,0)" text-rendering="geometricPrecision" shape-rendering="geometricPrecision" stroke="rgb(0,0,0)" stroke-opacity="0" stroke-miterlimit="1.45">
      <path d="M435.2769 54 C433.0678 54 431.2769 52.2091 431.2769 50 C431.2769 47.7909 433.0678 46 435.2769 46 C437.4861 46 439.2769 47.7909 439.2769 50 C439.2769 52.2091 437.4861 54 435.2769 54 Z" stroke="none" clip-path="url(#clipPath2)"/>
    </g>
    <g stroke-linecap="butt" transform="matrix(1,0,0,1,-218,44)" fill="green" text-rendering="geometricPrecision" shape-rendering="geometricPrecision" stroke="green" stroke-miterlimit="1.45">
      <path fill="none" d="M435.2769 54 C433.0678 54 431.2769 52.2091 431.2769 50 C431.2769 47.7909 433.0678 46 435.2769 46 C437.4861 46 439.2769 47.7909 439.2769 50 C439.2769 52.2091 437.4861 54 435.2769 54 Z" clip-path="url(#clipPath2)"/>
      <path fill="white" d="M435.2769 -6 L429.2769 10 L441.2769 10 Z" clip-path="url(#clipPath2)" stroke="none"/>
      <path fill="none" d="M435.2769 -6 L429.2769 10 L441.2769 10 Z" clip-path="url(#clipPath2)"/>
      <rect x="405.981" y="12.9336" clip-path="url(#clipPath2)" fill="white" width="58.5918" height="18.1328" stroke="none"/>
      <text x="407.981" xml:space="preserve" y="26.5352" clip-path="url(#clipPath2)" font-family="sans-serif" stroke="none">rdfs:label</text>
      <path fill="none" d="M592.2769 46 L592.2769 9" clip-path="url(#clipPath2)"/>
    </g>
    <g stroke-linecap="butt" transform="matrix(1,0,0,1,-218,44)" fill-opacity="0" fill="rgb(0,0,0)" text-rendering="geometricPrecision" shape-rendering="geometricPrecision" stroke="rgb(0,0,0)" stroke-opacity="0" stroke-miterlimit="1.45">
      <path d="M592.2769 54 C590.0677 54 588.2769 52.2091 588.2769 50 C588.2769 47.7909 590.0677 46 592.2769 46 C594.4861 46 596.2769 47.7909 596.2769 50 C596.2769 52.2091 594.4861 54 592.2769 54 Z" stroke="none" clip-path="url(#clipPath2)"/>
    </g>
    <g stroke-linecap="butt" transform="matrix(1,0,0,1,-218,44)" fill="green" text-rendering="geometricPrecision" shape-rendering="geometricPrecision" stroke="green" stroke-miterlimit="1.45">
      <path fill="none" d="M592.2769 54 C590.0677 54 588.2769 52.2091 588.2769 50 C588.2769 47.7909 590.0677 46 592.2769 46 C594.4861 46 596.2769 47.7909 596.2769 50 C596.2769 52.2091 594.4861 54 592.2769 54 Z" clip-path="url(#clipPath2)"/>
      <path fill="white" d="M592.2769 -6 L586.2769 10 L598.2769 10 Z" clip-path="url(#clipPath2)" stroke="none"/>
      <path fill="none" d="M592.2769 -6 L586.2769 10 L598.2769 10 Z" clip-path="url(#clipPath2)"/>
      <rect x="562.981" y="12.9336" clip-path="url(#clipPath2)" fill="white" width="58.5918" height="18.1328" stroke="none"/>
      <text x="564.981" xml:space="preserve" y="26.5352" clip-path="url(#clipPath2)" font-family="sans-serif" stroke="none">rdfs:label</text>
    </g>
  </g>
</svg>
