<?xml version="1.0" encoding="UTF-8"?><svg xmlns="http://www.w3.org/2000/svg" xmlns:xlink="http://www.w3.org/1999/xlink" fill-opacity="1" color-rendering="auto" color-interpolation="auto" text-rendering="auto" stroke="black" stroke-linecap="square" width="1593" stroke-miterlimit="10" shape-rendering="auto" stroke-opacity="1" fill="black" stroke-dasharray="none" font-weight="normal" stroke-width="1" height="793" font-family="'Dialog'" font-style="normal" stroke-linejoin="miter" font-size="12px" stroke-dashoffset="0" image-rendering="auto">
  <!--Generated by ySVG 2.6-->
  <defs id="genericDefs"/>
  <g>
    <defs id="defs1">
      <clipPath clipPathUnits="userSpaceOnUse" id="clipPath1">
        <path d="M0 0 L1593 0 L1593 793 L0 793 L0 0 Z"/>
      </clipPath>
      <clipPath clipPathUnits="userSpaceOnUse" id="clipPath2">
        <path d="M-83 -108 L1510 -108 L1510 685 L-83 685 L-83 -108 Z"/>
      </clipPath>
    </defs>
    <g fill="white" text-rendering="geometricPrecision" shape-rendering="geometricPrecision" transform="translate(83,108)" stroke="white">
      <rect x="-83" width="1593" height="793" y="-108" clip-path="url(#clipPath2)" stroke="none"/>
    </g>
    <g fill="rgb(255,153,204)" text-rendering="geometricPrecision" shape-rendering="geometricPrecision" transform="matrix(1,0,0,1,83,108)" stroke="rgb(255,153,204)">
      <circle r="10" clip-path="url(#clipPath2)" cx="525" cy="500" stroke="none"/>
    </g>
    <g text-rendering="geometricPrecision" stroke-miterlimit="1.45" shape-rendering="geometricPrecision" font-family="sans-serif" transform="matrix(1,0,0,1,83,108)" stroke-linecap="butt">
      <text x="392.5098" xml:space="preserve" y="485.4688" clip-path="url(#clipPath2)" stroke="none">:edition_digitization</text>
      <circle fill="none" stroke-width="3" r="10" clip-path="url(#clipPath2)" cx="525" cy="500"/>
    </g>
    <g fill="yellow" text-rendering="geometricPrecision" shape-rendering="geometricPrecision" transform="matrix(1,0,0,1,83,108)" stroke="yellow">
      <rect x="825" y="571" clip-path="url(#clipPath2)" width="150" rx="4" ry="4" height="58" stroke="none"/>
    </g>
    <g font-size="16px" stroke-linecap="butt" transform="matrix(1,0,0,1,83,108)" text-rendering="geometricPrecision" font-family="sans-serif" shape-rendering="geometricPrecision" stroke-miterlimit="1.45">
      <text x="851.5586" xml:space="preserve" y="606.0469" clip-path="url(#clipPath2)" stroke="none">prov:Activity</text>
      <rect x="825" y="571" clip-path="url(#clipPath2)" fill="none" width="150" rx="4" ry="4" height="58"/>
    </g>
    <g fill="rgb(255,153,204)" text-rendering="geometricPrecision" shape-rendering="geometricPrecision" transform="matrix(1,0,0,1,83,108)" stroke="rgb(255,153,204)">
      <circle r="10" clip-path="url(#clipPath2)" cx="900" cy="500" stroke="none"/>
    </g>
    <g text-rendering="geometricPrecision" stroke-miterlimit="1.45" shape-rendering="geometricPrecision" font-family="sans-serif" transform="matrix(1,0,0,1,83,108)" stroke-linecap="butt">
      <text x="916" xml:space="preserve" y="485.4688" clip-path="url(#clipPath2)" stroke="none">:alcide</text>
      <circle fill="none" stroke-width="3" r="10" clip-path="url(#clipPath2)" cx="900" cy="500"/>
    </g>
    <g fill="rgb(255,153,204)" text-rendering="geometricPrecision" shape-rendering="geometricPrecision" transform="matrix(1,0,0,1,83,108)" stroke="rgb(255,153,204)">
      <circle r="10" clip-path="url(#clipPath2)" cx="850" cy="325" stroke="none"/>
    </g>
    <g text-rendering="geometricPrecision" stroke-miterlimit="1.45" shape-rendering="geometricPrecision" font-family="sans-serif" transform="matrix(1,0,0,1,83,108)" stroke-linecap="butt">
      <text x="737.5137" xml:space="preserve" y="310.4688" clip-path="url(#clipPath2)" stroke="none">:corpus_creation</text>
      <circle fill="none" stroke-width="3" r="10" clip-path="url(#clipPath2)" cx="850" cy="325"/>
    </g>
    <g fill="yellow" text-rendering="geometricPrecision" shape-rendering="geometricPrecision" transform="matrix(1,0,0,1,83,108)" stroke="yellow">
      <rect x="710" y="196" clip-path="url(#clipPath2)" width="280" rx="4" ry="4" height="58" stroke="none"/>
    </g>
    <g font-size="16px" stroke-linecap="butt" transform="matrix(1,0,0,1,83,108)" text-rendering="geometricPrecision" font-family="sans-serif" shape-rendering="geometricPrecision" stroke-miterlimit="1.45">
      <text x="724.7695" xml:space="preserve" y="231.0469" clip-path="url(#clipPath2)" stroke="none">crmdig:D10_Software_Execution</text>
      <rect x="710" y="196" clip-path="url(#clipPath2)" fill="none" width="280" rx="4" ry="4" height="58"/>
    </g>
    <g fill="rgb(255,153,204)" text-rendering="geometricPrecision" shape-rendering="geometricPrecision" transform="matrix(1,0,0,1,83,108)" stroke="rgb(255,153,204)">
      <circle r="10" clip-path="url(#clipPath2)" cx="1158" cy="500" stroke="none"/>
    </g>
    <g text-rendering="geometricPrecision" stroke-miterlimit="1.45" shape-rendering="geometricPrecision" font-family="sans-serif" transform="matrix(1,0,0,1,83,108)" stroke-linecap="butt">
      <text x="1174" xml:space="preserve" y="523.6016" clip-path="url(#clipPath2)" stroke="none">:platform_creation</text>
      <circle fill="none" stroke-width="3" r="10" clip-path="url(#clipPath2)" cx="1158" cy="500"/>
    </g>
    <g fill="yellow" text-rendering="geometricPrecision" shape-rendering="geometricPrecision" transform="matrix(1,0,0,1,83,108)" stroke="yellow">
      <rect x="1128" y="96" clip-path="url(#clipPath2)" width="280" rx="4" ry="4" height="58" stroke="none"/>
    </g>
    <g font-size="16px" stroke-linecap="butt" transform="matrix(1,0,0,1,83,108)" text-rendering="geometricPrecision" font-family="sans-serif" shape-rendering="geometricPrecision" stroke-miterlimit="1.45">
      <text x="1136.918" xml:space="preserve" y="131.0469" clip-path="url(#clipPath2)" stroke="none">crmdig:D7_Digital_Machine_Event</text>
      <rect x="1128" y="96" clip-path="url(#clipPath2)" fill="none" width="280" rx="4" ry="4" height="58"/>
    </g>
    <g fill="rgb(255,153,204)" text-rendering="geometricPrecision" shape-rendering="geometricPrecision" transform="matrix(1,0,0,1,83,108)" stroke="rgb(255,153,204)">
      <circle r="10" clip-path="url(#clipPath2)" cx="1268" cy="25" stroke="none"/>
    </g>
    <g text-rendering="geometricPrecision" stroke-miterlimit="1.45" shape-rendering="geometricPrecision" font-family="sans-serif" transform="matrix(1,0,0,1,83,108)" stroke-linecap="butt">
      <text x="1212.8125" xml:space="preserve" y="10.4688" clip-path="url(#clipPath2)" stroke="none">:trento</text>
      <circle fill="none" stroke-width="3" r="10" clip-path="url(#clipPath2)" cx="1268" cy="25"/>
    </g>
    <g fill="rgb(255,153,204)" text-rendering="geometricPrecision" shape-rendering="geometricPrecision" transform="matrix(1,0,0,1,83,108)" stroke="rgb(255,153,204)">
      <circle r="10" clip-path="url(#clipPath2)" cx="850" cy="125" stroke="none"/>
    </g>
    <g text-rendering="geometricPrecision" stroke-miterlimit="1.45" shape-rendering="geometricPrecision" font-family="sans-serif" transform="matrix(1,0,0,1,83,108)" stroke-linecap="butt">
      <text x="751.1992" xml:space="preserve" y="78.2031" clip-path="url(#clipPath2)" stroke="none">:maurizio_cau, :matteo_largaiolli, </text>
      <text x="756.2002" xml:space="preserve" y="92.3359" clip-path="url(#clipPath2)" stroke="none">:sara_tonelli, :giovanni_moretti, </text>
      <text x="746.0488" xml:space="preserve" y="106.4688" clip-path="url(#clipPath2)" stroke="none">:rachele_sprugnoli, :matteo_moretti</text>
      <circle fill="none" stroke-width="3" r="10" clip-path="url(#clipPath2)" cx="850" cy="125"/>
    </g>
    <g fill="rgb(255,153,204)" text-rendering="geometricPrecision" shape-rendering="geometricPrecision" transform="matrix(1,0,0,1,83,108)" stroke="rgb(255,153,204)">
      <circle r="10" clip-path="url(#clipPath2)" cx="250" cy="500" stroke="none"/>
    </g>
    <g text-rendering="geometricPrecision" stroke-miterlimit="1.45" shape-rendering="geometricPrecision" font-family="sans-serif" transform="matrix(1,0,0,1,83,108)" stroke-linecap="butt">
      <text x="157.875" xml:space="preserve" y="485.4688" clip-path="url(#clipPath2)" stroke="none">:edition_item</text>
      <circle fill="none" stroke-width="3" r="10" clip-path="url(#clipPath2)" cx="250" cy="500"/>
    </g>
    <g fill="rgb(255,153,204)" text-rendering="geometricPrecision" shape-rendering="geometricPrecision" transform="matrix(1,0,0,1,83,108)" stroke="rgb(255,153,204)">
      <circle r="10" clip-path="url(#clipPath2)" cx="250" cy="400" stroke="none"/>
    </g>
    <g text-rendering="geometricPrecision" stroke-miterlimit="1.45" shape-rendering="geometricPrecision" font-family="sans-serif" transform="matrix(1,0,0,1,83,108)" stroke-linecap="butt">
      <text x="266" xml:space="preserve" y="385.4688" clip-path="url(#clipPath2)" stroke="none">:edition_manifestation</text>
      <circle fill="none" stroke-width="3" r="10" clip-path="url(#clipPath2)" cx="250" cy="400"/>
    </g>
    <g fill="rgb(255,153,204)" text-rendering="geometricPrecision" shape-rendering="geometricPrecision" transform="matrix(1,0,0,1,83,108)" stroke="rgb(255,153,204)">
      <circle r="10" clip-path="url(#clipPath2)" cx="850" cy="425" stroke="none"/>
    </g>
    <g text-rendering="geometricPrecision" stroke-miterlimit="1.45" shape-rendering="geometricPrecision" font-family="sans-serif" transform="matrix(1,0,0,1,83,108)" stroke-linecap="butt">
      <text x="732.6738" xml:space="preserve" y="410.4688" clip-path="url(#clipPath2)" stroke="none">:edition_digitized</text>
      <circle fill="none" stroke-width="3" r="10" clip-path="url(#clipPath2)" cx="850" cy="425"/>
    </g>
    <g fill="rgb(255,153,204)" text-rendering="geometricPrecision" shape-rendering="geometricPrecision" transform="matrix(1,0,0,1,83,108)" stroke="rgb(255,153,204)">
      <circle r="10" clip-path="url(#clipPath2)" cx="1158" cy="325" stroke="none"/>
    </g>
    <g text-rendering="geometricPrecision" stroke-miterlimit="1.45" shape-rendering="geometricPrecision" font-family="sans-serif" transform="matrix(1,0,0,1,83,108)" stroke-linecap="butt">
      <text x="1174" xml:space="preserve" y="310.4688" clip-path="url(#clipPath2)" stroke="none">:alcide_corpus</text>
      <circle fill="none" stroke-width="3" r="10" clip-path="url(#clipPath2)" cx="1158" cy="325"/>
    </g>
    <g fill="rgb(255,153,204)" text-rendering="geometricPrecision" shape-rendering="geometricPrecision" transform="matrix(1,0,0,1,83,108)" stroke="rgb(255,153,204)">
      <circle r="10" clip-path="url(#clipPath2)" cx="1383" cy="500" stroke="none"/>
    </g>
    <g text-rendering="geometricPrecision" stroke-miterlimit="1.45" shape-rendering="geometricPrecision" font-family="sans-serif" transform="matrix(1,0,0,1,83,108)" stroke-linecap="butt">
      <text x="1399" xml:space="preserve" y="485.4688" clip-path="url(#clipPath2)" stroke="none">:alcide_platform</text>
      <circle fill="none" stroke-width="3" r="10" clip-path="url(#clipPath2)" cx="1383" cy="500"/>
    </g>
    <g fill="rgb(255,153,204)" text-rendering="geometricPrecision" shape-rendering="geometricPrecision" transform="matrix(1,0,0,1,83,108)" stroke="rgb(255,153,204)">
      <circle r="10" clip-path="url(#clipPath2)" cx="250" cy="275" stroke="none"/>
    </g>
    <g text-rendering="geometricPrecision" stroke-miterlimit="1.45" shape-rendering="geometricPrecision" font-family="sans-serif" transform="matrix(1,0,0,1,83,108)" stroke-linecap="butt">
      <text x="266" xml:space="preserve" y="298.6016" clip-path="url(#clipPath2)" stroke="none">:alcide_de_gasperi</text>
      <circle fill="none" stroke-width="3" r="10" clip-path="url(#clipPath2)" cx="250" cy="275"/>
    </g>
    <g fill="yellow" text-rendering="geometricPrecision" shape-rendering="geometricPrecision" transform="matrix(1,0,0,1,83,108)" stroke="yellow">
      <rect x="178.5" y="612" clip-path="url(#clipPath2)" width="143" rx="4" ry="4" height="58" stroke="none"/>
    </g>
    <g font-size="16px" stroke-linecap="butt" transform="matrix(1,0,0,1,83,108)" text-rendering="geometricPrecision" font-family="sans-serif" shape-rendering="geometricPrecision" stroke-miterlimit="1.45">
      <text x="192.5469" xml:space="preserve" y="647.0469" clip-path="url(#clipPath2)" stroke="none">frbroo:F5_Item</text>
      <rect x="178.5" y="612" clip-path="url(#clipPath2)" fill="none" width="143" rx="4" ry="4" height="58"/>
    </g>
    <g fill="yellow" text-rendering="geometricPrecision" shape-rendering="geometricPrecision" transform="matrix(1,0,0,1,83,108)" stroke="yellow">
      <rect x="0" y="371" clip-path="url(#clipPath2)" width="200" rx="4" ry="4" height="58" stroke="none"/>
    </g>
    <g font-size="16px" stroke-linecap="butt" transform="matrix(1,0,0,1,83,108)" text-rendering="geometricPrecision" font-family="sans-serif" shape-rendering="geometricPrecision" stroke-miterlimit="1.45">
      <text x="7.1133" xml:space="preserve" y="406.0469" clip-path="url(#clipPath2)" stroke="none">frbroo:F3_Manifestation</text>
      <rect x="0" y="371" clip-path="url(#clipPath2)" fill="none" width="200" rx="4" ry="4" height="58"/>
    </g>
    <g fill="yellow" text-rendering="geometricPrecision" shape-rendering="geometricPrecision" transform="matrix(1,0,0,1,83,108)" stroke="yellow">
      <rect x="535" y="396" clip-path="url(#clipPath2)" width="192" rx="4" ry="4" height="58" stroke="none"/>
    </g>
    <g font-size="16px" stroke-linecap="butt" transform="matrix(1,0,0,1,83,108)" text-rendering="geometricPrecision" font-family="sans-serif" shape-rendering="geometricPrecision" stroke-miterlimit="1.45">
      <text x="539.1914" xml:space="preserve" y="431.0469" clip-path="url(#clipPath2)" stroke="none">crmdig:D9_Data_Object</text>
      <rect x="535" y="396" clip-path="url(#clipPath2)" fill="none" width="192" rx="4" ry="4" height="58"/>
    </g>
    <g fill="yellow" text-rendering="geometricPrecision" shape-rendering="geometricPrecision" transform="matrix(1,0,0,1,83,108)" stroke="yellow">
      <rect x="64.2769" y="246" clip-path="url(#clipPath2)" width="121.4462" rx="4" ry="4" height="58" stroke="none"/>
    </g>
    <g font-size="16px" stroke-linecap="butt" transform="matrix(1,0,0,1,83,108)" text-rendering="geometricPrecision" font-family="sans-serif" shape-rendering="geometricPrecision" stroke-miterlimit="1.45">
      <text x="69.9258" xml:space="preserve" y="281.0469" clip-path="url(#clipPath2)" stroke="none">crm:E1_Entity </text>
      <rect x="64.2769" y="246" clip-path="url(#clipPath2)" fill="none" width="121.4462" rx="4" ry="4" height="58"/>
    </g>
    <g fill="yellow" text-rendering="geometricPrecision" shape-rendering="geometricPrecision" transform="matrix(1,0,0,1,83,108)" stroke="yellow">
      <rect x="1055.5" y="196" clip-path="url(#clipPath2)" width="205" rx="4" ry="4" height="58" stroke="none"/>
    </g>
    <g font-size="16px" stroke-linecap="butt" transform="matrix(1,0,0,1,83,108)" text-rendering="geometricPrecision" font-family="sans-serif" shape-rendering="geometricPrecision" stroke-miterlimit="1.45">
      <text x="1058.6836" xml:space="preserve" y="231.0469" clip-path="url(#clipPath2)" stroke="none">crmdig:D1_Digital_Object</text>
      <rect x="1055.5" y="196" clip-path="url(#clipPath2)" fill="none" width="205" rx="4" ry="4" height="58"/>
      <text x="596.8545" xml:space="preserve" font-size="12px" y="319.4805" clip-path="url(#clipPath2)" stroke="none">"Creation of de </text>
      <text x="596.8545" xml:space="preserve" font-size="12px" y="333.6133" clip-path="url(#clipPath2)" stroke="none">Gasperi corpus"@en</text>
      <text x="250.302" xml:space="preserve" font-size="12px" y="181.1345" clip-path="url(#clipPath2)" stroke="none">&lt;viaf.org/viaf/32011324&gt;</text>
      <text x="185.6553" xml:space="preserve" font-size="12px" y="136.8219" clip-path="url(#clipPath2)" stroke="none">"Alcide de Gasperi"@it</text>
      <text x="3.5443" xml:space="preserve" font-size="12px" y="478.3242" clip-path="url(#clipPath2)" stroke="none">"A. De Gasperi, </text>
      <text x="3.5443" xml:space="preserve" font-size="12px" y="492.457" clip-path="url(#clipPath2)" stroke="none">Scritti e discorsi politici, </text>
      <text x="3.5443" xml:space="preserve" font-size="12px" y="506.5898" clip-path="url(#clipPath2)" stroke="none">I-IV"@it </text>
      <text x="457.3682" xml:space="preserve" font-size="12px" y="574.5781" clip-path="url(#clipPath2)" stroke="none">"Digitization of </text>
      <text x="457.3682" xml:space="preserve" font-size="12px" y="588.7109" clip-path="url(#clipPath2)" stroke="none">de Gasperi edition"@en</text>
      <text x="1097.9062" xml:space="preserve" font-size="12px" y="592.457" clip-path="url(#clipPath2)" stroke="none">"Creation of </text>
      <text x="1097.9062" xml:space="preserve" font-size="12px" y="606.5898" clip-path="url(#clipPath2)" stroke="none">ALCIDE plaform"@en</text>
      <text x="-65.1774" xml:space="preserve" font-size="12px" y="594.4688" clip-path="url(#clipPath2)" stroke="none">&lt;mulino.it/collana/scritti-discorsi-de-gasperi&gt;</text>
    </g>
    <g fill="yellow" text-rendering="geometricPrecision" shape-rendering="geometricPrecision" transform="matrix(1,0,0,1,83,108)" stroke="yellow">
      <rect x="385" y="61.4806" clip-path="url(#clipPath2)" width="280" rx="4" ry="4" height="58" stroke="none"/>
    </g>
    <g font-size="16px" stroke-linecap="butt" transform="matrix(1,0,0,1,83,108)" text-rendering="geometricPrecision" font-family="sans-serif" shape-rendering="geometricPrecision" stroke-miterlimit="1.45">
      <text x="401.8242" xml:space="preserve" y="96.5275" clip-path="url(#clipPath2)" stroke="none">crmdig:D2_Digitization_Process</text>
      <rect x="385" y="61.4806" clip-path="url(#clipPath2)" fill="none" width="280" rx="4" ry="4" height="58"/>
    </g>
    <g fill="rgb(255,153,204)" text-rendering="geometricPrecision" shape-rendering="geometricPrecision" transform="matrix(1,0,0,1,83,108)" stroke="rgb(255,153,204)">
      <circle r="10" clip-path="url(#clipPath2)" cx="410" cy="-4.5194" stroke="none"/>
    </g>
    <g text-rendering="geometricPrecision" stroke-miterlimit="1.45" shape-rendering="geometricPrecision" font-family="sans-serif" transform="matrix(1,0,0,1,83,108)" stroke-linecap="butt">
      <text x="426" xml:space="preserve" y="0.0158" clip-path="url(#clipPath2)" stroke="none">:il_mulino</text>
      <circle fill="none" stroke-width="3" r="10" clip-path="url(#clipPath2)" cx="410" cy="-4.5194"/>
    </g>
    <g fill="yellow" text-rendering="geometricPrecision" shape-rendering="geometricPrecision" transform="matrix(1,0,0,1,83,108)" stroke="yellow">
      <rect x="208.2769" y="-33.5194" clip-path="url(#clipPath2)" width="121.4462" rx="4" ry="4" height="58" stroke="none"/>
    </g>
    <g font-size="16px" stroke-linecap="butt" transform="matrix(1,0,0,1,83,108)" text-rendering="geometricPrecision" font-family="sans-serif" shape-rendering="geometricPrecision" stroke-miterlimit="1.45">
      <text x="212.3789" xml:space="preserve" y="1.5275" clip-path="url(#clipPath2)" stroke="none">crm:E39_Actor</text>
      <rect x="208.2769" y="-33.5194" clip-path="url(#clipPath2)" fill="none" width="121.4462" rx="4" ry="4" height="58"/>
    </g>
    <g fill="rgb(255,153,204)" text-rendering="geometricPrecision" shape-rendering="geometricPrecision" transform="matrix(1,0,0,1,83,108)" stroke="rgb(255,153,204)">
      <circle r="10" clip-path="url(#clipPath2)" cx="567" cy="-4.5194" stroke="none"/>
    </g>
    <g text-rendering="geometricPrecision" stroke-miterlimit="1.45" shape-rendering="geometricPrecision" font-family="sans-serif" transform="matrix(1,0,0,1,83,108)" stroke-linecap="butt">
      <text x="499.8828" xml:space="preserve" y="0.0158" clip-path="url(#clipPath2)" stroke="none">:bologna</text>
      <circle fill="none" stroke-width="3" r="10" clip-path="url(#clipPath2)" cx="567" cy="-4.5194"/>
    </g>
    <g fill="yellow" text-rendering="geometricPrecision" shape-rendering="geometricPrecision" transform="matrix(1,0,0,1,83,108)" stroke="yellow">
      <rect x="655.5538" y="-33.5194" clip-path="url(#clipPath2)" width="121.4462" rx="4" ry="4" height="58" stroke="none"/>
    </g>
    <g font-size="16px" stroke-linecap="butt" transform="matrix(1,0,0,1,83,108)" text-rendering="geometricPrecision" font-family="sans-serif" shape-rendering="geometricPrecision" stroke-miterlimit="1.45">
      <text x="660.7457" xml:space="preserve" y="1.5275" clip-path="url(#clipPath2)" stroke="none">crm:E53_Place</text>
      <rect x="655.5538" y="-33.5194" clip-path="url(#clipPath2)" fill="none" width="121.4462" rx="4" ry="4" height="58"/>
      <text x="371.252" xml:space="preserve" font-size="12px" y="-79.16" clip-path="url(#clipPath2)" stroke="none">"il Mulino"@it</text>
      <text x="530.0537" xml:space="preserve" font-size="12px" y="-79.16" clip-path="url(#clipPath2)" stroke="none">"Bologna"@it</text>
      <path fill="none" d="M900 570.9702 L900 518" clip-path="url(#clipPath2)"/>
      <path d="M900 510 L895 522 L900 519 L905 522 Z" stroke="none" clip-path="url(#clipPath2)"/>
    </g>
    <g stroke-linecap="butt" transform="matrix(1,0,0,1,83,108)" fill="navy" text-rendering="geometricPrecision" shape-rendering="geometricPrecision" stroke="navy" stroke-miterlimit="1.45">
      <path fill="none" d="M886 500 L546 500" clip-path="url(#clipPath2)"/>
      <path d="M894 500 C894 502.2091 892.2092 504 890 504 C887.7908 504 886 502.2091 886 500 C886 497.7909 887.7908 496 890 496 C892.2092 496 894 497.7909 894 500 Z" clip-path="url(#clipPath2)" stroke="none"/>
      <path d="M535 500 L547 506 L547 494 Z" clip-path="url(#clipPath2)" stroke="none"/>
      <rect x="730.0399" y="490.9336" clip-path="url(#clipPath2)" fill="white" width="122.043" height="18.1328" stroke="none"/>
      <text x="732.0399" xml:space="preserve" y="504.5352" clip-path="url(#clipPath2)" font-family="sans-serif" stroke="none">prov:wasInformedBy</text>
      <path fill="none" d="M900 486 L900 446 L900 345 L869.498 332.7992" clip-path="url(#clipPath2)"/>
      <path d="M900 494 C897.7908 494 896 492.2091 896 490 C896 487.7909 897.7908 486 900 486 C902.2092 486 904 487.7909 904 490 C904 492.2091 902.2092 494 900 494 Z" clip-path="url(#clipPath2)" stroke="none"/>
      <path d="M859.2847 328.7139 L868.1981 338.7414 L872.6548 327.5997 Z" clip-path="url(#clipPath2)" stroke="none"/>
      <rect x="838.9785" y="451.9004" clip-path="url(#clipPath2)" fill="white" width="122.043" height="18.1328" stroke="none"/>
      <text x="840.9785" xml:space="preserve" y="465.502" clip-path="url(#clipPath2)" font-family="sans-serif" stroke="none">prov:wasInformedBy</text>
      <path fill="none" d="M850 254 L850 307" clip-path="url(#clipPath2)" stroke="black"/>
      <path fill="black" d="M850 315 L855 303 L850 306 L845 303 Z" clip-path="url(#clipPath2)" stroke="none"/>
      <path fill="none" d="M914 500 L1137 500" clip-path="url(#clipPath2)"/>
      <path d="M906 500 C906 497.7909 907.7908 496 910 496 C912.2092 496 914 497.7909 914 500 C914 502.2091 912.2092 504 910 504 C907.7908 504 906 502.2091 906 500 Z" clip-path="url(#clipPath2)" stroke="none"/>
      <path d="M1148 500 L1136 494 L1136 506 Z" clip-path="url(#clipPath2)" stroke="none"/>
      <rect x="967.9785" y="490.9336" clip-path="url(#clipPath2)" fill="white" width="122.043" height="18.1328" stroke="none"/>
      <text x="969.9785" xml:space="preserve" y="504.5352" clip-path="url(#clipPath2)" font-family="sans-serif" stroke="none">prov:wasInformedBy</text>
      <path fill="none" d="M1268 154 L1268 476 L1192.7229 476 L1173.1466 490.2692" clip-path="url(#clipPath2)" stroke="black"/>
      <path fill="black" d="M1166.6818 494.9815 L1179.3242 491.9536 L1173.9547 489.6802 L1173.4338 483.8725 Z" clip-path="url(#clipPath2)" stroke="none"/>
      <path fill="none" d="M1268 91.9702 L1268 46" clip-path="url(#clipPath2)"/>
      <path d="M1268 99.9702 C1265.7909 99.9702 1264 98.1794 1264 95.9702 C1264 93.7611 1265.7909 91.9702 1268 91.9702 C1270.2091 91.9702 1272 93.7611 1272 95.9702 C1272 98.1794 1270.2091 99.9702 1268 99.9702 Z" clip-path="url(#clipPath2)" stroke="none"/>
      <path d="M1268 35 L1262 47 L1274 47 Z" clip-path="url(#clipPath2)" stroke="none"/>
      <rect x="1202.9414" y="56.4336" clip-path="url(#clipPath2)" fill="white" width="130.1172" height="18.1328" stroke="none"/>
      <text x="1204.9414" xml:space="preserve" y="70.0352" clip-path="url(#clipPath2)" font-family="sans-serif" stroke="none">crm:P7_took_place_at</text>
      <path fill="none" d="M993.9948 225 L1019.5 225 L1019.5 25 L1247 25" clip-path="url(#clipPath2)"/>
      <path d="M985.9948 225 C985.9948 222.7909 987.7856 221 989.9948 221 C992.2039 221 993.9948 222.7909 993.9948 225 C993.9948 227.2091 992.2039 229 989.9948 229 C987.7856 229 985.9948 227.2091 985.9948 225 Z" clip-path="url(#clipPath2)" stroke="none"/>
      <path d="M1258 25 L1246 19 L1246 31 Z" clip-path="url(#clipPath2)" stroke="none"/>
      <rect x="1069.1289" y="15.9336" clip-path="url(#clipPath2)" fill="white" width="130.1172" height="18.1328" stroke="none"/>
      <text x="1071.1289" xml:space="preserve" y="29.5352" clip-path="url(#clipPath2)" font-family="sans-serif" stroke="none">crm:P7_took_place_at</text>
      <path fill="none" d="M1124.0118 125 L871 125" clip-path="url(#clipPath2)"/>
      <path d="M1132.0118 125 C1132.0118 127.2091 1130.2209 129 1128.0118 129 C1125.8027 129 1124.0118 127.2091 1124.0118 125 C1124.0118 122.7909 1125.8027 121 1128.0118 121 C1130.2209 121 1132.0118 122.7909 1132.0118 125 Z" clip-path="url(#clipPath2)" stroke="none"/>
      <path d="M860 125 L872 131 L872 119 Z" clip-path="url(#clipPath2)" stroke="none"/>
      <rect x="922.3525" y="115.9336" clip-path="url(#clipPath2)" fill="white" width="143.2949" height="18.1328" stroke="none"/>
      <text x="924.3525" xml:space="preserve" y="129.5352" clip-path="url(#clipPath2)" font-family="sans-serif" stroke="none">crm:P14_carried_out_by</text>
      <path fill="none" d="M850 192.0449 L850 146" clip-path="url(#clipPath2)"/>
      <path d="M850 200.0449 C847.7908 200.0449 846 198.2541 846 196.0449 C846 193.8358 847.7908 192.0449 850 192.0449 C852.2092 192.0449 854 193.8358 854 196.0449 C854 198.2541 852.2092 200.0449 850 200.0449 Z" clip-path="url(#clipPath2)" stroke="none"/>
      <path d="M850 135 L844 147 L856 147 Z" clip-path="url(#clipPath2)" stroke="none"/>
      <rect x="778.3525" y="156.4336" clip-path="url(#clipPath2)" fill="white" width="143.2949" height="18.1328" stroke="none"/>
      <text x="780.3525" xml:space="preserve" y="170.0352" clip-path="url(#clipPath2)" font-family="sans-serif" stroke="none">crm:P14_carried_out_by</text>
      <path fill="none" d="M511 500 L271 500" clip-path="url(#clipPath2)"/>
      <path d="M519 500 C519 502.2091 517.2092 504 515 504 C512.7908 504 511 502.2091 511 500 C511 497.7909 512.7908 496 515 496 C517.2092 496 519 497.7909 519 500 Z" clip-path="url(#clipPath2)" stroke="none"/>
      <path d="M260 500 L272 506 L272 494 Z" clip-path="url(#clipPath2)" stroke="none"/>
      <rect x="327.7031" y="490.9336" clip-path="url(#clipPath2)" fill="white" width="119.5938" height="18.1328" stroke="none"/>
      <text x="329.7031" xml:space="preserve" y="504.5352" clip-path="url(#clipPath2)" font-family="sans-serif" stroke="none">crmdig:L1_digitized</text>
      <path fill="none" d="M250 486 L250 421" clip-path="url(#clipPath2)"/>
      <path d="M250 494 C247.7909 494 246 492.2091 246 490 C246 487.7909 247.7909 486 250 486 C252.2091 486 254 487.7909 254 490 C254 492.2091 252.2091 494 250 494 Z" clip-path="url(#clipPath2)" stroke="none"/>
      <path d="M250 410 L244 422 L256 422 Z" clip-path="url(#clipPath2)" stroke="none"/>
      <rect x="156.9512" y="440.9336" clip-path="url(#clipPath2)" fill="white" width="186.0977" height="18.1328" stroke="none"/>
      <text x="158.9512" xml:space="preserve" y="454.5352" clip-path="url(#clipPath2)" font-family="sans-serif" stroke="none">frbroo:R7_is_materialization_of</text>
      <path fill="none" d="M537.024 492.7831 L561 477 L813 477 L842.7286 443.2539" clip-path="url(#clipPath2)"/>
      <path d="M530.3419 497.1818 C529.1273 495.3366 529.6384 492.856 531.4836 491.6414 C533.3289 490.4267 535.8094 490.9378 537.024 492.7831 C538.2387 494.6283 537.7276 497.1088 535.8824 498.3235 C534.0371 499.5382 531.5566 499.027 530.3419 497.1818 Z" clip-path="url(#clipPath2)" stroke="none"/>
      <path d="M850 435 L837.5655 440.0381 L846.5698 447.9705 Z" clip-path="url(#clipPath2)" stroke="none"/>
      <rect x="614.2891" y="467.9336" clip-path="url(#clipPath2)" fill="white" width="145.4219" height="18.1328" stroke="none"/>
      <text x="616.2891" xml:space="preserve" y="481.5352" clip-path="url(#clipPath2)" font-family="sans-serif" stroke="none">crmdig:L20_has_created</text>
      <path fill="none" d="M850 339 L850 404" clip-path="url(#clipPath2)"/>
      <path d="M850 331 C852.2092 331 854 332.7909 854 335 C854 337.2091 852.2092 339 850 339 C847.7908 339 846 337.2091 846 335 C846 332.7909 847.7908 331 850 331 Z" clip-path="url(#clipPath2)" stroke="none"/>
      <path d="M850 415 L856 403 L844 403 Z" clip-path="url(#clipPath2)" stroke="none"/>
      <rect x="770.1143" y="365.9336" clip-path="url(#clipPath2)" fill="white" width="159.7715" height="18.1328" stroke="none"/>
      <text x="772.1143" xml:space="preserve" y="379.5352" clip-path="url(#clipPath2)" font-family="sans-serif" stroke="none">crmdig:L2_used_as_source</text>
      <path fill="none" d="M864 325 L1137 325" clip-path="url(#clipPath2)"/>
      <path d="M856 325 C856 322.7909 857.7908 321 860 321 C862.2092 321 864 322.7909 864 325 C864 327.2091 862.2092 329 860 329 C857.7908 329 856 327.2091 856 325 Z" clip-path="url(#clipPath2)" stroke="none"/>
      <path d="M1148 325 L1136 319 L1136 331 Z" clip-path="url(#clipPath2)" stroke="none"/>
      <rect x="932.7217" y="315.9336" clip-path="url(#clipPath2)" fill="white" width="142.5566" height="18.1328" stroke="none"/>
      <text x="934.7217" xml:space="preserve" y="329.5352" clip-path="url(#clipPath2)" font-family="sans-serif" stroke="none">crmdig:L11_had_output</text>
      <path fill="none" d="M1158 486 L1158 346" clip-path="url(#clipPath2)"/>
      <path d="M1158 494 C1155.7909 494 1154 492.2091 1154 490 C1154 487.7909 1155.7909 486 1158 486 C1160.2091 486 1162 487.7909 1162 490 C1162 492.2091 1160.2091 494 1158 494 Z" clip-path="url(#clipPath2)" stroke="none"/>
      <path d="M1158 335 L1152 347 L1164 347 Z" clip-path="url(#clipPath2)" stroke="none"/>
      <rect x="1090.917" y="377.4336" clip-path="url(#clipPath2)" fill="white" width="134.166" height="18.1328" stroke="none"/>
      <text x="1092.917" xml:space="preserve" y="391.0352" clip-path="url(#clipPath2)" font-family="sans-serif" stroke="none">crmdig:L10_had_input</text>
      <path fill="none" d="M1145.1078 330.458 L1089.5 354 L1089.5 425 L871 425" clip-path="url(#clipPath2)"/>
      <path d="M1152.4747 327.3391 C1153.3361 329.3735 1152.385 331.7208 1150.3507 332.5821 C1148.3164 333.4433 1145.969 332.4924 1145.1078 330.458 C1144.2465 328.4237 1145.1975 326.0764 1147.2318 325.2151 C1149.2661 324.3539 1151.6135 325.3048 1152.4747 327.3391 Z" clip-path="url(#clipPath2)" stroke="none"/>
      <path d="M860 425 L872 431 L872 419 Z" clip-path="url(#clipPath2)" stroke="none"/>
      <rect x="920" y="415.9336" clip-path="url(#clipPath2)" fill="white" width="158.8223" height="18.1328" stroke="none"/>
      <text x="922" xml:space="preserve" y="429.5352" clip-path="url(#clipPath2)" font-family="sans-serif" stroke="none">crm:P106_is_composed_of</text>
      <path fill="none" d="M1172 500 L1362 500" clip-path="url(#clipPath2)"/>
      <path d="M1164 500 C1164 497.7909 1165.7909 496 1168 496 C1170.2091 496 1172 497.7909 1172 500 C1172 502.2091 1170.2091 504 1168 504 C1165.7909 504 1164 502.2091 1164 500 Z" clip-path="url(#clipPath2)" stroke="none"/>
      <path d="M1373 500 L1361 494 L1361 506 Z" clip-path="url(#clipPath2)" stroke="none"/>
      <rect x="1199.2217" y="490.9336" clip-path="url(#clipPath2)" fill="white" width="142.5566" height="18.1328" stroke="none"/>
      <text x="1201.2217" xml:space="preserve" y="504.5352" clip-path="url(#clipPath2)" font-family="sans-serif" stroke="none">crmdig:L11_had_output</text>
      <path fill="none" d="M1375.3525 489.5389 L1375.3525 325 L1179 325" clip-path="url(#clipPath2)"/>
      <path d="M1375.3525 497.5389 C1373.1434 497.5389 1371.3525 495.7481 1371.3525 493.5389 C1371.3525 491.3298 1373.1434 489.5389 1375.3525 489.5389 C1377.5616 489.5389 1379.3525 491.3298 1379.3525 493.5389 C1379.3525 495.7481 1377.5616 497.5389 1375.3525 497.5389 Z" clip-path="url(#clipPath2)" stroke="none"/>
      <path d="M1168 325 L1180 331 L1180 319 Z" clip-path="url(#clipPath2)" stroke="none"/>
      <rect x="1196.8276" y="315.9336" clip-path="url(#clipPath2)" fill="white" width="158.8223" height="18.1328" stroke="none"/>
      <text x="1198.8276" xml:space="preserve" y="329.5352" clip-path="url(#clipPath2)" font-family="sans-serif" stroke="none">crm:P106_is_composed_of</text>
      <path fill="none" d="M250 386 L250 296" clip-path="url(#clipPath2)"/>
      <path d="M250 394 C247.7909 394 246 392.2091 246 390 C246 387.7909 247.7909 386 250 386 C252.2091 386 254 387.7909 254 390 C254 392.2091 252.2091 394 250 394 Z" clip-path="url(#clipPath2)" stroke="none"/>
      <path d="M250 285 L244 297 L256 297 Z" clip-path="url(#clipPath2)" stroke="none"/>
      <rect x="190.8389" y="328.4336" clip-path="url(#clipPath2)" fill="white" width="118.3223" height="18.1328" stroke="none"/>
      <text x="192.8389" xml:space="preserve" y="342.0352" clip-path="url(#clipPath2)" font-family="sans-serif" stroke="none">crm:P129_is_about </text>
      <path fill="none" d="M520 487.3174 L520 275 L271 275" clip-path="url(#clipPath2)"/>
      <path d="M520 495.3174 C517.7908 495.3174 516 493.5265 516 491.3174 C516 489.1082 517.7908 487.3174 520 487.3174 C522.2092 487.3174 524 489.1082 524 491.3174 C524 493.5265 522.2092 495.3174 520 495.3174 Z" clip-path="url(#clipPath2)" stroke="none"/>
      <path d="M260 275 L272 281 L272 269 Z" clip-path="url(#clipPath2)" stroke="none"/>
      <rect x="324.2656" y="265.9336" clip-path="url(#clipPath2)" fill="white" width="140.5938" height="18.1328" stroke="none"/>
      <text x="326.2656" xml:space="preserve" y="279.5352" clip-path="url(#clipPath2)" font-family="sans-serif" stroke="none">crmdig:L60_documents</text>
      <path fill="none" d="M250 611.9502 L250 518" clip-path="url(#clipPath2)" stroke="black"/>
      <path fill="black" d="M250 510 L245 522 L250 519 L255 522 Z" clip-path="url(#clipPath2)" stroke="none"/>
      <path fill="none" d="M200 400 L232 400" clip-path="url(#clipPath2)" stroke="black"/>
      <path fill="black" d="M240 400 L228 395 L231 400 L228 405 Z" clip-path="url(#clipPath2)" stroke="none"/>
      <path fill="none" d="M836 325 L730.5 325" clip-path="url(#clipPath2)" stroke="green"/>
    </g>
    <g stroke-linecap="butt" transform="matrix(1,0,0,1,83,108)" fill-opacity="0" fill="rgb(0,0,0)" text-rendering="geometricPrecision" shape-rendering="geometricPrecision" stroke="rgb(0,0,0)" stroke-opacity="0" stroke-miterlimit="1.45">
      <path d="M844 325 C844 327.2091 842.2092 329 840 329 C837.7908 329 836 327.2091 836 325 C836 322.7909 837.7908 321 840 321 C842.2092 321 844 322.7909 844 325 Z" stroke="none" clip-path="url(#clipPath2)"/>
    </g>
    <g stroke-linecap="butt" transform="matrix(1,0,0,1,83,108)" fill="green" text-rendering="geometricPrecision" shape-rendering="geometricPrecision" stroke="green" stroke-miterlimit="1.45">
      <path fill="none" d="M844 325 C844 327.2091 842.2092 329 840 329 C837.7908 329 836 327.2091 836 325 C836 322.7909 837.7908 321 840 321 C842.2092 321 844 322.7909 844 325 Z" clip-path="url(#clipPath2)"/>
      <path fill="white" d="M715.5 325 L731.5 331 L731.5 319 Z" clip-path="url(#clipPath2)" stroke="none"/>
      <path fill="none" d="M715.5 325 L731.5 331 L731.5 319 Z" clip-path="url(#clipPath2)"/>
      <rect x="756.3062" y="315.9336" clip-path="url(#clipPath2)" fill="white" width="58.5918" height="18.1328" stroke="none"/>
      <text x="758.3062" xml:space="preserve" y="329.5352" clip-path="url(#clipPath2)" font-family="sans-serif" stroke="none">rdfs:label</text>
      <path fill="none" d="M727 425 L832 425" clip-path="url(#clipPath2)" stroke="black"/>
      <path fill="black" d="M840 425 L828 420 L831 425 L828 430 Z" clip-path="url(#clipPath2)" stroke="none"/>
      <path fill="none" d="M185.7231 275 L232 275" clip-path="url(#clipPath2)" stroke="black"/>
      <path fill="black" d="M240 275 L228 270 L231 275 L228 280 Z" clip-path="url(#clipPath2)" stroke="none"/>
      <path fill="none" d="M1158 253.9551 L1158 307" clip-path="url(#clipPath2)" stroke="black"/>
      <path fill="black" d="M1158 315 L1163 303 L1158 306 L1153 303 Z" clip-path="url(#clipPath2)" stroke="none"/>
      <path fill="none" d="M1260.475 225 L1383 225 L1383 482" clip-path="url(#clipPath2)" stroke="black"/>
      <path fill="black" d="M1383 490 L1388 478 L1383 481 L1378 478 Z" clip-path="url(#clipPath2)" stroke="none"/>
      <path fill="none" d="M258.6906 270 L328.9846 270 L328.9846 193.6658" clip-path="url(#clipPath2)" stroke="black"/>
      <path fill="black" d="M328.9846 185.6658 L323.9846 197.6658 L328.9846 194.6658 L333.9846 197.6658 Z" clip-path="url(#clipPath2)" stroke="none"/>
      <rect x="292.5286" y="223.329" clip-path="url(#clipPath2)" fill="white" width="72.9121" height="18.1328" stroke="none"/>
      <text x="294.5286" y="236.9305" clip-path="url(#clipPath2)" fill="black" font-family="sans-serif" stroke="none" xml:space="preserve">owl:sameAs</text>
      <path fill="none" d="M250 261 L250 156.3531" clip-path="url(#clipPath2)"/>
    </g>
    <g stroke-linecap="butt" transform="matrix(1,0,0,1,83,108)" fill-opacity="0" fill="rgb(0,0,0)" text-rendering="geometricPrecision" shape-rendering="geometricPrecision" stroke="rgb(0,0,0)" stroke-opacity="0" stroke-miterlimit="1.45">
      <path d="M250 269 C247.7909 269 246 267.2091 246 265 C246 262.7909 247.7909 261 250 261 C252.2091 261 254 262.7909 254 265 C254 267.2091 252.2091 269 250 269 Z" stroke="none" clip-path="url(#clipPath2)"/>
    </g>
    <g stroke-linecap="butt" transform="matrix(1,0,0,1,83,108)" fill="green" text-rendering="geometricPrecision" shape-rendering="geometricPrecision" stroke="green" stroke-miterlimit="1.45">
      <path fill="none" d="M250 269 C247.7909 269 246 267.2091 246 265 C246 262.7909 247.7909 261 250 261 C252.2091 261 254 262.7909 254 265 C254 267.2091 252.2091 269 250 269 Z" clip-path="url(#clipPath2)"/>
      <path fill="white" d="M250 141.3531 L244 157.3531 L256 157.3531 Z" clip-path="url(#clipPath2)" stroke="none"/>
      <path fill="none" d="M250 141.3531 L244 157.3531 L256 157.3531 Z" clip-path="url(#clipPath2)"/>
      <rect x="220.7041" y="194.1102" clip-path="url(#clipPath2)" fill="white" width="58.5918" height="18.1328" stroke="none"/>
      <text x="222.7041" xml:space="preserve" y="207.7117" clip-path="url(#clipPath2)" font-family="sans-serif" stroke="none">rdfs:label</text>
      <path fill="none" d="M236 500 L148.0681 500" clip-path="url(#clipPath2)"/>
    </g>
    <g stroke-linecap="butt" transform="matrix(1,0,0,1,83,108)" fill-opacity="0" fill="rgb(0,0,0)" text-rendering="geometricPrecision" shape-rendering="geometricPrecision" stroke="rgb(0,0,0)" stroke-opacity="0" stroke-miterlimit="1.45">
      <path d="M244 500 C244 502.2091 242.2091 504 240 504 C237.7909 504 236 502.2091 236 500 C236 497.7909 237.7909 496 240 496 C242.2091 496 244 497.7909 244 500 Z" stroke="none" clip-path="url(#clipPath2)"/>
    </g>
    <g stroke-linecap="butt" transform="matrix(1,0,0,1,83,108)" fill="green" text-rendering="geometricPrecision" shape-rendering="geometricPrecision" stroke="green" stroke-miterlimit="1.45">
      <path fill="none" d="M244 500 C244 502.2091 242.2091 504 240 504 C237.7909 504 236 502.2091 236 500 C236 497.7909 237.7909 496 240 496 C242.2091 496 244 497.7909 244 500 Z" clip-path="url(#clipPath2)"/>
      <path fill="white" d="M133.0681 500 L149.0681 506 L149.0681 494 Z" clip-path="url(#clipPath2)" stroke="none"/>
      <path fill="none" d="M133.0681 500 L149.0681 506 L149.0681 494 Z" clip-path="url(#clipPath2)"/>
      <rect x="163.8327" y="490.9336" clip-path="url(#clipPath2)" fill="white" width="58.5918" height="18.1328" stroke="none"/>
      <text x="165.8327" xml:space="preserve" y="504.5352" clip-path="url(#clipPath2)" font-family="sans-serif" stroke="none">rdfs:label</text>
      <path fill="none" d="M525 514 L525 546.9052" clip-path="url(#clipPath2)"/>
    </g>
    <g stroke-linecap="butt" transform="matrix(1,0,0,1,83,108)" fill-opacity="0" fill="rgb(0,0,0)" text-rendering="geometricPrecision" shape-rendering="geometricPrecision" stroke="rgb(0,0,0)" stroke-opacity="0" stroke-miterlimit="1.45">
      <path d="M525 506 C527.2092 506 529 507.7909 529 510 C529 512.2092 527.2092 514 525 514 C522.7908 514 521 512.2092 521 510 C521 507.7909 522.7908 506 525 506 Z" stroke="none" clip-path="url(#clipPath2)"/>
    </g>
    <g stroke-linecap="butt" transform="matrix(1,0,0,1,83,108)" fill="green" text-rendering="geometricPrecision" shape-rendering="geometricPrecision" stroke="green" stroke-miterlimit="1.45">
      <path fill="none" d="M525 506 C527.2092 506 529 507.7909 529 510 C529 512.2092 527.2092 514 525 514 C522.7908 514 521 512.2092 521 510 C521 507.7909 522.7908 506 525 506 Z" clip-path="url(#clipPath2)"/>
      <path fill="white" d="M525 561.9052 L531 545.9052 L519 545.9052 Z" clip-path="url(#clipPath2)" stroke="none"/>
      <path fill="none" d="M525 561.9052 L531 545.9052 L519 545.9052 Z" clip-path="url(#clipPath2)"/>
      <rect x="495.7041" y="515" clip-path="url(#clipPath2)" fill="white" width="58.5918" height="18.1328" stroke="none"/>
      <text x="497.7041" xml:space="preserve" y="528.6016" clip-path="url(#clipPath2)" font-family="sans-serif" stroke="none">rdfs:label</text>
      <path fill="none" d="M1158 514 L1158 564.4191" clip-path="url(#clipPath2)"/>
    </g>
    <g stroke-linecap="butt" transform="matrix(1,0,0,1,83,108)" fill-opacity="0" fill="rgb(0,0,0)" text-rendering="geometricPrecision" shape-rendering="geometricPrecision" stroke="rgb(0,0,0)" stroke-opacity="0" stroke-miterlimit="1.45">
      <path d="M1158 506 C1160.2091 506 1162 507.7909 1162 510 C1162 512.2092 1160.2091 514 1158 514 C1155.7909 514 1154 512.2092 1154 510 C1154 507.7909 1155.7909 506 1158 506 Z" stroke="none" clip-path="url(#clipPath2)"/>
    </g>
    <g stroke-linecap="butt" transform="matrix(1,0,0,1,83,108)" fill="green" text-rendering="geometricPrecision" shape-rendering="geometricPrecision" stroke="green" stroke-miterlimit="1.45">
      <path fill="none" d="M1158 506 C1160.2091 506 1162 507.7909 1162 510 C1162 512.2092 1160.2091 514 1158 514 C1155.7909 514 1154 512.2092 1154 510 C1154 507.7909 1155.7909 506 1158 506 Z" clip-path="url(#clipPath2)"/>
      <path fill="white" d="M1158 579.4191 L1164 563.4191 L1152 563.4191 Z" clip-path="url(#clipPath2)" stroke="none"/>
      <path fill="none" d="M1158 579.4191 L1164 563.4191 L1152 563.4191 Z" clip-path="url(#clipPath2)"/>
      <rect x="1128.7041" y="540.373" clip-path="url(#clipPath2)" fill="white" width="58.5918" height="18.1328" stroke="none"/>
      <text x="1130.7041" xml:space="preserve" y="553.9746" clip-path="url(#clipPath2)" font-family="sans-serif" stroke="none">rdfs:label</text>
      <path fill="none" d="M241.0675 504.4956 L92.535 579.2496" clip-path="url(#clipPath2)" stroke="black"/>
      <path fill="black" d="M85.389 582.8461 L98.3558 581.9176 L93.4283 578.8 L93.8602 572.9851 Z" clip-path="url(#clipPath2)" stroke="none"/>
      <rect x="126.2385" y="534.873" clip-path="url(#clipPath2)" fill="white" width="72.9121" height="18.1328" stroke="none"/>
      <text x="128.2385" y="548.4746" clip-path="url(#clipPath2)" fill="black" font-family="sans-serif" stroke="none" xml:space="preserve">owl:sameAs</text>
      <path fill="none" d="M525 119.5249 L525 482" clip-path="url(#clipPath2)" stroke="black"/>
      <path fill="black" d="M525 490 L530 478 L525 481 L520 478 Z" clip-path="url(#clipPath2)" stroke="none"/>
      <path fill="none" d="M410 57.4416 L410 16.4806" clip-path="url(#clipPath2)" stroke="navy"/>
      <path fill="navy" d="M410 65.4416 C407.7909 65.4416 406 63.6507 406 61.4416 C406 59.2324 407.7909 57.4416 410 57.4416 C412.2091 57.4416 414 59.2324 414 61.4416 C414 63.6507 412.2091 65.4416 410 65.4416 Z" clip-path="url(#clipPath2)" stroke="none"/>
      <path fill="navy" d="M410 5.4806 L404 17.4806 L416 17.4806 Z" clip-path="url(#clipPath2)" stroke="none"/>
      <rect x="338.3525" y="24.4142" clip-path="url(#clipPath2)" fill="white" width="143.2949" height="18.1328" stroke="none"/>
      <text x="340.3525" y="38.0158" clip-path="url(#clipPath2)" fill="navy" font-family="sans-serif" stroke="none" xml:space="preserve">crm:P14_carried_out_by</text>
      <path fill="none" d="M329.6892 -4.5194 L392 -4.5194" clip-path="url(#clipPath2)" stroke="black"/>
      <path fill="black" d="M400 -4.5194 L388 -9.5194 L391 -4.5194 L388 0.4806 Z" clip-path="url(#clipPath2)" stroke="none"/>
      <path fill="none" d="M567 57.4718 L567 16.4806" clip-path="url(#clipPath2)" stroke="navy"/>
      <path fill="navy" d="M567 65.4718 C564.7908 65.4718 563 63.681 563 61.4718 C563 59.2627 564.7908 57.4718 567 57.4718 C569.2092 57.4718 571 59.2627 571 61.4718 C571 63.681 569.2092 65.4718 567 65.4718 Z" clip-path="url(#clipPath2)" stroke="none"/>
      <path fill="navy" d="M567 5.4806 L561 17.4806 L573 17.4806 Z" clip-path="url(#clipPath2)" stroke="none"/>
      <rect x="501.9414" y="24.4142" clip-path="url(#clipPath2)" fill="white" width="130.1172" height="18.1328" stroke="none"/>
      <text x="503.9414" y="38.0158" clip-path="url(#clipPath2)" fill="navy" font-family="sans-serif" stroke="none" xml:space="preserve">crm:P7_took_place_at</text>
      <path fill="none" d="M655.5238 -4.5194 L585 -4.5194" clip-path="url(#clipPath2)" stroke="black"/>
      <path fill="black" d="M577 -4.5194 L589 0.4806 L586 -4.5194 L589 -9.5194 Z" clip-path="url(#clipPath2)" stroke="none"/>
      <path fill="none" d="M410 -18.5194 L410 -55.5194" clip-path="url(#clipPath2)"/>
    </g>
    <g stroke-linecap="butt" transform="matrix(1,0,0,1,83,108)" fill-opacity="0" fill="rgb(0,0,0)" text-rendering="geometricPrecision" shape-rendering="geometricPrecision" stroke="rgb(0,0,0)" stroke-opacity="0" stroke-miterlimit="1.45">
      <path d="M410 -10.5194 C407.7909 -10.5194 406 -12.3102 406 -14.5194 C406 -16.7285 407.7909 -18.5194 410 -18.5194 C412.2091 -18.5194 414 -16.7285 414 -14.5194 C414 -12.3102 412.2091 -10.5194 410 -10.5194 Z" stroke="none" clip-path="url(#clipPath2)"/>
    </g>
    <g stroke-linecap="butt" transform="matrix(1,0,0,1,83,108)" fill="green" text-rendering="geometricPrecision" shape-rendering="geometricPrecision" stroke="green" stroke-miterlimit="1.45">
      <path fill="none" d="M410 -10.5194 C407.7909 -10.5194 406 -12.3102 406 -14.5194 C406 -16.7285 407.7909 -18.5194 410 -18.5194 C412.2091 -18.5194 414 -16.7285 414 -14.5194 C414 -12.3102 412.2091 -10.5194 410 -10.5194 Z" clip-path="url(#clipPath2)"/>
      <path fill="white" d="M410 -70.5194 L404 -54.5194 L416 -54.5194 Z" clip-path="url(#clipPath2)" stroke="none"/>
      <path fill="none" d="M410 -70.5194 L404 -54.5194 L416 -54.5194 Z" clip-path="url(#clipPath2)"/>
      <rect x="380.7041" y="-51.5858" clip-path="url(#clipPath2)" fill="white" width="58.5918" height="18.1328" stroke="none"/>
      <text x="382.7041" xml:space="preserve" y="-37.9842" clip-path="url(#clipPath2)" font-family="sans-serif" stroke="none">rdfs:label</text>
      <path fill="none" d="M567 -18.5194 L567 -55.5194" clip-path="url(#clipPath2)"/>
    </g>
    <g stroke-linecap="butt" transform="matrix(1,0,0,1,83,108)" fill-opacity="0" fill="rgb(0,0,0)" text-rendering="geometricPrecision" shape-rendering="geometricPrecision" stroke="rgb(0,0,0)" stroke-opacity="0" stroke-miterlimit="1.45">
      <path d="M567 -10.5194 C564.7908 -10.5194 563 -12.3102 563 -14.5194 C563 -16.7285 564.7908 -18.5194 567 -18.5194 C569.2092 -18.5194 571 -16.7285 571 -14.5194 C571 -12.3102 569.2092 -10.5194 567 -10.5194 Z" stroke="none" clip-path="url(#clipPath2)"/>
    </g>
    <g stroke-linecap="butt" transform="matrix(1,0,0,1,83,108)" fill="green" text-rendering="geometricPrecision" shape-rendering="geometricPrecision" stroke="green" stroke-miterlimit="1.45">
      <path fill="none" d="M567 -10.5194 C564.7908 -10.5194 563 -12.3102 563 -14.5194 C563 -16.7285 564.7908 -18.5194 567 -18.5194 C569.2092 -18.5194 571 -16.7285 571 -14.5194 C571 -12.3102 569.2092 -10.5194 567 -10.5194 Z" clip-path="url(#clipPath2)"/>
      <path fill="white" d="M567 -70.5194 L561 -54.5194 L573 -54.5194 Z" clip-path="url(#clipPath2)" stroke="none"/>
      <path fill="none" d="M567 -70.5194 L561 -54.5194 L573 -54.5194 Z" clip-path="url(#clipPath2)"/>
      <rect x="537.7041" y="-51.5858" clip-path="url(#clipPath2)" fill="white" width="58.5918" height="18.1328" stroke="none"/>
      <text x="539.7041" xml:space="preserve" y="-37.9842" clip-path="url(#clipPath2)" font-family="sans-serif" stroke="none">rdfs:label</text>
    </g>
  </g>
</svg>
