<?xml version="1.0" encoding="UTF-8"?><svg xmlns="http://www.w3.org/2000/svg" xmlns:xlink="http://www.w3.org/1999/xlink" fill-opacity="1" color-rendering="auto" color-interpolation="auto" text-rendering="auto" stroke="black" stroke-linecap="square" width="1372" stroke-miterlimit="10" shape-rendering="auto" stroke-opacity="1" fill="black" stroke-dasharray="none" font-weight="normal" stroke-width="1" height="737" font-family="'Dialog'" font-style="normal" stroke-linejoin="miter" font-size="12px" stroke-dashoffset="0" image-rendering="auto">
  <!--Generated by ySVG 2.6-->
  <defs id="genericDefs"/>
  <g>
    <defs id="defs1">
      <clipPath clipPathUnits="userSpaceOnUse" id="clipPath1">
        <path d="M0 0 L1372 0 L1372 737 L0 737 L0 0 Z"/>
      </clipPath>
      <clipPath clipPathUnits="userSpaceOnUse" id="clipPath2">
        <path d="M9 10 L1381 10 L1381 747 L9 747 L9 10 Z"/>
      </clipPath>
      <clipPath clipPathUnits="userSpaceOnUse" id="clipPath3">
        <path d="M-348.7091 360.0664 L-348.7091 -1011.9336 L388.2909 -1011.9336 L388.2909 360.0664 L-348.7091 360.0664 Z"/>
      </clipPath>
      <clipPath clipPathUnits="userSpaceOnUse" id="clipPath4">
        <path d="M-192.917 750.0664 L-192.917 -621.9336 L544.083 -621.9336 L544.083 750.0664 L-192.917 750.0664 Z"/>
      </clipPath>
    </defs>
    <g fill="white" text-rendering="geometricPrecision" shape-rendering="geometricPrecision" transform="translate(-9,-10)" stroke="white">
      <rect x="9" width="1372" height="737" y="10" clip-path="url(#clipPath2)" stroke="none"/>
    </g>
    <g fill="rgb(255,153,204)" text-rendering="geometricPrecision" shape-rendering="geometricPrecision" transform="matrix(1,0,0,1,-9,-10)" stroke="rgb(255,153,204)">
      <circle r="10" clip-path="url(#clipPath2)" cx="360" cy="570" stroke="none"/>
    </g>
    <g text-rendering="geometricPrecision" stroke-miterlimit="1.45" shape-rendering="geometricPrecision" font-family="sans-serif" transform="matrix(1,0,0,1,-9,-10)" stroke-linecap="butt">
      <text x="376" xml:space="preserve" y="593.6016" clip-path="url(#clipPath2)" stroke="none">:edition_digitization</text>
      <circle fill="none" stroke-width="3" r="10" clip-path="url(#clipPath2)" cx="360" cy="570"/>
    </g>
    <g fill="rgb(255,153,204)" text-rendering="geometricPrecision" shape-rendering="geometricPrecision" transform="matrix(1,0,0,1,-9,-10)" stroke="rgb(255,153,204)">
      <circle r="10" clip-path="url(#clipPath2)" cx="576.7422" cy="360" stroke="none"/>
    </g>
    <g text-rendering="geometricPrecision" stroke-miterlimit="1.45" shape-rendering="geometricPrecision" font-family="sans-serif" transform="matrix(1,0,0,1,-9,-10)" stroke-linecap="butt">
      <text x="592.7422" xml:space="preserve" y="345.4688" clip-path="url(#clipPath2)" stroke="none">:alcide</text>
      <circle fill="none" stroke-width="3" r="10" clip-path="url(#clipPath2)" cx="576.7422" cy="360"/>
    </g>
    <g fill="rgb(255,153,204)" text-rendering="geometricPrecision" shape-rendering="geometricPrecision" transform="matrix(1,0,0,1,-9,-10)" stroke="rgb(255,153,204)">
      <circle r="10" clip-path="url(#clipPath2)" cx="420" cy="180" stroke="none"/>
    </g>
    <g text-rendering="geometricPrecision" stroke-miterlimit="1.45" shape-rendering="geometricPrecision" font-family="sans-serif" transform="matrix(1,0,0,1,-9,-10)" stroke-linecap="butt">
      <text x="307.5137" xml:space="preserve" y="165.4688" clip-path="url(#clipPath2)" stroke="none">:corpus_creation</text>
      <circle fill="none" stroke-width="3" r="10" clip-path="url(#clipPath2)" cx="420" cy="180"/>
    </g>
    <g fill="yellow" text-rendering="geometricPrecision" shape-rendering="geometricPrecision" transform="matrix(1,0,0,1,-9,-10)" stroke="yellow">
      <rect x="24.3953" y="159.9395" clip-path="url(#clipPath2)" width="262" rx="4" ry="4" height="40.1211" stroke="none"/>
    </g>
    <g font-size="16px" stroke-linecap="butt" transform="matrix(1,0,0,1,-9,-10)" text-rendering="geometricPrecision" font-family="sans-serif" shape-rendering="geometricPrecision" stroke-miterlimit="1.45">
      <text x="30.1648" xml:space="preserve" y="186.0469" clip-path="url(#clipPath2)" stroke="none">crmdig:D10_Software_Execution</text>
      <rect x="24.3953" y="159.9395" clip-path="url(#clipPath2)" fill="none" width="262" rx="4" ry="4" height="40.1211"/>
    </g>
    <g fill="rgb(255,153,204)" text-rendering="geometricPrecision" shape-rendering="geometricPrecision" transform="matrix(1,0,0,1,-9,-10)" stroke="rgb(255,153,204)">
      <circle r="10" clip-path="url(#clipPath2)" cx="750" cy="360" stroke="none"/>
    </g>
    <g text-rendering="geometricPrecision" stroke-miterlimit="1.45" shape-rendering="geometricPrecision" font-family="sans-serif" transform="matrix(1,0,0,1,-9,-10)" stroke-linecap="butt">
      <text x="766" xml:space="preserve" y="345.4688" clip-path="url(#clipPath2)" stroke="none">:platform_creation</text>
      <circle fill="none" stroke-width="3" r="10" clip-path="url(#clipPath2)" cx="750" cy="360"/>
    </g>
    <g fill="yellow" text-rendering="geometricPrecision" shape-rendering="geometricPrecision" transform="matrix(1,0,0,1,-9,-10)" stroke="yellow">
      <rect x="1030" y="383.1816" clip-path="url(#clipPath2)" width="280" rx="4" ry="4" height="39" stroke="none"/>
    </g>
    <g font-size="16px" stroke-linecap="butt" transform="matrix(1,0,0,1,-9,-10)" text-rendering="geometricPrecision" font-family="sans-serif" shape-rendering="geometricPrecision" stroke-miterlimit="1.45">
      <text x="1038.918" xml:space="preserve" y="408.7285" clip-path="url(#clipPath2)" stroke="none">crmdig:D7_Digital_Machine_Event</text>
      <rect x="1030" y="383.1816" clip-path="url(#clipPath2)" fill="none" width="280" rx="4" ry="4" height="39"/>
    </g>
    <g fill="rgb(255,153,204)" text-rendering="geometricPrecision" shape-rendering="geometricPrecision" transform="matrix(1,0,0,1,-9,-10)" stroke="rgb(255,153,204)">
      <circle r="10" clip-path="url(#clipPath2)" cx="1170" cy="180" stroke="none"/>
    </g>
    <g text-rendering="geometricPrecision" stroke-miterlimit="1.45" shape-rendering="geometricPrecision" font-family="sans-serif" transform="matrix(1,0,0,1,-9,-10)" stroke-linecap="butt">
      <text x="1114.8125" xml:space="preserve" y="165.4688" clip-path="url(#clipPath2)" stroke="none">:trento</text>
      <circle fill="none" stroke-width="3" r="10" clip-path="url(#clipPath2)" cx="1170" cy="180"/>
    </g>
    <g fill="rgb(255,153,204)" text-rendering="geometricPrecision" shape-rendering="geometricPrecision" transform="matrix(1,0,0,1,-9,-10)" stroke="rgb(255,153,204)">
      <circle r="10" clip-path="url(#clipPath2)" cx="1260" cy="120" stroke="none"/>
    </g>
    <g text-rendering="geometricPrecision" stroke-miterlimit="1.45" shape-rendering="geometricPrecision" font-family="sans-serif" transform="matrix(1,0,0,1,-9,-10)" stroke-linecap="butt">
      <text x="1161.1992" xml:space="preserve" y="73.2031" clip-path="url(#clipPath2)" stroke="none">:maurizio_cau, :matteo_largaiolli, </text>
      <text x="1166.2002" xml:space="preserve" y="87.3359" clip-path="url(#clipPath2)" stroke="none">:sara_tonelli, :giovanni_moretti, </text>
      <text x="1156.0488" xml:space="preserve" y="101.4688" clip-path="url(#clipPath2)" stroke="none">:rachele_sprugnoli, :matteo_moretti</text>
      <circle fill="none" stroke-width="3" r="10" clip-path="url(#clipPath2)" cx="1260" cy="120"/>
    </g>
    <g fill="rgb(255,153,204)" text-rendering="geometricPrecision" shape-rendering="geometricPrecision" transform="matrix(1,0,0,1,-9,-10)" stroke="rgb(255,153,204)">
      <circle r="10" clip-path="url(#clipPath2)" cx="778.5" cy="570" stroke="none"/>
    </g>
    <g text-rendering="geometricPrecision" stroke-miterlimit="1.45" shape-rendering="geometricPrecision" font-family="sans-serif" transform="matrix(1,0,0,1,-9,-10)" stroke-linecap="butt">
      <text x="794.5" xml:space="preserve" y="574.5352" clip-path="url(#clipPath2)" stroke="none">:edition_item</text>
      <circle fill="none" stroke-width="3" r="10" clip-path="url(#clipPath2)" cx="778.5" cy="570"/>
    </g>
    <g fill="rgb(255,153,204)" text-rendering="geometricPrecision" shape-rendering="geometricPrecision" transform="matrix(1,0,0,1,-9,-10)" stroke="rgb(255,153,204)">
      <circle r="10" clip-path="url(#clipPath2)" cx="360" cy="300" stroke="none"/>
    </g>
    <g text-rendering="geometricPrecision" stroke-miterlimit="1.45" shape-rendering="geometricPrecision" font-family="sans-serif" transform="matrix(1,0,0,1,-9,-10)" stroke-linecap="butt">
      <text x="242.6738" xml:space="preserve" y="285.4688" clip-path="url(#clipPath2)" stroke="none">:edition_digitized</text>
      <circle fill="none" stroke-width="3" r="10" clip-path="url(#clipPath2)" cx="360" cy="300"/>
    </g>
    <g fill="rgb(255,153,204)" text-rendering="geometricPrecision" shape-rendering="geometricPrecision" transform="matrix(1,0,0,1,-9,-10)" stroke="rgb(255,153,204)">
      <circle r="10" clip-path="url(#clipPath2)" cx="750" cy="180" stroke="none"/>
    </g>
    <g text-rendering="geometricPrecision" stroke-miterlimit="1.45" shape-rendering="geometricPrecision" font-family="sans-serif" transform="matrix(1,0,0,1,-9,-10)" stroke-linecap="butt">
      <text x="766" xml:space="preserve" y="165.4688" clip-path="url(#clipPath2)" stroke="none">:alcide_corpus</text>
      <circle fill="none" stroke-width="3" r="10" clip-path="url(#clipPath2)" cx="750" cy="180"/>
    </g>
    <g fill="rgb(255,153,204)" text-rendering="geometricPrecision" shape-rendering="geometricPrecision" transform="matrix(1,0,0,1,-9,-10)" stroke="rgb(255,153,204)">
      <circle r="10" clip-path="url(#clipPath2)" cx="990" cy="300" stroke="none"/>
    </g>
    <g text-rendering="geometricPrecision" stroke-miterlimit="1.45" shape-rendering="geometricPrecision" font-family="sans-serif" transform="matrix(1,0,0,1,-9,-10)" stroke-linecap="butt">
      <text x="1006" xml:space="preserve" y="285.4688" clip-path="url(#clipPath2)" stroke="none">:alcide_platform</text>
      <circle fill="none" stroke-width="3" r="10" clip-path="url(#clipPath2)" cx="990" cy="300"/>
    </g>
    <g fill="yellow" text-rendering="geometricPrecision" shape-rendering="geometricPrecision" transform="matrix(1,0,0,1,-9,-10)" stroke="yellow">
      <rect x="707" y="610.1336" clip-path="url(#clipPath2)" width="143" rx="4" ry="4" height="39.7328" stroke="none"/>
    </g>
    <g font-size="16px" stroke-linecap="butt" transform="matrix(1,0,0,1,-9,-10)" text-rendering="geometricPrecision" font-family="sans-serif" shape-rendering="geometricPrecision" stroke-miterlimit="1.45">
      <text x="721.0469" xml:space="preserve" y="636.0469" clip-path="url(#clipPath2)" stroke="none">frbroo:F5_Item</text>
      <rect x="707" y="610.1336" clip-path="url(#clipPath2)" fill="none" width="143" rx="4" ry="4" height="39.7328"/>
    </g>
    <g fill="yellow" text-rendering="geometricPrecision" shape-rendering="geometricPrecision" transform="matrix(1,0,0,1,-9,-10)" stroke="yellow">
      <rect x="24.3953" y="282.849" clip-path="url(#clipPath2)" width="192" rx="4" ry="4" height="34.3021" stroke="none"/>
    </g>
    <g font-size="16px" stroke-linecap="butt" transform="matrix(1,0,0,1,-9,-10)" text-rendering="geometricPrecision" font-family="sans-serif" shape-rendering="geometricPrecision" stroke-miterlimit="1.45">
      <text x="28.5867" xml:space="preserve" y="306.0469" clip-path="url(#clipPath2)" stroke="none">crmdig:D9_Data_Object</text>
      <rect x="24.3953" y="282.849" clip-path="url(#clipPath2)" fill="none" width="192" rx="4" ry="4" height="34.3021"/>
    </g>
    <g fill="yellow" text-rendering="geometricPrecision" shape-rendering="geometricPrecision" transform="matrix(1,0,0,1,-9,-10)" stroke="yellow">
      <rect x="887.5" y="212.3274" clip-path="url(#clipPath2)" width="205" rx="4" ry="4" height="40.1211" stroke="none"/>
    </g>
    <g font-size="16px" stroke-linecap="butt" transform="matrix(1,0,0,1,-9,-10)" text-rendering="geometricPrecision" font-family="sans-serif" shape-rendering="geometricPrecision" stroke-miterlimit="1.45">
      <text x="890.6836" xml:space="preserve" y="238.4349" clip-path="url(#clipPath2)" stroke="none">crmdig:D1_Digital_Object</text>
      <rect x="887.5" y="212.3274" clip-path="url(#clipPath2)" fill="none" width="205" rx="4" ry="4" height="40.1211"/>
      <text x="361.2769" xml:space="preserve" font-size="12px" y="39.457" clip-path="url(#clipPath2)" stroke="none">"Creation of de </text>
      <text x="361.2769" xml:space="preserve" font-size="12px" y="53.5898" clip-path="url(#clipPath2)" stroke="none">Gasperi corpus"@en</text>
      <text x="292.3682" xml:space="preserve" font-size="12px" y="712.457" clip-path="url(#clipPath2)" stroke="none">"Digitization of </text>
      <text x="292.3682" xml:space="preserve" font-size="12px" y="726.5898" clip-path="url(#clipPath2)" stroke="none">de Gasperi edition"@en</text>
      <text x="868.7204" xml:space="preserve" font-size="12px" y="403.5176" clip-path="url(#clipPath2)" stroke="none">"Creation of </text>
      <text x="868.7204" xml:space="preserve" font-size="12px" y="417.6504" clip-path="url(#clipPath2)" stroke="none">ALCIDE plaform"@en</text>
    </g>
    <g fill="yellow" text-rendering="geometricPrecision" shape-rendering="geometricPrecision" transform="matrix(1,0,0,1,-9,-10)" stroke="yellow">
      <rect x="24.3953" y="481" clip-path="url(#clipPath2)" width="262" rx="4" ry="4" height="40.1211" stroke="none"/>
    </g>
    <g font-size="16px" stroke-linecap="butt" transform="matrix(1,0,0,1,-9,-10)" text-rendering="geometricPrecision" font-family="sans-serif" shape-rendering="geometricPrecision" stroke-miterlimit="1.45">
      <text x="32.2195" xml:space="preserve" y="507.1074" clip-path="url(#clipPath2)" stroke="none">crmdig:D2_Digitization_Process</text>
      <rect x="24.3953" y="481" clip-path="url(#clipPath2)" fill="none" width="262" rx="4" ry="4" height="40.1211"/>
    </g>
    <g fill="rgb(255,153,204)" text-rendering="geometricPrecision" shape-rendering="geometricPrecision" transform="matrix(1,0,0,1,-9,-10)" stroke="rgb(255,153,204)">
      <circle r="10" clip-path="url(#clipPath2)" cx="210" cy="630" stroke="none"/>
    </g>
    <g text-rendering="geometricPrecision" stroke-miterlimit="1.45" shape-rendering="geometricPrecision" font-family="sans-serif" transform="matrix(1,0,0,1,-9,-10)" stroke-linecap="butt">
      <text x="181.4297" xml:space="preserve" y="657.6016" clip-path="url(#clipPath2)" stroke="none">:il_mulino</text>
      <circle fill="none" stroke-width="3" r="10" clip-path="url(#clipPath2)" cx="210" cy="630"/>
    </g>
    <g fill="yellow" text-rendering="geometricPrecision" shape-rendering="geometricPrecision" transform="matrix(1,0,0,1,-9,-10)" stroke="yellow">
      <rect x="24.3953" y="612.849" clip-path="url(#clipPath2)" width="121.4462" rx="4" ry="4" height="34.3021" stroke="none"/>
    </g>
    <g font-size="16px" stroke-linecap="butt" transform="matrix(1,0,0,1,-9,-10)" text-rendering="geometricPrecision" font-family="sans-serif" shape-rendering="geometricPrecision" stroke-miterlimit="1.45">
      <text x="28.4973" xml:space="preserve" y="636.0469" clip-path="url(#clipPath2)" stroke="none">crm:E39_Actor</text>
      <rect x="24.3953" y="612.849" clip-path="url(#clipPath2)" fill="none" width="121.4462" rx="4" ry="4" height="34.3021"/>
    </g>
    <g fill="rgb(255,153,204)" text-rendering="geometricPrecision" shape-rendering="geometricPrecision" transform="matrix(1,0,0,1,-9,-10)" stroke="rgb(255,153,204)">
      <circle r="10" clip-path="url(#clipPath2)" cx="570" cy="630" stroke="none"/>
    </g>
    <g text-rendering="geometricPrecision" stroke-miterlimit="1.45" shape-rendering="geometricPrecision" font-family="sans-serif" transform="matrix(1,0,0,1,-9,-10)" stroke-linecap="butt">
      <text x="586" xml:space="preserve" y="634.5352" clip-path="url(#clipPath2)" stroke="none">:bologna</text>
      <circle fill="none" stroke-width="3" r="10" clip-path="url(#clipPath2)" cx="570" cy="630"/>
    </g>
    <g fill="yellow" text-rendering="geometricPrecision" shape-rendering="geometricPrecision" transform="matrix(1,0,0,1,-9,-10)" stroke="yellow">
      <rect x="509.2769" y="691.3882" clip-path="url(#clipPath2)" width="121.4462" rx="4" ry="4" height="39.7328" stroke="none"/>
    </g>
    <g font-size="16px" stroke-linecap="butt" transform="matrix(1,0,0,1,-9,-10)" text-rendering="geometricPrecision" font-family="sans-serif" shape-rendering="geometricPrecision" stroke-miterlimit="1.45">
      <text x="514.4688" xml:space="preserve" y="717.3016" clip-path="url(#clipPath2)" stroke="none">crm:E53_Place</text>
      <rect x="509.2769" y="691.3882" clip-path="url(#clipPath2)" fill="none" width="121.4462" rx="4" ry="4" height="39.7328"/>
      <text x="687.0117" xml:space="preserve" font-size="12px" y="512.4805" clip-path="url(#clipPath2)" stroke="none">Tadirah concepts URIs</text>
    </g>
    <g fill="yellow" text-rendering="geometricPrecision" shape-rendering="geometricPrecision" transform="matrix(1,0,0,1,-9,-10)" stroke="yellow">
      <rect x="501.7422" y="429.9395" clip-path="url(#clipPath2)" width="150" rx="4" ry="4" height="40.1211" stroke="none"/>
    </g>
    <g font-size="16px" stroke-linecap="butt" transform="matrix(1,0,0,1,-9,-10)" text-rendering="geometricPrecision" font-family="sans-serif" shape-rendering="geometricPrecision" stroke-miterlimit="1.45">
      <text x="528.3008" xml:space="preserve" y="456.0469" clip-path="url(#clipPath2)" stroke="none">prov:Activity</text>
      <rect x="501.7422" y="429.9395" clip-path="url(#clipPath2)" fill="none" width="150" rx="4" ry="4" height="40.1211"/>
    </g>
    <g stroke-linecap="butt" transform="matrix(1,0,0,1,-9,-10)" fill="navy" text-rendering="geometricPrecision" shape-rendering="geometricPrecision" stroke="navy" stroke-miterlimit="1.45">
      <path fill="none" d="M562.7422 360 L386.6791 360 L386.6791 533.1552 L372.6408 553.2207" clip-path="url(#clipPath2)"/>
      <path d="M570.7422 360 C570.7422 362.2091 568.9514 364 566.7422 364 C564.5331 364 562.7422 362.2091 562.7422 360 C562.7422 357.7909 564.5331 356 566.7422 356 C568.9514 356 570.7422 357.7909 570.7422 360 Z" clip-path="url(#clipPath2)" stroke="none"/>
      <path d="M366.335 562.2338 L378.1303 555.8409 L368.2978 548.9618 Z" clip-path="url(#clipPath2)" stroke="none"/>
      <rect x="431.6116" y="350.9336" clip-path="url(#clipPath2)" fill="white" width="122.043" height="18.1328" stroke="none"/>
      <text x="433.6116" xml:space="preserve" y="364.5352" clip-path="url(#clipPath2)" font-family="sans-serif" stroke="none">prov:wasInformedBy</text>
      <path fill="none" d="M576.7422 346 L576.7422 185 L439.6924 185" clip-path="url(#clipPath2)"/>
      <path d="M576.7422 354 C574.5331 354 572.7422 352.2091 572.7422 350 C572.7422 347.7909 574.5331 346 576.7422 346 C578.9514 346 580.7422 347.7909 580.7422 350 C580.7422 352.2091 578.9514 354 576.7422 354 Z" clip-path="url(#clipPath2)" stroke="none"/>
      <path d="M428.6924 185 L440.6924 191 L440.6924 179 Z" clip-path="url(#clipPath2)" stroke="none"/>
      <rect x="515.7207" y="287.8352" clip-path="url(#clipPath2)" fill="white" width="122.043" height="18.1328" stroke="none"/>
      <text x="517.7208" xml:space="preserve" y="301.4368" clip-path="url(#clipPath2)" font-family="sans-serif" stroke="none">prov:wasInformedBy</text>
      <path fill="none" d="M286.3976 180 L402 180" clip-path="url(#clipPath2)" stroke="black"/>
      <path fill="black" d="M410 180 L398 175 L401 180 L398 185 Z" clip-path="url(#clipPath2)" stroke="none"/>
      <path fill="none" d="M590.7422 360 L729 360" clip-path="url(#clipPath2)"/>
      <path d="M582.7422 360 C582.7422 357.7909 584.5331 356 586.7422 356 C588.9514 356 590.7422 357.7909 590.7422 360 C590.7422 362.2091 588.9514 364 586.7422 364 C584.5331 364 582.7422 362.2091 582.7422 360 Z" clip-path="url(#clipPath2)" stroke="none"/>
      <path d="M740 360 L728 354 L728 366 Z" clip-path="url(#clipPath2)" stroke="none"/>
      <rect x="594.7097" y="350.9336" clip-path="url(#clipPath2)" fill="white" width="122.043" height="18.1328" stroke="none"/>
      <text x="596.7097" xml:space="preserve" y="364.5352" clip-path="url(#clipPath2)" font-family="sans-serif" stroke="none">prov:wasInformedBy</text>
      <path fill="none" d="M1170 383.1782 L1170 367.4246 L764.6919 367.4246" clip-path="url(#clipPath2)" stroke="black"/>
      <path fill="black" d="M756.6919 367.4246 L768.6919 372.4246 L765.6919 367.4246 L768.6919 362.4246 Z" clip-path="url(#clipPath2)" stroke="none"/>
      <path fill="none" d="M764 360 L1170 360 L1170 201" clip-path="url(#clipPath2)"/>
      <path d="M756 360 C756 357.7909 757.7908 356 760 356 C762.2092 356 764 357.7909 764 360 C764 362.2091 762.2092 364 760 364 C757.7908 364 756 362.2091 756 360 Z" clip-path="url(#clipPath2)" stroke="none"/>
      <path d="M1170 190 L1164 202 L1176 202 Z" clip-path="url(#clipPath2)" stroke="none"/>
      <rect x="1104.9414" y="235.5015" clip-path="url(#clipPath2)" fill="white" width="130.1172" height="18.1328" stroke="none"/>
      <text x="1106.9414" xml:space="preserve" y="249.103" clip-path="url(#clipPath2)" font-family="sans-serif" stroke="none">crm:P7_took_place_at</text>
      <path fill="none" d="M430 176 L430 146.4655 L1170 146.4655 L1170 159" clip-path="url(#clipPath2)"/>
      <path d="M430 184 C427.7909 184 426 182.2091 426 180 C426 177.7909 427.7909 176 430 176 C432.2091 176 434 177.7909 434 180 C434 182.2091 432.2091 184 430 184 Z" clip-path="url(#clipPath2)" stroke="none"/>
      <path d="M1170 170 L1176 158 L1164 158 Z" clip-path="url(#clipPath2)" stroke="none"/>
      <rect x="894.9025" y="137.3991" clip-path="url(#clipPath2)" fill="white" width="130.1172" height="18.1328" stroke="none"/>
      <text x="896.9025" xml:space="preserve" y="151.0006" clip-path="url(#clipPath2)" font-family="sans-serif" stroke="none">crm:P7_took_place_at</text>
      <path fill="none" d="M764 360 L1260 360 L1260 141" clip-path="url(#clipPath2)"/>
      <path d="M756 360 C756 357.7909 757.7908 356 760 356 C762.2092 356 764 357.7909 764 360 C764 362.2091 762.2092 364 760 364 C757.7908 364 756 362.2091 756 360 Z" clip-path="url(#clipPath2)" stroke="none"/>
      <path d="M1260 130 L1254 142 L1266 142 Z" clip-path="url(#clipPath2)" stroke="none"/>
      <rect x="1188.3525" y="192.421" clip-path="url(#clipPath2)" fill="white" width="143.2949" height="18.1328" stroke="none"/>
      <text x="1190.3525" xml:space="preserve" y="206.0225" clip-path="url(#clipPath2)" font-family="sans-serif" stroke="none">crm:P14_carried_out_by</text>
      <path fill="none" d="M430 176 L430 120 L1239 120" clip-path="url(#clipPath2)"/>
      <path d="M430 184 C427.7909 184 426 182.2091 426 180 C426 177.7909 427.7909 176 430 176 C432.2091 176 434 177.7909 434 180 C434 182.2091 432.2091 184 430 184 Z" clip-path="url(#clipPath2)" stroke="none"/>
      <path d="M1250 120 L1238 114 L1238 126 Z" clip-path="url(#clipPath2)" stroke="none"/>
      <rect x="763.79" y="110.9336" clip-path="url(#clipPath2)" fill="white" width="143.2949" height="18.1328" stroke="none"/>
      <text x="765.79" xml:space="preserve" y="124.5352" clip-path="url(#clipPath2)" font-family="sans-serif" stroke="none">crm:P14_carried_out_by</text>
      <path fill="none" d="M374 570 L757.5 570" clip-path="url(#clipPath2)"/>
      <path d="M366 570 C366 567.7908 367.7909 566 370 566 C372.2091 566 374 567.7908 374 570 C374 572.2092 372.2091 574 370 574 C367.7909 574 366 572.2092 366 570 Z" clip-path="url(#clipPath2)" stroke="none"/>
      <path d="M768.5 570 L756.5 564 L756.5 576 Z" clip-path="url(#clipPath2)" stroke="none"/>
      <rect x="509.4531" y="560.9336" clip-path="url(#clipPath2)" fill="white" width="119.5938" height="18.1328" stroke="none"/>
      <text x="511.4531" xml:space="preserve" y="574.5352" clip-path="url(#clipPath2)" font-family="sans-serif" stroke="none">crmdig:L1_digitized</text>
      <path fill="none" d="M360 556 L360 321" clip-path="url(#clipPath2)"/>
      <path d="M360 564 C357.7909 564 356 562.2092 356 560 C356 557.7908 357.7909 556 360 556 C362.2091 556 364 557.7908 364 560 C364 562.2092 362.2091 564 360 564 Z" clip-path="url(#clipPath2)" stroke="none"/>
      <path d="M360 310 L354 322 L366 322 Z" clip-path="url(#clipPath2)" stroke="none"/>
    </g>
    <g stroke-linecap="butt" transform="matrix(-0,1,-1,-0,360.0664,348.7091)" fill="white" text-rendering="geometricPrecision" shape-rendering="geometricPrecision" stroke="white" stroke-miterlimit="1.45">
      <rect x="0" width="145.4219" height="18.1328" y="0" clip-path="url(#clipPath3)" stroke="none"/>
      <text x="2" y="13.6016" clip-path="url(#clipPath3)" fill="navy" font-family="sans-serif" stroke="none" xml:space="preserve">crmdig:L20_has_created</text>
    </g>
    <g stroke-linecap="butt" transform="matrix(1,0,0,1,-9,-10)" fill="navy" text-rendering="geometricPrecision" shape-rendering="geometricPrecision" stroke="navy" stroke-miterlimit="1.45">
      <path fill="none" d="M410.9731 188.6562 L360 188.6562 L360 240 L360 279" clip-path="url(#clipPath2)"/>
      <path d="M418.9731 188.6562 C418.9731 190.8654 417.1823 192.6562 414.9731 192.6562 C412.764 192.6562 410.9731 190.8654 410.9731 188.6562 C410.9731 186.4471 412.764 184.6562 414.9731 184.6562 C417.1823 184.6562 418.9731 186.4471 418.9731 188.6562 Z" clip-path="url(#clipPath2)" stroke="none"/>
      <path d="M360 290 L366 278 L354 278 Z" clip-path="url(#clipPath2)" stroke="none"/>
      <rect x="259.2026" y="215.9033" clip-path="url(#clipPath2)" fill="white" width="159.7715" height="18.1328" stroke="none"/>
      <text x="261.2026" xml:space="preserve" y="229.5049" clip-path="url(#clipPath2)" font-family="sans-serif" stroke="none">crmdig:L2_used_as_source</text>
      <path fill="none" d="M434 180 L729 180" clip-path="url(#clipPath2)"/>
      <path d="M426 180 C426 177.7909 427.7909 176 430 176 C432.2091 176 434 177.7909 434 180 C434 182.2091 432.2091 184 430 184 C427.7909 184 426 182.2091 426 180 Z" clip-path="url(#clipPath2)" stroke="none"/>
      <path d="M740 180 L728 174 L728 186 Z" clip-path="url(#clipPath2)" stroke="none"/>
      <rect x="579.719" y="170.9336" clip-path="url(#clipPath2)" fill="white" width="142.5566" height="18.1328" stroke="none"/>
      <text x="581.7189" xml:space="preserve" y="184.5352" clip-path="url(#clipPath2)" font-family="sans-serif" stroke="none">crmdig:L11_had_output</text>
      <path fill="none" d="M750 346 L750 201" clip-path="url(#clipPath2)"/>
      <path d="M750 354 C747.7908 354 746 352.2091 746 350 C746 347.7909 747.7908 346 750 346 C752.2092 346 754 347.7909 754 350 C754 352.2091 752.2092 354 750 354 Z" clip-path="url(#clipPath2)" stroke="none"/>
      <path d="M750 190 L744 202 L756 202 Z" clip-path="url(#clipPath2)" stroke="none"/>
    </g>
    <g stroke-linecap="butt" transform="matrix(0,1,-1,0,750.0664,192.917)" fill="white" text-rendering="geometricPrecision" shape-rendering="geometricPrecision" stroke="white" stroke-miterlimit="1.45">
      <rect x="0" width="134.166" height="18.1328" y="0" clip-path="url(#clipPath4)" stroke="none"/>
      <text x="2" y="13.6016" clip-path="url(#clipPath4)" fill="navy" font-family="sans-serif" stroke="none" xml:space="preserve">crmdig:L10_had_input</text>
    </g>
    <g stroke-linecap="butt" transform="matrix(1,0,0,1,-9,-10)" fill="navy" text-rendering="geometricPrecision" shape-rendering="geometricPrecision" stroke="navy" stroke-miterlimit="1.45">
      <path fill="none" d="M762.6845 355 L990 355 L990 321" clip-path="url(#clipPath2)"/>
      <path d="M754.6845 355 C754.6845 352.7909 756.4753 351 758.6845 351 C760.8937 351 762.6845 352.7909 762.6845 355 C762.6845 357.2091 760.8937 359 758.6845 359 C756.4753 359 754.6845 357.2091 754.6845 355 Z" clip-path="url(#clipPath2)" stroke="none"/>
      <path d="M990 310 L984 322 L996 322 Z" clip-path="url(#clipPath2)" stroke="none"/>
      <rect x="918.7217" y="330.4668" clip-path="url(#clipPath2)" fill="white" width="142.5566" height="18.1328" stroke="none"/>
      <text x="920.7217" xml:space="preserve" y="344.0684" clip-path="url(#clipPath2)" font-family="sans-serif" stroke="none">crmdig:L11_had_output</text>
      <path fill="none" d="M778.5 610.1041 L778.5 588" clip-path="url(#clipPath2)" stroke="black"/>
      <path fill="black" d="M778.5 580 L773.5 592 L778.5 589 L783.5 592 Z" clip-path="url(#clipPath2)" stroke="none"/>
      <path fill="none" d="M216.3953 300 L342 300" clip-path="url(#clipPath2)" stroke="black"/>
      <path fill="black" d="M350 300 L338 295 L341 300 L338 305 Z" clip-path="url(#clipPath2)" stroke="none"/>
      <path fill="none" d="M990 212.3062 L990 180 L768 180" clip-path="url(#clipPath2)" stroke="black"/>
      <path fill="black" d="M760 180 L772 185 L769 180 L772 175 Z" clip-path="url(#clipPath2)" stroke="none"/>
      <path fill="none" d="M990 252.4485 L990 282" clip-path="url(#clipPath2)" stroke="black"/>
      <path fill="black" d="M990 290 L995 278 L990 281 L985 278 Z" clip-path="url(#clipPath2)" stroke="none"/>
      <path fill="none" d="M420 166 L420 73.1211" clip-path="url(#clipPath2)" stroke="green"/>
    </g>
    <g stroke-linecap="butt" transform="matrix(1,0,0,1,-9,-10)" fill-opacity="0" fill="rgb(0,0,0)" text-rendering="geometricPrecision" shape-rendering="geometricPrecision" stroke="rgb(0,0,0)" stroke-opacity="0" stroke-miterlimit="1.45">
      <path d="M420 174 C417.7909 174 416 172.2091 416 170 C416 167.7909 417.7909 166 420 166 C422.2091 166 424 167.7909 424 170 C424 172.2091 422.2091 174 420 174 Z" stroke="none" clip-path="url(#clipPath2)"/>
    </g>
    <g stroke-linecap="butt" transform="matrix(1,0,0,1,-9,-10)" fill="green" text-rendering="geometricPrecision" shape-rendering="geometricPrecision" stroke="green" stroke-miterlimit="1.45">
      <path fill="none" d="M420 174 C417.7909 174 416 172.2091 416 170 C416 167.7909 417.7909 166 420 166 C422.2091 166 424 167.7909 424 170 C424 172.2091 422.2091 174 420 174 Z" clip-path="url(#clipPath2)"/>
      <path fill="white" d="M420 58.1211 L414 74.1211 L426 74.1211 Z" clip-path="url(#clipPath2)" stroke="none"/>
      <path fill="none" d="M420 58.1211 L414 74.1211 L426 74.1211 Z" clip-path="url(#clipPath2)"/>
      <rect x="390.7041" y="87.9941" clip-path="url(#clipPath2)" fill="white" width="58.5918" height="18.1328" stroke="none"/>
      <text x="392.7041" xml:space="preserve" y="101.5957" clip-path="url(#clipPath2)" font-family="sans-serif" stroke="none">rdfs:label</text>
      <path fill="none" d="M360 584 L360 676.0454" clip-path="url(#clipPath2)"/>
    </g>
    <g stroke-linecap="butt" transform="matrix(1,0,0,1,-9,-10)" fill-opacity="0" fill="rgb(0,0,0)" text-rendering="geometricPrecision" shape-rendering="geometricPrecision" stroke="rgb(0,0,0)" stroke-opacity="0" stroke-miterlimit="1.45">
      <path d="M360 576 C362.2091 576 364 577.7908 364 580 C364 582.2092 362.2091 584 360 584 C357.7909 584 356 582.2092 356 580 C356 577.7908 357.7909 576 360 576 Z" stroke="none" clip-path="url(#clipPath2)"/>
    </g>
    <g stroke-linecap="butt" transform="matrix(1,0,0,1,-9,-10)" fill="green" text-rendering="geometricPrecision" shape-rendering="geometricPrecision" stroke="green" stroke-miterlimit="1.45">
      <path fill="none" d="M360 576 C362.2091 576 364 577.7908 364 580 C364 582.2092 362.2091 584 360 584 C357.7909 584 356 582.2092 356 580 C356 577.7908 357.7909 576 360 576 Z" clip-path="url(#clipPath2)"/>
      <path fill="white" d="M360 691.0454 L366 675.0454 L354 675.0454 Z" clip-path="url(#clipPath2)" stroke="none"/>
      <path fill="none" d="M360 691.0454 L366 675.0454 L354 675.0454 Z" clip-path="url(#clipPath2)"/>
      <rect x="330.7041" y="649.4895" clip-path="url(#clipPath2)" fill="white" width="58.5918" height="18.1328" stroke="none"/>
      <text x="332.7041" xml:space="preserve" y="663.0911" clip-path="url(#clipPath2)" font-family="sans-serif" stroke="none">rdfs:label</text>
      <path fill="none" d="M755 372.6957 L755 411.0605 L845.7305 411.0605" clip-path="url(#clipPath2)"/>
    </g>
    <g stroke-linecap="butt" transform="matrix(1,0,0,1,-9,-10)" fill-opacity="0" fill="rgb(0,0,0)" text-rendering="geometricPrecision" shape-rendering="geometricPrecision" stroke="rgb(0,0,0)" stroke-opacity="0" stroke-miterlimit="1.45">
      <path d="M755 364.6957 C757.2092 364.6957 759 366.4866 759 368.6957 C759 370.9048 757.2092 372.6957 755 372.6957 C752.7908 372.6957 751 370.9048 751 368.6957 C751 366.4866 752.7908 364.6957 755 364.6957 Z" stroke="none" clip-path="url(#clipPath2)"/>
    </g>
    <g stroke-linecap="butt" transform="matrix(1,0,0,1,-9,-10)" fill="green" text-rendering="geometricPrecision" shape-rendering="geometricPrecision" stroke="green" stroke-miterlimit="1.45">
      <path fill="none" d="M755 364.6957 C757.2092 364.6957 759 366.4866 759 368.6957 C759 370.9048 757.2092 372.6957 755 372.6957 C752.7908 372.6957 751 370.9048 751 368.6957 C751 366.4866 752.7908 364.6957 755 364.6957 Z" clip-path="url(#clipPath2)"/>
      <path fill="white" d="M860.7305 411.0605 L844.7305 405.0605 L844.7305 417.0605 Z" clip-path="url(#clipPath2)" stroke="none"/>
      <path fill="none" d="M860.7305 411.0605 L844.7305 405.0605 L844.7305 417.0605 Z" clip-path="url(#clipPath2)"/>
      <rect x="766.9632" y="401.9941" clip-path="url(#clipPath2)" fill="white" width="58.5918" height="18.1328" stroke="none"/>
      <text x="768.9632" xml:space="preserve" y="415.5957" clip-path="url(#clipPath2)" font-family="sans-serif" stroke="none">rdfs:label</text>
      <path fill="none" d="M286.3976 501.0605 L346.8627 557.695" clip-path="url(#clipPath2)" stroke="black"/>
      <path fill="black" d="M352.7015 563.1639 L347.3614 551.3113 L346.1329 557.0114 L340.5253 558.6098 Z" clip-path="url(#clipPath2)" stroke="none"/>
      <path fill="none" d="M346 570 L210 570 L210 609" clip-path="url(#clipPath2)" stroke="navy"/>
      <path fill="navy" d="M354 570 C354 572.2092 352.2091 574 350 574 C347.7909 574 346 572.2092 346 570 C346 567.7908 347.7909 566 350 566 C352.2091 566 354 567.7908 354 570 Z" clip-path="url(#clipPath2)" stroke="none"/>
      <path fill="navy" d="M210 620 L216 608 L204 608 Z" clip-path="url(#clipPath2)" stroke="none"/>
      <rect x="138.3525" y="578.9004" clip-path="url(#clipPath2)" fill="white" width="143.2949" height="18.1328" stroke="none"/>
      <text x="140.3525" y="592.502" clip-path="url(#clipPath2)" fill="navy" font-family="sans-serif" stroke="none" xml:space="preserve">crm:P14_carried_out_by</text>
      <path fill="none" d="M145.8415 630 L192 630" clip-path="url(#clipPath2)" stroke="black"/>
      <path fill="black" d="M200 630 L188 625 L191 630 L188 635 Z" clip-path="url(#clipPath2)" stroke="none"/>
      <path fill="none" d="M365 582.6813 L365 630 L549 630" clip-path="url(#clipPath2)" stroke="navy"/>
      <path fill="navy" d="M365 574.6813 C367.2091 574.6813 369 576.4722 369 578.6813 C369 580.8905 367.2091 582.6813 365 582.6813 C362.7909 582.6813 361 580.8905 361 578.6813 C361 576.4722 362.7909 574.6813 365 574.6813 Z" clip-path="url(#clipPath2)" stroke="none"/>
      <path fill="navy" d="M560 630 L548 624 L548 636 Z" clip-path="url(#clipPath2)" stroke="none"/>
      <rect x="393.2566" y="620.9336" clip-path="url(#clipPath2)" fill="white" width="130.1172" height="18.1328" stroke="none"/>
      <text x="395.2566" y="634.5352" clip-path="url(#clipPath2)" fill="navy" font-family="sans-serif" stroke="none" xml:space="preserve">crm:P7_took_place_at</text>
      <path fill="none" d="M570 691.3632 L570 648" clip-path="url(#clipPath2)" stroke="black"/>
      <path fill="black" d="M570 640 L565 652 L570 649 L575 652 Z" clip-path="url(#clipPath2)" stroke="none"/>
      <path fill="none" d="M374 570 L420 570 L420 510 L670.7103 510" clip-path="url(#clipPath2)" stroke="navy"/>
      <path fill="navy" d="M366 570 C366 567.7908 367.7909 566 370 566 C372.2091 566 374 567.7908 374 570 C374 572.2092 372.2091 574 370 574 C367.7909 574 366 572.2092 366 570 Z" clip-path="url(#clipPath2)" stroke="none"/>
      <path fill="navy" d="M681.7103 510 L669.7103 504 L669.7103 516 Z" clip-path="url(#clipPath2)" stroke="none"/>
      <path fill="none" d="M420 194 L420 510 L670.7103 510" clip-path="url(#clipPath2)" stroke="navy"/>
      <path fill="navy" d="M420 186 C422.2091 186 424 187.7909 424 190 C424 192.2091 422.2091 194 420 194 C417.7909 194 416 192.2091 416 190 C416 187.7909 417.7909 186 420 186 Z" clip-path="url(#clipPath2)" stroke="none"/>
      <path fill="navy" d="M681.7103 510 L669.7103 504 L669.7103 516 Z" clip-path="url(#clipPath2)" stroke="none"/>
      <rect x="516.2725" y="500.9336" clip-path="url(#clipPath2)" fill="white" width="101.4648" height="18.1328" stroke="none"/>
      <text x="518.2725" y="514.5352" clip-path="url(#clipPath2)" fill="navy" font-family="sans-serif" stroke="none" xml:space="preserve">crm:P2_has_type</text>
      <path fill="none" d="M750 374 L750 487.8474" clip-path="url(#clipPath2)" stroke="navy"/>
      <path fill="navy" d="M750 366 C752.2092 366 754 367.7909 754 370 C754 372.2091 752.2092 374 750 374 C747.7908 374 746 372.2091 746 370 C746 367.7909 747.7908 366 750 366 Z" clip-path="url(#clipPath2)" stroke="none"/>
      <path fill="navy" d="M750 498.8474 L756 486.8474 L744 486.8474 Z" clip-path="url(#clipPath2)" stroke="none"/>
      <rect x="699.2676" y="452.373" clip-path="url(#clipPath2)" fill="white" width="101.4648" height="18.1328" stroke="none"/>
      <text x="701.2676" y="465.9746" clip-path="url(#clipPath2)" fill="navy" font-family="sans-serif" stroke="none" xml:space="preserve">crm:P2_has_type</text>
      <path fill="none" d="M576.7422 429.9102 L576.7422 378" clip-path="url(#clipPath2)" stroke="black"/>
      <path fill="black" d="M576.7422 370 L571.7422 382 L576.7422 379 L581.7422 382 Z" clip-path="url(#clipPath2)" stroke="none"/>
    </g>
  </g>
</svg>
