<?xml version="1.0" encoding="UTF-8"?><svg xmlns="http://www.w3.org/2000/svg" xmlns:xlink="http://www.w3.org/1999/xlink" fill-opacity="1" color-rendering="auto" color-interpolation="auto" text-rendering="auto" stroke="black" stroke-linecap="square" width="1379" stroke-miterlimit="10" shape-rendering="auto" stroke-opacity="1" fill="black" stroke-dasharray="none" font-weight="normal" stroke-width="1" height="897" font-family="'Dialog'" font-style="normal" stroke-linejoin="miter" font-size="12px" stroke-dashoffset="0" image-rendering="auto">
  <!--Generated by ySVG 2.6-->
  <defs id="genericDefs"/>
  <g>
    <defs id="defs1">
      <clipPath clipPathUnits="userSpaceOnUse" id="clipPath1">
        <path d="M0 0 L1379 0 L1379 897 L0 897 L0 0 Z"/>
      </clipPath>
      <clipPath clipPathUnits="userSpaceOnUse" id="clipPath2">
        <path d="M567 459 L1946 459 L1946 1356 L567 1356 L567 459 Z"/>
      </clipPath>
      <clipPath clipPathUnits="userSpaceOnUse" id="clipPath3">
        <path d="M-399.2069 414.6165 L-399.2069 -964.3835 L497.7931 -964.3835 L497.7931 414.6165 L-399.2069 414.6165 Z"/>
      </clipPath>
      <clipPath clipPathUnits="userSpaceOnUse" id="clipPath4">
        <path d="M-42.2766 755.0664 L-42.2766 -623.9336 L854.7234 -623.9336 L854.7234 755.0664 L-42.2766 755.0664 Z"/>
      </clipPath>
      <clipPath clipPathUnits="userSpaceOnUse" id="clipPath5">
        <path d="M-537.3942 728.0818 L-537.3942 -650.9182 L359.6059 -650.9182 L359.6059 728.0818 L-537.3942 728.0818 Z"/>
      </clipPath>
      <clipPath clipPathUnits="userSpaceOnUse" id="clipPath6">
        <path d="M563 455 L1942 455 L1942 1352 L563 1352 L563 455 Z"/>
      </clipPath>
    </defs>
    <g fill="white" text-rendering="geometricPrecision" shape-rendering="geometricPrecision" transform="translate(-567,-459)" stroke="white">
      <rect x="567" width="1379" height="897" y="459" clip-path="url(#clipPath2)" stroke="none"/>
    </g>
    <g fill="yellow" text-rendering="geometricPrecision" shape-rendering="geometricPrecision" transform="matrix(1,0,0,1,-567,-459)" stroke="yellow">
      <rect x="1017.7041" y="756.8083" clip-path="url(#clipPath2)" width="280" rx="4" ry="4" height="58" stroke="none"/>
    </g>
    <g font-size="16px" stroke-linecap="butt" transform="matrix(1,0,0,1,-567,-459)" text-rendering="geometricPrecision" font-family="sans-serif" shape-rendering="geometricPrecision" stroke-miterlimit="1.45">
      <text x="1026.6221" xml:space="preserve" y="791.8552" clip-path="url(#clipPath2)" stroke="none">crmdig:D7_Digital_Machine_Event</text>
      <rect x="1017.7041" y="756.8083" clip-path="url(#clipPath2)" fill="none" width="280" rx="4" ry="4" height="58"/>
    </g>
    <g fill="yellow" text-rendering="geometricPrecision" shape-rendering="geometricPrecision" transform="matrix(1,0,0,1,-567,-459)" stroke="yellow">
      <rect x="722.1949" y="1019.4154" clip-path="url(#clipPath2)" width="200" rx="4" ry="4" height="58" stroke="none"/>
    </g>
    <g font-size="16px" stroke-linecap="butt" transform="matrix(1,0,0,1,-567,-459)" text-rendering="geometricPrecision" font-family="sans-serif" shape-rendering="geometricPrecision" stroke-miterlimit="1.45">
      <text x="765.5738" xml:space="preserve" y="1054.4623" clip-path="url(#clipPath2)" stroke="none">crm:E39_Actor</text>
      <rect x="722.1949" y="1019.4154" clip-path="url(#clipPath2)" fill="none" width="200" rx="4" ry="4" height="58"/>
    </g>
    <g fill="yellow" text-rendering="geometricPrecision" shape-rendering="geometricPrecision" transform="matrix(1,0,0,1,-567,-459)" stroke="yellow">
      <rect x="1057.7041" y="1147.0931" clip-path="url(#clipPath2)" width="200" rx="4" ry="4" height="58" stroke="none"/>
    </g>
    <g font-size="16px" stroke-linecap="butt" transform="matrix(1,0,0,1,-567,-459)" text-rendering="geometricPrecision" font-family="sans-serif" shape-rendering="geometricPrecision" stroke-miterlimit="1.45">
      <text x="1100.251" xml:space="preserve" y="1182.14" clip-path="url(#clipPath2)" stroke="none">frbroo:F5_Item</text>
      <rect x="1057.7041" y="1147.0931" clip-path="url(#clipPath2)" fill="none" width="200" rx="4" ry="4" height="58"/>
    </g>
    <g fill="yellow" text-rendering="geometricPrecision" shape-rendering="geometricPrecision" transform="matrix(1,0,0,1,-567,-459)" stroke="yellow">
      <rect x="1057.7041" y="1282.0224" clip-path="url(#clipPath2)" width="200" rx="4" ry="4" height="58" stroke="none"/>
    </g>
    <g font-size="16px" stroke-linecap="butt" transform="matrix(1,0,0,1,-567,-459)" text-rendering="geometricPrecision" font-family="sans-serif" shape-rendering="geometricPrecision" stroke-miterlimit="1.45">
      <text x="1064.8174" xml:space="preserve" y="1317.0692" clip-path="url(#clipPath2)" stroke="none">frbroo:F3_Manifestation</text>
      <rect x="1057.7041" y="1282.0224" clip-path="url(#clipPath2)" fill="none" width="200" rx="4" ry="4" height="58"/>
    </g>
    <g fill="yellow" text-rendering="geometricPrecision" shape-rendering="geometricPrecision" transform="matrix(1,0,0,1,-567,-459)" stroke="yellow">
      <rect x="722.1949" y="1282.0224" clip-path="url(#clipPath2)" width="200" rx="4" ry="4" height="58" stroke="none"/>
    </g>
    <g font-size="16px" stroke-linecap="butt" transform="matrix(1,0,0,1,-567,-459)" text-rendering="geometricPrecision" font-family="sans-serif" shape-rendering="geometricPrecision" stroke-miterlimit="1.45">
      <text x="767.1207" xml:space="preserve" y="1317.0692" clip-path="url(#clipPath2)" stroke="none">crm:E1_Entity </text>
      <rect x="722.1949" y="1282.0224" clip-path="url(#clipPath2)" fill="none" width="200" rx="4" ry="4" height="58"/>
    </g>
    <g fill="yellow" text-rendering="geometricPrecision" shape-rendering="geometricPrecision" transform="matrix(1,0,0,1,-567,-459)" stroke="yellow">
      <rect x="775.8016" y="636.382" clip-path="url(#clipPath2)" width="205" rx="4" ry="4" height="58" stroke="none"/>
    </g>
    <g font-size="16px" stroke-linecap="butt" transform="matrix(1,0,0,1,-567,-459)" text-rendering="geometricPrecision" font-family="sans-serif" shape-rendering="geometricPrecision" stroke-miterlimit="1.45">
      <text x="778.9852" xml:space="preserve" y="671.4289" clip-path="url(#clipPath2)" stroke="none">crmdig:D1_Digital_Object</text>
      <rect x="775.8016" y="636.382" clip-path="url(#clipPath2)" fill="none" width="205" rx="4" ry="4" height="58"/>
    </g>
    <g fill="yellow" text-rendering="geometricPrecision" shape-rendering="geometricPrecision" transform="matrix(1,0,0,1,-567,-459)" stroke="yellow">
      <rect x="643.3897" y="756.8083" clip-path="url(#clipPath2)" width="200" rx="4" ry="4" height="58" stroke="none"/>
    </g>
    <g font-size="16px" stroke-linecap="butt" transform="matrix(1,0,0,1,-567,-459)" text-rendering="geometricPrecision" font-family="sans-serif" shape-rendering="geometricPrecision" stroke-miterlimit="1.45">
      <text x="651.5811" xml:space="preserve" y="791.8552" clip-path="url(#clipPath2)" stroke="none">crmdig:D9_Data_Object</text>
      <rect x="643.3897" y="756.8083" clip-path="url(#clipPath2)" fill="none" width="200" rx="4" ry="4" height="58"/>
    </g>
    <g fill="yellow" text-rendering="geometricPrecision" shape-rendering="geometricPrecision" transform="matrix(1,0,0,1,-567,-459)" stroke="yellow">
      <rect x="1057.7041" y="477.7443" clip-path="url(#clipPath2)" width="200" rx="4" ry="4" height="58" stroke="none"/>
    </g>
    <g font-size="16px" stroke-linecap="butt" transform="matrix(1,0,0,1,-567,-459)" text-rendering="geometricPrecision" font-family="sans-serif" shape-rendering="geometricPrecision" stroke-miterlimit="1.45">
      <text x="1074.4189" xml:space="preserve" y="512.7912" clip-path="url(#clipPath2)" stroke="none">crmdig:D14_Software</text>
      <rect x="1057.7041" y="477.7443" clip-path="url(#clipPath2)" fill="none" width="200" rx="4" ry="4" height="58"/>
    </g>
    <g fill="yellow" text-rendering="geometricPrecision" shape-rendering="geometricPrecision" transform="matrix(1,0,0,1,-567,-459)" stroke="yellow">
      <rect x="722.1949" y="925.2746" clip-path="url(#clipPath2)" width="200" rx="4" ry="4" height="58" stroke="none"/>
    </g>
    <g font-size="16px" stroke-linecap="butt" transform="matrix(1,0,0,1,-567,-459)" text-rendering="geometricPrecision" font-family="sans-serif" shape-rendering="geometricPrecision" stroke-miterlimit="1.45">
      <text x="766.6636" xml:space="preserve" y="960.3215" clip-path="url(#clipPath2)" stroke="none">crm:E53_Place</text>
      <rect x="722.1949" y="925.2746" clip-path="url(#clipPath2)" fill="none" width="200" rx="4" ry="4" height="58"/>
    </g>
    <g fill="yellow" text-rendering="geometricPrecision" shape-rendering="geometricPrecision" transform="matrix(1,0,0,1,-567,-459)" stroke="yellow">
      <rect x="1017.7041" y="877.2347" clip-path="url(#clipPath2)" width="280" rx="4" ry="4" height="58" stroke="none"/>
    </g>
    <g font-size="16px" stroke-linecap="butt" transform="matrix(1,0,0,1,-567,-459)" text-rendering="geometricPrecision" font-family="sans-serif" shape-rendering="geometricPrecision" stroke-miterlimit="1.45">
      <text x="1034.5283" xml:space="preserve" y="912.2816" clip-path="url(#clipPath2)" stroke="none">crmdig:D2_Digitization_Process</text>
      <rect x="1017.7041" y="877.2347" clip-path="url(#clipPath2)" fill="none" width="280" rx="4" ry="4" height="58"/>
    </g>
    <g fill="yellow" text-rendering="geometricPrecision" shape-rendering="geometricPrecision" transform="matrix(1,0,0,1,-567,-459)" stroke="yellow">
      <rect x="1057.7041" y="1012.1639" clip-path="url(#clipPath2)" width="200" rx="4" ry="4" height="58" stroke="none"/>
    </g>
    <g font-size="16px" stroke-linecap="butt" transform="matrix(1,0,0,1,-567,-459)" text-rendering="geometricPrecision" font-family="sans-serif" shape-rendering="geometricPrecision" stroke-miterlimit="1.45">
      <text x="1064.8057" xml:space="preserve" y="1047.2108" clip-path="url(#clipPath2)" stroke="none">crm:E18_Physical_Thing</text>
      <rect x="1057.7041" y="1012.1639" clip-path="url(#clipPath2)" fill="none" width="200" rx="4" ry="4" height="58"/>
    </g>
    <g fill="rgb(255,153,204)" text-rendering="geometricPrecision" shape-rendering="geometricPrecision" transform="matrix(1,0,0,1,-567,-459)" stroke="rgb(255,153,204)">
      <circle r="10" clip-path="url(#clipPath2)" cx="743.3897" cy="506.7443" stroke="none"/>
    </g>
    <g text-rendering="geometricPrecision" stroke-miterlimit="1.45" shape-rendering="geometricPrecision" font-family="sans-serif" transform="matrix(1,0,0,1,-567,-459)" stroke-linecap="butt">
      <text x="695.0147" xml:space="preserve" y="488.2131" clip-path="url(#clipPath2)" stroke="none">Research Output</text>
      <circle fill="none" stroke-width="3" r="10" clip-path="url(#clipPath2)" cx="743.3897" cy="506.7443"/>
    </g>
    <g fill="rgb(255,153,204)" text-rendering="geometricPrecision" shape-rendering="geometricPrecision" transform="matrix(1,0,0,1,-567,-459)" stroke="rgb(255,153,204)">
      <circle r="10" clip-path="url(#clipPath2)" cx="639.3897" cy="1048.4154" stroke="none"/>
    </g>
    <g text-rendering="geometricPrecision" stroke-miterlimit="1.45" shape-rendering="geometricPrecision" font-family="sans-serif" transform="matrix(1,0,0,1,-567,-459)" stroke-linecap="butt">
      <text x="600.6329" xml:space="preserve" y="1015.7513" clip-path="url(#clipPath2)" stroke="none">Researchers, </text>
      <text x="584.6485" xml:space="preserve" y="1029.8842" clip-path="url(#clipPath2)" stroke="none">Departments, Labs</text>
      <circle fill="none" stroke-width="3" r="10" clip-path="url(#clipPath2)" cx="639.3897" cy="1048.4154"/>
    </g>
    <g fill="rgb(255,153,204)" text-rendering="geometricPrecision" shape-rendering="geometricPrecision" transform="matrix(1,0,0,1,-567,-459)" stroke="rgb(255,153,204)">
      <circle r="10" clip-path="url(#clipPath2)" cx="1414.3897" cy="785.8083" stroke="none"/>
    </g>
    <g text-rendering="geometricPrecision" stroke-miterlimit="1.45" shape-rendering="geometricPrecision" font-family="sans-serif" transform="matrix(1,0,0,1,-567,-459)" stroke-linecap="butt">
      <text x="1430.7238" xml:space="preserve" y="783.2771" clip-path="url(#clipPath2)" stroke="none">Research tasks</text>
      <text x="1430.3898" xml:space="preserve" y="797.4099" clip-path="url(#clipPath2)" stroke="none">(sub-activities)</text>
      <circle fill="none" stroke-width="3" r="10" clip-path="url(#clipPath2)" cx="1414.3897" cy="785.8083"/>
    </g>
    <g fill="yellow" text-rendering="geometricPrecision" shape-rendering="geometricPrecision" transform="matrix(1,0,0,1,-567,-459)" stroke="yellow">
      <rect x="1531.0753" y="756.8083" clip-path="url(#clipPath2)" width="150" rx="4" ry="4" height="58" stroke="none"/>
    </g>
    <g font-size="16px" stroke-linecap="butt" transform="matrix(1,0,0,1,-567,-459)" text-rendering="geometricPrecision" font-family="sans-serif" shape-rendering="geometricPrecision" stroke-miterlimit="1.45">
      <text x="1557.6339" xml:space="preserve" y="791.8552" clip-path="url(#clipPath2)" stroke="none">prov:Activity</text>
      <rect x="1531.0753" y="756.8083" clip-path="url(#clipPath2)" fill="none" width="150" rx="4" ry="4" height="58"/>
    </g>
    <g fill="rgb(255,153,204)" text-rendering="geometricPrecision" shape-rendering="geometricPrecision" transform="matrix(1,0,0,1,-567,-459)" stroke="rgb(255,153,204)">
      <circle r="10" clip-path="url(#clipPath2)" cx="639.3897" cy="954.2746" stroke="none"/>
    </g>
    <g text-rendering="geometricPrecision" stroke-miterlimit="1.45" shape-rendering="geometricPrecision" font-family="sans-serif" transform="matrix(1,0,0,1,-567,-459)" stroke-linecap="butt">
      <text x="613.7022" xml:space="preserve" y="935.7433" clip-path="url(#clipPath2)" stroke="none">Geo area</text>
      <circle fill="none" stroke-width="3" r="10" clip-path="url(#clipPath2)" cx="639.3897" cy="954.2746"/>
    </g>
    <g fill="rgb(255,153,204)" text-rendering="geometricPrecision" shape-rendering="geometricPrecision" transform="matrix(1,0,0,1,-567,-459)" stroke="rgb(255,153,204)">
      <circle r="10" clip-path="url(#clipPath2)" cx="1606.0753" cy="869.2347" stroke="none"/>
    </g>
    <g text-rendering="geometricPrecision" stroke-miterlimit="1.45" shape-rendering="geometricPrecision" font-family="sans-serif" transform="matrix(1,0,0,1,-567,-459)" stroke-linecap="butt">
      <text x="1558.131" xml:space="preserve" y="896.8362" clip-path="url(#clipPath2)" stroke="none">Research Project</text>
      <text x="1552.462" xml:space="preserve" y="910.9691" clip-path="url(#clipPath2)" stroke="none">(academic activity)</text>
      <circle fill="none" stroke-width="3" r="10" clip-path="url(#clipPath2)" cx="1606.0753" cy="869.2347"/>
    </g>
    <g fill="yellow" text-rendering="geometricPrecision" shape-rendering="geometricPrecision" transform="matrix(1,0,0,1,-567,-459)" stroke="yellow">
      <rect x="1017.7041" y="636.382" clip-path="url(#clipPath2)" width="280" rx="4" ry="4" height="58" stroke="none"/>
    </g>
    <g font-size="16px" stroke-linecap="butt" transform="matrix(1,0,0,1,-567,-459)" text-rendering="geometricPrecision" font-family="sans-serif" shape-rendering="geometricPrecision" stroke-miterlimit="1.45">
      <text x="1032.4736" xml:space="preserve" y="671.4289" clip-path="url(#clipPath2)" stroke="none">crmdig:D10_Software_Execution</text>
      <rect x="1017.7041" y="636.382" clip-path="url(#clipPath2)" fill="none" width="280" rx="4" ry="4" height="58"/>
    </g>
    <g fill="rgb(255,153,204)" text-rendering="geometricPrecision" shape-rendering="geometricPrecision" transform="matrix(1,0,0,1,-567,-459)" stroke="rgb(255,153,204)">
      <circle r="10" clip-path="url(#clipPath2)" cx="976.7794" cy="1176.0931" stroke="none"/>
    </g>
    <g text-rendering="geometricPrecision" stroke-miterlimit="1.45" shape-rendering="geometricPrecision" font-family="sans-serif" transform="matrix(1,0,0,1,-567,-459)" stroke-linecap="butt">
      <text x="957.8566" xml:space="preserve" y="1143.4291" clip-path="url(#clipPath2)" stroke="none">Object</text>
      <text x="912.0743" xml:space="preserve" y="1157.5619" clip-path="url(#clipPath2)" stroke="none">(e.g. book, photo etc.)</text>
      <circle fill="none" stroke-width="3" r="10" clip-path="url(#clipPath2)" cx="976.7794" cy="1176.0931"/>
    </g>
    <g fill="rgb(255,153,204)" text-rendering="geometricPrecision" shape-rendering="geometricPrecision" transform="matrix(1,0,0,1,-567,-459)" stroke="rgb(255,153,204)">
      <circle r="10" clip-path="url(#clipPath2)" cx="822.1949" cy="1222.1863" stroke="none"/>
    </g>
    <g text-rendering="geometricPrecision" stroke-miterlimit="1.45" shape-rendering="geometricPrecision" font-family="sans-serif" transform="matrix(1,0,0,1,-567,-459)" stroke-linecap="butt">
      <text x="777.2418" xml:space="preserve" y="1203.655" clip-path="url(#clipPath2)" stroke="none">Primary subject</text>
      <circle fill="none" stroke-width="3" r="10" clip-path="url(#clipPath2)" cx="822.1949" cy="1222.1863"/>
      <path fill="none" d="M1013.7023 811.2933 L972.55 811.2933 L972.55 1048.4154 L933.2236 1048.4154" clip-path="url(#clipPath2)" stroke="navy"/>
      <path fill="navy" d="M1021.7023 811.2933 C1021.7023 813.5025 1019.9114 815.2933 1017.7023 815.2933 C1015.4931 815.2933 1013.7023 813.5025 1013.7023 811.2933 C1013.7023 809.0842 1015.4931 807.2933 1017.7023 807.2933 C1019.9114 807.2933 1021.7023 809.0842 1021.7023 811.2933 Z" clip-path="url(#clipPath2)" stroke="none"/>
      <path fill="navy" d="M922.2236 1048.4154 L934.2236 1054.4154 L934.2236 1042.4154 Z" clip-path="url(#clipPath2)" stroke="none"/>
    </g>
    <g stroke-linecap="butt" transform="matrix(0,1,-1,0,414.6165,399.2069)" fill="white" text-rendering="geometricPrecision" shape-rendering="geometricPrecision" stroke="white" stroke-miterlimit="1.45">
      <rect x="0" width="143.2949" height="18.1328" y="0" clip-path="url(#clipPath3)" stroke="none"/>
      <text x="2" y="13.6016" clip-path="url(#clipPath3)" fill="navy" font-family="sans-serif" stroke="none" xml:space="preserve">crm:P14_carried_out_by</text>
    </g>
    <g stroke-linecap="butt" transform="matrix(1,0,0,1,-567,-459)" fill="navy" text-rendering="geometricPrecision" shape-rendering="geometricPrecision" stroke="navy" stroke-miterlimit="1.45">
      <path fill="none" d="M1157.7041 1209.1141 L1157.7041 1271.0015" clip-path="url(#clipPath2)"/>
      <path d="M1157.7041 1201.1141 C1159.9132 1201.1141 1161.7041 1202.905 1161.7041 1205.1141 C1161.7041 1207.3232 1159.9132 1209.1141 1157.7041 1209.1141 C1155.495 1209.1141 1153.7041 1207.3232 1153.7041 1205.1141 C1153.7041 1202.905 1155.495 1201.1141 1157.7041 1201.1141 Z" clip-path="url(#clipPath2)" stroke="none"/>
      <path d="M1157.7041 1282.0015 L1163.7041 1270.0015 L1151.7041 1270.0015 Z" clip-path="url(#clipPath2)" stroke="none"/>
      <rect x="1064.6553" y="1234.4914" clip-path="url(#clipPath2)" fill="white" width="186.0977" height="18.1328" stroke="none"/>
      <text x="1066.6553" xml:space="preserve" y="1248.0929" clip-path="url(#clipPath2)" font-family="sans-serif" stroke="none">frbroo:R7_is_materialization_of</text>
      <path fill="none" d="M1053.6881 1311.0223 L933.2109 1311.0223" clip-path="url(#clipPath2)"/>
      <path d="M1061.6881 1311.0223 C1061.6881 1313.2314 1059.8972 1315.0223 1057.6881 1315.0223 C1055.479 1315.0223 1053.6881 1313.2314 1053.6881 1311.0223 C1053.6881 1308.8132 1055.479 1307.0223 1057.6881 1307.0223 C1059.8972 1307.0223 1061.6881 1308.8132 1061.6881 1311.0223 Z" clip-path="url(#clipPath2)" stroke="none"/>
      <path d="M922.2109 1311.0223 L934.2109 1317.0223 L934.2109 1305.0223 Z" clip-path="url(#clipPath2)" stroke="none"/>
      <rect x="930.7884" y="1301.956" clip-path="url(#clipPath2)" fill="white" width="118.3223" height="18.1328" stroke="none"/>
      <text x="932.7883" xml:space="preserve" y="1315.5575" clip-path="url(#clipPath2)" font-family="sans-serif" stroke="none">crm:P129_is_about </text>
      <path fill="none" d="M1151.1067 752.7631 L1151.1067 731.5 L878.3016 731.5 L878.3016 705.4017" clip-path="url(#clipPath2)"/>
      <path d="M1151.1067 760.7631 C1148.8976 760.7631 1147.1067 758.9723 1147.1067 756.7631 C1147.1067 754.554 1148.8976 752.7631 1151.1067 752.7631 C1153.3158 752.7631 1155.1067 754.554 1155.1067 756.7631 C1155.1067 758.9723 1153.3158 760.7631 1151.1067 760.7631 Z" clip-path="url(#clipPath2)" stroke="none"/>
      <path d="M878.3016 694.4017 L872.3016 706.4017 L884.3016 706.4017 Z" clip-path="url(#clipPath2)" stroke="none"/>
      <rect x="943.4259" y="715.3672" clip-path="url(#clipPath2)" fill="white" width="142.5566" height="32.2656" stroke="none"/>
      <text x="946.4747" xml:space="preserve" y="728.9688" clip-path="url(#clipPath2)" font-family="sans-serif" stroke="none">crmdig:L10_had_input/</text>
      <text x="945.4258" xml:space="preserve" y="743.1016" clip-path="url(#clipPath2)" font-family="sans-serif" stroke="none">crmdig:L11_had_output</text>
      <path fill="none" d="M878.3016 632.3947 L878.3016 589.9487 L777.3145 589.9487 L777.3145 625.7582" clip-path="url(#clipPath2)"/>
      <path d="M878.3016 640.3947 C876.0924 640.3947 874.3016 638.6039 874.3016 636.3947 C874.3016 634.1855 876.0924 632.3947 878.3016 632.3947 C880.5107 632.3947 882.3016 634.1855 882.3016 636.3947 C882.3016 638.6039 880.5107 640.3947 878.3016 640.3947 Z" clip-path="url(#clipPath2)" stroke="none"/>
      <path d="M777.3145 636.7582 L783.3145 624.7582 L771.3145 624.7582 Z" clip-path="url(#clipPath2)" stroke="none"/>
      <rect x="761.4252" y="580.8822" clip-path="url(#clipPath2)" fill="white" width="132.7656" height="18.1328" stroke="none"/>
      <text x="763.4252" xml:space="preserve" y="594.4838" clip-path="url(#clipPath2)" font-family="sans-serif" stroke="none">P106_is_composed_of</text>
      <path fill="none" d="M1013.7017 785.8083 L854.4152 785.8083" clip-path="url(#clipPath2)"/>
      <path d="M1021.7017 785.8083 C1021.7017 788.0175 1019.9108 789.8083 1017.7017 789.8083 C1015.4925 789.8083 1013.7017 788.0175 1013.7017 785.8083 C1013.7017 783.5992 1015.4925 781.8083 1017.7017 781.8083 C1019.9108 781.8083 1021.7017 783.5992 1021.7017 785.8083 Z" clip-path="url(#clipPath2)" stroke="none"/>
      <path d="M843.4152 785.8083 L855.4152 791.8083 L855.4152 779.8083 Z" clip-path="url(#clipPath2)" stroke="none"/>
      <rect x="857.836" y="776.7419" clip-path="url(#clipPath2)" fill="white" width="145.4219" height="18.1328" stroke="none"/>
      <text x="859.836" xml:space="preserve" y="790.3435" clip-path="url(#clipPath2)" font-family="sans-serif" stroke="none">crmdig:L20_has_created</text>
      <path fill="none" d="M797.9283 756.8047 L797.9283 702.3857" clip-path="url(#clipPath2)" stroke="black"/>
      <path fill="black" d="M797.9283 694.3857 L792.9283 706.3857 L797.9283 703.3857 L802.9283 706.3857 Z" clip-path="url(#clipPath2)" stroke="none"/>
      <rect x="749.7916" y="724.1587" clip-path="url(#clipPath2)" fill="white" width="96.2734" height="18.1328" stroke="none"/>
      <text x="751.7916" y="737.7603" clip-path="url(#clipPath2)" fill="black" font-family="sans-serif" stroke="none" xml:space="preserve">rdfs:subClassOf</text>
      <path fill="none" d="M1303 774.5 L1313 774.5 L1313 506.7444 L1268.714 506.7444" clip-path="url(#clipPath2)"/>
      <path d="M1295 774.5 C1295 772.2908 1296.7909 770.5 1299 770.5 C1301.2091 770.5 1303 772.2908 1303 774.5 C1303 776.7092 1301.2091 778.5 1299 778.5 C1296.7909 778.5 1295 776.7092 1295 774.5 Z" clip-path="url(#clipPath2)" stroke="none"/>
      <path d="M1257.714 506.7444 L1269.714 512.7444 L1269.714 500.7444 Z" clip-path="url(#clipPath2)" stroke="none"/>
    </g>
    <g stroke-linecap="butt" transform="matrix(0,1,-1,0,755.0664,42.2766)" fill="white" text-rendering="geometricPrecision" shape-rendering="geometricPrecision" stroke="white" stroke-miterlimit="1.45">
      <rect x="0" width="159.7949" height="18.1328" y="0" clip-path="url(#clipPath4)" stroke="none"/>
      <text x="2" y="13.6016" clip-path="url(#clipPath4)" fill="navy" font-family="sans-serif" stroke="none" xml:space="preserve">crmdig:L23_used_software</text>
    </g>
    <g text-rendering="geometricPrecision" stroke-miterlimit="1.45" shape-rendering="geometricPrecision" transform="matrix(1,0,0,1,-567,-459)" stroke-linecap="butt">
      <path fill="none" d="M1148.8743 535.7678 L1148.8743 570.5 L930.6211 570.5 L930.6211 628.3525" clip-path="url(#clipPath2)"/>
      <path d="M930.6211 636.3525 L935.6211 624.3525 L930.6211 627.3525 L925.6211 624.3525 Z" clip-path="url(#clipPath2)" stroke="none"/>
      <rect x="1012.4468" y="561.4336" clip-path="url(#clipPath2)" fill="white" width="96.2734" height="18.1328" stroke="none"/>
      <text x="1014.4468" xml:space="preserve" y="575.0352" clip-path="url(#clipPath2)" font-family="sans-serif" stroke="none">rdfs:subClassOf</text>
      <path fill="none" d="M1013.6938 798.9626 L890.1949 798.9626 L890.1949 914.2739" clip-path="url(#clipPath2)" stroke="navy"/>
      <path fill="navy" d="M1021.6938 798.9626 C1021.6938 801.1718 1019.903 802.9626 1017.6938 802.9626 C1015.4846 802.9626 1013.6938 801.1718 1013.6938 798.9626 C1013.6938 796.7534 1015.4846 794.9626 1017.6938 794.9626 C1019.903 794.9626 1021.6938 796.7534 1021.6938 798.9626 Z" clip-path="url(#clipPath2)" stroke="none"/>
      <path fill="navy" d="M890.1949 925.2739 L896.1949 913.2739 L884.1949 913.2739 Z" clip-path="url(#clipPath2)" stroke="none"/>
      <rect x="825.1363" y="846.019" clip-path="url(#clipPath2)" fill="white" width="130.1172" height="18.1328" stroke="none"/>
      <text x="827.1363" y="859.6205" clip-path="url(#clipPath2)" fill="navy" font-family="sans-serif" stroke="none" xml:space="preserve">crm:P7_took_place_at</text>
      <path fill="none" d="M1286.0154 939.2358 L1286.0154 1311.0223 L1268.7147 1311.0223" clip-path="url(#clipPath2)" stroke="navy"/>
      <path fill="navy" d="M1286.0154 931.2358 C1288.2245 931.2358 1290.0154 933.0266 1290.0154 935.2358 C1290.0154 937.4449 1288.2245 939.2358 1286.0154 939.2358 C1283.8063 939.2358 1282.0154 937.4449 1282.0154 935.2358 C1282.0154 933.0266 1283.8063 931.2358 1286.0154 931.2358 Z" clip-path="url(#clipPath2)" stroke="none"/>
      <path fill="navy" d="M1257.7147 1311.0223 L1269.7147 1317.0223 L1269.7147 1305.0223 Z" clip-path="url(#clipPath2)" stroke="none"/>
    </g>
    <g stroke-linecap="butt" transform="matrix(0,1,-1,0,728.0818,537.3941)" fill="white" text-rendering="geometricPrecision" shape-rendering="geometricPrecision" stroke="white" stroke-miterlimit="1.45">
      <rect x="0" width="140.5938" height="18.1328" y="0" clip-path="url(#clipPath5)" stroke="none"/>
      <text x="2" y="13.6016" clip-path="url(#clipPath5)" fill="navy" font-family="sans-serif" stroke="none" xml:space="preserve">crmdig:L60_documents</text>
    </g>
    <g text-rendering="geometricPrecision" stroke-miterlimit="1.45" shape-rendering="geometricPrecision" transform="matrix(1,0,0,1,-567,-459)" stroke-linecap="butt">
      <path fill="none" d="M1093.1932 877.2129 L1093.1932 822.8304" clip-path="url(#clipPath2)"/>
      <path d="M1093.1932 814.8304 L1088.1932 826.8304 L1093.1932 823.8304 L1098.1932 826.8304 Z" clip-path="url(#clipPath2)" stroke="none"/>
      <rect x="1045.0565" y="836.9551" clip-path="url(#clipPath2)" fill="white" width="96.2734" height="18.1328" stroke="none"/>
      <text x="1047.0565" xml:space="preserve" y="850.5566" clip-path="url(#clipPath2)" font-family="sans-serif" stroke="none">rdfs:subClassOf</text>
      <path fill="none" d="M1157.7041 939.2301 L1157.7041 1001.1429" clip-path="url(#clipPath2)" stroke="navy"/>
      <path fill="navy" d="M1157.7041 931.2301 C1159.9132 931.2301 1161.7041 933.0209 1161.7041 935.2301 C1161.7041 937.4393 1159.9132 939.2301 1157.7041 939.2301 C1155.495 939.2301 1153.7041 937.4393 1153.7041 935.2301 C1153.7041 933.0209 1155.495 931.2301 1157.7041 931.2301 Z" clip-path="url(#clipPath2)" stroke="none"/>
      <path fill="navy" d="M1157.7041 1012.1429 L1163.7041 1000.1429 L1151.7041 1000.1429 Z" clip-path="url(#clipPath2)" stroke="none"/>
      <rect x="1097.9073" y="964.6329" clip-path="url(#clipPath2)" fill="white" width="119.5938" height="18.1328" stroke="none"/>
      <text x="1099.9072" y="978.2344" clip-path="url(#clipPath2)" fill="navy" font-family="sans-serif" stroke="none" xml:space="preserve">crmdig:L1_digitized</text>
      <path fill="none" d="M1157.7041 1078.1855 L1157.7041 1147.1082" clip-path="url(#clipPath2)"/>
      <path d="M1157.7041 1070.1855 L1152.7041 1082.1855 L1157.7041 1079.1855 L1162.7041 1082.1855 Z" clip-path="url(#clipPath2)" stroke="none"/>
      <rect x="1109.5674" y="1099.5621" clip-path="url(#clipPath2)" fill="white" width="96.2734" height="18.1328" stroke="none"/>
      <text x="1111.5674" xml:space="preserve" y="1113.1637" clip-path="url(#clipPath2)" font-family="sans-serif" stroke="none">rdfs:subClassOf</text>
      <path fill="none" d="M743.3897 756.7944 L743.3897 524.7443" clip-path="url(#clipPath2)"/>
      <path d="M743.3897 516.7443 L738.3897 528.7443 L743.3897 525.7443 L748.3897 528.7443 Z" clip-path="url(#clipPath2)" stroke="none"/>
      <path fill="none" d="M1057.691 506.7444 L761.3897 506.7444" clip-path="url(#clipPath2)"/>
      <path d="M753.3897 506.7444 L765.3897 511.7444 L762.3897 506.7444 L765.3897 501.7444 Z" clip-path="url(#clipPath2)" stroke="none"/>
      <path fill="none" d="M903.4188 636.3718 L903.4188 576.5 L787.3897 576.5 L752.9928 521.9687" clip-path="url(#clipPath2)"/>
      <path d="M748.7248 515.2023 L750.8978 528.0194 L753.5263 522.8145 L759.3558 522.6844 Z" clip-path="url(#clipPath2)" stroke="none"/>
      <path fill="none" d="M722.1786 1048.4154 L657.3897 1048.4154" clip-path="url(#clipPath2)"/>
      <path d="M649.3897 1048.4154 L661.3897 1053.4154 L658.3897 1048.4154 L661.3897 1043.4154 Z" clip-path="url(#clipPath2)" stroke="none"/>
      <path fill="none" d="M1297.7344 785.8083 L1396.3898 785.8083" clip-path="url(#clipPath2)"/>
      <path d="M1404.3898 785.8083 L1392.3898 780.8083 L1395.3898 785.8083 L1392.3898 790.8083 Z" clip-path="url(#clipPath2)" stroke="none"/>
      <path fill="none" d="M1297.7065 906.2347 L1414.3898 906.2347 L1414.3898 803.8083" clip-path="url(#clipPath2)"/>
      <path d="M1414.3898 795.8083 L1409.3898 807.8083 L1414.3898 804.8083 L1419.3898 807.8083 Z" clip-path="url(#clipPath2)" stroke="none"/>
    </g>
    <g stroke-linecap="round" transform="matrix(1,0,0,1,-567,-459)" stroke-dashoffset="2" fill="navy" text-rendering="geometricPrecision" shape-rendering="geometricPrecision" stroke-dasharray="0,4" stroke="navy" stroke-miterlimit="1.45">
      <path fill="none" d="M1606.0753 752.8245 L1606.0753 731.5 L1248 731.5 L1248 745.7709" clip-path="url(#clipPath2)"/>
      <path d="M1606.0753 760.8245 C1603.8662 760.8245 1602.0753 759.0336 1602.0753 756.8245 C1602.0753 754.6153 1603.8662 752.8245 1606.0753 752.8245 C1608.2844 752.8245 1610.0753 754.6153 1610.0753 756.8245 C1610.0753 759.0336 1608.2844 760.8245 1606.0753 760.8245 Z" clip-path="url(#clipPath2)" stroke="none"/>
      <path d="M1248 756.7709 L1254 744.7709 L1242 744.7709 Z" clip-path="url(#clipPath2)" stroke="none"/>
      <rect x="1442.0162" y="722.4336" clip-path="url(#clipPath2)" fill="white" width="122.043" height="18.1328" stroke="none"/>
    </g>
    <g stroke-linecap="butt" transform="matrix(1,0,0,1,-567,-459)" fill="navy" text-rendering="geometricPrecision" font-family="sans-serif" shape-rendering="geometricPrecision" stroke="navy" stroke-miterlimit="1.45">
      <text x="1444.0161" xml:space="preserve" y="736.0352" clip-path="url(#clipPath2)" stroke="none">prov:wasInformedBy</text>
      <path fill="none" d="M722.1786 954.2746 L657.3897 954.2746" clip-path="url(#clipPath2)" stroke="black"/>
      <path fill="black" d="M649.3897 954.2746 L661.3897 959.2746 L658.3897 954.2746 L661.3897 949.2746 Z" clip-path="url(#clipPath2)" stroke="none"/>
      <path fill="none" d="M1606.0753 814.7713 L1606.0753 851.2347" clip-path="url(#clipPath2)" stroke="black"/>
      <path fill="black" d="M1606.0753 859.2347 L1611.0753 847.2347 L1606.0753 850.2347 L1601.0753 847.2347 Z" clip-path="url(#clipPath2)" stroke="none"/>
      <path fill="none" d="M1138.0482 632.3568 L1138.0482 609.5 L957.8898 609.5 L957.8898 625.3641" clip-path="url(#clipPath2)"/>
      <path d="M1138.0482 640.3568 C1135.8391 640.3568 1134.0482 638.5659 1134.0482 636.3568 C1134.0482 634.1476 1135.8391 632.3568 1138.0482 632.3568 C1140.2573 632.3568 1142.0482 634.1476 1142.0482 636.3568 C1142.0482 638.5659 1140.2573 640.3568 1138.0482 640.3568 Z" clip-path="url(#clipPath2)" stroke="none"/>
      <path d="M957.8898 636.3641 L963.8898 624.3641 L951.8898 624.3641 Z" clip-path="url(#clipPath2)" stroke="none"/>
      <rect x="968.0832" y="600.4336" clip-path="url(#clipPath2)" fill="white" width="159.7715" height="18.1328" stroke="none"/>
      <text x="970.0833" xml:space="preserve" y="614.0352" clip-path="url(#clipPath2)" stroke="none">crmdig:L2_used_as_source</text>
      <path fill="none" d="M1204.5547 694.3996 L1204.5547 748.7899" clip-path="url(#clipPath2)" stroke="black"/>
      <path fill="black" d="M1204.5547 756.7899 L1209.5547 744.7899 L1204.5547 747.7899 L1199.5547 744.7899 Z" clip-path="url(#clipPath2)" stroke="none"/>
      <rect x="1156.418" y="699.382" clip-path="url(#clipPath2)" fill="white" width="96.2734" height="18.1328" stroke="none"/>
      <text fill="black" x="1158.418" xml:space="preserve" y="712.9836" clip-path="url(#clipPath2)" stroke="none">rdfs:subClassOf</text>
      <path fill="none" d="M1297.7344 665.382 L1414.3898 665.382 L1414.3898 767.8083" clip-path="url(#clipPath2)" stroke="black"/>
      <path fill="black" d="M1414.3898 775.8083 L1419.3898 763.8083 L1414.3898 766.8083 L1409.3898 763.8083 Z" clip-path="url(#clipPath2)" stroke="none"/>
      <path fill="none" d="M1057.745 1176.0931 L994.7794 1176.0931" clip-path="url(#clipPath2)" stroke="black"/>
      <path fill="black" d="M986.7794 1176.0931 L998.7794 1181.0931 L995.7794 1176.0931 L998.7794 1171.0931 Z" clip-path="url(#clipPath2)" stroke="none"/>
      <path fill="none" d="M822.1949 1282.0032 L822.1949 1240.1863" clip-path="url(#clipPath2)" stroke="black"/>
      <path fill="black" d="M822.1949 1232.1863 L817.1949 1244.1863 L822.1949 1241.1863 L827.1949 1244.1863 Z" clip-path="url(#clipPath2)" stroke="none"/>
    </g>
    <g fill="rgb(210,210,210)" text-rendering="geometricPrecision" shape-rendering="geometricPrecision" transform="matrix(1,0,0,1,-567,-459) translate(4,4)" stroke="rgb(210,210,210)">
      <rect x="1320.4733" width="605.8998" height="151.8294" y="1169.3492" clip-path="url(#clipPath6)" stroke="none"/>
    </g>
    <g fill="white" text-rendering="geometricPrecision" shape-rendering="geometricPrecision" transform="matrix(1,0,0,1,-567,-459)" stroke="white">
      <rect x="1320.4733" width="605.8998" height="151.8294" y="1169.3492" clip-path="url(#clipPath2)" stroke="none"/>
      <rect x="1320.4733" y="1169.3492" clip-path="url(#clipPath2)" fill="rgb(183,182,158)" width="605.8998" height="21.666" stroke="none"/>
    </g>
    <g font-size="15px" stroke-linecap="butt" transform="matrix(1,0,0,1,-567,-459)" text-rendering="geometricPrecision" font-family="sans-serif" shape-rendering="geometricPrecision" font-weight="bold" stroke-miterlimit="1.45">
      <text x="1847.5055" xml:space="preserve" y="1185.8512" clip-path="url(#clipPath2)" stroke="none">Prefixes   </text>
      <rect fill="none" x="1320.4733" width="605.8998" height="151.8294" y="1169.3492" clip-path="url(#clipPath2)"/>
      <text x="1415.0674" font-size="16px" y="1223.484" clip-path="url(#clipPath2)" stroke="none" font-weight="normal" xml:space="preserve">http://www.w3.org/ns/prov#</text>
      <text x="1415.0674" font-size="16px" y="1242.3278" clip-path="url(#clipPath2)" stroke="none" font-weight="normal" xml:space="preserve">http://cidoc-crm.org/cidoc-crm/7.1.2/</text>
      <text x="1415.0674" font-size="16px" y="1261.1715" clip-path="url(#clipPath2)" stroke="none" font-weight="normal" xml:space="preserve">https://projects.ics.forth.gr/isl/CRMext/CRMdig_v3.2.2.rdfs#</text>
      <text x="1415.0674" font-size="16px" y="1280.0153" clip-path="url(#clipPath2)" stroke="none" font-weight="normal" xml:space="preserve">http://iflastandards.info/ns/fr/frbr/frbroo/</text>
      <text x="1415.0674" font-size="16px" y="1298.859" clip-path="url(#clipPath2)" stroke="none" font-weight="normal" xml:space="preserve">http://www.w3.org/2000/01/rdf-schema#</text>
      <text x="1348.271" xml:space="preserve" font-size="16px" y="1223.484" clip-path="url(#clipPath2)" stroke="none">prov:</text>
      <text x="1348.271" xml:space="preserve" font-size="16px" y="1242.3278" clip-path="url(#clipPath2)" stroke="none">crm:</text>
      <text x="1348.271" xml:space="preserve" font-size="16px" y="1261.1715" clip-path="url(#clipPath2)" stroke="none">crmdig:</text>
      <text x="1348.271" xml:space="preserve" font-size="16px" y="1280.0153" clip-path="url(#clipPath2)" stroke="none">frbroo:</text>
      <text x="1348.271" xml:space="preserve" font-size="16px" y="1298.859" clip-path="url(#clipPath2)" stroke="none">rdfs:</text>
    </g>
  </g>
</svg>
