<?xml version="1.0" encoding="UTF-8"?><svg xmlns="http://www.w3.org/2000/svg" xmlns:xlink="http://www.w3.org/1999/xlink" fill-opacity="1" color-rendering="auto" color-interpolation="auto" text-rendering="auto" stroke="black" stroke-linecap="square" width="1166" stroke-miterlimit="10" shape-rendering="auto" stroke-opacity="1" fill="black" stroke-dasharray="none" font-weight="normal" stroke-width="1" height="455" font-family="'Dialog'" font-style="normal" stroke-linejoin="miter" font-size="12px" stroke-dashoffset="0" image-rendering="auto">
  <!--Generated by ySVG 2.6-->
  <defs id="genericDefs"/>
  <g>
    <defs id="defs1">
      <clipPath clipPathUnits="userSpaceOnUse" id="clipPath1">
        <path d="M0 0 L1166 0 L1166 455 L0 455 L0 0 Z"/>
      </clipPath>
      <clipPath clipPathUnits="userSpaceOnUse" id="clipPath2">
        <path d="M129 109 L1295 109 L1295 564 L129 564 L129 109 Z"/>
      </clipPath>
    </defs>
    <g fill="white" text-rendering="geometricPrecision" shape-rendering="geometricPrecision" transform="translate(-129,-109)" stroke="white">
      <rect x="129" width="1166" height="455" y="109" clip-path="url(#clipPath2)" stroke="none"/>
    </g>
    <g fill="yellow" text-rendering="geometricPrecision" shape-rendering="geometricPrecision" transform="matrix(1,0,0,1,-129,-109)" stroke="yellow">
      <rect x="524.2651" y="323.8526" clip-path="url(#clipPath2)" width="134.9682" rx="4" ry="4" height="58" stroke="none"/>
    </g>
    <g font-size="16px" stroke-linecap="butt" transform="matrix(1,0,0,1,-129,-109)" text-rendering="geometricPrecision" font-family="sans-serif" shape-rendering="geometricPrecision" stroke-miterlimit="1.45">
      <text x="543.0969" xml:space="preserve" y="358.8995" clip-path="url(#clipPath2)" stroke="none">dcat:Catalog</text>
      <rect x="524.2651" y="323.8526" clip-path="url(#clipPath2)" fill="none" width="134.9682" rx="4" ry="4" height="58"/>
    </g>
    <g fill="yellow" text-rendering="geometricPrecision" shape-rendering="geometricPrecision" transform="matrix(1,0,0,1,-129,-109)" stroke="yellow">
      <rect x="524.2651" y="407.3526" clip-path="url(#clipPath2)" width="134.9682" rx="4" ry="4" height="58" stroke="none"/>
    </g>
    <g font-size="16px" stroke-linecap="butt" transform="matrix(1,0,0,1,-129,-109)" text-rendering="geometricPrecision" font-family="sans-serif" shape-rendering="geometricPrecision" stroke-miterlimit="1.45">
      <text x="543.3274" xml:space="preserve" y="442.3995" clip-path="url(#clipPath2)" stroke="none">dcat:Dataset</text>
      <rect x="524.2651" y="407.3526" clip-path="url(#clipPath2)" fill="none" width="134.9682" rx="4" ry="4" height="58"/>
    </g>
    <g fill="yellow" text-rendering="geometricPrecision" shape-rendering="geometricPrecision" transform="matrix(1,0,0,1,-129,-109)" stroke="yellow">
      <rect x="988.983" y="407.3526" clip-path="url(#clipPath2)" width="204.9682" rx="4" ry="4" height="58" stroke="none"/>
    </g>
    <g font-size="16px" stroke-linecap="butt" transform="matrix(1,0,0,1,-129,-109)" text-rendering="geometricPrecision" font-family="sans-serif" shape-rendering="geometricPrecision" stroke-miterlimit="1.45">
      <text x="1039.1936" xml:space="preserve" y="442.3995" clip-path="url(#clipPath2)" stroke="none">skos:Concept</text>
      <rect x="988.983" y="407.3526" clip-path="url(#clipPath2)" fill="none" width="204.9682" rx="4" ry="4" height="58"/>
    </g>
    <g fill="yellow" text-rendering="geometricPrecision" shape-rendering="geometricPrecision" transform="matrix(1,0,0,1,-129,-109)" stroke="yellow">
      <rect x="988.983" y="207.5709" clip-path="url(#clipPath2)" width="204.9682" rx="4" ry="4" height="58" stroke="none"/>
    </g>
    <g font-size="16px" stroke-linecap="butt" transform="matrix(1,0,0,1,-129,-109)" text-rendering="geometricPrecision" font-family="sans-serif" shape-rendering="geometricPrecision" stroke-miterlimit="1.45">
      <text x="1009.4397" xml:space="preserve" y="242.6178" clip-path="url(#clipPath2)" stroke="none">skos:ConceptScheme</text>
      <rect x="988.983" y="207.5709" clip-path="url(#clipPath2)" fill="none" width="204.9682" rx="4" ry="4" height="58"/>
    </g>
    <g fill="yellow" text-rendering="geometricPrecision" shape-rendering="geometricPrecision" transform="matrix(1,0,0,1,-129,-109)" stroke="yellow">
      <rect x="518.2651" y="490.8526" clip-path="url(#clipPath2)" width="146.9682" rx="4" ry="4" height="58" stroke="none"/>
    </g>
    <g font-size="16px" stroke-linecap="butt" transform="matrix(1,0,0,1,-129,-109)" text-rendering="geometricPrecision" font-family="sans-serif" shape-rendering="geometricPrecision" stroke-miterlimit="1.45">
      <text x="527.8079" xml:space="preserve" y="525.8995" clip-path="url(#clipPath2)" stroke="none">dcat:DataService</text>
      <rect x="518.2651" y="490.8526" clip-path="url(#clipPath2)" fill="none" width="146.9682" rx="4" ry="4" height="58"/>
    </g>
    <g fill="rgb(255,153,204)" text-rendering="geometricPrecision" shape-rendering="geometricPrecision" transform="matrix(1,0,0,1,-129,-109)" stroke="rgb(255,153,204)">
      <circle r="10" clip-path="url(#clipPath2)" cx="1091.4671" cy="161" stroke="none"/>
    </g>
    <g font-size="16px" stroke-linecap="butt" transform="matrix(1,0,0,1,-129,-109)" text-rendering="geometricPrecision" font-family="sans-serif" shape-rendering="geometricPrecision" stroke-miterlimit="1.45">
      <text x="1001.2405" xml:space="preserve" y="141.625" clip-path="url(#clipPath2)" stroke="none">controlled vocabularies</text>
      <circle fill="none" stroke-width="3" r="10" clip-path="url(#clipPath2)" cx="1091.4671" cy="161"/>
    </g>
    <g fill="rgb(204,255,204)" text-rendering="geometricPrecision" shape-rendering="geometricPrecision" transform="matrix(1,0,0,1,-129,-109)" stroke="rgb(204,255,204)">
      <path d="M183.562 422.3526 L297.0475 422.3526 L284.438 465.3526 L170.9525 465.3526 Z" fill-rule="evenodd" clip-path="url(#clipPath2)" stroke="none"/>
    </g>
    <g font-size="16px" stroke-linecap="butt" transform="matrix(1,0,0,1,-129,-109)" text-rendering="geometricPrecision" font-family="sans-serif" shape-rendering="geometricPrecision" stroke-miterlimit="1.45">
      <text x="192.1094" xml:space="preserve" y="449.8995" clip-path="url(#clipPath2)" stroke="none">rdfs:Literal</text>
      <path fill="none" d="M183.562 422.3526 L297.0475 422.3526 L284.438 465.3526 L170.9525 465.3526 Z" fill-rule="evenodd" clip-path="url(#clipPath2)"/>
    </g>
    <g fill="rgb(255,153,204)" text-rendering="geometricPrecision" shape-rendering="geometricPrecision" transform="matrix(1,0,0,1,-129,-109)" stroke="rgb(255,153,204)">
      <circle r="10" clip-path="url(#clipPath2)" cx="1091.4671" cy="352.8526" stroke="none"/>
    </g>
    <g font-size="16px" stroke-linecap="butt" transform="matrix(1,0,0,1,-129,-109)" text-rendering="geometricPrecision" font-family="sans-serif" shape-rendering="geometricPrecision" stroke-miterlimit="1.45">
      <text x="1136.8616" xml:space="preserve" y="321.212" clip-path="url(#clipPath2)" stroke="none">Output types, </text>
      <text x="1116.7795" xml:space="preserve" y="340.0557" clip-path="url(#clipPath2)" stroke="none">technologies used, </text>
      <text x="1117.635" xml:space="preserve" y="358.8995" clip-path="url(#clipPath2)" stroke="none">research activities, </text>
      <text x="1107.467" xml:space="preserve" y="377.7432" clip-path="url(#clipPath2)" stroke="none">academic disciplines, </text>
      <text x="1131.8108" xml:space="preserve" y="396.587" clip-path="url(#clipPath2)" stroke="none">primary subject</text>
      <circle fill="none" stroke-width="3" r="10" clip-path="url(#clipPath2)" cx="1091.4671" cy="352.8526"/>
    </g>
    <g fill="rgb(255,153,204)" text-rendering="geometricPrecision" shape-rendering="geometricPrecision" transform="matrix(1,0,0,1,-129,-109)" stroke="rgb(255,153,204)">
      <circle r="10" clip-path="url(#clipPath2)" cx="234" cy="382.3526" stroke="none"/>
    </g>
    <g font-size="16px" stroke-linecap="butt" transform="matrix(1,0,0,1,-129,-109)" text-rendering="geometricPrecision" font-family="sans-serif" shape-rendering="geometricPrecision" stroke-miterlimit="1.45">
      <text x="157.1523" xml:space="preserve" y="325.2901" clip-path="url(#clipPath2)" stroke="none">Secondary subjects,</text>
      <text x="146.4961" xml:space="preserve" y="344.1339" clip-path="url(#clipPath2)" stroke="none">key techniques, tools, </text>
      <text x="186.1562" xml:space="preserve" y="362.9776" clip-path="url(#clipPath2)" stroke="none">and services</text>
      <circle fill="none" stroke-width="3" r="10" clip-path="url(#clipPath2)" cx="234" cy="382.3526"/>
    </g>
    <g stroke-linecap="butt" transform="matrix(1,0,0,1,-129,-109)" fill="navy" text-rendering="geometricPrecision" shape-rendering="geometricPrecision" stroke="navy" stroke-miterlimit="1.45">
      <path fill="none" d="M663.1918 364.7903 L978.1287 417.4144" clip-path="url(#clipPath2)"/>
      <path d="M655.3012 363.4718 C655.6653 361.2928 657.7268 359.8216 659.9058 360.1857 C662.0847 360.5498 663.5559 362.6113 663.1918 364.7903 C662.8278 366.9692 660.7662 368.4404 658.5873 368.0763 C656.4083 367.7122 654.9371 365.6507 655.3012 363.4718 Z" clip-path="url(#clipPath2)" stroke="none"/>
      <path d="M988.9782 419.2273 L978.1312 411.3316 L976.1534 423.1675 Z" clip-path="url(#clipPath2)" stroke="none"/>
      <rect x="789.5476" y="382.6121" clip-path="url(#clipPath2)" fill="white" width="69.1211" height="18.1328" stroke="none"/>
      <text x="791.5476" xml:space="preserve" y="396.2136" clip-path="url(#clipPath2)" font-family="sans-serif" stroke="none">dcat:theme</text>
      <path fill="none" d="M663.2465 436.3526 L977.9783 436.3526" clip-path="url(#clipPath2)"/>
      <path d="M655.2465 436.3526 C655.2465 434.1435 657.0374 432.3526 659.2465 432.3526 C661.4557 432.3526 663.2465 434.1435 663.2465 436.3526 C663.2465 438.5617 661.4557 440.3526 659.2465 440.3526 C657.0374 440.3526 655.2465 438.5617 655.2465 436.3526 Z" clip-path="url(#clipPath2)" stroke="none"/>
      <path d="M988.9783 436.3526 L976.9783 430.3526 L976.9783 442.3526 Z" clip-path="url(#clipPath2)" stroke="none"/>
      <rect x="737.5925" y="427.2862" clip-path="url(#clipPath2)" fill="white" width="173.0312" height="18.1328" stroke="none"/>
      <text x="739.5925" xml:space="preserve" y="440.8878" clip-path="url(#clipPath2)" font-family="sans-serif" stroke="none">dcat:theme AND/OR dct:type</text>
      <path fill="none" d="M591.7493 319.8673 L591.7493 236.5709 L977.9554 236.5709" clip-path="url(#clipPath2)"/>
      <path d="M591.7493 327.8673 C589.5401 327.8673 587.7493 326.0765 587.7493 323.8673 C587.7493 321.6582 589.5401 319.8673 591.7493 319.8673 C593.9584 319.8673 595.7493 321.6582 595.7493 323.8673 C595.7493 326.0765 593.9584 327.8673 591.7493 327.8673 Z" clip-path="url(#clipPath2)" stroke="none"/>
      <path d="M988.9554 236.5709 L976.9554 230.5709 L976.9554 242.5709 Z" clip-path="url(#clipPath2)" stroke="none"/>
      <rect x="720.6249" y="227.5045" clip-path="url(#clipPath2)" fill="white" width="130.3574" height="18.1328" stroke="none"/>
      <text x="722.6249" xml:space="preserve" y="241.1061" clip-path="url(#clipPath2)" font-family="sans-serif" stroke="none">dcat:themeTaxonomy</text>
      <path fill="none" d="M669.1699 506.9161 L978.1414 455.2887" clip-path="url(#clipPath2)"/>
      <path d="M661.2793 508.2345 C660.9152 506.0556 662.3865 503.994 664.5654 503.63 C666.7443 503.2659 668.8058 504.7372 669.1699 506.9161 C669.534 509.095 668.0627 511.1565 665.8838 511.5206 C663.7049 511.8847 661.6434 510.4134 661.2793 508.2345 Z" clip-path="url(#clipPath2)" stroke="none"/>
      <path d="M988.991 453.4758 L976.1662 449.5356 L978.1439 461.3715 Z" clip-path="url(#clipPath2)" stroke="none"/>
      <rect x="740.5925" y="471.4591" clip-path="url(#clipPath2)" fill="white" width="173.0312" height="18.1328" stroke="none"/>
      <text x="742.5925" xml:space="preserve" y="485.0606" clip-path="url(#clipPath2)" font-family="sans-serif" stroke="none">dcat:theme AND/OR dct:type</text>
      <path fill="none" d="M1091.467 207.6045 L1091.467 179" clip-path="url(#clipPath2)" stroke="black"/>
      <path fill="black" d="M1091.467 171 L1086.467 183 L1091.467 180 L1096.467 183 Z" clip-path="url(#clipPath2)" stroke="none"/>
      <path fill="none" d="M520.4017 371.0012 L309.8739 424.5527" clip-path="url(#clipPath2)" stroke="green"/>
    </g>
    <g stroke-linecap="butt" transform="matrix(1,0,0,1,-129,-109)" fill-opacity="0" fill="rgb(0,0,0)" text-rendering="geometricPrecision" shape-rendering="geometricPrecision" stroke="rgb(0,0,0)" stroke-opacity="0" stroke-miterlimit="1.45">
      <path d="M528.1547 369.029 C528.6993 371.17 527.4052 373.347 525.2643 373.8916 C523.1233 374.4362 520.9462 373.1421 520.4017 371.0012 C519.8571 368.8602 521.1512 366.6831 523.2921 366.1385 C525.4331 365.5939 527.6102 366.888 528.1547 369.029 Z" stroke="none" clip-path="url(#clipPath2)"/>
    </g>
    <g stroke-linecap="butt" transform="matrix(1,0,0,1,-129,-109)" fill="green" text-rendering="geometricPrecision" shape-rendering="geometricPrecision" stroke="green" stroke-miterlimit="1.45">
      <path fill="none" d="M528.1547 369.029 C528.6993 371.17 527.4052 373.347 525.2643 373.8916 C523.1233 374.4362 520.9462 373.1421 520.4017 371.0012 C519.8571 368.8602 521.1512 366.6831 523.2921 366.1385 C525.4331 365.5939 527.6102 366.888 528.1547 369.029 Z" clip-path="url(#clipPath2)"/>
      <path fill="white" d="M295.3369 428.2505 L312.3222 430.121 L309.364 418.4914 Z" clip-path="url(#clipPath2)" stroke="none"/>
      <path fill="none" d="M295.3369 428.2505 L312.3222 430.121 L309.364 418.4914 Z" clip-path="url(#clipPath2)"/>
      <rect x="340.128" y="389.8505" clip-path="url(#clipPath2)" fill="white" width="141.0566" height="18.1328" stroke="none"/>
      <text x="342.128" xml:space="preserve" y="403.452" clip-path="url(#clipPath2)" font-family="sans-serif" stroke="none">dcat:keyword (optional)</text>
      <path fill="none" d="M520.2791 437.851 L306.0815 442.3415" clip-path="url(#clipPath2)"/>
    </g>
    <g stroke-linecap="butt" transform="matrix(1,0,0,1,-129,-109)" fill-opacity="0" fill="rgb(0,0,0)" text-rendering="geometricPrecision" shape-rendering="geometricPrecision" stroke="rgb(0,0,0)" stroke-opacity="0" stroke-miterlimit="1.45">
      <path d="M528.2774 437.6832 C528.3237 439.8919 526.5708 441.7199 524.3621 441.7662 C522.1534 441.8125 520.3254 440.0596 520.2791 437.851 C520.2328 435.6423 521.9857 433.8143 524.1944 433.768 C526.4031 433.7216 528.2311 435.4746 528.2774 437.6832 Z" stroke="none" clip-path="url(#clipPath2)"/>
    </g>
    <g stroke-linecap="butt" transform="matrix(1,0,0,1,-129,-109)" fill="green" text-rendering="geometricPrecision" shape-rendering="geometricPrecision" stroke="green" stroke-miterlimit="1.45">
      <path fill="none" d="M528.2774 437.6832 C528.3237 439.8919 526.5708 441.7199 524.3621 441.7662 C522.1534 441.8125 520.3254 440.0596 520.2791 437.851 C520.2328 435.6423 521.9857 433.8143 524.1944 433.768 C526.4031 433.7216 528.2311 435.4746 528.2774 437.6832 Z" clip-path="url(#clipPath2)"/>
      <path fill="white" d="M291.0847 442.6559 L307.207 448.3192 L306.9555 436.3218 Z" clip-path="url(#clipPath2)" stroke="none"/>
      <path fill="none" d="M291.0847 442.6559 L307.207 448.3192 L306.9555 436.3218 Z" clip-path="url(#clipPath2)"/>
      <rect x="340.128" y="431.0827" clip-path="url(#clipPath2)" fill="white" width="141.0566" height="18.1328" stroke="none"/>
      <text x="342.128" xml:space="preserve" y="444.6843" clip-path="url(#clipPath2)" font-family="sans-serif" stroke="none">dcat:keyword (optional)</text>
      <path fill="none" d="M514.339 503.4076 L302.0739 458.3142" clip-path="url(#clipPath2)"/>
    </g>
    <g stroke-linecap="butt" transform="matrix(1,0,0,1,-129,-109)" fill-opacity="0" fill="rgb(0,0,0)" text-rendering="geometricPrecision" shape-rendering="geometricPrecision" stroke="rgb(0,0,0)" stroke-opacity="0" stroke-miterlimit="1.45">
      <path d="M522.1643 505.07 C521.7053 507.231 519.5814 508.6106 517.4205 508.1515 C515.2595 507.6924 513.8799 505.5685 514.339 503.4076 C514.798 501.2467 516.9219 499.8671 519.0828 500.3261 C521.2438 500.7852 522.6234 502.9091 522.1643 505.07 Z" stroke="none" clip-path="url(#clipPath2)"/>
    </g>
    <g stroke-linecap="butt" transform="matrix(1,0,0,1,-129,-109)" fill="green" text-rendering="geometricPrecision" shape-rendering="geometricPrecision" stroke="green" stroke-miterlimit="1.45">
      <path fill="none" d="M522.1643 505.07 C521.7053 507.231 519.5814 508.6106 517.4205 508.1515 C515.2595 507.6924 513.8799 505.5685 514.339 503.4076 C514.798 501.2467 516.9219 499.8671 519.0828 500.3261 C521.2438 500.7852 522.6234 502.9091 522.1643 505.07 Z" clip-path="url(#clipPath2)"/>
      <path fill="white" d="M287.4013 455.1971 L301.8052 464.391 L304.2988 452.653 Z" clip-path="url(#clipPath2)" stroke="none"/>
      <path fill="none" d="M287.4013 455.1971 L301.8052 464.391 L304.2988 452.653 Z" clip-path="url(#clipPath2)"/>
      <rect x="337.128" y="471.6776" clip-path="url(#clipPath2)" fill="white" width="141.0566" height="18.1328" stroke="none"/>
      <text x="339.128" xml:space="preserve" y="485.2792" clip-path="url(#clipPath2)" font-family="sans-serif" stroke="none">dcat:keyword (optional)</text>
      <path fill="none" d="M1091.467 407.3641 L1091.467 370.8526" clip-path="url(#clipPath2)" stroke="black"/>
      <path fill="black" d="M1091.467 362.8526 L1086.467 374.8526 L1091.467 371.8526 L1096.467 374.8526 Z" clip-path="url(#clipPath2)" stroke="none"/>
      <path fill="none" d="M234 422.3817 L234 400.3526" clip-path="url(#clipPath2)" stroke="black"/>
      <path fill="black" d="M234 392.3526 L229 404.3526 L234 401.3526 L239 404.3526 Z" clip-path="url(#clipPath2)" stroke="none"/>
    </g>
  </g>
</svg>
