<?xml version="1.0" encoding="UTF-8"?><svg xmlns="http://www.w3.org/2000/svg" xmlns:xlink="http://www.w3.org/1999/xlink" fill-opacity="1" color-rendering="auto" color-interpolation="auto" text-rendering="auto" stroke="black" stroke-linecap="square" width="941" stroke-miterlimit="10" shape-rendering="auto" stroke-opacity="1" fill="black" stroke-dasharray="none" font-weight="normal" stroke-width="1" height="734" font-family="'Dialog'" font-style="normal" stroke-linejoin="miter" font-size="12px" stroke-dashoffset="0" image-rendering="auto">
  <!--Generated by ySVG 2.6-->
  <defs id="genericDefs"/>
  <g>
    <defs id="defs1">
      <clipPath clipPathUnits="userSpaceOnUse" id="clipPath1">
        <path d="M0 0 L941 0 L941 734 L0 734 L0 0 Z"/>
      </clipPath>
      <clipPath clipPathUnits="userSpaceOnUse" id="clipPath2">
        <path d="M822 407 L1763 407 L1763 1141 L822 1141 L822 407 Z"/>
      </clipPath>
      <clipPath clipPathUnits="userSpaceOnUse" id="clipPath3">
        <path d="M818 403 L1759 403 L1759 1137 L818 1137 L818 403 Z"/>
      </clipPath>
    </defs>
    <g fill="white" text-rendering="geometricPrecision" shape-rendering="geometricPrecision" transform="translate(-822,-407)" stroke="white">
      <rect x="822" width="941" height="734" y="407" clip-path="url(#clipPath2)" stroke="none"/>
    </g>
    <g fill="yellow" text-rendering="geometricPrecision" shape-rendering="geometricPrecision" transform="matrix(1,0,0,1,-822,-407)" stroke="yellow">
      <rect x="1199.2235" y="616.7559" clip-path="url(#clipPath2)" width="200" rx="4" ry="4" height="58" stroke="none"/>
    </g>
    <g font-size="16px" stroke-linecap="butt" transform="matrix(1,0,0,1,-822,-407)" text-rendering="geometricPrecision" font-family="sans-serif" shape-rendering="geometricPrecision" stroke-miterlimit="1.45">
      <text x="1250.8016" xml:space="preserve" y="651.8027" clip-path="url(#clipPath2)" stroke="none">dcat:Dataset</text>
      <rect x="1199.2235" y="616.7559" clip-path="url(#clipPath2)" fill="none" width="200" rx="4" ry="4" height="58"/>
    </g>
    <g fill="yellow" text-rendering="geometricPrecision" shape-rendering="geometricPrecision" transform="matrix(1,0,0,1,-822,-407)" stroke="yellow">
      <rect x="1199.2235" y="422.9032" clip-path="url(#clipPath2)" width="200" rx="4" ry="4" height="58" stroke="none"/>
    </g>
    <g font-size="16px" stroke-linecap="butt" transform="matrix(1,0,0,1,-822,-407)" text-rendering="geometricPrecision" font-family="sans-serif" shape-rendering="geometricPrecision" stroke-miterlimit="1.45">
      <text x="1235.2821" xml:space="preserve" y="457.9501" clip-path="url(#clipPath2)" stroke="none">dcat:DataService</text>
      <rect x="1199.2235" y="422.9032" clip-path="url(#clipPath2)" fill="none" width="200" rx="4" ry="4" height="58"/>
    </g>
    <g fill="yellow" text-rendering="geometricPrecision" shape-rendering="geometricPrecision" transform="matrix(1,0,0,1,-822,-407)" stroke="yellow">
      <rect x="1196.7394" y="819.1851" clip-path="url(#clipPath2)" width="204.9682" rx="4" ry="4" height="58" stroke="none"/>
    </g>
    <g font-size="16px" stroke-linecap="butt" transform="matrix(1,0,0,1,-822,-407)" text-rendering="geometricPrecision" font-family="sans-serif" shape-rendering="geometricPrecision" stroke-miterlimit="1.45">
      <text x="1250.7821" xml:space="preserve" y="854.232" clip-path="url(#clipPath2)" stroke="none">prov:Activity</text>
      <rect x="1196.7394" y="819.1851" clip-path="url(#clipPath2)" fill="none" width="204.9682" rx="4" ry="4" height="58"/>
    </g>
    <g fill="yellow" text-rendering="geometricPrecision" shape-rendering="geometricPrecision" transform="matrix(1,0,0,1,-822,-407)" stroke="yellow">
      <rect x="1588.8511" y="616.7559" clip-path="url(#clipPath2)" width="154.9841" rx="4" ry="4" height="58" stroke="none"/>
    </g>
    <g font-size="16px" stroke-linecap="butt" transform="matrix(1,0,0,1,-822,-407)" text-rendering="geometricPrecision" font-family="sans-serif" shape-rendering="geometricPrecision" stroke-miterlimit="1.45">
      <text x="1614.0697" xml:space="preserve" y="651.8027" clip-path="url(#clipPath2)" stroke="none">skos:Concept</text>
      <rect x="1588.8511" y="616.7559" clip-path="url(#clipPath2)" fill="none" width="154.9841" rx="4" ry="4" height="58"/>
    </g>
    <g stroke-linecap="butt" transform="matrix(1,0,0,1,-822,-407)" fill="navy" text-rendering="geometricPrecision" shape-rendering="geometricPrecision" stroke="navy" stroke-miterlimit="1.45">
      <path fill="none" d="M1333.1581 612.8501 L1333.1732 612.7512 L1333.2235 611.7559 L1333.048 608.2795 L1332.5327 604.9036 L1331.6949 601.6453 L1330.5516 598.5215 L1329.1199 595.5494 L1327.4169 592.7461 L1325.4596 590.1287 L1323.2651 587.7142 L1320.8507 585.5198 L1318.2333 583.5625 L1315.4299 581.8595 L1312.4579 580.4277 L1309.3341 579.2844 L1306.0757 578.4466 L1302.6998 577.9314 L1299.2235 577.7559 L1295.7472 577.9314 L1292.3713 578.4466 L1289.1129 579.2844 L1285.9891 580.4277 L1283.0171 581.8595 L1280.2137 583.5626 L1277.5963 585.5198 L1275.1819 587.7142 L1272.9874 590.1287 L1271.0302 592.7462 L1269.3271 595.5494 L1267.8954 598.5215 L1266.7521 601.6453 L1265.9143 604.9037 L1265.7871 605.7367 L1265.7898 605.8367" clip-path="url(#clipPath2)"/>
      <path d="M1332.4615 620.8197 C1330.2607 620.6274 1328.6327 618.6874 1328.825 616.4866 C1329.0173 614.2859 1330.9574 612.6577 1333.1581 612.8501 C1335.3589 613.0424 1336.9869 614.9824 1336.7947 617.1832 C1336.6023 619.3839 1334.6622 621.0121 1332.4615 620.8197 Z" clip-path="url(#clipPath2)" stroke="none"/>
      <path d="M1265.6271 616.8354 L1271.804 604.9255 L1259.8053 604.748 Z" clip-path="url(#clipPath2)" stroke="none"/>
      <rect x="1263.9979" y="583.6269" clip-path="url(#clipPath2)" fill="white" width="70.4512" height="18.1328" stroke="none"/>
      <text x="1265.9979" xml:space="preserve" y="597.2285" clip-path="url(#clipPath2)" font-family="sans-serif" stroke="none">dct:relation</text>
      <path fill="none" d="M1375.1558 484.9171 L1375.1558 605.7395" clip-path="url(#clipPath2)"/>
      <path d="M1375.1558 476.9171 C1377.3649 476.9171 1379.1558 478.7079 1379.1558 480.9171 C1379.1558 483.1262 1377.3649 484.9171 1375.1558 484.9171 C1372.9467 484.9171 1371.1558 483.1262 1371.1558 480.9171 C1371.1558 478.7079 1372.9467 476.9171 1375.1558 476.9171 Z" clip-path="url(#clipPath2)" stroke="none"/>
      <path d="M1375.1558 616.7395 L1381.1558 604.7395 L1369.1558 604.7395 Z" clip-path="url(#clipPath2)" stroke="none"/>
      <rect x="1318.4761" y="539.7631" clip-path="url(#clipPath2)" fill="white" width="113.3594" height="18.1328" stroke="none"/>
      <text x="1320.4761" xml:space="preserve" y="553.3647" clip-path="url(#clipPath2)" font-family="sans-serif" stroke="none">dcat:servesDataset</text>
      <path fill="none" d="M1360.8997 678.7643 L1360.8997 808.16" clip-path="url(#clipPath2)"/>
      <path d="M1360.8997 670.7643 C1363.1088 670.7643 1364.8997 672.5551 1364.8997 674.7643 C1364.8997 676.9734 1363.1088 678.7643 1360.8997 678.7643 C1358.6906 678.7643 1356.8997 676.9734 1356.8997 674.7643 C1356.8997 672.5551 1358.6906 670.7643 1360.8997 670.7643 Z" clip-path="url(#clipPath2)" stroke="none"/>
      <path d="M1360.8997 819.16 L1366.8997 807.16 L1354.8997 807.16 Z" clip-path="url(#clipPath2)" stroke="none"/>
      <rect x="1296.5207" y="757.328" clip-path="url(#clipPath2)" fill="white" width="128.7578" height="18.1328" stroke="none"/>
      <text x="1298.5208" xml:space="preserve" y="770.9296" clip-path="url(#clipPath2)" font-family="sans-serif" stroke="none">prov:wasGeneratedBy</text>
      <path fill="none" d="M1264.9734 881.02 L1264.9513 881.1176 L1264.494 884.7924 L1264.3995 888.8015 L1264.7157 892.8766 L1265.4407 896.8991 L1266.5464 900.7538 L1268.0101 904.4234 L1269.8096 907.8904 L1271.9222 911.1376 L1274.3256 914.1475 L1276.9972 916.9029 L1279.9146 919.3864 L1283.0553 921.5806 L1286.397 923.4683 L1289.917 925.032 L1293.593 926.2545 L1297.4025 927.1183 L1301.323 927.6061 L1305.332 927.7006 L1309.4071 927.3845 L1313.4297 926.6594 L1317.2844 925.5537 L1320.954 924.09 L1324.421 922.2905 L1327.6681 920.1779 L1330.6781 917.7745 L1333.4335 915.1029 L1335.917 912.1855 L1338.1112 909.0447 L1339.9989 905.7031 L1341.5626 902.183 L1342.785 898.5071 L1343.6488 894.6976 L1344.1367 890.7771 L1344.1998 888.101 L1344.1847 888.0021" clip-path="url(#clipPath2)"/>
      <path d="M1266.6934 873.2072 C1268.8508 873.6821 1270.2148 875.8161 1269.7399 877.9736 C1269.2649 880.131 1267.1309 881.495 1264.9734 881.02 C1262.8159 880.545 1261.4519 878.4111 1261.9269 876.2536 C1262.4019 874.0961 1264.5359 872.7322 1266.6934 873.2072 Z" clip-path="url(#clipPath2)" stroke="none"/>
      <path d="M1342.7537 877.0956 L1338.3657 889.7742 L1350.2638 888.2131 Z" clip-path="url(#clipPath2)" stroke="none"/>
      <rect x="1245.7449" y="897.7809" clip-path="url(#clipPath2)" fill="white" width="122.043" height="18.1328" stroke="none"/>
      <text x="1247.745" xml:space="preserve" y="911.3824" clip-path="url(#clipPath2)" font-family="sans-serif" stroke="none">prov:wasInformedBy</text>
      <path fill="none" d="M1249.738 815.1558 L1249.738 685.7775" clip-path="url(#clipPath2)"/>
      <path d="M1249.738 823.1558 C1247.5289 823.1558 1245.738 821.3649 1245.738 819.1558 C1245.738 816.9466 1247.5289 815.1558 1249.738 815.1558 C1251.9471 815.1558 1253.738 816.9466 1253.738 819.1558 C1253.738 821.3649 1251.9471 823.1558 1249.738 823.1558 Z" clip-path="url(#clipPath2)" stroke="none"/>
      <path d="M1249.738 674.7775 L1243.738 686.7775 L1255.738 686.7775 Z" clip-path="url(#clipPath2)" stroke="none"/>
      <rect x="1186.4871" y="712.4102" clip-path="url(#clipPath2)" fill="white" width="126.502" height="18.1328" stroke="none"/>
      <text x="1188.4871" xml:space="preserve" y="726.0117" clip-path="url(#clipPath2)" font-family="sans-serif" stroke="none">prov:used/generated</text>
      <path fill="none" d="M1249.738 815.1625 L1249.738 737.7816 L1164.8134 737.7816 L1164.8134 477.5 L1188.2362 477.5" clip-path="url(#clipPath2)"/>
      <path d="M1249.738 823.1625 C1247.5289 823.1625 1245.738 821.3717 1245.738 819.1625 C1245.738 816.9534 1247.5289 815.1625 1249.738 815.1625 C1251.9471 815.1625 1253.738 816.9534 1253.738 819.1625 C1253.738 821.3717 1251.9471 823.1625 1249.738 823.1625 Z" clip-path="url(#clipPath2)" stroke="none"/>
      <path d="M1199.2362 477.5 L1187.2362 471.5 L1187.2362 483.5 Z" clip-path="url(#clipPath2)" stroke="none"/>
      <path fill="none" d="M1403.2527 645.7559 L1577.8226 645.7559" clip-path="url(#clipPath2)"/>
      <path d="M1395.2527 645.7559 C1395.2527 643.5467 1397.0436 641.7559 1399.2527 641.7559 C1401.4618 641.7559 1403.2527 643.5467 1403.2527 645.7559 C1403.2527 647.965 1401.4618 649.7559 1399.2527 649.7559 C1397.0436 649.7559 1395.2527 647.965 1395.2527 645.7559 Z" clip-path="url(#clipPath2)" stroke="none"/>
      <path d="M1588.8226 645.7559 L1576.8226 639.7559 L1576.8226 651.7559 Z" clip-path="url(#clipPath2)" stroke="none"/>
      <path fill="none" d="M1403.245 451.9032 L1478.1995 451.9032 L1478.1995 645.7559 L1577.8419 645.7559" clip-path="url(#clipPath2)"/>
      <path d="M1395.245 451.9032 C1395.245 449.6941 1397.0359 447.9032 1399.245 447.9032 C1401.4541 447.9032 1403.245 449.6941 1403.245 451.9032 C1403.245 454.1124 1401.4541 455.9032 1399.245 455.9032 C1397.0359 455.9032 1395.245 454.1124 1395.245 451.9032 Z" clip-path="url(#clipPath2)" stroke="none"/>
      <path d="M1588.8419 645.7559 L1576.8419 639.7559 L1576.8419 651.7559 Z" clip-path="url(#clipPath2)" stroke="none"/>
      <rect x="1438.5735" y="615.4902" clip-path="url(#clipPath2)" fill="white" width="79.252" height="60.5312" stroke="none"/>
      <text x="1445.6389" xml:space="preserve" y="629.0918" clip-path="url(#clipPath2)" font-family="sans-serif" stroke="none">dcat:theme</text>
      <text x="1454.7092" xml:space="preserve" y="643.2246" clip-path="url(#clipPath2)" font-family="sans-serif" stroke="none">dct:type</text>
      <text x="1440.5735" xml:space="preserve" y="657.3574" clip-path="url(#clipPath2)" font-family="sans-serif" stroke="none">dct:language</text>
      <text x="1447.1975" xml:space="preserve" y="671.4902" clip-path="url(#clipPath2)" font-family="sans-serif" stroke="none">dct:license</text>
      <path fill="none" d="M1405.7163 848.1851 L1666.3431 848.1851 L1666.3431 685.7816" clip-path="url(#clipPath2)"/>
      <path d="M1397.7163 848.1851 C1397.7163 845.976 1399.5072 844.1851 1401.7163 844.1851 C1403.9254 844.1851 1405.7163 845.976 1405.7163 848.1851 C1405.7163 850.3943 1403.9254 852.1851 1401.7163 852.1851 C1399.5072 852.1851 1397.7163 850.3943 1397.7163 848.1851 Z" clip-path="url(#clipPath2)" stroke="none"/>
      <path d="M1666.3431 674.7816 L1660.3431 686.7816 L1672.3431 686.7816 Z" clip-path="url(#clipPath2)" stroke="none"/>
      <rect x="1477.7727" y="824.9859" clip-path="url(#clipPath2)" fill="white" width="129.7539" height="46.3984" stroke="none"/>
      <text x="1510.6135" xml:space="preserve" y="838.5875" clip-path="url(#clipPath2)" font-family="sans-serif" stroke="none">dct:subject</text>
      <text x="1513.8274" xml:space="preserve" y="852.7203" clip-path="url(#clipPath2)" font-family="sans-serif" stroke="none">prov:used</text>
      <text x="1479.7727" xml:space="preserve" y="866.8531" clip-path="url(#clipPath2)" font-family="sans-serif" stroke="none">prov:wasInfluencedBy</text>
    </g>
    <g fill="rgb(210,210,210)" text-rendering="geometricPrecision" shape-rendering="geometricPrecision" transform="matrix(1,0,0,1,-822,-407) translate(4,4)" stroke="rgb(210,210,210)">
      <rect x="1271.4042" width="472.431" height="151.8294" y="969.2034" clip-path="url(#clipPath3)" stroke="none"/>
    </g>
    <g fill="white" text-rendering="geometricPrecision" shape-rendering="geometricPrecision" transform="matrix(1,0,0,1,-822,-407)" stroke="white">
      <rect x="1271.4042" width="472.431" height="151.8294" y="969.2034" clip-path="url(#clipPath2)" stroke="none"/>
      <rect x="1271.4042" y="969.2034" clip-path="url(#clipPath2)" fill="rgb(183,182,158)" width="472.431" height="21.666" stroke="none"/>
    </g>
    <g font-size="15px" stroke-linecap="butt" transform="matrix(1,0,0,1,-822,-407)" text-rendering="geometricPrecision" font-family="sans-serif" shape-rendering="geometricPrecision" font-weight="bold" stroke-miterlimit="1.45">
      <text x="1664.9675" xml:space="preserve" y="985.7054" clip-path="url(#clipPath2)" stroke="none">Prefixes   </text>
      <rect fill="none" x="1271.4042" width="472.431" height="151.8294" y="969.2034" clip-path="url(#clipPath2)"/>
      <text x="1479.3889" font-size="16px" y="1023.3382" clip-path="url(#clipPath2)" stroke="none" font-weight="normal" xml:space="preserve">http://www.w3.org/ns/dcat#</text>
      <text x="1479.3889" font-size="16px" y="1042.182" clip-path="url(#clipPath2)" stroke="none" font-weight="normal" xml:space="preserve">http://www.w3.org/ns/prov#</text>
      <text x="1479.3889" font-size="16px" y="1061.0258" clip-path="url(#clipPath2)" stroke="none" font-weight="normal" xml:space="preserve">http://xmlns.com/foaf/0.1/</text>
      <text x="1479.3889" font-size="16px" y="1079.8695" clip-path="url(#clipPath2)" stroke="none" font-weight="normal" xml:space="preserve">http://purl.org/dc/terms/</text>
      <text x="1479.3889" font-size="16px" y="1098.7133" clip-path="url(#clipPath2)" stroke="none" font-weight="normal" xml:space="preserve">http://dbpedia.org/ontology/</text>
      <text x="1299.2019" xml:space="preserve" font-size="16px" y="1023.3382" clip-path="url(#clipPath2)" stroke="none">dcat:</text>
      <text x="1299.2019" xml:space="preserve" font-size="16px" y="1042.182" clip-path="url(#clipPath2)" stroke="none">prov:</text>
      <text x="1299.2019" xml:space="preserve" font-size="16px" y="1061.0258" clip-path="url(#clipPath2)" stroke="none">foaf:</text>
      <text x="1299.2019" xml:space="preserve" font-size="16px" y="1079.8695" clip-path="url(#clipPath2)" stroke="none">dct:</text>
      <text x="1299.2019" xml:space="preserve" font-size="16px" y="1098.7133" clip-path="url(#clipPath2)" stroke="none">dbo:</text>
    </g>
    <g fill="rgb(204,255,204)" text-rendering="geometricPrecision" shape-rendering="geometricPrecision" transform="matrix(1,0,0,1,-822,-407)" stroke="rgb(204,255,204)">
      <path d="M850.0009 631.756 L963.4864 631.756 L950.8769 674.756 L837.3914 674.756 Z" fill-rule="evenodd" clip-path="url(#clipPath2)" stroke="none"/>
    </g>
    <g font-size="16px" stroke-linecap="butt" transform="matrix(1,0,0,1,-822,-407)" text-rendering="geometricPrecision" font-family="sans-serif" shape-rendering="geometricPrecision" stroke-miterlimit="1.45">
      <text x="865.9545" xml:space="preserve" y="659.3027" clip-path="url(#clipPath2)" stroke="none">Datatype</text>
      <path fill="none" d="M850.0009 631.756 L963.4864 631.756 L950.8769 674.756 L837.3914 674.756 Z" fill-rule="evenodd" clip-path="url(#clipPath2)"/>
    </g>
    <g stroke-linecap="butt" transform="matrix(1,0,0,1,-822,-407)" fill="navy" text-rendering="geometricPrecision" shape-rendering="geometricPrecision" stroke="navy" stroke-miterlimit="1.45">
      <path fill="none" d="M1192.7268 848.1851 L900.4388 848.1851 L900.4388 685.719" clip-path="url(#clipPath2)"/>
      <path d="M1200.7268 848.1851 C1200.7268 850.3943 1198.9359 852.1851 1196.7268 852.1851 C1194.5177 852.1851 1192.7268 850.3943 1192.7268 848.1851 C1192.7268 845.976 1194.5177 844.1851 1196.7268 844.1851 C1198.9359 844.1851 1200.7268 845.976 1200.7268 848.1851 Z" clip-path="url(#clipPath2)" stroke="none"/>
      <path d="M900.4388 674.719 L894.4388 686.719 L906.4388 686.719 Z" clip-path="url(#clipPath2)" stroke="none"/>
      <rect x="971.8489" y="803.7867" clip-path="url(#clipPath2)" fill="white" width="144.3555" height="88.7969" stroke="none"/>
      <text x="992.0569" xml:space="preserve" y="817.3882" clip-path="url(#clipPath2)" font-family="sans-serif" stroke="none">dbo:currentStatus</text>
      <text x="1000.1897" xml:space="preserve" y="831.5211" clip-path="url(#clipPath2)" font-family="sans-serif" stroke="none">foaf:homepage</text>
      <text x="989.2561" xml:space="preserve" y="845.6539" clip-path="url(#clipPath2)" font-family="sans-serif" stroke="none">dct:isReferencedBy</text>
      <text x="998.8889" xml:space="preserve" y="859.7867" clip-path="url(#clipPath2)" font-family="sans-serif" stroke="none">prov:atLocation</text>
      <text x="973.8489" xml:space="preserve" y="873.9195" clip-path="url(#clipPath2)" font-family="sans-serif" stroke="none">prov:wasAssociatedWith</text>
      <text x="1000.2336" xml:space="preserve" y="888.0523" clip-path="url(#clipPath2)" font-family="sans-serif" stroke="none">dct:contributor</text>
      <path fill="none" d="M1195.2074 645.7559 L970.3926 645.7559" clip-path="url(#clipPath2)"/>
      <path d="M1203.2074 645.7559 C1203.2074 647.965 1201.4165 649.7559 1199.2074 649.7559 C1196.9983 649.7559 1195.2074 647.965 1195.2074 645.7559 C1195.2074 643.5467 1196.9983 641.7559 1199.2074 641.7559 C1201.4165 641.7559 1203.2074 643.5467 1203.2074 645.7559 Z" clip-path="url(#clipPath2)" stroke="none"/>
      <path d="M959.3926 645.7559 L971.3926 651.7559 L971.3926 639.7559 Z" clip-path="url(#clipPath2)" stroke="none"/>
      <rect x="1017.3217" y="615.4902" clip-path="url(#clipPath2)" fill="white" width="128.0664" height="60.5312" stroke="none"/>
      <text x="1033.1587" xml:space="preserve" y="629.0918" clip-path="url(#clipPath2)" font-family="sans-serif" stroke="none">dcat:distribution</text>
      <text x="1019.3217" xml:space="preserve" y="643.2246" clip-path="url(#clipPath2)" font-family="sans-serif" stroke="none">dct:creator/publisher</text>
      <text x="1026.5845" xml:space="preserve" y="657.3574" clip-path="url(#clipPath2)" font-family="sans-serif" stroke="none">dct:isReferencedBy</text>
      <text x="1031.5884" xml:space="preserve" y="671.4902" clip-path="url(#clipPath2)" font-family="sans-serif" stroke="none">dcat:landingPage</text>
      <path fill="none" d="M1195.2041 451.9032 L900.4388 451.9032 L900.4388 620.7737" clip-path="url(#clipPath2)"/>
      <path d="M1203.2041 451.9032 C1203.2041 454.1124 1201.4132 455.9032 1199.2041 455.9032 C1196.995 455.9032 1195.2041 454.1124 1195.2041 451.9032 C1195.2041 449.6941 1196.995 447.9032 1199.2041 447.9032 C1201.4132 447.9032 1203.2041 449.6941 1203.2041 451.9032 Z" clip-path="url(#clipPath2)" stroke="none"/>
      <path d="M900.4388 631.7737 L906.4388 619.7737 L894.4388 619.7737 Z" clip-path="url(#clipPath2)" stroke="none"/>
      <rect x="991.8058" y="442.8368" clip-path="url(#clipPath2)" fill="white" width="106.9258" height="18.1328" stroke="none"/>
      <text x="993.8058" xml:space="preserve" y="456.4384" clip-path="url(#clipPath2)" font-family="sans-serif" stroke="none">dcat:endpointURL</text>
    </g>
  </g>
</svg>
