<?xml version="1.0" encoding="UTF-8"?><svg xmlns="http://www.w3.org/2000/svg" xmlns:xlink="http://www.w3.org/1999/xlink" fill-opacity="1" color-rendering="auto" color-interpolation="auto" text-rendering="auto" stroke="black" stroke-linecap="square" width="1225" stroke-miterlimit="10" shape-rendering="auto" stroke-opacity="1" fill="black" stroke-dasharray="none" font-weight="normal" stroke-width="1" height="944" font-family="'Dialog'" font-style="normal" stroke-linejoin="miter" font-size="12px" stroke-dashoffset="0" image-rendering="auto">
  <!--Generated by ySVG 2.6-->
  <defs id="genericDefs"/>
  <g>
    <defs id="defs1">
      <clipPath clipPathUnits="userSpaceOnUse" id="clipPath1">
        <path d="M0 0 L1225 0 L1225 944 L0 944 L0 0 Z"/>
      </clipPath>
      <clipPath clipPathUnits="userSpaceOnUse" id="clipPath2">
        <path d="M600 287 L1825 287 L1825 1231 L600 1231 L600 287 Z"/>
      </clipPath>
      <clipPath clipPathUnits="userSpaceOnUse" id="clipPath3">
        <path d="M-208.5988 585.5734 L-208.5988 -639.4266 L735.4012 -639.4266 L735.4012 585.5734 L-208.5988 585.5734 Z"/>
      </clipPath>
      <clipPath clipPathUnits="userSpaceOnUse" id="clipPath4">
        <path d="M-65.1394 565.7425 L-65.1394 -659.2575 L878.8606 -659.2575 L878.8606 565.7425 L-65.1394 565.7425 Z"/>
      </clipPath>
      <clipPath clipPathUnits="userSpaceOnUse" id="clipPath5">
        <path d="M596 283 L1821 283 L1821 1227 L596 1227 L596 283 Z"/>
      </clipPath>
      <clipPath clipPathUnits="userSpaceOnUse" id="clipPath6">
        <path d="M-350.4695 532.0664 L-350.4695 -692.9336 L593.5305 -692.9336 L593.5305 532.0664 L-350.4695 532.0664 Z"/>
      </clipPath>
      <clipPath clipPathUnits="userSpaceOnUse" id="clipPath7">
        <path d="M-362.5907 246.7086 L-362.5907 -978.2914 L581.4093 -978.2914 L581.4093 246.7086 L-362.5907 246.7086 Z"/>
      </clipPath>
      <clipPath clipPathUnits="userSpaceOnUse" id="clipPath8">
        <path d="M-331.8642 497.5295 L-331.8642 -727.4705 L612.1359 -727.4705 L612.1359 497.5295 L-331.8642 497.5295 Z"/>
      </clipPath>
    </defs>
    <g fill="white" text-rendering="geometricPrecision" shape-rendering="geometricPrecision" transform="translate(-600,-287)" stroke="white">
      <rect x="600" width="1225" height="944" y="287" clip-path="url(#clipPath2)" stroke="none"/>
    </g>
    <g fill="yellow" text-rendering="geometricPrecision" shape-rendering="geometricPrecision" transform="matrix(1,0,0,1,-600,-287)" stroke="yellow">
      <rect x="1199.2235" y="543.3295" clip-path="url(#clipPath2)" width="200" rx="4" ry="4" height="58" stroke="none"/>
    </g>
    <g font-size="16px" stroke-linecap="butt" transform="matrix(1,0,0,1,-600,-287)" text-rendering="geometricPrecision" font-family="sans-serif" shape-rendering="geometricPrecision" stroke-miterlimit="1.45">
      <text x="1250.5712" xml:space="preserve" y="578.3764" clip-path="url(#clipPath2)" stroke="none">dcat:Catalog</text>
      <rect x="1199.2235" y="543.3295" clip-path="url(#clipPath2)" fill="none" width="200" rx="4" ry="4" height="58"/>
    </g>
    <g fill="yellow" text-rendering="geometricPrecision" shape-rendering="geometricPrecision" transform="matrix(1,0,0,1,-600,-287)" stroke="yellow">
      <rect x="1199.2235" y="663.7559" clip-path="url(#clipPath2)" width="200" rx="4" ry="4" height="58" stroke="none"/>
    </g>
    <g font-size="16px" stroke-linecap="butt" transform="matrix(1,0,0,1,-600,-287)" text-rendering="geometricPrecision" font-family="sans-serif" shape-rendering="geometricPrecision" stroke-miterlimit="1.45">
      <text x="1250.8016" xml:space="preserve" y="698.8027" clip-path="url(#clipPath2)" stroke="none">dcat:Dataset</text>
      <rect x="1199.2235" y="663.7559" clip-path="url(#clipPath2)" fill="none" width="200" rx="4" ry="4" height="58"/>
    </g>
    <g fill="yellow" text-rendering="geometricPrecision" shape-rendering="geometricPrecision" transform="matrix(1,0,0,1,-600,-287)" stroke="yellow">
      <rect x="1199.2235" y="422.9032" clip-path="url(#clipPath2)" width="200" rx="4" ry="4" height="58" stroke="none"/>
    </g>
    <g font-size="16px" stroke-linecap="butt" transform="matrix(1,0,0,1,-600,-287)" text-rendering="geometricPrecision" font-family="sans-serif" shape-rendering="geometricPrecision" stroke-miterlimit="1.45">
      <text x="1235.2821" xml:space="preserve" y="457.9501" clip-path="url(#clipPath2)" stroke="none">dcat:DataService</text>
      <rect x="1199.2235" y="422.9032" clip-path="url(#clipPath2)" fill="none" width="200" rx="4" ry="4" height="58"/>
    </g>
    <g fill="yellow" text-rendering="geometricPrecision" shape-rendering="geometricPrecision" transform="matrix(1,0,0,1,-600,-287)" stroke="yellow">
      <rect x="1199.2235" y="302.4769" clip-path="url(#clipPath2)" width="200" rx="4" ry="4" height="58" stroke="none"/>
    </g>
    <g font-size="16px" stroke-linecap="butt" transform="matrix(1,0,0,1,-600,-287)" text-rendering="geometricPrecision" font-family="sans-serif" shape-rendering="geometricPrecision" stroke-miterlimit="1.45">
      <text x="1234.0048" xml:space="preserve" y="337.5238" clip-path="url(#clipPath2)" stroke="none">dcat:Distribution</text>
      <rect x="1199.2235" y="302.4769" clip-path="url(#clipPath2)" fill="none" width="200" rx="4" ry="4" height="58"/>
    </g>
    <g fill="yellow" text-rendering="geometricPrecision" shape-rendering="geometricPrecision" transform="matrix(1,0,0,1,-600,-287)" stroke="yellow">
      <rect x="1196.7394" y="798.6851" clip-path="url(#clipPath2)" width="204.9682" rx="4" ry="4" height="58" stroke="none"/>
    </g>
    <g font-size="16px" stroke-linecap="butt" transform="matrix(1,0,0,1,-600,-287)" text-rendering="geometricPrecision" font-family="sans-serif" shape-rendering="geometricPrecision" stroke-miterlimit="1.45">
      <text x="1250.7821" xml:space="preserve" y="833.732" clip-path="url(#clipPath2)" stroke="none">prov:Activity</text>
      <rect x="1196.7394" y="798.6851" clip-path="url(#clipPath2)" fill="none" width="204.9682" rx="4" ry="4" height="58"/>
    </g>
    <g fill="yellow" text-rendering="geometricPrecision" shape-rendering="geometricPrecision" transform="matrix(1,0,0,1,-600,-287)" stroke="yellow">
      <rect x="1588.8511" y="663.7559" clip-path="url(#clipPath2)" width="154.9841" rx="4" ry="4" height="58" stroke="none"/>
    </g>
    <g font-size="16px" stroke-linecap="butt" transform="matrix(1,0,0,1,-600,-287)" text-rendering="geometricPrecision" font-family="sans-serif" shape-rendering="geometricPrecision" stroke-miterlimit="1.45">
      <text x="1625.6752" xml:space="preserve" y="698.8027" clip-path="url(#clipPath2)" stroke="none">foaf:Agent</text>
      <rect x="1588.8511" y="663.7559" clip-path="url(#clipPath2)" fill="none" width="154.9841" rx="4" ry="4" height="58"/>
    </g>
    <g fill="yellow" text-rendering="geometricPrecision" shape-rendering="geometricPrecision" transform="matrix(1,0,0,1,-600,-287)" stroke="yellow">
      <rect x="1588.8511" y="422.9032" clip-path="url(#clipPath2)" width="154.9841" rx="4" ry="4" height="58" stroke="none"/>
    </g>
    <g font-size="16px" stroke-linecap="butt" transform="matrix(1,0,0,1,-600,-287)" text-rendering="geometricPrecision" font-family="sans-serif" shape-rendering="geometricPrecision" stroke-miterlimit="1.45">
      <text x="1614.0697" xml:space="preserve" y="457.9501" clip-path="url(#clipPath2)" stroke="none">skos:Concept</text>
      <rect x="1588.8511" y="422.9032" clip-path="url(#clipPath2)" fill="none" width="154.9841" rx="4" ry="4" height="58"/>
    </g>
    <g fill="yellow" text-rendering="geometricPrecision" shape-rendering="geometricPrecision" transform="matrix(1,0,0,1,-600,-287)" stroke="yellow">
      <rect x="1199.2235" y="933.6143" clip-path="url(#clipPath2)" width="200" rx="4" ry="4" height="58" stroke="none"/>
    </g>
    <g font-size="16px" stroke-linecap="butt" transform="matrix(1,0,0,1,-600,-287)" text-rendering="geometricPrecision" font-family="sans-serif" shape-rendering="geometricPrecision" stroke-miterlimit="1.45">
      <text x="1257.5516" xml:space="preserve" y="968.6612" clip-path="url(#clipPath2)" stroke="none">prov:Entity</text>
      <rect x="1199.2235" y="933.6143" clip-path="url(#clipPath2)" fill="none" width="200" rx="4" ry="4" height="58"/>
    </g>
    <g fill="yellow" text-rendering="geometricPrecision" shape-rendering="geometricPrecision" transform="matrix(1,0,0,1,-600,-287)" stroke="yellow">
      <rect x="1593.8352" y="873.3954" clip-path="url(#clipPath2)" width="150" rx="4" ry="4" height="58" stroke="none"/>
    </g>
    <g font-size="16px" stroke-linecap="butt" transform="matrix(1,0,0,1,-600,-287)" text-rendering="geometricPrecision" font-family="sans-serif" shape-rendering="geometricPrecision" stroke-miterlimit="1.45">
      <text x="1626.0188" xml:space="preserve" y="908.4423" clip-path="url(#clipPath2)" stroke="none">prov:Agent</text>
      <rect x="1593.8352" y="873.3954" clip-path="url(#clipPath2)" fill="none" width="150" rx="4" ry="4" height="58"/>
    </g>
    <g fill="yellow" text-rendering="geometricPrecision" shape-rendering="geometricPrecision" transform="matrix(1,0,0,1,-600,-287)" stroke="yellow">
      <rect x="1593.8352" y="798.6851" clip-path="url(#clipPath2)" width="150" rx="4" ry="4" height="58" stroke="none"/>
    </g>
    <g font-size="16px" stroke-linecap="butt" transform="matrix(1,0,0,1,-600,-287)" text-rendering="geometricPrecision" font-family="sans-serif" shape-rendering="geometricPrecision" stroke-miterlimit="1.45">
      <text x="1616.0618" xml:space="preserve" y="833.732" clip-path="url(#clipPath2)" stroke="none">prov:Location</text>
      <rect x="1593.8352" y="798.6851" clip-path="url(#clipPath2)" fill="none" width="150" rx="4" ry="4" height="58"/>
    </g>
    <g fill="yellow" text-rendering="geometricPrecision" shape-rendering="geometricPrecision" transform="matrix(1,0,0,1,-600,-287)" stroke="yellow">
      <rect x="1588.8511" y="543.3295" clip-path="url(#clipPath2)" width="154.9841" rx="4" ry="4" height="58" stroke="none"/>
    </g>
    <g font-size="16px" stroke-linecap="butt" transform="matrix(1,0,0,1,-600,-287)" text-rendering="geometricPrecision" font-family="sans-serif" shape-rendering="geometricPrecision" stroke-miterlimit="1.45">
      <text x="1618.808" xml:space="preserve" y="578.3764" clip-path="url(#clipPath2)" stroke="none">dct:Location</text>
      <rect x="1588.8511" y="543.3295" clip-path="url(#clipPath2)" fill="none" width="154.9841" rx="4" ry="4" height="58"/>
    </g>
    <g stroke-linecap="butt" transform="matrix(1,0,0,1,-600,-287)" fill="navy" text-rendering="geometricPrecision" shape-rendering="geometricPrecision" stroke="navy" stroke-miterlimit="1.45">
      <path fill="none" d="M1226.8264 605.3384 L1226.8264 652.7396" clip-path="url(#clipPath2)"/>
      <path d="M1226.8264 597.3384 C1229.0355 597.3384 1230.8264 599.1293 1230.8264 601.3384 C1230.8264 603.5476 1229.0355 605.3384 1226.8264 605.3384 C1224.6173 605.3384 1222.8264 603.5476 1222.8264 601.3384 C1222.8264 599.1293 1224.6173 597.3384 1226.8264 597.3384 Z" clip-path="url(#clipPath2)" stroke="none"/>
      <path d="M1226.8264 663.7396 L1232.8264 651.7396 L1220.8264 651.7396 Z" clip-path="url(#clipPath2)" stroke="none"/>
      <rect x="1189.2277" y="617.264" clip-path="url(#clipPath2)" fill="white" width="75.1973" height="18.1328" stroke="none"/>
      <text x="1191.2278" xml:space="preserve" y="630.8655" clip-path="url(#clipPath2)" font-family="sans-serif" stroke="none">dcat:dataset</text>
      <path fill="none" d="M1351.0159 601.3407 L1351.0159 655.7527" clip-path="url(#clipPath2)" stroke="black"/>
      <path fill="black" d="M1351.0159 663.7527 L1356.0159 651.7527 L1351.0159 654.7527 L1346.0159 651.7527 Z" clip-path="url(#clipPath2)" stroke="none"/>
      <rect x="1302.8792" y="623.4763" clip-path="url(#clipPath2)" fill="white" width="96.2734" height="18.1328" stroke="none"/>
      <text x="1304.8792" y="637.0779" clip-path="url(#clipPath2)" fill="black" font-family="sans-serif" stroke="none" xml:space="preserve">rdfs:subClassOf</text>
      <path fill="none" d="M1225.7825 539.3047 L1225.7825 491.9065" clip-path="url(#clipPath2)"/>
      <path d="M1225.7825 547.3047 C1223.5734 547.3047 1221.7825 545.5139 1221.7825 543.3047 C1221.7825 541.0956 1223.5734 539.3047 1225.7825 539.3047 C1227.9916 539.3047 1229.7825 541.0956 1229.7825 543.3047 C1229.7825 545.5139 1227.9916 547.3047 1225.7825 547.3047 Z" clip-path="url(#clipPath2)" stroke="none"/>
      <path d="M1225.7825 480.9065 L1219.7825 492.9065 L1231.7825 492.9065 Z" clip-path="url(#clipPath2)" stroke="none"/>
      <rect x="1189.3645" y="503.05" clip-path="url(#clipPath2)" fill="white" width="72.8359" height="18.1328" stroke="none"/>
      <text x="1191.3645" xml:space="preserve" y="516.6516" clip-path="url(#clipPath2)" font-family="sans-serif" stroke="none">dcat:service</text>
      <path fill="none" d="M1195.1962 451.9032 L1176.5071 451.9032 L1176.5071 667.3323 L1188.2257 667.3323" clip-path="url(#clipPath2)"/>
      <path d="M1203.1962 451.9032 C1203.1962 454.1124 1201.4053 455.9032 1199.1962 455.9032 C1196.9871 455.9032 1195.1962 454.1124 1195.1962 451.9032 C1195.1962 449.6941 1196.9871 447.9032 1199.1962 447.9032 C1201.4053 447.9032 1203.1962 449.6941 1203.1962 451.9032 Z" clip-path="url(#clipPath2)" stroke="none"/>
      <path d="M1199.2257 667.3323 L1187.2257 661.3323 L1187.2257 673.3323 Z" clip-path="url(#clipPath2)" stroke="none"/>
    </g>
    <g stroke-linecap="butt" transform="matrix(-0,1,-1,-0,585.5734,208.5988)" fill="white" text-rendering="geometricPrecision" shape-rendering="geometricPrecision" stroke="white" stroke-miterlimit="1.45">
      <rect x="0" width="113.3594" height="18.1328" y="0" clip-path="url(#clipPath3)" stroke="none"/>
      <text x="2" y="13.6016" clip-path="url(#clipPath3)" fill="navy" font-family="sans-serif" stroke="none" xml:space="preserve">dcat:servesDataset</text>
    </g>
    <g stroke-linecap="butt" transform="matrix(1,0,0,1,-600,-287)" fill="navy" text-rendering="geometricPrecision" shape-rendering="geometricPrecision" stroke="navy" stroke-miterlimit="1.45">
      <path fill="none" d="M1195.2146 679.1891 L1156.6761 679.1891 L1156.6761 331.4769 L1188.1991 331.4769" clip-path="url(#clipPath2)"/>
      <path d="M1203.2146 679.1891 C1203.2146 681.3983 1201.4237 683.1891 1199.2146 683.1891 C1197.0055 683.1891 1195.2146 681.3983 1195.2146 679.1891 C1195.2146 676.98 1197.0055 675.1891 1199.2146 675.1891 C1201.4237 675.1891 1203.2146 676.98 1203.2146 679.1891 Z" clip-path="url(#clipPath2)" stroke="none"/>
      <path d="M1199.1991 331.4769 L1187.1991 325.4769 L1187.1991 337.4769 Z" clip-path="url(#clipPath2)" stroke="none"/>
    </g>
    <g stroke-linecap="butt" transform="matrix(-0,1,-1,-0,565.7425,65.1394)" fill="white" text-rendering="geometricPrecision" shape-rendering="geometricPrecision" stroke="white" stroke-miterlimit="1.45">
      <rect x="0" width="100.3926" height="18.1328" y="0" clip-path="url(#clipPath4)" stroke="none"/>
      <text x="2" y="13.6016" clip-path="url(#clipPath4)" fill="navy" font-family="sans-serif" stroke="none" xml:space="preserve">dcat:distribution</text>
    </g>
    <g stroke-linecap="butt" transform="matrix(1,0,0,1,-600,-287)" fill="navy" text-rendering="geometricPrecision" shape-rendering="geometricPrecision" stroke="navy" stroke-miterlimit="1.45">
      <path fill="none" d="M1299.2235 364.4908 L1299.2235 411.8893" clip-path="url(#clipPath2)"/>
      <path d="M1299.2235 356.4908 C1301.4326 356.4908 1303.2235 358.2817 1303.2235 360.4908 C1303.2235 362.7 1301.4326 364.4908 1299.2235 364.4908 C1297.0144 364.4908 1295.2235 362.7 1295.2235 360.4908 C1295.2235 358.2817 1297.0144 356.4908 1299.2235 356.4908 Z" clip-path="url(#clipPath2)" stroke="none"/>
      <path d="M1299.2235 422.8893 L1305.2235 410.8893 L1293.2235 410.8893 Z" clip-path="url(#clipPath2)" stroke="none"/>
      <rect x="1243.7128" y="382.6237" clip-path="url(#clipPath2)" fill="white" width="111.0215" height="18.1328" stroke="none"/>
      <text x="1245.7128" xml:space="preserve" y="396.2253" clip-path="url(#clipPath2)" font-family="sans-serif" stroke="none">dcat:accessService</text>
      <path fill="none" d="M1299.2235 725.7769 L1299.2235 787.6641" clip-path="url(#clipPath2)"/>
      <path d="M1299.2235 717.7769 C1301.4326 717.7769 1303.2235 719.5677 1303.2235 721.7769 C1303.2235 723.986 1301.4326 725.7769 1299.2235 725.7769 C1297.0144 725.7769 1295.2235 723.986 1295.2235 721.7769 C1295.2235 719.5677 1297.0144 717.7769 1299.2235 717.7769 Z" clip-path="url(#clipPath2)" stroke="none"/>
      <path d="M1299.2235 798.6641 L1305.2235 786.6641 L1293.2235 786.6641 Z" clip-path="url(#clipPath2)" stroke="none"/>
      <rect x="1234.8446" y="751.1541" clip-path="url(#clipPath2)" fill="white" width="128.7578" height="18.1328" stroke="none"/>
      <text x="1236.8446" xml:space="preserve" y="764.7556" clip-path="url(#clipPath2)" font-family="sans-serif" stroke="none">prov:wasGeneratedBy</text>
      <path fill="none" d="M1403.2305 590.3281 L1515.3644 590.3281 L1515.3644 692.7559 L1577.833 692.7559" clip-path="url(#clipPath2)"/>
      <path d="M1395.2305 590.3281 C1395.2305 588.119 1397.0214 586.3281 1399.2305 586.3281 C1401.4396 586.3281 1403.2305 588.119 1403.2305 590.3281 C1403.2305 592.5373 1401.4396 594.3281 1399.2305 594.3281 C1397.0214 594.3281 1395.2305 592.5373 1395.2305 590.3281 Z" clip-path="url(#clipPath2)" stroke="none"/>
      <path d="M1588.833 692.7559 L1576.833 686.7559 L1576.833 698.7559 Z" clip-path="url(#clipPath2)" stroke="none"/>
      <path fill="none" d="M1405.6841 692.7559 L1577.83 692.7559" clip-path="url(#clipPath2)"/>
      <path d="M1397.6841 692.7559 C1397.6841 690.5467 1399.475 688.7559 1401.6841 688.7559 C1403.8932 688.7559 1405.6841 690.5467 1405.6841 692.7559 C1405.6841 694.965 1403.8932 696.7559 1401.6841 696.7559 C1399.475 696.7559 1397.6841 694.965 1397.6841 692.7559 Z" clip-path="url(#clipPath2)" stroke="none"/>
      <path d="M1588.83 692.7559 L1576.83 686.7559 L1576.83 698.7559 Z" clip-path="url(#clipPath2)" stroke="none"/>
      <rect x="1430.0041" y="683.6894" clip-path="url(#clipPath2)" fill="white" width="128.0664" height="18.1328" stroke="none"/>
      <text x="1432.0042" xml:space="preserve" y="697.291" clip-path="url(#clipPath2)" font-family="sans-serif" stroke="none">dct:creator/publisher</text>
      <path fill="none" d="M1405.7001 671.9921 L1425.999 671.9921 L1425.999 451.9032 L1577.8292 451.9032" clip-path="url(#clipPath2)"/>
      <path d="M1397.7001 671.9921 C1397.7001 669.7829 1399.491 667.9921 1401.7001 667.9921 C1403.9092 667.9921 1405.7001 669.7829 1405.7001 671.9921 C1405.7001 674.2012 1403.9092 675.9921 1401.7001 675.9921 C1399.491 675.9921 1397.7001 674.2012 1397.7001 671.9921 Z" clip-path="url(#clipPath2)" stroke="none"/>
      <path d="M1588.8292 451.9032 L1576.8292 445.9032 L1576.8292 457.9032 Z" clip-path="url(#clipPath2)" stroke="none"/>
      <path fill="none" d="M1403.2527 451.9032 L1577.8226 451.9032" clip-path="url(#clipPath2)"/>
      <path d="M1395.2527 451.9032 C1395.2527 449.6941 1397.0436 447.9032 1399.2527 447.9032 C1401.4618 447.9032 1403.2527 449.6941 1403.2527 451.9032 C1403.2527 454.1124 1401.4618 455.9032 1399.2527 455.9032 C1397.0436 455.9032 1395.2527 454.1124 1395.2527 451.9032 Z" clip-path="url(#clipPath2)" stroke="none"/>
      <path d="M1588.8226 451.9032 L1576.8226 445.9032 L1576.8226 457.9032 Z" clip-path="url(#clipPath2)" stroke="none"/>
      <rect x="1432.8401" y="442.8368" clip-path="url(#clipPath2)" fill="white" width="122.3945" height="18.1328" stroke="none"/>
      <text x="1434.8401" xml:space="preserve" y="456.4384" clip-path="url(#clipPath2)" font-family="sans-serif" stroke="none">dcat:theme/dct:type</text>
      <path fill="none" d="M1403.6021 551.0215 L1471.4142 551.0215 L1471.4142 468.9199 L1577.842 468.9199" clip-path="url(#clipPath2)"/>
      <path d="M1395.6021 551.0215 C1395.6021 548.8123 1397.3929 547.0215 1399.6021 547.0215 C1401.8112 547.0215 1403.6021 548.8123 1403.6021 551.0215 C1403.6021 553.2307 1401.8112 555.0215 1399.6021 555.0215 C1397.3929 555.0215 1395.6021 553.2307 1395.6021 551.0215 Z" clip-path="url(#clipPath2)" stroke="none"/>
      <path d="M1588.842 468.9199 L1576.842 462.9199 L1576.842 474.9199 Z" clip-path="url(#clipPath2)" stroke="none"/>
      <rect x="1436.8536" y="490.2327" clip-path="url(#clipPath2)" fill="white" width="69.1211" height="18.1328" stroke="none"/>
      <text x="1438.8536" xml:space="preserve" y="503.8343" clip-path="url(#clipPath2)" font-family="sans-serif" stroke="none">dcat:theme</text>
      <path fill="none" d="M1299.2235 860.7061 L1299.2235 922.5934" clip-path="url(#clipPath2)"/>
      <path d="M1299.2235 852.7061 C1301.4326 852.7061 1303.2235 854.4969 1303.2235 856.7061 C1303.2235 858.9152 1301.4326 860.7061 1299.2235 860.7061 C1297.0144 860.7061 1295.2235 858.9152 1295.2235 856.7061 C1295.2235 854.4969 1297.0144 852.7061 1299.2235 852.7061 Z" clip-path="url(#clipPath2)" stroke="none"/>
      <path d="M1299.2235 933.5934 L1305.2235 921.5934 L1293.2235 921.5934 Z" clip-path="url(#clipPath2)" stroke="none"/>
      <rect x="1235.9726" y="886.0833" clip-path="url(#clipPath2)" fill="white" width="126.502" height="18.1328" stroke="none"/>
      <text x="1237.9725" xml:space="preserve" y="899.6849" clip-path="url(#clipPath2)" font-family="sans-serif" stroke="none">prov:used/generated</text>
      <path fill="none" d="M1376.4045 860.7291 L1376.4045 902.3954 L1582.8356 902.3954" clip-path="url(#clipPath2)"/>
      <path d="M1376.4045 852.7291 C1378.6136 852.7291 1380.4045 854.5199 1380.4045 856.7291 C1380.4045 858.9382 1378.6136 860.7291 1376.4045 860.7291 C1374.1954 860.7291 1372.4045 858.9382 1372.4045 856.7291 C1372.4045 854.5199 1374.1954 852.7291 1376.4045 852.7291 Z" clip-path="url(#clipPath2)" stroke="none"/>
      <path d="M1593.8356 902.3954 L1581.8356 896.3954 L1581.8356 908.3954 Z" clip-path="url(#clipPath2)" stroke="none"/>
      <rect x="1409.4105" y="893.329" clip-path="url(#clipPath2)" fill="white" width="144.3555" height="18.1328" stroke="none"/>
      <text x="1411.4105" xml:space="preserve" y="906.9305" clip-path="url(#clipPath2)" font-family="sans-serif" stroke="none">prov:wasAssociatedWith</text>
      <path fill="none" d="M1405.731 827.6851 L1582.7908 827.6851" clip-path="url(#clipPath2)"/>
      <path d="M1397.731 827.6851 C1397.731 825.476 1399.5219 823.6851 1401.731 823.6851 C1403.9401 823.6851 1405.731 825.476 1405.731 827.6851 C1405.731 829.8943 1403.9401 831.6851 1401.731 831.6851 C1399.5219 831.6851 1397.731 829.8943 1397.731 827.6851 Z" clip-path="url(#clipPath2)" stroke="none"/>
      <path d="M1593.7908 827.6851 L1581.7908 821.6851 L1581.7908 833.6851 Z" clip-path="url(#clipPath2)" stroke="none"/>
      <rect x="1450.6337" y="818.6187" clip-path="url(#clipPath2)" fill="white" width="94.2754" height="18.1328" stroke="none"/>
      <text x="1452.6338" xml:space="preserve" y="832.2203" clip-path="url(#clipPath2)" font-family="sans-serif" stroke="none">prov:atLocation</text>
      <path fill="none" d="M1405.7015 682.3638 L1471.4142 682.3638 L1471.4142 572.3295 L1577.819 572.3295" clip-path="url(#clipPath2)"/>
      <path d="M1397.7015 682.3638 C1397.7015 680.1546 1399.4924 678.3638 1401.7015 678.3638 C1403.9106 678.3638 1405.7015 680.1546 1405.7015 682.3638 C1405.7015 684.5729 1403.9106 686.3638 1401.7015 686.3638 C1399.4924 686.3638 1397.7015 684.5729 1397.7015 682.3638 Z" clip-path="url(#clipPath2)" stroke="none"/>
      <path d="M1588.819 572.3295 L1576.819 566.3295 L1576.819 578.3295 Z" clip-path="url(#clipPath2)" stroke="none"/>
      <path fill="none" d="M1403.239 572.3295 L1577.84 572.3295" clip-path="url(#clipPath2)"/>
      <path d="M1395.239 572.3295 C1395.239 570.1204 1397.0299 568.3295 1399.239 568.3295 C1401.4481 568.3295 1403.239 570.1204 1403.239 572.3295 C1403.239 574.5387 1401.4481 576.3295 1399.239 576.3295 C1397.0299 576.3295 1395.239 574.5387 1395.239 572.3295 Z" clip-path="url(#clipPath2)" stroke="none"/>
      <path d="M1588.84 572.3295 L1576.84 566.3295 L1576.84 578.3295 Z" clip-path="url(#clipPath2)" stroke="none"/>
      <rect x="1489.2389" y="563.2631" clip-path="url(#clipPath2)" fill="white" width="64.334" height="18.1328" stroke="none"/>
      <text x="1491.2389" xml:space="preserve" y="576.8647" clip-path="url(#clipPath2)" font-family="sans-serif" stroke="none">dct:spatial</text>
    </g>
    <g fill="rgb(210,210,210)" text-rendering="geometricPrecision" shape-rendering="geometricPrecision" transform="matrix(1,0,0,1,-600,-287) translate(4,4)" stroke="rgb(210,210,210)">
      <rect x="1199.7367" width="605.8998" height="189.5169" y="1021.6143" clip-path="url(#clipPath5)" stroke="none"/>
    </g>
    <g fill="white" text-rendering="geometricPrecision" shape-rendering="geometricPrecision" transform="matrix(1,0,0,1,-600,-287)" stroke="white">
      <rect x="1199.7367" width="605.8998" height="189.5169" y="1021.6143" clip-path="url(#clipPath2)" stroke="none"/>
      <rect x="1199.7367" y="1021.6143" clip-path="url(#clipPath2)" fill="rgb(183,182,158)" width="605.8998" height="21.666" stroke="none"/>
    </g>
    <g font-size="15px" stroke-linecap="butt" transform="matrix(1,0,0,1,-600,-287)" text-rendering="geometricPrecision" font-family="sans-serif" shape-rendering="geometricPrecision" font-weight="bold" stroke-miterlimit="1.45">
      <text x="1726.7688" xml:space="preserve" y="1038.1163" clip-path="url(#clipPath2)" stroke="none">Prefixes   </text>
      <rect fill="none" x="1199.7367" width="605.8998" height="189.5169" y="1021.6143" clip-path="url(#clipPath2)"/>
      <text x="1294.3307" font-size="16px" y="1075.7491" clip-path="url(#clipPath2)" stroke="none" font-weight="normal" xml:space="preserve">http://www.w3.org/ns/dcat#</text>
      <text x="1294.3307" font-size="16px" y="1094.5929" clip-path="url(#clipPath2)" stroke="none" font-weight="normal" xml:space="preserve">http://www.w3.org/ns/prov#</text>
      <text x="1294.3307" font-size="16px" y="1113.4366" clip-path="url(#clipPath2)" stroke="none" font-weight="normal" xml:space="preserve">http://cidoc-crm.org/cidoc-crm/7.1.2/</text>
      <text x="1294.3307" font-size="16px" y="1132.2804" clip-path="url(#clipPath2)" stroke="none" font-weight="normal" xml:space="preserve">https://projects.ics.forth.gr/isl/CRMext/CRMdig_v3.2.2.rdfs#</text>
      <text x="1294.3307" font-size="16px" y="1151.1241" clip-path="url(#clipPath2)" stroke="none" font-weight="normal" xml:space="preserve">http://iflastandards.info/ns/fr/frbr/frbroo/</text>
      <text x="1294.3307" font-size="16px" y="1169.9679" clip-path="url(#clipPath2)" stroke="none" font-weight="normal" xml:space="preserve">http://purl.org/dc/terms/</text>
      <text x="1294.3307" font-size="16px" y="1188.8116" clip-path="url(#clipPath2)" stroke="none" font-weight="normal" xml:space="preserve">http://www.w3.org/2000/01/rdf-schema#</text>
      <text x="1227.5343" xml:space="preserve" font-size="16px" y="1075.7491" clip-path="url(#clipPath2)" stroke="none">dcat:</text>
      <text x="1227.5343" xml:space="preserve" font-size="16px" y="1094.5929" clip-path="url(#clipPath2)" stroke="none">prov:</text>
      <text x="1227.5343" xml:space="preserve" font-size="16px" y="1113.4366" clip-path="url(#clipPath2)" stroke="none">crm:</text>
      <text x="1227.5343" xml:space="preserve" font-size="16px" y="1132.2804" clip-path="url(#clipPath2)" stroke="none">crmdig:</text>
      <text x="1227.5343" xml:space="preserve" font-size="16px" y="1151.1241" clip-path="url(#clipPath2)" stroke="none">frbroo:</text>
      <text x="1227.5343" xml:space="preserve" font-size="16px" y="1169.9679" clip-path="url(#clipPath2)" stroke="none">dct:</text>
      <text x="1227.5343" xml:space="preserve" font-size="16px" y="1188.8116" clip-path="url(#clipPath2)" stroke="none">rdfs:</text>
    </g>
    <g fill="yellow" text-rendering="geometricPrecision" shape-rendering="geometricPrecision" transform="matrix(1,0,0,1,-600,-287)" stroke="yellow">
      <rect x="820.1518" y="540.2969" clip-path="url(#clipPath2)" width="280" rx="4" ry="4" height="58" stroke="none"/>
    </g>
    <g font-size="16px" stroke-linecap="butt" transform="matrix(1,0,0,1,-600,-287)" text-rendering="geometricPrecision" font-family="sans-serif" shape-rendering="geometricPrecision" stroke-miterlimit="1.45">
      <text x="829.0698" xml:space="preserve" y="575.3438" clip-path="url(#clipPath2)" stroke="none">crmdig:D7_Digital_Machine_Event</text>
      <rect x="820.1518" y="540.2969" clip-path="url(#clipPath2)" fill="none" width="280" rx="4" ry="4" height="58"/>
    </g>
    <g fill="yellow" text-rendering="geometricPrecision" shape-rendering="geometricPrecision" transform="matrix(1,0,0,1,-600,-287)" stroke="yellow">
      <rect x="615.5603" y="798.6851" clip-path="url(#clipPath2)" width="200" rx="4" ry="4" height="58" stroke="none"/>
    </g>
    <g font-size="16px" stroke-linecap="butt" transform="matrix(1,0,0,1,-600,-287)" text-rendering="geometricPrecision" font-family="sans-serif" shape-rendering="geometricPrecision" stroke-miterlimit="1.45">
      <text x="658.9393" xml:space="preserve" y="833.732" clip-path="url(#clipPath2)" stroke="none">crm:E39_Actor</text>
      <rect x="615.5603" y="798.6851" clip-path="url(#clipPath2)" fill="none" width="200" rx="4" ry="4" height="58"/>
    </g>
    <g fill="yellow" text-rendering="geometricPrecision" shape-rendering="geometricPrecision" transform="matrix(1,0,0,1,-600,-287)" stroke="yellow">
      <rect x="860.1518" y="663.7559" clip-path="url(#clipPath2)" width="200" rx="4" ry="4" height="58" stroke="none"/>
    </g>
    <g font-size="16px" stroke-linecap="butt" transform="matrix(1,0,0,1,-600,-287)" text-rendering="geometricPrecision" font-family="sans-serif" shape-rendering="geometricPrecision" stroke-miterlimit="1.45">
      <text x="902.6987" xml:space="preserve" y="698.8027" clip-path="url(#clipPath2)" stroke="none">frbroo:F5_Item</text>
      <rect x="860.1518" y="663.7559" clip-path="url(#clipPath2)" fill="none" width="200" rx="4" ry="4" height="58"/>
    </g>
    <g fill="yellow" text-rendering="geometricPrecision" shape-rendering="geometricPrecision" transform="matrix(1,0,0,1,-600,-287)" stroke="yellow">
      <rect x="860.1518" y="798.6851" clip-path="url(#clipPath2)" width="200" rx="4" ry="4" height="58" stroke="none"/>
    </g>
    <g font-size="16px" stroke-linecap="butt" transform="matrix(1,0,0,1,-600,-287)" text-rendering="geometricPrecision" font-family="sans-serif" shape-rendering="geometricPrecision" stroke-miterlimit="1.45">
      <text x="867.2651" xml:space="preserve" y="833.732" clip-path="url(#clipPath2)" stroke="none">frbroo:F3_Manifestation</text>
      <rect x="860.1518" y="798.6851" clip-path="url(#clipPath2)" fill="none" width="200" rx="4" ry="4" height="58"/>
    </g>
    <g fill="yellow" text-rendering="geometricPrecision" shape-rendering="geometricPrecision" transform="matrix(1,0,0,1,-600,-287)" stroke="yellow">
      <rect x="860.1518" y="933.6143" clip-path="url(#clipPath2)" width="200" rx="4" ry="4" height="58" stroke="none"/>
    </g>
    <g font-size="16px" stroke-linecap="butt" transform="matrix(1,0,0,1,-600,-287)" text-rendering="geometricPrecision" font-family="sans-serif" shape-rendering="geometricPrecision" stroke-miterlimit="1.45">
      <text x="905.0776" xml:space="preserve" y="968.6612" clip-path="url(#clipPath2)" stroke="none">crm:E1_Entity </text>
      <rect x="860.1518" y="933.6143" clip-path="url(#clipPath2)" fill="none" width="200" rx="4" ry="4" height="58"/>
    </g>
    <g fill="yellow" text-rendering="geometricPrecision" shape-rendering="geometricPrecision" transform="matrix(1,0,0,1,-600,-287)" stroke="yellow">
      <rect x="851.0545" y="389.3882" clip-path="url(#clipPath2)" width="205" rx="4" ry="4" height="58" stroke="none"/>
    </g>
    <g font-size="16px" stroke-linecap="butt" transform="matrix(1,0,0,1,-600,-287)" text-rendering="geometricPrecision" font-family="sans-serif" shape-rendering="geometricPrecision" stroke-miterlimit="1.45">
      <text x="854.238" xml:space="preserve" y="424.4351" clip-path="url(#clipPath2)" stroke="none">crmdig:D1_Digital_Object</text>
      <rect x="851.0545" y="389.3882" clip-path="url(#clipPath2)" fill="none" width="205" rx="4" ry="4" height="58"/>
    </g>
    <g fill="yellow" text-rendering="geometricPrecision" shape-rendering="geometricPrecision" transform="matrix(1,0,0,1,-600,-287)" stroke="yellow">
      <rect x="615.5603" y="663.7559" clip-path="url(#clipPath2)" width="200" rx="4" ry="4" height="58" stroke="none"/>
    </g>
    <g font-size="16px" stroke-linecap="butt" transform="matrix(1,0,0,1,-600,-287)" text-rendering="geometricPrecision" font-family="sans-serif" shape-rendering="geometricPrecision" stroke-miterlimit="1.45">
      <text x="660.0291" xml:space="preserve" y="698.8027" clip-path="url(#clipPath2)" stroke="none">crm:E53_Place</text>
      <rect x="615.5603" y="663.7559" clip-path="url(#clipPath2)" fill="none" width="200" rx="4" ry="4" height="58"/>
    </g>
    <g stroke-linecap="round" transform="matrix(1,0,0,1,-600,-287)" stroke-dashoffset="2" fill="navy" text-rendering="geometricPrecision" shape-rendering="geometricPrecision" stroke-dasharray="0,4" stroke="navy" stroke-miterlimit="1.45">
      <path fill="none" d="M1192.699 827.6851 L1123 827.6851 L1123 569.2969 L1111.1393 569.2969" clip-path="url(#clipPath2)"/>
      <path d="M1200.699 827.6851 C1200.699 829.8943 1198.9081 831.6851 1196.699 831.6851 C1194.4899 831.6851 1192.699 829.8943 1192.699 827.6851 C1192.699 825.476 1194.4899 823.6851 1196.699 823.6851 C1198.9081 823.6851 1200.699 825.476 1200.699 827.6851 Z" clip-path="url(#clipPath2)" stroke="none"/>
      <path d="M1100.1393 569.2969 L1112.1393 575.2969 L1112.1393 563.2969 Z" clip-path="url(#clipPath2)" stroke="none"/>
    </g>
    <g stroke-linecap="round" transform="matrix(0,1,-1,0,532.0664,350.4695)" stroke-dashoffset="2" fill="white" text-rendering="geometricPrecision" shape-rendering="geometricPrecision" stroke-dasharray="0,4" stroke="white" stroke-miterlimit="1.45">
      <rect x="0" width="122.043" height="18.1328" y="0" clip-path="url(#clipPath6)" stroke="none"/>
    </g>
    <g stroke-linecap="butt" transform="matrix(0,1,-1,0,532.0664,350.4695)" fill="navy" text-rendering="geometricPrecision" font-family="sans-serif" shape-rendering="geometricPrecision" stroke="navy" stroke-miterlimit="1.45">
      <text x="2" xml:space="preserve" y="13.6016" clip-path="url(#clipPath6)" stroke="none">prov:wasInformedBy</text>
    </g>
    <g stroke-linecap="butt" transform="matrix(1,0,0,1,-600,-287)" fill="navy" text-rendering="geometricPrecision" shape-rendering="geometricPrecision" stroke="navy" stroke-miterlimit="1.45">
      <path fill="none" d="M837.6422 602.3088 L837.6422 831.9039 L826.55 831.5206" clip-path="url(#clipPath2)"/>
      <path d="M837.6422 594.3088 C839.8514 594.3088 841.6422 596.0996 841.6422 598.3088 C841.6422 600.5179 839.8514 602.3088 837.6422 602.3088 C835.433 602.3088 833.6422 600.5179 833.6422 598.3088 C833.6422 596.0996 835.433 594.3088 837.6422 594.3088 Z" clip-path="url(#clipPath2)" stroke="none"/>
      <path d="M815.5566 831.1407 L827.3423 837.5516 L827.7567 825.5587 Z" clip-path="url(#clipPath2)" stroke="none"/>
    </g>
    <g stroke-linecap="butt" transform="matrix(-0,1,-1,-0,246.7086,362.5907)" fill="white" text-rendering="geometricPrecision" shape-rendering="geometricPrecision" stroke="white" stroke-miterlimit="1.45">
      <rect x="0" width="143.2949" height="18.1328" y="0" clip-path="url(#clipPath7)" stroke="none"/>
      <text x="2" y="13.6016" clip-path="url(#clipPath7)" fill="navy" font-family="sans-serif" stroke="none" xml:space="preserve">crm:P14_carried_out_by</text>
    </g>
    <g stroke-linecap="butt" transform="matrix(1,0,0,1,-600,-287)" fill="navy" text-rendering="geometricPrecision" shape-rendering="geometricPrecision" stroke="navy" stroke-miterlimit="1.45">
      <path fill="none" d="M960.1519 602.3123 L960.1519 652.7405" clip-path="url(#clipPath2)"/>
      <path d="M960.1519 594.3123 C962.361 594.3123 964.1519 596.1031 964.1519 598.3123 C964.1519 600.5215 962.361 602.3123 960.1519 602.3123 C957.9427 602.3123 956.1519 600.5215 956.1519 598.3123 C956.1519 596.1031 957.9427 594.3123 960.1519 594.3123 Z" clip-path="url(#clipPath2)" stroke="none"/>
      <path d="M960.1519 663.7405 L966.1519 651.7405 L954.1519 651.7405 Z" clip-path="url(#clipPath2)" stroke="none"/>
      <rect x="900.355" y="621.96" clip-path="url(#clipPath2)" fill="white" width="119.5938" height="18.1328" stroke="none"/>
      <text x="902.355" xml:space="preserve" y="635.5615" clip-path="url(#clipPath2)" font-family="sans-serif" stroke="none">crmdig:L1_digitized</text>
      <path fill="none" d="M1088.4631 602.3088 L1088.4631 827.6851 L1071.1625 827.6851" clip-path="url(#clipPath2)"/>
      <path d="M1088.4631 594.3088 C1090.6722 594.3088 1092.4631 596.0996 1092.4631 598.3088 C1092.4631 600.5179 1090.6722 602.3088 1088.4631 602.3088 C1086.254 602.3088 1084.4631 600.5179 1084.4631 598.3088 C1084.4631 596.0996 1086.254 594.3088 1088.4631 594.3088 Z" clip-path="url(#clipPath2)" stroke="none"/>
      <path d="M1060.1625 827.6851 L1072.1625 833.6851 L1072.1625 821.6851 Z" clip-path="url(#clipPath2)" stroke="none"/>
    </g>
    <g stroke-linecap="butt" transform="matrix(-0,1,-1,-0,497.5295,331.8642)" fill="white" text-rendering="geometricPrecision" shape-rendering="geometricPrecision" stroke="white" stroke-miterlimit="1.45">
      <rect x="0" width="140.5938" height="18.1328" y="0" clip-path="url(#clipPath8)" stroke="none"/>
      <text x="2" y="13.6016" clip-path="url(#clipPath8)" fill="navy" font-family="sans-serif" stroke="none" xml:space="preserve">crmdig:L60_documents</text>
    </g>
    <g stroke-linecap="butt" transform="matrix(1,0,0,1,-600,-287)" fill="navy" text-rendering="geometricPrecision" shape-rendering="geometricPrecision" stroke="navy" stroke-miterlimit="1.45">
      <path fill="none" d="M960.1519 725.7769 L960.1519 787.6641" clip-path="url(#clipPath2)"/>
      <path d="M960.1519 717.7769 C962.361 717.7769 964.1519 719.5677 964.1519 721.7769 C964.1519 723.986 962.361 725.7769 960.1519 725.7769 C957.9427 725.7769 956.1519 723.986 956.1519 721.7769 C956.1519 719.5677 957.9427 717.7769 960.1519 717.7769 Z" clip-path="url(#clipPath2)" stroke="none"/>
      <path d="M960.1519 798.6641 L966.1519 786.6641 L954.1519 786.6641 Z" clip-path="url(#clipPath2)" stroke="none"/>
      <rect x="867.103" y="751.1541" clip-path="url(#clipPath2)" fill="white" width="186.0977" height="18.1328" stroke="none"/>
      <text x="869.103" xml:space="preserve" y="764.7556" clip-path="url(#clipPath2)" font-family="sans-serif" stroke="none">frbroo:R7_is_materialization_of</text>
      <path fill="none" d="M960.1519 860.7061 L960.1519 922.5934" clip-path="url(#clipPath2)"/>
      <path d="M960.1519 852.7061 C962.361 852.7061 964.1519 854.4969 964.1519 856.7061 C964.1519 858.9152 962.361 860.7061 960.1519 860.7061 C957.9427 860.7061 956.1519 858.9152 956.1519 856.7061 C956.1519 854.4969 957.9427 852.7061 960.1519 852.7061 Z" clip-path="url(#clipPath2)" stroke="none"/>
      <path d="M960.1519 933.5934 L966.1519 921.5934 L954.1519 921.5934 Z" clip-path="url(#clipPath2)" stroke="none"/>
      <rect x="900.9907" y="886.0833" clip-path="url(#clipPath2)" fill="white" width="118.3223" height="18.1328" stroke="none"/>
      <text x="902.9907" xml:space="preserve" y="899.6849" clip-path="url(#clipPath2)" font-family="sans-serif" stroke="none">crm:P129_is_about </text>
      <path fill="none" d="M953.5544 536.2517 L953.5544 514.9886 L953.5544 458.4047" clip-path="url(#clipPath2)"/>
      <path d="M953.5544 544.2517 C951.3453 544.2517 949.5544 542.4609 949.5544 540.2517 C949.5544 538.0425 951.3453 536.2517 953.5544 536.2517 C955.7636 536.2517 957.5544 538.0425 957.5544 540.2517 C957.5544 542.4609 955.7636 544.2517 953.5544 544.2517 Z" clip-path="url(#clipPath2)" stroke="none"/>
      <path d="M953.5544 447.4047 L947.5544 459.4047 L959.5544 459.4047 Z" clip-path="url(#clipPath2)" stroke="none"/>
      <rect x="873.657" y="467.8229" clip-path="url(#clipPath2)" fill="white" width="159.7949" height="60.5312" stroke="none"/>
      <text x="888.4714" xml:space="preserve" y="481.4244" clip-path="url(#clipPath2)" font-family="sans-serif" stroke="none">crmdig:L10_had_input</text>
      <text x="884.2761" xml:space="preserve" y="495.5573" clip-path="url(#clipPath2)" font-family="sans-serif" stroke="none">crmdig:L11_had_output</text>
      <text x="882.8435" xml:space="preserve" y="509.6901" clip-path="url(#clipPath2)" font-family="sans-serif" stroke="none">crmdig:L20_has_created</text>
      <text x="875.657" xml:space="preserve" y="523.8229" clip-path="url(#clipPath2)" font-family="sans-serif" stroke="none">crmdig:L23_used_software</text>
      <path fill="none" d="M1022.3471 385.3718 L1022.3471 355.9431 L920.1861 355.9431 L920.1861 378.3773" clip-path="url(#clipPath2)"/>
      <path d="M1022.3471 393.3718 C1020.1379 393.3718 1018.3471 391.581 1018.3471 389.3718 C1018.3471 387.1627 1020.1379 385.3718 1022.3471 385.3718 C1024.5563 385.3718 1026.3472 387.1627 1026.3472 389.3718 C1026.3472 391.581 1024.5563 393.3718 1022.3471 393.3718 Z" clip-path="url(#clipPath2)" stroke="none"/>
      <path d="M920.1861 389.3773 L926.1861 377.3773 L914.1861 377.3773 Z" clip-path="url(#clipPath2)" stroke="none"/>
      <rect x="904.8838" y="346.8767" clip-path="url(#clipPath2)" fill="white" width="132.7656" height="18.1328" stroke="none"/>
      <text x="906.8838" xml:space="preserve" y="360.4782" clip-path="url(#clipPath2)" font-family="sans-serif" stroke="none">P106_is_composed_of</text>
      <path fill="none" d="M816.1494 569.2969 L715.5604 569.2969 L715.5604 652.7263" clip-path="url(#clipPath2)"/>
      <path d="M824.1494 569.2969 C824.1494 571.5061 822.3586 573.2969 820.1494 573.2969 C817.9402 573.2969 816.1494 571.5061 816.1494 569.2969 C816.1494 567.0878 817.9402 565.2969 820.1494 565.2969 C822.3586 565.2969 824.1494 567.0878 824.1494 569.2969 Z" clip-path="url(#clipPath2)" stroke="none"/>
      <path d="M715.5604 663.7263 L721.5604 651.7263 L709.5604 651.7263 Z" clip-path="url(#clipPath2)" stroke="none"/>
      <rect x="676.649" y="560.2305" clip-path="url(#clipPath2)" fill="white" width="130.1172" height="18.1328" stroke="none"/>
      <text x="678.649" xml:space="preserve" y="573.8321" clip-path="url(#clipPath2)" font-family="sans-serif" stroke="none">crm:P7_took_place_at</text>
    </g>
  </g>
</svg>
