<?xml version="1.0" encoding="UTF-8"?><svg xmlns="http://www.w3.org/2000/svg" xmlns:xlink="http://www.w3.org/1999/xlink" fill-opacity="1" color-rendering="auto" color-interpolation="auto" text-rendering="auto" stroke="black" stroke-linecap="square" width="1244" stroke-miterlimit="10" shape-rendering="auto" stroke-opacity="1" fill="black" stroke-dasharray="none" font-weight="normal" stroke-width="1" height="927" font-family="'Dialog'" font-style="normal" stroke-linejoin="miter" font-size="12px" stroke-dashoffset="0" image-rendering="auto">
  <!--Generated by ySVG 2.6-->
  <defs id="genericDefs"/>
  <g>
    <defs id="defs1">
      <clipPath clipPathUnits="userSpaceOnUse" id="clipPath1">
        <path d="M0 0 L1244 0 L1244 927 L0 927 L0 0 Z"/>
      </clipPath>
      <clipPath clipPathUnits="userSpaceOnUse" id="clipPath2">
        <path d="M80 -62 L1324 -62 L1324 865 L80 865 L80 -62 Z"/>
      </clipPath>
      <clipPath clipPathUnits="userSpaceOnUse" id="clipPath3">
        <path d="M-507.288 524.8557 L-507.288 -719.1443 L419.712 -719.1443 L419.712 524.8557 L-507.288 524.8557 Z"/>
      </clipPath>
      <clipPath clipPathUnits="userSpaceOnUse" id="clipPath4">
        <path d="M-590.2802 1072.9967 L-590.2802 -171.0033 L336.7198 -171.0033 L336.7198 1072.9967 L-590.2802 1072.9967 Z"/>
      </clipPath>
      <clipPath clipPathUnits="userSpaceOnUse" id="clipPath5">
        <path d="M76 -66 L1320 -66 L1320 861 L76 861 L76 -66 Z"/>
      </clipPath>
    </defs>
    <g fill="white" text-rendering="geometricPrecision" shape-rendering="geometricPrecision" transform="translate(-80,62)" stroke="white">
      <rect x="80" width="1244" height="927" y="-62" clip-path="url(#clipPath2)" stroke="none"/>
    </g>
    <g fill="yellow" text-rendering="geometricPrecision" shape-rendering="geometricPrecision" transform="matrix(1,0,0,1,-80,62)" stroke="yellow">
      <rect x="112.1623" y="531" clip-path="url(#clipPath2)" width="204.9682" rx="4" ry="4" height="58" stroke="none"/>
    </g>
    <g font-size="16px" stroke-linecap="butt" transform="matrix(1,0,0,1,-80,62)" text-rendering="geometricPrecision" font-family="sans-serif" shape-rendering="geometricPrecision" stroke-miterlimit="1.45">
      <text x="166.2245" xml:space="preserve" y="566.0469" clip-path="url(#clipPath2)" stroke="none">dcat:Dataset</text>
      <rect x="112.1623" y="531" clip-path="url(#clipPath2)" fill="none" width="204.9682" rx="4" ry="4" height="58"/>
    </g>
    <g fill="yellow" text-rendering="geometricPrecision" shape-rendering="geometricPrecision" transform="matrix(1,0,0,1,-80,62)" stroke="yellow">
      <rect x="577.5159" y="354.0755" clip-path="url(#clipPath2)" width="204.9682" rx="4" ry="4" height="58" stroke="none"/>
    </g>
    <g font-size="16px" stroke-linecap="butt" transform="matrix(1,0,0,1,-80,62)" text-rendering="geometricPrecision" font-family="sans-serif" shape-rendering="geometricPrecision" stroke-miterlimit="1.45">
      <text x="614.7812" xml:space="preserve" y="389.1224" clip-path="url(#clipPath2)" stroke="none">dcat:Distribution</text>
      <rect x="577.5159" y="354.0755" clip-path="url(#clipPath2)" fill="none" width="204.9682" rx="4" ry="4" height="58"/>
    </g>
    <g fill="yellow" text-rendering="geometricPrecision" shape-rendering="geometricPrecision" transform="matrix(1,0,0,1,-80,62)" stroke="yellow">
      <rect x="577.5159" y="684.9111" clip-path="url(#clipPath2)" width="204.9682" rx="4" ry="4" height="58" stroke="none"/>
    </g>
    <g font-size="16px" stroke-linecap="butt" transform="matrix(1,0,0,1,-80,62)" text-rendering="geometricPrecision" font-family="sans-serif" shape-rendering="geometricPrecision" stroke-miterlimit="1.45">
      <text x="616.0586" xml:space="preserve" y="719.9579" clip-path="url(#clipPath2)" stroke="none">dcat:DataService</text>
      <rect x="577.5159" y="684.9111" clip-path="url(#clipPath2)" fill="none" width="204.9682" rx="4" ry="4" height="58"/>
    </g>
    <g fill="yellow" text-rendering="geometricPrecision" shape-rendering="geometricPrecision" transform="matrix(1,0,0,1,-80,62)" stroke="yellow">
      <rect x="900.9553" y="514.6939" clip-path="url(#clipPath2)" width="204.9682" rx="4" ry="4" height="58" stroke="none"/>
    </g>
    <g font-size="16px" stroke-linecap="butt" transform="matrix(1,0,0,1,-80,62)" text-rendering="geometricPrecision" font-family="sans-serif" shape-rendering="geometricPrecision" stroke-miterlimit="1.45">
      <text x="951.166" xml:space="preserve" y="549.7408" clip-path="url(#clipPath2)" stroke="none">skos:Concept</text>
      <rect x="900.9553" y="514.6939" clip-path="url(#clipPath2)" fill="none" width="204.9682" rx="4" ry="4" height="58"/>
    </g>
    <g fill="yellow" text-rendering="geometricPrecision" shape-rendering="geometricPrecision" transform="matrix(1,0,0,1,-80,62)" stroke="yellow">
      <rect x="900.9553" y="434.3816" clip-path="url(#clipPath2)" width="204.9682" rx="4" ry="4" height="58" stroke="none"/>
    </g>
    <g font-size="16px" stroke-linecap="butt" transform="matrix(1,0,0,1,-80,62)" text-rendering="geometricPrecision" font-family="sans-serif" shape-rendering="geometricPrecision" stroke-miterlimit="1.45">
      <text x="920.2988" xml:space="preserve" y="469.4285" clip-path="url(#clipPath2)" stroke="none">dct:LicenseDocument</text>
      <rect x="900.9553" y="434.3816" clip-path="url(#clipPath2)" fill="none" width="204.9682" rx="4" ry="4" height="58"/>
    </g>
    <g fill="yellow" text-rendering="geometricPrecision" shape-rendering="geometricPrecision" transform="matrix(1,0,0,1,-80,62)" stroke="yellow">
      <rect x="900.9553" y="595.0062" clip-path="url(#clipPath2)" width="204.9682" rx="4" ry="4" height="58" stroke="none"/>
    </g>
    <g font-size="16px" stroke-linecap="butt" transform="matrix(1,0,0,1,-80,62)" text-rendering="geometricPrecision" font-family="sans-serif" shape-rendering="geometricPrecision" stroke-miterlimit="1.45">
      <text x="950.2792" xml:space="preserve" y="630.0531" clip-path="url(#clipPath2)" stroke="none">rdfs:Resource</text>
      <rect x="900.9553" y="595.0062" clip-path="url(#clipPath2)" fill="none" width="204.9682" rx="4" ry="4" height="58"/>
    </g>
    <g fill="rgb(204,255,204)" text-rendering="geometricPrecision" shape-rendering="geometricPrecision" transform="matrix(1,0,0,1,-80,62)" stroke="rgb(204,255,204)">
      <path d="M623.7176 546 L737.2031 546 L724.5936 589 L611.1081 589 Z" fill-rule="evenodd" clip-path="url(#clipPath2)" stroke="none"/>
    </g>
    <g font-size="16px" stroke-linecap="butt" transform="matrix(1,0,0,1,-80,62)" text-rendering="geometricPrecision" font-family="sans-serif" shape-rendering="geometricPrecision" stroke-miterlimit="1.45">
      <text x="632.265" xml:space="preserve" y="573.5469" clip-path="url(#clipPath2)" stroke="none">rdfs:Literal</text>
      <path fill="none" d="M623.7176 546 L737.2031 546 L724.5936 589 L611.1081 589 Z" fill-rule="evenodd" clip-path="url(#clipPath2)"/>
    </g>
    <g fill="yellow" text-rendering="geometricPrecision" shape-rendering="geometricPrecision" transform="matrix(1,0,0,1,-80,62)" stroke="yellow">
      <rect x="112.1623" y="153.7694" clip-path="url(#clipPath2)" width="204.9682" rx="4" ry="4" height="58" stroke="none"/>
    </g>
    <g font-size="16px" stroke-linecap="butt" transform="matrix(1,0,0,1,-80,62)" text-rendering="geometricPrecision" font-family="sans-serif" shape-rendering="geometricPrecision" stroke-miterlimit="1.45">
      <text x="124.0097" xml:space="preserve" y="188.8163" clip-path="url(#clipPath2)" stroke="none">dct:MediaTypeOrExtent</text>
      <rect x="112.1623" y="153.7694" clip-path="url(#clipPath2)" fill="none" width="204.9682" rx="4" ry="4" height="58"/>
    </g>
    <g fill="yellow" text-rendering="geometricPrecision" shape-rendering="geometricPrecision" transform="matrix(1,0,0,1,-80,62)" stroke="yellow">
      <rect x="900.9553" y="193.4633" clip-path="url(#clipPath2)" width="204.9682" rx="4" ry="4" height="58" stroke="none"/>
    </g>
    <g font-size="16px" stroke-linecap="butt" transform="matrix(1,0,0,1,-80,62)" text-rendering="geometricPrecision" font-family="sans-serif" shape-rendering="geometricPrecision" stroke-miterlimit="1.45">
      <text x="945.8417" xml:space="preserve" y="228.5102" clip-path="url(#clipPath2)" stroke="none">foaf:Document</text>
      <rect x="900.9553" y="193.4633" clip-path="url(#clipPath2)" fill="none" width="204.9682" rx="4" ry="4" height="58"/>
    </g>
    <g fill="yellow" text-rendering="geometricPrecision" shape-rendering="geometricPrecision" transform="matrix(1,0,0,1,-80,62)" stroke="yellow">
      <rect x="900.9553" y="273.7694" clip-path="url(#clipPath2)" width="204.9682" rx="4" ry="4" height="58" stroke="none"/>
    </g>
    <g font-size="16px" stroke-linecap="butt" transform="matrix(1,0,0,1,-80,62)" text-rendering="geometricPrecision" font-family="sans-serif" shape-rendering="geometricPrecision" stroke-miterlimit="1.45">
      <text x="924.0097" xml:space="preserve" y="308.8163" clip-path="url(#clipPath2)" stroke="none">dct:LinguisticSystem</text>
      <rect x="900.9553" y="273.7694" clip-path="url(#clipPath2)" fill="none" width="204.9682" rx="4" ry="4" height="58"/>
    </g>
    <g fill="yellow" text-rendering="geometricPrecision" shape-rendering="geometricPrecision" transform="matrix(1,0,0,1,-80,62)" stroke="yellow">
      <rect x="900.9553" y="354.0755" clip-path="url(#clipPath2)" width="204.9682" rx="4" ry="4" height="58" stroke="none"/>
    </g>
    <g font-size="16px" stroke-linecap="butt" transform="matrix(1,0,0,1,-80,62)" text-rendering="geometricPrecision" font-family="sans-serif" shape-rendering="geometricPrecision" stroke-miterlimit="1.45">
      <text x="954.3378" xml:space="preserve" y="389.1224" clip-path="url(#clipPath2)" stroke="none">dct:Standard</text>
      <rect x="900.9553" y="354.0755" clip-path="url(#clipPath2)" fill="none" width="204.9682" rx="4" ry="4" height="58"/>
    </g>
    <g fill="yellow" text-rendering="geometricPrecision" shape-rendering="geometricPrecision" transform="matrix(1,0,0,1,-80,62)" stroke="yellow">
      <rect x="112.1623" y="273.7694" clip-path="url(#clipPath2)" width="204.9682" rx="4" ry="4" height="58" stroke="none"/>
    </g>
    <g font-size="16px" stroke-linecap="butt" transform="matrix(1,0,0,1,-80,62)" text-rendering="geometricPrecision" font-family="sans-serif" shape-rendering="geometricPrecision" stroke-miterlimit="1.45">
      <text x="158.1464" xml:space="preserve" y="308.8163" clip-path="url(#clipPath2)" stroke="none">dct:MediaType</text>
      <rect x="112.1623" y="273.7694" clip-path="url(#clipPath2)" fill="none" width="204.9682" rx="4" ry="4" height="58"/>
    </g>
    <g fill="yellow" text-rendering="geometricPrecision" shape-rendering="geometricPrecision" transform="matrix(1,0,0,1,-80,62)" stroke="yellow">
      <rect x="356.4073" y="531" clip-path="url(#clipPath2)" width="204.9682" rx="4" ry="4" height="58" stroke="none"/>
    </g>
    <g font-size="16px" stroke-linecap="butt" transform="matrix(1,0,0,1,-80,62)" text-rendering="geometricPrecision" font-family="sans-serif" shape-rendering="geometricPrecision" stroke-miterlimit="1.45">
      <text x="380.7899" xml:space="preserve" y="566.0469" clip-path="url(#clipPath2)" stroke="none">dct:RightsStatement</text>
      <rect x="356.4073" y="531" clip-path="url(#clipPath2)" fill="none" width="204.9682" rx="4" ry="4" height="58"/>
    </g>
    <g stroke-linecap="butt" transform="matrix(1,0,0,1,-80,62)" fill="navy" text-rendering="geometricPrecision" shape-rendering="geometricPrecision" stroke="navy" stroke-miterlimit="1.45">
      <path fill="none" d="M214.6464 526.9651 L214.6464 388.0755 L566.4716 388.0755" clip-path="url(#clipPath2)"/>
      <path d="M214.6464 534.9651 C212.4373 534.9651 210.6464 533.1743 210.6464 530.9651 C210.6464 528.7559 212.4373 526.9651 214.6464 526.9651 C216.8556 526.9651 218.6464 528.7559 218.6464 530.9651 C218.6464 533.1743 216.8556 534.9651 214.6464 534.9651 Z" clip-path="url(#clipPath2)" stroke="none"/>
      <path d="M577.4716 388.0755 L565.4716 382.0755 L565.4716 394.0755 Z" clip-path="url(#clipPath2)" stroke="none"/>
      <rect x="341.3224" y="379.0091" clip-path="url(#clipPath2)" fill="white" width="100.3926" height="18.1328" stroke="none"/>
      <text x="343.3224" xml:space="preserve" y="392.6107" clip-path="url(#clipPath2)" font-family="sans-serif" stroke="none">dcat:distribution</text>
      <path fill="none" d="M595.7892 416.0959 L595.7892 673.8999" clip-path="url(#clipPath2)"/>
      <path d="M595.7892 408.0959 C597.9984 408.0959 599.7892 409.8867 599.7892 412.0959 C599.7892 414.305 597.9984 416.0959 595.7892 416.0959 C593.5801 416.0959 591.7892 414.305 591.7892 412.0959 C591.7892 409.8867 593.5801 408.0959 595.7892 408.0959 Z" clip-path="url(#clipPath2)" stroke="none"/>
      <path d="M595.7892 684.8999 L601.7892 672.8999 L589.7892 672.8999 Z" clip-path="url(#clipPath2)" stroke="none"/>
    </g>
    <g stroke-linecap="butt" transform="matrix(0,1,-1,0,524.8557,507.288)" fill="white" text-rendering="geometricPrecision" shape-rendering="geometricPrecision" stroke="white" stroke-miterlimit="1.45">
      <rect x="0" width="111.0215" height="18.1328" y="0" clip-path="url(#clipPath3)" stroke="none"/>
      <text x="2" y="13.6016" clip-path="url(#clipPath3)" fill="navy" font-family="sans-serif" stroke="none" xml:space="preserve">dcat:accessService</text>
    </g>
    <g stroke-linecap="butt" transform="matrix(1,0,0,1,-80,62)" fill="navy" text-rendering="geometricPrecision" shape-rendering="geometricPrecision" stroke="navy" stroke-miterlimit="1.45">
      <path fill="none" d="M573.4907 718.7773 L268.2268 718.7773 L268.2268 600.0176" clip-path="url(#clipPath2)"/>
      <path d="M581.4907 718.7773 C581.4907 720.9865 579.6999 722.7773 577.4907 722.7773 C575.2816 722.7773 573.4907 720.9865 573.4907 718.7773 C573.4907 716.5682 575.2816 714.7773 577.4907 714.7773 C579.6999 714.7773 581.4907 716.5682 581.4907 718.7773 Z" clip-path="url(#clipPath2)" stroke="none"/>
      <path d="M268.2268 589.0176 L262.2268 601.0176 L274.2268 601.0176 Z" clip-path="url(#clipPath2)" stroke="none"/>
      <rect x="361.6292" y="709.7109" clip-path="url(#clipPath2)" fill="white" width="113.3594" height="18.1328" stroke="none"/>
      <text x="363.6292" xml:space="preserve" y="723.3125" clip-path="url(#clipPath2)" font-family="sans-serif" stroke="none">dcat:servesDataset</text>
      <path fill="none" d="M755.0469 416.0804 L755.0469 543.6939 L889.9197 543.6939" clip-path="url(#clipPath2)"/>
      <path d="M755.0469 408.0804 C757.256 408.0804 759.0469 409.8712 759.0469 412.0804 C759.0469 414.2895 757.256 416.0804 755.0469 416.0804 C752.8377 416.0804 751.0469 414.2895 751.0469 412.0804 C751.0469 409.8712 752.8377 408.0804 755.0469 408.0804 Z" clip-path="url(#clipPath2)" stroke="none"/>
      <path d="M900.9197 543.6939 L888.9197 537.6939 L888.9197 549.6939 Z" clip-path="url(#clipPath2)" stroke="none"/>
      <rect x="796.6677" y="534.6275" clip-path="url(#clipPath2)" fill="white" width="74.582" height="18.1328" stroke="none"/>
      <text x="798.6677" xml:space="preserve" y="548.2291" clip-path="url(#clipPath2)" font-family="sans-serif" stroke="none">adms:status</text>
      <path fill="none" d="M786.457 713.9111 L1130.6458 713.9111 L1130.6458 543.6939 L1116.9482 543.6939" clip-path="url(#clipPath2)"/>
      <path d="M778.457 713.9111 C778.457 711.7019 780.2479 709.9111 782.457 709.9111 C784.6662 709.9111 786.457 711.7019 786.457 713.9111 C786.457 716.1202 784.6662 717.9111 782.457 717.9111 C780.2479 717.9111 778.457 716.1202 778.457 713.9111 Z" clip-path="url(#clipPath2)" stroke="none"/>
      <path d="M1105.9482 543.6939 L1117.9482 549.6939 L1117.9482 537.6939 Z" clip-path="url(#clipPath2)" stroke="none"/>
      <rect x="990.6316" y="704.8447" clip-path="url(#clipPath2)" fill="white" width="122.3945" height="18.1328" stroke="none"/>
      <text x="992.6316" xml:space="preserve" y="718.4462" clip-path="url(#clipPath2)" font-family="sans-serif" stroke="none">dcat:theme/dct:type</text>
      <path fill="none" d="M763.7031 416.0812 L763.7031 463.3816 L889.9218 463.3816" clip-path="url(#clipPath2)"/>
      <path d="M763.7031 408.0812 C765.9122 408.0812 767.7031 409.8721 767.7031 412.0812 C767.7031 414.2904 765.9122 416.0812 763.7031 416.0812 C761.4939 416.0812 759.7031 414.2904 759.7031 412.0812 C759.7031 409.8721 761.4939 408.0812 763.7031 408.0812 Z" clip-path="url(#clipPath2)" stroke="none"/>
      <path d="M900.9218 463.3816 L888.9218 457.3816 L888.9218 469.3816 Z" clip-path="url(#clipPath2)" stroke="none"/>
      <rect x="794.7647" y="454.3152" clip-path="url(#clipPath2)" fill="white" width="66.0039" height="18.1328" stroke="none"/>
      <text x="796.7647" xml:space="preserve" y="467.9167" clip-path="url(#clipPath2)" font-family="sans-serif" stroke="none">dct:license</text>
      <path fill="none" d="M786.5104 733.22 L1143.9303 733.22 L1143.9303 463.3816 L1116.9235 463.3816" clip-path="url(#clipPath2)"/>
      <path d="M778.5104 733.22 C778.5104 731.0108 780.3013 729.22 782.5104 729.22 C784.7196 729.22 786.5104 731.0108 786.5104 733.22 C786.5104 735.4291 784.7196 737.22 782.5104 737.22 C780.3013 737.22 778.5104 735.4291 778.5104 733.22 Z" clip-path="url(#clipPath2)" stroke="none"/>
      <path d="M1105.9235 463.3816 L1117.9235 469.3816 L1117.9235 457.3816 Z" clip-path="url(#clipPath2)" stroke="none"/>
    </g>
    <g stroke-linecap="butt" transform="matrix(0,1,-1,0,1072.9967,590.2802)" fill="white" text-rendering="geometricPrecision" shape-rendering="geometricPrecision" stroke="white" stroke-miterlimit="1.45">
      <rect x="0" width="66.0039" height="18.1328" y="0" clip-path="url(#clipPath4)" stroke="none"/>
      <text x="2" y="13.6016" clip-path="url(#clipPath4)" fill="navy" font-family="sans-serif" stroke="none" xml:space="preserve">dct:license</text>
    </g>
    <g stroke-linecap="butt" transform="matrix(1,0,0,1,-80,62)" fill="navy" text-rendering="geometricPrecision" shape-rendering="geometricPrecision" stroke="navy" stroke-miterlimit="1.45">
      <path fill="none" d="M746.6937 416.0872 L746.6937 624.0062 L889.9176 624.0062" clip-path="url(#clipPath2)"/>
      <path d="M746.6937 408.0872 C748.9028 408.0872 750.6937 409.878 750.6937 412.0872 C750.6937 414.2963 748.9028 416.0872 746.6937 416.0872 C744.4845 416.0872 742.6937 414.2963 742.6937 412.0872 C742.6937 409.878 744.4845 408.0872 746.6937 408.0872 Z" clip-path="url(#clipPath2)" stroke="none"/>
      <path d="M900.9176 624.0062 L888.9176 618.0062 L888.9176 630.0062 Z" clip-path="url(#clipPath2)" stroke="none"/>
      <rect x="766.2662" y="607.8734" clip-path="url(#clipPath2)" fill="white" width="111.5488" height="32.2656" stroke="none"/>
      <text x="777.6646" xml:space="preserve" y="621.475" clip-path="url(#clipPath2)" font-family="sans-serif" stroke="none">dcat:accessURL</text>
      <text x="768.2662" xml:space="preserve" y="635.6078" clip-path="url(#clipPath2)" font-family="sans-serif" stroke="none">dcat:downloadURL</text>
      <path fill="none" d="M786.4932 696.1852 L1003.4394 696.1852 L1003.4394 664.0062" clip-path="url(#clipPath2)"/>
      <path d="M778.4932 696.1852 C778.4932 693.976 780.284 692.1852 782.4932 692.1852 C784.7023 692.1852 786.4932 693.976 786.4932 696.1852 C786.4932 698.3943 784.7023 700.1852 782.4932 700.1852 C780.284 700.1852 778.4932 698.3943 778.4932 696.1852 Z" clip-path="url(#clipPath2)" stroke="none"/>
      <path d="M1003.4394 653.0062 L997.4394 665.0062 L1009.4394 665.0062 Z" clip-path="url(#clipPath2)" stroke="none"/>
      <rect x="821.8895" y="680.0524" clip-path="url(#clipPath2)" fill="white" width="151.2695" height="32.2656" stroke="none"/>
      <text x="846.0613" xml:space="preserve" y="693.6539" clip-path="url(#clipPath2)" font-family="sans-serif" stroke="none">dcat:endpointURL</text>
      <text x="823.8895" xml:space="preserve" y="707.7867" clip-path="url(#clipPath2)" font-family="sans-serif" stroke="none">dcat:endpointDescription</text>
      <path fill="none" d="M657.2795 416.0946 L657.2795 530.9916" clip-path="url(#clipPath2)" stroke="green"/>
    </g>
    <g stroke-linecap="butt" transform="matrix(1,0,0,1,-80,62)" fill-opacity="0" fill="rgb(0,0,0)" text-rendering="geometricPrecision" shape-rendering="geometricPrecision" stroke="rgb(0,0,0)" stroke-opacity="0" stroke-miterlimit="1.45">
      <path d="M657.2795 408.0946 C659.4887 408.0946 661.2795 409.8854 661.2795 412.0946 C661.2795 414.3037 659.4887 416.0946 657.2795 416.0946 C655.0704 416.0946 653.2795 414.3037 653.2795 412.0946 C653.2795 409.8854 655.0704 408.0946 657.2795 408.0946 Z" stroke="none" clip-path="url(#clipPath2)"/>
    </g>
    <g stroke-linecap="butt" transform="matrix(1,0,0,1,-80,62)" fill="green" text-rendering="geometricPrecision" shape-rendering="geometricPrecision" stroke="green" stroke-miterlimit="1.45">
      <path fill="none" d="M657.2795 408.0946 C659.4887 408.0946 661.2795 409.8854 661.2795 412.0946 C661.2795 414.3037 659.4887 416.0946 657.2795 416.0946 C655.0704 416.0946 653.2795 414.3037 653.2795 412.0946 C653.2795 409.8854 655.0704 408.0946 657.2795 408.0946 Z" clip-path="url(#clipPath2)"/>
      <path fill="white" d="M657.2795 545.9916 L663.2795 529.9916 L651.2795 529.9916 Z" clip-path="url(#clipPath2)" stroke="none"/>
      <path fill="none" d="M657.2795 545.9916 L663.2795 529.9916 L651.2795 529.9916 Z" clip-path="url(#clipPath2)"/>
      <rect x="611.6829" y="434.6393" clip-path="url(#clipPath2)" fill="white" width="91.1934" height="88.7969" stroke="none"/>
      <text x="620.4299" xml:space="preserve" y="448.2409" clip-path="url(#clipPath2)" font-family="sans-serif" stroke="none">dct:modified</text>
      <text x="627.593" xml:space="preserve" y="462.3737" clip-path="url(#clipPath2)" font-family="sans-serif" stroke="none">dct:issued</text>
      <text x="634.9875" xml:space="preserve" y="476.5065" clip-path="url(#clipPath2)" font-family="sans-serif" stroke="none">dct:title</text>
      <text x="613.6829" xml:space="preserve" y="490.6393" clip-path="url(#clipPath2)" font-family="sans-serif" stroke="none">dct:description</text>
      <text x="618.7278" xml:space="preserve" y="504.7721" clip-path="url(#clipPath2)" font-family="sans-serif" stroke="none">dcat:byteSize</text>
      <text x="618.4495" xml:space="preserve" y="518.9049" clip-path="url(#clipPath2)" font-family="sans-serif" stroke="none">dcat:keyword</text>
      <path fill="none" d="M697.4222 680.8864 L697.4222 604.0076" clip-path="url(#clipPath2)"/>
    </g>
    <g stroke-linecap="butt" transform="matrix(1,0,0,1,-80,62)" fill-opacity="0" fill="rgb(0,0,0)" text-rendering="geometricPrecision" shape-rendering="geometricPrecision" stroke="rgb(0,0,0)" stroke-opacity="0" stroke-miterlimit="1.45">
      <path d="M697.4222 688.8864 C695.213 688.8864 693.4222 687.0955 693.4222 684.8864 C693.4222 682.6772 695.213 680.8864 697.4222 680.8864 C699.6313 680.8864 701.4222 682.6772 701.4222 684.8864 C701.4222 687.0955 699.6313 688.8864 697.4222 688.8864 Z" stroke="none" clip-path="url(#clipPath2)"/>
    </g>
    <g stroke-linecap="butt" transform="matrix(1,0,0,1,-80,62)" fill="green" text-rendering="geometricPrecision" shape-rendering="geometricPrecision" stroke="green" stroke-miterlimit="1.45">
      <path fill="none" d="M697.4222 688.8864 C695.213 688.8864 693.4222 687.0955 693.4222 684.8864 C693.4222 682.6772 695.213 680.8864 697.4222 680.8864 C699.6313 680.8864 701.4222 682.6772 701.4222 684.8864 C701.4222 687.0955 699.6313 688.8864 697.4222 688.8864 Z" clip-path="url(#clipPath2)"/>
      <path fill="white" d="M697.4222 589.0076 L691.4222 605.0076 L703.4222 605.0076 Z" clip-path="url(#clipPath2)" stroke="none"/>
      <path fill="none" d="M697.4222 589.0076 L691.4222 605.0076 L703.4222 605.0076 Z" clip-path="url(#clipPath2)"/>
      <rect x="651.8255" y="620.8265" clip-path="url(#clipPath2)" fill="white" width="91.1934" height="32.2656" stroke="none"/>
      <text x="675.1302" xml:space="preserve" y="634.4281" clip-path="url(#clipPath2)" font-family="sans-serif" stroke="none">dct:title</text>
      <text x="653.8255" xml:space="preserve" y="648.5609" clip-path="url(#clipPath2)" font-family="sans-serif" stroke="none">dct:description</text>
      <path fill="none" d="M595.6334 350.0723 L595.6334 182.7694 L328.1305 182.7694" clip-path="url(#clipPath2)" stroke="navy"/>
      <path fill="navy" d="M595.6334 358.0723 C593.4242 358.0723 591.6334 356.2814 591.6334 354.0723 C591.6334 351.8632 593.4242 350.0723 595.6334 350.0723 C597.8425 350.0723 599.6334 351.8632 599.6334 354.0723 C599.6334 356.2814 597.8425 358.0723 595.6334 358.0723 Z" clip-path="url(#clipPath2)" stroke="none"/>
      <path fill="navy" d="M317.1305 182.7694 L329.1305 188.7694 L329.1305 176.7694 Z" clip-path="url(#clipPath2)" stroke="none"/>
      <rect x="428.4464" y="173.703" clip-path="url(#clipPath2)" fill="white" width="64.9961" height="18.1328" stroke="none"/>
      <text x="430.4464" y="187.3046" clip-path="url(#clipPath2)" fill="navy" font-family="sans-serif" stroke="none" xml:space="preserve">dct:format</text>
      <path fill="none" d="M753.1517 350.0458 L753.1517 222.4633 L889.9428 222.4633" clip-path="url(#clipPath2)" stroke="navy"/>
      <path fill="navy" d="M753.1517 358.0458 C750.9426 358.0458 749.1517 356.2549 749.1517 354.0458 C749.1517 351.8366 750.9426 350.0458 753.1517 350.0458 C755.3609 350.0458 757.1517 351.8366 757.1517 354.0458 C757.1517 356.2549 755.3609 358.0458 753.1517 358.0458 Z" clip-path="url(#clipPath2)" stroke="none"/>
      <path fill="navy" d="M900.9428 222.4633 L888.9428 216.4633 L888.9428 228.4633 Z" clip-path="url(#clipPath2)" stroke="none"/>
      <rect x="806.4305" y="213.3969" clip-path="url(#clipPath2)" fill="white" width="58.9668" height="18.1328" stroke="none"/>
      <text x="808.4305" y="226.9984" clip-path="url(#clipPath2)" fill="navy" font-family="sans-serif" stroke="none" xml:space="preserve">foaf:page</text>
      <path fill="none" d="M767.3546 350.0618 L767.3546 302.7694 L889.9462 302.7694" clip-path="url(#clipPath2)" stroke="navy"/>
      <path fill="navy" d="M767.3546 358.0618 C765.1454 358.0618 763.3546 356.2709 763.3546 354.0618 C763.3546 351.8526 765.1454 350.0618 767.3546 350.0618 C769.5637 350.0618 771.3546 351.8526 771.3546 354.0618 C771.3546 356.2709 769.5637 358.0618 767.3546 358.0618 Z" clip-path="url(#clipPath2)" stroke="none"/>
      <path fill="navy" d="M900.9462 302.7694 L888.9462 296.7694 L888.9462 308.7694 Z" clip-path="url(#clipPath2)" stroke="none"/>
      <rect x="789.9664" y="293.703" clip-path="url(#clipPath2)" fill="white" width="79.252" height="18.1328" stroke="none"/>
      <text x="791.9664" y="307.3045" clip-path="url(#clipPath2)" fill="navy" font-family="sans-serif" stroke="none" xml:space="preserve">dct:language</text>
      <path fill="none" d="M786.4894 383.0755 L889.95 383.0755" clip-path="url(#clipPath2)" stroke="navy"/>
      <path fill="navy" d="M778.4894 383.0755 C778.4894 380.8664 780.2803 379.0755 782.4894 379.0755 C784.6986 379.0755 786.4894 380.8664 786.4894 383.0755 C786.4894 385.2846 784.6986 387.0755 782.4894 387.0755 C780.2803 387.0755 778.4894 385.2846 778.4894 383.0755 Z" clip-path="url(#clipPath2)" stroke="none"/>
      <path fill="navy" d="M900.95 383.0755 L888.95 377.0755 L888.95 389.0755 Z" clip-path="url(#clipPath2)" stroke="none"/>
      <rect x="793.7588" y="374.0091" clip-path="url(#clipPath2)" fill="white" width="95.9219" height="18.1328" stroke="none"/>
      <text x="795.7587" y="387.6107" clip-path="url(#clipPath2)" fill="navy" font-family="sans-serif" stroke="none" xml:space="preserve">dct:conformsTo</text>
      <path fill="none" d="M586.4438 350.0497 L586.4438 302.7694 L328.1721 302.7694" clip-path="url(#clipPath2)" stroke="navy"/>
      <path fill="navy" d="M586.4438 358.0497 C584.2346 358.0497 582.4438 356.2589 582.4438 354.0497 C582.4438 351.8406 584.2346 350.0497 586.4438 350.0497 C588.653 350.0497 590.4438 351.8406 590.4438 354.0497 C590.4438 356.2589 588.653 358.0497 586.4438 358.0497 Z" clip-path="url(#clipPath2)" stroke="none"/>
      <path fill="navy" d="M317.1721 302.7694 L329.1721 308.7694 L329.1721 296.7694 Z" clip-path="url(#clipPath2)" stroke="none"/>
      <rect x="391.4756" y="293.703" clip-path="url(#clipPath2)" fill="white" width="129.748" height="18.1328" stroke="none"/>
      <text x="393.4756" y="307.3045" clip-path="url(#clipPath2)" fill="navy" font-family="sans-serif" stroke="none" xml:space="preserve">dcat:compressFormat</text>
      <path fill="none" d="M214.6464 269.7391 L214.6464 222.7694" clip-path="url(#clipPath2)" stroke="navy"/>
      <path fill="navy" d="M214.6464 277.7391 C212.4373 277.7391 210.6464 275.9482 210.6464 273.7391 C210.6464 271.53 212.4373 269.7391 214.6464 269.7391 C216.8556 269.7391 218.6464 271.53 218.6464 273.7391 C218.6464 275.9482 216.8556 277.7391 214.6464 277.7391 Z" clip-path="url(#clipPath2)" stroke="none"/>
      <path fill="navy" d="M214.6464 211.7694 L208.6464 223.7694 L220.6464 223.7694 Z" clip-path="url(#clipPath2)" stroke="none"/>
      <rect x="166.5097" y="233.703" clip-path="url(#clipPath2)" fill="white" width="96.2734" height="18.1328" stroke="none"/>
      <text x="168.5097" y="247.3046" clip-path="url(#clipPath2)" fill="navy" font-family="sans-serif" stroke="none" xml:space="preserve">rdfs:subClassOf</text>
      <path fill="none" d="M573.4869 398.0755 L458.8914 398.0755 L458.8914 519.9675" clip-path="url(#clipPath2)" stroke="navy"/>
      <path fill="navy" d="M581.4869 398.0755 C581.4869 400.2846 579.6961 402.0755 577.4869 402.0755 C575.2778 402.0755 573.4869 400.2846 573.4869 398.0755 C573.4869 395.8664 575.2778 394.0755 577.4869 394.0755 C579.6961 394.0755 581.4869 395.8664 581.4869 398.0755 Z" clip-path="url(#clipPath2)" stroke="none"/>
      <path fill="navy" d="M458.8914 530.9675 L464.8914 518.9675 L452.8914 518.9675 Z" clip-path="url(#clipPath2)" stroke="none"/>
      <rect x="428.9422" y="450.9088" clip-path="url(#clipPath2)" fill="white" width="59.8984" height="18.1328" stroke="none"/>
      <text x="430.9422" y="464.5104" clip-path="url(#clipPath2)" fill="navy" font-family="sans-serif" stroke="none" xml:space="preserve">dct:rights</text>
      <path fill="none" d="M573.516 700.4937 L458.8914 700.4937 L458.8914 600.0106" clip-path="url(#clipPath2)" stroke="navy"/>
      <path fill="navy" d="M581.516 700.4937 C581.516 702.7029 579.7252 704.4937 577.516 704.4937 C575.3068 704.4937 573.516 702.7029 573.516 700.4937 C573.516 698.2845 575.3068 696.4937 577.516 696.4937 C579.7252 696.4937 581.516 698.2845 581.516 700.4937 Z" clip-path="url(#clipPath2)" stroke="none"/>
      <path fill="navy" d="M458.8914 589.0106 L452.8914 601.0106 L464.8914 601.0106 Z" clip-path="url(#clipPath2)" stroke="none"/>
      <rect x="463.4331" y="691.4273" clip-path="url(#clipPath2)" fill="white" width="100.416" height="18.1328" stroke="none"/>
      <text x="465.4331" y="705.0289" clip-path="url(#clipPath2)" fill="navy" font-family="sans-serif" stroke="none" xml:space="preserve">dct:accessRights</text>
    </g>
    <g fill="rgb(210,210,210)" text-rendering="geometricPrecision" shape-rendering="geometricPrecision" transform="matrix(1,0,0,1,-80,62) translate(4,4)" stroke="rgb(210,210,210)">
      <rect x="112.1623" width="427.1168" height="169.7759" y="-46.0066" clip-path="url(#clipPath5)" stroke="none"/>
    </g>
    <g fill="white" text-rendering="geometricPrecision" shape-rendering="geometricPrecision" transform="matrix(1,0,0,1,-80,62)" stroke="white">
      <rect x="112.1623" width="427.1168" height="169.7759" y="-46.0066" clip-path="url(#clipPath2)" stroke="none"/>
      <rect x="112.1623" y="-46.0066" clip-path="url(#clipPath2)" fill="rgb(183,182,158)" width="427.1168" height="21.666" stroke="none"/>
    </g>
    <g font-size="15px" stroke-linecap="butt" transform="matrix(1,0,0,1,-80,62)" text-rendering="geometricPrecision" font-family="sans-serif" shape-rendering="geometricPrecision" font-weight="bold" stroke-miterlimit="1.45">
      <text x="460.4114" xml:space="preserve" y="-29.5046" clip-path="url(#clipPath2)" stroke="none">Prefixes   </text>
      <rect fill="none" x="112.1623" width="427.1168" height="169.7759" y="-46.0066" clip-path="url(#clipPath2)"/>
      <text x="181.0741" font-size="16px" y="9.1756" clip-path="url(#clipPath2)" stroke="none" font-weight="normal" xml:space="preserve">http://www.w3.org/ns/dcat#</text>
      <text x="181.0741" font-size="16px" y="28.0194" clip-path="url(#clipPath2)" stroke="none" font-weight="normal" xml:space="preserve">http://purl.org/dc/terms/</text>
      <text x="181.0741" font-size="16px" y="46.8631" clip-path="url(#clipPath2)" stroke="none" font-weight="normal" xml:space="preserve">http://www.w3.org/2004/02/skos/core#</text>
      <text x="181.0741" font-size="16px" y="65.7069" clip-path="url(#clipPath2)" stroke="none" font-weight="normal" xml:space="preserve">http://xmlns.com/foaf/0.1/</text>
      <text x="181.0741" font-size="16px" y="84.5506" clip-path="url(#clipPath2)" stroke="none" font-weight="normal" xml:space="preserve">http://www.w3.org/2000/01/rdf-schema#</text>
      <text x="181.0741" font-size="16px" y="103.3944" clip-path="url(#clipPath2)" stroke="none" font-weight="normal" xml:space="preserve">http://www.w3.org/ns/adms#</text>
      <text x="129.1623" xml:space="preserve" font-size="16px" y="8.1282" clip-path="url(#clipPath2)" stroke="none">dcat:</text>
      <text x="129.1623" xml:space="preserve" font-size="16px" y="26.972" clip-path="url(#clipPath2)" stroke="none">dct:</text>
      <text x="129.1623" xml:space="preserve" font-size="16px" y="45.8157" clip-path="url(#clipPath2)" stroke="none">skos:</text>
      <text x="129.1623" xml:space="preserve" font-size="16px" y="64.6595" clip-path="url(#clipPath2)" stroke="none">foaf:</text>
      <text x="129.1623" xml:space="preserve" font-size="16px" y="83.5032" clip-path="url(#clipPath2)" stroke="none">rdfs:</text>
      <text x="129.1623" xml:space="preserve" font-size="16px" y="102.347" clip-path="url(#clipPath2)" stroke="none">adms:</text>
    </g>
    <g fill="rgb(255,153,204)" text-rendering="geometricPrecision" shape-rendering="geometricPrecision" transform="matrix(1,0,0,1,-80,62)" stroke="rgb(255,153,204)">
      <circle r="10" clip-path="url(#clipPath2)" cx="146.1765" cy="643.0062" stroke="none"/>
    </g>
    <g text-rendering="geometricPrecision" stroke-miterlimit="1.45" shape-rendering="geometricPrecision" font-family="sans-serif" transform="matrix(1,0,0,1,-80,62)" stroke-linecap="butt">
      <text x="97.8015" xml:space="preserve" y="670.6078" clip-path="url(#clipPath2)" stroke="none">Research Output</text>
      <text x="104.1501" xml:space="preserve" y="684.7406" clip-path="url(#clipPath2)" stroke="none">(digital object)</text>
      <text x="113.6247" xml:space="preserve" y="698.8734" clip-path="url(#clipPath2)" stroke="none">e.g. corpus</text>
      <circle fill="none" stroke-width="3" r="10" clip-path="url(#clipPath2)" cx="146.1765" cy="643.0062"/>
    </g>
    <g fill="rgb(255,153,204)" text-rendering="geometricPrecision" shape-rendering="geometricPrecision" transform="matrix(1,0,0,1,-80,62)" stroke="rgb(255,153,204)">
      <circle r="10" clip-path="url(#clipPath2)" cx="680" cy="789.0124" stroke="none"/>
    </g>
    <g text-rendering="geometricPrecision" stroke-miterlimit="1.45" shape-rendering="geometricPrecision" font-family="sans-serif" transform="matrix(1,0,0,1,-80,62)" stroke-linecap="butt">
      <text x="631.625" xml:space="preserve" y="816.614" clip-path="url(#clipPath2)" stroke="none">Research Output</text>
      <text x="624.9775" xml:space="preserve" y="830.7468" clip-path="url(#clipPath2)" stroke="none">(object interaction)</text>
      <text x="648.2539" xml:space="preserve" y="844.8796" clip-path="url(#clipPath2)" stroke="none">e.g. search</text>
      <circle fill="none" stroke-width="3" r="10" clip-path="url(#clipPath2)" cx="680" cy="789.0124"/>
    </g>
    <g fill="rgb(255,153,204)" text-rendering="geometricPrecision" shape-rendering="geometricPrecision" transform="matrix(1,0,0,1,-80,62)" stroke="rgb(255,153,204)">
      <circle r="10" clip-path="url(#clipPath2)" cx="680" cy="314.0755" stroke="none"/>
    </g>
    <g text-rendering="geometricPrecision" stroke-miterlimit="1.45" shape-rendering="geometricPrecision" font-family="sans-serif" transform="matrix(1,0,0,1,-80,62)" stroke-linecap="butt">
      <text x="650.9639" xml:space="preserve" y="295.5443" clip-path="url(#clipPath2)" stroke="none">Download</text>
      <circle fill="none" stroke-width="3" r="10" clip-path="url(#clipPath2)" cx="680" cy="314.0755"/>
    </g>
    <g fill="rgb(255,153,204)" text-rendering="geometricPrecision" shape-rendering="geometricPrecision" transform="matrix(1,0,0,1,-80,62)" stroke="rgb(255,153,204)">
      <circle r="10" clip-path="url(#clipPath2)" cx="1194" cy="624.0062" stroke="none"/>
    </g>
    <g text-rendering="geometricPrecision" stroke-miterlimit="1.45" shape-rendering="geometricPrecision" font-family="sans-serif" transform="matrix(1,0,0,1,-80,62)" stroke-linecap="butt">
      <text x="1222.8672" xml:space="preserve" y="621.475" clip-path="url(#clipPath2)" stroke="none">URL,</text>
      <text x="1210" xml:space="preserve" y="635.6078" clip-path="url(#clipPath2)" stroke="none">webpage</text>
      <circle fill="none" stroke-width="3" r="10" clip-path="url(#clipPath2)" cx="1194" cy="624.0062"/>
    </g>
    <g fill="rgb(255,153,204)" text-rendering="geometricPrecision" shape-rendering="geometricPrecision" transform="matrix(1,0,0,1,-80,62)" stroke="rgb(255,153,204)">
      <circle r="10" clip-path="url(#clipPath2)" cx="1185" cy="543.6939" stroke="none"/>
    </g>
    <g text-rendering="geometricPrecision" stroke-miterlimit="1.45" shape-rendering="geometricPrecision" font-family="sans-serif" transform="matrix(1,0,0,1,-80,62)" stroke-linecap="butt">
      <text x="1203.4053" xml:space="preserve" y="534.0963" clip-path="url(#clipPath2)" stroke="none">Research activity,</text>
      <text x="1216.2988" xml:space="preserve" y="548.2291" clip-path="url(#clipPath2)" stroke="none">output type, </text>
      <text x="1201" xml:space="preserve" y="562.3619" clip-path="url(#clipPath2)" stroke="none">technologies used</text>
      <circle fill="none" stroke-width="3" r="10" clip-path="url(#clipPath2)" cx="1185" cy="543.6939"/>
      <path fill="none" d="M146.1765 589.0029 L146.1765 625.0062" clip-path="url(#clipPath2)"/>
      <path d="M146.1765 633.0062 L151.1765 621.0062 L146.1765 624.0062 L141.1765 621.0062 Z" clip-path="url(#clipPath2)" stroke="none"/>
      <path fill="none" d="M680 742.9175 L680 771.0124" clip-path="url(#clipPath2)"/>
      <path d="M680 779.0124 L685 767.0124 L680 770.0124 L675 767.0124 Z" clip-path="url(#clipPath2)" stroke="none"/>
      <path fill="none" d="M680 354.0672 L680 332.0755" clip-path="url(#clipPath2)"/>
      <path d="M680 324.0755 L675 336.0755 L680 333.0755 L685 336.0755 Z" clip-path="url(#clipPath2)" stroke="none"/>
      <path fill="none" d="M1105.9308 624.0062 L1176 624.0062" clip-path="url(#clipPath2)"/>
      <path d="M1184 624.0062 L1172 619.0062 L1175 624.0062 L1172 629.0062 Z" clip-path="url(#clipPath2)" stroke="none"/>
      <path fill="none" d="M1078.5 514.7148 L1078.5 509 L1185 509 L1185 525.6939" clip-path="url(#clipPath2)"/>
      <path d="M1185 533.6939 L1190 521.6939 L1185 524.6939 L1180 521.6939 Z" clip-path="url(#clipPath2)" stroke="none"/>
    </g>
  </g>
</svg>
