<?xml version="1.0" encoding="UTF-8"?><svg xmlns="http://www.w3.org/2000/svg" xmlns:xlink="http://www.w3.org/1999/xlink" fill-opacity="1" color-rendering="auto" color-interpolation="auto" text-rendering="auto" stroke="black" stroke-linecap="square" width="1373" stroke-miterlimit="10" shape-rendering="auto" stroke-opacity="1" fill="black" stroke-dasharray="none" font-weight="normal" stroke-width="1" height="935" font-family="'Dialog'" font-style="normal" stroke-linejoin="miter" font-size="12px" stroke-dashoffset="0" image-rendering="auto">
  <!--Generated by ySVG 2.6-->
  <defs id="genericDefs"/>
  <g>
    <defs id="defs1">
      <clipPath clipPathUnits="userSpaceOnUse" id="clipPath1">
        <path d="M0 0 L1373 0 L1373 935 L0 935 L0 0 Z"/>
      </clipPath>
      <clipPath clipPathUnits="userSpaceOnUse" id="clipPath2">
        <path d="M-305 -188 L1068 -188 L1068 747 L-305 747 L-305 -188 Z"/>
      </clipPath>
      <clipPath clipPathUnits="userSpaceOnUse" id="clipPath3">
        <path d="M-309 -192 L1064 -192 L1064 743 L-309 743 L-309 -192 Z"/>
      </clipPath>
    </defs>
    <g fill="white" text-rendering="geometricPrecision" shape-rendering="geometricPrecision" transform="translate(305,188)" stroke="white">
      <rect x="-305" width="1373" height="935" y="-188" clip-path="url(#clipPath2)" stroke="none"/>
    </g>
    <g fill="yellow" text-rendering="geometricPrecision" shape-rendering="geometricPrecision" transform="matrix(1,0,0,1,305,188)" stroke="yellow">
      <rect x="297.5159" y="146" clip-path="url(#clipPath2)" width="204.9682" rx="4" ry="4" height="58" stroke="none"/>
    </g>
    <g font-size="16px" stroke-linecap="butt" transform="matrix(1,0,0,1,305,188)" text-rendering="geometricPrecision" font-family="sans-serif" shape-rendering="geometricPrecision" stroke-miterlimit="1.45">
      <text x="351.5781" xml:space="preserve" y="181.0469" clip-path="url(#clipPath2)" stroke="none">dcat:Dataset</text>
      <rect x="297.5159" y="146" clip-path="url(#clipPath2)" fill="none" width="204.9682" rx="4" ry="4" height="58"/>
    </g>
    <g fill="yellow" text-rendering="geometricPrecision" shape-rendering="geometricPrecision" transform="matrix(1,0,0,1,305,188)" stroke="yellow">
      <rect x="-102.9588" y="146" clip-path="url(#clipPath2)" width="204.9682" rx="4" ry="4" height="58" stroke="none"/>
    </g>
    <g font-size="16px" stroke-linecap="butt" transform="matrix(1,0,0,1,305,188)" text-rendering="geometricPrecision" font-family="sans-serif" shape-rendering="geometricPrecision" stroke-miterlimit="1.45">
      <text x="-65.6934" xml:space="preserve" y="181.0469" clip-path="url(#clipPath2)" stroke="none">dcat:Distribution</text>
      <rect x="-102.9588" y="146" clip-path="url(#clipPath2)" fill="none" width="204.9682" rx="4" ry="4" height="58"/>
    </g>
    <g fill="yellow" text-rendering="geometricPrecision" shape-rendering="geometricPrecision" transform="matrix(1,0,0,1,305,188)" stroke="yellow">
      <rect x="-102.9588" y="322" clip-path="url(#clipPath2)" width="204.9682" rx="4" ry="4" height="58" stroke="none"/>
    </g>
    <g font-size="16px" stroke-linecap="butt" transform="matrix(1,0,0,1,305,188)" text-rendering="geometricPrecision" font-family="sans-serif" shape-rendering="geometricPrecision" stroke-miterlimit="1.45">
      <text x="-41.1426" xml:space="preserve" y="357.0469" clip-path="url(#clipPath2)" stroke="none">foaf:Agent</text>
      <rect x="-102.9588" y="322" clip-path="url(#clipPath2)" fill="none" width="204.9682" rx="4" ry="4" height="58"/>
    </g>
    <g fill="yellow" text-rendering="geometricPrecision" shape-rendering="geometricPrecision" transform="matrix(1,0,0,1,305,188)" stroke="yellow">
      <rect x="-102.9588" y="410" clip-path="url(#clipPath2)" width="204.9682" rx="4" ry="4" height="58" stroke="none"/>
    </g>
    <g font-size="16px" stroke-linecap="butt" transform="matrix(1,0,0,1,305,188)" text-rendering="geometricPrecision" font-family="sans-serif" shape-rendering="geometricPrecision" stroke-miterlimit="1.45">
      <text x="-52.7481" xml:space="preserve" y="445.0469" clip-path="url(#clipPath2)" stroke="none">skos:Concept</text>
      <rect x="-102.9588" y="410" clip-path="url(#clipPath2)" fill="none" width="204.9682" rx="4" ry="4" height="58"/>
    </g>
    <g fill="yellow" text-rendering="geometricPrecision" shape-rendering="geometricPrecision" transform="matrix(1,0,0,1,305,188)" stroke="yellow">
      <rect x="670.3215" y="234" clip-path="url(#clipPath2)" width="204.9682" rx="4" ry="4" height="58" stroke="none"/>
    </g>
    <g font-size="16px" stroke-linecap="butt" transform="matrix(1,0,0,1,305,188)" text-rendering="geometricPrecision" font-family="sans-serif" shape-rendering="geometricPrecision" stroke-miterlimit="1.45">
      <text x="705.2822" xml:space="preserve" y="269.0469" clip-path="url(#clipPath2)" stroke="none">dct:PeriodOfTime</text>
      <rect x="670.3215" y="234" clip-path="url(#clipPath2)" fill="none" width="204.9682" rx="4" ry="4" height="58"/>
    </g>
    <g fill="yellow" text-rendering="geometricPrecision" shape-rendering="geometricPrecision" transform="matrix(1,0,0,1,305,188)" stroke="yellow">
      <rect x="670.3215" y="322" clip-path="url(#clipPath2)" width="204.9682" rx="4" ry="4" height="58" stroke="none"/>
    </g>
    <g font-size="16px" stroke-linecap="butt" transform="matrix(1,0,0,1,305,188)" text-rendering="geometricPrecision" font-family="sans-serif" shape-rendering="geometricPrecision" stroke-miterlimit="1.45">
      <text x="715.2079" xml:space="preserve" y="357.0469" clip-path="url(#clipPath2)" stroke="none">foaf:Document</text>
      <rect x="670.3215" y="322" clip-path="url(#clipPath2)" fill="none" width="204.9682" rx="4" ry="4" height="58"/>
    </g>
    <g fill="yellow" text-rendering="geometricPrecision" shape-rendering="geometricPrecision" transform="matrix(1,0,0,1,305,188)" stroke="yellow">
      <rect x="-102.9588" y="498" clip-path="url(#clipPath2)" width="204.9682" rx="4" ry="4" height="58" stroke="none"/>
    </g>
    <g font-size="16px" stroke-linecap="butt" transform="matrix(1,0,0,1,305,188)" text-rendering="geometricPrecision" font-family="sans-serif" shape-rendering="geometricPrecision" stroke-miterlimit="1.45">
      <text x="-48.0098" xml:space="preserve" y="533.0469" clip-path="url(#clipPath2)" stroke="none">dct:Location</text>
      <rect x="-102.9588" y="498" clip-path="url(#clipPath2)" fill="none" width="204.9682" rx="4" ry="4" height="58"/>
    </g>
    <g fill="rgb(204,255,204)" text-rendering="geometricPrecision" shape-rendering="geometricPrecision" transform="matrix(1,0,0,1,305,188)" stroke="rgb(204,255,204)">
      <path d="M-38.2984 52.5486 L75.1871 52.5486 L62.5776 95.5486 L-50.9079 95.5486 Z" fill-rule="evenodd" clip-path="url(#clipPath2)" stroke="none"/>
    </g>
    <g font-size="16px" stroke-linecap="butt" transform="matrix(1,0,0,1,305,188)" text-rendering="geometricPrecision" font-family="sans-serif" shape-rendering="geometricPrecision" stroke-miterlimit="1.45">
      <text x="-29.751" xml:space="preserve" y="80.0955" clip-path="url(#clipPath2)" stroke="none">rdfs:Literal</text>
      <path fill="none" d="M-38.2984 52.5486 L75.1871 52.5486 L62.5776 95.5486 L-50.9079 95.5486 Z" fill-rule="evenodd" clip-path="url(#clipPath2)"/>
    </g>
    <g fill="yellow" text-rendering="geometricPrecision" shape-rendering="geometricPrecision" transform="matrix(1,0,0,1,305,188)" stroke="yellow">
      <rect x="670.3215" y="410" clip-path="url(#clipPath2)" width="204.9682" rx="4" ry="4" height="58" stroke="none"/>
    </g>
    <g font-size="16px" stroke-linecap="butt" transform="matrix(1,0,0,1,305,188)" text-rendering="geometricPrecision" font-family="sans-serif" shape-rendering="geometricPrecision" stroke-miterlimit="1.45">
      <text x="694.704" xml:space="preserve" y="445.0469" clip-path="url(#clipPath2)" stroke="none">dct:RightsStatement</text>
      <rect x="670.3215" y="410" clip-path="url(#clipPath2)" fill="none" width="204.9682" rx="4" ry="4" height="58"/>
    </g>
    <g fill="yellow" text-rendering="geometricPrecision" shape-rendering="geometricPrecision" transform="matrix(1,0,0,1,305,188)" stroke="yellow">
      <rect x="-102.9588" y="586" clip-path="url(#clipPath2)" width="204.9682" rx="4" ry="4" height="58" stroke="none"/>
    </g>
    <g font-size="16px" stroke-linecap="butt" transform="matrix(1,0,0,1,305,188)" text-rendering="geometricPrecision" font-family="sans-serif" shape-rendering="geometricPrecision" stroke-miterlimit="1.45">
      <text x="-49.5762" xml:space="preserve" y="621.0469" clip-path="url(#clipPath2)" stroke="none">dct:Standard</text>
      <rect x="-102.9588" y="586" clip-path="url(#clipPath2)" fill="none" width="204.9682" rx="4" ry="4" height="58"/>
    </g>
    <g fill="yellow" text-rendering="geometricPrecision" shape-rendering="geometricPrecision" transform="matrix(1,0,0,1,305,188)" stroke="yellow">
      <rect x="670.3215" y="498" clip-path="url(#clipPath2)" width="204.9682" rx="4" ry="4" height="58" stroke="none"/>
    </g>
    <g font-size="16px" stroke-linecap="butt" transform="matrix(1,0,0,1,305,188)" text-rendering="geometricPrecision" font-family="sans-serif" shape-rendering="geometricPrecision" stroke-miterlimit="1.45">
      <text x="718.4306" xml:space="preserve" y="533.0469" clip-path="url(#clipPath2)" stroke="none">dct:Frequency</text>
      <rect x="670.3215" y="498" clip-path="url(#clipPath2)" fill="none" width="204.9682" rx="4" ry="4" height="58"/>
    </g>
    <g fill="yellow" text-rendering="geometricPrecision" shape-rendering="geometricPrecision" transform="matrix(1,0,0,1,305,188)" stroke="yellow">
      <rect x="-102.9588" y="674" clip-path="url(#clipPath2)" width="204.9682" rx="4" ry="4" height="58" stroke="none"/>
    </g>
    <g font-size="16px" stroke-linecap="butt" transform="matrix(1,0,0,1,305,188)" text-rendering="geometricPrecision" font-family="sans-serif" shape-rendering="geometricPrecision" stroke-miterlimit="1.45">
      <text x="-53.6348" xml:space="preserve" y="709.0469" clip-path="url(#clipPath2)" stroke="none">rdfs:Resource</text>
      <rect x="-102.9588" y="674" clip-path="url(#clipPath2)" fill="none" width="204.9682" rx="4" ry="4" height="58"/>
    </g>
    <g fill="yellow" text-rendering="geometricPrecision" shape-rendering="geometricPrecision" transform="matrix(1,0,0,1,305,188)" stroke="yellow">
      <rect x="670.3215" y="586" clip-path="url(#clipPath2)" width="204.9682" rx="4" ry="4" height="58" stroke="none"/>
    </g>
    <g font-size="16px" stroke-linecap="butt" transform="matrix(1,0,0,1,305,188)" text-rendering="geometricPrecision" font-family="sans-serif" shape-rendering="geometricPrecision" stroke-miterlimit="1.45">
      <text x="693.3759" xml:space="preserve" y="621.0469" clip-path="url(#clipPath2)" stroke="none">dct:LinguisticSystem</text>
      <rect x="670.3215" y="586" clip-path="url(#clipPath2)" fill="none" width="204.9682" rx="4" ry="4" height="58"/>
    </g>
    <g fill="yellow" text-rendering="geometricPrecision" shape-rendering="geometricPrecision" transform="matrix(1,0,0,1,305,188)" stroke="yellow">
      <rect x="670.3215" y="674" clip-path="url(#clipPath2)" width="204.9682" rx="4" ry="4" height="58" stroke="none"/>
    </g>
    <g font-size="16px" stroke-linecap="butt" transform="matrix(1,0,0,1,305,188)" text-rendering="geometricPrecision" font-family="sans-serif" shape-rendering="geometricPrecision" stroke-miterlimit="1.45">
      <text x="714.2236" xml:space="preserve" y="709.0469" clip-path="url(#clipPath2)" stroke="none">adms:Identifier</text>
      <rect x="670.3215" y="674" clip-path="url(#clipPath2)" fill="none" width="204.9682" rx="4" ry="4" height="58"/>
    </g>
    <g stroke-linecap="butt" transform="matrix(1,0,0,1,305,188)" fill="navy" text-rendering="geometricPrecision" shape-rendering="geometricPrecision" stroke="navy" stroke-miterlimit="1.45">
      <path fill="none" d="M425 141.9551 L425 100 L550 100 L550 151 L513.5305 151" clip-path="url(#clipPath2)"/>
      <path d="M425 149.9551 C422.7909 149.9551 421 148.1642 421 145.9551 C421 143.7459 422.7909 141.9551 425 141.9551 C427.2091 141.9551 429 143.7459 429 145.9551 C429 148.1642 427.2091 149.9551 425 149.9551 Z" clip-path="url(#clipPath2)" stroke="none"/>
      <path d="M502.5305 151 L514.5305 157 L514.5305 145 Z" clip-path="url(#clipPath2)" stroke="none"/>
      <rect x="405.7598" y="110" clip-path="url(#clipPath2)" fill="white" width="163.4805" height="18.1328" stroke="none"/>
      <text x="407.7598" xml:space="preserve" y="123.6016" clip-path="url(#clipPath2)" font-family="sans-serif" stroke="none">dct:hasVersion/isVersionOf</text>
      <path fill="none" d="M293.4918 175 L113.0336 175" clip-path="url(#clipPath2)"/>
      <path d="M301.4918 175 C301.4918 177.2091 299.7009 179 297.4918 179 C295.2826 179 293.4918 177.2091 293.4918 175 C293.4918 172.7909 295.2826 171 297.4918 171 C299.7009 171 301.4918 172.7909 301.4918 175 Z" clip-path="url(#clipPath2)" stroke="none"/>
      <path d="M102.0336 175 L114.0336 181 L114.0336 169 Z" clip-path="url(#clipPath2)" stroke="none"/>
      <rect x="130.3502" y="165.9336" clip-path="url(#clipPath2)" fill="white" width="100.3926" height="18.1328" stroke="none"/>
      <text x="132.3502" xml:space="preserve" y="179.5352" clip-path="url(#clipPath2)" font-family="sans-serif" stroke="none">dcat:distribution</text>
      <path fill="none" d="M323.3134 208.0251 L323.3134 351 L113.0094 351" clip-path="url(#clipPath2)"/>
      <path d="M323.3134 200.0251 C325.5225 200.0251 327.3134 201.816 327.3134 204.0251 C327.3134 206.2342 325.5225 208.0251 323.3134 208.0251 C321.1042 208.0251 319.3134 206.2342 319.3134 204.0251 C319.3134 201.816 321.1042 200.0251 323.3134 200.0251 Z" clip-path="url(#clipPath2)" stroke="none"/>
      <path d="M102.0094 351 L114.0094 357 L114.0094 345 Z" clip-path="url(#clipPath2)" stroke="none"/>
      <rect x="138.4016" y="341.9336" clip-path="url(#clipPath2)" fill="white" width="157.6445" height="18.1328" stroke="none"/>
      <text x="140.4016" xml:space="preserve" y="355.5352" clip-path="url(#clipPath2)" font-family="sans-serif" stroke="none">dct:creator / dct:publisher</text>
      <path fill="none" d="M337.5 208 L337.5 439 L113.0094 439" clip-path="url(#clipPath2)"/>
      <path d="M337.5 200 C339.7091 200 341.5 201.7909 341.5 204 C341.5 206.2091 339.7091 208 337.5 208 C335.2909 208 333.5 206.2091 333.5 204 C333.5 201.7909 335.2909 200 337.5 200 Z" clip-path="url(#clipPath2)" stroke="none"/>
      <path d="M102.0094 439 L114.0094 445 L114.0094 433 Z" clip-path="url(#clipPath2)" stroke="none"/>
      <rect x="163.12" y="429.9336" clip-path="url(#clipPath2)" fill="white" width="122.3945" height="18.1328" stroke="none"/>
      <text x="165.12" xml:space="preserve" y="443.5352" clip-path="url(#clipPath2)" font-family="sans-serif" stroke="none">dcat:theme/dct:type</text>
      <path fill="none" d="M484.8506 208.0018 L484.8506 263 L659.2762 263" clip-path="url(#clipPath2)"/>
      <path d="M484.8506 200.0018 C487.0598 200.0018 488.8506 201.7927 488.8506 204.0018 C488.8506 206.2109 487.0598 208.0018 484.8506 208.0018 C482.6415 208.0018 480.8506 206.2109 480.8506 204.0018 C480.8506 201.7927 482.6415 200.0018 484.8506 200.0018 Z" clip-path="url(#clipPath2)" stroke="none"/>
      <path d="M670.2762 263 L658.2762 257 L658.2762 269 Z" clip-path="url(#clipPath2)" stroke="none"/>
      <rect x="533.878" y="253.9336" clip-path="url(#clipPath2)" fill="white" width="78.291" height="18.1328" stroke="none"/>
      <text x="535.8781" xml:space="preserve" y="267.5352" clip-path="url(#clipPath2)" font-family="sans-serif" stroke="none">dct:temporal</text>
      <path fill="none" d="M475 208 L475 351 L659.2738 351" clip-path="url(#clipPath2)"/>
      <path d="M475 200 C477.2091 200 479 201.7909 479 204 C479 206.2091 477.2091 208 475 208 C472.7909 208 471 206.2091 471 204 C471 201.7909 472.7909 200 475 200 Z" clip-path="url(#clipPath2)" stroke="none"/>
      <path d="M670.2738 351 L658.2738 345 L658.2738 357 Z" clip-path="url(#clipPath2)" stroke="none"/>
      <rect x="485.7018" y="341.9336" clip-path="url(#clipPath2)" fill="white" width="164.793" height="18.1328" stroke="none"/>
      <text x="487.7018" xml:space="preserve" y="355.5352" clip-path="url(#clipPath2)" font-family="sans-serif" stroke="none">dcat:landingPage/foaf:page</text>
      <path fill="none" d="M350 208 L350 527 L113.0094 527" clip-path="url(#clipPath2)"/>
      <path d="M350 200 C352.2091 200 354 201.7909 354 204 C354 206.2091 352.2091 208 350 208 C347.7909 208 346 206.2091 346 204 C346 201.7909 347.7909 200 350 200 Z" clip-path="url(#clipPath2)" stroke="none"/>
      <path d="M102.0094 527 L114.0094 533 L114.0094 521 Z" clip-path="url(#clipPath2)" stroke="none"/>
      <rect x="191.6413" y="517.9336" clip-path="url(#clipPath2)" fill="white" width="64.334" height="18.1328" stroke="none"/>
      <text x="193.6413" xml:space="preserve" y="531.5352" clip-path="url(#clipPath2)" font-family="sans-serif" stroke="none">dct:spatial</text>
      <path fill="none" d="M351.0262 141.9735 L351.0262 74.0486 L83.8869 74.0486" clip-path="url(#clipPath2)" stroke="green"/>
    </g>
    <g stroke-linecap="butt" transform="matrix(1,0,0,1,305,188)" fill-opacity="0" fill="rgb(0,0,0)" text-rendering="geometricPrecision" shape-rendering="geometricPrecision" stroke="rgb(0,0,0)" stroke-opacity="0" stroke-miterlimit="1.45">
      <path d="M351.0262 149.9735 C348.817 149.9735 347.0262 148.1826 347.0262 145.9735 C347.0262 143.7644 348.817 141.9735 351.0262 141.9735 C353.2353 141.9735 355.0262 143.7644 355.0262 145.9735 C355.0262 148.1826 353.2353 149.9735 351.0262 149.9735 Z" stroke="none" clip-path="url(#clipPath2)"/>
    </g>
    <g stroke-linecap="butt" transform="matrix(1,0,0,1,305,188)" fill="green" text-rendering="geometricPrecision" shape-rendering="geometricPrecision" stroke="green" stroke-miterlimit="1.45">
      <path fill="none" d="M351.0262 149.9735 C348.817 149.9735 347.0262 148.1826 347.0262 145.9735 C347.0262 143.7644 348.817 141.9735 351.0262 141.9735 C353.2353 141.9735 355.0262 143.7644 355.0262 145.9735 C355.0262 148.1826 353.2353 149.9735 351.0262 149.9735 Z" clip-path="url(#clipPath2)"/>
      <path fill="white" d="M68.8869 74.0486 L84.8869 80.0486 L84.8869 68.0486 Z" clip-path="url(#clipPath2)" stroke="none"/>
      <path fill="none" d="M68.8869 74.0486 L84.8869 80.0486 L84.8869 68.0486 Z" clip-path="url(#clipPath2)"/>
      <rect x="192.4113" y="22.5838" clip-path="url(#clipPath2)" fill="white" width="92.7812" height="102.9297" stroke="none"/>
      <text x="195.2053" xml:space="preserve" y="36.1854" clip-path="url(#clipPath2)" font-family="sans-serif" stroke="none">dct:description</text>
      <text x="216.5099" xml:space="preserve" y="50.3182" clip-path="url(#clipPath2)" font-family="sans-serif" stroke="none">dct:title</text>
      <text x="209.1154" xml:space="preserve" y="64.451" clip-path="url(#clipPath2)" font-family="sans-serif" stroke="none">dct:issued</text>
      <text x="201.9523" xml:space="preserve" y="78.5838" clip-path="url(#clipPath2)" font-family="sans-serif" stroke="none">dct:modified</text>
      <text x="201.5158" xml:space="preserve" y="92.7166" clip-path="url(#clipPath2)" font-family="sans-serif" stroke="none">dct:identifier</text>
      <text x="194.4113" xml:space="preserve" y="106.8494" clip-path="url(#clipPath2)" font-family="sans-serif" stroke="none">owl:versionInfo</text>
      <text x="199.9719" xml:space="preserve" y="120.9822" clip-path="url(#clipPath2)" font-family="sans-serif" stroke="none">dcat:keyword</text>
      <path fill="none" d="M462.3718 208.0215 L462.3718 439 L659.2961 439" clip-path="url(#clipPath2)" stroke="navy"/>
      <path fill="navy" d="M462.3718 200.0215 C464.581 200.0215 466.3718 201.8123 466.3718 204.0215 C466.3718 206.2306 464.581 208.0215 462.3718 208.0215 C460.1627 208.0215 458.3718 206.2306 458.3718 204.0215 C458.3718 201.8123 460.1627 200.0215 462.3718 200.0215 Z" clip-path="url(#clipPath2)" stroke="none"/>
      <path fill="navy" d="M670.2961 439 L658.2961 433 L658.2961 445 Z" clip-path="url(#clipPath2)" stroke="none"/>
      <rect x="479.3114" y="429.9336" clip-path="url(#clipPath2)" fill="white" width="162.6074" height="18.1328" stroke="none"/>
      <text x="481.3114" y="443.5352" clip-path="url(#clipPath2)" fill="navy" font-family="sans-serif" stroke="none" xml:space="preserve">dct:accessRights/dct:rights</text>
      <path fill="none" d="M360.8006 208.0057 L360.8006 615 L113.0094 615" clip-path="url(#clipPath2)" stroke="navy"/>
      <path fill="navy" d="M360.8006 200.0057 C363.0097 200.0057 364.8006 201.7965 364.8006 204.0057 C364.8006 206.2148 363.0097 208.0057 360.8006 208.0057 C358.5915 208.0057 356.8006 206.2148 356.8006 204.0057 C356.8006 201.7965 358.5915 200.0057 360.8006 200.0057 Z" clip-path="url(#clipPath2)" stroke="none"/>
      <path fill="navy" d="M102.0094 615 L114.0094 621 L114.0094 609 Z" clip-path="url(#clipPath2)" stroke="none"/>
      <rect x="185.835" y="605.9336" clip-path="url(#clipPath2)" fill="white" width="95.9219" height="18.1328" stroke="none"/>
      <text x="187.835" y="619.5352" clip-path="url(#clipPath2)" fill="navy" font-family="sans-serif" stroke="none" xml:space="preserve">dct:conformsTo</text>
      <path fill="none" d="M448.6721 208.0354 L448.6721 527 L659.2944 527" clip-path="url(#clipPath2)" stroke="navy"/>
      <path fill="navy" d="M448.6721 200.0354 C450.8813 200.0354 452.6721 201.8262 452.6721 204.0354 C452.6721 206.2445 450.8813 208.0354 448.6721 208.0354 C446.463 208.0354 444.6721 206.2445 444.6721 204.0354 C444.6721 201.8262 446.463 200.0354 448.6721 200.0354 Z" clip-path="url(#clipPath2)" stroke="none"/>
      <path fill="navy" d="M670.2944 527 L658.2944 521 L658.2944 533 Z" clip-path="url(#clipPath2)" stroke="none"/>
      <rect x="514.0848" y="517.9336" clip-path="url(#clipPath2)" fill="white" width="127.8203" height="18.1328" stroke="none"/>
      <text x="516.0848" y="531.5352" clip-path="url(#clipPath2)" fill="navy" font-family="sans-serif" stroke="none" xml:space="preserve">dct:accrualPeriodicity</text>
      <path fill="none" d="M374.0612 208.0052 L374.0612 703 L113.0094 703" clip-path="url(#clipPath2)" stroke="navy"/>
      <path fill="navy" d="M374.0612 200.0052 C376.2704 200.0052 378.0612 201.7961 378.0612 204.0052 C378.0612 206.2143 376.2704 208.0052 374.0612 208.0052 C371.8521 208.0052 370.0612 206.2143 370.0612 204.0052 C370.0612 201.7961 371.8521 200.0052 374.0612 200.0052 Z" clip-path="url(#clipPath2)" stroke="none"/>
      <path fill="navy" d="M102.0094 703 L114.0094 709 L114.0094 697 Z" clip-path="url(#clipPath2)" stroke="none"/>
      <rect x="159.183" y="693.9336" clip-path="url(#clipPath2)" fill="white" width="164.3008" height="18.1328" stroke="none"/>
      <text x="161.183" y="707.5352" clip-path="url(#clipPath2)" fill="navy" font-family="sans-serif" stroke="none" xml:space="preserve">dct:isReferencedBy/relation</text>
      <path fill="none" d="M435.8505 208.0057 L435.8505 615 L659.2928 615" clip-path="url(#clipPath2)" stroke="navy"/>
      <path fill="navy" d="M435.8505 200.0057 C438.0597 200.0057 439.8505 201.7966 439.8505 204.0057 C439.8505 206.2149 438.0597 208.0057 435.8505 208.0057 C433.6414 208.0057 431.8505 206.2149 431.8505 204.0057 C431.8505 201.7966 433.6414 200.0057 435.8505 200.0057 Z" clip-path="url(#clipPath2)" stroke="none"/>
      <path fill="navy" d="M670.2928 615 L658.2928 609 L658.2928 621 Z" clip-path="url(#clipPath2)" stroke="none"/>
      <rect x="526.2897" y="605.9336" clip-path="url(#clipPath2)" fill="white" width="79.252" height="18.1328" stroke="none"/>
      <text x="528.2897" y="619.5352" clip-path="url(#clipPath2)" fill="navy" font-family="sans-serif" stroke="none" xml:space="preserve">dct:language</text>
      <path fill="none" d="M421.8803 208.0249 L421.8803 702.1688 L659.3148 702.9631" clip-path="url(#clipPath2)" stroke="navy"/>
      <path fill="navy" d="M421.8803 200.0249 C424.0894 200.0249 425.8803 201.8157 425.8803 204.0249 C425.8803 206.234 424.0894 208.0249 421.8803 208.0249 C419.6712 208.0249 417.8803 206.234 417.8803 204.0249 C417.8803 201.8157 419.6712 200.0249 421.8803 200.0249 Z" clip-path="url(#clipPath2)" stroke="none"/>
      <path fill="navy" d="M670.3148 702.9999 L658.3349 696.9598 L658.2947 708.9597 Z" clip-path="url(#clipPath2)" stroke="none"/>
      <rect x="525.077" y="693.6013" clip-path="url(#clipPath2)" fill="white" width="91.8848" height="18.1328" stroke="none"/>
      <text x="527.077" y="707.2029" clip-path="url(#clipPath2)" fill="navy" font-family="sans-serif" stroke="none" xml:space="preserve">adms:identifier</text>
    </g>
    <g fill="rgb(210,210,210)" text-rendering="geometricPrecision" shape-rendering="geometricPrecision" transform="matrix(1,0,0,1,305,188) translate(4,4)" stroke="rgb(210,210,210)">
      <rect x="434.9607" width="447.7156" height="187.5723" y="-172.6927" clip-path="url(#clipPath3)" stroke="none"/>
    </g>
    <g fill="white" text-rendering="geometricPrecision" shape-rendering="geometricPrecision" transform="matrix(1,0,0,1,305,188)" stroke="white">
      <rect x="434.9607" width="447.7156" height="187.5723" y="-172.6927" clip-path="url(#clipPath2)" stroke="none"/>
      <rect x="434.9607" y="-172.6927" clip-path="url(#clipPath2)" fill="rgb(183,182,158)" width="447.7156" height="21.666" stroke="none"/>
    </g>
    <g font-size="15px" stroke-linecap="butt" transform="matrix(1,0,0,1,305,188)" text-rendering="geometricPrecision" font-family="sans-serif" shape-rendering="geometricPrecision" font-weight="bold" stroke-miterlimit="1.45">
      <text x="803.8086" xml:space="preserve" y="-156.1908" clip-path="url(#clipPath2)" stroke="none">Prefixes   </text>
      <rect fill="none" x="434.9607" width="447.7156" height="187.5723" y="-172.6927" clip-path="url(#clipPath2)"/>
      <text x="451.9607" xml:space="preserve" font-size="16px" y="-118.5579" clip-path="url(#clipPath2)" stroke="none">dcat:</text>
      <text x="451.9607" xml:space="preserve" font-size="16px" y="-99.7142" clip-path="url(#clipPath2)" stroke="none">dct:</text>
      <text x="451.9607" xml:space="preserve" font-size="16px" y="-80.8704" clip-path="url(#clipPath2)" stroke="none">skos:</text>
      <text x="451.9607" xml:space="preserve" font-size="16px" y="-62.0267" clip-path="url(#clipPath2)" stroke="none">foaf:</text>
      <text x="451.9607" xml:space="preserve" font-size="16px" y="-43.1829" clip-path="url(#clipPath2)" stroke="none">rdfs:</text>
      <text x="451.9607" xml:space="preserve" font-size="16px" y="-24.3392" clip-path="url(#clipPath2)" stroke="none">adms:</text>
      <text x="451.9607" xml:space="preserve" font-size="16px" y="-5.4954" clip-path="url(#clipPath2)" stroke="none">prov:</text>
      <text x="516.0481" font-size="16px" y="-118.5579" clip-path="url(#clipPath2)" stroke="none" font-weight="normal" xml:space="preserve">http://www.w3.org/ns/dcat#</text>
      <text x="516.0481" font-size="16px" y="-99.7142" clip-path="url(#clipPath2)" stroke="none" font-weight="normal" xml:space="preserve">http://purl.org/dc/terms/</text>
      <text x="516.0481" font-size="16px" y="-80.8704" clip-path="url(#clipPath2)" stroke="none" font-weight="normal" xml:space="preserve">http://www.w3.org/2004/02/skos/core#</text>
      <text x="516.0481" font-size="16px" y="-62.0267" clip-path="url(#clipPath2)" stroke="none" font-weight="normal" xml:space="preserve">http://xmlns.com/foaf/0.1/</text>
      <text x="516.0481" font-size="16px" y="-43.1829" clip-path="url(#clipPath2)" stroke="none" font-weight="normal" xml:space="preserve">http://www.w3.org/2000/01/rdf-schema#</text>
      <text x="516.0481" font-size="16px" y="-24.3392" clip-path="url(#clipPath2)" stroke="none" font-weight="normal" xml:space="preserve">http://www.w3.org/ns/adms#</text>
      <text x="516.0481" font-size="16px" y="-5.4954" clip-path="url(#clipPath2)" stroke="none" font-weight="normal" xml:space="preserve">http://www.w3.org/ns/prov#</text>
    </g>
    <g fill="yellow" text-rendering="geometricPrecision" shape-rendering="geometricPrecision" transform="matrix(1,0,0,1,305,188)" stroke="yellow">
      <rect x="-102.9588" y="234" clip-path="url(#clipPath2)" width="204.9682" rx="4" ry="4" height="58" stroke="none"/>
    </g>
    <g font-size="16px" stroke-linecap="butt" transform="matrix(1,0,0,1,305,188)" text-rendering="geometricPrecision" font-family="sans-serif" shape-rendering="geometricPrecision" stroke-miterlimit="1.45">
      <text x="-48.9161" xml:space="preserve" y="269.0469" clip-path="url(#clipPath2)" stroke="none">prov:Activity</text>
      <rect x="-102.9588" y="234" clip-path="url(#clipPath2)" fill="none" width="204.9682" rx="4" ry="4" height="58"/>
    </g>
    <g fill="yellow" text-rendering="geometricPrecision" shape-rendering="geometricPrecision" transform="matrix(1,0,0,1,305,188)" stroke="yellow">
      <rect x="670.3215" y="146" clip-path="url(#clipPath2)" width="204.9682" rx="4" ry="4" height="58" stroke="none"/>
    </g>
    <g font-size="16px" stroke-linecap="butt" transform="matrix(1,0,0,1,305,188)" text-rendering="geometricPrecision" font-family="sans-serif" shape-rendering="geometricPrecision" stroke-miterlimit="1.45">
      <text x="708.8642" xml:space="preserve" y="181.0469" clip-path="url(#clipPath2)" stroke="none">dcat:DataService</text>
      <rect x="670.3215" y="146" clip-path="url(#clipPath2)" fill="none" width="204.9682" rx="4" ry="4" height="58"/>
    </g>
    <g fill="rgb(255,153,204)" text-rendering="geometricPrecision" shape-rendering="geometricPrecision" transform="matrix(1,0,0,1,305,188)" stroke="rgb(255,153,204)">
      <circle r="10" clip-path="url(#clipPath2)" cx="444.9607" cy="62.5486" stroke="none"/>
    </g>
    <g text-rendering="geometricPrecision" stroke-miterlimit="1.45" shape-rendering="geometricPrecision" font-family="sans-serif" transform="matrix(1,0,0,1,305,188)" stroke-linecap="butt">
      <text x="460.9607" xml:space="preserve" y="52.951" clip-path="url(#clipPath2)" stroke="none">Research Output</text>
      <text x="467.3093" xml:space="preserve" y="67.0838" clip-path="url(#clipPath2)" stroke="none">(digital object)</text>
      <text x="476.7839" xml:space="preserve" y="81.2166" clip-path="url(#clipPath2)" stroke="none">e.g. corpus</text>
      <circle fill="none" stroke-width="3" r="10" clip-path="url(#clipPath2)" cx="444.9607" cy="62.5486"/>
    </g>
    <g fill="rgb(255,153,204)" text-rendering="geometricPrecision" shape-rendering="geometricPrecision" transform="matrix(1,0,0,1,305,188)" stroke="rgb(255,153,204)">
      <circle r="10" clip-path="url(#clipPath2)" cx="924.9213" cy="175" stroke="none"/>
    </g>
    <g text-rendering="geometricPrecision" stroke-miterlimit="1.45" shape-rendering="geometricPrecision" font-family="sans-serif" transform="matrix(1,0,0,1,305,188)" stroke-linecap="butt">
      <text x="947.5688" xml:space="preserve" y="165.4023" clip-path="url(#clipPath2)" stroke="none">Research Output</text>
      <text x="940.9213" xml:space="preserve" y="179.5352" clip-path="url(#clipPath2)" stroke="none">(object interaction)</text>
      <text x="964.1977" xml:space="preserve" y="193.668" clip-path="url(#clipPath2)" stroke="none">e.g. search</text>
      <circle fill="none" stroke-width="3" r="10" clip-path="url(#clipPath2)" cx="924.9213" cy="175"/>
    </g>
    <g fill="rgb(255,153,204)" text-rendering="geometricPrecision" shape-rendering="geometricPrecision" transform="matrix(1,0,0,1,305,188)" stroke="rgb(255,153,204)">
      <circle r="10" clip-path="url(#clipPath2)" cx="-154.1573" cy="439" stroke="none"/>
    </g>
    <g text-rendering="geometricPrecision" stroke-miterlimit="1.45" shape-rendering="geometricPrecision" font-family="sans-serif" transform="matrix(1,0,0,1,305,188)" stroke-linecap="butt">
      <text x="-271.1261" xml:space="preserve" y="436.4688" clip-path="url(#clipPath2)" stroke="none">Research activity,</text>
      <text x="-254.4356" xml:space="preserve" y="450.6016" clip-path="url(#clipPath2)" stroke="none">output type</text>
      <circle fill="none" stroke-width="3" r="10" clip-path="url(#clipPath2)" cx="-154.1573" cy="439"/>
    </g>
    <g fill="rgb(255,153,204)" text-rendering="geometricPrecision" shape-rendering="geometricPrecision" transform="matrix(1,0,0,1,305,188)" stroke="rgb(255,153,204)">
      <circle r="10" clip-path="url(#clipPath2)" cx="-154.1573" cy="263" stroke="none"/>
    </g>
    <g text-rendering="geometricPrecision" stroke-miterlimit="1.45" shape-rendering="geometricPrecision" font-family="sans-serif" transform="matrix(1,0,0,1,305,188)" stroke-linecap="butt">
      <text x="-271.7149" xml:space="preserve" y="260.4688" clip-path="url(#clipPath2)" stroke="none">Research Project</text>
      <text x="-277.3839" xml:space="preserve" y="274.6016" clip-path="url(#clipPath2)" stroke="none">(academic activity)</text>
      <circle fill="none" stroke-width="3" r="10" clip-path="url(#clipPath2)" cx="-154.1573" cy="263"/>
    </g>
    <g fill="rgb(255,153,204)" text-rendering="geometricPrecision" shape-rendering="geometricPrecision" transform="matrix(1,0,0,1,305,188)" stroke="rgb(255,153,204)">
      <circle r="10" clip-path="url(#clipPath2)" cx="-154.1573" cy="351" stroke="none"/>
    </g>
    <g text-rendering="geometricPrecision" stroke-miterlimit="1.45" shape-rendering="geometricPrecision" font-family="sans-serif" transform="matrix(1,0,0,1,305,188)" stroke-linecap="butt">
      <text x="-265.5538" xml:space="preserve" y="341.4023" clip-path="url(#clipPath2)" stroke="none">Researchers,</text>
      <text x="-287.2335" xml:space="preserve" y="355.5352" clip-path="url(#clipPath2)" stroke="none">Departments, Labs, </text>
      <text x="-262.3868" xml:space="preserve" y="369.668" clip-path="url(#clipPath2)" stroke="none">Universities</text>
      <circle fill="none" stroke-width="3" r="10" clip-path="url(#clipPath2)" cx="-154.1573" cy="351"/>
    </g>
    <g fill="rgb(255,153,204)" text-rendering="geometricPrecision" shape-rendering="geometricPrecision" transform="matrix(1,0,0,1,305,188)" stroke="rgb(255,153,204)">
      <circle r="10" clip-path="url(#clipPath2)" cx="-154.1573" cy="175" stroke="none"/>
    </g>
    <g text-rendering="geometricPrecision" stroke-miterlimit="1.45" shape-rendering="geometricPrecision" font-family="sans-serif" transform="matrix(1,0,0,1,305,188)" stroke-linecap="butt">
      <text x="-228.2296" xml:space="preserve" y="179.5352" clip-path="url(#clipPath2)" stroke="none">Download</text>
      <circle fill="none" stroke-width="3" r="10" clip-path="url(#clipPath2)" cx="-154.1573" cy="175"/>
    </g>
    <g fill="rgb(255,153,204)" text-rendering="geometricPrecision" shape-rendering="geometricPrecision" transform="matrix(1,0,0,1,305,188)" stroke="rgb(255,153,204)">
      <circle r="10" clip-path="url(#clipPath2)" cx="-154.1573" cy="527" stroke="none"/>
    </g>
    <g text-rendering="geometricPrecision" stroke-miterlimit="1.45" shape-rendering="geometricPrecision" font-family="sans-serif" transform="matrix(1,0,0,1,305,188)" stroke-linecap="butt">
      <text x="-221.5323" xml:space="preserve" y="531.5352" clip-path="url(#clipPath2)" stroke="none">Geo area</text>
      <circle fill="none" stroke-width="3" r="10" clip-path="url(#clipPath2)" cx="-154.1573" cy="527"/>
    </g>
    <g fill="rgb(255,153,204)" text-rendering="geometricPrecision" shape-rendering="geometricPrecision" transform="matrix(1,0,0,1,305,188)" stroke="rgb(255,153,204)">
      <circle r="10" clip-path="url(#clipPath2)" cx="-154.1573" cy="703" stroke="none"/>
    </g>
    <g text-rendering="geometricPrecision" stroke-miterlimit="1.45" shape-rendering="geometricPrecision" font-family="sans-serif" transform="matrix(1,0,0,1,305,188)" stroke-linecap="butt">
      <text x="-263.3917" xml:space="preserve" y="707.5352" clip-path="url(#clipPath2)" stroke="none">Academic paper</text>
      <circle fill="none" stroke-width="3" r="10" clip-path="url(#clipPath2)" cx="-154.1573" cy="703"/>
      <path fill="none" d="M308.4796 208.0182 L308.4796 263 L113.011 263" clip-path="url(#clipPath2)" stroke="navy"/>
      <path fill="navy" d="M308.4796 200.0182 C310.6887 200.0182 312.4796 201.809 312.4796 204.0182 C312.4796 206.2273 310.6887 208.0182 308.4796 208.0182 C306.2704 208.0182 304.4796 206.2273 304.4796 204.0182 C304.4796 201.809 306.2704 200.0182 308.4796 200.0182 Z" clip-path="url(#clipPath2)" stroke="none"/>
      <path fill="navy" d="M102.011 263 L114.011 269 L114.011 257 Z" clip-path="url(#clipPath2)" stroke="none"/>
      <rect x="145.4281" y="253.9336" clip-path="url(#clipPath2)" fill="white" width="128.7578" height="18.1328" stroke="none"/>
      <text fill="navy" x="147.4281" xml:space="preserve" y="267.5352" clip-path="url(#clipPath2)" stroke="none">prov:wasGeneratedBy</text>
      <path fill="none" d="M666.366 175 L513.4764 175" clip-path="url(#clipPath2)" stroke="navy"/>
      <path fill="navy" d="M674.366 175 C674.366 177.2091 672.5751 179 670.366 179 C668.1568 179 666.366 177.2091 666.366 175 C666.366 172.7909 668.1568 171 670.366 171 C672.5751 171 674.366 172.7909 674.366 175 Z" clip-path="url(#clipPath2)" stroke="none"/>
      <path fill="navy" d="M502.4764 175 L514.4764 181 L514.4764 169 Z" clip-path="url(#clipPath2)" stroke="none"/>
      <rect x="529.7231" y="165.9336" clip-path="url(#clipPath2)" fill="white" width="113.3594" height="18.1328" stroke="none"/>
      <text fill="navy" x="531.7231" xml:space="preserve" y="179.5352" clip-path="url(#clipPath2)" stroke="none">dcat:servesDataset</text>
      <path fill="none" d="M400 145.9812 L400 62.5486 L426.9607 62.5486" clip-path="url(#clipPath2)"/>
      <path d="M434.9607 62.5486 L422.9607 57.5486 L425.9607 62.5486 L422.9607 67.5486 Z" clip-path="url(#clipPath2)" stroke="none"/>
      <path fill="none" d="M875.2683 175 L906.9213 175" clip-path="url(#clipPath2)"/>
      <path d="M914.9213 175 L902.9213 170 L905.9213 175 L902.9213 180 Z" clip-path="url(#clipPath2)" stroke="none"/>
      <path fill="none" d="M-102.9423 439 L-136.1573 439" clip-path="url(#clipPath2)"/>
      <path d="M-144.1573 439 L-132.1573 444 L-135.1573 439 L-132.1573 434 Z" clip-path="url(#clipPath2)" stroke="none"/>
      <path fill="none" d="M-102.9423 263 L-136.1573 263" clip-path="url(#clipPath2)"/>
      <path d="M-144.1573 263 L-132.1573 268 L-135.1573 263 L-132.1573 258 Z" clip-path="url(#clipPath2)" stroke="none"/>
      <path fill="none" d="M-102.9423 351 L-136.1573 351" clip-path="url(#clipPath2)"/>
      <path d="M-144.1573 351 L-132.1573 356 L-135.1573 351 L-132.1573 346 Z" clip-path="url(#clipPath2)" stroke="none"/>
      <path fill="none" d="M-102.9423 175 L-136.1573 175" clip-path="url(#clipPath2)"/>
      <path d="M-144.1573 175 L-132.1573 180 L-135.1573 175 L-132.1573 170 Z" clip-path="url(#clipPath2)" stroke="none"/>
      <path fill="none" d="M-102.9423 527 L-136.1573 527" clip-path="url(#clipPath2)"/>
      <path d="M-144.1573 527 L-132.1573 532 L-135.1573 527 L-132.1573 522 Z" clip-path="url(#clipPath2)" stroke="none"/>
      <path fill="none" d="M-102.9423 703 L-136.1573 703" clip-path="url(#clipPath2)"/>
      <path d="M-144.1573 703 L-132.1573 708 L-135.1573 703 L-132.1573 698 Z" clip-path="url(#clipPath2)" stroke="none"/>
    </g>
  </g>
</svg>
