<?xml version="1.0" encoding="UTF-8"?><svg xmlns="http://www.w3.org/2000/svg" xmlns:xlink="http://www.w3.org/1999/xlink" fill-opacity="1" color-rendering="auto" color-interpolation="auto" text-rendering="auto" stroke="black" stroke-linecap="square" width="1237" stroke-miterlimit="10" shape-rendering="auto" stroke-opacity="1" fill="black" stroke-dasharray="none" font-weight="normal" stroke-width="1" height="934" font-family="'Dialog'" font-style="normal" stroke-linejoin="miter" font-size="12px" stroke-dashoffset="0" image-rendering="auto">
  <!--Generated by ySVG 2.6-->
  <defs id="genericDefs"/>
  <g>
    <defs id="defs1">
      <clipPath clipPathUnits="userSpaceOnUse" id="clipPath1">
        <path d="M0 0 L1237 0 L1237 934 L0 934 L0 0 Z"/>
      </clipPath>
      <clipPath clipPathUnits="userSpaceOnUse" id="clipPath2">
        <path d="M-248 -6 L989 -6 L989 928 L-248 928 L-248 -6 Z"/>
      </clipPath>
      <clipPath clipPathUnits="userSpaceOnUse" id="clipPath3">
        <path d="M-252 -10 L985 -10 L985 924 L-252 924 L-252 -10 Z"/>
      </clipPath>
    </defs>
    <g fill="white" text-rendering="geometricPrecision" shape-rendering="geometricPrecision" transform="translate(248,6)" stroke="white">
      <rect x="-248" width="1237" height="934" y="-6" clip-path="url(#clipPath2)" stroke="none"/>
    </g>
    <g fill="yellow" text-rendering="geometricPrecision" shape-rendering="geometricPrecision" transform="matrix(1,0,0,1,248,6)" stroke="yellow">
      <rect x="257.5159" y="651" clip-path="url(#clipPath2)" width="204.9682" rx="4" ry="4" height="58" stroke="none"/>
    </g>
    <g font-size="16px" stroke-linecap="butt" transform="matrix(1,0,0,1,248,6)" text-rendering="geometricPrecision" font-family="sans-serif" shape-rendering="geometricPrecision" stroke-miterlimit="1.45">
      <text x="311.3477" xml:space="preserve" y="686.0469" clip-path="url(#clipPath2)" stroke="none">dcat:Catalog</text>
      <rect x="257.5159" y="651" clip-path="url(#clipPath2)" fill="none" width="204.9682" rx="4" ry="4" height="58"/>
    </g>
    <g fill="yellow" text-rendering="geometricPrecision" shape-rendering="geometricPrecision" transform="matrix(1,0,0,1,248,6)" stroke="yellow">
      <rect x="582.0194" y="651" clip-path="url(#clipPath2)" width="204.9682" rx="4" ry="4" height="58" stroke="none"/>
    </g>
    <g font-size="16px" stroke-linecap="butt" transform="matrix(1,0,0,1,248,6)" text-rendering="geometricPrecision" font-family="sans-serif" shape-rendering="geometricPrecision" stroke-miterlimit="1.45">
      <text x="636.0816" xml:space="preserve" y="686.0469" clip-path="url(#clipPath2)" stroke="none">dcat:Dataset</text>
      <rect x="582.0194" y="651" clip-path="url(#clipPath2)" fill="none" width="204.9682" rx="4" ry="4" height="58"/>
    </g>
    <g fill="yellow" text-rendering="geometricPrecision" shape-rendering="geometricPrecision" transform="matrix(1,0,0,1,248,6)" stroke="yellow">
      <rect x="582.0194" y="318.4747" clip-path="url(#clipPath2)" width="204.9682" rx="4" ry="4" height="58" stroke="none"/>
    </g>
    <g font-size="16px" stroke-linecap="butt" transform="matrix(1,0,0,1,248,6)" text-rendering="geometricPrecision" font-family="sans-serif" shape-rendering="geometricPrecision" stroke-miterlimit="1.45">
      <text x="643.8355" xml:space="preserve" y="353.5215" clip-path="url(#clipPath2)" stroke="none">foaf:Agent</text>
      <rect x="582.0194" y="318.4747" clip-path="url(#clipPath2)" fill="none" width="204.9682" rx="4" ry="4" height="58"/>
    </g>
    <g fill="yellow" text-rendering="geometricPrecision" shape-rendering="geometricPrecision" transform="matrix(1,0,0,1,248,6)" stroke="yellow">
      <rect x="-44.5069" y="349.5708" clip-path="url(#clipPath2)" width="204.9682" rx="4" ry="4" height="58" stroke="none"/>
    </g>
    <g font-size="16px" stroke-linecap="butt" transform="matrix(1,0,0,1,248,6)" text-rendering="geometricPrecision" font-family="sans-serif" shape-rendering="geometricPrecision" stroke-miterlimit="1.45">
      <text x="5.7038" xml:space="preserve" y="384.6176" clip-path="url(#clipPath2)" stroke="none">skos:Concept</text>
      <rect x="-44.5069" y="349.5708" clip-path="url(#clipPath2)" fill="none" width="204.9682" rx="4" ry="4" height="58"/>
    </g>
    <g fill="yellow" text-rendering="geometricPrecision" shape-rendering="geometricPrecision" transform="matrix(1,0,0,1,248,6)" stroke="yellow">
      <rect x="-44.5069" y="245.2808" clip-path="url(#clipPath2)" width="204.9682" rx="4" ry="4" height="58" stroke="none"/>
    </g>
    <g font-size="16px" stroke-linecap="butt" transform="matrix(1,0,0,1,248,6)" text-rendering="geometricPrecision" font-family="sans-serif" shape-rendering="geometricPrecision" stroke-miterlimit="1.45">
      <text x="-24.0501" xml:space="preserve" y="280.3276" clip-path="url(#clipPath2)" stroke="none">skos:ConceptScheme</text>
      <rect x="-44.5069" y="245.2808" clip-path="url(#clipPath2)" fill="none" width="204.9682" rx="4" ry="4" height="58"/>
    </g>
    <g fill="yellow" text-rendering="geometricPrecision" shape-rendering="geometricPrecision" transform="matrix(1,0,0,1,248,6)" stroke="yellow">
      <rect x="-44.5069" y="453.8607" clip-path="url(#clipPath2)" width="204.9682" rx="4" ry="4" height="58" stroke="none"/>
    </g>
    <g font-size="16px" stroke-linecap="butt" transform="matrix(1,0,0,1,248,6)" text-rendering="geometricPrecision" font-family="sans-serif" shape-rendering="geometricPrecision" stroke-miterlimit="1.45">
      <text x="-25.1634" xml:space="preserve" y="488.9076" clip-path="url(#clipPath2)" stroke="none">dct:LicenseDocument</text>
      <rect x="-44.5069" y="453.8607" clip-path="url(#clipPath2)" fill="none" width="204.9682" rx="4" ry="4" height="58"/>
    </g>
    <g fill="yellow" text-rendering="geometricPrecision" shape-rendering="geometricPrecision" transform="matrix(1,0,0,1,248,6)" stroke="yellow">
      <rect x="582.0194" y="401.606" clip-path="url(#clipPath2)" width="204.9682" rx="4" ry="4" height="58" stroke="none"/>
    </g>
    <g font-size="16px" stroke-linecap="butt" transform="matrix(1,0,0,1,248,6)" text-rendering="geometricPrecision" font-family="sans-serif" shape-rendering="geometricPrecision" stroke-miterlimit="1.45">
      <text x="616.98" xml:space="preserve" y="436.6529" clip-path="url(#clipPath2)" stroke="none">dct:PeriodOfTime</text>
      <rect x="582.0194" y="401.606" clip-path="url(#clipPath2)" fill="none" width="204.9682" rx="4" ry="4" height="58"/>
    </g>
    <g fill="yellow" text-rendering="geometricPrecision" shape-rendering="geometricPrecision" transform="matrix(1,0,0,1,248,6)" stroke="yellow">
      <rect x="582.0194" y="766.8428" clip-path="url(#clipPath2)" width="204.9682" rx="4" ry="4" height="58" stroke="none"/>
    </g>
    <g font-size="16px" stroke-linecap="butt" transform="matrix(1,0,0,1,248,6)" text-rendering="geometricPrecision" font-family="sans-serif" shape-rendering="geometricPrecision" stroke-miterlimit="1.45">
      <text x="609.0152" xml:space="preserve" y="801.8897" clip-path="url(#clipPath2)" stroke="none">dcat:CatalogRecord</text>
      <rect x="582.0194" y="766.8428" clip-path="url(#clipPath2)" fill="none" width="204.9682" rx="4" ry="4" height="58"/>
    </g>
    <g fill="yellow" text-rendering="geometricPrecision" shape-rendering="geometricPrecision" transform="matrix(1,0,0,1,248,6)" stroke="yellow">
      <rect x="582.0194" y="484.7373" clip-path="url(#clipPath2)" width="204.9682" rx="4" ry="4" height="58" stroke="none"/>
    </g>
    <g font-size="16px" stroke-linecap="butt" transform="matrix(1,0,0,1,248,6)" text-rendering="geometricPrecision" font-family="sans-serif" shape-rendering="geometricPrecision" stroke-miterlimit="1.45">
      <text x="626.9058" xml:space="preserve" y="519.7842" clip-path="url(#clipPath2)" stroke="none">foaf:Document</text>
      <rect x="582.0194" y="484.7373" clip-path="url(#clipPath2)" fill="none" width="204.9682" rx="4" ry="4" height="58"/>
    </g>
    <g fill="yellow" text-rendering="geometricPrecision" shape-rendering="geometricPrecision" transform="matrix(1,0,0,1,248,6)" stroke="yellow">
      <rect x="582.0194" y="567.8687" clip-path="url(#clipPath2)" width="204.9682" rx="4" ry="4" height="58" stroke="none"/>
    </g>
    <g font-size="16px" stroke-linecap="butt" transform="matrix(1,0,0,1,248,6)" text-rendering="geometricPrecision" font-family="sans-serif" shape-rendering="geometricPrecision" stroke-miterlimit="1.45">
      <text x="636.9683" xml:space="preserve" y="602.9155" clip-path="url(#clipPath2)" stroke="none">dct:Location</text>
      <rect x="582.0194" y="567.8687" clip-path="url(#clipPath2)" fill="none" width="204.9682" rx="4" ry="4" height="58"/>
    </g>
    <g fill="yellow" text-rendering="geometricPrecision" shape-rendering="geometricPrecision" transform="matrix(1,0,0,1,248,6)" stroke="yellow">
      <rect x="-44.5069" y="651" clip-path="url(#clipPath2)" width="204.9682" rx="4" ry="4" height="58" stroke="none"/>
    </g>
    <g font-size="16px" stroke-linecap="butt" transform="matrix(1,0,0,1,248,6)" text-rendering="geometricPrecision" font-family="sans-serif" shape-rendering="geometricPrecision" stroke-miterlimit="1.45">
      <text x="-5.9642" xml:space="preserve" y="686.0469" clip-path="url(#clipPath2)" stroke="none">dcat:DataService</text>
      <rect x="-44.5069" y="651" clip-path="url(#clipPath2)" fill="none" width="204.9682" rx="4" ry="4" height="58"/>
    </g>
    <g fill="rgb(204,255,204)" text-rendering="geometricPrecision" shape-rendering="geometricPrecision" transform="matrix(1,0,0,1,248,6)" stroke="rgb(204,255,204)">
      <path d="M270.1254 827.2385 L383.6109 827.2385 L371.0014 870.2385 L257.5159 870.2385 Z" fill-rule="evenodd" clip-path="url(#clipPath2)" stroke="none"/>
    </g>
    <g font-size="16px" stroke-linecap="butt" transform="matrix(1,0,0,1,248,6)" text-rendering="geometricPrecision" font-family="sans-serif" shape-rendering="geometricPrecision" stroke-miterlimit="1.45">
      <text x="278.6728" xml:space="preserve" y="854.7853" clip-path="url(#clipPath2)" stroke="none">rdfs:Literal</text>
      <path fill="none" d="M270.1254 827.2385 L383.6109 827.2385 L371.0014 870.2385 L257.5159 870.2385 Z" fill-rule="evenodd" clip-path="url(#clipPath2)"/>
    </g>
    <g fill="yellow" text-rendering="geometricPrecision" shape-rendering="geometricPrecision" transform="matrix(1,0,0,1,248,6)" stroke="yellow">
      <rect x="582.0194" y="235.3433" clip-path="url(#clipPath2)" width="204.9682" rx="4" ry="4" height="58" stroke="none"/>
    </g>
    <g font-size="16px" stroke-linecap="butt" transform="matrix(1,0,0,1,248,6)" text-rendering="geometricPrecision" font-family="sans-serif" shape-rendering="geometricPrecision" stroke-miterlimit="1.45">
      <text x="605.0738" xml:space="preserve" y="270.3902" clip-path="url(#clipPath2)" stroke="none">dct:LinguisticSystem</text>
      <rect x="582.0194" y="235.3433" clip-path="url(#clipPath2)" fill="none" width="204.9682" rx="4" ry="4" height="58"/>
    </g>
    <g stroke-linecap="butt" transform="matrix(1,0,0,1,248,6)" fill="navy" text-rendering="geometricPrecision" shape-rendering="geometricPrecision" stroke="navy" stroke-miterlimit="1.45">
      <path fill="none" d="M466.5068 664.2783 L570.9738 664.2783" clip-path="url(#clipPath2)"/>
      <path d="M458.5068 664.2783 C458.5068 662.0692 460.2976 660.2783 462.5068 660.2783 C464.7159 660.2783 466.5068 662.0692 466.5068 664.2783 C466.5068 666.4875 464.7159 668.2783 462.5068 668.2783 C460.2976 668.2783 458.5068 666.4875 458.5068 664.2783 Z" clip-path="url(#clipPath2)" stroke="none"/>
      <path d="M581.9738 664.2783 L569.9738 658.2783 L569.9738 670.2783 Z" clip-path="url(#clipPath2)" stroke="none"/>
      <rect x="484.6531" y="655.2119" clip-path="url(#clipPath2)" fill="white" width="75.1973" height="18.1328" stroke="none"/>
      <text x="486.6531" xml:space="preserve" y="668.8135" clip-path="url(#clipPath2)" font-family="sans-serif" stroke="none">dcat:dataset</text>
      <path fill="none" d="M462.4991 692.5908 L574.0186 692.5908" clip-path="url(#clipPath2)" stroke="black"/>
      <path fill="black" d="M582.0186 692.5908 L570.0186 687.5908 L573.0186 692.5908 L570.0186 697.5908 Z" clip-path="url(#clipPath2)" stroke="none"/>
      <rect x="467.4841" y="683.5244" clip-path="url(#clipPath2)" fill="white" width="96.2734" height="18.1328" stroke="none"/>
      <text x="469.4841" y="697.126" clip-path="url(#clipPath2)" fill="black" font-family="sans-serif" stroke="none" xml:space="preserve">rdfs:subClassOf</text>
      <path fill="none" d="M389.5888 646.9904 L389.5888 347.4747 L570.9724 347.4747" clip-path="url(#clipPath2)"/>
      <path d="M389.5888 654.9904 C387.3797 654.9904 385.5888 653.1996 385.5888 650.9904 C385.5888 648.7812 387.3797 646.9904 389.5888 646.9904 C391.7979 646.9904 393.5888 648.7812 393.5888 650.9904 C393.5888 653.1996 391.7979 654.9904 389.5888 654.9904 Z" clip-path="url(#clipPath2)" stroke="none"/>
      <path d="M581.9724 347.4747 L569.9724 341.4747 L569.9724 353.4747 Z" clip-path="url(#clipPath2)" stroke="none"/>
      <rect x="461.6471" y="331.3419" clip-path="url(#clipPath2)" fill="white" width="81.0098" height="32.2656" stroke="none"/>
      <text x="463.6471" xml:space="preserve" y="344.9434" clip-path="url(#clipPath2)" font-family="sans-serif" stroke="none">dct:creator / </text>
      <text x="463.8346" xml:space="preserve" y="359.0762" clip-path="url(#clipPath2)" font-family="sans-serif" stroke="none">dct:publisher</text>
      <path fill="none" d="M310.0531 646.9803 L310.0531 378.5708 L171.4754 378.5708" clip-path="url(#clipPath2)"/>
      <path d="M310.0531 654.9803 C307.8439 654.9803 306.0531 653.1895 306.0531 650.9803 C306.0531 648.7712 307.8439 646.9803 310.0531 646.9803 C312.2622 646.9803 314.0531 648.7712 314.0531 650.9803 C314.0531 653.1895 312.2622 654.9803 310.0531 654.9803 Z" clip-path="url(#clipPath2)" stroke="none"/>
      <path d="M160.4754 378.5708 L172.4754 384.5708 L172.4754 372.5708 Z" clip-path="url(#clipPath2)" stroke="none"/>
      <rect x="198.8243" y="369.5044" clip-path="url(#clipPath2)" fill="white" width="69.1211" height="18.1328" stroke="none"/>
      <text x="200.8243" xml:space="preserve" y="383.1059" clip-path="url(#clipPath2)" font-family="sans-serif" stroke="none">dcat:theme</text>
      <path fill="none" d="M57.9772 345.5421 L57.9772 314.3094" clip-path="url(#clipPath2)"/>
      <path d="M57.9772 353.5421 C55.7681 353.5421 53.9772 351.7513 53.9772 349.5421 C53.9772 347.333 55.7681 345.5421 57.9772 345.5421 C60.1864 345.5421 61.9772 347.333 61.9772 349.5421 C61.9772 351.7513 60.1864 353.5421 57.9772 353.5421 Z" clip-path="url(#clipPath2)" stroke="none"/>
      <path d="M57.9772 303.3094 L51.9772 315.3094 L63.9772 315.3094 Z" clip-path="url(#clipPath2)" stroke="none"/>
      <rect x="12.9958" y="317.3594" clip-path="url(#clipPath2)" fill="white" width="89.9629" height="18.1328" stroke="none"/>
      <text x="14.9958" xml:space="preserve" y="330.9609" clip-path="url(#clipPath2)" font-family="sans-serif" stroke="none">skos:inScheme</text>
      <path fill="none" d="M320 646.9555 L320 286.2808 L171.4614 286.2808" clip-path="url(#clipPath2)"/>
      <path d="M320 654.9555 C317.7909 654.9555 316 653.1647 316 650.9555 C316 648.7463 317.7909 646.9555 320 646.9555 C322.2091 646.9555 324 648.7463 324 650.9555 C324 653.1647 322.2091 654.9555 320 654.9555 Z" clip-path="url(#clipPath2)" stroke="none"/>
      <path d="M160.4614 286.2808 L172.4614 292.2808 L172.4614 280.2808 Z" clip-path="url(#clipPath2)" stroke="none"/>
      <rect x="187.0436" y="277.2144" clip-path="url(#clipPath2)" fill="white" width="130.3574" height="18.1328" stroke="none"/>
      <text x="189.0436" xml:space="preserve" y="290.8159" clip-path="url(#clipPath2)" font-family="sans-serif" stroke="none">dcat:themeTaxonomy</text>
      <path fill="none" d="M300.7939 646.9727 L300.7939 482.8607 L171.4614 482.8607" clip-path="url(#clipPath2)"/>
      <path d="M300.7939 654.9727 C298.5848 654.9727 296.7939 653.1818 296.7939 650.9727 C296.7939 648.7635 298.5848 646.9727 300.7939 646.9727 C303.0031 646.9727 304.7939 648.7635 304.7939 650.9727 C304.7939 653.1818 303.0031 654.9727 300.7939 654.9727 Z" clip-path="url(#clipPath2)" stroke="none"/>
      <path d="M160.4614 482.8607 L172.4614 488.8607 L172.4614 476.8607 Z" clip-path="url(#clipPath2)" stroke="none"/>
      <rect x="196.4065" y="473.7943" clip-path="url(#clipPath2)" fill="white" width="66.0039" height="18.1328" stroke="none"/>
      <text x="198.4065" xml:space="preserve" y="487.3959" clip-path="url(#clipPath2)" font-family="sans-serif" stroke="none">dct:license</text>
      <path fill="none" d="M57.9772 449.8156 L57.9772 418.5708" clip-path="url(#clipPath2)"/>
      <path d="M57.9772 457.8156 C55.7681 457.8156 53.9772 456.0247 53.9772 453.8156 C53.9772 451.6064 55.7681 449.8156 57.9772 449.8156 C60.1864 449.8156 61.9772 451.6064 61.9772 453.8156 C61.9772 456.0247 60.1864 457.8156 57.9772 457.8156 Z" clip-path="url(#clipPath2)" stroke="none"/>
      <path d="M57.9772 407.5708 L51.9772 419.5708 L63.9772 419.5708 Z" clip-path="url(#clipPath2)" stroke="none"/>
      <rect x="32.487" y="421.6493" clip-path="url(#clipPath2)" fill="white" width="50.9805" height="18.1328" stroke="none"/>
      <text x="34.487" xml:space="preserve" y="435.2509" clip-path="url(#clipPath2)" font-family="sans-serif" stroke="none">dct:type</text>
      <path fill="none" d="M401.6627 646.9875 L401.6627 430.606 L570.9753 430.606" clip-path="url(#clipPath2)"/>
      <path d="M401.6627 654.9875 C399.4535 654.9875 397.6627 653.1967 397.6627 650.9875 C397.6627 648.7784 399.4535 646.9875 401.6627 646.9875 C403.8718 646.9875 405.6627 648.7784 405.6627 650.9875 C405.6627 653.1967 403.8718 654.9875 401.6627 654.9875 Z" clip-path="url(#clipPath2)" stroke="none"/>
      <path d="M581.9753 430.606 L569.9753 424.606 L569.9753 436.606 Z" clip-path="url(#clipPath2)" stroke="none"/>
      <rect x="465.22" y="421.5396" clip-path="url(#clipPath2)" fill="white" width="78.291" height="18.1328" stroke="none"/>
      <text x="467.22" xml:space="preserve" y="435.1411" clip-path="url(#clipPath2)" font-family="sans-serif" stroke="none">dct:temporal</text>
      <path fill="none" d="M447.0262 713.0469 L447.0262 795.8428 L570.9865 795.8428" clip-path="url(#clipPath2)"/>
      <path d="M447.0262 705.0469 C449.2354 705.0469 451.0262 706.8378 451.0262 709.0469 C451.0262 711.2561 449.2354 713.0469 447.0262 713.0469 C444.8171 713.0469 443.0262 711.2561 443.0262 709.0469 C443.0262 706.8378 444.8171 705.0469 447.0262 705.0469 Z" clip-path="url(#clipPath2)" stroke="none"/>
      <path d="M581.9865 795.8428 L569.9865 789.8428 L569.9865 801.8428 Z" clip-path="url(#clipPath2)" stroke="none"/>
      <rect x="480.5586" y="786.7764" clip-path="url(#clipPath2)" fill="white" width="70.1875" height="18.1328" stroke="none"/>
      <text x="482.5586" xml:space="preserve" y="800.378" clip-path="url(#clipPath2)" font-family="sans-serif" stroke="none">dcat:record</text>
      <path fill="none" d="M684.5035 762.8146 L684.5035 720" clip-path="url(#clipPath2)"/>
      <path d="M684.5035 770.8146 C682.2943 770.8146 680.5035 769.0237 680.5035 766.8146 C680.5035 764.6054 682.2943 762.8146 684.5035 762.8146 C686.7126 762.8146 688.5035 764.6054 688.5035 766.8146 C688.5035 769.0237 686.7126 770.8146 684.5035 770.8146 Z" clip-path="url(#clipPath2)" stroke="none"/>
      <path d="M684.5035 709 L678.5035 721 L690.5035 721 Z" clip-path="url(#clipPath2)" stroke="none"/>
      <rect x="630.6597" y="728.855" clip-path="url(#clipPath2)" fill="white" width="107.6875" height="18.1328" stroke="none"/>
      <text x="632.6597" xml:space="preserve" y="742.4565" clip-path="url(#clipPath2)" font-family="sans-serif" stroke="none">foaf:primaryTopic</text>
      <path fill="none" d="M415.9025 646.9916 L415.9025 513.7373 L570.9788 513.7373" clip-path="url(#clipPath2)"/>
      <path d="M415.9025 654.9916 C413.6934 654.9916 411.9025 653.2008 411.9025 650.9916 C411.9025 648.7825 413.6934 646.9916 415.9025 646.9916 C418.1117 646.9916 419.9025 648.7825 419.9025 650.9916 C419.9025 653.2008 418.1117 654.9916 415.9025 654.9916 Z" clip-path="url(#clipPath2)" stroke="none"/>
      <path d="M581.9788 513.7373 L569.9788 507.7373 L569.9788 519.7373 Z" clip-path="url(#clipPath2)" stroke="none"/>
      <rect x="457.8566" y="504.6709" clip-path="url(#clipPath2)" fill="white" width="91.6738" height="18.1328" stroke="none"/>
      <text x="459.8566" xml:space="preserve" y="518.2725" clip-path="url(#clipPath2)" font-family="sans-serif" stroke="none">foaf:homepage</text>
      <path fill="none" d="M431.536 646.9848 L431.536 596.8687 L571.0062 596.8687" clip-path="url(#clipPath2)"/>
      <path d="M431.536 654.9848 C429.3268 654.9848 427.536 653.194 427.536 650.9848 C427.536 648.7756 429.3268 646.9848 431.536 646.9848 C433.7451 646.9848 435.536 648.7756 435.536 650.9848 C435.536 653.194 433.7451 654.9848 431.536 654.9848 Z" clip-path="url(#clipPath2)" stroke="none"/>
      <path d="M582.0062 596.8687 L570.0062 590.8687 L570.0062 602.8687 Z" clip-path="url(#clipPath2)" stroke="none"/>
      <rect x="470.0482" y="587.8023" clip-path="url(#clipPath2)" fill="white" width="64.334" height="18.1328" stroke="none"/>
      <text x="472.0482" xml:space="preserve" y="601.4038" clip-path="url(#clipPath2)" font-family="sans-serif" stroke="none">dct:spatial</text>
      <path fill="none" d="M253.4921 680 L171.4614 680" clip-path="url(#clipPath2)"/>
      <path d="M261.4921 680 C261.4921 682.2092 259.7012 684 257.4921 684 C255.283 684 253.4921 682.2092 253.4921 680 C253.4921 677.7908 255.283 676 257.4921 676 C259.7012 676 261.4921 677.7908 261.4921 680 Z" clip-path="url(#clipPath2)" stroke="none"/>
      <path d="M160.4614 680 L172.4614 686 L172.4614 674 Z" clip-path="url(#clipPath2)" stroke="none"/>
      <rect x="179.68" y="670.9336" clip-path="url(#clipPath2)" fill="white" width="72.8359" height="18.1328" stroke="none"/>
      <text x="181.6799" xml:space="preserve" y="684.5352" clip-path="url(#clipPath2)" font-family="sans-serif" stroke="none">dcat:service</text>
      <path fill="none" d="M320.5634 713.0211 L320.5634 812.236" clip-path="url(#clipPath2)" stroke="green"/>
    </g>
    <g stroke-linecap="butt" transform="matrix(1,0,0,1,248,6)" fill-opacity="0" fill="rgb(0,0,0)" text-rendering="geometricPrecision" shape-rendering="geometricPrecision" stroke="rgb(0,0,0)" stroke-opacity="0" stroke-miterlimit="1.45">
      <path d="M320.5634 705.0211 C322.7725 705.0211 324.5634 706.8119 324.5634 709.0211 C324.5634 711.2302 322.7725 713.0211 320.5634 713.0211 C318.3542 713.0211 316.5634 711.2302 316.5634 709.0211 C316.5634 706.8119 318.3542 705.0211 320.5634 705.0211 Z" stroke="none" clip-path="url(#clipPath2)"/>
    </g>
    <g stroke-linecap="butt" transform="matrix(1,0,0,1,248,6)" fill="green" text-rendering="geometricPrecision" shape-rendering="geometricPrecision" stroke="green" stroke-miterlimit="1.45">
      <path fill="none" d="M320.5634 705.0211 C322.7725 705.0211 324.5634 706.8119 324.5634 709.0211 C324.5634 711.2302 322.7725 713.0211 320.5634 713.0211 C318.3542 713.0211 316.5634 711.2302 316.5634 709.0211 C316.5634 706.8119 318.3542 705.0211 320.5634 705.0211 Z" clip-path="url(#clipPath2)"/>
      <path fill="white" d="M320.5634 827.236 L326.5634 811.236 L314.5634 811.236 Z" clip-path="url(#clipPath2)" stroke="none"/>
      <path fill="none" d="M320.5634 827.236 L326.5634 811.236 L314.5634 811.236 Z" clip-path="url(#clipPath2)"/>
      <rect x="274.9667" y="730.8722" clip-path="url(#clipPath2)" fill="white" width="91.1934" height="46.3984" stroke="none"/>
      <text x="298.2714" xml:space="preserve" y="744.4738" clip-path="url(#clipPath2)" font-family="sans-serif" stroke="none">dct:title</text>
      <text x="276.9667" xml:space="preserve" y="758.6066" clip-path="url(#clipPath2)" font-family="sans-serif" stroke="none">dct:description</text>
      <text x="281.7333" xml:space="preserve" y="772.7394" clip-path="url(#clipPath2)" font-family="sans-serif" stroke="none">dcat:keyword</text>
      <path fill="none" d="M379.7183 646.9528 L379.7183 264.3433 L570.97 264.3433" clip-path="url(#clipPath2)" stroke="navy"/>
      <path fill="navy" d="M379.7183 654.9528 C377.5092 654.9528 375.7183 653.162 375.7183 650.9528 C375.7183 648.7437 377.5092 646.9528 379.7183 646.9528 C381.9275 646.9528 383.7183 648.7437 383.7183 650.9528 C383.7183 653.162 381.9275 654.9528 379.7183 654.9528 Z" clip-path="url(#clipPath2)" stroke="none"/>
      <path fill="navy" d="M581.97 264.3433 L569.97 258.3433 L569.97 270.3433 Z" clip-path="url(#clipPath2)" stroke="none"/>
      <rect x="456.5351" y="255.2769" clip-path="url(#clipPath2)" fill="white" width="79.252" height="18.1328" stroke="none"/>
      <text x="458.5351" y="268.8785" clip-path="url(#clipPath2)" fill="navy" font-family="sans-serif" stroke="none" xml:space="preserve">dct:language</text>
    </g>
    <g fill="rgb(210,210,210)" text-rendering="geometricPrecision" shape-rendering="geometricPrecision" transform="matrix(1,0,0,1,248,6) translate(4,4)" stroke="rgb(210,210,210)">
      <rect x="-99.7922" width="435.7214" height="172.5615" y="9.4922" clip-path="url(#clipPath3)" stroke="none"/>
    </g>
    <g fill="white" text-rendering="geometricPrecision" shape-rendering="geometricPrecision" transform="matrix(1,0,0,1,248,6)" stroke="white">
      <rect x="-99.7922" width="435.7214" height="172.5615" y="9.4922" clip-path="url(#clipPath2)" stroke="none"/>
      <rect x="-99.7922" y="9.4922" clip-path="url(#clipPath2)" fill="rgb(183,182,158)" width="435.7214" height="21.666" stroke="none"/>
    </g>
    <g font-size="15px" stroke-linecap="butt" transform="matrix(1,0,0,1,248,6)" text-rendering="geometricPrecision" font-family="sans-serif" shape-rendering="geometricPrecision" font-weight="bold" stroke-miterlimit="1.45">
      <text x="257.0615" xml:space="preserve" y="25.9942" clip-path="url(#clipPath2)" stroke="none">Prefixes   </text>
      <rect fill="none" x="-99.7922" width="435.7214" height="172.5615" y="9.4922" clip-path="url(#clipPath2)"/>
      <text x="-74.9849" xml:space="preserve" font-size="16px" y="63.627" clip-path="url(#clipPath2)" stroke="none">dcat:</text>
      <text x="-74.9849" xml:space="preserve" font-size="16px" y="82.4707" clip-path="url(#clipPath2)" stroke="none">dct:</text>
      <text x="-74.9849" xml:space="preserve" font-size="16px" y="101.3145" clip-path="url(#clipPath2)" stroke="none">skos:</text>
      <text x="-74.9849" xml:space="preserve" font-size="16px" y="120.1582" clip-path="url(#clipPath2)" stroke="none">foaf:</text>
      <text x="-74.9849" xml:space="preserve" font-size="16px" y="139.002" clip-path="url(#clipPath2)" stroke="none">rdfs:</text>
      <text x="-74.9849" xml:space="preserve" font-size="16px" y="157.8457" clip-path="url(#clipPath2)" stroke="none">prov:</text>
      <text x="-24.5083" font-size="16px" y="63.627" clip-path="url(#clipPath2)" stroke="none" font-weight="normal" xml:space="preserve">http://www.w3.org/ns/dcat#</text>
      <text x="-24.5083" font-size="16px" y="82.4707" clip-path="url(#clipPath2)" stroke="none" font-weight="normal" xml:space="preserve">http://purl.org/dc/terms/</text>
      <text x="-24.5083" font-size="16px" y="101.3145" clip-path="url(#clipPath2)" stroke="none" font-weight="normal" xml:space="preserve">http://www.w3.org/2004/02/skos/core#</text>
      <text x="-24.5083" font-size="16px" y="120.1582" clip-path="url(#clipPath2)" stroke="none" font-weight="normal" xml:space="preserve">http://xmlns.com/foaf/0.1/</text>
      <text x="-24.5083" font-size="16px" y="139.002" clip-path="url(#clipPath2)" stroke="none" font-weight="normal" xml:space="preserve">http://www.w3.org/2000/01/rdf-schema#</text>
      <text x="-24.5083" font-size="16px" y="157.8457" clip-path="url(#clipPath2)" stroke="none" font-weight="normal" xml:space="preserve">http://www.w3.org/ns/prov#</text>
    </g>
    <g fill="yellow" text-rendering="geometricPrecision" shape-rendering="geometricPrecision" transform="matrix(1,0,0,1,248,6)" stroke="yellow">
      <rect x="-44.5069" y="558.1507" clip-path="url(#clipPath2)" width="204.9682" rx="4" ry="4" height="58" stroke="none"/>
    </g>
    <g font-size="16px" stroke-linecap="butt" transform="matrix(1,0,0,1,248,6)" text-rendering="geometricPrecision" font-family="sans-serif" shape-rendering="geometricPrecision" stroke-miterlimit="1.45">
      <text x="-20.1243" xml:space="preserve" y="593.1976" clip-path="url(#clipPath2)" stroke="none">dct:RightsStatement</text>
      <rect x="-44.5069" y="558.1507" clip-path="url(#clipPath2)" fill="none" width="204.9682" rx="4" ry="4" height="58"/>
    </g>
    <g fill="yellow" text-rendering="geometricPrecision" shape-rendering="geometricPrecision" transform="matrix(1,0,0,1,248,6)" stroke="yellow">
      <rect x="582.0194" y="854.8428" clip-path="url(#clipPath2)" width="204.9682" rx="4" ry="4" height="58" stroke="none"/>
    </g>
    <g font-size="16px" stroke-linecap="butt" transform="matrix(1,0,0,1,248,6)" text-rendering="geometricPrecision" font-family="sans-serif" shape-rendering="geometricPrecision" stroke-miterlimit="1.45">
      <text x="636.0621" xml:space="preserve" y="889.8897" clip-path="url(#clipPath2)" stroke="none">prov:Activity</text>
      <rect x="582.0194" y="854.8428" clip-path="url(#clipPath2)" fill="none" width="204.9682" rx="4" ry="4" height="58"/>
    </g>
    <g fill="rgb(255,153,204)" text-rendering="geometricPrecision" shape-rendering="geometricPrecision" transform="matrix(1,0,0,1,248,6)" stroke="rgb(255,153,204)">
      <circle r="10" clip-path="url(#clipPath2)" cx="838.5882" cy="883.8428" stroke="none"/>
    </g>
    <g text-rendering="geometricPrecision" stroke-miterlimit="1.45" shape-rendering="geometricPrecision" font-family="sans-serif" transform="matrix(1,0,0,1,248,6)" stroke-linecap="butt">
      <text x="860.2572" xml:space="preserve" y="881.3116" clip-path="url(#clipPath2)" stroke="none">Research Project</text>
      <text x="854.5883" xml:space="preserve" y="895.4444" clip-path="url(#clipPath2)" stroke="none">(academic activity)</text>
      <circle fill="none" stroke-width="3" r="10" clip-path="url(#clipPath2)" cx="838.5882" cy="883.8428"/>
    </g>
    <g fill="rgb(255,153,204)" text-rendering="geometricPrecision" shape-rendering="geometricPrecision" transform="matrix(1,0,0,1,248,6)" stroke="rgb(255,153,204)">
      <circle r="10" clip-path="url(#clipPath2)" cx="838.5882" cy="680" stroke="none"/>
    </g>
    <g text-rendering="geometricPrecision" stroke-miterlimit="1.45" shape-rendering="geometricPrecision" font-family="sans-serif" transform="matrix(1,0,0,1,248,6)" stroke-linecap="butt">
      <text x="854.5883" xml:space="preserve" y="670.4023" clip-path="url(#clipPath2)" stroke="none">Research Output</text>
      <text x="860.9369" xml:space="preserve" y="684.5352" clip-path="url(#clipPath2)" stroke="none">(digital object)</text>
      <text x="870.4115" xml:space="preserve" y="698.668" clip-path="url(#clipPath2)" stroke="none">e.g. corpus</text>
      <circle fill="none" stroke-width="3" r="10" clip-path="url(#clipPath2)" cx="838.5882" cy="680"/>
    </g>
    <g fill="rgb(255,153,204)" text-rendering="geometricPrecision" shape-rendering="geometricPrecision" transform="matrix(1,0,0,1,248,6)" stroke="rgb(255,153,204)">
      <circle r="10" clip-path="url(#clipPath2)" cx="838.5882" cy="596.8687" stroke="none"/>
    </g>
    <g text-rendering="geometricPrecision" stroke-miterlimit="1.45" shape-rendering="geometricPrecision" font-family="sans-serif" transform="matrix(1,0,0,1,248,6)" stroke-linecap="butt">
      <text x="854.5883" xml:space="preserve" y="601.4038" clip-path="url(#clipPath2)" stroke="none">Geo area</text>
      <circle fill="none" stroke-width="3" r="10" clip-path="url(#clipPath2)" cx="838.5882" cy="596.8687"/>
    </g>
    <g fill="rgb(255,153,204)" text-rendering="geometricPrecision" shape-rendering="geometricPrecision" transform="matrix(1,0,0,1,248,6)" stroke="rgb(255,153,204)">
      <circle r="10" clip-path="url(#clipPath2)" cx="838.5882" cy="347.4747" stroke="none"/>
    </g>
    <g text-rendering="geometricPrecision" stroke-miterlimit="1.45" shape-rendering="geometricPrecision" font-family="sans-serif" transform="matrix(1,0,0,1,248,6)" stroke-linecap="butt">
      <text x="876.2679" xml:space="preserve" y="337.877" clip-path="url(#clipPath2)" stroke="none">Researchers,</text>
      <text x="854.5883" xml:space="preserve" y="352.0098" clip-path="url(#clipPath2)" stroke="none">Departments, Labs, </text>
      <text x="879.4349" xml:space="preserve" y="366.1426" clip-path="url(#clipPath2)" stroke="none">Universities</text>
      <circle fill="none" stroke-width="3" r="10" clip-path="url(#clipPath2)" cx="838.5882" cy="347.4747"/>
    </g>
    <g fill="rgb(255,153,204)" text-rendering="geometricPrecision" shape-rendering="geometricPrecision" transform="matrix(1,0,0,1,248,6)" stroke="rgb(255,153,204)">
      <circle r="10" clip-path="url(#clipPath2)" cx="-99.0809" cy="274.2808" stroke="none"/>
    </g>
    <g text-rendering="geometricPrecision" stroke-miterlimit="1.45" shape-rendering="geometricPrecision" font-family="sans-serif" transform="matrix(1,0,0,1,248,6)" stroke-linecap="butt">
      <text x="-225.4012" xml:space="preserve" y="271.7495" clip-path="url(#clipPath2)" stroke="none">Controlled Vocabs,</text>
      <text x="-204.2254" xml:space="preserve" y="285.8823" clip-path="url(#clipPath2)" stroke="none">Authorities </text>
      <circle fill="none" stroke-width="3" r="10" clip-path="url(#clipPath2)" cx="-99.0809" cy="274.2808"/>
    </g>
    <g fill="rgb(255,153,204)" text-rendering="geometricPrecision" shape-rendering="geometricPrecision" transform="matrix(1,0,0,1,248,6)" stroke="rgb(255,153,204)">
      <circle r="10" clip-path="url(#clipPath2)" cx="-99.0809" cy="680" stroke="none"/>
    </g>
    <g text-rendering="geometricPrecision" stroke-miterlimit="1.45" shape-rendering="geometricPrecision" font-family="sans-serif" transform="matrix(1,0,0,1,248,6)" stroke-linecap="butt">
      <text x="-218.4784" xml:space="preserve" y="670.4023" clip-path="url(#clipPath2)" stroke="none">Research Output</text>
      <text x="-225.1258" xml:space="preserve" y="684.5352" clip-path="url(#clipPath2)" stroke="none">(object interaction)</text>
      <text x="-201.8495" xml:space="preserve" y="698.668" clip-path="url(#clipPath2)" stroke="none">e.g. search</text>
      <circle fill="none" stroke-width="3" r="10" clip-path="url(#clipPath2)" cx="-99.0809" cy="680"/>
    </g>
    <g fill="rgb(255,153,204)" text-rendering="geometricPrecision" shape-rendering="geometricPrecision" transform="matrix(1,0,0,1,248,6)" stroke="rgb(255,153,204)">
      <circle r="10" clip-path="url(#clipPath2)" cx="51.5608" cy="768.1192" stroke="none"/>
    </g>
    <g text-rendering="geometricPrecision" stroke-miterlimit="1.45" shape-rendering="geometricPrecision" font-family="sans-serif" transform="matrix(1,0,0,1,248,6)" stroke-linecap="butt">
      <text x="-64.8777" xml:space="preserve" y="758.5216" clip-path="url(#clipPath2)" stroke="none">Research Project</text>
      <text x="-69.4275" xml:space="preserve" y="772.6544" clip-path="url(#clipPath2)" stroke="none">(output container)</text>
      <text x="-51.8347" xml:space="preserve" y="786.7872" clip-path="url(#clipPath2)" stroke="none">e.g. website</text>
      <circle fill="none" stroke-width="3" r="10" clip-path="url(#clipPath2)" cx="51.5608" cy="768.1192"/>
    </g>
    <g fill="rgb(255,153,204)" text-rendering="geometricPrecision" shape-rendering="geometricPrecision" transform="matrix(1,0,0,1,248,6)" stroke="rgb(255,153,204)">
      <circle r="10" clip-path="url(#clipPath2)" cx="-99.0809" cy="378.5708" stroke="none"/>
    </g>
    <g text-rendering="geometricPrecision" stroke-miterlimit="1.45" shape-rendering="geometricPrecision" font-family="sans-serif" transform="matrix(1,0,0,1,248,6)" stroke-linecap="butt">
      <text x="-221.4725" xml:space="preserve" y="376.0395" clip-path="url(#clipPath2)" stroke="none">Primary subject, </text>
      <text x="-230.3641" xml:space="preserve" y="390.1723" clip-path="url(#clipPath2)" stroke="none">Academic discipline</text>
      <circle fill="none" stroke-width="3" r="10" clip-path="url(#clipPath2)" cx="-99.0809" cy="378.5708"/>
    </g>
    <g fill="rgb(204,255,204)" text-rendering="geometricPrecision" shape-rendering="geometricPrecision" transform="matrix(1,0,0,1,248,6)" stroke="rgb(204,255,204)">
      <path d="M115.1228 827.2385 L228.6083 827.2385 L215.9988 870.2385 L102.5133 870.2385 Z" fill-rule="evenodd" clip-path="url(#clipPath2)" stroke="none"/>
    </g>
    <g font-size="16px" stroke-linecap="butt" transform="matrix(1,0,0,1,248,6)" text-rendering="geometricPrecision" font-family="sans-serif" shape-rendering="geometricPrecision" stroke-miterlimit="1.45">
      <text x="132.1077" xml:space="preserve" y="854.7853" clip-path="url(#clipPath2)" stroke="none">xsd:date</text>
      <path fill="none" d="M115.1228 827.2385 L228.6083 827.2385 L215.9988 870.2385 L102.5133 870.2385 Z" fill-rule="evenodd" clip-path="url(#clipPath2)"/>
    </g>
    <g stroke-linecap="butt" transform="matrix(1,0,0,1,248,6)" fill="navy" text-rendering="geometricPrecision" shape-rendering="geometricPrecision" stroke="navy" stroke-miterlimit="1.45">
      <path fill="none" d="M286.4907 646.9789 L286.4907 587.1508 L171.4345 587.1508" clip-path="url(#clipPath2)"/>
      <path d="M286.4907 654.9789 C284.2816 654.9789 282.4907 653.188 282.4907 650.9789 C282.4907 648.7697 284.2816 646.9789 286.4907 646.9789 C288.6998 646.9789 290.4907 648.7697 290.4907 650.9789 C290.4907 653.188 288.6998 654.9789 286.4907 654.9789 Z" clip-path="url(#clipPath2)" stroke="none"/>
      <path d="M160.4345 587.1508 L172.4345 593.1508 L172.4345 581.1508 Z" clip-path="url(#clipPath2)" stroke="none"/>
      <rect x="198.0893" y="578.0843" clip-path="url(#clipPath2)" fill="white" width="59.8984" height="18.1328" stroke="none"/>
      <text x="200.0893" xml:space="preserve" y="591.6859" clip-path="url(#clipPath2)" font-family="sans-serif" stroke="none">dct:rights</text>
      <path fill="none" d="M57.9772 511.8613 L57.9772 550.1452" clip-path="url(#clipPath2)" stroke="black"/>
      <path fill="black" d="M57.9772 558.1452 L62.9772 546.1452 L57.9772 549.1452 L52.9772 546.1452 Z" clip-path="url(#clipPath2)" stroke="none"/>
      <rect x="9.8405" y="525.9393" clip-path="url(#clipPath2)" fill="white" width="96.2734" height="18.1328" stroke="none"/>
      <text x="11.8405" y="539.5409" clip-path="url(#clipPath2)" fill="black" font-family="sans-serif" stroke="none" xml:space="preserve">rdfs:subClassOf</text>
      <path fill="none" d="M397.6119 713.0126 L397.6119 883.8428 L570.9972 883.8428" clip-path="url(#clipPath2)"/>
      <path d="M397.6119 705.0126 C399.8211 705.0126 401.6119 706.8035 401.6119 709.0126 C401.6119 711.2218 399.8211 713.0126 397.6119 713.0126 C395.4028 713.0126 393.6119 711.2218 393.6119 709.0126 C393.6119 706.8035 395.4028 705.0126 397.6119 705.0126 Z" clip-path="url(#clipPath2)" stroke="none"/>
      <path d="M581.9972 883.8428 L569.9972 877.8428 L569.9972 889.8428 Z" clip-path="url(#clipPath2)" stroke="none"/>
      <rect x="417.8568" y="874.7764" clip-path="url(#clipPath2)" fill="white" width="128.7578" height="18.1328" stroke="none"/>
      <text x="419.8568" xml:space="preserve" y="888.378" clip-path="url(#clipPath2)" font-family="sans-serif" stroke="none">prov:wasGeneratedBy</text>
      <path fill="none" d="M787.0135 883.8428 L820.5883 883.8428" clip-path="url(#clipPath2)" stroke="black"/>
      <path fill="black" d="M828.5883 883.8428 L816.5883 878.8428 L819.5883 883.8428 L816.5883 888.8428 Z" clip-path="url(#clipPath2)" stroke="none"/>
      <path fill="none" d="M787.0135 680 L820.5883 680" clip-path="url(#clipPath2)" stroke="black"/>
      <path fill="black" d="M828.5883 680 L816.5883 675 L819.5883 680 L816.5883 685 Z" clip-path="url(#clipPath2)" stroke="none"/>
      <path fill="none" d="M787.0135 596.8687 L820.5883 596.8687" clip-path="url(#clipPath2)" stroke="black"/>
      <path fill="black" d="M828.5883 596.8687 L816.5883 591.8687 L819.5883 596.8687 L816.5883 601.8687 Z" clip-path="url(#clipPath2)" stroke="none"/>
      <path fill="none" d="M787.0135 347.4747 L820.5883 347.4747" clip-path="url(#clipPath2)" stroke="black"/>
      <path fill="black" d="M828.5883 347.4747 L816.5883 342.4747 L819.5883 347.4747 L816.5883 352.4747 Z" clip-path="url(#clipPath2)" stroke="none"/>
      <path fill="none" d="M-44.517 274.2808 L-81.0809 274.2808" clip-path="url(#clipPath2)" stroke="black"/>
      <path fill="black" d="M-89.0809 274.2808 L-77.0809 279.2808 L-80.0809 274.2808 L-77.0809 269.2808 Z" clip-path="url(#clipPath2)" stroke="none"/>
      <path fill="none" d="M-44.517 680 L-81.0809 680" clip-path="url(#clipPath2)" stroke="black"/>
      <path fill="black" d="M-89.0809 680 L-77.0809 685 L-80.0809 680 L-77.0809 675 Z" clip-path="url(#clipPath2)" stroke="none"/>
      <path fill="none" d="M259.4734 708.4434 L68.8622 763.1533" clip-path="url(#clipPath2)" stroke="black"/>
      <path fill="black" d="M61.1727 765.3604 L74.0864 766.8557 L69.8234 762.8774 L71.3276 757.2438 Z" clip-path="url(#clipPath2)" stroke="none"/>
      <path fill="none" d="M-44.517 378.5708 L-81.0809 378.5708" clip-path="url(#clipPath2)" stroke="black"/>
      <path fill="black" d="M-89.0809 378.5708 L-77.0809 383.5708 L-80.0809 378.5708 L-77.0809 373.5708 Z" clip-path="url(#clipPath2)" stroke="none"/>
      <path fill="none" d="M268.4665 712.1982 L190.8127 815.2331" clip-path="url(#clipPath2)" stroke="green"/>
    </g>
    <g stroke-linecap="butt" transform="matrix(1,0,0,1,248,6)" fill-opacity="0" fill="rgb(0,0,0)" text-rendering="geometricPrecision" shape-rendering="geometricPrecision" stroke="rgb(0,0,0)" stroke-opacity="0" stroke-miterlimit="1.45">
      <path d="M273.2814 705.8094 C275.0456 707.139 275.3979 709.647 274.0683 711.4113 C272.7387 713.1755 270.2307 713.5278 268.4665 712.1982 C266.7022 710.8685 266.3499 708.3605 267.6796 706.5963 C269.0092 704.8321 271.5172 704.4798 273.2814 705.8094 Z" stroke="none" clip-path="url(#clipPath2)"/>
    </g>
    <g stroke-linecap="butt" transform="matrix(1,0,0,1,248,6)" fill="green" text-rendering="geometricPrecision" shape-rendering="geometricPrecision" stroke="green" stroke-miterlimit="1.45">
      <path fill="none" d="M273.2814 705.8094 C275.0456 707.139 275.3979 709.647 274.0683 711.4113 C272.7387 713.1755 270.2307 713.5278 268.4665 712.1982 C266.7022 710.8685 266.3499 708.3605 267.6796 706.5963 C269.0092 704.8321 271.5172 704.4798 273.2814 705.8094 Z" clip-path="url(#clipPath2)"/>
      <path fill="white" d="M181.7846 827.212 L196.2061 818.0457 L186.623 810.8232 Z" clip-path="url(#clipPath2)" stroke="none"/>
      <path fill="none" d="M181.7846 827.212 L196.2061 818.0457 L186.623 810.8232 Z" clip-path="url(#clipPath2)"/>
      <rect x="187.4711" y="751.9864" clip-path="url(#clipPath2)" fill="white" width="77.6992" height="32.2656" stroke="none"/>
      <text x="189.4711" xml:space="preserve" y="765.588" clip-path="url(#clipPath2)" font-family="sans-serif" stroke="none">dct:modified</text>
      <text x="196.6342" xml:space="preserve" y="779.7208" clip-path="url(#clipPath2)" font-family="sans-serif" stroke="none">dct:issued</text>
    </g>
  </g>
</svg>
