<?xml version="1.0" encoding="UTF-8"?><svg xmlns="http://www.w3.org/2000/svg" xmlns:xlink="http://www.w3.org/1999/xlink" fill-opacity="1" color-rendering="auto" color-interpolation="auto" text-rendering="auto" stroke="black" stroke-linecap="square" width="1042" stroke-miterlimit="10" shape-rendering="auto" stroke-opacity="1" fill="black" stroke-dasharray="none" font-weight="normal" stroke-width="1" height="352" font-family="'Dialog'" font-style="normal" stroke-linejoin="miter" font-size="12px" stroke-dashoffset="0" image-rendering="auto">
  <!--Generated by ySVG 2.6-->
  <defs id="genericDefs"/>
  <g>
    <defs id="defs1">
      <clipPath clipPathUnits="userSpaceOnUse" id="clipPath1">
        <path d="M0 0 L1042 0 L1042 352 L0 352 L0 0 Z"/>
      </clipPath>
      <clipPath clipPathUnits="userSpaceOnUse" id="clipPath2">
        <path d="M50 21 L1092 21 L1092 373 L50 373 L50 21 Z"/>
      </clipPath>
    </defs>
    <g fill="white" text-rendering="geometricPrecision" shape-rendering="geometricPrecision" transform="translate(-50,-21)" stroke="white">
      <rect x="50" width="1042" height="352" y="21" clip-path="url(#clipPath2)" stroke="none"/>
    </g>
    <g fill="yellow" text-rendering="geometricPrecision" shape-rendering="geometricPrecision" transform="matrix(1,0,0,1,-50,-21)" stroke="yellow">
      <rect x="898.9171" y="194.8633" clip-path="url(#clipPath2)" width="152.0577" rx="4" ry="4" height="43" stroke="none"/>
    </g>
    <g font-size="16px" stroke-linecap="butt" transform="matrix(1,0,0,1,-50,-21)" text-rendering="geometricPrecision" font-family="sans-serif" shape-rendering="geometricPrecision" stroke-miterlimit="1.45">
      <text x="926.524" xml:space="preserve" y="222.4102" clip-path="url(#clipPath2)" stroke="none">dcat:Dataset</text>
      <rect x="898.9171" y="194.8633" clip-path="url(#clipPath2)" fill="none" width="152.0577" rx="4" ry="4" height="43"/>
    </g>
    <g fill="yellow" text-rendering="geometricPrecision" shape-rendering="geometricPrecision" transform="matrix(1,0,0,1,-50,-21)" stroke="yellow">
      <rect x="455.1541" y="112.2422" clip-path="url(#clipPath2)" width="204.9682" rx="4" ry="4" height="58" stroke="none"/>
    </g>
    <g font-size="16px" stroke-linecap="butt" transform="matrix(1,0,0,1,-50,-21)" text-rendering="geometricPrecision" font-family="sans-serif" shape-rendering="geometricPrecision" stroke-miterlimit="1.45">
      <text x="493.6968" xml:space="preserve" y="147.2891" clip-path="url(#clipPath2)" stroke="none">dcat:DataService</text>
      <rect x="455.1541" y="112.2422" clip-path="url(#clipPath2)" fill="none" width="204.9682" rx="4" ry="4" height="58"/>
    </g>
    <g fill="rgb(255,153,204)" text-rendering="geometricPrecision" shape-rendering="geometricPrecision" transform="matrix(1,0,0,1,-50,-21)" stroke="rgb(255,153,204)">
      <circle r="10" clip-path="url(#clipPath2)" cx="974.9459" cy="272.4844" stroke="none"/>
    </g>
    <g text-rendering="geometricPrecision" stroke-miterlimit="1.45" shape-rendering="geometricPrecision" font-family="sans-serif" transform="matrix(1,0,0,1,-50,-21)" stroke-linecap="butt">
      <text x="990.9459" xml:space="preserve" y="277.0195" clip-path="url(#clipPath2)" stroke="none">:alcide_corpus</text>
      <circle fill="none" stroke-width="3" r="10" clip-path="url(#clipPath2)" cx="974.9459" cy="272.4844"/>
    </g>
    <g fill="rgb(255,153,204)" text-rendering="geometricPrecision" shape-rendering="geometricPrecision" transform="matrix(1,0,0,1,-50,-21)" stroke="rgb(255,153,204)">
      <circle r="10" clip-path="url(#clipPath2)" cx="644.8838" cy="271.3633" stroke="none"/>
    </g>
    <g text-rendering="geometricPrecision" stroke-miterlimit="1.45" shape-rendering="geometricPrecision" font-family="sans-serif" transform="matrix(1,0,0,1,-50,-21)" stroke-linecap="butt">
      <text x="660.8839" xml:space="preserve" y="256.832" clip-path="url(#clipPath2)" stroke="none">:alcide_platform</text>
      <circle fill="none" stroke-width="3" r="10" clip-path="url(#clipPath2)" cx="644.8838" cy="271.3633"/>
      <text x="798.6153" xml:space="preserve" y="277.9531" clip-path="url(#clipPath2)" stroke="none">"ALCIDE platform"@en</text>
      <text x="312.3106" xml:space="preserve" y="263.8203" clip-path="url(#clipPath2)" stroke="none">"La piattaforma ALCIDE </text>
      <text x="312.3106" xml:space="preserve" y="277.9531" clip-path="url(#clipPath2)" stroke="none">nasce dalla collaborazione..."@it </text>
      <text x="881.1227" xml:space="preserve" y="147.832" clip-path="url(#clipPath2)" stroke="none">&lt;alcidedigitale.fbk.eu/&gt;</text>
      <text x="123.8533" xml:space="preserve" y="147.832" clip-path="url(#clipPath2)" stroke="none">&lt;alcidedigitale.fbk.eu/platform&gt;</text>
      <text x="67.9694" xml:space="preserve" y="277.9531" clip-path="url(#clipPath2)" stroke="none">Controlled Vocabulary Concepts URIs</text>
      <text x="436.1382" xml:space="preserve" y="49.6016" clip-path="url(#clipPath2)" stroke="none">&lt;http://purl.org/knot/taxonomy#digital_platform&gt;</text>
      <text x="411.461" xml:space="preserve" y="348.7551" clip-path="url(#clipPath2)" stroke="none">2018/12/31^^xsd:date</text>
      <path fill="none" d="M974.9459 237.8633 L974.9459 254.4844" clip-path="url(#clipPath2)"/>
      <path d="M974.9459 262.4844 L979.9459 250.4844 L974.9459 253.4844 L969.9459 250.4844 Z" clip-path="url(#clipPath2)" stroke="none"/>
      <path fill="none" d="M608.8802 170.2422 L608.8802 185.7422 L644.8839 185.7422 L644.8839 253.3633" clip-path="url(#clipPath2)"/>
      <path d="M644.8839 261.3633 L649.8839 249.3633 L644.8839 252.3633 L639.8839 249.3633 Z" clip-path="url(#clipPath2)" stroke="none"/>
      <path fill="none" d="M644.8839 285.3633 L644.8839 318.9961 L974.9459 320.1172 L974.9459 293.4844" clip-path="url(#clipPath2)" stroke="navy"/>
      <path fill="navy" d="M644.8839 277.3633 C647.093 277.3633 648.8839 279.1541 648.8839 281.3633 C648.8839 283.5724 647.093 285.3633 644.8839 285.3633 C642.6747 285.3633 640.8839 283.5724 640.8839 281.3633 C640.8839 279.1541 642.6747 277.3633 644.8839 277.3633 Z" clip-path="url(#clipPath2)" stroke="none"/>
      <path fill="navy" d="M974.9459 282.4844 L968.9459 294.4844 L980.9459 294.4844 Z" clip-path="url(#clipPath2)" stroke="none"/>
      <rect x="815.7467" y="310.7026" clip-path="url(#clipPath2)" fill="white" width="113.3594" height="18.1328" stroke="none"/>
      <text fill="navy" x="817.7466" xml:space="preserve" y="324.3041" clip-path="url(#clipPath2)" stroke="none">dcat:servesDataset</text>
      <path fill="none" d="M658.8839 271.3633 L768.7421 271.3633" clip-path="url(#clipPath2)" stroke="green"/>
    </g>
    <g stroke-linecap="butt" transform="matrix(1,0,0,1,-50,-21)" fill-opacity="0" fill="rgb(0,0,0)" text-rendering="geometricPrecision" shape-rendering="geometricPrecision" stroke="rgb(0,0,0)" stroke-opacity="0" stroke-miterlimit="1.45">
      <path d="M650.8839 271.3633 C650.8839 269.1541 652.6747 267.3633 654.8839 267.3633 C657.093 267.3633 658.8839 269.1541 658.8839 271.3633 C658.8839 273.5724 657.093 275.3633 654.8839 275.3633 C652.6747 275.3633 650.8839 273.5724 650.8839 271.3633 Z" stroke="none" clip-path="url(#clipPath2)"/>
    </g>
    <g stroke-linecap="butt" transform="matrix(1,0,0,1,-50,-21)" fill="green" text-rendering="geometricPrecision" shape-rendering="geometricPrecision" stroke="green" stroke-miterlimit="1.45">
      <path fill="none" d="M650.8839 271.3633 C650.8839 269.1541 652.6747 267.3633 654.8839 267.3633 C657.093 267.3633 658.8839 269.1541 658.8839 271.3633 C658.8839 273.5724 657.093 275.3633 654.8839 275.3633 C652.6747 275.3633 650.8839 273.5724 650.8839 271.3633 Z" clip-path="url(#clipPath2)"/>
      <path fill="white" d="M783.7421 271.3633 L767.7421 265.3633 L767.7421 277.3633 Z" clip-path="url(#clipPath2)" stroke="none"/>
      <path fill="none" d="M783.7421 271.3633 L767.7421 265.3633 L767.7421 277.3633 Z" clip-path="url(#clipPath2)"/>
      <rect x="695.0367" y="262.2969" clip-path="url(#clipPath2)" fill="white" width="48.584" height="18.1328" stroke="none"/>
      <text x="697.0367" xml:space="preserve" y="275.8984" clip-path="url(#clipPath2)" font-family="sans-serif" stroke="none">dct:title</text>
      <path fill="none" d="M630.8839 271.3633 L520.9941 271.3633" clip-path="url(#clipPath2)"/>
    </g>
    <g stroke-linecap="butt" transform="matrix(1,0,0,1,-50,-21)" fill-opacity="0" fill="rgb(0,0,0)" text-rendering="geometricPrecision" shape-rendering="geometricPrecision" stroke="rgb(0,0,0)" stroke-opacity="0" stroke-miterlimit="1.45">
      <path d="M638.8839 271.3633 C638.8839 273.5724 637.093 275.3633 634.8839 275.3633 C632.6747 275.3633 630.8839 273.5724 630.8839 271.3633 C630.8839 269.1541 632.6747 267.3633 634.8839 267.3633 C637.093 267.3633 638.8839 269.1541 638.8839 271.3633 Z" stroke="none" clip-path="url(#clipPath2)"/>
    </g>
    <g stroke-linecap="butt" transform="matrix(1,0,0,1,-50,-21)" fill="green" text-rendering="geometricPrecision" shape-rendering="geometricPrecision" stroke="green" stroke-miterlimit="1.45">
      <path fill="none" d="M638.8839 271.3633 C638.8839 273.5724 637.093 275.3633 634.8839 275.3633 C632.6747 275.3633 630.8839 273.5724 630.8839 271.3633 C630.8839 269.1541 632.6747 267.3633 634.8839 267.3633 C637.093 267.3633 638.8839 269.1541 638.8839 271.3633 Z" clip-path="url(#clipPath2)"/>
      <path fill="white" d="M505.9941 271.3633 L521.9941 277.3633 L521.9941 265.3633 Z" clip-path="url(#clipPath2)" stroke="none"/>
      <path fill="none" d="M505.9941 271.3633 L521.9941 277.3633 L521.9941 265.3633 Z" clip-path="url(#clipPath2)"/>
      <rect x="530.4481" y="262.2969" clip-path="url(#clipPath2)" fill="white" width="91.1934" height="18.1328" stroke="none"/>
      <text x="532.4481" xml:space="preserve" y="275.8984" clip-path="url(#clipPath2)" font-family="sans-serif" stroke="none">dct:description</text>
      <path fill="none" d="M664.1223 141.2422 L864 141.2422" clip-path="url(#clipPath2)" stroke="navy"/>
      <path fill="navy" d="M656.1223 141.2422 C656.1223 139.0331 657.9131 137.2422 660.1223 137.2422 C662.3315 137.2422 664.1223 139.0331 664.1223 141.2422 C664.1223 143.4513 662.3315 145.2422 660.1223 145.2422 C657.9131 145.2422 656.1223 143.4513 656.1223 141.2422 Z" clip-path="url(#clipPath2)" stroke="none"/>
      <path fill="navy" d="M875 141.2422 L863 135.2422 L863 147.2422 Z" clip-path="url(#clipPath2)" stroke="none"/>
      <rect x="698.2099" y="132.1758" clip-path="url(#clipPath2)" fill="white" width="151.2695" height="18.1328" stroke="none"/>
      <text x="700.2099" y="145.7773" clip-path="url(#clipPath2)" fill="navy" font-family="sans-serif" stroke="none" xml:space="preserve">dcat:endpointDescription</text>
      <path fill="none" d="M451.1206 141.2422 L329 141.2422" clip-path="url(#clipPath2)" stroke="navy"/>
      <path fill="navy" d="M459.1206 141.2422 C459.1206 143.4513 457.3297 145.2422 455.1206 145.2422 C452.9115 145.2422 451.1206 143.4513 451.1206 141.2422 C451.1206 139.0331 452.9115 137.2422 455.1206 137.2422 C457.3297 137.2422 459.1206 139.0331 459.1206 141.2422 Z" clip-path="url(#clipPath2)" stroke="none"/>
      <path fill="navy" d="M318 141.2422 L330 147.2422 L330 135.2422 Z" clip-path="url(#clipPath2)" stroke="none"/>
      <rect x="334.66" y="132.1758" clip-path="url(#clipPath2)" fill="white" width="106.9258" height="18.1328" stroke="none"/>
      <text x="336.66" y="145.7773" clip-path="url(#clipPath2)" fill="navy" font-family="sans-serif" stroke="none" xml:space="preserve">dcat:endpointURL</text>
      <path fill="none" d="M506.3961 174.2422 L506.3961 185.7422 L176.1247 185.7422 L176.1247 249.2058" clip-path="url(#clipPath2)" stroke="navy"/>
      <path fill="navy" d="M506.3961 166.2422 C508.6053 166.2422 510.3961 168.0331 510.3961 170.2422 C510.3961 172.4513 508.6053 174.2422 506.3961 174.2422 C504.187 174.2422 502.3961 172.4513 502.3961 170.2422 C502.3961 168.0331 504.187 166.2422 506.3961 166.2422 Z" clip-path="url(#clipPath2)" stroke="none"/>
      <path fill="navy" d="M176.1247 260.2058 L182.1247 248.2058 L170.1247 248.2058 Z" clip-path="url(#clipPath2)" stroke="none"/>
      <rect x="306.6999" y="176.6758" clip-path="url(#clipPath2)" fill="white" width="69.1211" height="18.1328" stroke="none"/>
      <text x="308.6999" y="190.2773" clip-path="url(#clipPath2)" fill="navy" font-family="sans-serif" stroke="none" xml:space="preserve">dcat:theme</text>
      <path fill="none" d="M557.6382 108.2158 L557.6382 69.2422" clip-path="url(#clipPath2)" stroke="navy"/>
      <path fill="navy" d="M557.6382 116.2158 C555.429 116.2158 553.6382 114.425 553.6382 112.2158 C553.6382 110.0067 555.429 108.2158 557.6382 108.2158 C559.8474 108.2158 561.6382 110.0067 561.6382 112.2158 C561.6382 114.425 559.8474 116.2158 557.6382 116.2158 Z" clip-path="url(#clipPath2)" stroke="none"/>
      <path fill="navy" d="M557.6382 58.2422 L551.6382 70.2422 L563.6382 70.2422 Z" clip-path="url(#clipPath2)" stroke="none"/>
      <rect x="532.148" y="76.1758" clip-path="url(#clipPath2)" fill="white" width="50.9805" height="18.1328" stroke="none"/>
      <text x="534.1479" y="89.7773" clip-path="url(#clipPath2)" fill="navy" font-family="sans-serif" stroke="none" xml:space="preserve">dct:type</text>
      <path fill="none" d="M632.1259 277.1283 L517.3857 328.9767" clip-path="url(#clipPath2)"/>
    </g>
    <g stroke-linecap="butt" transform="matrix(1,0,0,1,-50,-21)" fill-opacity="0" fill="rgb(0,0,0)" text-rendering="geometricPrecision" shape-rendering="geometricPrecision" stroke="rgb(0,0,0)" stroke-opacity="0" stroke-miterlimit="1.45">
      <path d="M639.4162 273.834 C640.3259 275.8471 639.4313 278.2166 637.4182 279.1263 C635.405 280.0359 633.0356 279.1414 632.1259 277.1283 C631.2162 275.1151 632.1108 272.7457 634.1239 271.836 C636.1371 270.9263 638.5065 271.8209 639.4162 273.834 Z" stroke="none" clip-path="url(#clipPath2)"/>
    </g>
    <g stroke-linecap="butt" transform="matrix(1,0,0,1,-50,-21)" fill="green" text-rendering="geometricPrecision" shape-rendering="geometricPrecision" stroke="green" stroke-miterlimit="1.45">
      <path fill="none" d="M639.4162 273.834 C640.3259 275.8471 639.4313 278.2166 637.4182 279.1263 C635.405 280.0359 633.0356 279.1414 632.1259 277.1283 C631.2162 275.1151 632.1108 272.7457 634.1239 271.836 C636.1371 270.9263 638.5065 271.8209 639.4162 273.834 Z" clip-path="url(#clipPath2)"/>
      <path fill="white" d="M503.7165 335.1536 L520.7677 334.0327 L515.8262 323.0973 Z" clip-path="url(#clipPath2)" stroke="none"/>
      <path fill="none" d="M503.7165 335.1536 L520.7677 334.0327 L515.8262 323.0973 Z" clip-path="url(#clipPath2)"/>
      <rect x="543.1479" y="293.9506" clip-path="url(#clipPath2)" fill="white" width="63.373" height="18.1328" stroke="none"/>
      <text x="545.1479" xml:space="preserve" y="307.5522" clip-path="url(#clipPath2)" font-family="sans-serif" stroke="none">dct:issued</text>
    </g>
  </g>
</svg>
