<?xml version="1.0" encoding="UTF-8"?><svg xmlns="http://www.w3.org/2000/svg" xmlns:xlink="http://www.w3.org/1999/xlink" fill-opacity="1" color-rendering="auto" color-interpolation="auto" text-rendering="auto" stroke="black" stroke-linecap="square" width="1514" stroke-miterlimit="10" shape-rendering="auto" stroke-opacity="1" fill="black" stroke-dasharray="none" font-weight="normal" stroke-width="1" height="364" font-family="'Dialog'" font-style="normal" stroke-linejoin="miter" font-size="12px" stroke-dashoffset="0" image-rendering="auto">
  <!--Generated by ySVG 2.6-->
  <defs id="genericDefs"/>
  <g>
    <defs id="defs1">
      <clipPath clipPathUnits="userSpaceOnUse" id="clipPath1">
        <path d="M0 0 L1514 0 L1514 364 L0 364 L0 0 Z"/>
      </clipPath>
      <clipPath clipPathUnits="userSpaceOnUse" id="clipPath2">
        <path d="M125 -33 L1639 -33 L1639 331 L125 331 L125 -33 Z"/>
      </clipPath>
    </defs>
    <g fill="white" text-rendering="geometricPrecision" shape-rendering="geometricPrecision" transform="translate(-125,33)" stroke="white">
      <rect x="125" width="1514" height="364" y="-33" clip-path="url(#clipPath2)" stroke="none"/>
    </g>
    <g fill="rgb(255,153,204)" text-rendering="geometricPrecision" shape-rendering="geometricPrecision" transform="matrix(1,0,0,1,-125,33)" stroke="rgb(255,153,204)">
      <circle r="10" clip-path="url(#clipPath2)" cx="1130.9032" cy="160.5493" stroke="none"/>
    </g>
    <g text-rendering="geometricPrecision" stroke-miterlimit="1.45" shape-rendering="geometricPrecision" font-family="sans-serif" transform="matrix(1,0,0,1,-125,33)" stroke-linecap="butt">
      <text x="1026.913" xml:space="preserve" y="146.018" clip-path="url(#clipPath2)" stroke="none">:alcide_website</text>
      <circle fill="none" stroke-width="3" r="10" clip-path="url(#clipPath2)" cx="1130.9032" cy="160.5493"/>
    </g>
    <g fill="yellow" text-rendering="geometricPrecision" shape-rendering="geometricPrecision" transform="matrix(1,0,0,1,-125,33)" stroke="yellow">
      <rect x="989.9032" y="79.9308" clip-path="url(#clipPath2)" width="101" rx="4" ry="4" height="35.9573" stroke="none"/>
    </g>
    <g text-rendering="geometricPrecision" stroke-miterlimit="1.45" shape-rendering="geometricPrecision" font-family="sans-serif" transform="matrix(1,0,0,1,-125,33)" stroke-linecap="butt">
      <text x="1003.9139" xml:space="preserve" y="102.4446" clip-path="url(#clipPath2)" stroke="none">dcat:Catalog</text>
      <rect x="989.9032" y="79.9308" clip-path="url(#clipPath2)" fill="none" width="101" rx="4" ry="4" height="35.9573"/>
      <text x="1269.9255" xml:space="preserve" y="142.6196" clip-path="url(#clipPath2)" stroke="none">"ALCIDE </text>
      <text x="1269.9255" xml:space="preserve" y="156.7524" clip-path="url(#clipPath2)" stroke="none">(Analysis of Language </text>
      <text x="1269.9255" xml:space="preserve" y="170.8852" clip-path="url(#clipPath2)" stroke="none">and Content In a </text>
      <text x="1269.9255" xml:space="preserve" y="185.018" clip-path="url(#clipPath2)" stroke="none">Digital Environment)"@en</text>
      <text x="1308.4718" xml:space="preserve" y="104.4993" clip-path="url(#clipPath2)" stroke="none">&lt;alcidedigitale.fbk.eu/&gt;</text>
      <text x="746.2672" xml:space="preserve" y="296.5342" clip-path="url(#clipPath2)" stroke="none">"La piattaforma ALCIDE </text>
      <text x="746.2672" xml:space="preserve" y="310.6671" clip-path="url(#clipPath2)" stroke="none">nasce dalla collaborazione..."@it </text>
    </g>
    <g fill="rgb(255,153,204)" text-rendering="geometricPrecision" shape-rendering="geometricPrecision" transform="matrix(1,0,0,1,-125,33)" stroke="rgb(255,153,204)">
      <circle r="10" clip-path="url(#clipPath2)" cx="607.2357" cy="160.5493" stroke="none"/>
    </g>
    <g text-rendering="geometricPrecision" stroke-miterlimit="1.45" shape-rendering="geometricPrecision" font-family="sans-serif" transform="matrix(1,0,0,1,-125,33)" stroke-linecap="butt">
      <text x="547.4603" xml:space="preserve" y="146.018" clip-path="url(#clipPath2)" stroke="none">:dh_fbk</text>
      <circle fill="none" stroke-width="3" r="10" clip-path="url(#clipPath2)" cx="607.2357" cy="160.5493"/>
    </g>
    <g fill="rgb(255,153,204)" text-rendering="geometricPrecision" shape-rendering="geometricPrecision" transform="matrix(1,0,0,1,-125,33)" stroke="rgb(255,153,204)">
      <circle r="10" clip-path="url(#clipPath2)" cx="449.7024" cy="160.5493" stroke="none"/>
    </g>
    <g text-rendering="geometricPrecision" stroke-miterlimit="1.45" shape-rendering="geometricPrecision" font-family="sans-serif" transform="matrix(1,0,0,1,-125,33)" stroke-linecap="butt">
      <text x="350.4114" xml:space="preserve" y="146.018" clip-path="url(#clipPath2)" stroke="none">:alcide_corpus</text>
      <circle fill="none" stroke-width="3" r="10" clip-path="url(#clipPath2)" cx="449.7024" cy="160.5493"/>
    </g>
    <g fill="yellow" text-rendering="geometricPrecision" shape-rendering="geometricPrecision" transform="matrix(1,0,0,1,-125,33)" stroke="yellow">
      <rect x="399.2024" y="56.0335" clip-path="url(#clipPath2)" width="101" rx="4" ry="4" height="32.5279" stroke="none"/>
    </g>
    <g text-rendering="geometricPrecision" stroke-miterlimit="1.45" shape-rendering="geometricPrecision" font-family="sans-serif" transform="matrix(1,0,0,1,-125,33)" stroke-linecap="butt">
      <text x="413.386" xml:space="preserve" y="76.8326" clip-path="url(#clipPath2)" stroke="none">dcat:Dataset</text>
      <rect x="399.2024" y="56.0335" clip-path="url(#clipPath2)" fill="none" width="101" rx="4" ry="4" height="32.5279"/>
    </g>
    <g fill="yellow" text-rendering="geometricPrecision" shape-rendering="geometricPrecision" transform="matrix(1,0,0,1,-125,33)" stroke="yellow">
      <rect x="627.9032" y="56.0335" clip-path="url(#clipPath2)" width="101" rx="4" ry="4" height="37.0386" stroke="none"/>
    </g>
    <g text-rendering="geometricPrecision" stroke-miterlimit="1.45" shape-rendering="geometricPrecision" font-family="sans-serif" transform="matrix(1,0,0,1,-125,33)" stroke-linecap="butt">
      <text x="647.9022" xml:space="preserve" y="79.0879" clip-path="url(#clipPath2)" stroke="none">foaf:Agent</text>
      <rect x="627.9032" y="56.0335" clip-path="url(#clipPath2)" fill="none" width="101" rx="4" ry="4" height="37.0386"/>
      <text x="1046.701" xml:space="preserve" y="0.3324" clip-path="url(#clipPath2)" stroke="none">Controlled Vocabularies URIs</text>
    </g>
    <g fill="rgb(255,153,204)" text-rendering="geometricPrecision" shape-rendering="geometricPrecision" transform="matrix(1,0,0,1,-125,33)" stroke="rgb(255,153,204)">
      <circle r="10" clip-path="url(#clipPath2)" cx="252.7024" cy="160.5493" stroke="none"/>
    </g>
    <g text-rendering="geometricPrecision" stroke-miterlimit="1.45" shape-rendering="geometricPrecision" font-family="sans-serif" transform="matrix(1,0,0,1,-125,33)" stroke-linecap="butt">
      <text x="142.9231" xml:space="preserve" y="146.018" clip-path="url(#clipPath2)" stroke="none">:alcide_platform</text>
      <circle fill="none" stroke-width="3" r="10" clip-path="url(#clipPath2)" cx="252.7024" cy="160.5493"/>
      <text x="1267.951" xml:space="preserve" y="229.779" clip-path="url(#clipPath2)" stroke="none">&lt;publications.europa.eu/resource/authority/language/ITA&gt;</text>
      <text x="1312.4611" xml:space="preserve" y="23.2551" clip-path="url(#clipPath2)" stroke="none">2018/12/31^^xsd:date</text>
    </g>
    <g fill="rgb(255,153,204)" text-rendering="geometricPrecision" shape-rendering="geometricPrecision" transform="matrix(1,0,0,1,-125,33)" stroke="rgb(255,153,204)">
      <circle r="10" clip-path="url(#clipPath2)" cx="889.4032" cy="160.5493" stroke="none"/>
    </g>
    <g text-rendering="geometricPrecision" stroke-miterlimit="1.45" shape-rendering="geometricPrecision" font-family="sans-serif" transform="matrix(1,0,0,1,-125,33)" stroke-linecap="butt">
      <text x="841.4579" xml:space="preserve" y="146.018" clip-path="url(#clipPath2)" stroke="none">:italia</text>
      <circle fill="none" stroke-width="3" r="10" clip-path="url(#clipPath2)" cx="889.4032" cy="160.5493"/>
    </g>
    <g fill="rgb(255,153,204)" text-rendering="geometricPrecision" shape-rendering="geometricPrecision" transform="matrix(1,0,0,1,-125,33)" stroke="rgb(255,153,204)">
      <circle r="10" clip-path="url(#clipPath2)" cx="735.2905" cy="160.5493" stroke="none"/>
    </g>
    <g text-rendering="geometricPrecision" stroke-miterlimit="1.45" shape-rendering="geometricPrecision" font-family="sans-serif" transform="matrix(1,0,0,1,-125,33)" stroke-linecap="butt">
      <text x="694.9565" xml:space="preserve" y="146.018" clip-path="url(#clipPath2)" stroke="none">:isig</text>
      <circle fill="none" stroke-width="3" r="10" clip-path="url(#clipPath2)" cx="735.2905" cy="160.5493"/>
    </g>
    <g fill="yellow" text-rendering="geometricPrecision" shape-rendering="geometricPrecision" transform="matrix(1,0,0,1,-125,33)" stroke="yellow">
      <rect x="196.2024" y="56.0335" clip-path="url(#clipPath2)" width="113" rx="4" ry="4" height="32.5279" stroke="none"/>
    </g>
    <g text-rendering="geometricPrecision" stroke-miterlimit="1.45" shape-rendering="geometricPrecision" font-family="sans-serif" transform="matrix(1,0,0,1,-125,33)" stroke-linecap="butt">
      <text x="204.7463" xml:space="preserve" y="76.8326" clip-path="url(#clipPath2)" stroke="none">dcat:DataService</text>
      <rect x="196.2024" y="56.0335" clip-path="url(#clipPath2)" fill="none" width="113" rx="4" ry="4" height="32.5279"/>
    </g>
    <g fill="yellow" text-rendering="geometricPrecision" shape-rendering="geometricPrecision" transform="matrix(1,0,0,1,-125,33)" stroke="yellow">
      <rect x="849.1532" y="56.0335" clip-path="url(#clipPath2)" width="80.5" rx="4" ry="4" height="32.5279" stroke="none"/>
    </g>
    <g text-rendering="geometricPrecision" stroke-miterlimit="1.45" shape-rendering="geometricPrecision" font-family="sans-serif" transform="matrix(1,0,0,1,-125,33)" stroke-linecap="butt">
      <text x="853.7518" xml:space="preserve" y="76.8326" clip-path="url(#clipPath2)" stroke="none">dct:Location</text>
      <rect x="849.1532" y="56.0335" clip-path="url(#clipPath2)" fill="none" width="80.5" rx="4" ry="4" height="32.5279"/>
      <text x="1278.2076" xml:space="preserve" y="274.5399" clip-path="url(#clipPath2)" stroke="none">Controlled Vocabulary Concepts URIs</text>
      <path fill="none" d="M1090.9214 97.9094 L1124.2365 97.9094 L1124.2365 145.0805" clip-path="url(#clipPath2)"/>
      <path d="M1124.2365 153.0805 L1129.2365 141.0805 L1124.2365 144.0805 L1119.2365 141.0805 Z" clip-path="url(#clipPath2)" stroke="none"/>
      <path fill="none" d="M1144.9032 160.5493 L1248.8655 160.5493" clip-path="url(#clipPath2)" stroke="green"/>
    </g>
    <g stroke-linecap="butt" transform="matrix(1,0,0,1,-125,33)" fill-opacity="0" fill="rgb(0,0,0)" text-rendering="geometricPrecision" shape-rendering="geometricPrecision" stroke="rgb(0,0,0)" stroke-opacity="0" stroke-miterlimit="1.45">
      <path d="M1136.9032 160.5493 C1136.9032 158.3401 1138.6941 156.5493 1140.9032 156.5493 C1143.1123 156.5493 1144.9032 158.3401 1144.9032 160.5493 C1144.9032 162.7584 1143.1123 164.5493 1140.9032 164.5493 C1138.6941 164.5493 1136.9032 162.7584 1136.9032 160.5493 Z" stroke="none" clip-path="url(#clipPath2)"/>
    </g>
    <g stroke-linecap="butt" transform="matrix(1,0,0,1,-125,33)" fill="green" text-rendering="geometricPrecision" shape-rendering="geometricPrecision" stroke="green" stroke-miterlimit="1.45">
      <path fill="none" d="M1136.9032 160.5493 C1136.9032 158.3401 1138.6941 156.5493 1140.9032 156.5493 C1143.1123 156.5493 1144.9032 158.3401 1144.9032 160.5493 C1144.9032 162.7584 1143.1123 164.5493 1140.9032 164.5493 C1138.6941 164.5493 1136.9032 162.7584 1136.9032 160.5493 Z" clip-path="url(#clipPath2)"/>
      <path fill="white" d="M1263.8655 160.5493 L1247.8655 154.5493 L1247.8655 166.5493 Z" clip-path="url(#clipPath2)" stroke="none"/>
      <path fill="none" d="M1263.8655 160.5493 L1247.8655 154.5493 L1247.8655 166.5493 Z" clip-path="url(#clipPath2)"/>
      <rect x="1192.7383" y="151.4829" clip-path="url(#clipPath2)" fill="white" width="48.584" height="18.1328" stroke="none"/>
      <text x="1194.7383" xml:space="preserve" y="165.0844" clip-path="url(#clipPath2)" font-family="sans-serif" stroke="none">dct:title</text>
      <path fill="none" d="M1140.9363 151.2966 L1166.3708 100.7515 L1288.5593 100.7515" clip-path="url(#clipPath2)"/>
    </g>
    <g stroke-linecap="butt" transform="matrix(1,0,0,1,-125,33)" fill-opacity="0" fill="rgb(0,0,0)" text-rendering="geometricPrecision" shape-rendering="geometricPrecision" stroke="rgb(0,0,0)" stroke-opacity="0" stroke-miterlimit="1.45">
      <path d="M1137.3403 158.4429 C1135.3669 157.4499 1134.5721 155.0452 1135.5652 153.0718 C1136.5582 151.0984 1138.9629 150.3036 1140.9363 151.2966 C1142.9097 152.2896 1143.7045 154.6944 1142.7114 156.6677 C1141.7184 158.6411 1139.3137 159.4359 1137.3403 158.4429 Z" stroke="none" clip-path="url(#clipPath2)"/>
    </g>
    <g stroke-linecap="butt" transform="matrix(1,0,0,1,-125,33)" fill="green" text-rendering="geometricPrecision" shape-rendering="geometricPrecision" stroke="green" stroke-miterlimit="1.45">
      <path fill="none" d="M1137.3403 158.4429 C1135.3669 157.4499 1134.5721 155.0452 1135.5652 153.0718 C1136.5582 151.0984 1138.9629 150.3036 1140.9363 151.2966 C1142.9097 152.2896 1143.7045 154.6944 1142.7114 156.6677 C1141.7184 158.6411 1139.3137 159.4359 1137.3403 158.4429 Z" clip-path="url(#clipPath2)"/>
      <path fill="white" d="M1303.5593 100.7515 L1287.5593 94.7515 L1287.5593 106.7515 Z" clip-path="url(#clipPath2)" stroke="none"/>
      <path fill="none" d="M1303.5593 100.7515 L1287.5593 94.7515 L1287.5593 106.7515 Z" clip-path="url(#clipPath2)"/>
      <rect x="1182.1955" y="91.6851" clip-path="url(#clipPath2)" fill="white" width="91.6738" height="18.1328" stroke="none"/>
      <text x="1184.1956" xml:space="preserve" y="105.2867" clip-path="url(#clipPath2)" font-family="sans-serif" stroke="none">foaf:homepage</text>
      <path fill="none" d="M1136.6174 172.768 L1136.6174 267.1704 L842.1089 267.1704 L842.1089 267.6401" clip-path="url(#clipPath2)"/>
    </g>
    <g stroke-linecap="butt" transform="matrix(1,0,0,1,-125,33)" fill-opacity="0" fill="rgb(0,0,0)" text-rendering="geometricPrecision" shape-rendering="geometricPrecision" stroke="rgb(0,0,0)" stroke-opacity="0" stroke-miterlimit="1.45">
      <path d="M1136.6174 164.768 C1138.8265 164.768 1140.6174 166.5589 1140.6174 168.768 C1140.6174 170.9772 1138.8265 172.768 1136.6174 172.768 C1134.4083 172.768 1132.6174 170.9772 1132.6174 168.768 C1132.6174 166.5589 1134.4083 164.768 1136.6174 164.768 Z" stroke="none" clip-path="url(#clipPath2)"/>
    </g>
    <g stroke-linecap="butt" transform="matrix(1,0,0,1,-125,33)" fill="green" text-rendering="geometricPrecision" shape-rendering="geometricPrecision" stroke="green" stroke-miterlimit="1.45">
      <path fill="none" d="M1136.6174 164.768 C1138.8265 164.768 1140.6174 166.5589 1140.6174 168.768 C1140.6174 170.9772 1138.8265 172.768 1136.6174 172.768 C1134.4083 172.768 1132.6174 170.9772 1132.6174 168.768 C1132.6174 166.5589 1134.4083 164.768 1136.6174 164.768 Z" clip-path="url(#clipPath2)"/>
      <path fill="white" d="M842.1089 282.6401 L848.1089 266.6401 L836.1089 266.6401 Z" clip-path="url(#clipPath2)" stroke="none"/>
      <path fill="none" d="M842.1089 282.6401 L848.1089 266.6401 L836.1089 266.6401 Z" clip-path="url(#clipPath2)"/>
      <rect x="883.4852" y="258.104" clip-path="url(#clipPath2)" fill="white" width="91.1934" height="18.1328" stroke="none"/>
      <text x="885.4852" xml:space="preserve" y="271.7055" clip-path="url(#clipPath2)" font-family="sans-serif" stroke="none">dct:description</text>
      <path fill="none" d="M1128.046 174.143 L1128.046 219.1704 L607.2357 219.1704 L607.2357 181.5493" clip-path="url(#clipPath2)" stroke="navy"/>
      <path fill="navy" d="M1128.046 166.143 C1130.2551 166.143 1132.046 167.9339 1132.046 170.143 C1132.046 172.3522 1130.2551 174.143 1128.046 174.143 C1125.8369 174.143 1124.046 172.3522 1124.046 170.143 C1124.046 167.9339 1125.8369 166.143 1128.046 166.143 Z" clip-path="url(#clipPath2)" stroke="none"/>
      <path fill="navy" d="M607.2357 170.5493 L601.2357 182.5493 L613.2357 182.5493 Z" clip-path="url(#clipPath2)" stroke="none"/>
      <rect x="566.9183" y="189.2934" clip-path="url(#clipPath2)" fill="white" width="80.6348" height="32.2656" stroke="none"/>
      <text x="568.9183" y="202.895" clip-path="url(#clipPath2)" fill="navy" font-family="sans-serif" stroke="none" xml:space="preserve">dct:publisher</text>
      <text x="575.6742" y="217.0278" clip-path="url(#clipPath2)" fill="navy" font-family="sans-serif" stroke="none" xml:space="preserve">dct:creator</text>
      <path fill="none" d="M1130.9032 174.5493 L1130.9032 235.1704 L449.7024 235.1704 L449.7024 181.5493" clip-path="url(#clipPath2)" stroke="navy"/>
      <path fill="navy" d="M1130.9032 166.5493 C1133.1123 166.5493 1134.9032 168.3401 1134.9032 170.5493 C1134.9032 172.7584 1133.1123 174.5493 1130.9032 174.5493 C1128.6941 174.5493 1126.9032 172.7584 1126.9032 170.5493 C1126.9032 168.3401 1128.6941 166.5493 1130.9032 166.5493 Z" clip-path="url(#clipPath2)" stroke="none"/>
      <path fill="navy" d="M449.7024 170.5493 L443.7024 182.5493 L455.7024 182.5493 Z" clip-path="url(#clipPath2)" stroke="none"/>
      <rect x="412.1037" y="200.8266" clip-path="url(#clipPath2)" fill="white" width="75.1973" height="18.1328" stroke="none"/>
      <text x="414.1038" y="214.4282" clip-path="url(#clipPath2)" fill="navy" font-family="sans-serif" stroke="none" xml:space="preserve">dcat:dataset</text>
      <path fill="none" d="M449.7024 88.5614 L449.7024 142.5493" clip-path="url(#clipPath2)" stroke="black"/>
      <path fill="black" d="M449.7024 150.5493 L454.7024 138.5493 L449.7024 141.5493 L444.7024 138.5493 Z" clip-path="url(#clipPath2)" stroke="none"/>
      <path fill="none" d="M653.1532 93.0721 L653.1532 108.5721 L607.2357 108.5721 L607.2357 142.5493" clip-path="url(#clipPath2)" stroke="black"/>
      <path fill="black" d="M607.2357 150.5493 L612.2357 138.5493 L607.2357 141.5493 L602.2357 138.5493 Z" clip-path="url(#clipPath2)" stroke="none"/>
      <path fill="none" d="M1130.9032 146.5493 L1130.9032 15.8636" clip-path="url(#clipPath2)" stroke="navy"/>
      <path fill="navy" d="M1130.9032 154.5493 C1128.6941 154.5493 1126.9032 152.7584 1126.9032 150.5493 C1126.9032 148.3401 1128.6941 146.5493 1130.9032 146.5493 C1133.1123 146.5493 1134.9032 148.3401 1134.9032 150.5493 C1134.9032 152.7584 1133.1123 154.5493 1130.9032 154.5493 Z" clip-path="url(#clipPath2)" stroke="none"/>
      <path fill="navy" d="M1130.9032 4.8636 L1124.9032 16.8636 L1136.9032 16.8636 Z" clip-path="url(#clipPath2)" stroke="none"/>
      <rect x="1065.7245" y="27.5042" clip-path="url(#clipPath2)" fill="white" width="130.3574" height="18.1328" stroke="none"/>
      <text x="1067.7245" y="41.1058" clip-path="url(#clipPath2)" fill="navy" font-family="sans-serif" stroke="none" xml:space="preserve">dcat:themeTaxonomy</text>
      <path fill="none" d="M1133.7604 174.143 L1133.7604 251.1704 L252.7024 251.1704 L252.7024 181.5493" clip-path="url(#clipPath2)" stroke="navy"/>
      <path fill="navy" d="M1133.7604 166.143 C1135.9695 166.143 1137.7604 167.9339 1137.7604 170.143 C1137.7604 172.3522 1135.9695 174.143 1133.7604 174.143 C1131.5513 174.143 1129.7604 172.3522 1129.7604 170.143 C1129.7604 167.9339 1131.5513 166.143 1133.7604 166.143 Z" clip-path="url(#clipPath2)" stroke="none"/>
      <path fill="navy" d="M252.7024 170.5493 L246.7024 182.5493 L258.7024 182.5493 Z" clip-path="url(#clipPath2)" stroke="none"/>
      <rect x="216.2844" y="205.6479" clip-path="url(#clipPath2)" fill="white" width="72.8359" height="18.1328" stroke="none"/>
      <text x="218.2844" y="219.2495" clip-path="url(#clipPath2)" fill="navy" font-family="sans-serif" stroke="none" xml:space="preserve">dcat:service</text>
      <path fill="none" d="M1144.0615 164.625 L1163.235 164.625 L1163.235 184.7826 L1245.9276 221.0789" clip-path="url(#clipPath2)" stroke="navy"/>
      <path fill="navy" d="M1136.0615 164.625 C1136.0615 162.4158 1137.8524 160.625 1140.0615 160.625 C1142.2706 160.625 1144.0615 162.4158 1144.0615 164.625 C1144.0615 166.8341 1142.2706 168.625 1140.0615 168.625 C1137.8524 168.625 1136.0615 166.8341 1136.0615 164.625 Z" clip-path="url(#clipPath2)" stroke="none"/>
      <path fill="navy" d="M1256 225.5 L1247.4235 215.1829 L1242.6003 226.171 Z" clip-path="url(#clipPath2)" stroke="none"/>
      <rect x="1163.8142" y="193.3635" clip-path="url(#clipPath2)" fill="white" width="79.252" height="18.1328" stroke="none"/>
      <text x="1165.8142" y="206.9651" clip-path="url(#clipPath2)" fill="navy" font-family="sans-serif" stroke="none" xml:space="preserve">dct:language</text>
      <path fill="none" d="M1137.5698 149.0805 L1137.5698 66.7884 L1380.1056 66.7884 L1380.1056 46.8957" clip-path="url(#clipPath2)"/>
    </g>
    <g stroke-linecap="butt" transform="matrix(1,0,0,1,-125,33)" fill-opacity="0" fill="rgb(0,0,0)" text-rendering="geometricPrecision" shape-rendering="geometricPrecision" stroke="rgb(0,0,0)" stroke-opacity="0" stroke-miterlimit="1.45">
      <path d="M1137.5698 157.0805 C1135.3607 157.0805 1133.5698 155.2897 1133.5698 153.0805 C1133.5698 150.8714 1135.3607 149.0805 1137.5698 149.0805 C1139.7789 149.0805 1141.5698 150.8714 1141.5698 153.0805 C1141.5698 155.2897 1139.7789 157.0805 1137.5698 157.0805 Z" stroke="none" clip-path="url(#clipPath2)"/>
    </g>
    <g stroke-linecap="butt" transform="matrix(1,0,0,1,-125,33)" fill="green" text-rendering="geometricPrecision" shape-rendering="geometricPrecision" stroke="green" stroke-miterlimit="1.45">
      <path fill="none" d="M1137.5698 157.0805 C1135.3607 157.0805 1133.5698 155.2897 1133.5698 153.0805 C1133.5698 150.8714 1135.3607 149.0805 1137.5698 149.0805 C1139.7789 149.0805 1141.5698 150.8714 1141.5698 153.0805 C1141.5698 155.2897 1139.7789 157.0805 1137.5698 157.0805 Z" clip-path="url(#clipPath2)"/>
      <path fill="white" d="M1380.1056 31.8957 L1374.1056 47.8957 L1386.1056 47.8957 Z" clip-path="url(#clipPath2)" stroke="none"/>
      <path fill="none" d="M1380.1056 31.8957 L1374.1056 47.8957 L1386.1056 47.8957 Z" clip-path="url(#clipPath2)"/>
      <rect x="1258.5078" y="57.7219" clip-path="url(#clipPath2)" fill="white" width="63.373" height="18.1328" stroke="none"/>
      <text x="1260.5078" xml:space="preserve" y="71.3235" clip-path="url(#clipPath2)" font-family="sans-serif" stroke="none">dct:issued</text>
      <path fill="none" d="M1122.3318 169.7055 L1122.3318 187.1704 L889.4032 187.1704 L889.4032 181.5493" clip-path="url(#clipPath2)" stroke="navy"/>
      <path fill="navy" d="M1122.3318 161.7055 C1124.5409 161.7055 1126.3318 163.4964 1126.3318 165.7055 C1126.3318 167.9147 1124.5409 169.7055 1122.3318 169.7055 C1120.1227 169.7055 1118.3318 167.9147 1118.3318 165.7055 C1118.3318 163.4964 1120.1227 161.7055 1122.3318 161.7055 Z" clip-path="url(#clipPath2)" stroke="none"/>
      <path fill="navy" d="M889.4032 170.5493 L883.4032 182.5493 L895.4032 182.5493 Z" clip-path="url(#clipPath2)" stroke="none"/>
      <rect x="857.2362" y="173.9487" clip-path="url(#clipPath2)" fill="white" width="64.334" height="18.1328" stroke="none"/>
      <text x="859.2362" y="187.5503" clip-path="url(#clipPath2)" fill="navy" font-family="sans-serif" stroke="none" xml:space="preserve">dct:spatial</text>
      <path fill="none" d="M1125.1888 172.768 L1125.1888 203.1704 L735.2905 203.1704 L735.2905 181.5493" clip-path="url(#clipPath2)" stroke="navy"/>
      <path fill="navy" d="M1125.1888 164.768 C1127.3979 164.768 1129.1888 166.5589 1129.1888 168.768 C1129.1888 170.9772 1127.3979 172.768 1125.1888 172.768 C1122.9797 172.768 1121.1888 170.9772 1121.1888 168.768 C1121.1888 166.5589 1122.9797 164.768 1125.1888 164.768 Z" clip-path="url(#clipPath2)" stroke="none"/>
      <path fill="navy" d="M735.2905 170.5493 L729.2905 182.5493 L741.2905 182.5493 Z" clip-path="url(#clipPath2)" stroke="none"/>
      <rect x="701.729" y="184.8266" clip-path="url(#clipPath2)" fill="white" width="67.123" height="18.1328" stroke="none"/>
      <text x="703.7289" y="198.4282" clip-path="url(#clipPath2)" fill="navy" font-family="sans-serif" stroke="none" xml:space="preserve">dct:creator</text>
      <path fill="none" d="M703.6532 93.0721 L703.6532 108.5721 L735.2905 108.5721 L735.2905 142.5493" clip-path="url(#clipPath2)" stroke="black"/>
      <path fill="black" d="M735.2905 150.5493 L740.2905 138.5493 L735.2905 141.5493 L730.2905 138.5493 Z" clip-path="url(#clipPath2)" stroke="none"/>
      <path fill="none" d="M252.7024 88.5614 L252.7024 142.5493" clip-path="url(#clipPath2)" stroke="black"/>
      <path fill="black" d="M252.7024 150.5493 L257.7024 138.5493 L252.7024 141.5493 L247.7024 138.5493 Z" clip-path="url(#clipPath2)" stroke="none"/>
      <path fill="none" d="M889.4032 88.5614 L889.4032 142.5493" clip-path="url(#clipPath2)" stroke="black"/>
      <path fill="black" d="M889.4032 150.5493 L894.4032 138.5493 L889.4032 141.5493 L884.4032 138.5493 Z" clip-path="url(#clipPath2)" stroke="none"/>
      <path fill="none" d="M1144.043 164.625 L1163.235 164.625 L1163.235 184.7826 L1163.235 267.9501 L1265.7944 267.9501" clip-path="url(#clipPath2)" stroke="navy"/>
      <path fill="navy" d="M1136.043 164.625 C1136.043 162.4158 1137.8339 160.625 1140.043 160.625 C1142.2521 160.625 1144.043 162.4158 1144.043 164.625 C1144.043 166.8341 1142.2521 168.625 1140.043 168.625 C1137.8339 168.625 1136.043 166.8341 1136.043 164.625 Z" clip-path="url(#clipPath2)" stroke="none"/>
      <path fill="navy" d="M1276.7944 267.9501 L1264.7944 261.9501 L1264.7944 273.9501 Z" clip-path="url(#clipPath2)" stroke="none"/>
      <rect x="1180.8916" y="258.8837" clip-path="url(#clipPath2)" fill="white" width="69.1211" height="18.1328" stroke="none"/>
      <text x="1182.8916" y="272.4852" clip-path="url(#clipPath2)" fill="navy" font-family="sans-serif" stroke="none" xml:space="preserve">dcat:theme</text>
    </g>
  </g>
</svg>
