<?xml version="1.0" encoding="UTF-8"?><svg xmlns="http://www.w3.org/2000/svg" xmlns:xlink="http://www.w3.org/1999/xlink" fill-opacity="1" color-rendering="auto" color-interpolation="auto" text-rendering="auto" stroke="black" stroke-linecap="square" width="1330" stroke-miterlimit="10" shape-rendering="auto" stroke-opacity="1" fill="black" stroke-dasharray="none" font-weight="normal" stroke-width="1" height="801" font-family="'Dialog'" font-style="normal" stroke-linejoin="miter" font-size="12px" stroke-dashoffset="0" image-rendering="auto">
  <!--Generated by ySVG 2.6-->
  <defs id="genericDefs"/>
  <g>
    <defs id="defs1">
      <clipPath clipPathUnits="userSpaceOnUse" id="clipPath1">
        <path d="M0 0 L1330 0 L1330 801 L0 801 L0 0 Z"/>
      </clipPath>
      <clipPath clipPathUnits="userSpaceOnUse" id="clipPath2">
        <path d="M-143 -268 L1187 -268 L1187 533 L-143 533 L-143 -268 Z"/>
      </clipPath>
      <clipPath clipPathUnits="userSpaceOnUse" id="clipPath3">
        <path d="M-277.5098 414.1293 L-277.5098 -915.8707 L523.4902 -915.8707 L523.4902 414.1293 L-277.5098 414.1293 Z"/>
      </clipPath>
      <clipPath clipPathUnits="userSpaceOnUse" id="clipPath4">
        <path d="M-523.7729 352.0664 L-523.7729 -977.9336 L277.2271 -977.9336 L277.2271 352.0664 L-523.7729 352.0664 Z"/>
      </clipPath>
      <clipPath clipPathUnits="userSpaceOnUse" id="clipPath5">
        <path d="M-147 -272 L1183 -272 L1183 529 L-147 529 L-147 -272 Z"/>
      </clipPath>
    </defs>
    <g fill="white" text-rendering="geometricPrecision" shape-rendering="geometricPrecision" transform="translate(143,268)" stroke="white">
      <rect x="-143" width="1330" height="801" y="-268" clip-path="url(#clipPath2)" stroke="none"/>
    </g>
    <g fill="yellow" text-rendering="geometricPrecision" shape-rendering="geometricPrecision" transform="matrix(1,0,0,1,143,268)" stroke="yellow">
      <rect x="125" y="175" clip-path="url(#clipPath2)" width="150" rx="4" ry="4" height="50" stroke="none"/>
    </g>
    <g text-rendering="geometricPrecision" stroke-miterlimit="1.45" shape-rendering="geometricPrecision" font-family="sans-serif" transform="matrix(1,0,0,1,143,268)" stroke-linecap="butt">
      <text x="163.6689" xml:space="preserve" y="204.5352" clip-path="url(#clipPath2)" stroke="none">prov:Activity</text>
      <rect x="125" y="175" clip-path="url(#clipPath2)" fill="none" width="150" rx="4" ry="4" height="50"/>
    </g>
    <g fill="yellow" text-rendering="geometricPrecision" shape-rendering="geometricPrecision" transform="matrix(1,0,0,1,143,268)" stroke="yellow">
      <rect x="586" y="175" clip-path="url(#clipPath2)" width="100" rx="4" ry="4" height="50" stroke="none"/>
    </g>
    <g text-rendering="geometricPrecision" stroke-miterlimit="1.45" shape-rendering="geometricPrecision" font-family="sans-serif" transform="matrix(1,0,0,1,143,268)" stroke-linecap="butt">
      <text x="604.7461" xml:space="preserve" y="204.5352" clip-path="url(#clipPath2)" stroke="none">prov:Entity</text>
      <rect x="586" y="175" clip-path="url(#clipPath2)" fill="none" width="100" rx="4" ry="4" height="50"/>
    </g>
    <g fill="rgb(255,153,204)" text-rendering="geometricPrecision" shape-rendering="geometricPrecision" transform="matrix(1,0,0,1,143,268)" stroke="rgb(255,153,204)">
      <circle r="10" clip-path="url(#clipPath2)" cx="340.5237" cy="280.5" stroke="none"/>
    </g>
    <g text-rendering="geometricPrecision" stroke-miterlimit="1.45" shape-rendering="geometricPrecision" font-family="sans-serif" transform="matrix(1,0,0,1,143,268)" stroke-linecap="butt">
      <text x="362.1927" xml:space="preserve" y="277.9688" clip-path="url(#clipPath2)" stroke="none">Research Project</text>
      <text x="356.5237" xml:space="preserve" y="292.1016" clip-path="url(#clipPath2)" stroke="none">(academic activity)</text>
      <circle fill="none" stroke-width="3" r="10" clip-path="url(#clipPath2)" cx="340.5237" cy="280.5"/>
    </g>
    <g fill="yellow" text-rendering="geometricPrecision" shape-rendering="geometricPrecision" transform="matrix(1,0,0,1,143,268)" stroke="yellow">
      <rect x="318.532" y="-27.5" clip-path="url(#clipPath2)" width="100" rx="4" ry="4" height="50" stroke="none"/>
    </g>
    <g text-rendering="geometricPrecision" stroke-miterlimit="1.45" shape-rendering="geometricPrecision" font-family="sans-serif" transform="matrix(1,0,0,1,143,268)" stroke-linecap="butt">
      <text x="336.4197" xml:space="preserve" y="2.0352" clip-path="url(#clipPath2)" stroke="none">prov:Agent</text>
      <rect x="318.532" y="-27.5" clip-path="url(#clipPath2)" fill="none" width="100" rx="4" ry="4" height="50"/>
    </g>
    <g fill="rgb(255,153,204)" text-rendering="geometricPrecision" shape-rendering="geometricPrecision" transform="matrix(1,0,0,1,143,268)" stroke="rgb(255,153,204)">
      <circle r="10" clip-path="url(#clipPath2)" cx="755" cy="200" stroke="none"/>
    </g>
    <g text-rendering="geometricPrecision" stroke-miterlimit="1.45" shape-rendering="geometricPrecision" font-family="sans-serif" transform="matrix(1,0,0,1,143,268)" stroke-linecap="butt">
      <text x="771" xml:space="preserve" y="197.4688" clip-path="url(#clipPath2)" stroke="none">Research output or </text>
      <text x="813.1348" xml:space="preserve" y="211.6016" clip-path="url(#clipPath2)" stroke="none">input</text>
      <circle fill="none" stroke-width="3" r="10" clip-path="url(#clipPath2)" cx="755" cy="200"/>
    </g>
    <g fill="rgb(255,153,204)" text-rendering="geometricPrecision" shape-rendering="geometricPrecision" transform="matrix(1,0,0,1,143,268)" stroke="rgb(255,153,204)">
      <circle r="10" clip-path="url(#clipPath2)" cx="458.532" cy="-2.5" stroke="none"/>
    </g>
    <g text-rendering="geometricPrecision" stroke-miterlimit="1.45" shape-rendering="geometricPrecision" font-family="sans-serif" transform="matrix(1,0,0,1,143,268)" stroke-linecap="butt">
      <text x="496.2117" xml:space="preserve" y="-12.0977" clip-path="url(#clipPath2)" stroke="none">Researchers,</text>
      <text x="474.532" xml:space="preserve" y="2.0352" clip-path="url(#clipPath2)" stroke="none">Departments, Labs, </text>
      <text x="499.3787" xml:space="preserve" y="16.168" clip-path="url(#clipPath2)" stroke="none">Universities</text>
      <circle fill="none" stroke-width="3" r="10" clip-path="url(#clipPath2)" cx="458.532" cy="-2.5"/>
    </g>
    <g fill="rgb(204,255,204)" text-rendering="geometricPrecision" shape-rendering="geometricPrecision" transform="matrix(1,0,0,1,143,268)" stroke="rgb(204,255,204)">
      <path d="M-55.3905 -21.5 L58.095 -21.5 L45.4855 21.5 L-68 21.5 Z" fill-rule="evenodd" clip-path="url(#clipPath2)" stroke="none"/>
    </g>
    <g text-rendering="geometricPrecision" stroke-miterlimit="1.45" shape-rendering="geometricPrecision" font-family="sans-serif" transform="matrix(1,0,0,1,143,268)" stroke-linecap="butt">
      <text x="-36.3705" xml:space="preserve" y="4.5352" clip-path="url(#clipPath2)" stroke="none">rdfs:Literal</text>
      <path fill="none" d="M-55.3905 -21.5 L58.095 -21.5 L45.4855 21.5 L-68 21.5 Z" clip-path="url(#clipPath2)" fill-rule="evenodd"/>
    </g>
    <g fill="yellow" text-rendering="geometricPrecision" shape-rendering="geometricPrecision" transform="matrix(1,0,0,1,143,268)" stroke="yellow">
      <rect x="150" y="380.8211" clip-path="url(#clipPath2)" width="100" rx="4" ry="4" height="50" stroke="none"/>
    </g>
    <g text-rendering="geometricPrecision" stroke-miterlimit="1.45" shape-rendering="geometricPrecision" font-family="sans-serif" transform="matrix(1,0,0,1,143,268)" stroke-linecap="butt">
      <text x="160.4199" xml:space="preserve" y="410.3563" clip-path="url(#clipPath2)" stroke="none">prov:Location</text>
      <rect x="150" y="380.8211" clip-path="url(#clipPath2)" fill="none" width="100" rx="4" ry="4" height="50"/>
    </g>
    <g fill="rgb(255,153,204)" text-rendering="geometricPrecision" shape-rendering="geometricPrecision" transform="matrix(1,0,0,1,143,268)" stroke="rgb(255,153,204)">
      <circle r="10" clip-path="url(#clipPath2)" cx="200" cy="470.8211" stroke="none"/>
    </g>
    <g text-rendering="geometricPrecision" stroke-miterlimit="1.45" shape-rendering="geometricPrecision" font-family="sans-serif" transform="matrix(1,0,0,1,143,268)" stroke-linecap="butt">
      <text x="170.5156" xml:space="preserve" y="498.4227" clip-path="url(#clipPath2)" stroke="none">Geo area, </text>
      <text x="190.3203" xml:space="preserve" y="512.5555" clip-path="url(#clipPath2)" stroke="none">URI</text>
      <circle fill="none" stroke-width="3" r="10" clip-path="url(#clipPath2)" cx="200" cy="470.8211"/>
    </g>
    <g fill="rgb(204,255,204)" text-rendering="geometricPrecision" shape-rendering="geometricPrecision" transform="matrix(1,0,0,1,143,268)" stroke="rgb(204,255,204)">
      <path d="M674.5066 293 L787.9921 293 L775.3826 336 L661.8971 336 Z" fill-rule="evenodd" clip-path="url(#clipPath2)" stroke="none"/>
    </g>
    <g text-rendering="geometricPrecision" stroke-miterlimit="1.45" shape-rendering="geometricPrecision" font-family="sans-serif" transform="matrix(1,0,0,1,143,268)" stroke-linecap="butt">
      <text x="695.4016" xml:space="preserve" y="319.0352" clip-path="url(#clipPath2)" stroke="none">xsd:String</text>
      <path fill="none" d="M674.5066 293 L787.9921 293 L775.3826 336 L661.8971 336 Z" clip-path="url(#clipPath2)" fill-rule="evenodd"/>
    </g>
    <g fill="yellow" text-rendering="geometricPrecision" shape-rendering="geometricPrecision" transform="matrix(1,0,0,1,143,268)" stroke="yellow">
      <rect x="-127" y="175" clip-path="url(#clipPath2)" width="210" rx="4" ry="4" height="50" stroke="none"/>
    </g>
    <g text-rendering="geometricPrecision" stroke-miterlimit="1.45" shape-rendering="geometricPrecision" font-family="sans-serif" transform="matrix(1,0,0,1,143,268)" stroke-linecap="butt">
      <text x="-120.3115" xml:space="preserve" y="204.5352" clip-path="url(#clipPath2)" stroke="none">crmdig:D7_Digital_Machine_Event</text>
      <rect x="-127" y="175" clip-path="url(#clipPath2)" fill="none" width="210" rx="4" ry="4" height="50"/>
    </g>
    <g fill="rgb(255,153,204)" text-rendering="geometricPrecision" shape-rendering="geometricPrecision" transform="matrix(1,0,0,1,143,268)" stroke="rgb(255,153,204)">
      <circle r="10" clip-path="url(#clipPath2)" cx="-22" cy="280.5" stroke="none"/>
    </g>
    <g text-rendering="geometricPrecision" stroke-miterlimit="1.45" shape-rendering="geometricPrecision" font-family="sans-serif" transform="matrix(1,0,0,1,143,268)" stroke-linecap="butt">
      <text x="-5.666" xml:space="preserve" y="277.9688" clip-path="url(#clipPath2)" stroke="none">Research tasks</text>
      <text x="-6" xml:space="preserve" y="292.1016" clip-path="url(#clipPath2)" stroke="none">(sub-activities)</text>
      <circle fill="none" stroke-width="3" r="10" clip-path="url(#clipPath2)" cx="-22" cy="280.5"/>
      <path fill="none" d="M168.3277 170.9766 L168.3277 122 L144 122 L144 163.9975" clip-path="url(#clipPath2)" stroke="navy"/>
      <path fill="navy" d="M168.3277 178.9766 C166.1186 178.9766 164.3277 177.1857 164.3277 174.9766 C164.3277 172.7675 166.1186 170.9766 168.3277 170.9766 C170.5369 170.9766 172.3277 172.7675 172.3277 174.9766 C172.3277 177.1857 170.5369 178.9766 168.3277 178.9766 Z" clip-path="url(#clipPath2)" stroke="none"/>
      <path fill="navy" d="M144 174.9975 L150 162.9975 L138 162.9975 Z" clip-path="url(#clipPath2)" stroke="none"/>
      <path fill="none" d="M279.0269 179.3306 L574.9609 179.3306" clip-path="url(#clipPath2)" stroke="navy"/>
      <path fill="navy" d="M271.0269 179.3306 C271.0269 177.1214 272.8178 175.3306 275.0269 175.3306 C277.2361 175.3306 279.0269 177.1214 279.0269 179.3306 C279.0269 181.5397 277.2361 183.3306 275.0269 183.3306 C272.8178 183.3306 271.0269 181.5397 271.0269 179.3306 Z" clip-path="url(#clipPath2)" stroke="none"/>
      <path fill="navy" d="M585.9609 179.3306 L573.9609 173.3306 L573.9609 185.3306 Z" clip-path="url(#clipPath2)" stroke="none"/>
      <rect x="348.5312" y="170.2642" clip-path="url(#clipPath2)" fill="white" width="163.9375" height="18.1328" stroke="none"/>
      <text fill="navy" x="350.5312" xml:space="preserve" y="183.8657" clip-path="url(#clipPath2)" stroke="none">prov:used / prov:generated</text>
      <path fill="none" d="M279.0173 200 L574.9859 200" clip-path="url(#clipPath2)" stroke="navy"/>
      <path fill="navy" d="M271.0173 200 C271.0173 197.7909 272.8082 196 275.0173 196 C277.2265 196 279.0173 197.7909 279.0173 200 C279.0173 202.2091 277.2265 204 275.0173 204 C272.8082 204 271.0173 202.2091 271.0173 200 Z" clip-path="url(#clipPath2)" stroke="none"/>
      <path fill="navy" d="M585.9859 200 L573.9859 194 L573.9859 206 Z" clip-path="url(#clipPath2)" stroke="none"/>
      <rect x="365.623" y="190.9336" clip-path="url(#clipPath2)" fill="white" width="129.7539" height="18.1328" stroke="none"/>
      <text fill="navy" x="367.623" xml:space="preserve" y="204.5352" clip-path="url(#clipPath2)" stroke="none">prov:wasInfluencedBy</text>
      <path fill="none" d="M673.5786 171.2669 L673.6129 171.173 L674.2076 168.8599 L674.7986 164.9875 L675 161 L674.7986 157.0125 L674.2076 153.1401 L673.2466 149.4026 L671.9352 145.8194 L670.2929 142.4103 L668.3394 139.1947 L666.0943 136.1924 L663.5771 133.4228 L660.8076 130.9057 L657.8053 128.6606 L654.5897 126.7071 L651.1805 125.0648 L647.5974 123.7534 L643.8599 122.7923 L639.9875 122.2014 L636 122 L632.0125 122.2014 L628.1401 122.7923 L624.4026 123.7534 L620.8195 125.0648 L617.4103 126.7071 L614.1947 128.6606 L611.1924 130.9057 L608.4229 133.4228 L605.9057 136.1924 L603.6606 139.1947 L601.7071 142.4103 L600.0648 145.8194 L598.7534 149.4026 L597.7924 153.1401 L597.2014 157.0125 L597 161 L597.1644 164.2554 L597.1879 164.3526" clip-path="url(#clipPath2)" stroke="navy"/>
      <path fill="navy" d="M671.1113 178.8769 C669.0098 178.1956 667.8586 175.9397 668.5399 173.8382 C669.2212 171.7368 671.4771 170.5856 673.5786 171.2669 C675.68 171.9482 676.8312 174.2041 676.1499 176.3055 C675.4686 178.407 673.2127 179.5582 671.1113 178.8769 Z" clip-path="url(#clipPath2)" stroke="none"/>
      <path fill="navy" d="M599.6466 175.0743 L602.8126 162.0368 L591.1162 164.719 Z" clip-path="url(#clipPath2)" stroke="none"/>
      <rect x="570.874" y="134.8711" clip-path="url(#clipPath2)" fill="white" width="130.252" height="18.1328" stroke="none"/>
      <text fill="navy" x="572.874" xml:space="preserve" y="148.4727" clip-path="url(#clipPath2)" stroke="none">prov:wasDerivedFrom</text>
      <path fill="none" d="M574.9922 220.4782 L279.0306 220.4782" clip-path="url(#clipPath2)" stroke="navy"/>
      <path fill="navy" d="M585.9922 220.4782 L573.9922 214.4782 L573.9922 226.4782 Z" clip-path="url(#clipPath2)" stroke="none"/>
      <path fill="navy" d="M271.0306 220.4782 C271.0306 218.2691 272.8215 216.4782 275.0306 216.4782 C277.2397 216.4782 279.0306 218.2691 279.0306 220.4782 C279.0306 222.6873 277.2397 224.4782 275.0306 224.4782 C272.8215 224.4782 271.0306 222.6873 271.0306 220.4782 Z" clip-path="url(#clipPath2)" stroke="none"/>
      <rect x="334.75" y="211.4118" clip-path="url(#clipPath2)" fill="white" width="191.5" height="18.1328" stroke="none"/>
      <text fill="navy" x="336.75" xml:space="preserve" y="225.0134" clip-path="url(#clipPath2)" stroke="none">dct:subject / dct:isReferencedBy</text>
      <path fill="none" d="M266.9007 225.0054 L325.14 271.3962" clip-path="url(#clipPath2)"/>
      <path d="M331.3974 276.3806 L325.1265 264.9931 L324.3578 270.7732 L318.896 272.8149 Z" clip-path="url(#clipPath2)" stroke="none"/>
      <path fill="none" d="M262.0629 170.9821 L262.0629 -2.5 L307.5222 -2.5" clip-path="url(#clipPath2)" stroke="navy"/>
      <path fill="navy" d="M262.0629 178.9821 C259.8538 178.9821 258.0629 177.1913 258.0629 174.9821 C258.0629 172.773 259.8538 170.9821 262.0629 170.9821 C264.2721 170.9821 266.0629 172.773 266.0629 174.9821 C266.0629 177.1913 264.2721 178.9821 262.0629 178.9821 Z" clip-path="url(#clipPath2)" stroke="none"/>
      <path fill="navy" d="M318.5222 -2.5 L306.5222 -8.5 L306.5222 3.5 Z" clip-path="url(#clipPath2)" stroke="none"/>
    </g>
    <g stroke-linecap="butt" transform="matrix(0,1,-1,0,414.1293,277.5098)" fill="white" text-rendering="geometricPrecision" shape-rendering="geometricPrecision" stroke="white" stroke-miterlimit="1.45">
      <rect x="0" width="144.3555" height="18.1328" y="0" clip-path="url(#clipPath3)" stroke="none"/>
      <text x="2" y="13.6016" clip-path="url(#clipPath3)" fill="navy" font-family="sans-serif" stroke="none" xml:space="preserve">prov:wasAssociatedWith</text>
    </g>
    <g stroke-linecap="butt" transform="matrix(1,0,0,1,143,268)" fill="navy" text-rendering="geometricPrecision" shape-rendering="geometricPrecision" stroke="navy" stroke-miterlimit="1.45">
      <path fill="none" d="M402.512 -31.2987 L402.5369 -31.3956 L402.8539 -33.4726 L403.032 -37 L402.8539 -40.5274 L402.3311 -43.953 L401.481 -47.2593 L400.3208 -50.429 L398.868 -53.4448 L397.14 -56.2893 L395.1539 -58.9452 L392.9272 -61.3952 L390.4772 -63.6219 L387.8213 -65.6079 L384.9767 -67.336 L381.961 -68.7888 L378.7913 -69.949 L375.485 -70.7991 L372.0594 -71.3219 L368.532 -71.5 L365.0046 -71.3219 L361.579 -70.7991 L358.2728 -69.9489 L355.1031 -68.7888 L352.0872 -67.336 L349.2427 -65.6079 L346.5868 -63.6219 L344.1368 -61.3952 L341.9101 -58.9452 L339.9241 -56.2893 L338.196 -53.4447 L336.7432 -50.429 L335.5831 -47.2592 L334.7329 -43.9529 L334.2101 -40.5274 L334.1034 -38.4143 L334.1176 -38.3153" clip-path="url(#clipPath2)"/>
      <path d="M400.7921 -23.4858 C398.6346 -23.9607 397.2707 -26.0947 397.7456 -28.2522 C398.2205 -30.4096 400.3545 -31.7736 402.512 -31.2987 C404.6695 -30.8238 406.0335 -28.6898 405.5585 -26.5323 C405.0836 -24.3748 402.9496 -23.0108 400.7921 -23.4858 Z" clip-path="url(#clipPath2)" stroke="none"/>
      <path d="M335.4022 -27.3906 L339.9597 -40.0091 L328.0418 -38.6078 Z" clip-path="url(#clipPath2)" stroke="none"/>
      <rect x="302.8377" y="-63.1289" clip-path="url(#clipPath2)" fill="white" width="131.3887" height="18.1328" stroke="none"/>
      <text x="304.8377" xml:space="preserve" y="-49.5273" clip-path="url(#clipPath2)" font-family="sans-serif" stroke="none">prov:actedOnBehalfOf</text>
      <path fill="none" d="M686.0098 200 L737 200" clip-path="url(#clipPath2)" stroke="black"/>
      <path fill="black" d="M745 200 L733 195 L736 200 L733 205 Z" clip-path="url(#clipPath2)" stroke="none"/>
      <path fill="none" d="M418.5369 -2.5 L440.532 -2.5" clip-path="url(#clipPath2)" stroke="black"/>
      <path fill="black" d="M448.532 -2.5 L436.532 -7.5 L439.532 -2.5 L436.532 2.5 Z" clip-path="url(#clipPath2)" stroke="none"/>
      <path fill="none" d="M219.6208 170.9659 L219.6208 -0.1091 L66.7948 -0.0098" clip-path="url(#clipPath2)" stroke="green"/>
    </g>
    <g stroke-linecap="butt" transform="matrix(1,0,0,1,143,268)" fill-opacity="0" fill="rgb(0,0,0)" text-rendering="geometricPrecision" shape-rendering="geometricPrecision" stroke="rgb(0,0,0)" stroke-opacity="0" stroke-miterlimit="1.45">
      <path d="M219.6208 178.9659 C217.4116 178.9659 215.6208 177.175 215.6208 174.9659 C215.6208 172.7567 217.4116 170.9659 219.6208 170.9659 C221.8299 170.9659 223.6208 172.7567 223.6208 174.9659 C223.6208 177.175 221.8299 178.9659 219.6208 178.9659 Z" stroke="none" clip-path="url(#clipPath2)"/>
    </g>
    <g stroke-linecap="butt" transform="matrix(1,0,0,1,143,268)" fill="green" text-rendering="geometricPrecision" shape-rendering="geometricPrecision" stroke="green" stroke-miterlimit="1.45">
      <path fill="none" d="M219.6208 178.9659 C217.4116 178.9659 215.6208 177.175 215.6208 174.9659 C215.6208 172.7567 217.4116 170.9659 219.6208 170.9659 C221.8299 170.9659 223.6208 172.7567 223.6208 174.9659 C223.6208 177.175 221.8299 178.9659 219.6208 178.9659 Z" clip-path="url(#clipPath2)"/>
      <path fill="white" d="M51.7948 0 L67.7987 5.9896 L67.7909 -6.0104 Z" clip-path="url(#clipPath2)" stroke="none"/>
      <path fill="none" d="M51.7948 0 L67.7987 5.9896 L67.7909 -6.0104 Z" clip-path="url(#clipPath2)"/>
      <rect x="84.7697" y="-9.1259" clip-path="url(#clipPath2)" fill="white" width="117.0625" height="18.1328" stroke="none"/>
      <text x="86.7697" xml:space="preserve" y="4.4757" clip-path="url(#clipPath2)" font-family="sans-serif" stroke="none">dct:title / rdfs:label</text>
      <path fill="none" d="M200 228.999 L200 369.7903" clip-path="url(#clipPath2)" stroke="navy"/>
      <path fill="navy" d="M200 220.999 C202.2091 220.999 204 222.7899 204 224.999 C204 227.2082 202.2091 228.999 200 228.999 C197.7909 228.999 196 227.2082 196 224.999 C196 222.7899 197.7909 220.999 200 220.999 Z" clip-path="url(#clipPath2)" stroke="none"/>
      <path fill="navy" d="M200 380.7903 L206 368.7903 L194 368.7903 Z" clip-path="url(#clipPath2)" stroke="none"/>
    </g>
    <g stroke-linecap="butt" transform="matrix(0,1,-1,0,352.0664,523.7729)" fill="white" text-rendering="geometricPrecision" shape-rendering="geometricPrecision" stroke="white" stroke-miterlimit="1.45">
      <rect x="0" width="94.2754" height="18.1328" y="0" clip-path="url(#clipPath4)" stroke="none"/>
      <text x="2" y="13.6016" clip-path="url(#clipPath4)" fill="navy" font-family="sans-serif" stroke="none" xml:space="preserve">prov:atLocation</text>
    </g>
    <g text-rendering="geometricPrecision" stroke-miterlimit="1.45" shape-rendering="geometricPrecision" transform="matrix(1,0,0,1,143,268)" stroke-linecap="butt">
      <path fill="none" d="M200 430.7992 L200 452.8211" clip-path="url(#clipPath2)"/>
      <path d="M200 460.8211 L205 448.8211 L200 451.8211 L195 448.8211 Z" clip-path="url(#clipPath2)" stroke="none"/>
      <path fill="none" d="M657.8888 228.1778 L699.027 281.1359" clip-path="url(#clipPath2)" stroke="green"/>
    </g>
    <g stroke-linecap="butt" transform="matrix(1,0,0,1,143,268)" fill-opacity="0" fill="rgb(0,0,0)" text-rendering="geometricPrecision" shape-rendering="geometricPrecision" stroke="rgb(0,0,0)" stroke-opacity="0" stroke-miterlimit="1.45">
      <path d="M652.9811 221.86 C654.7257 220.5048 657.2386 220.8204 658.5938 222.5651 C659.949 224.3097 659.6334 226.8226 657.8888 228.1778 C656.1442 229.533 653.6313 229.2174 652.2761 227.4728 C650.9208 225.7282 651.2365 223.2153 652.9811 221.86 Z" stroke="none" clip-path="url(#clipPath2)"/>
    </g>
    <g stroke-linecap="butt" transform="matrix(1,0,0,1,143,268)" fill="green" text-rendering="geometricPrecision" shape-rendering="geometricPrecision" stroke="green" stroke-miterlimit="1.45">
      <path fill="none" d="M652.9811 221.86 C654.7257 220.5048 657.2386 220.8204 658.5938 222.5651 C659.949 224.3097 659.6334 226.8226 657.8888 228.1778 C656.1442 229.533 653.6313 229.2174 652.2761 227.4728 C650.9208 225.7282 651.2365 223.2153 652.9811 221.86 Z" clip-path="url(#clipPath2)"/>
      <path fill="white" d="M708.229 292.9817 L703.1519 276.6654 L693.6752 284.0269 Z" clip-path="url(#clipPath2)" stroke="none"/>
      <path fill="none" d="M708.229 292.9817 L703.1519 276.6654 L693.6752 284.0269 Z" clip-path="url(#clipPath2)"/>
      <rect x="649.6911" y="249.9336" clip-path="url(#clipPath2)" fill="white" width="64.2812" height="18.1328" stroke="none"/>
      <text x="651.6911" xml:space="preserve" y="263.5352" clip-path="url(#clipPath2)" font-family="sans-serif" stroke="none">prov:value</text>
    </g>
    <g stroke-linecap="round" transform="matrix(1,0,0,1,143,268)" stroke-dashoffset="2" fill="navy" text-rendering="geometricPrecision" shape-rendering="geometricPrecision" stroke-dasharray="0,4" stroke="navy" stroke-miterlimit="1.45">
      <path fill="none" d="M169.6454 170.9742 L169.6454 122 L-22 122 L-22 163.9888" clip-path="url(#clipPath2)"/>
      <path d="M169.6454 178.9742 C167.4363 178.9742 165.6454 177.1833 165.6454 174.9742 C165.6454 172.7651 167.4363 170.9742 169.6454 170.9742 C171.8545 170.9742 173.6454 172.7651 173.6454 174.9742 C173.6454 177.1833 171.8545 178.9742 169.6454 178.9742 Z" clip-path="url(#clipPath2)" stroke="none"/>
      <path d="M-22 174.9888 L-16 162.9888 L-28 162.9888 Z" clip-path="url(#clipPath2)" stroke="none"/>
      <rect x="12.8012" y="112.9336" clip-path="url(#clipPath2)" fill="white" width="122.043" height="18.1328" stroke="none"/>
    </g>
    <g stroke-linecap="butt" transform="matrix(1,0,0,1,143,268)" fill="navy" text-rendering="geometricPrecision" font-family="sans-serif" shape-rendering="geometricPrecision" stroke="navy" stroke-miterlimit="1.45">
      <text x="14.8012" xml:space="preserve" y="126.5352" clip-path="url(#clipPath2)" stroke="none">prov:wasInformedBy</text>
      <path fill="none" d="M-22 225.0383 L-22 262.5" clip-path="url(#clipPath2)" stroke="black"/>
      <path fill="black" d="M-22 270.5 L-17 258.5 L-22 261.5 L-27 258.5 Z" clip-path="url(#clipPath2)" stroke="none"/>
    </g>
    <g fill="rgb(210,210,210)" text-rendering="geometricPrecision" shape-rendering="geometricPrecision" transform="matrix(1,0,0,1,143,268) translate(4,4)" stroke="rgb(210,210,210)">
      <rect x="561.4733" width="605.8998" height="151.8294" y="-252.1508" clip-path="url(#clipPath5)" stroke="none"/>
    </g>
    <g fill="white" text-rendering="geometricPrecision" shape-rendering="geometricPrecision" transform="matrix(1,0,0,1,143,268)" stroke="white">
      <rect x="561.4733" width="605.8998" height="151.8294" y="-252.1508" clip-path="url(#clipPath2)" stroke="none"/>
      <rect x="561.4733" y="-252.1508" clip-path="url(#clipPath2)" fill="rgb(183,182,158)" width="605.8998" height="21.666" stroke="none"/>
    </g>
    <g font-size="15px" stroke-linecap="butt" transform="matrix(1,0,0,1,143,268)" text-rendering="geometricPrecision" font-family="sans-serif" shape-rendering="geometricPrecision" font-weight="bold" stroke-miterlimit="1.45">
      <text x="1088.5055" xml:space="preserve" y="-235.6488" clip-path="url(#clipPath2)" stroke="none">Prefixes   </text>
      <rect fill="none" x="561.4733" width="605.8998" height="151.8294" y="-252.1508" clip-path="url(#clipPath2)"/>
      <text x="656.0674" font-size="16px" y="-198.016" clip-path="url(#clipPath2)" stroke="none" font-weight="normal" xml:space="preserve">http://www.w3.org/ns/prov#</text>
      <text x="656.0674" font-size="16px" y="-179.1722" clip-path="url(#clipPath2)" stroke="none" font-weight="normal" xml:space="preserve">http://www.w3.org/2001/XMLSchema#</text>
      <text x="656.0674" font-size="16px" y="-160.3285" clip-path="url(#clipPath2)" stroke="none" font-weight="normal" xml:space="preserve">https://projects.ics.forth.gr/isl/CRMext/CRMdig_v3.2.2.rdfs#</text>
      <text x="656.0674" font-size="16px" y="-141.4847" clip-path="url(#clipPath2)" stroke="none" font-weight="normal" xml:space="preserve">http://www.w3.org/2000/01/rdf-schema#</text>
      <text x="656.0674" font-size="16px" y="-122.641" clip-path="url(#clipPath2)" stroke="none" font-weight="normal" xml:space="preserve">http://purl.org/dc/terms/</text>
      <text x="589.271" xml:space="preserve" font-size="16px" y="-198.016" clip-path="url(#clipPath2)" stroke="none">prov:</text>
      <text x="589.271" xml:space="preserve" font-size="16px" y="-179.1722" clip-path="url(#clipPath2)" stroke="none">xsd:</text>
      <text x="589.271" xml:space="preserve" font-size="16px" y="-160.3285" clip-path="url(#clipPath2)" stroke="none">crmdig:</text>
      <text x="589.271" xml:space="preserve" font-size="16px" y="-141.4847" clip-path="url(#clipPath2)" stroke="none">rdfs:</text>
      <text x="589.271" xml:space="preserve" font-size="16px" y="-122.641" clip-path="url(#clipPath2)" stroke="none">dct:</text>
    </g>
    <g fill="rgb(204,255,204)" text-rendering="geometricPrecision" shape-rendering="geometricPrecision" transform="matrix(1,0,0,1,143,268)" stroke="rgb(204,255,204)">
      <path d="M-72.438 51.5 L41.0475 51.5 L28.438 94.5 L-85.0475 94.5 Z" fill-rule="evenodd" clip-path="url(#clipPath2)" stroke="none"/>
    </g>
    <g text-rendering="geometricPrecision" stroke-miterlimit="1.45" shape-rendering="geometricPrecision" font-family="sans-serif" transform="matrix(1,0,0,1,143,268)" stroke-linecap="butt">
      <text x="-47.0898" xml:space="preserve" y="77.5352" clip-path="url(#clipPath2)" stroke="none">xsd:date</text>
      <path fill="none" d="M-72.438 51.5 L41.0475 51.5 L28.438 94.5 L-85.0475 94.5 Z" clip-path="url(#clipPath2)" fill-rule="evenodd"/>
      <path fill="none" d="M200 170.9783 L200 73 L49.7195 73" clip-path="url(#clipPath2)" stroke="green"/>
    </g>
    <g stroke-linecap="butt" transform="matrix(1,0,0,1,143,268)" fill-opacity="0" fill="rgb(0,0,0)" text-rendering="geometricPrecision" shape-rendering="geometricPrecision" stroke="rgb(0,0,0)" stroke-opacity="0" stroke-miterlimit="1.45">
      <path d="M200 178.9783 C197.7909 178.9783 196 177.1874 196 174.9783 C196 172.7691 197.7909 170.9783 200 170.9783 C202.2091 170.9783 204 172.7691 204 174.9783 C204 177.1874 202.2091 178.9783 200 178.9783 Z" stroke="none" clip-path="url(#clipPath2)"/>
    </g>
    <g stroke-linecap="butt" transform="matrix(1,0,0,1,143,268)" fill="green" text-rendering="geometricPrecision" shape-rendering="geometricPrecision" stroke="green" stroke-miterlimit="1.45">
      <path fill="none" d="M200 178.9783 C197.7909 178.9783 196 177.1874 196 174.9783 C196 172.7691 197.7909 170.9783 200 170.9783 C202.2091 170.9783 204 172.7691 204 174.9783 C204 177.1874 202.2091 178.9783 200 178.9783 Z" clip-path="url(#clipPath2)"/>
      <path fill="white" d="M34.7195 73 L50.7195 79 L50.7195 67 Z" clip-path="url(#clipPath2)" stroke="none"/>
      <path fill="none" d="M34.7195 73 L50.7195 79 L50.7195 67 Z" clip-path="url(#clipPath2)"/>
      <rect x="66.8743" y="56.8672" clip-path="url(#clipPath2)" fill="white" width="116.4238" height="32.2656" stroke="none"/>
      <text x="68.8743" xml:space="preserve" y="70.4688" clip-path="url(#clipPath2)" font-family="sans-serif" stroke="none">prov:startedAtTime</text>
      <text x="71.347" xml:space="preserve" y="84.6016" clip-path="url(#clipPath2)" font-family="sans-serif" stroke="none">prov:endedAtTime</text>
    </g>
  </g>
</svg>
