<?xml version="1.0" encoding="UTF-8"?><svg xmlns="http://www.w3.org/2000/svg" xmlns:xlink="http://www.w3.org/1999/xlink" fill-opacity="1" color-rendering="auto" color-interpolation="auto" text-rendering="auto" stroke="black" stroke-linecap="square" width="1330" stroke-miterlimit="10" shape-rendering="auto" stroke-opacity="1" fill="black" stroke-dasharray="none" font-weight="normal" stroke-width="1" height="849" font-family="'Dialog'" font-style="normal" stroke-linejoin="miter" font-size="12px" stroke-dashoffset="0" image-rendering="auto">
  <!--Generated by ySVG 2.6-->
  <defs id="genericDefs"/>
  <g>
    <defs id="defs1">
      <clipPath clipPathUnits="userSpaceOnUse" id="clipPath1">
        <path d="M0 0 L1330 0 L1330 849 L0 849 L0 0 Z"/>
      </clipPath>
      <clipPath clipPathUnits="userSpaceOnUse" id="clipPath2">
        <path d="M-143 -258 L1187 -258 L1187 591 L-143 591 L-143 -258 Z"/>
      </clipPath>
      <clipPath clipPathUnits="userSpaceOnUse" id="clipPath3">
        <path d="M-240.5098 425.5901 L-240.5098 -904.4099 L608.4902 -904.4099 L608.4902 425.5901 L-240.5098 425.5901 Z"/>
      </clipPath>
      <clipPath clipPathUnits="userSpaceOnUse" id="clipPath4">
        <path d="M-542.7729 352.0664 L-542.7729 -977.9336 L306.2271 -977.9336 L306.2271 352.0664 L-542.7729 352.0664 Z"/>
      </clipPath>
      <clipPath clipPathUnits="userSpaceOnUse" id="clipPath5">
        <path d="M-518.4643 393.3098 L-518.4643 -936.6901 L330.5357 -936.6901 L330.5357 393.3098 L-518.4643 393.3098 Z"/>
      </clipPath>
      <clipPath clipPathUnits="userSpaceOnUse" id="clipPath6">
        <path d="M-553.9809 749.1309 L-553.9809 -580.8691 L295.0191 -580.8691 L295.0191 749.1309 L-553.9809 749.1309 Z"/>
      </clipPath>
      <clipPath clipPathUnits="userSpaceOnUse" id="clipPath7">
        <path d="M-147 -262 L1183 -262 L1183 587 L-147 587 L-147 -262 Z"/>
      </clipPath>
    </defs>
    <g fill="white" text-rendering="geometricPrecision" shape-rendering="geometricPrecision" transform="translate(143,258)" stroke="white">
      <rect x="-143" width="1330" height="849" y="-258" clip-path="url(#clipPath2)" stroke="none"/>
    </g>
    <g fill="yellow" text-rendering="geometricPrecision" shape-rendering="geometricPrecision" transform="matrix(1,0,0,1,143,258)" stroke="yellow">
      <rect x="125" y="175" clip-path="url(#clipPath2)" width="150" rx="4" ry="4" height="50" stroke="none"/>
    </g>
    <g text-rendering="geometricPrecision" stroke-miterlimit="1.45" shape-rendering="geometricPrecision" font-family="sans-serif" transform="matrix(1,0,0,1,143,258)" stroke-linecap="butt">
      <text x="163.6689" xml:space="preserve" y="204.5352" clip-path="url(#clipPath2)" stroke="none">prov:Activity</text>
      <rect x="125" y="175" clip-path="url(#clipPath2)" fill="none" width="150" rx="4" ry="4" height="50"/>
    </g>
    <g fill="yellow" text-rendering="geometricPrecision" shape-rendering="geometricPrecision" transform="matrix(1,0,0,1,143,258)" stroke="yellow">
      <rect x="586" y="175" clip-path="url(#clipPath2)" width="100" rx="4" ry="4" height="50" stroke="none"/>
    </g>
    <g text-rendering="geometricPrecision" stroke-miterlimit="1.45" shape-rendering="geometricPrecision" font-family="sans-serif" transform="matrix(1,0,0,1,143,258)" stroke-linecap="butt">
      <text x="604.7461" xml:space="preserve" y="204.5352" clip-path="url(#clipPath2)" stroke="none">prov:Entity</text>
      <rect x="586" y="175" clip-path="url(#clipPath2)" fill="none" width="100" rx="4" ry="4" height="50"/>
    </g>
    <g fill="rgb(255,153,204)" text-rendering="geometricPrecision" shape-rendering="geometricPrecision" transform="matrix(1,0,0,1,143,258)" stroke="rgb(255,153,204)">
      <circle r="10" clip-path="url(#clipPath2)" cx="340.5237" cy="280.5" stroke="none"/>
    </g>
    <g text-rendering="geometricPrecision" stroke-miterlimit="1.45" shape-rendering="geometricPrecision" font-family="sans-serif" transform="matrix(1,0,0,1,143,258)" stroke-linecap="butt">
      <text x="362.1927" xml:space="preserve" y="277.9688" clip-path="url(#clipPath2)" stroke="none">Research Project</text>
      <text x="356.5237" xml:space="preserve" y="292.1016" clip-path="url(#clipPath2)" stroke="none">(academic activity)</text>
      <circle fill="none" stroke-width="3" r="10" clip-path="url(#clipPath2)" cx="340.5237" cy="280.5"/>
    </g>
    <g fill="yellow" text-rendering="geometricPrecision" shape-rendering="geometricPrecision" transform="matrix(1,0,0,1,143,258)" stroke="yellow">
      <rect x="318.532" y="-81.5" clip-path="url(#clipPath2)" width="100" rx="4" ry="4" height="50" stroke="none"/>
    </g>
    <g text-rendering="geometricPrecision" stroke-miterlimit="1.45" shape-rendering="geometricPrecision" font-family="sans-serif" transform="matrix(1,0,0,1,143,258)" stroke-linecap="butt">
      <text x="336.4197" xml:space="preserve" y="-51.9648" clip-path="url(#clipPath2)" stroke="none">prov:Agent</text>
      <rect x="318.532" y="-81.5" clip-path="url(#clipPath2)" fill="none" width="100" rx="4" ry="4" height="50"/>
    </g>
    <g fill="rgb(255,153,204)" text-rendering="geometricPrecision" shape-rendering="geometricPrecision" transform="matrix(1,0,0,1,143,258)" stroke="rgb(255,153,204)">
      <circle r="10" clip-path="url(#clipPath2)" cx="755" cy="200" stroke="none"/>
    </g>
    <g text-rendering="geometricPrecision" stroke-miterlimit="1.45" shape-rendering="geometricPrecision" font-family="sans-serif" transform="matrix(1,0,0,1,143,258)" stroke-linecap="butt">
      <text x="771" xml:space="preserve" y="197.4688" clip-path="url(#clipPath2)" stroke="none">Research Output or </text>
      <text x="782.9619" xml:space="preserve" y="211.6016" clip-path="url(#clipPath2)" stroke="none">Subject or Input</text>
      <circle fill="none" stroke-width="3" r="10" clip-path="url(#clipPath2)" cx="755" cy="200"/>
    </g>
    <g fill="rgb(255,153,204)" text-rendering="geometricPrecision" shape-rendering="geometricPrecision" transform="matrix(1,0,0,1,143,258)" stroke="rgb(255,153,204)">
      <circle r="10" clip-path="url(#clipPath2)" cx="458.532" cy="-56.5" stroke="none"/>
    </g>
    <g text-rendering="geometricPrecision" stroke-miterlimit="1.45" shape-rendering="geometricPrecision" font-family="sans-serif" transform="matrix(1,0,0,1,143,258)" stroke-linecap="butt">
      <text x="496.2117" xml:space="preserve" y="-66.0977" clip-path="url(#clipPath2)" stroke="none">Researchers,</text>
      <text x="474.532" xml:space="preserve" y="-51.9648" clip-path="url(#clipPath2)" stroke="none">Departments, Labs, </text>
      <text x="499.3787" xml:space="preserve" y="-37.832" clip-path="url(#clipPath2)" stroke="none">Universities</text>
      <circle fill="none" stroke-width="3" r="10" clip-path="url(#clipPath2)" cx="458.532" cy="-56.5"/>
    </g>
    <g fill="rgb(204,255,204)" text-rendering="geometricPrecision" shape-rendering="geometricPrecision" transform="matrix(1,0,0,1,143,258)" stroke="rgb(204,255,204)">
      <path d="M149.562 -65.5 L263.0475 -65.5 L250.438 -22.5 L136.9525 -22.5 Z" fill-rule="evenodd" clip-path="url(#clipPath2)" stroke="none"/>
    </g>
    <g text-rendering="geometricPrecision" stroke-miterlimit="1.45" shape-rendering="geometricPrecision" font-family="sans-serif" transform="matrix(1,0,0,1,143,258)" stroke-linecap="butt">
      <text x="168.582" xml:space="preserve" y="-39.4648" clip-path="url(#clipPath2)" stroke="none">rdfs:Literal</text>
      <path fill="none" d="M149.562 -65.5 L263.0475 -65.5 L250.438 -22.5 L136.9525 -22.5 Z" clip-path="url(#clipPath2)" fill-rule="evenodd"/>
    </g>
    <g fill="yellow" text-rendering="geometricPrecision" shape-rendering="geometricPrecision" transform="matrix(1,0,0,1,143,258)" stroke="yellow">
      <rect x="150" y="438.8211" clip-path="url(#clipPath2)" width="100" rx="4" ry="4" height="50" stroke="none"/>
    </g>
    <g text-rendering="geometricPrecision" stroke-miterlimit="1.45" shape-rendering="geometricPrecision" font-family="sans-serif" transform="matrix(1,0,0,1,143,258)" stroke-linecap="butt">
      <text x="160.4199" xml:space="preserve" y="468.3563" clip-path="url(#clipPath2)" stroke="none">prov:Location</text>
      <rect x="150" y="438.8211" clip-path="url(#clipPath2)" fill="none" width="100" rx="4" ry="4" height="50"/>
    </g>
    <g fill="rgb(255,153,204)" text-rendering="geometricPrecision" shape-rendering="geometricPrecision" transform="matrix(1,0,0,1,143,258)" stroke="rgb(255,153,204)">
      <circle r="10" clip-path="url(#clipPath2)" cx="200" cy="528.8211" stroke="none"/>
    </g>
    <g text-rendering="geometricPrecision" stroke-miterlimit="1.45" shape-rendering="geometricPrecision" font-family="sans-serif" transform="matrix(1,0,0,1,143,258)" stroke-linecap="butt">
      <text x="170.5156" xml:space="preserve" y="556.4227" clip-path="url(#clipPath2)" stroke="none">Geo area, </text>
      <text x="190.3203" xml:space="preserve" y="570.5555" clip-path="url(#clipPath2)" stroke="none">URI</text>
      <circle fill="none" stroke-width="3" r="10" clip-path="url(#clipPath2)" cx="200" cy="528.8211"/>
    </g>
    <g fill="rgb(204,255,204)" text-rendering="geometricPrecision" shape-rendering="geometricPrecision" transform="matrix(1,0,0,1,143,258)" stroke="rgb(204,255,204)">
      <path d="M668.5066 284 L781.9921 284 L769.3826 327 L655.8971 327 Z" fill-rule="evenodd" clip-path="url(#clipPath2)" stroke="none"/>
    </g>
    <g text-rendering="geometricPrecision" stroke-miterlimit="1.45" shape-rendering="geometricPrecision" font-family="sans-serif" transform="matrix(1,0,0,1,143,258)" stroke-linecap="butt">
      <text x="689.4016" xml:space="preserve" y="310.0352" clip-path="url(#clipPath2)" stroke="none">xsd:String</text>
      <path fill="none" d="M668.5066 284 L781.9921 284 L769.3826 327 L655.8971 327 Z" clip-path="url(#clipPath2)" fill-rule="evenodd"/>
    </g>
    <g fill="yellow" text-rendering="geometricPrecision" shape-rendering="geometricPrecision" transform="matrix(1,0,0,1,143,258)" stroke="yellow">
      <rect x="318.532" y="29" clip-path="url(#clipPath2)" width="150" rx="4" ry="4" height="50" stroke="none"/>
    </g>
    <g text-rendering="geometricPrecision" stroke-miterlimit="1.45" shape-rendering="geometricPrecision" font-family="sans-serif" transform="matrix(1,0,0,1,143,258)" stroke-linecap="butt">
      <text x="348.7781" xml:space="preserve" y="58.5352" clip-path="url(#clipPath2)" stroke="none">prov:Derivation</text>
      <rect x="318.532" y="29" clip-path="url(#clipPath2)" fill="none" width="150" rx="4" ry="4" height="50"/>
    </g>
    <g fill="rgb(255,153,204)" text-rendering="geometricPrecision" shape-rendering="geometricPrecision" transform="matrix(1,0,0,1,143,258)" stroke="rgb(255,153,204)">
      <circle r="10" clip-path="url(#clipPath2)" cx="393.532" cy="119" stroke="none"/>
    </g>
    <g text-rendering="geometricPrecision" stroke-miterlimit="1.45" shape-rendering="geometricPrecision" font-family="sans-serif" transform="matrix(1,0,0,1,143,258)" stroke-linecap="butt">
      <text x="313.6541" xml:space="preserve" y="146.6016" clip-path="url(#clipPath2)" stroke="none">External influence on entity</text>
      <text x="321.8865" xml:space="preserve" y="160.7344" clip-path="url(#clipPath2)" stroke="none">e.g. lit source for corpus</text>
      <circle fill="none" stroke-width="3" r="10" clip-path="url(#clipPath2)" cx="393.532" cy="119"/>
    </g>
    <g fill="yellow" text-rendering="geometricPrecision" shape-rendering="geometricPrecision" transform="matrix(1,0,0,1,143,258)" stroke="yellow">
      <rect x="343.532" y="399.5262" clip-path="url(#clipPath2)" width="100" rx="4" ry="4" height="50" stroke="none"/>
    </g>
    <g text-rendering="geometricPrecision" stroke-miterlimit="1.45" shape-rendering="geometricPrecision" font-family="sans-serif" transform="matrix(1,0,0,1,143,258)" stroke-linecap="butt">
      <text x="352.0125" xml:space="preserve" y="429.0613" clip-path="url(#clipPath2)" stroke="none">prov:Influence</text>
      <rect x="343.532" y="399.5262" clip-path="url(#clipPath2)" fill="none" width="100" rx="4" ry="4" height="50"/>
    </g>
    <g fill="rgb(255,153,204)" text-rendering="geometricPrecision" shape-rendering="geometricPrecision" transform="matrix(1,0,0,1,143,258)" stroke="rgb(255,153,204)">
      <circle r="10" clip-path="url(#clipPath2)" cx="393.532" cy="489.5262" stroke="none"/>
    </g>
    <g text-rendering="geometricPrecision" stroke-miterlimit="1.45" shape-rendering="geometricPrecision" font-family="sans-serif" transform="matrix(1,0,0,1,143,258)" stroke-linecap="butt">
      <text x="409.532" xml:space="preserve" y="486.9949" clip-path="url(#clipPath2)" stroke="none">External influence on activity</text>
      <text x="425.2937" xml:space="preserve" y="501.1277" clip-path="url(#clipPath2)" stroke="none">e.g. subject of research</text>
      <circle fill="none" stroke-width="3" r="10" clip-path="url(#clipPath2)" cx="393.532" cy="489.5262"/>
    </g>
    <g fill="yellow" text-rendering="geometricPrecision" shape-rendering="geometricPrecision" transform="matrix(1,0,0,1,143,258)" stroke="yellow">
      <rect x="-127" y="175" clip-path="url(#clipPath2)" width="210" rx="4" ry="4" height="50" stroke="none"/>
    </g>
    <g text-rendering="geometricPrecision" stroke-miterlimit="1.45" shape-rendering="geometricPrecision" font-family="sans-serif" transform="matrix(1,0,0,1,143,258)" stroke-linecap="butt">
      <text x="-120.3115" xml:space="preserve" y="204.5352" clip-path="url(#clipPath2)" stroke="none">crmdig:D7_Digital_Machine_Event</text>
      <rect x="-127" y="175" clip-path="url(#clipPath2)" fill="none" width="210" rx="4" ry="4" height="50"/>
    </g>
    <g fill="rgb(255,153,204)" text-rendering="geometricPrecision" shape-rendering="geometricPrecision" transform="matrix(1,0,0,1,143,258)" stroke="rgb(255,153,204)">
      <circle r="10" clip-path="url(#clipPath2)" cx="-22" cy="280.5" stroke="none"/>
    </g>
    <g text-rendering="geometricPrecision" stroke-miterlimit="1.45" shape-rendering="geometricPrecision" font-family="sans-serif" transform="matrix(1,0,0,1,143,258)" stroke-linecap="butt">
      <text x="-5.666" xml:space="preserve" y="277.9688" clip-path="url(#clipPath2)" stroke="none">Research tasks</text>
      <text x="-6" xml:space="preserve" y="292.1016" clip-path="url(#clipPath2)" stroke="none">(sub-activities)</text>
      <circle fill="none" stroke-width="3" r="10" clip-path="url(#clipPath2)" cx="-22" cy="280.5"/>
      <path fill="none" d="M279.0269 179.3306 L574.9609 179.3306" clip-path="url(#clipPath2)" stroke="navy"/>
      <path fill="navy" d="M271.0269 179.3306 C271.0269 177.1214 272.8178 175.3306 275.0269 175.3306 C277.2361 175.3306 279.0269 177.1214 279.0269 179.3306 C279.0269 181.5397 277.2361 183.3306 275.0269 183.3306 C272.8178 183.3306 271.0269 181.5397 271.0269 179.3306 Z" clip-path="url(#clipPath2)" stroke="none"/>
      <path fill="navy" d="M585.9609 179.3306 L573.9609 173.3306 L573.9609 185.3306 Z" clip-path="url(#clipPath2)" stroke="none"/>
      <rect x="399.6777" y="170.2642" clip-path="url(#clipPath2)" fill="white" width="61.6445" height="18.1328" stroke="none"/>
      <text fill="navy" x="401.6777" xml:space="preserve" y="183.8657" clip-path="url(#clipPath2)" stroke="none">prov:used</text>
      <path fill="none" d="M279.0173 200 L574.9859 200" clip-path="url(#clipPath2)" stroke="navy"/>
      <path fill="navy" d="M271.0173 200 C271.0173 197.7909 272.8082 196 275.0173 196 C277.2265 196 279.0173 197.7909 279.0173 200 C279.0173 202.2091 277.2265 204 275.0173 204 C272.8082 204 271.0173 202.2091 271.0173 200 Z" clip-path="url(#clipPath2)" stroke="none"/>
      <path fill="navy" d="M585.9859 200 L573.9859 194 L573.9859 206 Z" clip-path="url(#clipPath2)" stroke="none"/>
      <rect x="365.623" y="190.9336" clip-path="url(#clipPath2)" fill="white" width="129.7539" height="18.1328" stroke="none"/>
      <text fill="navy" x="367.623" xml:space="preserve" y="204.5352" clip-path="url(#clipPath2)" stroke="none">prov:wasInfluencedBy</text>
      <path fill="none" d="M673.5786 171.2669 L673.6129 171.173 L674.2076 168.8599 L674.7986 164.9875 L675 161 L674.7986 157.0125 L674.2076 153.1401 L673.2466 149.4026 L671.9352 145.8194 L670.2929 142.4103 L668.3394 139.1947 L666.0943 136.1924 L663.5771 133.4228 L660.8076 130.9057 L657.8053 128.6606 L654.5897 126.7071 L651.1805 125.0648 L647.5974 123.7534 L643.8599 122.7923 L639.9875 122.2014 L636 122 L632.0125 122.2014 L628.1401 122.7923 L624.4026 123.7534 L620.8195 125.0648 L617.4103 126.7071 L614.1947 128.6606 L611.1924 130.9057 L608.4229 133.4228 L605.9057 136.1924 L603.6606 139.1947 L601.7071 142.4103 L600.0648 145.8194 L598.7534 149.4026 L597.7924 153.1401 L597.2014 157.0125 L597 161 L597.1644 164.2554 L597.1879 164.3526" clip-path="url(#clipPath2)" stroke="navy"/>
      <path fill="navy" d="M671.1113 178.8769 C669.0098 178.1956 667.8586 175.9397 668.5399 173.8382 C669.2212 171.7368 671.4771 170.5856 673.5786 171.2669 C675.68 171.9482 676.8312 174.2041 676.1499 176.3055 C675.4686 178.407 673.2127 179.5582 671.1113 178.8769 Z" clip-path="url(#clipPath2)" stroke="none"/>
      <path fill="navy" d="M599.6466 175.0743 L602.8126 162.0368 L591.1162 164.719 Z" clip-path="url(#clipPath2)" stroke="none"/>
      <rect x="570.874" y="134.8711" clip-path="url(#clipPath2)" fill="white" width="130.252" height="18.1328" stroke="none"/>
      <text fill="navy" x="572.874" xml:space="preserve" y="148.4727" clip-path="url(#clipPath2)" stroke="none">prov:wasDerivedFrom</text>
      <path fill="none" d="M574.9922 220.4782 L279.0306 220.4782" clip-path="url(#clipPath2)" stroke="navy"/>
      <path fill="navy" d="M585.9922 220.4782 L573.9922 214.4782 L573.9922 226.4782 Z" clip-path="url(#clipPath2)" stroke="none"/>
      <path fill="navy" d="M271.0306 220.4782 C271.0306 218.2691 272.8215 216.4782 275.0306 216.4782 C277.2397 216.4782 279.0306 218.2691 279.0306 220.4782 C279.0306 222.6873 277.2397 224.4782 275.0306 224.4782 C272.8215 224.4782 271.0306 222.6873 271.0306 220.4782 Z" clip-path="url(#clipPath2)" stroke="none"/>
      <rect x="384.2969" y="211.4118" clip-path="url(#clipPath2)" fill="white" width="92.4062" height="18.1328" stroke="none"/>
      <text fill="navy" x="386.2969" xml:space="preserve" y="225.0134" clip-path="url(#clipPath2)" stroke="none">prov:generated</text>
      <path fill="none" d="M266.9007 225.0054 L325.14 271.3962" clip-path="url(#clipPath2)"/>
      <path d="M331.3974 276.3806 L325.1265 264.9931 L324.3578 270.7732 L318.896 272.8149 Z" clip-path="url(#clipPath2)" stroke="none"/>
      <path fill="none" d="M273.5237 171.8701 L273.5237 -56.5 L307.5222 -56.5" clip-path="url(#clipPath2)" stroke="navy"/>
      <path fill="navy" d="M273.5237 179.8701 C271.3146 179.8701 269.5237 178.0792 269.5237 175.8701 C269.5237 173.6609 271.3146 171.8701 273.5237 171.8701 C275.7329 171.8701 277.5237 173.6609 277.5237 175.8701 C277.5237 178.0792 275.7329 179.8701 273.5237 179.8701 Z" clip-path="url(#clipPath2)" stroke="none"/>
      <path fill="navy" d="M318.5222 -56.5 L306.5222 -62.5 L306.5222 -50.5 Z" clip-path="url(#clipPath2)" stroke="none"/>
    </g>
    <g stroke-linecap="butt" transform="matrix(0,1,-1,0,425.5901,240.5098)" fill="white" text-rendering="geometricPrecision" shape-rendering="geometricPrecision" stroke="white" stroke-miterlimit="1.45">
      <rect x="0" width="144.3555" height="18.1328" y="0" clip-path="url(#clipPath3)" stroke="none"/>
      <text x="2" y="13.6016" clip-path="url(#clipPath3)" fill="navy" font-family="sans-serif" stroke="none" xml:space="preserve">prov:wasAssociatedWith</text>
    </g>
    <g stroke-linecap="butt" transform="matrix(1,0,0,1,143,258)" fill="navy" text-rendering="geometricPrecision" shape-rendering="geometricPrecision" stroke="navy" stroke-miterlimit="1.45">
      <path fill="none" d="M398.4667 -85.4059 L398.4818 -85.5048 L398.532 -86.5 L398.3771 -89.5673 L397.9225 -92.5461 L396.1745 -98.1774 L393.4085 -103.2733 L389.7452 -107.7132 L385.3053 -111.3765 L380.2094 -114.1425 L374.5781 -115.8905 L371.5993 -116.3451 L368.532 -116.5 L365.4647 -116.3451 L362.486 -115.8905 L356.8546 -114.1424 L351.7587 -111.3765 L347.3188 -107.7132 L343.6555 -103.2733 L340.8896 -98.1774 L339.1415 -92.546 L339.138 -92.5233 L339.1417 -92.4233" clip-path="url(#clipPath2)"/>
      <path d="M397.6857 -77.4442 C395.4871 -77.6598 393.8796 -79.617 394.0953 -81.8156 C394.3109 -84.0142 396.2681 -85.6216 398.4667 -85.4059 C400.6653 -85.1903 402.2727 -83.2331 402.0571 -81.0345 C401.8414 -78.836 399.8842 -77.2285 397.6857 -77.4442 Z" clip-path="url(#clipPath2)" stroke="none"/>
      <path d="M338.9766 -81.4246 L345.156 -93.3332 L333.1573 -93.5132 Z" clip-path="url(#clipPath2)" stroke="none"/>
      <rect x="302.8377" y="-112.6289" clip-path="url(#clipPath2)" fill="white" width="131.3887" height="18.1328" stroke="none"/>
      <text x="304.8377" xml:space="preserve" y="-99.0273" clip-path="url(#clipPath2)" font-family="sans-serif" stroke="none">prov:actedOnBehalfOf</text>
      <path fill="none" d="M686.0098 200 L737 200" clip-path="url(#clipPath2)" stroke="black"/>
      <path fill="black" d="M745 200 L733 195 L736 200 L733 205 Z" clip-path="url(#clipPath2)" stroke="none"/>
      <path fill="none" d="M418.5369 -56.5 L440.532 -56.5" clip-path="url(#clipPath2)" stroke="black"/>
      <path fill="black" d="M448.532 -56.5 L436.532 -61.5 L439.532 -56.5 L436.532 -51.5 Z" clip-path="url(#clipPath2)" stroke="none"/>
      <path fill="none" d="M200 170.9664 L200 -7.5" clip-path="url(#clipPath2)" stroke="green"/>
    </g>
    <g stroke-linecap="butt" transform="matrix(1,0,0,1,143,258)" fill-opacity="0" fill="rgb(0,0,0)" text-rendering="geometricPrecision" shape-rendering="geometricPrecision" stroke="rgb(0,0,0)" stroke-opacity="0" stroke-miterlimit="1.45">
      <path d="M200 178.9664 C197.7909 178.9664 196 177.1756 196 174.9664 C196 172.7573 197.7909 170.9664 200 170.9664 C202.2091 170.9664 204 172.7573 204 174.9664 C204 177.1756 202.2091 178.9664 200 178.9664 Z" stroke="none" clip-path="url(#clipPath2)"/>
    </g>
    <g stroke-linecap="butt" transform="matrix(1,0,0,1,143,258)" fill="green" text-rendering="geometricPrecision" shape-rendering="geometricPrecision" stroke="green" stroke-miterlimit="1.45">
      <path fill="none" d="M200 178.9664 C197.7909 178.9664 196 177.1756 196 174.9664 C196 172.7573 197.7909 170.9664 200 170.9664 C202.2091 170.9664 204 172.7573 204 174.9664 C204 177.1756 202.2091 178.9664 200 178.9664 Z" clip-path="url(#clipPath2)"/>
      <path fill="white" d="M200 -22.5 L194 -6.5 L206 -6.5 Z" clip-path="url(#clipPath2)" stroke="none"/>
      <path fill="none" d="M200 -22.5 L194 -6.5 L206 -6.5 Z" clip-path="url(#clipPath2)"/>
      <rect x="141.7881" y="60.1172" clip-path="url(#clipPath2)" fill="white" width="116.4238" height="32.2656" stroke="none"/>
      <text x="143.7881" xml:space="preserve" y="73.7188" clip-path="url(#clipPath2)" font-family="sans-serif" stroke="none">prov:startedAtTime</text>
      <text x="146.2607" xml:space="preserve" y="87.8516" clip-path="url(#clipPath2)" font-family="sans-serif" stroke="none">prov:endedAtTime</text>
      <path fill="none" d="M200 229.0231 L200 427.8394" clip-path="url(#clipPath2)" stroke="navy"/>
      <path fill="navy" d="M200 221.0231 C202.2091 221.0231 204 222.8139 204 225.0231 C204 227.2322 202.2091 229.0231 200 229.0231 C197.7909 229.0231 196 227.2322 196 225.0231 C196 222.8139 197.7909 221.0231 200 221.0231 Z" clip-path="url(#clipPath2)" stroke="none"/>
      <path fill="navy" d="M200 438.8394 L206 426.8394 L194 426.8394 Z" clip-path="url(#clipPath2)" stroke="none"/>
    </g>
    <g stroke-linecap="butt" transform="matrix(0,1,-1,0,352.0664,542.7729)" fill="white" text-rendering="geometricPrecision" shape-rendering="geometricPrecision" stroke="white" stroke-miterlimit="1.45">
      <rect x="0" width="94.2754" height="18.1328" y="0" clip-path="url(#clipPath4)" stroke="none"/>
      <text x="2" y="13.6016" clip-path="url(#clipPath4)" fill="navy" font-family="sans-serif" stroke="none" xml:space="preserve">prov:atLocation</text>
    </g>
    <g text-rendering="geometricPrecision" stroke-miterlimit="1.45" shape-rendering="geometricPrecision" transform="matrix(1,0,0,1,143,258)" stroke-linecap="butt">
      <path fill="none" d="M200 488.7992 L200 510.8211" clip-path="url(#clipPath2)"/>
      <path d="M200 518.8212 L205 506.8212 L200 509.8212 L195 506.8212 Z" clip-path="url(#clipPath2)" stroke="none"/>
      <path fill="none" d="M658.1351 228.1544 L692.7718 272.2099" clip-path="url(#clipPath2)" stroke="green"/>
    </g>
    <g stroke-linecap="butt" transform="matrix(1,0,0,1,143,258)" fill-opacity="0" fill="rgb(0,0,0)" text-rendering="geometricPrecision" shape-rendering="geometricPrecision" stroke="rgb(0,0,0)" stroke-opacity="0" stroke-miterlimit="1.45">
      <path d="M653.1907 221.8654 C654.9274 220.5 657.4421 220.801 658.8074 222.5377 C660.1728 224.2743 659.8718 226.789 658.1351 228.1544 C656.3984 229.5198 653.8837 229.2188 652.5184 227.4821 C651.153 225.7454 651.454 223.2307 653.1907 221.8654 Z" stroke="none" clip-path="url(#clipPath2)"/>
    </g>
    <g stroke-linecap="butt" transform="matrix(1,0,0,1,143,258)" fill="green" text-rendering="geometricPrecision" shape-rendering="geometricPrecision" stroke="green" stroke-miterlimit="1.45">
      <path fill="none" d="M653.1907 221.8654 C654.9274 220.5 657.4421 220.801 658.8074 222.5377 C660.1728 224.2743 659.8718 226.789 658.1351 228.1544 C656.3984 229.5198 653.8837 229.2188 652.5184 227.4821 C651.153 225.7454 651.454 223.2307 653.1907 221.8654 Z" clip-path="url(#clipPath2)"/>
      <path fill="white" d="M702.0427 284.0019 L696.8705 267.7155 L687.437 275.1321 Z" clip-path="url(#clipPath2)" stroke="none"/>
      <path fill="none" d="M702.0427 284.0019 L696.8705 267.7155 L687.437 275.1321 Z" clip-path="url(#clipPath2)"/>
      <rect x="646.7075" y="245.4336" clip-path="url(#clipPath2)" fill="white" width="64.2812" height="18.1328" stroke="none"/>
      <text x="648.7075" xml:space="preserve" y="259.0352" clip-path="url(#clipPath2)" font-family="sans-serif" stroke="none">prov:value</text>
      <path fill="none" d="M697.0062 188.2117 L705.5 188.2117 L705.5 54 L479.512 54" clip-path="url(#clipPath2)" stroke="navy"/>
      <path fill="navy" d="M686.0062 188.2117 L698.0062 194.2117 L698.0062 182.2117 Z" clip-path="url(#clipPath2)" stroke="none"/>
      <path fill="navy" d="M468.512 54 L480.512 60 L480.512 48 Z" clip-path="url(#clipPath2)" stroke="none"/>
      <rect x="514.4379" y="37.8672" clip-path="url(#clipPath2)" fill="white" width="154.2812" height="32.2656" stroke="none"/>
      <text x="516.4379" y="51.4688" clip-path="url(#clipPath2)" fill="navy" font-family="sans-serif" stroke="none" xml:space="preserve">prov:qualifiedDerivation /</text>
      <text x="560.2338" y="65.6016" clip-path="url(#clipPath2)" fill="navy" font-family="sans-serif" stroke="none" xml:space="preserve">prov:entity</text>
      <path fill="none" d="M393.532 79.0244 L393.532 101" clip-path="url(#clipPath2)" stroke="black"/>
      <path fill="black" d="M393.532 109 L398.532 97 L393.532 100 L388.532 97 Z" clip-path="url(#clipPath2)" stroke="none"/>
      <path fill="none" d="M241.2435 229.0253 L241.2435 424.5262 L332.5222 424.5262" clip-path="url(#clipPath2)" stroke="navy"/>
      <path fill="navy" d="M241.2435 221.0253 C243.4526 221.0253 245.2435 222.8161 245.2435 225.0253 C245.2435 227.2344 243.4526 229.0253 241.2435 229.0253 C239.0343 229.0253 237.2435 227.2344 237.2435 225.0253 C237.2435 222.8161 239.0343 221.0253 241.2435 221.0253 Z" clip-path="url(#clipPath2)" stroke="none"/>
      <path fill="navy" d="M343.5222 424.5262 L331.5222 418.5262 L331.5222 430.5262 Z" clip-path="url(#clipPath2)" stroke="none"/>
    </g>
    <g stroke-linecap="butt" transform="matrix(0,1,-1,0,393.3099,518.4643)" fill="white" text-rendering="geometricPrecision" shape-rendering="geometricPrecision" stroke="white" stroke-miterlimit="1.45">
      <rect x="0" width="137.7227" height="18.1328" y="0" clip-path="url(#clipPath5)" stroke="none"/>
      <text x="2" y="13.6016" clip-path="url(#clipPath5)" fill="navy" font-family="sans-serif" stroke="none" xml:space="preserve">prov:qualifiedInfluence</text>
    </g>
    <g stroke-linecap="butt" transform="matrix(1,0,0,1,143,258)" fill="navy" text-rendering="geometricPrecision" shape-rendering="geometricPrecision" stroke="navy" stroke-miterlimit="1.45">
      <path fill="none" d="M447.5391 424.5262 L597.0645 424.5262 L597.0645 244.9612" clip-path="url(#clipPath2)"/>
      <path d="M439.5391 424.5262 C439.5391 422.317 441.3299 420.5262 443.5391 420.5262 C445.7482 420.5262 447.5391 422.317 447.5391 424.5262 C447.5391 426.7353 445.7482 428.5262 443.5391 428.5262 C441.3299 428.5262 439.5391 426.7353 439.5391 424.5262 Z" clip-path="url(#clipPath2)" stroke="none"/>
      <path d="M597.0645 233.9612 L591.0645 245.9612 L603.0645 245.9612 Z" clip-path="url(#clipPath2)" stroke="none"/>
    </g>
    <g stroke-linecap="butt" transform="matrix(0,1,-1,0,749.1308,553.9809)" fill="white" text-rendering="geometricPrecision" shape-rendering="geometricPrecision" stroke="white" stroke-miterlimit="1.45">
      <rect x="0" width="66.6895" height="18.1328" y="0" clip-path="url(#clipPath6)" stroke="none"/>
      <text x="2" y="13.6016" clip-path="url(#clipPath6)" fill="navy" font-family="sans-serif" stroke="none" xml:space="preserve">prov:entity</text>
    </g>
    <g text-rendering="geometricPrecision" stroke-miterlimit="1.45" shape-rendering="geometricPrecision" transform="matrix(1,0,0,1,143,258)" stroke-linecap="butt">
      <path fill="none" d="M393.532 449.5042 L393.532 471.5262" clip-path="url(#clipPath2)"/>
      <path d="M393.532 479.5262 L398.532 467.5262 L393.532 470.5262 L388.532 467.5262 Z" clip-path="url(#clipPath2)" stroke="none"/>
    </g>
    <g stroke-linecap="round" transform="matrix(1,0,0,1,143,258)" stroke-dashoffset="2" fill="navy" text-rendering="geometricPrecision" shape-rendering="geometricPrecision" stroke-dasharray="0,4" stroke="navy" stroke-miterlimit="1.45">
      <path fill="none" d="M169.6454 170.9742 L169.6454 122 L-22 122 L-22 163.9888" clip-path="url(#clipPath2)"/>
      <path d="M169.6454 178.9742 C167.4363 178.9742 165.6454 177.1833 165.6454 174.9742 C165.6454 172.7651 167.4363 170.9742 169.6454 170.9742 C171.8545 170.9742 173.6454 172.7651 173.6454 174.9742 C173.6454 177.1833 171.8545 178.9742 169.6454 178.9742 Z" clip-path="url(#clipPath2)" stroke="none"/>
      <path d="M-22 174.9888 L-16 162.9888 L-28 162.9888 Z" clip-path="url(#clipPath2)" stroke="none"/>
      <rect x="12.8012" y="112.9336" clip-path="url(#clipPath2)" fill="white" width="122.043" height="18.1328" stroke="none"/>
    </g>
    <g stroke-linecap="butt" transform="matrix(1,0,0,1,143,258)" fill="navy" text-rendering="geometricPrecision" font-family="sans-serif" shape-rendering="geometricPrecision" stroke="navy" stroke-miterlimit="1.45">
      <text x="14.8012" xml:space="preserve" y="126.5352" clip-path="url(#clipPath2)" stroke="none">prov:wasInformedBy</text>
      <path fill="none" d="M-22 225.0383 L-22 262.5" clip-path="url(#clipPath2)" stroke="black"/>
      <path fill="black" d="M-22 270.5 L-17 258.5 L-22 261.5 L-27 258.5 Z" clip-path="url(#clipPath2)" stroke="none"/>
    </g>
    <g fill="rgb(210,210,210)" text-rendering="geometricPrecision" shape-rendering="geometricPrecision" transform="matrix(1,0,0,1,143,258) translate(4,4)" stroke="rgb(210,210,210)">
      <rect x="561.4733" width="605.8998" height="132.9856" y="-242.7289" clip-path="url(#clipPath7)" stroke="none"/>
    </g>
    <g fill="white" text-rendering="geometricPrecision" shape-rendering="geometricPrecision" transform="matrix(1,0,0,1,143,258)" stroke="white">
      <rect x="561.4733" width="605.8998" height="132.9856" y="-242.7289" clip-path="url(#clipPath2)" stroke="none"/>
      <rect x="561.4733" y="-242.7289" clip-path="url(#clipPath2)" fill="rgb(183,182,158)" width="605.8998" height="21.666" stroke="none"/>
    </g>
    <g font-size="15px" stroke-linecap="butt" transform="matrix(1,0,0,1,143,258)" text-rendering="geometricPrecision" font-family="sans-serif" shape-rendering="geometricPrecision" font-weight="bold" stroke-miterlimit="1.45">
      <text x="1088.5055" xml:space="preserve" y="-226.2269" clip-path="url(#clipPath2)" stroke="none">Prefixes   </text>
      <rect fill="none" x="561.4733" width="605.8998" height="132.9856" y="-242.7289" clip-path="url(#clipPath2)"/>
      <text x="656.0674" font-size="16px" y="-188.5941" clip-path="url(#clipPath2)" stroke="none" font-weight="normal" xml:space="preserve">http://www.w3.org/ns/prov#</text>
      <text x="656.0674" font-size="16px" y="-169.7504" clip-path="url(#clipPath2)" stroke="none" font-weight="normal" xml:space="preserve">http://www.w3.org/2001/XMLSchema#</text>
      <text x="656.0674" font-size="16px" y="-150.9066" clip-path="url(#clipPath2)" stroke="none" font-weight="normal" xml:space="preserve">https://projects.ics.forth.gr/isl/CRMext/CRMdig_v3.2.2.rdfs#</text>
      <text x="656.0674" font-size="16px" y="-132.0629" clip-path="url(#clipPath2)" stroke="none" font-weight="normal" xml:space="preserve">http://www.w3.org/2000/01/rdf-schema#</text>
      <text x="589.271" xml:space="preserve" font-size="16px" y="-188.5941" clip-path="url(#clipPath2)" stroke="none">prov:</text>
      <text x="589.271" xml:space="preserve" font-size="16px" y="-169.7504" clip-path="url(#clipPath2)" stroke="none">xsd:</text>
      <text x="589.271" xml:space="preserve" font-size="16px" y="-150.9066" clip-path="url(#clipPath2)" stroke="none">crmdig:</text>
      <text x="589.271" xml:space="preserve" font-size="16px" y="-132.0629" clip-path="url(#clipPath2)" stroke="none">rdfs:</text>
    </g>
  </g>
</svg>
