<?xml version="1.0" encoding="UTF-8"?><svg xmlns="http://www.w3.org/2000/svg" xmlns:xlink="http://www.w3.org/1999/xlink" fill-opacity="1" color-rendering="auto" color-interpolation="auto" text-rendering="auto" stroke="black" stroke-linecap="square" width="523" stroke-miterlimit="10" shape-rendering="auto" stroke-opacity="1" fill="black" stroke-dasharray="none" font-weight="normal" stroke-width="1" height="688" font-family="'Dialog'" font-style="normal" stroke-linejoin="miter" font-size="12px" stroke-dashoffset="0" image-rendering="auto">
  <!--Generated by ySVG 2.6-->
  <defs id="genericDefs"/>
  <g>
    <defs id="defs1">
      <clipPath clipPathUnits="userSpaceOnUse" id="clipPath1">
        <path d="M0 0 L523 0 L523 688 L0 688 L0 0 Z"/>
      </clipPath>
      <clipPath clipPathUnits="userSpaceOnUse" id="clipPath2">
        <path d="M115 -96 L638 -96 L638 592 L115 592 L115 -96 Z"/>
      </clipPath>
      <clipPath clipPathUnits="userSpaceOnUse" id="clipPath3">
        <path d="M-228.6727 453.4723 L-228.6727 -69.5277 L459.3273 -69.5277 L459.3273 453.4723 L-228.6727 453.4723 Z"/>
      </clipPath>
    </defs>
    <g fill="white" text-rendering="geometricPrecision" shape-rendering="geometricPrecision" transform="translate(-115,96)" stroke="white">
      <rect x="115" width="523" height="688" y="-96" clip-path="url(#clipPath2)" stroke="none"/>
    </g>
    <g fill="yellow" text-rendering="geometricPrecision" shape-rendering="geometricPrecision" transform="matrix(1,0,0,1,-115,96)" stroke="yellow">
      <rect x="534.8831" y="-80.5276" clip-path="url(#clipPath2)" width="88" rx="4" ry="4" height="30.1573" stroke="none"/>
    </g>
    <g text-rendering="geometricPrecision" stroke-miterlimit="1.45" shape-rendering="geometricPrecision" font-family="sans-serif" transform="matrix(1,0,0,1,-115,96)" stroke-linecap="butt">
      <text x="542.5521" xml:space="preserve" y="-60.9138" clip-path="url(#clipPath2)" stroke="none">prov:Activity</text>
      <rect x="534.8831" y="-80.5276" clip-path="url(#clipPath2)" fill="none" width="88" rx="4" ry="4" height="30.1573"/>
    </g>
    <g fill="yellow" text-rendering="geometricPrecision" shape-rendering="geometricPrecision" transform="matrix(1,0,0,1,-115,96)" stroke="yellow">
      <rect x="130.4926" y="47.3581" clip-path="url(#clipPath2)" width="101" rx="4" ry="4" height="30.1573" stroke="none"/>
    </g>
    <g text-rendering="geometricPrecision" stroke-miterlimit="1.45" shape-rendering="geometricPrecision" font-family="sans-serif" transform="matrix(1,0,0,1,-115,96)" stroke-linecap="butt">
      <text x="149.7387" xml:space="preserve" y="66.9719" clip-path="url(#clipPath2)" stroke="none">prov:Entity</text>
      <rect x="130.4926" y="47.3581" clip-path="url(#clipPath2)" fill="none" width="101" rx="4" ry="4" height="30.1573"/>
    </g>
    <g fill="rgb(255,153,204)" text-rendering="geometricPrecision" shape-rendering="geometricPrecision" transform="matrix(1,0,0,1,-115,96)" stroke="rgb(255,153,204)">
      <circle r="10" clip-path="url(#clipPath2)" cx="371.1119" cy="191.3935" stroke="none"/>
    </g>
    <g text-rendering="geometricPrecision" stroke-miterlimit="1.45" shape-rendering="geometricPrecision" font-family="sans-serif" transform="matrix(1,0,0,1,-115,96)" stroke-linecap="butt">
      <text x="329.4664" xml:space="preserve" y="218.9951" clip-path="url(#clipPath2)" stroke="none">:alcide_corpus</text>
      <circle fill="none" stroke-width="3" r="10" clip-path="url(#clipPath2)" cx="371.1119" cy="191.3935"/>
    </g>
    <g fill="rgb(255,153,204)" text-rendering="geometricPrecision" shape-rendering="geometricPrecision" transform="matrix(1,0,0,1,-115,96)" stroke="rgb(255,153,204)">
      <circle r="10" clip-path="url(#clipPath2)" cx="578.8831" cy="1.2362" stroke="none"/>
    </g>
    <g text-rendering="geometricPrecision" stroke-miterlimit="1.45" shape-rendering="geometricPrecision" font-family="sans-serif" transform="matrix(1,0,0,1,-115,96)" stroke-linecap="butt">
      <text x="525.137" xml:space="preserve" y="-13.295" clip-path="url(#clipPath2)" stroke="none">:alcide</text>
      <circle fill="none" stroke-width="3" r="10" clip-path="url(#clipPath2)" cx="578.8831" cy="1.2362"/>
    </g>
    <g fill="rgb(255,153,204)" text-rendering="geometricPrecision" shape-rendering="geometricPrecision" transform="matrix(1,0,0,1,-115,96)" stroke="rgb(255,153,204)">
      <circle r="10" clip-path="url(#clipPath2)" cx="371.1119" cy="439.3149" stroke="none"/>
    </g>
    <g text-rendering="geometricPrecision" stroke-miterlimit="1.45" shape-rendering="geometricPrecision" font-family="sans-serif" transform="matrix(1,0,0,1,-115,96)" stroke-linecap="butt">
      <text x="328.9976" xml:space="preserve" y="466.9164" clip-path="url(#clipPath2)" stroke="none">:alcide_edition</text>
      <circle fill="none" stroke-width="3" r="10" clip-path="url(#clipPath2)" cx="371.1119" cy="439.3149"/>
    </g>
    <g fill="rgb(255,153,204)" text-rendering="geometricPrecision" shape-rendering="geometricPrecision" transform="matrix(1,0,0,1,-115,96)" stroke="rgb(255,153,204)">
      <circle r="10" clip-path="url(#clipPath2)" cx="371.1119" cy="62.4367" stroke="none"/>
    </g>
    <g text-rendering="geometricPrecision" stroke-miterlimit="1.45" shape-rendering="geometricPrecision" font-family="sans-serif" transform="matrix(1,0,0,1,-115,96)" stroke-linecap="butt">
      <text x="327.1168" xml:space="preserve" y="90.0383" clip-path="url(#clipPath2)" stroke="none">:alcide_website</text>
      <circle fill="none" stroke-width="3" r="10" clip-path="url(#clipPath2)" cx="371.1119" cy="62.4367"/>
    </g>
    <g fill="rgb(255,153,204)" text-rendering="geometricPrecision" shape-rendering="geometricPrecision" transform="matrix(1,0,0,1,-115,96)" stroke="rgb(255,153,204)">
      <circle r="10" clip-path="url(#clipPath2)" cx="371.1119" cy="295.3149" stroke="none"/>
    </g>
    <g text-rendering="geometricPrecision" stroke-miterlimit="1.45" shape-rendering="geometricPrecision" font-family="sans-serif" transform="matrix(1,0,0,1,-115,96)" stroke-linecap="butt">
      <text x="324.2222" xml:space="preserve" y="322.9164" clip-path="url(#clipPath2)" stroke="none">:alcide_platform</text>
      <circle fill="none" stroke-width="3" r="10" clip-path="url(#clipPath2)" cx="371.1119" cy="295.3149"/>
    </g>
    <g fill="rgb(255,153,204)" text-rendering="geometricPrecision" shape-rendering="geometricPrecision" transform="matrix(1,0,0,1,-115,96)" stroke="rgb(255,153,204)">
      <circle r="10" clip-path="url(#clipPath2)" cx="371.1119" cy="544.3149" stroke="none"/>
    </g>
    <g text-rendering="geometricPrecision" stroke-miterlimit="1.45" shape-rendering="geometricPrecision" font-family="sans-serif" transform="matrix(1,0,0,1,-115,96)" stroke-linecap="butt">
      <text x="317.6978" xml:space="preserve" y="571.9164" clip-path="url(#clipPath2)" stroke="none">:alcide_de_gasperi</text>
      <circle fill="none" stroke-width="3" r="10" clip-path="url(#clipPath2)" cx="371.1119" cy="544.3149"/>
      <text x="222.7672" xml:space="preserve" y="490.7836" clip-path="url(#clipPath2)" stroke="none">"Alcide de Gasperi"@it</text>
      <text x="381.9293" xml:space="preserve" y="490.7836" clip-path="url(#clipPath2)" stroke="none">&lt;viaf.org/viaf/32011324&gt;</text>
      <text x="215.2672" xml:space="preserve" y="352.4331" clip-path="url(#clipPath2)" stroke="none">"A. De Gasperi, </text>
      <text x="215.2672" xml:space="preserve" y="366.5659" clip-path="url(#clipPath2)" stroke="none">Scritti e discorsi politici, </text>
      <text x="215.2672" xml:space="preserve" y="380.6987" clip-path="url(#clipPath2)" stroke="none">I-IV"@it </text>
      <text x="377.7662" xml:space="preserve" y="366.5659" clip-path="url(#clipPath2)" stroke="none">&lt;mulino.it/collana/</text>
      <text x="377.7662" xml:space="preserve" y="380.6987" clip-path="url(#clipPath2)" stroke="none">scritti-discorsi-de-gasperi&gt;</text>
      <text x="215.304" xml:space="preserve" y="237.0195" clip-path="url(#clipPath2)" stroke="none">"ALCIDE platform"@en</text>
      <text x="356.7327" xml:space="preserve" y="237.0195" clip-path="url(#clipPath2)" stroke="none">&lt;alcidedigitale.fbk.eu/platform&gt;</text>
      <text x="204.2503" xml:space="preserve" y="128.0627" clip-path="url(#clipPath2)" stroke="none">"De Gasperi's Corpus"@en</text>
      <text x="367.9446" xml:space="preserve" y="113.9299" clip-path="url(#clipPath2)" stroke="none">&lt;github.com/StefanoMenini/</text>
      <text x="367.9446" xml:space="preserve" y="128.0627" clip-path="url(#clipPath2)" stroke="none">De-Gasperi-s-Corpus&gt;</text>
      <text x="218.1985" xml:space="preserve" y="7.8261" clip-path="url(#clipPath2)" stroke="none">"ALCIDE website"@en</text>
      <text x="384.8958" xml:space="preserve" y="7.8261" clip-path="url(#clipPath2)" stroke="none">&lt;alcidedigitale.fbk.eu&gt;</text>
      <path fill="none" d="M180.9926 77.5173 L180.9926 191.3935 L353.1119 191.3935" clip-path="url(#clipPath2)"/>
      <path d="M361.1119 191.3935 L349.1119 186.3935 L352.1119 191.3935 L349.1119 196.3935 Z" clip-path="url(#clipPath2)" stroke="none"/>
      <path fill="none" d="M578.8831 -50.3703 L578.8831 -16.7638" clip-path="url(#clipPath2)"/>
      <path d="M578.8831 -8.7638 L583.8831 -20.7638 L578.8831 -17.7638 L573.8831 -20.7638 Z" clip-path="url(#clipPath2)" stroke="none"/>
      <path fill="none" d="M568.0326 8.55 L559.4058 8.55 L559.4058 62.4367 L559.4058 191.3935 L392.1119 191.3935" clip-path="url(#clipPath2)" stroke="navy"/>
      <path fill="navy" d="M576.0326 8.55 C576.0326 10.7592 574.2418 12.55 572.0326 12.55 C569.8234 12.55 568.0326 10.7592 568.0326 8.55 C568.0326 6.3409 569.8234 4.55 572.0326 4.55 C574.2418 4.55 576.0326 6.3409 576.0326 8.55 Z" clip-path="url(#clipPath2)" stroke="none"/>
      <path fill="navy" d="M381.1119 191.3935 L393.1119 197.3935 L393.1119 185.3935 Z" clip-path="url(#clipPath2)" stroke="none"/>
      <path fill="none" d="M578.8831 15.2362 L578.8831 439.3148 L392.1119 439.3148" clip-path="url(#clipPath2)" stroke="navy"/>
      <path fill="navy" d="M578.8831 7.2362 C581.0923 7.2362 582.8831 9.0271 582.8831 11.2362 C582.8831 13.4454 581.0923 15.2362 578.8831 15.2362 C576.674 15.2362 574.8831 13.4454 574.8831 11.2362 C574.8831 9.0271 576.674 7.2362 578.8831 7.2362 Z" clip-path="url(#clipPath2)" stroke="none"/>
      <path fill="navy" d="M381.1119 439.3148 L393.1119 445.3148 L393.1119 433.3148 Z" clip-path="url(#clipPath2)" stroke="none"/>
      <rect x="447.9804" y="430.2485" clip-path="url(#clipPath2)" fill="white" width="61.6445" height="18.1328" stroke="none"/>
      <text fill="navy" x="449.9804" xml:space="preserve" y="443.85" clip-path="url(#clipPath2)" stroke="none">prov:used</text>
      <path fill="none" d="M180.9926 77.4805 L180.9926 439.3148 L353.1119 439.3148" clip-path="url(#clipPath2)"/>
      <path d="M361.1119 439.3148 L349.1119 434.3148 L352.1119 439.3148 L349.1119 444.3148 Z" clip-path="url(#clipPath2)" stroke="none"/>
      <path fill="none" d="M568.0321 8.5585 L559.4058 8.5585 L559.4058 62.4367 L559.4058 62.4367 L392.1119 62.4367" clip-path="url(#clipPath2)" stroke="navy"/>
      <path fill="navy" d="M576.0321 8.5585 C576.0321 10.7677 574.2413 12.5585 572.0321 12.5585 C569.8229 12.5585 568.0321 10.7677 568.0321 8.5585 C568.0321 6.3494 569.8229 4.5585 572.0321 4.5585 C574.2413 4.5585 576.0321 6.3494 576.0321 8.5585 Z" clip-path="url(#clipPath2)" stroke="none"/>
      <path fill="navy" d="M381.1119 62.4367 L393.1119 68.4367 L393.1119 56.4367 Z" clip-path="url(#clipPath2)" stroke="none"/>
      <path fill="none" d="M231.5056 62.4367 L307.3831 62.4367 L353.1119 62.4367" clip-path="url(#clipPath2)"/>
      <path d="M361.1119 62.4367 L349.1119 57.4367 L352.1119 62.4367 L349.1119 67.4367 Z" clip-path="url(#clipPath2)" stroke="none"/>
      <path fill="none" d="M567.7094 8.2301 L559.4058 8.2301 L559.4058 62.4367 L559.4058 295.3148 L392.1119 295.3148" clip-path="url(#clipPath2)" stroke="navy"/>
      <path fill="navy" d="M575.7094 8.2301 C575.7094 10.4392 573.9186 12.2301 571.7094 12.2301 C569.5002 12.2301 567.7094 10.4392 567.7094 8.2301 C567.7094 6.021 569.5002 4.2301 571.7094 4.2301 C573.9186 4.2301 575.7094 6.021 575.7094 8.2301 Z" clip-path="url(#clipPath2)" stroke="none"/>
      <path fill="navy" d="M381.1119 295.3148 L393.1119 301.3148 L393.1119 289.3148 Z" clip-path="url(#clipPath2)" stroke="none"/>
    </g>
    <g stroke-linecap="butt" transform="matrix(-0,1,-1,-0,453.4723,228.6727)" fill="white" text-rendering="geometricPrecision" shape-rendering="geometricPrecision" stroke="white" stroke-miterlimit="1.45">
      <rect x="0" width="92.4062" height="18.1328" y="0" clip-path="url(#clipPath3)" stroke="none"/>
      <text x="2" y="13.6016" clip-path="url(#clipPath3)" fill="navy" font-family="sans-serif" stroke="none" xml:space="preserve">prov:generated</text>
    </g>
    <g text-rendering="geometricPrecision" stroke-miterlimit="1.45" shape-rendering="geometricPrecision" transform="matrix(1,0,0,1,-115,96)" stroke-linecap="butt">
      <path fill="none" d="M180.9926 77.5317 L180.9926 295.3148 L353.1119 295.3148" clip-path="url(#clipPath2)"/>
      <path d="M361.1119 295.3148 L349.1119 290.3148 L352.1119 295.3148 L349.1119 300.3148 Z" clip-path="url(#clipPath2)" stroke="none"/>
      <path fill="none" d="M180.9926 77.5248 L180.9926 544.3149 L353.1119 544.3149" clip-path="url(#clipPath2)"/>
      <path d="M361.1119 544.3149 L349.1119 539.3149 L352.1119 544.3149 L349.1119 549.3149 Z" clip-path="url(#clipPath2)" stroke="none"/>
      <path fill="none" d="M578.8831 15.2362 L578.8831 544.3149 L392.1119 544.3149" clip-path="url(#clipPath2)" stroke="navy"/>
      <path fill="navy" d="M578.8831 7.2362 C581.0923 7.2362 582.8831 9.0271 582.8831 11.2362 C582.8831 13.4454 581.0923 15.2362 578.8831 15.2362 C576.674 15.2362 574.8831 13.4454 574.8831 11.2362 C574.8831 9.0271 576.674 7.2362 578.8831 7.2362 Z" clip-path="url(#clipPath2)" stroke="none"/>
      <path fill="navy" d="M381.1119 544.3149 L393.1119 550.3149 L393.1119 538.3149 Z" clip-path="url(#clipPath2)" stroke="none"/>
      <rect x="430.0725" y="535.2485" clip-path="url(#clipPath2)" fill="white" width="68.0723" height="18.1328" stroke="none"/>
      <text x="432.0725" y="548.85" clip-path="url(#clipPath2)" fill="navy" font-family="sans-serif" stroke="none" xml:space="preserve">dct:subject</text>
      <path fill="none" d="M359.7274 536.1667 L314.8477 504.0451" clip-path="url(#clipPath2)" stroke="green"/>
    </g>
    <g stroke-linecap="butt" transform="matrix(1,0,0,1,-115,96)" fill-opacity="0" fill="rgb(0,0,0)" text-rendering="geometricPrecision" shape-rendering="geometricPrecision" stroke="rgb(0,0,0)" stroke-opacity="0" stroke-miterlimit="1.45">
      <path d="M366.2328 540.8227 C364.9471 542.6191 362.4485 543.0331 360.6521 541.7474 C358.8557 540.4617 358.4416 537.9631 359.7274 536.1667 C361.0131 534.3702 363.5117 533.9562 365.3081 535.2419 C367.1046 536.5277 367.5186 539.0262 366.2328 540.8227 Z" stroke="none" clip-path="url(#clipPath2)"/>
    </g>
    <g stroke-linecap="butt" transform="matrix(1,0,0,1,-115,96)" fill="green" text-rendering="geometricPrecision" shape-rendering="geometricPrecision" stroke="green" stroke-miterlimit="1.45">
      <path fill="none" d="M366.2328 540.8227 C364.9471 542.6191 362.4485 543.0331 360.6521 541.7474 C358.8557 540.4617 358.4416 537.9631 359.7274 536.1667 C361.0131 534.3702 363.5117 533.9562 365.3081 535.2419 C367.1046 536.5277 367.5186 539.0262 366.2328 540.8227 Z" clip-path="url(#clipPath2)"/>
      <path fill="white" d="M302.6501 495.3148 L312.1688 509.5062 L319.153 499.748 Z" clip-path="url(#clipPath2)" stroke="none"/>
      <path fill="none" d="M302.6501 495.3148 L312.1688 509.5062 L319.153 499.748 Z" clip-path="url(#clipPath2)"/>
      <rect x="309.4011" y="508.4668" clip-path="url(#clipPath2)" fill="white" width="48.584" height="18.1328" stroke="none"/>
      <text x="311.4011" xml:space="preserve" y="522.0684" clip-path="url(#clipPath2)" font-family="sans-serif" stroke="none">dct:title</text>
      <path fill="none" d="M382.7333 536.5082 L431.6048 503.6791" clip-path="url(#clipPath2)"/>
    </g>
    <g stroke-linecap="butt" transform="matrix(1,0,0,1,-115,96)" fill-opacity="0" fill="rgb(0,0,0)" text-rendering="geometricPrecision" shape-rendering="geometricPrecision" stroke="rgb(0,0,0)" stroke-opacity="0" stroke-miterlimit="1.45">
      <path d="M376.0925 540.9692 C374.8606 539.1354 375.3486 536.6501 377.1824 535.4183 C379.0162 534.1865 381.5014 534.6744 382.7333 536.5082 C383.9651 538.342 383.4771 540.8273 381.6433 542.0591 C379.8095 543.291 377.3243 542.803 376.0925 540.9692 Z" stroke="none" clip-path="url(#clipPath2)"/>
    </g>
    <g stroke-linecap="butt" transform="matrix(1,0,0,1,-115,96)" fill="green" text-rendering="geometricPrecision" shape-rendering="geometricPrecision" stroke="green" stroke-miterlimit="1.45">
      <path fill="none" d="M376.0925 540.9692 C374.8606 539.1354 375.3486 536.6501 377.1824 535.4183 C379.0162 534.1865 381.5014 534.6744 382.7333 536.5082 C383.9651 538.342 383.4771 540.8273 381.6433 542.0591 C379.8095 543.291 377.3243 542.803 376.0925 540.9692 Z" clip-path="url(#clipPath2)"/>
      <path fill="white" d="M444.0563 495.3148 L427.429 499.2561 L434.1204 509.2173 Z" clip-path="url(#clipPath2)" stroke="none"/>
      <path fill="none" d="M444.0563 495.3148 L427.429 499.2561 L434.1204 509.2173 Z" clip-path="url(#clipPath2)"/>
      <rect x="378.2139" y="508.8874" clip-path="url(#clipPath2)" fill="white" width="64.2812" height="18.1328" stroke="none"/>
      <text x="380.214" xml:space="preserve" y="522.489" clip-path="url(#clipPath2)" font-family="sans-serif" stroke="none">prov:value</text>
      <path fill="none" d="M360.304 430.416 L317.0049 394.7645" clip-path="url(#clipPath2)"/>
    </g>
    <g stroke-linecap="butt" transform="matrix(1,0,0,1,-115,96)" fill-opacity="0" fill="rgb(0,0,0)" text-rendering="geometricPrecision" shape-rendering="geometricPrecision" stroke="rgb(0,0,0)" stroke-opacity="0" stroke-miterlimit="1.45">
      <path d="M366.4799 435.501 C365.0757 437.2065 362.5549 437.4507 360.8495 436.0464 C359.144 434.6422 358.8998 432.1214 360.304 430.416 C361.7083 428.7105 364.2291 428.4663 365.9345 429.8705 C367.64 431.2747 367.8842 433.7956 366.4799 435.501 Z" stroke="none" clip-path="url(#clipPath2)"/>
    </g>
    <g stroke-linecap="butt" transform="matrix(1,0,0,1,-115,96)" fill="green" text-rendering="geometricPrecision" shape-rendering="geometricPrecision" stroke="green" stroke-miterlimit="1.45">
      <path fill="none" d="M366.4799 435.501 C365.0757 437.2065 362.5549 437.4507 360.8495 436.0464 C359.144 434.6422 358.8998 432.1214 360.304 430.416 C361.7083 428.7105 364.2291 428.4663 365.9345 429.8705 C367.64 431.2747 367.8842 433.7956 366.4799 435.501 Z" clip-path="url(#clipPath2)"/>
      <path fill="white" d="M305.4251 385.2299 L313.9631 400.0321 L321.5907 390.7682 Z" clip-path="url(#clipPath2)" stroke="none"/>
      <path fill="none" d="M305.4251 385.2299 L313.9631 400.0321 L321.5907 390.7682 Z" clip-path="url(#clipPath2)"/>
      <rect x="309.9552" y="399.895" clip-path="url(#clipPath2)" fill="white" width="48.584" height="18.1328" stroke="none"/>
      <text x="311.9552" xml:space="preserve" y="413.4966" clip-path="url(#clipPath2)" font-family="sans-serif" stroke="none">dct:title</text>
      <path fill="none" d="M382.4272 431.071 L433.2237 394.0627" clip-path="url(#clipPath2)"/>
    </g>
    <g stroke-linecap="butt" transform="matrix(1,0,0,1,-115,96)" fill-opacity="0" fill="rgb(0,0,0)" text-rendering="geometricPrecision" shape-rendering="geometricPrecision" stroke="rgb(0,0,0)" stroke-opacity="0" stroke-miterlimit="1.45">
      <path d="M375.9613 435.7818 C374.6605 433.9962 375.0533 431.4943 376.8389 430.1934 C378.6244 428.8925 381.1264 429.2854 382.4272 431.071 C383.7281 432.8565 383.3352 435.3585 381.5497 436.6593 C379.7642 437.9602 377.2622 437.5673 375.9613 435.7818 Z" stroke="none" clip-path="url(#clipPath2)"/>
    </g>
    <g stroke-linecap="butt" transform="matrix(1,0,0,1,-115,96)" fill="green" text-rendering="geometricPrecision" shape-rendering="geometricPrecision" stroke="green" stroke-miterlimit="1.45">
      <path fill="none" d="M375.9613 435.7818 C374.6605 433.9962 375.0533 431.4943 376.8389 430.1934 C378.6244 428.8925 381.1264 429.2854 382.4272 431.071 C383.7281 432.8565 383.3352 435.3585 381.5497 436.6593 C379.7642 437.9602 377.2622 437.5673 375.9613 435.7818 Z" clip-path="url(#clipPath2)"/>
      <path fill="white" d="M445.3474 385.2299 L428.8824 389.8021 L435.9486 399.501 Z" clip-path="url(#clipPath2)" stroke="none"/>
      <path fill="none" d="M445.3474 385.2299 L428.8824 389.8021 L435.9486 399.501 Z" clip-path="url(#clipPath2)"/>
      <rect x="379.3891" y="400.8017" clip-path="url(#clipPath2)" fill="white" width="64.2812" height="18.1328" stroke="none"/>
      <text x="381.3891" xml:space="preserve" y="414.4032" clip-path="url(#clipPath2)" font-family="sans-serif" stroke="none">prov:value</text>
      <path fill="none" d="M359.9367 286.8819 L311.8384 250.5861" clip-path="url(#clipPath2)"/>
    </g>
    <g stroke-linecap="butt" transform="matrix(1,0,0,1,-115,96)" fill-opacity="0" fill="rgb(0,0,0)" text-rendering="geometricPrecision" shape-rendering="geometricPrecision" stroke="rgb(0,0,0)" stroke-opacity="0" stroke-miterlimit="1.45">
      <path d="M366.3225 291.7007 C364.9919 293.4641 362.4836 293.8149 360.7202 292.4842 C358.9568 291.1535 358.606 288.6453 359.9367 286.8819 C361.2674 285.1185 363.7756 284.7677 365.539 286.0984 C367.3024 287.429 367.6532 289.9373 366.3225 291.7007 Z" stroke="none" clip-path="url(#clipPath2)"/>
    </g>
    <g stroke-linecap="butt" transform="matrix(1,0,0,1,-115,96)" fill="green" text-rendering="geometricPrecision" shape-rendering="geometricPrecision" stroke="green" stroke-miterlimit="1.45">
      <path fill="none" d="M366.3225 291.7007 C364.9919 293.4641 362.4836 293.8149 360.7202 292.4842 C358.9568 291.1535 358.606 288.6453 359.9367 286.8819 C361.2674 285.1185 363.7756 284.7677 365.539 286.0984 C367.3024 287.429 367.6532 289.9373 366.3225 291.7007 Z" clip-path="url(#clipPath2)"/>
      <path fill="white" d="M299.865 241.5508 L309.0225 255.9778 L316.2507 246.3991 Z" clip-path="url(#clipPath2)" stroke="none"/>
      <path fill="none" d="M299.865 241.5508 L309.0225 255.9778 L316.2507 246.3991 Z" clip-path="url(#clipPath2)"/>
      <rect x="302.6761" y="256.7129" clip-path="url(#clipPath2)" fill="white" width="58.5918" height="18.1328" stroke="none"/>
      <text x="304.6761" xml:space="preserve" y="270.3145" clip-path="url(#clipPath2)" font-family="sans-serif" stroke="none">rdfs:label</text>
      <path fill="none" d="M382.1045 286.6453 L427.5043 250.8396" clip-path="url(#clipPath2)"/>
    </g>
    <g stroke-linecap="butt" transform="matrix(1,0,0,1,-115,96)" fill-opacity="0" fill="rgb(0,0,0)" text-rendering="geometricPrecision" shape-rendering="geometricPrecision" stroke="rgb(0,0,0)" stroke-opacity="0" stroke-miterlimit="1.45">
      <path d="M375.823 291.5993 C374.455 289.8647 374.7521 287.3495 376.4867 285.9815 C378.2213 284.6135 380.7365 284.9107 382.1045 286.6453 C383.4725 288.3799 383.1754 290.895 381.4408 292.263 C379.7062 293.6311 377.191 293.3339 375.823 291.5993 Z" stroke="none" clip-path="url(#clipPath2)"/>
    </g>
    <g stroke-linecap="butt" transform="matrix(1,0,0,1,-115,96)" fill="green" text-rendering="geometricPrecision" shape-rendering="geometricPrecision" stroke="green" stroke-miterlimit="1.45">
      <path fill="none" d="M375.823 291.5993 C374.455 289.8647 374.7521 287.3495 376.4867 285.9815 C378.2213 284.6135 380.7365 284.9107 382.1045 286.6453 C383.4725 288.3799 383.1754 290.895 381.4408 292.263 C379.7062 293.6311 377.191 293.3339 375.823 291.5993 Z" clip-path="url(#clipPath2)"/>
      <path fill="white" d="M439.2821 241.5508 L423.0035 246.7478 L430.4346 256.17 Z" clip-path="url(#clipPath2)" stroke="none"/>
      <path fill="none" d="M439.2821 241.5508 L423.0035 246.7478 L430.4346 256.17 Z" clip-path="url(#clipPath2)"/>
      <rect x="376.8338" y="256.3872" clip-path="url(#clipPath2)" fill="white" width="64.2812" height="18.1328" stroke="none"/>
      <text x="378.8338" xml:space="preserve" y="269.9888" clip-path="url(#clipPath2)" font-family="sans-serif" stroke="none">prov:value</text>
      <path fill="none" d="M360.232 182.5828 L310.1601 142.034" clip-path="url(#clipPath2)"/>
    </g>
    <g stroke-linecap="butt" transform="matrix(1,0,0,1,-115,96)" fill-opacity="0" fill="rgb(0,0,0)" text-rendering="geometricPrecision" shape-rendering="geometricPrecision" stroke="rgb(0,0,0)" stroke-opacity="0" stroke-miterlimit="1.45">
      <path d="M366.4491 187.6175 C365.0588 189.3343 362.54 189.599 360.8232 188.2087 C359.1064 186.8184 358.8417 184.2997 360.232 182.5828 C361.6223 180.866 364.1411 180.6013 365.8578 181.9916 C367.5746 183.3819 367.8394 185.9007 366.4491 187.6175 Z" stroke="none" clip-path="url(#clipPath2)"/>
    </g>
    <g stroke-linecap="butt" transform="matrix(1,0,0,1,-115,96)" fill="green" text-rendering="geometricPrecision" shape-rendering="geometricPrecision" stroke="green" stroke-miterlimit="1.45">
      <path fill="none" d="M366.4491 187.6175 C365.0588 189.3343 362.54 189.599 360.8232 188.2087 C359.1064 186.8184 358.8417 184.2997 360.232 182.5828 C361.6223 180.866 364.1411 180.6013 365.8578 181.9916 C367.5746 183.3819 367.8394 185.9007 366.4491 187.6175 Z" clip-path="url(#clipPath2)"/>
      <path fill="white" d="M298.503 132.594 L307.1612 147.3261 L314.7132 138.0005 Z" clip-path="url(#clipPath2)" stroke="none"/>
      <path fill="none" d="M298.503 132.594 L307.1612 147.3261 L314.7132 138.0005 Z" clip-path="url(#clipPath2)"/>
      <rect x="306.587" y="149.746" clip-path="url(#clipPath2)" fill="white" width="48.584" height="18.1328" stroke="none"/>
      <text x="308.587" xml:space="preserve" y="163.3476" clip-path="url(#clipPath2)" font-family="sans-serif" stroke="none">dct:title</text>
      <path fill="none" d="M381.7797 182.3272 L428.8678 142.3079" clip-path="url(#clipPath2)"/>
    </g>
    <g stroke-linecap="butt" transform="matrix(1,0,0,1,-115,96)" fill-opacity="0" fill="rgb(0,0,0)" text-rendering="geometricPrecision" shape-rendering="geometricPrecision" stroke="rgb(0,0,0)" stroke-opacity="0" stroke-miterlimit="1.45">
      <path d="M375.6838 187.5079 C374.2531 185.8246 374.458 183.3002 376.1414 181.8696 C377.8247 180.439 380.349 180.6438 381.7797 182.3272 C383.2103 184.0105 383.0054 186.5349 381.3221 187.9655 C379.6388 189.3961 377.1144 189.1913 375.6838 187.5079 Z" stroke="none" clip-path="url(#clipPath2)"/>
    </g>
    <g stroke-linecap="butt" transform="matrix(1,0,0,1,-115,96)" fill="green" text-rendering="geometricPrecision" shape-rendering="geometricPrecision" stroke="green" stroke-miterlimit="1.45">
      <path fill="none" d="M375.6838 187.5079 C374.2531 185.8246 374.458 183.3002 376.1414 181.8696 C377.8247 180.439 380.349 180.6438 381.7797 182.3272 C383.2103 184.0105 383.0054 186.5349 381.3221 187.9655 C379.6388 189.3961 377.1144 189.1913 375.6838 187.5079 Z" clip-path="url(#clipPath2)"/>
      <path fill="white" d="M440.2976 132.594 L424.2203 138.3836 L431.9914 147.5274 Z" clip-path="url(#clipPath2)" stroke="none"/>
      <path fill="none" d="M440.2976 132.594 L424.2203 138.3836 L431.9914 147.5274 Z" clip-path="url(#clipPath2)"/>
      <rect x="377.7582" y="149.3629" clip-path="url(#clipPath2)" fill="white" width="64.2812" height="18.1328" stroke="none"/>
      <text x="379.7582" xml:space="preserve" y="162.9644" clip-path="url(#clipPath2)" font-family="sans-serif" stroke="none">prov:value</text>
      <path fill="none" d="M359.7193 54.2998 L313.2013 21.0754" clip-path="url(#clipPath2)"/>
    </g>
    <g stroke-linecap="butt" transform="matrix(1,0,0,1,-115,96)" fill-opacity="0" fill="rgb(0,0,0)" text-rendering="geometricPrecision" shape-rendering="geometricPrecision" stroke="rgb(0,0,0)" stroke-opacity="0" stroke-miterlimit="1.45">
      <path d="M366.2293 58.9495 C364.9453 60.7472 362.4472 61.1636 360.6495 59.8797 C358.8518 58.5957 358.4353 56.0975 359.7193 54.2998 C361.0033 52.5021 363.5014 52.0857 365.2991 53.3696 C367.0968 54.6536 367.5133 57.1518 366.2293 58.9495 Z" stroke="none" clip-path="url(#clipPath2)"/>
    </g>
    <g stroke-linecap="butt" transform="matrix(1,0,0,1,-115,96)" fill="green" text-rendering="geometricPrecision" shape-rendering="geometricPrecision" stroke="green" stroke-miterlimit="1.45">
      <path fill="none" d="M366.2293 58.9495 C364.9453 60.7472 362.4472 61.1636 360.6495 59.8797 C358.8518 58.5957 358.4353 56.0975 359.7193 54.2998 C361.0033 52.5021 363.5014 52.0857 365.2991 53.3696 C367.0968 54.6536 367.5133 57.1518 366.2293 58.9495 Z" clip-path="url(#clipPath2)"/>
      <path fill="white" d="M300.9949 12.3573 L310.5278 26.5392 L317.5023 16.7741 Z" clip-path="url(#clipPath2)" stroke="none"/>
      <path fill="none" d="M300.9949 12.3573 L310.5278 26.5392 L317.5023 16.7741 Z" clip-path="url(#clipPath2)"/>
      <rect x="303.583" y="26.0633" clip-path="url(#clipPath2)" fill="white" width="58.5918" height="18.1328" stroke="none"/>
      <text x="305.583" xml:space="preserve" y="39.6649" clip-path="url(#clipPath2)" font-family="sans-serif" stroke="none">rdfs:label</text>
      <path fill="none" d="M382.3448 54.0807 L426.3979 21.3102" clip-path="url(#clipPath2)"/>
    </g>
    <g stroke-linecap="butt" transform="matrix(1,0,0,1,-115,96)" fill-opacity="0" fill="rgb(0,0,0)" text-rendering="geometricPrecision" shape-rendering="geometricPrecision" stroke="rgb(0,0,0)" stroke-opacity="0" stroke-miterlimit="1.45">
      <path d="M375.9259 58.8555 C374.6074 57.083 374.9754 54.5773 376.7479 53.2587 C378.5204 51.9402 381.0262 52.3082 382.3448 54.0807 C383.6633 55.8532 383.2953 58.359 381.5228 59.6775 C379.7503 60.9961 377.2445 60.6281 375.9259 58.8555 Z" stroke="none" clip-path="url(#clipPath2)"/>
    </g>
    <g stroke-linecap="butt" transform="matrix(1,0,0,1,-115,96)" fill="green" text-rendering="geometricPrecision" shape-rendering="geometricPrecision" stroke="green" stroke-miterlimit="1.45">
      <path fill="none" d="M375.9259 58.8555 C374.6074 57.083 374.9754 54.5773 376.7479 53.2587 C378.5204 51.9402 381.0262 52.3082 382.3448 54.0807 C383.6633 55.8532 383.2953 58.359 381.5228 59.6775 C379.7503 60.9961 377.2445 60.6281 375.9259 58.8555 Z" clip-path="url(#clipPath2)"/>
      <path fill="white" d="M438.4331 12.3573 L422.0144 17.0929 L429.1767 26.7211 Z" clip-path="url(#clipPath2)" stroke="none"/>
      <path fill="none" d="M438.4331 12.3573 L422.0144 17.0929 L429.1767 26.7211 Z" clip-path="url(#clipPath2)"/>
      <rect x="376.061" y="25.7797" clip-path="url(#clipPath2)" fill="white" width="64.2812" height="18.1328" stroke="none"/>
      <text x="378.061" xml:space="preserve" y="39.3812" clip-path="url(#clipPath2)" font-family="sans-serif" stroke="none">prov:value</text>
    </g>
  </g>
</svg>
