<?xml version="1.0" encoding="UTF-8"?><svg xmlns="http://www.w3.org/2000/svg" xmlns:xlink="http://www.w3.org/1999/xlink" fill-opacity="1" color-rendering="auto" color-interpolation="auto" text-rendering="auto" stroke="black" stroke-linecap="square" width="786" stroke-miterlimit="10" shape-rendering="auto" stroke-opacity="1" fill="black" stroke-dasharray="none" font-weight="normal" stroke-width="1" height="512" font-family="'Dialog'" font-style="normal" stroke-linejoin="miter" font-size="12px" stroke-dashoffset="0" image-rendering="auto">
  <!--Generated by ySVG 2.6-->
  <defs id="genericDefs"/>
  <g>
    <defs id="defs1">
      <clipPath clipPathUnits="userSpaceOnUse" id="clipPath1">
        <path d="M0 0 L786 0 L786 512 L0 512 L0 0 Z"/>
      </clipPath>
      <clipPath clipPathUnits="userSpaceOnUse" id="clipPath2">
        <path d="M133 -48 L919 -48 L919 464 L133 464 L133 -48 Z"/>
      </clipPath>
      <clipPath clipPathUnits="userSpaceOnUse" id="clipPath3">
        <path d="M-147.9974 316.5891 L-147.9974 -469.4109 L364.0026 -469.4109 L364.0026 316.5891 L-147.9974 316.5891 Z"/>
      </clipPath>
      <clipPath clipPathUnits="userSpaceOnUse" id="clipPath4">
        <path d="M-131.7018 360.5771 L-131.7018 -425.4229 L380.2982 -425.4229 L380.2982 360.5771 L-131.7018 360.5771 Z"/>
      </clipPath>
    </defs>
    <g fill="white" text-rendering="geometricPrecision" shape-rendering="geometricPrecision" transform="translate(-133,48)" stroke="white">
      <rect x="133" width="786" height="512" y="-48" clip-path="url(#clipPath2)" stroke="none"/>
    </g>
    <g fill="yellow" text-rendering="geometricPrecision" shape-rendering="geometricPrecision" transform="matrix(1,0,0,1,-133,48)" stroke="yellow">
      <rect x="532.7671" y="400.9167" clip-path="url(#clipPath2)" width="95" rx="4" ry="4" height="30.1573" stroke="none"/>
    </g>
    <g text-rendering="geometricPrecision" stroke-miterlimit="1.45" shape-rendering="geometricPrecision" font-family="sans-serif" transform="matrix(1,0,0,1,-133,48)" stroke-linecap="butt">
      <text x="548.1548" xml:space="preserve" y="420.5305" clip-path="url(#clipPath2)" stroke="none">prov:Agent</text>
      <rect x="532.7671" y="400.9167" clip-path="url(#clipPath2)" fill="none" width="95" rx="4" ry="4" height="30.1573"/>
    </g>
    <g fill="yellow" text-rendering="geometricPrecision" shape-rendering="geometricPrecision" transform="matrix(1,0,0,1,-133,48)" stroke="yellow">
      <rect x="670.1169" y="280" clip-path="url(#clipPath2)" width="101" rx="4" ry="4" height="30.1573" stroke="none"/>
    </g>
    <g text-rendering="geometricPrecision" stroke-miterlimit="1.45" shape-rendering="geometricPrecision" font-family="sans-serif" transform="matrix(1,0,0,1,-133,48)" stroke-linecap="butt">
      <text x="681.0368" xml:space="preserve" y="299.6138" clip-path="url(#clipPath2)" stroke="none">prov:Location</text>
      <rect x="670.1169" y="280" clip-path="url(#clipPath2)" fill="none" width="101" rx="4" ry="4" height="30.1573"/>
    </g>
    <g fill="rgb(255,153,204)" text-rendering="geometricPrecision" shape-rendering="geometricPrecision" transform="matrix(1,0,0,1,-133,48)" stroke="rgb(255,153,204)">
      <circle r="10" clip-path="url(#clipPath2)" cx="617.7671" cy="295.0786" stroke="none"/>
    </g>
    <g text-rendering="geometricPrecision" stroke-miterlimit="1.45" shape-rendering="geometricPrecision" font-family="sans-serif" transform="matrix(1,0,0,1,-133,48)" stroke-linecap="butt">
      <text x="562.5797" xml:space="preserve" y="280.5474" clip-path="url(#clipPath2)" stroke="none">:trento</text>
      <circle fill="none" stroke-width="3" r="10" clip-path="url(#clipPath2)" cx="617.7671" cy="295.0786"/>
    </g>
    <g fill="rgb(255,153,204)" text-rendering="geometricPrecision" shape-rendering="geometricPrecision" transform="matrix(1,0,0,1,-133,48)" stroke="rgb(255,153,204)">
      <circle r="10" clip-path="url(#clipPath2)" cx="460" cy="415.9954" stroke="none"/>
    </g>
    <g text-rendering="geometricPrecision" stroke-miterlimit="1.45" shape-rendering="geometricPrecision" font-family="sans-serif" transform="matrix(1,0,0,1,-133,48)" stroke-linecap="butt">
      <text x="419.3037" xml:space="preserve" y="443.5969" clip-path="url(#clipPath2)" stroke="none">:maurizio_cau</text>
      <circle fill="none" stroke-width="3" r="10" clip-path="url(#clipPath2)" cx="460" cy="415.9954"/>
    </g>
    <g fill="yellow" text-rendering="geometricPrecision" shape-rendering="geometricPrecision" transform="matrix(1,0,0,1,-133,48)" stroke="yellow">
      <rect x="416" y="-27.7638" clip-path="url(#clipPath2)" width="88" rx="4" ry="4" height="30.1573" stroke="none"/>
    </g>
    <g text-rendering="geometricPrecision" stroke-miterlimit="1.45" shape-rendering="geometricPrecision" font-family="sans-serif" transform="matrix(1,0,0,1,-133,48)" stroke-linecap="butt">
      <text x="423.6689" xml:space="preserve" y="-8.15" clip-path="url(#clipPath2)" stroke="none">prov:Activity</text>
      <rect x="416" y="-27.7638" clip-path="url(#clipPath2)" fill="none" width="88" rx="4" ry="4" height="30.1573"/>
    </g>
    <g fill="yellow" text-rendering="geometricPrecision" shape-rendering="geometricPrecision" transform="matrix(1,0,0,1,-133,48)" stroke="yellow">
      <rect x="164.6095" y="210" clip-path="url(#clipPath2)" width="101" rx="4" ry="4" height="30.1573" stroke="none"/>
    </g>
    <g text-rendering="geometricPrecision" stroke-miterlimit="1.45" shape-rendering="geometricPrecision" font-family="sans-serif" transform="matrix(1,0,0,1,-133,48)" stroke-linecap="butt">
      <text x="183.8556" xml:space="preserve" y="229.6138" clip-path="url(#clipPath2)" stroke="none">prov:Entity</text>
      <rect x="164.6095" y="210" clip-path="url(#clipPath2)" fill="none" width="101" rx="4" ry="4" height="30.1573"/>
    </g>
    <g fill="rgb(255,153,204)" text-rendering="geometricPrecision" shape-rendering="geometricPrecision" transform="matrix(1,0,0,1,-133,48)" stroke="rgb(255,153,204)">
      <circle r="10" clip-path="url(#clipPath2)" cx="345.2288" cy="175.0786" stroke="none"/>
    </g>
    <g text-rendering="geometricPrecision" stroke-miterlimit="1.45" shape-rendering="geometricPrecision" font-family="sans-serif" transform="matrix(1,0,0,1,-133,48)" stroke-linecap="butt">
      <text x="303.5833" xml:space="preserve" y="156.5474" clip-path="url(#clipPath2)" stroke="none">:alcide_corpus</text>
      <circle fill="none" stroke-width="3" r="10" clip-path="url(#clipPath2)" cx="345.2288" cy="175.0786"/>
    </g>
    <g fill="rgb(255,153,204)" text-rendering="geometricPrecision" shape-rendering="geometricPrecision" transform="matrix(1,0,0,1,-133,48)" stroke="rgb(255,153,204)">
      <circle r="10" clip-path="url(#clipPath2)" cx="460" cy="60" stroke="none"/>
    </g>
    <g text-rendering="geometricPrecision" stroke-miterlimit="1.45" shape-rendering="geometricPrecision" font-family="sans-serif" transform="matrix(1,0,0,1,-133,48)" stroke-linecap="butt">
      <text x="406.2539" xml:space="preserve" y="45.4688" clip-path="url(#clipPath2)" stroke="none">:alcide</text>
      <circle fill="none" stroke-width="3" r="10" clip-path="url(#clipPath2)" cx="460" cy="60"/>
    </g>
    <g fill="rgb(255,153,204)" text-rendering="geometricPrecision" shape-rendering="geometricPrecision" transform="matrix(1,0,0,1,-133,48)" stroke="rgb(255,153,204)">
      <circle r="10" clip-path="url(#clipPath2)" cx="345.2288" cy="275.0786" stroke="none"/>
    </g>
    <g text-rendering="geometricPrecision" stroke-miterlimit="1.45" shape-rendering="geometricPrecision" font-family="sans-serif" transform="matrix(1,0,0,1,-133,48)" stroke-linecap="butt">
      <text x="303.1145" xml:space="preserve" y="256.5474" clip-path="url(#clipPath2)" stroke="none">:alcide_edition</text>
      <circle fill="none" stroke-width="3" r="10" clip-path="url(#clipPath2)" cx="345.2288" cy="275.0786"/>
    </g>
    <g fill="rgb(255,153,204)" text-rendering="geometricPrecision" shape-rendering="geometricPrecision" transform="matrix(1,0,0,1,-133,48)" stroke="rgb(255,153,204)">
      <circle r="10" clip-path="url(#clipPath2)" cx="345.2288" cy="125.0786" stroke="none"/>
    </g>
    <g text-rendering="geometricPrecision" stroke-miterlimit="1.45" shape-rendering="geometricPrecision" font-family="sans-serif" transform="matrix(1,0,0,1,-133,48)" stroke-linecap="butt">
      <text x="301.2336" xml:space="preserve" y="106.5474" clip-path="url(#clipPath2)" stroke="none">:alcide_website</text>
      <circle fill="none" stroke-width="3" r="10" clip-path="url(#clipPath2)" cx="345.2288" cy="125.0786"/>
    </g>
    <g fill="rgb(255,153,204)" text-rendering="geometricPrecision" shape-rendering="geometricPrecision" transform="matrix(1,0,0,1,-133,48)" stroke="rgb(255,153,204)">
      <circle r="10" clip-path="url(#clipPath2)" cx="345.2288" cy="225.0786" stroke="none"/>
    </g>
    <g text-rendering="geometricPrecision" stroke-miterlimit="1.45" shape-rendering="geometricPrecision" font-family="sans-serif" transform="matrix(1,0,0,1,-133,48)" stroke-linecap="butt">
      <text x="298.3391" xml:space="preserve" y="206.5474" clip-path="url(#clipPath2)" stroke="none">:alcide_platform</text>
      <circle fill="none" stroke-width="3" r="10" clip-path="url(#clipPath2)" cx="345.2288" cy="225.0786"/>
      <text x="630.4724" xml:space="preserve" y="62.4805" clip-path="url(#clipPath2)" stroke="none">2018/12/31^^xsd:date</text>
      <text x="150.8831" xml:space="preserve" y="61.3594" clip-path="url(#clipPath2)" stroke="none">2015/01/01^^xsd:date</text>
      <text x="636.16" xml:space="preserve" y="-19.1659" clip-path="url(#clipPath2)" stroke="none">"ALCIDE </text>
      <text x="636.16" xml:space="preserve" y="-5.0331" clip-path="url(#clipPath2)" stroke="none">(Analysis of Language </text>
      <text x="636.16" xml:space="preserve" y="9.0997" clip-path="url(#clipPath2)" stroke="none">and Content In a </text>
      <text x="636.16" xml:space="preserve" y="23.2325" clip-path="url(#clipPath2)" stroke="none">Digital Environment)"@en</text>
    </g>
    <g fill="rgb(255,153,204)" text-rendering="geometricPrecision" shape-rendering="geometricPrecision" transform="matrix(1,0,0,1,-133,48)" stroke="rgb(255,153,204)">
      <circle r="10" clip-path="url(#clipPath2)" cx="598.3397" cy="225.0786" stroke="none"/>
    </g>
    <g text-rendering="geometricPrecision" stroke-miterlimit="1.45" shape-rendering="geometricPrecision" font-family="sans-serif" transform="matrix(1,0,0,1,-133,48)" stroke-linecap="butt">
      <text x="550.0965" xml:space="preserve" y="206.5474" clip-path="url(#clipPath2)" stroke="none">:corpus_creation</text>
      <circle fill="none" stroke-width="3" r="10" clip-path="url(#clipPath2)" cx="598.3397" cy="225.0786"/>
    </g>
    <g fill="rgb(255,153,204)" text-rendering="geometricPrecision" shape-rendering="geometricPrecision" transform="matrix(1,0,0,1,-133,48)" stroke="rgb(255,153,204)">
      <circle r="10" clip-path="url(#clipPath2)" cx="598.3397" cy="125.0786" stroke="none"/>
    </g>
    <g text-rendering="geometricPrecision" stroke-miterlimit="1.45" shape-rendering="geometricPrecision" font-family="sans-serif" transform="matrix(1,0,0,1,-133,48)" stroke-linecap="butt">
      <text x="540.0945" xml:space="preserve" y="106.5474" clip-path="url(#clipPath2)" stroke="none">:edition_digitization</text>
      <circle fill="none" stroke-width="3" r="10" clip-path="url(#clipPath2)" cx="598.3397" cy="125.0786"/>
    </g>
    <g fill="rgb(255,153,204)" text-rendering="geometricPrecision" shape-rendering="geometricPrecision" transform="matrix(1,0,0,1,-133,48)" stroke="rgb(255,153,204)">
      <circle r="10" clip-path="url(#clipPath2)" cx="598.3397" cy="175.5605" stroke="none"/>
    </g>
    <g text-rendering="geometricPrecision" stroke-miterlimit="1.45" shape-rendering="geometricPrecision" font-family="sans-serif" transform="matrix(1,0,0,1,-133,48)" stroke-linecap="butt">
      <text x="544.8524" xml:space="preserve" y="157.0293" clip-path="url(#clipPath2)" stroke="none">:platform_creation</text>
      <circle fill="none" stroke-width="3" r="10" clip-path="url(#clipPath2)" cx="598.3397" cy="175.5605"/>
    </g>
    <g fill="yellow" text-rendering="geometricPrecision" shape-rendering="geometricPrecision" transform="matrix(1,0,0,1,-133,48)" stroke="yellow">
      <rect x="698.3263" y="160.4819" clip-path="url(#clipPath2)" width="205.4568" rx="4" ry="4" height="30.1573" stroke="none"/>
    </g>
    <g text-rendering="geometricPrecision" stroke-miterlimit="1.45" shape-rendering="geometricPrecision" font-family="sans-serif" transform="matrix(1,0,0,1,-133,48)" stroke-linecap="butt">
      <text x="702.7432" xml:space="preserve" y="180.0957" clip-path="url(#clipPath2)" stroke="none">crmdig:D7_Digital_Machine_Event</text>
      <rect x="698.3263" y="160.4819" clip-path="url(#clipPath2)" fill="none" width="205.4568" rx="4" ry="4" height="30.1573"/>
    </g>
    <g fill="rgb(255,153,204)" text-rendering="geometricPrecision" shape-rendering="geometricPrecision" transform="matrix(1,0,0,1,-133,48)" stroke="rgb(255,153,204)">
      <circle r="10" clip-path="url(#clipPath2)" cx="345.2288" cy="325.0786" stroke="none"/>
    </g>
    <g text-rendering="geometricPrecision" stroke-miterlimit="1.45" shape-rendering="geometricPrecision" font-family="sans-serif" transform="matrix(1,0,0,1,-133,48)" stroke-linecap="butt">
      <text x="291.8147" xml:space="preserve" y="306.5474" clip-path="url(#clipPath2)" stroke="none">:alcide_de_gasperi</text>
      <circle fill="none" stroke-width="3" r="10" clip-path="url(#clipPath2)" cx="345.2288" cy="325.0786"/>
      <path fill="none" d="M670.0899 295.0786 L635.7672 295.0786" clip-path="url(#clipPath2)"/>
      <path d="M627.7672 295.0786 L639.7672 300.0786 L636.7672 295.0786 L639.7672 290.0786 Z" clip-path="url(#clipPath2)" stroke="none"/>
      <path fill="none" d="M532.7596 415.9954 L478 415.9954" clip-path="url(#clipPath2)"/>
      <path d="M470 415.9954 L482 420.9954 L479 415.9954 L482 410.9954 Z" clip-path="url(#clipPath2)" stroke="none"/>
      <path fill="none" d="M254.3422 210.003 L328.4265 181.5351" clip-path="url(#clipPath2)"/>
      <path d="M335.8942 178.6656 L322.8993 178.3026 L327.4931 181.8938 L326.4862 187.6372 Z" clip-path="url(#clipPath2)" stroke="none"/>
      <path fill="none" d="M460 2.3935 L460 42" clip-path="url(#clipPath2)"/>
      <path d="M460 50 L465 38 L460 41 L455 38 Z" clip-path="url(#clipPath2)" stroke="none"/>
      <path fill="none" d="M465 72.6839 L465 295.0786 L596.7672 295.0786" clip-path="url(#clipPath2)" stroke="navy"/>
      <path fill="navy" d="M465 64.6839 C467.2091 64.6839 469 66.4748 469 68.6839 C469 70.893 467.2091 72.6839 465 72.6839 C462.7909 72.6839 461 70.893 461 68.6839 C461 66.4748 462.7909 64.6839 465 64.6839 Z" clip-path="url(#clipPath2)" stroke="none"/>
      <path fill="navy" d="M607.7672 295.0786 L595.7672 289.0786 L595.7672 301.0786 Z" clip-path="url(#clipPath2)" stroke="none"/>
      <rect x="486.3973" y="286.0122" clip-path="url(#clipPath2)" fill="white" width="94.2754" height="18.1328" stroke="none"/>
      <text fill="navy" x="488.3973" xml:space="preserve" y="299.6138" clip-path="url(#clipPath2)" stroke="none">prov:atLocation</text>
      <path fill="none" d="M460 74 L460 394.9954" clip-path="url(#clipPath2)" stroke="navy"/>
      <path fill="navy" d="M460 66 C462.2091 66 464 67.7909 464 70 C464 72.2091 462.2091 74 460 74 C457.7909 74 456 72.2091 456 70 C456 67.7909 457.7909 66 460 66 Z" clip-path="url(#clipPath2)" stroke="none"/>
      <path fill="navy" d="M460 405.9954 L466 393.9954 L454 393.9954 Z" clip-path="url(#clipPath2)" stroke="none"/>
      <rect x="387.8223" y="353.9983" clip-path="url(#clipPath2)" fill="white" width="144.3555" height="18.1328" stroke="none"/>
      <text fill="navy" x="389.8223" xml:space="preserve" y="367.5999" clip-path="url(#clipPath2)" stroke="none">prov:wasAssociatedWith</text>
      <path fill="none" d="M449.1495 67.3165 L440.5227 67.3223 L440.5227 175.0786 L366.2288 175.0786" clip-path="url(#clipPath2)" stroke="navy"/>
      <path fill="navy" d="M457.1495 67.3111 C457.151 69.5203 455.3613 71.3123 453.1522 71.3138 C450.9431 71.3153 449.151 69.5257 449.1495 67.3165 C449.148 65.1074 450.9377 63.3153 453.1468 63.3138 C455.356 63.3123 457.148 65.102 457.1495 67.3111 Z" clip-path="url(#clipPath2)" stroke="none"/>
      <path fill="navy" d="M355.2288 175.0786 L367.2288 181.0786 L367.2288 169.0786 Z" clip-path="url(#clipPath2)" stroke="none"/>
      <path fill="none" d="M460 74 L460 275.0786 L366.2288 275.0786" clip-path="url(#clipPath2)" stroke="navy"/>
      <path fill="navy" d="M460 66 C462.2091 66 464 67.7909 464 70 C464 72.2091 462.2091 74 460 74 C457.7909 74 456 72.2091 456 70 C456 67.7909 457.7909 66 460 66 Z" clip-path="url(#clipPath2)" stroke="none"/>
      <path fill="navy" d="M355.2288 275.0786 L367.2288 281.0786 L367.2288 269.0786 Z" clip-path="url(#clipPath2)" stroke="none"/>
      <rect x="386.569" y="266.0122" clip-path="url(#clipPath2)" fill="white" width="61.6445" height="18.1328" stroke="none"/>
      <text fill="navy" x="388.569" xml:space="preserve" y="279.6138" clip-path="url(#clipPath2)" stroke="none">prov:used</text>
      <path fill="none" d="M254.3422 240.1543 L328.4265 268.6222" clip-path="url(#clipPath2)"/>
      <path d="M335.8942 271.4917 L326.4862 262.5201 L327.4931 268.2635 L322.8993 271.8547 Z" clip-path="url(#clipPath2)" stroke="none"/>
      <path fill="none" d="M449.149 67.3223 L440.5227 67.3223 L440.5227 125.0786 L366.2288 125.0786" clip-path="url(#clipPath2)" stroke="navy"/>
      <path fill="navy" d="M457.149 67.3223 C457.149 69.5315 455.3582 71.3223 453.149 71.3223 C450.9399 71.3223 449.149 69.5315 449.149 67.3223 C449.149 65.1132 450.9399 63.3223 453.149 63.3223 C455.3582 63.3223 457.149 65.1132 457.149 67.3223 Z" clip-path="url(#clipPath2)" stroke="none"/>
      <path fill="navy" d="M355.2288 125.0786 L367.2288 131.0786 L367.2288 119.0786 Z" clip-path="url(#clipPath2)" stroke="none"/>
      <path fill="none" d="M225.1102 210.0152 L281.5 125.0786 L327.2288 125.0786" clip-path="url(#clipPath2)"/>
      <path d="M335.2288 125.0786 L323.2288 120.0786 L326.2288 125.0786 L323.2288 130.0786 Z" clip-path="url(#clipPath2)" stroke="none"/>
      <path fill="none" d="M448.8277 67.1015 L440.5227 67.3223 L440.5227 225.0786 L366.2288 225.0786" clip-path="url(#clipPath2)" stroke="navy"/>
      <path fill="navy" d="M456.8249 66.8888 C456.8836 69.0972 455.141 70.935 452.9326 70.9938 C450.7243 71.0525 448.8864 69.3099 448.8277 67.1015 C448.769 64.8931 450.5116 63.0553 452.72 62.9966 C454.9283 62.9379 456.7661 64.6805 456.8249 66.8888 Z" clip-path="url(#clipPath2)" stroke="none"/>
      <path fill="navy" d="M355.2288 225.0786 L367.2288 231.0786 L367.2288 219.0786 Z" clip-path="url(#clipPath2)" stroke="none"/>
    </g>
    <g stroke-linecap="butt" transform="matrix(0,1,-1,0,316.5891,147.9974)" fill="white" text-rendering="geometricPrecision" shape-rendering="geometricPrecision" stroke="white" stroke-miterlimit="1.45">
      <rect x="0" width="92.4062" height="18.1328" y="0" clip-path="url(#clipPath3)" stroke="none"/>
      <text x="2" y="13.6016" clip-path="url(#clipPath3)" fill="navy" font-family="sans-serif" stroke="none" xml:space="preserve">prov:generated</text>
    </g>
    <g text-rendering="geometricPrecision" stroke-miterlimit="1.45" shape-rendering="geometricPrecision" transform="matrix(1,0,0,1,-133,48)" stroke-linecap="butt">
      <path fill="none" d="M265.5879 225.0786 L327.2288 225.0786" clip-path="url(#clipPath2)"/>
      <path d="M335.2288 225.0786 L323.2288 220.0786 L326.2288 225.0786 L323.2288 230.0786 Z" clip-path="url(#clipPath2)" stroke="none"/>
      <path fill="none" d="M474 60 L610.079 60" clip-path="url(#clipPath2)" stroke="green"/>
    </g>
    <g stroke-linecap="butt" transform="matrix(1,0,0,1,-133,48)" fill-opacity="0" fill="rgb(0,0,0)" text-rendering="geometricPrecision" shape-rendering="geometricPrecision" stroke="rgb(0,0,0)" stroke-opacity="0" stroke-miterlimit="1.45">
      <path d="M466 60 C466 57.7909 467.7909 56 470 56 C472.2091 56 474 57.7909 474 60 C474 62.2091 472.2091 64 470 64 C467.7909 64 466 62.2091 466 60 Z" stroke="none" clip-path="url(#clipPath2)"/>
    </g>
    <g stroke-linecap="butt" transform="matrix(1,0,0,1,-133,48)" fill="green" text-rendering="geometricPrecision" shape-rendering="geometricPrecision" stroke="green" stroke-miterlimit="1.45">
      <path fill="none" d="M466 60 C466 57.7909 467.7909 56 470 56 C472.2091 56 474 57.7909 474 60 C474 62.2091 472.2091 64 470 64 C467.7909 64 466 62.2091 466 60 Z" clip-path="url(#clipPath2)"/>
      <path fill="white" d="M625.079 60 L609.079 54 L609.079 66 Z" clip-path="url(#clipPath2)" stroke="none"/>
      <path fill="none" d="M625.079 60 L609.079 54 L609.079 66 Z" clip-path="url(#clipPath2)"/>
      <rect x="491.8192" y="50.9336" clip-path="url(#clipPath2)" fill="white" width="111.4785" height="18.1328" stroke="none"/>
      <text x="493.8192" xml:space="preserve" y="64.5352" clip-path="url(#clipPath2)" font-family="sans-serif" stroke="none">prov:endedAtTime</text>
      <path fill="none" d="M446.0001 59.9711 L309.8827 58.9873" clip-path="url(#clipPath2)"/>
    </g>
    <g stroke-linecap="butt" transform="matrix(1,0,0,1,-133,48)" fill-opacity="0" fill="rgb(0,0,0)" text-rendering="geometricPrecision" shape-rendering="geometricPrecision" stroke="rgb(0,0,0)" stroke-opacity="0" stroke-miterlimit="1.45">
      <path d="M453.9999 60.0289 C453.9839 62.238 452.1802 64.0159 449.9711 63.9999 C447.762 63.9839 445.9841 62.1802 446.0001 59.9711 C446.0161 57.762 447.8198 55.9841 450.0289 56.0001 C452.238 56.0161 454.0159 57.8198 453.9999 60.0289 Z" stroke="none" clip-path="url(#clipPath2)"/>
    </g>
    <g stroke-linecap="butt" transform="matrix(1,0,0,1,-133,48)" fill="green" text-rendering="geometricPrecision" shape-rendering="geometricPrecision" stroke="green" stroke-miterlimit="1.45">
      <path fill="none" d="M453.9999 60.0289 C453.9839 62.238 452.1802 64.0159 449.9711 63.9999 C447.762 63.9839 445.9841 62.1802 446.0001 59.9711 C446.0161 57.762 447.8198 55.9841 450.0289 56.0001 C452.238 56.0161 454.0159 57.8198 453.9999 60.0289 Z" clip-path="url(#clipPath2)"/>
      <path fill="white" d="M294.8831 58.8789 L310.8393 64.9944 L310.9261 52.9947 Z" clip-path="url(#clipPath2)" stroke="none"/>
      <path fill="none" d="M294.8831 58.8789 L310.8393 64.9944 L310.9261 52.9947 Z" clip-path="url(#clipPath2)"/>
      <rect x="315.6128" y="50.383" clip-path="url(#clipPath2)" fill="white" width="116.4238" height="18.1328" stroke="none"/>
      <text x="317.6128" xml:space="preserve" y="63.9846" clip-path="url(#clipPath2)" font-family="sans-serif" stroke="none">prov:startedAtTime</text>
      <path fill="none" d="M470.4023 52.2995 L519.1323 52.2995 L519.1323 2.9125 L611.8253 2.9125" clip-path="url(#clipPath2)"/>
    </g>
    <g stroke-linecap="butt" transform="matrix(1,0,0,1,-133,48)" fill-opacity="0" fill="rgb(0,0,0)" text-rendering="geometricPrecision" shape-rendering="geometricPrecision" stroke="rgb(0,0,0)" stroke-opacity="0" stroke-miterlimit="1.45">
      <path d="M462.4023 52.2995 C462.4023 50.0903 464.1931 48.2995 466.4023 48.2995 C468.6114 48.2995 470.4023 50.0903 470.4023 52.2995 C470.4023 54.5086 468.6114 56.2995 466.4023 56.2995 C464.1931 56.2995 462.4023 54.5086 462.4023 52.2995 Z" stroke="none" clip-path="url(#clipPath2)"/>
    </g>
    <g stroke-linecap="butt" transform="matrix(1,0,0,1,-133,48)" fill="green" text-rendering="geometricPrecision" shape-rendering="geometricPrecision" stroke="green" stroke-miterlimit="1.45">
      <path fill="none" d="M462.4023 52.2995 C462.4023 50.0903 464.1931 48.2995 466.4023 48.2995 C468.6114 48.2995 470.4023 50.0903 470.4023 52.2995 C470.4023 54.5086 468.6114 56.2995 466.4023 56.2995 C464.1931 56.2995 462.4023 54.5086 462.4023 52.2995 Z" clip-path="url(#clipPath2)"/>
      <path fill="white" d="M626.8253 2.9125 L610.8253 -3.0875 L610.8253 8.9125 Z" clip-path="url(#clipPath2)" stroke="none"/>
      <path fill="none" d="M626.8253 2.9125 L610.8253 -3.0875 L610.8253 8.9125 Z" clip-path="url(#clipPath2)"/>
      <rect x="548.3791" y="-6.1539" clip-path="url(#clipPath2)" fill="white" width="48.584" height="18.1328" stroke="none"/>
      <text x="550.3792" xml:space="preserve" y="7.4476" clip-path="url(#clipPath2)" font-family="sans-serif" stroke="none">dct:title</text>
      <path fill="none" d="M472.4227 65.5223 L484.5107 65.7808 L484.5107 225.0786 L577.3397 225.0786" clip-path="url(#clipPath2)" stroke="navy"/>
      <path fill="navy" d="M464.4245 65.3513 C464.4717 63.1426 466.3005 61.3905 468.5091 61.4377 C470.7177 61.4849 472.4699 63.3137 472.4227 65.5223 C472.3754 67.7309 470.5467 69.4831 468.338 69.4359 C466.1294 69.3886 464.3773 67.5599 464.4245 65.3513 Z" clip-path="url(#clipPath2)" stroke="none"/>
      <path fill="navy" d="M588.3397 225.0786 L576.3397 219.0786 L576.3397 231.0786 Z" clip-path="url(#clipPath2)" stroke="none"/>
      <path fill="none" d="M472.2913 65.6681 L484.5107 65.7808 L484.5107 125.0786 L577.3397 125.0786" clip-path="url(#clipPath2)" stroke="navy"/>
      <path fill="navy" d="M464.2917 65.5944 C464.312 63.3853 466.1194 61.6111 468.3284 61.6314 C470.5374 61.6518 472.3117 63.4591 472.2913 65.6681 C472.271 67.8772 470.4637 69.6515 468.2546 69.6311 C466.0456 69.6107 464.2713 67.8034 464.2917 65.5944 Z" clip-path="url(#clipPath2)" stroke="none"/>
      <path fill="navy" d="M588.3397 125.0786 L576.3397 119.0786 L576.3397 131.0786 Z" clip-path="url(#clipPath2)" stroke="none"/>
      <path fill="none" d="M472.2289 65.7271 L484.5107 65.7808 L484.5107 175.5605 L577.3397 175.5605" clip-path="url(#clipPath2)" stroke="navy"/>
      <path fill="navy" d="M464.2289 65.692 C464.2386 63.4829 466.0373 61.6999 468.2464 61.7096 C470.4555 61.7193 472.2385 63.5179 472.2289 65.7271 C472.2192 67.9362 470.4205 69.7192 468.2114 69.7095 C466.0023 69.6998 464.2192 67.9012 464.2289 65.692 Z" clip-path="url(#clipPath2)" stroke="none"/>
      <path fill="navy" d="M588.3397 175.5605 L576.3397 169.5605 L576.3397 181.5605 Z" clip-path="url(#clipPath2)" stroke="none"/>
    </g>
    <g stroke-linecap="butt" transform="matrix(0,1,-1,0,360.5771,131.7018)" fill="white" text-rendering="geometricPrecision" shape-rendering="geometricPrecision" stroke="white" stroke-miterlimit="1.45">
      <rect x="0" width="122.043" height="18.1328" y="0" clip-path="url(#clipPath4)" stroke="none"/>
      <text x="2" y="13.6016" clip-path="url(#clipPath4)" fill="navy" font-family="sans-serif" stroke="none" xml:space="preserve">prov:wasInformedBy</text>
    </g>
    <g text-rendering="geometricPrecision" stroke-miterlimit="1.45" shape-rendering="geometricPrecision" transform="matrix(1,0,0,1,-133,48)" stroke-linecap="butt">
      <path fill="none" d="M740.5024 160.4813 L615.8062 129.4283" clip-path="url(#clipPath2)"/>
      <path d="M608.0433 127.4951 L618.4794 135.2467 L616.7766 129.67 L620.8959 125.5431 Z" clip-path="url(#clipPath2)" stroke="none"/>
      <path fill="none" d="M698.3609 175.5605 L616.3397 175.5605" clip-path="url(#clipPath2)"/>
      <path d="M608.3397 175.5605 L620.3397 180.5605 L617.3397 175.5605 L620.3397 170.5605 Z" clip-path="url(#clipPath2)" stroke="none"/>
      <path fill="none" d="M739.3147 190.642 L615.8256 220.8073" clip-path="url(#clipPath2)"/>
      <path d="M608.0541 222.7057 L620.8978 224.7153 L616.797 220.57 L618.5248 215.0009 Z" clip-path="url(#clipPath2)" stroke="none"/>
      <path fill="none" d="M224.3036 240.1421 L276.1454 325.0786 L327.2288 325.0786" clip-path="url(#clipPath2)"/>
      <path d="M335.2288 325.0786 L323.2288 320.0786 L326.2288 325.0786 L323.2288 330.0786 Z" clip-path="url(#clipPath2)" stroke="none"/>
      <path fill="none" d="M460 74 L460 325.0786 L366.2288 325.0786" clip-path="url(#clipPath2)" stroke="navy"/>
      <path fill="navy" d="M460 66 C462.2091 66 464 67.7909 464 70 C464 72.2091 462.2091 74 460 74 C457.7909 74 456 72.2091 456 70 C456 67.7909 457.7909 66 460 66 Z" clip-path="url(#clipPath2)" stroke="none"/>
      <path fill="navy" d="M355.2288 325.0786 L367.2288 331.0786 L367.2288 319.0786 Z" clip-path="url(#clipPath2)" stroke="none"/>
      <rect x="378.4337" y="316.0122" clip-path="url(#clipPath2)" fill="white" width="68.0723" height="18.1328" stroke="none"/>
      <text x="380.4337" y="329.6138" clip-path="url(#clipPath2)" fill="navy" font-family="sans-serif" stroke="none" xml:space="preserve">dct:subject</text>
    </g>
  </g>
</svg>
