<?xml version="1.0" encoding="UTF-8"?><svg xmlns="http://www.w3.org/2000/svg" xmlns:xlink="http://www.w3.org/1999/xlink" fill-opacity="1" color-rendering="auto" color-interpolation="auto" text-rendering="auto" stroke="black" stroke-linecap="square" width="1446" stroke-miterlimit="10" shape-rendering="auto" stroke-opacity="1" fill="black" stroke-dasharray="none" font-weight="normal" stroke-width="1" height="371" font-family="'Dialog'" font-style="normal" stroke-linejoin="miter" font-size="12px" stroke-dashoffset="0" image-rendering="auto">
  <!--Generated by ySVG 2.6-->
  <defs id="genericDefs"/>
  <g>
    <defs id="defs1">
      <clipPath clipPathUnits="userSpaceOnUse" id="clipPath1">
        <path d="M0 0 L1446 0 L1446 371 L0 371 L0 0 Z"/>
      </clipPath>
      <clipPath clipPathUnits="userSpaceOnUse" id="clipPath2">
        <path d="M323 10 L1769 10 L1769 381 L323 381 L323 10 Z"/>
      </clipPath>
    </defs>
    <g fill="white" text-rendering="geometricPrecision" shape-rendering="geometricPrecision" transform="translate(-323,-10)" stroke="white">
      <rect x="323" width="1446" height="371" y="10" clip-path="url(#clipPath2)" stroke="none"/>
    </g>
    <g fill="yellow" text-rendering="geometricPrecision" shape-rendering="geometricPrecision" transform="matrix(1,0,0,1,-323,-10)" stroke="yellow">
      <rect x="338.6936" y="31.1751" clip-path="url(#clipPath2)" width="148.0321" rx="4" ry="4" height="58" stroke="none"/>
    </g>
    <g font-size="16px" stroke-linecap="butt" transform="matrix(1,0,0,1,-323,-10)" text-rendering="geometricPrecision" font-family="sans-serif" shape-rendering="geometricPrecision" stroke-miterlimit="1.45">
      <text x="364.0573" xml:space="preserve" y="56.8001" clip-path="url(#clipPath2)" stroke="none">dcat:Catalog</text>
      <text x="371.0378" xml:space="preserve" y="75.6438" clip-path="url(#clipPath2)" stroke="none">prov:Entity</text>
      <rect x="338.6936" y="31.1751" clip-path="url(#clipPath2)" fill="none" width="148.0321" rx="4" ry="4" height="58"/>
    </g>
    <g fill="yellow" text-rendering="geometricPrecision" shape-rendering="geometricPrecision" transform="matrix(1,0,0,1,-323,-10)" stroke="yellow">
      <rect x="671.4688" y="31.1751" clip-path="url(#clipPath2)" width="143.9826" rx="4" ry="4" height="58" stroke="none"/>
    </g>
    <g font-size="16px" stroke-linecap="butt" transform="matrix(1,0,0,1,-323,-10)" text-rendering="geometricPrecision" font-family="sans-serif" shape-rendering="geometricPrecision" stroke-miterlimit="1.45">
      <text x="695.0382" xml:space="preserve" y="56.8001" clip-path="url(#clipPath2)" stroke="none">dcat:Dataset</text>
      <text x="701.7882" xml:space="preserve" y="75.6438" clip-path="url(#clipPath2)" stroke="none">prov:Entity</text>
      <rect x="671.4688" y="31.1751" clip-path="url(#clipPath2)" fill="none" width="143.9826" rx="4" ry="4" height="58"/>
    </g>
    <g fill="yellow" text-rendering="geometricPrecision" shape-rendering="geometricPrecision" transform="matrix(1,0,0,1,-323,-10)" stroke="yellow">
      <rect x="874.9631" y="31.1751" clip-path="url(#clipPath2)" width="143.9826" rx="4" ry="4" height="58" stroke="none"/>
    </g>
    <g font-size="16px" stroke-linecap="butt" transform="matrix(1,0,0,1,-323,-10)" text-rendering="geometricPrecision" font-family="sans-serif" shape-rendering="geometricPrecision" stroke-miterlimit="1.45">
      <text x="883.013" xml:space="preserve" y="56.8001" clip-path="url(#clipPath2)" stroke="none">dcat:DataService</text>
      <text x="905.2825" xml:space="preserve" y="75.6438" clip-path="url(#clipPath2)" stroke="none">prov:Entity</text>
      <rect x="874.9631" y="31.1751" clip-path="url(#clipPath2)" fill="none" width="143.9826" rx="4" ry="4" height="58"/>
    </g>
    <g fill="yellow" text-rendering="geometricPrecision" shape-rendering="geometricPrecision" transform="matrix(1,0,0,1,-323,-10)" stroke="yellow">
      <rect x="1147.427" y="31.1751" clip-path="url(#clipPath2)" width="137.4774" rx="4" ry="4" height="58" stroke="none"/>
    </g>
    <g font-size="16px" stroke-linecap="butt" transform="matrix(1,0,0,1,-323,-10)" text-rendering="geometricPrecision" font-family="sans-serif" shape-rendering="geometricPrecision" stroke-miterlimit="1.45">
      <text x="1167.7242" xml:space="preserve" y="66.2219" clip-path="url(#clipPath2)" stroke="none">prov:Activity</text>
      <rect x="1147.427" y="31.1751" clip-path="url(#clipPath2)" fill="none" width="137.4774" rx="4" ry="4" height="58"/>
    </g>
    <g fill="rgb(255,153,204)" text-rendering="geometricPrecision" shape-rendering="geometricPrecision" transform="matrix(1,0,0,1,-323,-10)" stroke="rgb(255,153,204)">
      <circle r="10" clip-path="url(#clipPath2)" cx="743.4601" cy="158" stroke="none"/>
    </g>
    <g font-size="16px" stroke-linecap="butt" transform="matrix(1,0,0,1,-323,-10)" text-rendering="geometricPrecision" font-family="sans-serif" shape-rendering="geometricPrecision" stroke-miterlimit="1.45">
      <text x="759.4601" xml:space="preserve" y="185.4688" clip-path="url(#clipPath2)" stroke="none">Dataset of images</text>
      <circle fill="none" stroke-width="3" r="10" clip-path="url(#clipPath2)" cx="743.4601" cy="158"/>
    </g>
    <g fill="rgb(255,153,204)" text-rendering="geometricPrecision" shape-rendering="geometricPrecision" transform="matrix(1,0,0,1,-323,-10)" stroke="rgb(255,153,204)">
      <circle r="10" clip-path="url(#clipPath2)" cx="412.7097" cy="158" stroke="none"/>
    </g>
    <g font-size="16px" stroke-linecap="butt" transform="matrix(1,0,0,1,-323,-10)" text-rendering="geometricPrecision" font-family="sans-serif" shape-rendering="geometricPrecision" stroke-miterlimit="1.45">
      <text x="428.7097" xml:space="preserve" y="142.625" clip-path="url(#clipPath2)" stroke="none">Website (research project as container)</text>
      <circle fill="none" stroke-width="3" r="10" clip-path="url(#clipPath2)" cx="412.7097" cy="158"/>
    </g>
    <g fill="rgb(255,153,204)" text-rendering="geometricPrecision" shape-rendering="geometricPrecision" transform="matrix(1,0,0,1,-323,-10)" stroke="rgb(255,153,204)">
      <circle r="10" clip-path="url(#clipPath2)" cx="946.9544" cy="158" stroke="none"/>
    </g>
    <g font-size="16px" stroke-linecap="butt" transform="matrix(1,0,0,1,-323,-10)" text-rendering="geometricPrecision" font-family="sans-serif" shape-rendering="geometricPrecision" stroke-miterlimit="1.45">
      <text x="962.9544" xml:space="preserve" y="142.625" clip-path="url(#clipPath2)" stroke="none">Search and analysis interface</text>
      <circle fill="none" stroke-width="3" r="10" clip-path="url(#clipPath2)" cx="946.9544" cy="158"/>
    </g>
    <g fill="rgb(255,153,204)" text-rendering="geometricPrecision" shape-rendering="geometricPrecision" transform="matrix(1,0,0,1,-323,-10)" stroke="rgb(255,153,204)">
      <circle r="10" clip-path="url(#clipPath2)" cx="1216.1657" cy="158" stroke="none"/>
    </g>
    <g font-size="16px" stroke-linecap="butt" transform="matrix(1,0,0,1,-323,-10)" text-rendering="geometricPrecision" font-family="sans-serif" shape-rendering="geometricPrecision" stroke-miterlimit="1.45">
      <text x="1232.1656" xml:space="preserve" y="142.625" clip-path="url(#clipPath2)" stroke="none">Research Project (activity)</text>
      <circle fill="none" stroke-width="3" r="10" clip-path="url(#clipPath2)" cx="1216.1657" cy="158"/>
    </g>
    <g fill="yellow" text-rendering="geometricPrecision" shape-rendering="geometricPrecision" transform="matrix(1,0,0,1,-323,-10)" stroke="yellow">
      <rect x="1442.5987" y="25.813" clip-path="url(#clipPath2)" width="137.4774" rx="4" ry="4" height="58" stroke="none"/>
    </g>
    <g font-size="16px" stroke-linecap="butt" transform="matrix(1,0,0,1,-323,-10)" text-rendering="geometricPrecision" font-family="sans-serif" shape-rendering="geometricPrecision" stroke-miterlimit="1.45">
      <text x="1469.6655" xml:space="preserve" y="60.8599" clip-path="url(#clipPath2)" stroke="none">prov:Entity</text>
      <rect x="1442.5987" y="25.813" clip-path="url(#clipPath2)" fill="none" width="137.4774" rx="4" ry="4" height="58"/>
    </g>
    <g fill="rgb(255,153,204)" text-rendering="geometricPrecision" shape-rendering="geometricPrecision" transform="matrix(1,0,0,1,-323,-10)" stroke="rgb(255,153,204)">
      <circle r="10" clip-path="url(#clipPath2)" cx="1511.3374" cy="158" stroke="none"/>
    </g>
    <g font-size="16px" stroke-linecap="butt" transform="matrix(1,0,0,1,-323,-10)" text-rendering="geometricPrecision" font-family="sans-serif" shape-rendering="geometricPrecision" stroke-miterlimit="1.45">
      <text x="1527.3374" xml:space="preserve" y="123.7812" clip-path="url(#clipPath2)" stroke="none">Italian medieval architecture </text>
      <text x="1570.7437" xml:space="preserve" y="142.625" clip-path="url(#clipPath2)" stroke="none">(research subject)</text>
      <circle fill="none" stroke-width="3" r="10" clip-path="url(#clipPath2)" cx="1511.3374" cy="158"/>
    </g>
    <g fill="rgb(255,153,204)" text-rendering="geometricPrecision" shape-rendering="geometricPrecision" transform="matrix(1,0,0,1,-323,-10)" stroke="rgb(255,153,204)">
      <circle r="10" clip-path="url(#clipPath2)" cx="1511.3374" cy="242.187" stroke="none"/>
    </g>
    <g font-size="16px" stroke-linecap="butt" transform="matrix(1,0,0,1,-323,-10)" text-rendering="geometricPrecision" font-family="sans-serif" shape-rendering="geometricPrecision" stroke-miterlimit="1.45">
      <text x="1527.3374" xml:space="preserve" y="207.9682" clip-path="url(#clipPath2)" stroke="none">Existing image </text>
      <text x="1545.4819" xml:space="preserve" y="226.812" clip-path="url(#clipPath2)" stroke="none">collections</text>
      <circle fill="none" stroke-width="3" r="10" clip-path="url(#clipPath2)" cx="1511.3374" cy="242.187"/>
    </g>
    <g fill="yellow" text-rendering="geometricPrecision" shape-rendering="geometricPrecision" transform="matrix(1,0,0,1,-323,-10)" stroke="yellow">
      <rect x="1442.5987" y="307.374" clip-path="url(#clipPath2)" width="137.4774" rx="4" ry="4" height="58" stroke="none"/>
    </g>
    <g font-size="16px" stroke-linecap="butt" transform="matrix(1,0,0,1,-323,-10)" text-rendering="geometricPrecision" font-family="sans-serif" shape-rendering="geometricPrecision" stroke-miterlimit="1.45">
      <text x="1469.6655" xml:space="preserve" y="342.4209" clip-path="url(#clipPath2)" stroke="none">prov:Entity</text>
      <rect x="1442.5987" y="307.374" clip-path="url(#clipPath2)" fill="none" width="137.4774" rx="4" ry="4" height="58"/>
      <path fill="none" d="M743.4601 89.1751 L743.4601 140" clip-path="url(#clipPath2)"/>
      <path d="M743.4601 148 L748.4601 136 L743.4601 139 L738.4601 136 Z" stroke="none" clip-path="url(#clipPath2)"/>
      <path fill="none" d="M412.7097 89.1751 L412.7097 140" clip-path="url(#clipPath2)"/>
      <path d="M412.7097 148 L417.7097 136 L412.7097 139 L407.7097 136 Z" stroke="none" clip-path="url(#clipPath2)"/>
      <path fill="none" d="M946.9544 89.1751 L946.9544 140" clip-path="url(#clipPath2)"/>
      <path d="M946.9544 148 L951.9544 136 L946.9544 139 L941.9544 136 Z" stroke="none" clip-path="url(#clipPath2)"/>
      <path fill="none" d="M1216.1656 89.1751 L1216.1656 140" clip-path="url(#clipPath2)"/>
      <path d="M1216.1656 148 L1221.1656 136 L1216.1656 139 L1211.1656 136 Z" stroke="none" clip-path="url(#clipPath2)"/>
    </g>
    <g stroke-linecap="butt" transform="matrix(1,0,0,1,-323,-10)" fill="navy" text-rendering="geometricPrecision" shape-rendering="geometricPrecision" stroke="navy" stroke-miterlimit="1.45">
      <path fill="none" d="M967.9544 158 L1202.1656 158" clip-path="url(#clipPath2)"/>
      <path d="M956.9544 158 L968.9544 164 L968.9544 152 Z" clip-path="url(#clipPath2)" stroke="none"/>
      <path d="M1210.1656 158 C1210.1656 160.2091 1208.3748 162 1206.1656 162 C1203.9565 162 1202.1656 160.2091 1202.1656 158 C1202.1656 155.7909 1203.9565 154 1206.1656 154 C1208.3748 154 1210.1656 155.7909 1210.1656 158 Z" clip-path="url(#clipPath2)" stroke="none"/>
      <rect x="1035.3569" y="148.9336" clip-path="url(#clipPath2)" fill="white" width="92.4062" height="18.1328" stroke="none"/>
      <text x="1037.3569" xml:space="preserve" y="162.5352" clip-path="url(#clipPath2)" font-family="sans-serif" stroke="none">prov:generated</text>
      <path fill="none" d="M748.4601 174.695 L748.4601 206.3438 L1211.1656 206.3438 L1211.1656 170.695" clip-path="url(#clipPath2)"/>
      <path d="M748.4601 166.695 L743.4601 178.695 L748.4601 175.695 L753.4601 178.695 Z" clip-path="url(#clipPath2)" stroke="none"/>
      <path d="M1211.1656 162.695 C1213.3748 162.695 1215.1656 164.4859 1215.1656 166.695 C1215.1656 168.9041 1213.3748 170.695 1211.1656 170.695 C1208.9565 170.695 1207.1656 168.9041 1207.1656 166.695 C1207.1656 164.4859 1208.9565 162.695 1211.1656 162.695 Z" clip-path="url(#clipPath2)" stroke="none"/>
      <rect x="933.6098" y="197.2773" clip-path="url(#clipPath2)" fill="white" width="92.4062" height="18.1328" stroke="none"/>
      <text x="935.6098" xml:space="preserve" y="210.8789" clip-path="url(#clipPath2)" font-family="sans-serif" stroke="none">prov:generated</text>
      <path fill="none" d="M417.7097 177.6834 L417.7097 222.3438 L1221.1656 222.3438 L1221.1656 170.6834" clip-path="url(#clipPath2)"/>
      <path d="M417.7097 166.6834 L411.7097 178.6834 L423.7097 178.6834 Z" clip-path="url(#clipPath2)" stroke="none"/>
      <path d="M1221.1656 162.6834 C1223.3748 162.6834 1225.1656 164.4743 1225.1656 166.6834 C1225.1656 168.8926 1223.3748 170.6834 1221.1656 170.6834 C1218.9565 170.6834 1217.1656 168.8926 1217.1656 166.6834 C1217.1656 164.4743 1218.9565 162.6834 1221.1656 162.6834 Z" clip-path="url(#clipPath2)" stroke="none"/>
      <rect x="773.2346" y="213.2773" clip-path="url(#clipPath2)" fill="white" width="92.4062" height="18.1328" stroke="none"/>
      <text x="775.2346" xml:space="preserve" y="226.8789" clip-path="url(#clipPath2)" font-family="sans-serif" stroke="none">prov:generated</text>
      <path fill="none" d="M1511.3374 83.8092 L1511.3374 140" clip-path="url(#clipPath2)" stroke="black"/>
      <path fill="black" d="M1511.3374 148 L1516.3374 136 L1511.3374 139 L1506.3374 136 Z" clip-path="url(#clipPath2)" stroke="none"/>
      <path fill="none" d="M1230.1656 158 L1490.3374 158" clip-path="url(#clipPath2)"/>
      <path d="M1222.1656 158 C1222.1656 155.7909 1223.9565 154 1226.1656 154 C1228.3748 154 1230.1656 155.7909 1230.1656 158 C1230.1656 160.2091 1228.3748 162 1226.1656 162 C1223.9565 162 1222.1656 160.2091 1222.1656 158 Z" clip-path="url(#clipPath2)" stroke="none"/>
      <path d="M1501.3374 158 L1489.3374 152 L1489.3374 164 Z" clip-path="url(#clipPath2)" stroke="none"/>
      <rect x="1298.8746" y="148.9336" clip-path="url(#clipPath2)" fill="white" width="129.7539" height="18.1328" stroke="none"/>
      <text x="1300.8746" xml:space="preserve" y="162.5352" clip-path="url(#clipPath2)" font-family="sans-serif" stroke="none">prov:wasInfluencedBy</text>
      <path fill="none" d="M1216.1656 172 L1216.1656 242.187 L1490.3374 242.187" clip-path="url(#clipPath2)"/>
      <path d="M1216.1656 164 C1218.3748 164 1220.1656 165.7909 1220.1656 168 C1220.1656 170.2091 1218.3748 172 1216.1656 172 C1213.9565 172 1212.1656 170.2091 1212.1656 168 C1212.1656 165.7909 1213.9565 164 1216.1656 164 Z" clip-path="url(#clipPath2)" stroke="none"/>
      <path d="M1501.3374 242.187 L1489.3374 236.187 L1489.3374 248.187 Z" clip-path="url(#clipPath2)" stroke="none"/>
      <rect x="1323.3668" y="233.1206" clip-path="url(#clipPath2)" fill="white" width="61.6445" height="18.1328" stroke="none"/>
      <text x="1325.3668" xml:space="preserve" y="246.7222" clip-path="url(#clipPath2)" font-family="sans-serif" stroke="none">prov:used</text>
      <path fill="none" d="M743.4601 172 L743.4601 215.5498 L1511.3374 215.5498 L1511.3374 221.187" clip-path="url(#clipPath2)"/>
      <path d="M743.4601 164 C745.6693 164 747.4601 165.7909 747.4601 168 C747.4601 170.2091 745.6693 172 743.4601 172 C741.2509 172 739.4601 170.2091 739.4601 168 C739.4601 165.7909 741.2509 164 743.4601 164 Z" clip-path="url(#clipPath2)" stroke="none"/>
      <path d="M1511.3374 232.187 L1517.3374 220.187 L1505.3374 220.187 Z" clip-path="url(#clipPath2)" stroke="none"/>
      <rect x="1318.7847" y="206.4834" clip-path="url(#clipPath2)" fill="white" width="130.252" height="18.1328" stroke="none"/>
      <text x="1320.7847" xml:space="preserve" y="220.085" clip-path="url(#clipPath2)" font-family="sans-serif" stroke="none">prov:wasDerivedFrom</text>
      <path fill="none" d="M1511.3374 307.3545 L1511.3374 260.187" clip-path="url(#clipPath2)" stroke="black"/>
      <path fill="black" d="M1511.3374 252.187 L1506.3374 264.187 L1511.3374 261.187 L1516.3374 264.187 Z" clip-path="url(#clipPath2)" stroke="none"/>
    </g>
  </g>
</svg>
