<?xml version="1.0" encoding="UTF-8"?><svg xmlns="http://www.w3.org/2000/svg" xmlns:xlink="http://www.w3.org/1999/xlink" fill-opacity="1" color-rendering="auto" color-interpolation="auto" text-rendering="auto" stroke="black" stroke-linecap="square" width="1463" stroke-miterlimit="10" shape-rendering="auto" stroke-opacity="1" fill="black" stroke-dasharray="none" font-weight="normal" stroke-width="1" height="263" font-family="'Dialog'" font-style="normal" stroke-linejoin="miter" font-size="12px" stroke-dashoffset="0" image-rendering="auto">
  <!--Generated by ySVG 2.6-->
  <defs id="genericDefs"/>
  <g>
    <defs id="defs1">
      <clipPath clipPathUnits="userSpaceOnUse" id="clipPath1">
        <path d="M0 0 L1463 0 L1463 263 L0 263 L0 0 Z"/>
      </clipPath>
      <clipPath clipPathUnits="userSpaceOnUse" id="clipPath2">
        <path d="M-15 16 L1448 16 L1448 279 L-15 279 L-15 16 Z"/>
      </clipPath>
    </defs>
    <g fill="white" text-rendering="geometricPrecision" shape-rendering="geometricPrecision" transform="translate(15,-16)" stroke="white">
      <rect x="-15" width="1463" height="263" y="16" clip-path="url(#clipPath2)" stroke="none"/>
    </g>
    <g fill="yellow" text-rendering="geometricPrecision" shape-rendering="geometricPrecision" transform="matrix(1,0,0,1,15,-16)" stroke="yellow">
      <rect x="0" y="31.1751" clip-path="url(#clipPath2)" width="148.0321" rx="4" ry="4" height="58" stroke="none"/>
    </g>
    <g font-size="16px" stroke-linecap="butt" transform="matrix(1,0,0,1,15,-16)" text-rendering="geometricPrecision" font-family="sans-serif" shape-rendering="geometricPrecision" stroke-miterlimit="1.45">
      <text x="25.3637" xml:space="preserve" y="66.2219" clip-path="url(#clipPath2)" stroke="none">dcat:Catalog</text>
      <rect x="0" y="31.1751" clip-path="url(#clipPath2)" fill="none" width="148.0321" rx="4" ry="4" height="58"/>
    </g>
    <g fill="yellow" text-rendering="geometricPrecision" shape-rendering="geometricPrecision" transform="matrix(1,0,0,1,15,-16)" stroke="yellow">
      <rect x="347.7752" y="31.1751" clip-path="url(#clipPath2)" width="143.9826" rx="4" ry="4" height="58" stroke="none"/>
    </g>
    <g font-size="16px" stroke-linecap="butt" transform="matrix(1,0,0,1,15,-16)" text-rendering="geometricPrecision" font-family="sans-serif" shape-rendering="geometricPrecision" stroke-miterlimit="1.45">
      <text x="371.3446" xml:space="preserve" y="66.2219" clip-path="url(#clipPath2)" stroke="none">dcat:Dataset</text>
      <rect x="347.7752" y="31.1751" clip-path="url(#clipPath2)" fill="none" width="143.9826" rx="4" ry="4" height="58"/>
    </g>
    <g fill="yellow" text-rendering="geometricPrecision" shape-rendering="geometricPrecision" transform="matrix(1,0,0,1,15,-16)" stroke="yellow">
      <rect x="874.9631" y="31.1751" clip-path="url(#clipPath2)" width="143.9826" rx="4" ry="4" height="58" stroke="none"/>
    </g>
    <g font-size="16px" stroke-linecap="butt" transform="matrix(1,0,0,1,15,-16)" text-rendering="geometricPrecision" font-family="sans-serif" shape-rendering="geometricPrecision" stroke-miterlimit="1.45">
      <text x="883.013" xml:space="preserve" y="66.2219" clip-path="url(#clipPath2)" stroke="none">dcat:DataService</text>
      <rect x="874.9631" y="31.1751" clip-path="url(#clipPath2)" fill="none" width="143.9826" rx="4" ry="4" height="58"/>
    </g>
    <g fill="yellow" text-rendering="geometricPrecision" shape-rendering="geometricPrecision" transform="matrix(1,0,0,1,15,-16)" stroke="yellow">
      <rect x="603.727" y="31.1751" clip-path="url(#clipPath2)" width="148.0321" rx="4" ry="4" height="58" stroke="none"/>
    </g>
    <g font-size="16px" stroke-linecap="butt" transform="matrix(1,0,0,1,15,-16)" text-rendering="geometricPrecision" font-family="sans-serif" shape-rendering="geometricPrecision" stroke-miterlimit="1.45">
      <text x="612.5243" xml:space="preserve" y="66.2219" clip-path="url(#clipPath2)" stroke="none">dcat:Distribution</text>
      <rect x="603.727" y="31.1751" clip-path="url(#clipPath2)" fill="none" width="148.0321" rx="4" ry="4" height="58"/>
    </g>
    <g fill="yellow" text-rendering="geometricPrecision" shape-rendering="geometricPrecision" transform="matrix(1,0,0,1,15,-16)" stroke="yellow">
      <rect x="1147.427" y="31.1751" clip-path="url(#clipPath2)" width="137.4774" rx="4" ry="4" height="58" stroke="none"/>
    </g>
    <g font-size="16px" stroke-linecap="butt" transform="matrix(1,0,0,1,15,-16)" text-rendering="geometricPrecision" font-family="sans-serif" shape-rendering="geometricPrecision" stroke-miterlimit="1.45">
      <text x="1167.7242" xml:space="preserve" y="66.2219" clip-path="url(#clipPath2)" stroke="none">prov:Activity</text>
      <rect x="1147.427" y="31.1751" clip-path="url(#clipPath2)" fill="none" width="137.4774" rx="4" ry="4" height="58"/>
    </g>
    <g fill="rgb(255,153,204)" text-rendering="geometricPrecision" shape-rendering="geometricPrecision" transform="matrix(1,0,0,1,15,-16)" stroke="rgb(255,153,204)">
      <circle r="10" clip-path="url(#clipPath2)" cx="419.7665" cy="158" stroke="none"/>
    </g>
    <g font-size="16px" stroke-linecap="butt" transform="matrix(1,0,0,1,15,-16)" text-rendering="geometricPrecision" font-family="sans-serif" shape-rendering="geometricPrecision" stroke-miterlimit="1.45">
      <text x="435.7665" xml:space="preserve" y="185.4688" clip-path="url(#clipPath2)" stroke="none">Dataset of images</text>
      <circle fill="none" stroke-width="3" r="10" clip-path="url(#clipPath2)" cx="419.7665" cy="158"/>
    </g>
    <g fill="rgb(255,153,204)" text-rendering="geometricPrecision" shape-rendering="geometricPrecision" transform="matrix(1,0,0,1,15,-16)" stroke="rgb(255,153,204)">
      <circle r="10" clip-path="url(#clipPath2)" cx="74.016" cy="158" stroke="none"/>
    </g>
    <g font-size="16px" stroke-linecap="butt" transform="matrix(1,0,0,1,15,-16)" text-rendering="geometricPrecision" font-family="sans-serif" shape-rendering="geometricPrecision" stroke-miterlimit="1.45">
      <text x="90.016" xml:space="preserve" y="142.625" clip-path="url(#clipPath2)" stroke="none">Website (research project as container)</text>
      <circle fill="none" stroke-width="3" r="10" clip-path="url(#clipPath2)" cx="74.016" cy="158"/>
    </g>
    <g fill="rgb(255,153,204)" text-rendering="geometricPrecision" shape-rendering="geometricPrecision" transform="matrix(1,0,0,1,15,-16)" stroke="rgb(255,153,204)">
      <circle r="10" clip-path="url(#clipPath2)" cx="946.9544" cy="158" stroke="none"/>
    </g>
    <g font-size="16px" stroke-linecap="butt" transform="matrix(1,0,0,1,15,-16)" text-rendering="geometricPrecision" font-family="sans-serif" shape-rendering="geometricPrecision" stroke-miterlimit="1.45">
      <text x="962.9544" xml:space="preserve" y="142.625" clip-path="url(#clipPath2)" stroke="none">Search and analysis interface</text>
      <circle fill="none" stroke-width="3" r="10" clip-path="url(#clipPath2)" cx="946.9544" cy="158"/>
    </g>
    <g fill="rgb(255,153,204)" text-rendering="geometricPrecision" shape-rendering="geometricPrecision" transform="matrix(1,0,0,1,15,-16)" stroke="rgb(255,153,204)">
      <circle r="10" clip-path="url(#clipPath2)" cx="677.7431" cy="158" stroke="none"/>
    </g>
    <g font-size="16px" stroke-linecap="butt" transform="matrix(1,0,0,1,15,-16)" text-rendering="geometricPrecision" font-family="sans-serif" shape-rendering="geometricPrecision" stroke-miterlimit="1.45">
      <text x="693.743" xml:space="preserve" y="154.625" clip-path="url(#clipPath2)" stroke="none">Downloadable file containing </text>
      <text x="716.7821" xml:space="preserve" y="173.4688" clip-path="url(#clipPath2)" stroke="none">all imagesand metadata</text>
      <circle fill="none" stroke-width="3" r="10" clip-path="url(#clipPath2)" cx="677.7431" cy="158"/>
    </g>
    <g fill="rgb(255,153,204)" text-rendering="geometricPrecision" shape-rendering="geometricPrecision" transform="matrix(1,0,0,1,15,-16)" stroke="rgb(255,153,204)">
      <circle r="10" clip-path="url(#clipPath2)" cx="1216.1657" cy="158" stroke="none"/>
    </g>
    <g font-size="16px" stroke-linecap="butt" transform="matrix(1,0,0,1,15,-16)" text-rendering="geometricPrecision" font-family="sans-serif" shape-rendering="geometricPrecision" stroke-miterlimit="1.45">
      <text x="1232.1656" xml:space="preserve" y="142.625" clip-path="url(#clipPath2)" stroke="none">Research Project (activity)</text>
      <circle fill="none" stroke-width="3" r="10" clip-path="url(#clipPath2)" cx="1216.1657" cy="158"/>
      <path fill="none" d="M419.7665 89.1751 L419.7665 140" clip-path="url(#clipPath2)"/>
      <path d="M419.7665 148 L424.7665 136 L419.7665 139 L414.7665 136 Z" stroke="none" clip-path="url(#clipPath2)"/>
      <path fill="none" d="M74.016 89.1751 L74.016 140" clip-path="url(#clipPath2)"/>
      <path d="M74.016 148 L79.016 136 L74.016 139 L69.016 136 Z" stroke="none" clip-path="url(#clipPath2)"/>
    </g>
    <g stroke-linecap="butt" transform="matrix(1,0,0,1,15,-16)" fill="navy" text-rendering="geometricPrecision" shape-rendering="geometricPrecision" stroke="navy" stroke-miterlimit="1.45">
      <path fill="none" d="M88.016 158 L398.7665 158" clip-path="url(#clipPath2)"/>
      <path d="M80.016 158 C80.016 155.7909 81.8069 154 84.016 154 C86.2252 154 88.016 155.7909 88.016 158 C88.016 160.2091 86.2252 162 84.016 162 C81.8069 162 80.016 160.2091 80.016 158 Z" clip-path="url(#clipPath2)" stroke="none"/>
      <path d="M409.7665 158 L397.7665 152 L397.7665 164 Z" clip-path="url(#clipPath2)" stroke="none"/>
      <rect x="165.7161" y="148.9336" clip-path="url(#clipPath2)" fill="white" width="75.1973" height="18.1328" stroke="none"/>
      <text x="167.7161" xml:space="preserve" y="162.5352" clip-path="url(#clipPath2)" font-family="sans-serif" stroke="none">dcat:dataset</text>
      <path fill="none" d="M69.016 170.6991 L69.016 254.3438 L951.9544 254.3438 L951.9544 177.6991" clip-path="url(#clipPath2)"/>
      <path d="M69.016 162.6991 C71.2252 162.6991 73.016 164.4899 73.016 166.6991 C73.016 168.9082 71.2252 170.6991 69.016 170.6991 C66.8069 170.6991 65.016 168.9082 65.016 166.6991 C65.016 164.4899 66.8069 162.6991 69.016 162.6991 Z" clip-path="url(#clipPath2)" stroke="none"/>
      <path d="M951.9544 166.6991 L945.9544 178.6991 L957.9544 178.6991 Z" clip-path="url(#clipPath2)" stroke="none"/>
      <rect x="474.0672" y="245.2773" clip-path="url(#clipPath2)" fill="white" width="72.8359" height="18.1328" stroke="none"/>
      <text x="476.0672" xml:space="preserve" y="258.8789" clip-path="url(#clipPath2)" font-family="sans-serif" stroke="none">dcat:service</text>
      <path fill="none" d="M946.9544 89.1751 L946.9544 140" clip-path="url(#clipPath2)" stroke="black"/>
      <path fill="black" d="M946.9544 148 L951.9544 136 L946.9544 139 L941.9544 136 Z" clip-path="url(#clipPath2)" stroke="none"/>
      <path fill="none" d="M941.9544 170.6913 L941.9544 238.3438 L414.7665 238.3438 L414.7665 177.6913" clip-path="url(#clipPath2)"/>
      <path d="M941.9544 162.6913 C944.1636 162.6913 945.9544 164.4821 945.9544 166.6913 C945.9544 168.9004 944.1636 170.6913 941.9544 170.6913 C939.7452 170.6913 937.9544 168.9004 937.9544 166.6913 C937.9544 164.4821 939.7452 162.6913 941.9544 162.6913 Z" clip-path="url(#clipPath2)" stroke="none"/>
      <path d="M414.7665 166.6913 L408.7665 178.6913 L420.7665 178.6913 Z" clip-path="url(#clipPath2)" stroke="none"/>
      <rect x="621.6807" y="229.2773" clip-path="url(#clipPath2)" fill="white" width="113.3594" height="18.1328" stroke="none"/>
      <text x="623.6807" xml:space="preserve" y="242.8789" clip-path="url(#clipPath2)" font-family="sans-serif" stroke="none">dcat:servesDataset</text>
      <path fill="none" d="M433.7665 158 L656.743 158" clip-path="url(#clipPath2)"/>
      <path d="M425.7665 158 C425.7665 155.7909 427.5573 154 429.7665 154 C431.9756 154 433.7665 155.7909 433.7665 158 C433.7665 160.2091 431.9756 162 429.7665 162 C427.5573 162 425.7665 160.2091 425.7665 158 Z" clip-path="url(#clipPath2)" stroke="none"/>
      <path d="M667.743 158 L655.743 152 L655.743 164 Z" clip-path="url(#clipPath2)" stroke="none"/>
      <rect x="536.3507" y="148.9336" clip-path="url(#clipPath2)" fill="white" width="100.3926" height="18.1328" stroke="none"/>
      <text x="538.3507" xml:space="preserve" y="162.5352" clip-path="url(#clipPath2)" font-family="sans-serif" stroke="none">dcat:distribution</text>
      <path fill="none" d="M677.743 89.1751 L677.743 140" clip-path="url(#clipPath2)" stroke="black"/>
      <path fill="black" d="M677.743 148 L682.743 136 L677.743 139 L672.743 136 Z" clip-path="url(#clipPath2)" stroke="none"/>
      <path fill="none" d="M1216.1656 89.1751 L1216.1656 140" clip-path="url(#clipPath2)" stroke="black"/>
      <path fill="black" d="M1216.1656 148 L1221.1656 136 L1216.1656 139 L1211.1656 136 Z" clip-path="url(#clipPath2)" stroke="none"/>
      <path fill="none" d="M424.7665 170.695 L424.7665 206.3438 L1211.1656 206.3438 L1211.1656 177.695" clip-path="url(#clipPath2)"/>
      <path d="M424.7665 162.695 C426.9756 162.695 428.7665 164.4859 428.7665 166.695 C428.7665 168.9041 426.9756 170.695 424.7665 170.695 C422.5573 170.695 420.7665 168.9041 420.7665 166.695 C420.7665 164.4859 422.5573 162.695 424.7665 162.695 Z" clip-path="url(#clipPath2)" stroke="none"/>
      <path d="M1211.1656 166.695 L1205.1656 178.695 L1217.1656 178.695 Z" clip-path="url(#clipPath2)" stroke="none"/>
      <rect x="753.5872" y="197.2773" clip-path="url(#clipPath2)" fill="white" width="128.7578" height="18.1328" stroke="none"/>
      <text x="755.5872" xml:space="preserve" y="210.8789" clip-path="url(#clipPath2)" font-family="sans-serif" stroke="none">prov:wasGeneratedBy</text>
      <path fill="none" d="M79.016 170.6834 L79.016 222.3438 L1221.1656 222.3438 L1221.1656 177.6834" clip-path="url(#clipPath2)"/>
      <path d="M79.016 162.6834 C81.2252 162.6834 83.016 164.4743 83.016 166.6834 C83.016 168.8926 81.2252 170.6834 79.016 170.6834 C76.8069 170.6834 75.016 168.8926 75.016 166.6834 C75.016 164.4743 76.8069 162.6834 79.016 162.6834 Z" clip-path="url(#clipPath2)" stroke="none"/>
      <path d="M1221.1656 166.6834 L1215.1656 178.6834 L1227.1656 178.6834 Z" clip-path="url(#clipPath2)" stroke="none"/>
      <rect x="585.712" y="213.2773" clip-path="url(#clipPath2)" fill="white" width="128.7578" height="18.1328" stroke="none"/>
      <text x="587.712" xml:space="preserve" y="226.8789" clip-path="url(#clipPath2)" font-family="sans-serif" stroke="none">prov:wasGeneratedBy</text>
      <path fill="none" d="M960.9544 158 L1215.1656 158" clip-path="url(#clipPath2)"/>
      <path d="M952.9544 158 C952.9544 155.7909 954.7452 154 956.9544 154 C959.1636 154 960.9544 155.7909 960.9544 158 C960.9544 160.2091 959.1636 162 956.9544 162 C954.7452 162 952.9544 160.2091 952.9544 158 Z" clip-path="url(#clipPath2)" stroke="none"/>
      <path d="M1226.1656 158 L1214.1656 152 L1214.1656 164 Z" clip-path="url(#clipPath2)" stroke="none"/>
      <rect x="1017.1811" y="148.9336" clip-path="url(#clipPath2)" fill="white" width="128.7578" height="18.1328" stroke="none"/>
      <text x="1019.1812" xml:space="preserve" y="162.5352" clip-path="url(#clipPath2)" font-family="sans-serif" stroke="none">prov:wasGeneratedBy</text>
    </g>
  </g>
</svg>
