<?xml version="1.0" encoding="UTF-8"?><svg xmlns="http://www.w3.org/2000/svg" xmlns:xlink="http://www.w3.org/1999/xlink" fill-opacity="1" color-rendering="auto" color-interpolation="auto" text-rendering="auto" stroke="black" stroke-linecap="square" width="1292" stroke-miterlimit="10" shape-rendering="auto" stroke-opacity="1" fill="black" stroke-dasharray="none" font-weight="normal" stroke-width="1" height="255" font-family="'Dialog'" font-style="normal" stroke-linejoin="miter" font-size="12px" stroke-dashoffset="0" image-rendering="auto">
  <!--Generated by ySVG 2.6-->
  <defs id="genericDefs"/>
  <g>
    <defs id="defs1">
      <clipPath clipPathUnits="userSpaceOnUse" id="clipPath1">
        <path d="M0 0 L1292 0 L1292 255 L0 255 L0 0 Z"/>
      </clipPath>
      <clipPath clipPathUnits="userSpaceOnUse" id="clipPath2">
        <path d="M-122 43 L1170 43 L1170 298 L-122 298 L-122 43 Z"/>
      </clipPath>
    </defs>
    <g fill="white" text-rendering="geometricPrecision" shape-rendering="geometricPrecision" transform="translate(122,-43)" stroke="white">
      <rect x="-122" width="1292" height="255" y="43" clip-path="url(#clipPath2)" stroke="none"/>
    </g>
    <g fill="yellow" text-rendering="geometricPrecision" shape-rendering="geometricPrecision" transform="matrix(1,0,0,1,122,-43)" stroke="yellow">
      <rect x="42.3545" y="58" clip-path="url(#clipPath2)" width="100" rx="4" ry="4" height="40" stroke="none"/>
    </g>
    <g text-rendering="geometricPrecision" stroke-miterlimit="1.45" shape-rendering="geometricPrecision" font-family="sans-serif" transform="matrix(1,0,0,1,122,-43)" stroke-linecap="butt">
      <text x="55.8652" xml:space="preserve" y="82.5352" clip-path="url(#clipPath2)" stroke="none">dcat:Catalog</text>
      <rect x="42.3545" y="58" clip-path="url(#clipPath2)" fill="none" width="100" rx="4" ry="4" height="40"/>
    </g>
    <g fill="yellow" text-rendering="geometricPrecision" shape-rendering="geometricPrecision" transform="matrix(1,0,0,1,122,-43)" stroke="yellow">
      <rect x="267.6283" y="58" clip-path="url(#clipPath2)" width="100" rx="4" ry="4" height="40" stroke="none"/>
    </g>
    <g text-rendering="geometricPrecision" stroke-miterlimit="1.45" shape-rendering="geometricPrecision" font-family="sans-serif" transform="matrix(1,0,0,1,122,-43)" stroke-linecap="butt">
      <text x="281.3119" xml:space="preserve" y="82.5352" clip-path="url(#clipPath2)" stroke="none">dcat:Dataset</text>
      <rect x="267.6283" y="58" clip-path="url(#clipPath2)" fill="none" width="100" rx="4" ry="4" height="40"/>
    </g>
    <g fill="yellow" text-rendering="geometricPrecision" shape-rendering="geometricPrecision" transform="matrix(1,0,0,1,122,-43)" stroke="yellow">
      <rect x="464.3628" y="58" clip-path="url(#clipPath2)" width="111" rx="4" ry="4" height="40" stroke="none"/>
    </g>
    <g text-rendering="geometricPrecision" stroke-miterlimit="1.45" shape-rendering="geometricPrecision" font-family="sans-serif" transform="matrix(1,0,0,1,122,-43)" stroke-linecap="butt">
      <text x="470.9488" xml:space="preserve" y="82.5352" clip-path="url(#clipPath2)" stroke="none">dcat:Distribution</text>
      <rect x="464.3628" y="58" clip-path="url(#clipPath2)" fill="none" width="111" rx="4" ry="4" height="40"/>
    </g>
    <g fill="yellow" text-rendering="geometricPrecision" shape-rendering="geometricPrecision" transform="matrix(1,0,0,1,122,-43)" stroke="yellow">
      <rect x="934.4922" y="58" clip-path="url(#clipPath2)" width="111" rx="4" ry="4" height="40" stroke="none"/>
    </g>
    <g text-rendering="geometricPrecision" stroke-miterlimit="1.45" shape-rendering="geometricPrecision" font-family="sans-serif" transform="matrix(1,0,0,1,122,-43)" stroke-linecap="butt">
      <text x="942.0361" xml:space="preserve" y="82.5352" clip-path="url(#clipPath2)" stroke="none">dcat:DataService</text>
      <rect x="934.4922" y="58" clip-path="url(#clipPath2)" fill="none" width="111" rx="4" ry="4" height="40"/>
    </g>
    <g fill="yellow" text-rendering="geometricPrecision" shape-rendering="geometricPrecision" transform="matrix(1,0,0,1,122,-43)" stroke="yellow">
      <rect x="696.5652" y="58" clip-path="url(#clipPath2)" width="111" rx="4" ry="4" height="40" stroke="none"/>
    </g>
    <g text-rendering="geometricPrecision" stroke-miterlimit="1.45" shape-rendering="geometricPrecision" font-family="sans-serif" transform="matrix(1,0,0,1,122,-43)" stroke-linecap="butt">
      <text x="715.7341" xml:space="preserve" y="82.5352" clip-path="url(#clipPath2)" stroke="none">prov:Activity</text>
      <rect x="696.5652" y="58" clip-path="url(#clipPath2)" fill="none" width="111" rx="4" ry="4" height="40"/>
    </g>
    <g fill="rgb(255,153,204)" text-rendering="geometricPrecision" shape-rendering="geometricPrecision" transform="matrix(1,0,0,1,122,-43)" stroke="rgb(255,153,204)">
      <circle r="10" clip-path="url(#clipPath2)" cx="92.3545" cy="150" stroke="none"/>
    </g>
    <g text-rendering="geometricPrecision" stroke-miterlimit="1.45" shape-rendering="geometricPrecision" font-family="sans-serif" transform="matrix(1,0,0,1,122,-43)" stroke-linecap="butt">
      <text x="-36.6318" xml:space="preserve" y="140.4023" clip-path="url(#clipPath2)" stroke="none">Website</text>
      <text x="-104.3545" xml:space="preserve" y="154.5352" clip-path="url(#clipPath2)" stroke="none">(container for research project </text>
      <text x="-96.8896" xml:space="preserve" y="168.668" clip-path="url(#clipPath2)" stroke="none">outputs and documentation)</text>
      <circle fill="none" stroke-width="3" r="10" clip-path="url(#clipPath2)" cx="92.3545" cy="150"/>
    </g>
    <g fill="rgb(255,153,204)" text-rendering="geometricPrecision" shape-rendering="geometricPrecision" transform="matrix(1,0,0,1,122,-43)" stroke="rgb(255,153,204)">
      <circle r="10" clip-path="url(#clipPath2)" cx="317.6283" cy="150" stroke="none"/>
    </g>
    <g text-rendering="geometricPrecision" stroke-miterlimit="1.45" shape-rendering="geometricPrecision" font-family="sans-serif" transform="matrix(1,0,0,1,122,-43)" stroke-linecap="butt">
      <text x="219.7904" xml:space="preserve" y="135.4688" clip-path="url(#clipPath2)" stroke="none">Image dataset</text>
      <circle fill="none" stroke-width="3" r="10" clip-path="url(#clipPath2)" cx="317.6283" cy="150"/>
    </g>
    <g fill="rgb(255,153,204)" text-rendering="geometricPrecision" shape-rendering="geometricPrecision" transform="matrix(1,0,0,1,122,-43)" stroke="rgb(255,153,204)">
      <circle r="10" clip-path="url(#clipPath2)" cx="519.8628" cy="150" stroke="none"/>
    </g>
    <g text-rendering="geometricPrecision" stroke-miterlimit="1.45" shape-rendering="geometricPrecision" font-family="sans-serif" transform="matrix(1,0,0,1,122,-43)" stroke-linecap="butt">
      <text x="452.5474" xml:space="preserve" y="177.6016" clip-path="url(#clipPath2)" stroke="none">Downloadable instance</text>
      <text x="461.9165" xml:space="preserve" y="191.7344" clip-path="url(#clipPath2)" stroke="none">of dataset including</text>
      <text x="465.4556" xml:space="preserve" y="205.8672" clip-path="url(#clipPath2)" stroke="none">data and metadata</text>
      <circle fill="none" stroke-width="3" r="10" clip-path="url(#clipPath2)" cx="519.8628" cy="150"/>
    </g>
    <g fill="rgb(255,153,204)" text-rendering="geometricPrecision" shape-rendering="geometricPrecision" transform="matrix(1,0,0,1,122,-43)" stroke="rgb(255,153,204)">
      <circle r="10" clip-path="url(#clipPath2)" cx="989.9922" cy="150" stroke="none"/>
    </g>
    <g text-rendering="geometricPrecision" stroke-miterlimit="1.45" shape-rendering="geometricPrecision" font-family="sans-serif" transform="matrix(1,0,0,1,122,-43)" stroke-linecap="butt">
      <text x="1022.2109" xml:space="preserve" y="147.4688" clip-path="url(#clipPath2)" stroke="none">Search and analysis</text>
      <text x="1005.9922" xml:space="preserve" y="161.6016" clip-path="url(#clipPath2)" stroke="none">interface (within website)</text>
      <circle fill="none" stroke-width="3" r="10" clip-path="url(#clipPath2)" cx="989.9922" cy="150"/>
    </g>
    <g fill="rgb(255,153,204)" text-rendering="geometricPrecision" shape-rendering="geometricPrecision" transform="matrix(1,0,0,1,122,-43)" stroke="rgb(255,153,204)">
      <circle r="10" clip-path="url(#clipPath2)" cx="752.0652" cy="150" stroke="none"/>
    </g>
    <g text-rendering="geometricPrecision" stroke-miterlimit="1.45" shape-rendering="geometricPrecision" font-family="sans-serif" transform="matrix(1,0,0,1,122,-43)" stroke-linecap="butt">
      <text x="594.2917" xml:space="preserve" y="154.5352" clip-path="url(#clipPath2)" stroke="none">Research project activity</text>
      <circle fill="none" stroke-width="3" r="10" clip-path="url(#clipPath2)" cx="752.0652" cy="150"/>
      <path fill="none" d="M92.3545 98 L92.3545 132" clip-path="url(#clipPath2)"/>
      <path d="M92.3545 140 L97.3545 128 L92.3545 131 L87.3545 128 Z" clip-path="url(#clipPath2)" stroke="none"/>
      <path fill="none" d="M317.6283 98 L317.6283 132" clip-path="url(#clipPath2)"/>
      <path d="M317.6283 140 L322.6283 128 L317.6283 131 L312.6283 128 Z" clip-path="url(#clipPath2)" stroke="none"/>
      <path fill="none" d="M106.3545 150 L296.6283 150" clip-path="url(#clipPath2)" stroke="navy"/>
      <path fill="navy" d="M98.3545 150 C98.3545 147.7909 100.1454 146 102.3545 146 C104.5636 146 106.3545 147.7909 106.3545 150 C106.3545 152.2091 104.5636 154 102.3545 154 C100.1454 154 98.3545 152.2091 98.3545 150 Z" clip-path="url(#clipPath2)" stroke="none"/>
      <path fill="navy" d="M307.6283 150 L295.6283 144 L295.6283 156 Z" clip-path="url(#clipPath2)" stroke="none"/>
      <rect x="167.3928" y="140.9336" clip-path="url(#clipPath2)" fill="white" width="75.1973" height="18.1328" stroke="none"/>
      <text fill="navy" x="169.3928" xml:space="preserve" y="154.5352" clip-path="url(#clipPath2)" stroke="none">dcat:dataset</text>
      <path fill="none" d="M519.8629 98 L519.8629 132" clip-path="url(#clipPath2)"/>
      <path d="M519.8629 140 L524.8629 128 L519.8629 131 L514.8629 128 Z" clip-path="url(#clipPath2)" stroke="none"/>
      <path fill="none" d="M331.6283 150 L498.8628 150" clip-path="url(#clipPath2)" stroke="navy"/>
      <path fill="navy" d="M323.6283 150 C323.6283 147.7909 325.4192 146 327.6283 146 C329.8374 146 331.6283 147.7909 331.6283 150 C331.6283 152.2091 329.8374 154 327.6283 154 C325.4192 154 323.6283 152.2091 323.6283 150 Z" clip-path="url(#clipPath2)" stroke="none"/>
      <path fill="navy" d="M509.8628 150 L497.8628 144 L497.8628 156 Z" clip-path="url(#clipPath2)" stroke="none"/>
      <rect x="368.5493" y="140.9336" clip-path="url(#clipPath2)" fill="white" width="100.3926" height="18.1328" stroke="none"/>
      <text fill="navy" x="370.5493" xml:space="preserve" y="154.5352" clip-path="url(#clipPath2)" stroke="none">dcat:distribution</text>
      <path fill="none" d="M989.9922 98 L989.9922 132" clip-path="url(#clipPath2)"/>
      <path d="M989.9922 140 L994.9922 128 L989.9922 131 L984.9922 128 Z" clip-path="url(#clipPath2)" stroke="none"/>
      <path fill="none" d="M87.3545 162.6844 L87.3545 273.8984 L994.9922 273.8984 L994.9922 169.6844" clip-path="url(#clipPath2)" stroke="navy"/>
      <path fill="navy" d="M87.3545 154.6844 C89.5636 154.6844 91.3545 156.4753 91.3545 158.6844 C91.3545 160.8935 89.5636 162.6844 87.3545 162.6844 C85.1454 162.6844 83.3545 160.8935 83.3545 158.6844 C83.3545 156.4753 85.1454 154.6844 87.3545 154.6844 Z" clip-path="url(#clipPath2)" stroke="none"/>
      <path fill="navy" d="M994.9922 158.6844 L988.9922 170.6844 L1000.9922 170.6844 Z" clip-path="url(#clipPath2)" stroke="none"/>
      <rect x="504.7554" y="264.832" clip-path="url(#clipPath2)" fill="white" width="72.8359" height="18.1328" stroke="none"/>
      <text fill="navy" x="506.7554" xml:space="preserve" y="278.4336" clip-path="url(#clipPath2)" stroke="none">dcat:service</text>
      <path fill="none" d="M984.9922 162.7047 L984.9922 257.8984 L312.6283 257.8984 L312.6283 169.7047" clip-path="url(#clipPath2)" stroke="navy"/>
      <path fill="navy" d="M984.9922 154.7047 C987.2014 154.7047 988.9922 156.4956 988.9922 158.7047 C988.9922 160.9138 987.2014 162.7047 984.9922 162.7047 C982.783 162.7047 980.9922 160.9138 980.9922 158.7047 C980.9922 156.4956 982.783 154.7047 984.9922 154.7047 Z" clip-path="url(#clipPath2)" stroke="none"/>
      <path fill="navy" d="M312.6283 158.7047 L306.6283 170.7047 L318.6283 170.7047 Z" clip-path="url(#clipPath2)" stroke="none"/>
      <rect x="607.9486" y="248.832" clip-path="url(#clipPath2)" fill="white" width="113.3594" height="18.1328" stroke="none"/>
      <text fill="navy" x="609.9486" xml:space="preserve" y="262.4336" clip-path="url(#clipPath2)" stroke="none">dcat:servesDataset</text>
      <path fill="none" d="M752.0652 98 L752.0652 132" clip-path="url(#clipPath2)"/>
      <path d="M752.0652 140 L757.0652 128 L752.0652 131 L747.0652 128 Z" clip-path="url(#clipPath2)" stroke="none"/>
      <path fill="none" d="M97.3545 162.6969 L97.3545 241.8984 L752.0652 241.8984 L752.0652 171" clip-path="url(#clipPath2)" stroke="navy"/>
      <path fill="navy" d="M97.3545 154.6969 C99.5636 154.6969 101.3545 156.4878 101.3545 158.6969 C101.3545 160.906 99.5636 162.6969 97.3545 162.6969 C95.1454 162.6969 93.3545 160.906 93.3545 158.6969 C93.3545 156.4878 95.1454 154.6969 97.3545 154.6969 Z" clip-path="url(#clipPath2)" stroke="none"/>
      <path fill="navy" d="M752.0652 160 L746.0652 172 L758.0652 172 Z" clip-path="url(#clipPath2)" stroke="none"/>
      <rect x="157.7335" y="232.832" clip-path="url(#clipPath2)" fill="white" width="128.7578" height="18.1328" stroke="none"/>
      <text fill="navy" x="159.7335" xml:space="preserve" y="246.4336" clip-path="url(#clipPath2)" stroke="none">prov:wasGeneratedBy</text>
      <path fill="none" d="M322.6283 162.6891 L322.6283 225.8984 L752.0652 225.8984 L752.0652 171" clip-path="url(#clipPath2)" stroke="navy"/>
      <path fill="navy" d="M322.6283 154.6891 C324.8374 154.6891 326.6283 156.4799 326.6283 158.6891 C326.6283 160.8982 324.8374 162.6891 322.6283 162.6891 C320.4192 162.6891 318.6283 160.8982 318.6283 158.6891 C318.6283 156.4799 320.4192 154.6891 322.6283 154.6891 Z" clip-path="url(#clipPath2)" stroke="none"/>
      <path fill="navy" d="M752.0652 160 L746.0652 172 L758.0652 172 Z" clip-path="url(#clipPath2)" stroke="none"/>
      <rect x="472.9678" y="216.832" clip-path="url(#clipPath2)" fill="white" width="128.7578" height="18.1328" stroke="none"/>
      <text fill="navy" x="474.9678" xml:space="preserve" y="230.4336" clip-path="url(#clipPath2)" stroke="none">prov:wasGeneratedBy</text>
      <path fill="none" d="M975.9922 150 L773.0652 150" clip-path="url(#clipPath2)" stroke="navy"/>
      <path fill="navy" d="M983.9922 150 C983.9922 152.2091 982.2014 154 979.9922 154 C977.783 154 975.9922 152.2091 975.9922 150 C975.9922 147.7909 977.783 146 979.9922 146 C982.2014 146 983.9922 147.7909 983.9922 150 Z" clip-path="url(#clipPath2)" stroke="none"/>
      <path fill="navy" d="M762.0652 150 L774.0652 156 L774.0652 144 Z" clip-path="url(#clipPath2)" stroke="none"/>
      <rect x="806.6498" y="140.9336" clip-path="url(#clipPath2)" fill="white" width="128.7578" height="18.1328" stroke="none"/>
      <text fill="navy" x="808.6498" xml:space="preserve" y="154.5352" clip-path="url(#clipPath2)" stroke="none">prov:wasGeneratedBy</text>
    </g>
  </g>
</svg>
