<?xml version="1.0" encoding="UTF-8"?><svg xmlns="http://www.w3.org/2000/svg" xmlns:xlink="http://www.w3.org/1999/xlink" fill-opacity="1" color-rendering="auto" color-interpolation="auto" text-rendering="auto" stroke="black" stroke-linecap="square" width="1078" stroke-miterlimit="10" shape-rendering="auto" stroke-opacity="1" fill="black" stroke-dasharray="none" font-weight="normal" stroke-width="1" height="581" font-family="'Dialog'" font-style="normal" stroke-linejoin="miter" font-size="12px" stroke-dashoffset="0" image-rendering="auto">
  <!--Generated by ySVG 2.6-->
  <defs id="genericDefs"/>
  <g>
    <defs id="defs1">
      <clipPath clipPathUnits="userSpaceOnUse" id="clipPath1">
        <path d="M0 0 L1078 0 L1078 581 L0 581 L0 0 Z"/>
      </clipPath>
      <clipPath clipPathUnits="userSpaceOnUse" id="clipPath2">
        <path d="M567 16 L1645 16 L1645 597 L567 597 L567 16 Z"/>
      </clipPath>
    </defs>
    <g fill="white" text-rendering="geometricPrecision" shape-rendering="geometricPrecision" transform="translate(-567,-16)" stroke="white">
      <rect x="567" width="1078" height="581" y="16" clip-path="url(#clipPath2)" stroke="none"/>
    </g>
    <g fill="yellow" text-rendering="geometricPrecision" shape-rendering="geometricPrecision" transform="matrix(1,0,0,1,-567,-16)" stroke="yellow">
      <rect x="1184.427" y="31.1751" clip-path="url(#clipPath2)" width="137.4774" rx="4" ry="4" height="58" stroke="none"/>
    </g>
    <g font-size="16px" stroke-linecap="butt" transform="matrix(1,0,0,1,-567,-16)" text-rendering="geometricPrecision" font-family="sans-serif" shape-rendering="geometricPrecision" stroke-miterlimit="1.45">
      <text x="1204.7242" xml:space="preserve" y="66.2219" clip-path="url(#clipPath2)" stroke="none">prov:Activity</text>
      <rect x="1184.427" y="31.1751" clip-path="url(#clipPath2)" fill="none" width="137.4774" rx="4" ry="4" height="58"/>
    </g>
    <g fill="rgb(255,153,204)" text-rendering="geometricPrecision" shape-rendering="geometricPrecision" transform="matrix(1,0,0,1,-567,-16)" stroke="rgb(255,153,204)">
      <circle r="10" clip-path="url(#clipPath2)" cx="1253.1657" cy="158" stroke="none"/>
    </g>
    <g font-size="16px" stroke-linecap="butt" transform="matrix(1,0,0,1,-567,-16)" text-rendering="geometricPrecision" font-family="sans-serif" shape-rendering="geometricPrecision" stroke-miterlimit="1.45">
      <text x="1269.1656" xml:space="preserve" y="142.625" clip-path="url(#clipPath2)" stroke="none">Research Project (activity)</text>
      <circle fill="none" stroke-width="3" r="10" clip-path="url(#clipPath2)" cx="1253.1657" cy="158"/>
    </g>
    <g fill="rgb(255,153,204)" text-rendering="geometricPrecision" shape-rendering="geometricPrecision" transform="matrix(1,0,0,1,-567,-16)" stroke="rgb(255,153,204)">
      <circle r="10" clip-path="url(#clipPath2)" cx="740.4514" cy="163" stroke="none"/>
    </g>
    <g font-size="16px" stroke-linecap="butt" transform="matrix(1,0,0,1,-567,-16)" text-rendering="geometricPrecision" font-family="sans-serif" shape-rendering="geometricPrecision" stroke-miterlimit="1.45">
      <text x="584.4749" xml:space="preserve" y="147.625" clip-path="url(#clipPath2)" stroke="none">Dataset of images</text>
      <circle fill="none" stroke-width="3" r="10" clip-path="url(#clipPath2)" cx="740.4514" cy="163"/>
    </g>
    <g fill="yellow" text-rendering="geometricPrecision" shape-rendering="geometricPrecision" transform="matrix(1,0,0,1,-567,-16)" stroke="yellow">
      <rect x="630.4514" y="31.1751" clip-path="url(#clipPath2)" width="220" rx="4" ry="4" height="71" stroke="none"/>
    </g>
    <g font-size="16px" stroke-linecap="butt" transform="matrix(1,0,0,1,-567,-16)" text-rendering="geometricPrecision" font-family="sans-serif" shape-rendering="geometricPrecision" stroke-miterlimit="1.45">
      <text x="692.0295" xml:space="preserve" y="53.8782" clip-path="url(#clipPath2)" stroke="none">dcat:Dataset</text>
      <text x="698.7795" xml:space="preserve" y="72.7219" clip-path="url(#clipPath2)" stroke="none">prov:Entity</text>
      <text x="641.135" xml:space="preserve" y="91.5657" clip-path="url(#clipPath2)" stroke="none">crmdig:D1_Digital_Object</text>
      <rect x="630.4514" y="31.1751" clip-path="url(#clipPath2)" fill="none" width="220" rx="4" ry="4" height="71"/>
    </g>
    <g fill="yellow" text-rendering="geometricPrecision" shape-rendering="geometricPrecision" transform="matrix(1,0,0,1,-567,-16)" stroke="yellow">
      <rect x="671.7127" y="524" clip-path="url(#clipPath2)" width="137.4774" rx="4" ry="4" height="58" stroke="none"/>
    </g>
    <g font-size="16px" stroke-linecap="butt" transform="matrix(1,0,0,1,-567,-16)" text-rendering="geometricPrecision" font-family="sans-serif" shape-rendering="geometricPrecision" stroke-miterlimit="1.45">
      <text x="685.3772" xml:space="preserve" y="559.0469" clip-path="url(#clipPath2)" stroke="none">crm:E1_Entity </text>
      <rect x="671.7127" y="524" clip-path="url(#clipPath2)" fill="none" width="137.4774" rx="4" ry="4" height="58"/>
    </g>
    <g fill="yellow" text-rendering="geometricPrecision" shape-rendering="geometricPrecision" transform="matrix(1,0,0,1,-567,-16)" stroke="yellow">
      <rect x="1349.2041" y="336.2347" clip-path="url(#clipPath2)" width="280" rx="4" ry="4" height="58" stroke="none"/>
    </g>
    <g font-size="16px" stroke-linecap="butt" transform="matrix(1,0,0,1,-567,-16)" text-rendering="geometricPrecision" font-family="sans-serif" shape-rendering="geometricPrecision" stroke-miterlimit="1.45">
      <text x="1366.0283" xml:space="preserve" y="371.2815" clip-path="url(#clipPath2)" stroke="none">crmdig:D2_Digitization_Process</text>
      <rect x="1349.2041" y="336.2347" clip-path="url(#clipPath2)" fill="none" width="280" rx="4" ry="4" height="58"/>
    </g>
    <g fill="yellow" text-rendering="geometricPrecision" shape-rendering="geometricPrecision" transform="matrix(1,0,0,1,-567,-16)" stroke="yellow">
      <rect x="1368.2041" y="435.1639" clip-path="url(#clipPath2)" width="200" rx="4" ry="4" height="58" stroke="none"/>
    </g>
    <g font-size="16px" stroke-linecap="butt" transform="matrix(1,0,0,1,-567,-16)" text-rendering="geometricPrecision" font-family="sans-serif" shape-rendering="geometricPrecision" stroke-miterlimit="1.45">
      <text x="1375.3057" xml:space="preserve" y="470.2108" clip-path="url(#clipPath2)" stroke="none">crm:E18_Physical_Thing</text>
      <rect x="1368.2041" y="435.1639" clip-path="url(#clipPath2)" fill="none" width="200" rx="4" ry="4" height="58"/>
    </g>
    <g fill="rgb(255,153,204)" text-rendering="geometricPrecision" shape-rendering="geometricPrecision" transform="matrix(1,0,0,1,-567,-16)" stroke="rgb(255,153,204)">
      <circle r="10" clip-path="url(#clipPath2)" cx="740.4514" cy="464.1639" stroke="none"/>
    </g>
    <g font-size="16px" stroke-linecap="butt" transform="matrix(1,0,0,1,-567,-16)" text-rendering="geometricPrecision" font-family="sans-serif" shape-rendering="geometricPrecision" stroke-miterlimit="1.45">
      <text x="597.2795" xml:space="preserve" y="470.2108" clip-path="url(#clipPath2)" stroke="none">Specific Building</text>
      <circle fill="none" stroke-width="3" r="10" clip-path="url(#clipPath2)" cx="740.4514" cy="464.1639"/>
    </g>
    <g fill="rgb(255,153,204)" text-rendering="geometricPrecision" shape-rendering="geometricPrecision" transform="matrix(1,0,0,1,-567,-16)" stroke="rgb(255,153,204)">
      <circle r="10" clip-path="url(#clipPath2)" cx="1253.1657" cy="329.2347" stroke="none"/>
    </g>
    <g font-size="16px" stroke-linecap="butt" transform="matrix(1,0,0,1,-567,-16)" text-rendering="geometricPrecision" font-family="sans-serif" shape-rendering="geometricPrecision" stroke-miterlimit="1.45">
      <text x="1269.1656" xml:space="preserve" y="313.8596" clip-path="url(#clipPath2)" stroke="none">Scanning photographs</text>
      <circle fill="none" stroke-width="3" r="10" clip-path="url(#clipPath2)" cx="1253.1657" cy="329.2347"/>
    </g>
    <g fill="rgb(255,153,204)" text-rendering="geometricPrecision" shape-rendering="geometricPrecision" transform="matrix(1,0,0,1,-567,-16)" stroke="rgb(255,153,204)">
      <circle r="10" clip-path="url(#clipPath2)" cx="1253.1657" cy="464.1639" stroke="none"/>
    </g>
    <g font-size="16px" stroke-linecap="butt" transform="matrix(1,0,0,1,-567,-16)" text-rendering="geometricPrecision" font-family="sans-serif" shape-rendering="geometricPrecision" stroke-miterlimit="1.45">
      <text x="1187.4938" xml:space="preserve" y="495.6327" clip-path="url(#clipPath2)" stroke="none">Old photographs</text>
      <circle fill="none" stroke-width="3" r="10" clip-path="url(#clipPath2)" cx="1253.1657" cy="464.1639"/>
    </g>
    <g fill="rgb(255,153,204)" text-rendering="geometricPrecision" shape-rendering="geometricPrecision" transform="matrix(1,0,0,1,-567,-16)" stroke="rgb(255,153,204)">
      <circle r="10" clip-path="url(#clipPath2)" cx="740.4514" cy="310.2347" stroke="none"/>
    </g>
    <g font-size="16px" stroke-linecap="butt" transform="matrix(1,0,0,1,-567,-16)" text-rendering="geometricPrecision" font-family="sans-serif" shape-rendering="geometricPrecision" stroke-miterlimit="1.45">
      <text x="680.717" xml:space="preserve" y="316.2815" clip-path="url(#clipPath2)" stroke="none">Scans</text>
      <circle fill="none" stroke-width="3" r="10" clip-path="url(#clipPath2)" cx="740.4514" cy="310.2347"/>
    </g>
    <g fill="yellow" text-rendering="geometricPrecision" shape-rendering="geometricPrecision" transform="matrix(1,0,0,1,-567,-16)" stroke="yellow">
      <rect x="640.4514" y="366.1639" clip-path="url(#clipPath2)" width="200" rx="4" ry="4" height="58" stroke="none"/>
    </g>
    <g font-size="16px" stroke-linecap="butt" transform="matrix(1,0,0,1,-567,-16)" text-rendering="geometricPrecision" font-family="sans-serif" shape-rendering="geometricPrecision" stroke-miterlimit="1.45">
      <text x="648.6428" xml:space="preserve" y="401.2108" clip-path="url(#clipPath2)" stroke="none">crmdig:D9_Data_Object</text>
      <rect x="640.4514" y="366.1639" clip-path="url(#clipPath2)" fill="none" width="200" rx="4" ry="4" height="58"/>
    </g>
    <g fill="rgb(255,153,204)" text-rendering="geometricPrecision" shape-rendering="geometricPrecision" transform="matrix(1,0,0,1,-567,-16)" stroke="rgb(255,153,204)">
      <circle r="10" clip-path="url(#clipPath2)" cx="1030.5" cy="292.5" stroke="none"/>
    </g>
    <g font-size="16px" stroke-linecap="butt" transform="matrix(1,0,0,1,-567,-16)" text-rendering="geometricPrecision" font-family="sans-serif" shape-rendering="geometricPrecision" stroke-miterlimit="1.45">
      <text x="1046.5" xml:space="preserve" y="277.125" clip-path="url(#clipPath2)" stroke="none">Creating dataset </text>
      <circle fill="none" stroke-width="3" r="10" clip-path="url(#clipPath2)" cx="1030.5" cy="292.5"/>
    </g>
    <g fill="yellow" text-rendering="geometricPrecision" shape-rendering="geometricPrecision" transform="matrix(1,0,0,1,-567,-16)" stroke="yellow">
      <rect x="890.5" y="366.1639" clip-path="url(#clipPath2)" width="280" rx="4" ry="4" height="58" stroke="none"/>
    </g>
    <g font-size="16px" stroke-linecap="butt" transform="matrix(1,0,0,1,-567,-16)" text-rendering="geometricPrecision" font-family="sans-serif" shape-rendering="geometricPrecision" stroke-miterlimit="1.45">
      <text x="899.418" xml:space="preserve" y="401.2108" clip-path="url(#clipPath2)" stroke="none">crmdig:D7_Digital_Machine_Event</text>
      <rect x="890.5" y="366.1639" clip-path="url(#clipPath2)" fill="none" width="280" rx="4" ry="4" height="58"/>
      <path fill="none" d="M1253.1656 89.1751 L1253.1656 140" clip-path="url(#clipPath2)"/>
      <path d="M1253.1656 148 L1258.1656 136 L1253.1656 139 L1248.1656 136 Z" stroke="none" clip-path="url(#clipPath2)"/>
      <path fill="none" d="M740.4514 102.1751 L740.4514 145" clip-path="url(#clipPath2)"/>
      <path d="M740.4514 153 L745.4514 141 L740.4514 144 L735.4514 141 Z" stroke="none" clip-path="url(#clipPath2)"/>
      <path fill="none" d="M740.4514 523.9808 L740.4514 482.1639" clip-path="url(#clipPath2)"/>
      <path d="M740.4514 474.1639 L735.4514 486.1639 L740.4514 483.1639 L745.4514 486.1639 Z" stroke="none" clip-path="url(#clipPath2)"/>
      <path fill="none" d="M1349.2017 365.2346 L1270.0204 335.5528" clip-path="url(#clipPath2)"/>
      <path d="M1262.5294 332.7447 L1272.0109 341.6387 L1270.9568 335.9038 L1275.5209 332.275 Z" stroke="none" clip-path="url(#clipPath2)"/>
    </g>
    <g stroke-linecap="butt" transform="matrix(1,0,0,1,-567,-16)" fill="navy" text-rendering="geometricPrecision" shape-rendering="geometricPrecision" stroke="navy" stroke-miterlimit="1.45">
      <path fill="none" d="M1253.1656 172 L1253.1656 308.2346" clip-path="url(#clipPath2)"/>
      <path d="M1253.1656 164 C1255.3748 164 1257.1656 165.7909 1257.1656 168 C1257.1656 170.2091 1255.3748 172 1253.1656 172 C1250.9565 172 1249.1656 170.2091 1249.1656 168 C1249.1656 165.7909 1250.9565 164 1253.1656 164 Z" clip-path="url(#clipPath2)" stroke="none"/>
      <path d="M1253.1656 319.2346 L1259.1656 307.2346 L1247.1656 307.2346 Z" clip-path="url(#clipPath2)" stroke="none"/>
      <rect x="1192.1442" y="234.5509" clip-path="url(#clipPath2)" fill="white" width="122.043" height="18.1328" stroke="none"/>
      <text x="1194.1442" xml:space="preserve" y="248.1525" clip-path="url(#clipPath2)" font-family="sans-serif" stroke="none">prov:wasInformedBy</text>
      <path fill="none" d="M1368.2186 464.1639 L1271.1656 464.1639" clip-path="url(#clipPath2)" stroke="black"/>
      <path fill="black" d="M1263.1656 464.1639 L1275.1656 469.1639 L1272.1656 464.1639 L1275.1656 459.1639 Z" clip-path="url(#clipPath2)" stroke="none"/>
      <path fill="none" d="M1253.1656 343.2346 L1253.1656 443.1639" clip-path="url(#clipPath2)"/>
      <path d="M1253.1656 335.2346 C1255.3748 335.2346 1257.1656 337.0255 1257.1656 339.2346 C1257.1656 341.4438 1255.3748 343.2346 1253.1656 343.2346 C1250.9565 343.2346 1249.1656 341.4438 1249.1656 339.2346 C1249.1656 337.0255 1250.9565 335.2346 1253.1656 335.2346 Z" clip-path="url(#clipPath2)" stroke="none"/>
      <path d="M1253.1656 454.1639 L1259.1656 442.1639 L1247.1656 442.1639 Z" clip-path="url(#clipPath2)" stroke="none"/>
      <rect x="1193.3688" y="387.6329" clip-path="url(#clipPath2)" fill="white" width="119.5938" height="18.1328" stroke="none"/>
      <text x="1195.3688" xml:space="preserve" y="401.2344" clip-path="url(#clipPath2)" font-family="sans-serif" stroke="none">crmdig:L1_digitized</text>
      <path fill="none" d="M1239.1656 464.1639 L761.4514 464.1639" clip-path="url(#clipPath2)"/>
      <path d="M1247.1656 464.1639 C1247.1656 466.373 1245.3748 468.1639 1243.1656 468.1639 C1240.9565 468.1639 1239.1656 466.373 1239.1656 464.1639 C1239.1656 461.9548 1240.9565 460.1639 1243.1656 460.1639 C1245.3748 460.1639 1247.1656 461.9548 1247.1656 464.1639 Z" clip-path="url(#clipPath2)" stroke="none"/>
      <path d="M750.4514 464.1639 L762.4514 470.1639 L762.4514 458.1639 Z" clip-path="url(#clipPath2)" stroke="none"/>
      <rect x="811.6982" y="455.0975" clip-path="url(#clipPath2)" fill="white" width="114.5254" height="18.1328" stroke="none"/>
      <text x="813.6982" xml:space="preserve" y="468.6991" clip-path="url(#clipPath2)" font-family="sans-serif" stroke="none">crm:P129_is_about</text>
      <path fill="none" d="M1249.1656 454.1639 L870.5 454.1639 L870.5 310.2346 L761.4514 310.2346" clip-path="url(#clipPath2)"/>
      <path d="M1257.1656 454.1639 C1257.1656 456.373 1255.3748 458.1639 1253.1656 458.1639 C1250.9565 458.1639 1249.1656 456.373 1249.1656 454.1639 C1249.1656 451.9548 1250.9565 450.1639 1253.1656 450.1639 C1255.3748 450.1639 1257.1656 451.9548 1257.1656 454.1639 Z" clip-path="url(#clipPath2)" stroke="none"/>
      <path d="M750.4514 310.2346 L762.4514 316.2346 L762.4514 304.2346 Z" clip-path="url(#clipPath2)" stroke="none"/>
      <rect x="984.4783" y="445.0975" clip-path="url(#clipPath2)" fill="white" width="145.4219" height="18.1328" stroke="none"/>
      <text x="986.4783" xml:space="preserve" y="458.6991" clip-path="url(#clipPath2)" font-family="sans-serif" stroke="none">crmdig:L20_has_created</text>
      <path fill="none" d="M740.4514 177 L740.4514 289.2346" clip-path="url(#clipPath2)"/>
      <path d="M740.4514 169 C742.6606 169 744.4514 170.7909 744.4514 173 C744.4514 175.2091 742.6606 177 740.4514 177 C738.2422 177 736.4514 175.2091 736.4514 173 C736.4514 170.7909 738.2422 169 740.4514 169 Z" clip-path="url(#clipPath2)" stroke="none"/>
      <path d="M740.4514 300.2346 L746.4514 288.2346 L734.4514 288.2346 Z" clip-path="url(#clipPath2)" stroke="none"/>
      <rect x="661.0403" y="227.5509" clip-path="url(#clipPath2)" fill="white" width="158.8223" height="18.1328" stroke="none"/>
      <text x="663.0403" xml:space="preserve" y="241.1525" clip-path="url(#clipPath2)" font-family="sans-serif" stroke="none">crm:P106_is_composed_of</text>
      <path fill="none" d="M740.4514 366.1768 L740.4514 328.2346" clip-path="url(#clipPath2)" stroke="black"/>
      <path fill="black" d="M740.4514 320.2346 L735.4514 332.2346 L740.4514 329.2346 L745.4514 332.2346 Z" clip-path="url(#clipPath2)" stroke="none"/>
      <path fill="none" d="M1253.1656 172 L1253.1656 224.5 L1253.1656 292.5 L1051.5 292.5" clip-path="url(#clipPath2)"/>
      <path d="M1253.1656 164 C1255.3748 164 1257.1656 165.7909 1257.1656 168 C1257.1656 170.2091 1255.3748 172 1253.1656 172 C1250.9565 172 1249.1656 170.2091 1249.1656 168 C1249.1656 165.7909 1250.9565 164 1253.1656 164 Z" clip-path="url(#clipPath2)" stroke="none"/>
      <path d="M1040.5 292.5 L1052.5 298.5 L1052.5 286.5 Z" clip-path="url(#clipPath2)" stroke="none"/>
      <path fill="none" d="M1016.5 292.5 L859.5 292.5 L769 292.5 L757.3853 298.2653" clip-path="url(#clipPath2)"/>
      <path d="M1024.5 292.5 C1024.5 294.7091 1022.7092 296.5 1020.5 296.5 C1018.2908 296.5 1016.5 294.7091 1016.5 292.5 C1016.5 290.2909 1018.2908 288.5 1020.5 288.5 C1022.7092 288.5 1024.5 290.2909 1024.5 292.5 Z" clip-path="url(#clipPath2)" stroke="none"/>
      <path d="M747.5323 303.1561 L760.9487 303.195 L755.6133 292.4464 Z" clip-path="url(#clipPath2)" stroke="none"/>
      <rect x="868.3545" y="283.4336" clip-path="url(#clipPath2)" fill="white" width="134.166" height="18.1328" stroke="none"/>
      <text x="870.3545" xml:space="preserve" y="297.0352" clip-path="url(#clipPath2)" font-family="sans-serif" stroke="none">crmdig:L10_had_input</text>
      <path fill="none" d="M1030.5 278.5 L1030.5 163 L853 163 L761.4514 163" clip-path="url(#clipPath2)"/>
      <path d="M1030.5 286.5 C1028.2909 286.5 1026.5 284.7091 1026.5 282.5 C1026.5 280.2909 1028.2909 278.5 1030.5 278.5 C1032.7091 278.5 1034.5 280.2909 1034.5 282.5 C1034.5 284.7091 1032.7091 286.5 1030.5 286.5 Z" clip-path="url(#clipPath2)" stroke="none"/>
      <path d="M750.4514 163 L762.4514 169 L762.4514 157 Z" clip-path="url(#clipPath2)" stroke="none"/>
      <rect x="870.4717" y="153.9336" clip-path="url(#clipPath2)" fill="white" width="142.5566" height="18.1328" stroke="none"/>
      <text x="872.4717" xml:space="preserve" y="167.5352" clip-path="url(#clipPath2)" font-family="sans-serif" stroke="none">crmdig:L11_had_output</text>
      <path fill="none" d="M1030.5 366.1644 L1030.5 310.5" clip-path="url(#clipPath2)" stroke="black"/>
      <path fill="black" d="M1030.5 302.5 L1025.5 314.5 L1030.5 311.5 L1035.5 314.5 Z" clip-path="url(#clipPath2)" stroke="none"/>
    </g>
  </g>
</svg>
