<?xml version="1.0" encoding="UTF-8"?><svg xmlns="http://www.w3.org/2000/svg" xmlns:xlink="http://www.w3.org/1999/xlink" fill-opacity="1" color-rendering="auto" color-interpolation="auto" text-rendering="auto" stroke="black" stroke-linecap="square" width="825" stroke-miterlimit="10" shape-rendering="auto" stroke-opacity="1" fill="black" stroke-dasharray="none" font-weight="normal" stroke-width="1" height="382" font-family="'Dialog'" font-style="normal" stroke-linejoin="miter" font-size="12px" stroke-dashoffset="0" image-rendering="auto">
  <!--Generated by ySVG 2.6-->
  <defs id="genericDefs"/>
  <g>
    <defs id="defs1">
      <clipPath clipPathUnits="userSpaceOnUse" id="clipPath1">
        <path d="M0 0 L825 0 L825 382 L0 382 L0 0 Z"/>
      </clipPath>
      <clipPath clipPathUnits="userSpaceOnUse" id="clipPath2">
        <path d="M-2 43 L823 43 L823 425 L-2 425 L-2 43 Z"/>
      </clipPath>
    </defs>
    <g fill="white" text-rendering="geometricPrecision" shape-rendering="geometricPrecision" transform="translate(2,-43)" stroke="white">
      <rect x="-2" width="825" height="382" y="43" clip-path="url(#clipPath2)" stroke="none"/>
    </g>
    <g fill="yellow" text-rendering="geometricPrecision" shape-rendering="geometricPrecision" transform="matrix(1,0,0,1,2,-43)" stroke="yellow">
      <rect x="162.6283" y="58" clip-path="url(#clipPath2)" width="100" rx="4" ry="4" height="40" stroke="none"/>
    </g>
    <g text-rendering="geometricPrecision" stroke-miterlimit="1.45" shape-rendering="geometricPrecision" font-family="sans-serif" transform="matrix(1,0,0,1,2,-43)" stroke-linecap="butt">
      <text x="176.139" xml:space="preserve" y="75.4688" clip-path="url(#clipPath2)" stroke="none">dcat:Catalog</text>
      <text x="181.3744" xml:space="preserve" y="89.6016" clip-path="url(#clipPath2)" stroke="none">prov:Entity</text>
      <rect x="162.6283" y="58" clip-path="url(#clipPath2)" fill="none" width="100" rx="4" ry="4" height="40"/>
    </g>
    <g fill="yellow" text-rendering="geometricPrecision" shape-rendering="geometricPrecision" transform="matrix(1,0,0,1,2,-43)" stroke="yellow">
      <rect x="292.6283" y="58" clip-path="url(#clipPath2)" width="100" rx="4" ry="4" height="40" stroke="none"/>
    </g>
    <g text-rendering="geometricPrecision" stroke-miterlimit="1.45" shape-rendering="geometricPrecision" font-family="sans-serif" transform="matrix(1,0,0,1,2,-43)" stroke-linecap="butt">
      <text x="306.3119" xml:space="preserve" y="75.4688" clip-path="url(#clipPath2)" stroke="none">dcat:Dataset</text>
      <text x="311.3744" xml:space="preserve" y="89.6016" clip-path="url(#clipPath2)" stroke="none">prov:Entity</text>
      <rect x="292.6283" y="58" clip-path="url(#clipPath2)" fill="none" width="100" rx="4" ry="4" height="40"/>
    </g>
    <g fill="yellow" text-rendering="geometricPrecision" shape-rendering="geometricPrecision" transform="matrix(1,0,0,1,2,-43)" stroke="yellow">
      <rect x="489.0968" y="58" clip-path="url(#clipPath2)" width="111" rx="4" ry="4" height="40" stroke="none"/>
    </g>
    <g text-rendering="geometricPrecision" stroke-miterlimit="1.45" shape-rendering="geometricPrecision" font-family="sans-serif" transform="matrix(1,0,0,1,2,-43)" stroke-linecap="butt">
      <text x="496.6407" xml:space="preserve" y="75.4688" clip-path="url(#clipPath2)" stroke="none">dcat:DataService</text>
      <text x="513.3428" xml:space="preserve" y="89.6016" clip-path="url(#clipPath2)" stroke="none">prov:Entity</text>
      <rect x="489.0968" y="58" clip-path="url(#clipPath2)" fill="none" width="111" rx="4" ry="4" height="40"/>
    </g>
    <g fill="yellow" text-rendering="geometricPrecision" shape-rendering="geometricPrecision" transform="matrix(1,0,0,1,2,-43)" stroke="yellow">
      <rect x="696.5652" y="58" clip-path="url(#clipPath2)" width="111" rx="4" ry="4" height="40" stroke="none"/>
    </g>
    <g text-rendering="geometricPrecision" stroke-miterlimit="1.45" shape-rendering="geometricPrecision" font-family="sans-serif" transform="matrix(1,0,0,1,2,-43)" stroke-linecap="butt">
      <text x="715.7341" xml:space="preserve" y="82.5352" clip-path="url(#clipPath2)" stroke="none">prov:Activity</text>
      <rect x="696.5652" y="58" clip-path="url(#clipPath2)" fill="none" width="111" rx="4" ry="4" height="40"/>
    </g>
    <g fill="rgb(255,153,204)" text-rendering="geometricPrecision" shape-rendering="geometricPrecision" transform="matrix(1,0,0,1,2,-43)" stroke="rgb(255,153,204)">
      <circle r="10" clip-path="url(#clipPath2)" cx="212.6283" cy="150" stroke="none"/>
    </g>
    <g text-rendering="geometricPrecision" stroke-miterlimit="1.45" shape-rendering="geometricPrecision" font-family="sans-serif" transform="matrix(1,0,0,1,2,-43)" stroke-linecap="butt">
      <text x="83.642" xml:space="preserve" y="140.4023" clip-path="url(#clipPath2)" stroke="none">Website</text>
      <text x="15.9193" xml:space="preserve" y="154.5352" clip-path="url(#clipPath2)" stroke="none">(container for research project </text>
      <text x="23.3842" xml:space="preserve" y="168.668" clip-path="url(#clipPath2)" stroke="none">outputs and documentation)</text>
      <circle fill="none" stroke-width="3" r="10" clip-path="url(#clipPath2)" cx="212.6283" cy="150"/>
    </g>
    <g fill="rgb(255,153,204)" text-rendering="geometricPrecision" shape-rendering="geometricPrecision" transform="matrix(1,0,0,1,2,-43)" stroke="rgb(255,153,204)">
      <circle r="10" clip-path="url(#clipPath2)" cx="342.6283" cy="150" stroke="none"/>
    </g>
    <g text-rendering="geometricPrecision" stroke-miterlimit="1.45" shape-rendering="geometricPrecision" font-family="sans-serif" transform="matrix(1,0,0,1,2,-43)" stroke-linecap="butt">
      <text x="244.7904" xml:space="preserve" y="154.5352" clip-path="url(#clipPath2)" stroke="none">Image dataset</text>
      <circle fill="none" stroke-width="3" r="10" clip-path="url(#clipPath2)" cx="342.6283" cy="150"/>
    </g>
    <g fill="rgb(255,153,204)" text-rendering="geometricPrecision" shape-rendering="geometricPrecision" transform="matrix(1,0,0,1,2,-43)" stroke="rgb(255,153,204)">
      <circle r="10" clip-path="url(#clipPath2)" cx="544.5968" cy="150" stroke="none"/>
    </g>
    <g text-rendering="geometricPrecision" stroke-miterlimit="1.45" shape-rendering="geometricPrecision" font-family="sans-serif" transform="matrix(1,0,0,1,2,-43)" stroke-linecap="butt">
      <text x="398.7354" xml:space="preserve" y="147.4688" clip-path="url(#clipPath2)" stroke="none">Search and analysis</text>
      <text x="382.5167" xml:space="preserve" y="161.6016" clip-path="url(#clipPath2)" stroke="none">interface (within website)</text>
      <circle fill="none" stroke-width="3" r="10" clip-path="url(#clipPath2)" cx="544.5968" cy="150"/>
    </g>
    <g fill="rgb(255,153,204)" text-rendering="geometricPrecision" shape-rendering="geometricPrecision" transform="matrix(1,0,0,1,2,-43)" stroke="rgb(255,153,204)">
      <circle r="10" clip-path="url(#clipPath2)" cx="752.0652" cy="150" stroke="none"/>
    </g>
    <g text-rendering="geometricPrecision" stroke-miterlimit="1.45" shape-rendering="geometricPrecision" font-family="sans-serif" transform="matrix(1,0,0,1,2,-43)" stroke-linecap="butt">
      <text x="594.2917" xml:space="preserve" y="154.5352" clip-path="url(#clipPath2)" stroke="none">Research project activity</text>
      <circle fill="none" stroke-width="3" r="10" clip-path="url(#clipPath2)" cx="752.0652" cy="150"/>
    </g>
    <g fill="rgb(255,153,204)" text-rendering="geometricPrecision" shape-rendering="geometricPrecision" transform="matrix(1,0,0,1,2,-43)" stroke="rgb(255,153,204)">
      <circle r="10" clip-path="url(#clipPath2)" cx="544.5968" cy="363" stroke="none"/>
    </g>
    <g text-rendering="geometricPrecision" stroke-miterlimit="1.45" shape-rendering="geometricPrecision" font-family="sans-serif" transform="matrix(1,0,0,1,2,-43)" stroke-linecap="butt">
      <text x="462.3311" xml:space="preserve" y="390.6016" clip-path="url(#clipPath2)" stroke="none">Italian medieval architecture</text>
      <text x="519.6505" xml:space="preserve" y="404.7344" clip-path="url(#clipPath2)" stroke="none">(subject)</text>
      <circle fill="none" stroke-width="3" r="10" clip-path="url(#clipPath2)" cx="544.5968" cy="363"/>
    </g>
    <g fill="rgb(255,153,204)" text-rendering="geometricPrecision" shape-rendering="geometricPrecision" transform="matrix(1,0,0,1,2,-43)" stroke="rgb(255,153,204)">
      <circle r="10" clip-path="url(#clipPath2)" cx="342.6283" cy="279.5" stroke="none"/>
    </g>
    <g text-rendering="geometricPrecision" stroke-miterlimit="1.45" shape-rendering="geometricPrecision" font-family="sans-serif" transform="matrix(1,0,0,1,2,-43)" stroke-linecap="butt">
      <text x="181.1693" xml:space="preserve" y="284.0352" clip-path="url(#clipPath2)" stroke="none">Existing image collection</text>
      <circle fill="none" stroke-width="3" r="10" clip-path="url(#clipPath2)" cx="342.6283" cy="279.5"/>
    </g>
    <g fill="yellow" text-rendering="geometricPrecision" shape-rendering="geometricPrecision" transform="matrix(1,0,0,1,2,-43)" stroke="yellow">
      <rect x="287.1283" y="343" clip-path="url(#clipPath2)" width="111" rx="4" ry="4" height="40" stroke="none"/>
    </g>
    <g text-rendering="geometricPrecision" stroke-miterlimit="1.45" shape-rendering="geometricPrecision" font-family="sans-serif" transform="matrix(1,0,0,1,2,-43)" stroke-linecap="butt">
      <text x="311.3744" xml:space="preserve" y="367.5352" clip-path="url(#clipPath2)" stroke="none">prov:Entity</text>
      <rect x="287.1283" y="343" clip-path="url(#clipPath2)" fill="none" width="111" rx="4" ry="4" height="40"/>
      <path fill="none" d="M212.6283 98 L212.6283 132" clip-path="url(#clipPath2)"/>
      <path d="M212.6283 140 L217.6283 128 L212.6283 131 L207.6283 128 Z" clip-path="url(#clipPath2)" stroke="none"/>
      <path fill="none" d="M342.6283 98 L342.6283 132" clip-path="url(#clipPath2)"/>
      <path d="M342.6283 140 L347.6283 128 L342.6283 131 L337.6283 128 Z" clip-path="url(#clipPath2)" stroke="none"/>
      <path fill="none" d="M544.5967 98 L544.5967 132" clip-path="url(#clipPath2)"/>
      <path d="M544.5967 140 L549.5967 128 L544.5967 131 L539.5967 128 Z" clip-path="url(#clipPath2)" stroke="none"/>
      <path fill="none" d="M752.0652 98 L752.0652 132" clip-path="url(#clipPath2)"/>
      <path d="M752.0652 140 L757.0652 128 L752.0652 131 L747.0652 128 Z" clip-path="url(#clipPath2)" stroke="none"/>
      <path fill="none" d="M212.6283 164 L212.6283 225.8984 L752.0652 225.8984 L752.0652 171" clip-path="url(#clipPath2)" stroke="navy"/>
      <path fill="navy" d="M212.6283 156 C214.8374 156 216.6283 157.7909 216.6283 160 C216.6283 162.2091 214.8374 164 212.6283 164 C210.4192 164 208.6283 162.2091 208.6283 160 C208.6283 157.7909 210.4192 156 212.6283 156 Z" clip-path="url(#clipPath2)" stroke="none"/>
      <path fill="navy" d="M752.0652 160 L746.0652 172 L758.0652 172 Z" clip-path="url(#clipPath2)" stroke="none"/>
      <path fill="none" d="M342.6283 164 L342.6283 225.8984 L752.0652 225.8984 L752.0652 171" clip-path="url(#clipPath2)" stroke="navy"/>
      <path fill="navy" d="M342.6283 156 C344.8374 156 346.6283 157.7909 346.6283 160 C346.6283 162.2091 344.8374 164 342.6283 164 C340.4192 164 338.6283 162.2091 338.6283 160 C338.6283 157.7909 340.4192 156 342.6283 156 Z" clip-path="url(#clipPath2)" stroke="none"/>
      <path fill="navy" d="M752.0652 160 L746.0652 172 L758.0652 172 Z" clip-path="url(#clipPath2)" stroke="none"/>
      <path fill="none" d="M544.5967 164 L544.5967 226 L752.0652 226 L752.0652 171" clip-path="url(#clipPath2)" stroke="navy"/>
      <path fill="navy" d="M544.5967 156 C546.8059 156 548.5967 157.7909 548.5967 160 C548.5967 162.2091 546.8059 164 544.5967 164 C542.3876 164 540.5967 162.2091 540.5967 160 C540.5967 157.7909 542.3876 156 544.5967 156 Z" clip-path="url(#clipPath2)" stroke="none"/>
      <path fill="navy" d="M752.0652 160 L746.0652 172 L758.0652 172 Z" clip-path="url(#clipPath2)" stroke="none"/>
      <rect x="583.9521" y="216.9336" clip-path="url(#clipPath2)" fill="white" width="128.7578" height="18.1328" stroke="none"/>
      <text fill="navy" x="585.9521" xml:space="preserve" y="230.5352" clip-path="url(#clipPath2)" stroke="none">prov:wasGeneratedBy</text>
      <path fill="none" d="M766.0652 150 L782.0652 150 L782.0652 363 L565.5967 363" clip-path="url(#clipPath2)" stroke="navy"/>
      <path fill="navy" d="M758.0652 150 C758.0652 147.7909 759.856 146 762.0652 146 C764.2744 146 766.0652 147.7909 766.0652 150 C766.0652 152.2091 764.2744 154 762.0652 154 C759.856 154 758.0652 152.2091 758.0652 150 Z" clip-path="url(#clipPath2)" stroke="none"/>
      <path fill="navy" d="M554.5967 363 L566.5967 369 L566.5967 357 Z" clip-path="url(#clipPath2)" stroke="none"/>
      <rect x="608.0165" y="346.8672" clip-path="url(#clipPath2)" fill="white" width="129.7539" height="32.2656" stroke="none"/>
      <text fill="navy" x="610.0165" xml:space="preserve" y="360.4688" clip-path="url(#clipPath2)" stroke="none">prov:wasInfluencedBy</text>
      <text fill="navy" x="640.8574" xml:space="preserve" y="374.6016" clip-path="url(#clipPath2)" stroke="none">dct:subject</text>
      <path fill="none" d="M356.6283 150 L376.5 150 L376.5 279.5 L363.6283 279.5" clip-path="url(#clipPath2)" stroke="navy"/>
      <path fill="navy" d="M348.6283 150 C348.6283 147.7909 350.4192 146 352.6283 146 C354.8374 146 356.6283 147.7909 356.6283 150 C356.6283 152.2091 354.8374 154 352.6283 154 C350.4192 154 348.6283 152.2091 348.6283 150 Z" clip-path="url(#clipPath2)" stroke="none"/>
      <path fill="navy" d="M352.6283 279.5 L364.6283 285.5 L364.6283 273.5 Z" clip-path="url(#clipPath2)" stroke="none"/>
      <rect x="311.374" y="237.6836" clip-path="url(#clipPath2)" fill="white" width="130.252" height="18.1328" stroke="none"/>
      <text fill="navy" x="313.374" xml:space="preserve" y="251.2852" clip-path="url(#clipPath2)" stroke="none">prov:wasDerivedFrom</text>
      <path fill="none" d="M766.0652 150 L782.0652 150 L782.0652 279.5 L363.6283 279.5" clip-path="url(#clipPath2)" stroke="navy"/>
      <path fill="navy" d="M758.0652 150 C758.0652 147.7909 759.856 146 762.0652 146 C764.2744 146 766.0652 147.7909 766.0652 150 C766.0652 152.2091 764.2744 154 762.0652 154 C759.856 154 758.0652 152.2091 758.0652 150 Z" clip-path="url(#clipPath2)" stroke="none"/>
      <path fill="navy" d="M352.6283 279.5 L364.6283 285.5 L364.6283 273.5 Z" clip-path="url(#clipPath2)" stroke="none"/>
      <rect x="541.087" y="270.4336" clip-path="url(#clipPath2)" fill="white" width="61.6445" height="18.1328" stroke="none"/>
      <text fill="navy" x="543.087" xml:space="preserve" y="284.0352" clip-path="url(#clipPath2)" stroke="none">prov:used</text>
      <path fill="none" d="M342.6283 342.9812 L342.6283 297.5" clip-path="url(#clipPath2)"/>
      <path d="M342.6283 289.5 L337.6283 301.5 L342.6283 298.5 L347.6283 301.5 Z" clip-path="url(#clipPath2)" stroke="none"/>
      <path fill="none" d="M398.1006 363 L526.5967 363" clip-path="url(#clipPath2)"/>
      <path d="M534.5967 363 L522.5967 358 L525.5967 363 L522.5967 368 Z" clip-path="url(#clipPath2)" stroke="none"/>
    </g>
  </g>
</svg>
