<?xml version="1.0" encoding="UTF-8"?><svg xmlns="http://www.w3.org/2000/svg" xmlns:xlink="http://www.w3.org/1999/xlink" fill-opacity="1" color-rendering="auto" color-interpolation="auto" text-rendering="auto" stroke="black" stroke-linecap="square" width="1156" stroke-miterlimit="10" shape-rendering="auto" stroke-opacity="1" fill="black" stroke-dasharray="none" font-weight="normal" stroke-width="1" height="439" font-family="'Dialog'" font-style="normal" stroke-linejoin="miter" font-size="12px" stroke-dashoffset="0" image-rendering="auto">
  <!--Generated by ySVG 2.6-->
  <defs id="genericDefs"/>
  <g>
    <defs id="defs1">
      <clipPath clipPathUnits="userSpaceOnUse" id="clipPath1">
        <path d="M0 0 L1156 0 L1156 439 L0 439 L0 0 Z"/>
      </clipPath>
      <clipPath clipPathUnits="userSpaceOnUse" id="clipPath2">
        <path d="M-27 -36 L1129 -36 L1129 403 L-27 403 L-27 -36 Z"/>
      </clipPath>
    </defs>
    <g fill="white" text-rendering="geometricPrecision" shape-rendering="geometricPrecision" transform="translate(27,36)" stroke="white">
      <rect x="-27" width="1156" height="439" y="-36" clip-path="url(#clipPath2)" stroke="none"/>
    </g>
    <g fill="yellow" text-rendering="geometricPrecision" shape-rendering="geometricPrecision" transform="matrix(1,0,0,1,27,36)" stroke="yellow">
      <rect x="642" y="108" clip-path="url(#clipPath2)" width="166" rx="4" ry="4" height="62" stroke="none"/>
    </g>
    <g text-rendering="geometricPrecision" stroke-miterlimit="1.45" shape-rendering="geometricPrecision" font-family="sans-serif" transform="matrix(1,0,0,1,27,36)" stroke-linecap="butt">
      <text x="688.6836" xml:space="preserve" y="129.4023" clip-path="url(#clipPath2)" stroke="none">dcat:Dataset</text>
      <text x="693.7461" xml:space="preserve" y="143.5352" clip-path="url(#clipPath2)" stroke="none">prov:Entity</text>
      <text x="650.5127" xml:space="preserve" y="157.668" clip-path="url(#clipPath2)" stroke="none">crmdig:D1_Digital_Object</text>
      <rect x="642" y="108" clip-path="url(#clipPath2)" fill="none" width="166" rx="4" ry="4" height="62"/>
    </g>
    <g fill="yellow" text-rendering="geometricPrecision" shape-rendering="geometricPrecision" transform="matrix(1,0,0,1,27,36)" stroke="yellow">
      <rect x="219.5" y="348" clip-path="url(#clipPath2)" width="111" rx="4" ry="4" height="40" stroke="none"/>
    </g>
    <g text-rendering="geometricPrecision" stroke-miterlimit="1.45" shape-rendering="geometricPrecision" font-family="sans-serif" transform="matrix(1,0,0,1,27,36)" stroke-linecap="butt">
      <text x="238.6689" xml:space="preserve" y="372.5352" clip-path="url(#clipPath2)" stroke="none">prov:Activity</text>
      <rect x="219.5" y="348" clip-path="url(#clipPath2)" fill="none" width="111" rx="4" ry="4" height="40"/>
    </g>
    <g fill="rgb(255,153,204)" text-rendering="geometricPrecision" shape-rendering="geometricPrecision" transform="matrix(1,0,0,1,27,36)" stroke="rgb(255,153,204)">
      <circle r="10" clip-path="url(#clipPath2)" cx="725" cy="225" stroke="none"/>
    </g>
    <g text-rendering="geometricPrecision" stroke-miterlimit="1.45" shape-rendering="geometricPrecision" font-family="sans-serif" transform="matrix(1,0,0,1,27,36)" stroke-linecap="butt">
      <text x="741" xml:space="preserve" y="210.4688" clip-path="url(#clipPath2)" stroke="none">Image dataset</text>
      <circle fill="none" stroke-width="3" r="10" clip-path="url(#clipPath2)" cx="725" cy="225"/>
    </g>
    <g fill="rgb(255,153,204)" text-rendering="geometricPrecision" shape-rendering="geometricPrecision" transform="matrix(1,0,0,1,27,36)" stroke="rgb(255,153,204)">
      <circle r="10" clip-path="url(#clipPath2)" cx="275" cy="300" stroke="none"/>
    </g>
    <g text-rendering="geometricPrecision" stroke-miterlimit="1.45" shape-rendering="geometricPrecision" font-family="sans-serif" transform="matrix(1,0,0,1,27,36)" stroke-linecap="butt">
      <text x="117.2266" xml:space="preserve" y="304.5352" clip-path="url(#clipPath2)" stroke="none">Research project activity</text>
      <circle fill="none" stroke-width="3" r="10" clip-path="url(#clipPath2)" cx="275" cy="300"/>
    </g>
    <g fill="rgb(255,153,204)" text-rendering="geometricPrecision" shape-rendering="geometricPrecision" transform="matrix(1,0,0,1,27,36)" stroke="rgb(255,153,204)">
      <circle r="10" clip-path="url(#clipPath2)" cx="275" cy="225" stroke="none"/>
    </g>
    <g text-rendering="geometricPrecision" stroke-miterlimit="1.45" shape-rendering="geometricPrecision" font-family="sans-serif" transform="matrix(1,0,0,1,27,36)" stroke-linecap="butt">
      <text x="291" xml:space="preserve" y="210.4688" clip-path="url(#clipPath2)" stroke="none">Scanning photographs</text>
      <circle fill="none" stroke-width="3" r="10" clip-path="url(#clipPath2)" cx="275" cy="225"/>
    </g>
    <g fill="rgb(255,153,204)" text-rendering="geometricPrecision" shape-rendering="geometricPrecision" transform="matrix(1,0,0,1,27,36)" stroke="rgb(255,153,204)">
      <circle r="10" clip-path="url(#clipPath2)" cx="500" cy="300" stroke="none"/>
    </g>
    <g text-rendering="geometricPrecision" stroke-miterlimit="1.45" shape-rendering="geometricPrecision" font-family="sans-serif" transform="matrix(1,0,0,1,27,36)" stroke-linecap="butt">
      <text x="365.7871" xml:space="preserve" y="323.6016" clip-path="url(#clipPath2)" stroke="none">Creating the dataset</text>
      <circle fill="none" stroke-width="3" r="10" clip-path="url(#clipPath2)" cx="500" cy="300"/>
    </g>
    <g fill="rgb(255,153,204)" text-rendering="geometricPrecision" shape-rendering="geometricPrecision" transform="matrix(1,0,0,1,27,36)" stroke="rgb(255,153,204)">
      <circle r="10" clip-path="url(#clipPath2)" cx="950" cy="225" stroke="none"/>
    </g>
    <g text-rendering="geometricPrecision" stroke-miterlimit="1.45" shape-rendering="geometricPrecision" font-family="sans-serif" transform="matrix(1,0,0,1,27,36)" stroke-linecap="butt">
      <text x="966" xml:space="preserve" y="229.5352" clip-path="url(#clipPath2)" stroke="none">Existing image collection</text>
      <circle fill="none" stroke-width="3" r="10" clip-path="url(#clipPath2)" cx="950" cy="225"/>
    </g>
    <g fill="yellow" text-rendering="geometricPrecision" shape-rendering="geometricPrecision" transform="matrix(1,0,0,1,27,36)" stroke="yellow">
      <rect x="894.5" y="270" clip-path="url(#clipPath2)" width="111" rx="4" ry="4" height="40" stroke="none"/>
    </g>
    <g text-rendering="geometricPrecision" stroke-miterlimit="1.45" shape-rendering="geometricPrecision" font-family="sans-serif" transform="matrix(1,0,0,1,27,36)" stroke-linecap="butt">
      <text x="918.7461" xml:space="preserve" y="294.5352" clip-path="url(#clipPath2)" stroke="none">prov:Entity</text>
      <rect x="894.5" y="270" clip-path="url(#clipPath2)" fill="none" width="111" rx="4" ry="4" height="40"/>
    </g>
    <g fill="rgb(255,153,204)" text-rendering="geometricPrecision" shape-rendering="geometricPrecision" transform="matrix(1,0,0,1,27,36)" stroke="rgb(255,153,204)">
      <circle r="10" clip-path="url(#clipPath2)" cx="275" cy="140" stroke="none"/>
    </g>
    <g text-rendering="geometricPrecision" stroke-miterlimit="1.45" shape-rendering="geometricPrecision" font-family="sans-serif" transform="matrix(1,0,0,1,27,36)" stroke-linecap="butt">
      <text x="291" xml:space="preserve" y="144.5352" clip-path="url(#clipPath2)" stroke="none">Old photographs</text>
      <circle fill="none" stroke-width="3" r="10" clip-path="url(#clipPath2)" cx="275" cy="140"/>
    </g>
    <g fill="rgb(255,153,204)" text-rendering="geometricPrecision" shape-rendering="geometricPrecision" transform="matrix(1,0,0,1,27,36)" stroke="rgb(255,153,204)">
      <circle r="10" clip-path="url(#clipPath2)" cx="275" cy="65" stroke="none"/>
    </g>
    <g text-rendering="geometricPrecision" stroke-miterlimit="1.45" shape-rendering="geometricPrecision" font-family="sans-serif" transform="matrix(1,0,0,1,27,36)" stroke-linecap="butt">
      <text x="162.9707" xml:space="preserve" y="69.5352" clip-path="url(#clipPath2)" stroke="none">Specific building</text>
      <circle fill="none" stroke-width="3" r="10" clip-path="url(#clipPath2)" cx="275" cy="65"/>
    </g>
    <g fill="rgb(255,153,204)" text-rendering="geometricPrecision" shape-rendering="geometricPrecision" transform="matrix(1,0,0,1,27,36)" stroke="rgb(255,153,204)">
      <circle r="10" clip-path="url(#clipPath2)" cx="500" cy="225" stroke="none"/>
    </g>
    <g text-rendering="geometricPrecision" stroke-miterlimit="1.45" shape-rendering="geometricPrecision" font-family="sans-serif" transform="matrix(1,0,0,1,27,36)" stroke-linecap="butt">
      <text x="516" xml:space="preserve" y="210.4688" clip-path="url(#clipPath2)" stroke="none">Scanned images</text>
      <circle fill="none" stroke-width="3" r="10" clip-path="url(#clipPath2)" cx="500" cy="225"/>
    </g>
    <g fill="yellow" text-rendering="geometricPrecision" shape-rendering="geometricPrecision" transform="matrix(1,0,0,1,27,36)" stroke="yellow">
      <rect x="427.5" y="130" clip-path="url(#clipPath2)" width="145" rx="4" ry="4" height="40" stroke="none"/>
    </g>
    <g text-rendering="geometricPrecision" stroke-miterlimit="1.45" shape-rendering="geometricPrecision" font-family="sans-serif" transform="matrix(1,0,0,1,27,36)" stroke-linecap="butt">
      <text x="431.1436" xml:space="preserve" y="154.5352" clip-path="url(#clipPath2)" stroke="none">crmdig:D9_Data_Object</text>
      <rect x="427.5" y="130" clip-path="url(#clipPath2)" fill="none" width="145" rx="4" ry="4" height="40"/>
    </g>
    <g fill="yellow" text-rendering="geometricPrecision" shape-rendering="geometricPrecision" transform="matrix(1,0,0,1,27,36)" stroke="yellow">
      <rect x="392.5" y="348" clip-path="url(#clipPath2)" width="215" rx="4" ry="4" height="40" stroke="none"/>
    </g>
    <g text-rendering="geometricPrecision" stroke-miterlimit="1.45" shape-rendering="geometricPrecision" font-family="sans-serif" transform="matrix(1,0,0,1,27,36)" stroke-linecap="butt">
      <text x="401.6885" xml:space="preserve" y="372.5352" clip-path="url(#clipPath2)" stroke="none">crmdig:D7_Digital_Machine_Event</text>
      <rect x="392.5" y="348" clip-path="url(#clipPath2)" fill="none" width="215" rx="4" ry="4" height="40"/>
    </g>
    <g fill="yellow" text-rendering="geometricPrecision" shape-rendering="geometricPrecision" transform="matrix(1,0,0,1,27,36)" stroke="yellow">
      <rect x="-11.5" y="205" clip-path="url(#clipPath2)" width="215" rx="4" ry="4" height="40" stroke="none"/>
    </g>
    <g text-rendering="geometricPrecision" stroke-miterlimit="1.45" shape-rendering="geometricPrecision" font-family="sans-serif" transform="matrix(1,0,0,1,27,36)" stroke-linecap="butt">
      <text x="3.6182" xml:space="preserve" y="229.5352" clip-path="url(#clipPath2)" stroke="none">crmdig:D2_Digitization_Process</text>
      <rect x="-11.5" y="205" clip-path="url(#clipPath2)" fill="none" width="215" rx="4" ry="4" height="40"/>
    </g>
    <g fill="yellow" text-rendering="geometricPrecision" shape-rendering="geometricPrecision" transform="matrix(1,0,0,1,27,36)" stroke="yellow">
      <rect x="50.5" y="120" clip-path="url(#clipPath2)" width="153" rx="4" ry="4" height="40" stroke="none"/>
    </g>
    <g text-rendering="geometricPrecision" stroke-miterlimit="1.45" shape-rendering="geometricPrecision" font-family="sans-serif" transform="matrix(1,0,0,1,27,36)" stroke-linecap="butt">
      <text x="57.3262" xml:space="preserve" y="144.5352" clip-path="url(#clipPath2)" stroke="none">crm:E18_Physical_Thing</text>
      <rect x="50.5" y="120" clip-path="url(#clipPath2)" fill="none" width="153" rx="4" ry="4" height="40"/>
    </g>
    <g fill="yellow" text-rendering="geometricPrecision" shape-rendering="geometricPrecision" transform="matrix(1,0,0,1,27,36)" stroke="yellow">
      <rect x="222.5" y="-21" clip-path="url(#clipPath2)" width="105" rx="4" ry="4" height="40" stroke="none"/>
    </g>
    <g text-rendering="geometricPrecision" stroke-miterlimit="1.45" shape-rendering="geometricPrecision" font-family="sans-serif" transform="matrix(1,0,0,1,27,36)" stroke-linecap="butt">
      <text x="235.5928" xml:space="preserve" y="3.5352" clip-path="url(#clipPath2)" stroke="none">crm:E1_Entity</text>
      <rect x="222.5" y="-21" clip-path="url(#clipPath2)" fill="none" width="105" rx="4" ry="4" height="40"/>
      <path fill="none" d="M725 170 L725 207" clip-path="url(#clipPath2)"/>
      <path d="M725 215 L730 203 L725 206 L720 203 Z" clip-path="url(#clipPath2)" stroke="none"/>
      <path fill="none" d="M275 347.9629 L275 318" clip-path="url(#clipPath2)"/>
      <path d="M275 310 L270 322 L275 319 L280 322 Z" clip-path="url(#clipPath2)" stroke="none"/>
      <path fill="none" d="M275 286 L275 246" clip-path="url(#clipPath2)" stroke="navy"/>
      <path fill="navy" d="M275 294 C272.7909 294 271 292.2091 271 290 C271 287.7909 272.7909 286 275 286 C277.2091 286 279 287.7909 279 290 C279 292.2091 277.2091 294 275 294 Z" clip-path="url(#clipPath2)" stroke="none"/>
      <path fill="navy" d="M275 235 L269 247 L281 247 Z" clip-path="url(#clipPath2)" stroke="none"/>
      <rect x="213.9785" y="253.4336" clip-path="url(#clipPath2)" fill="white" width="122.043" height="18.1328" stroke="none"/>
      <text fill="navy" x="215.9785" xml:space="preserve" y="267.0352" clip-path="url(#clipPath2)" stroke="none">prov:wasInformedBy</text>
      <path fill="none" d="M289 300 L479 300" clip-path="url(#clipPath2)" stroke="navy"/>
      <path fill="navy" d="M281 300 C281 297.7909 282.7909 296 285 296 C287.2091 296 289 297.7909 289 300 C289 302.2091 287.2091 304 285 304 C282.7909 304 281 302.2091 281 300 Z" clip-path="url(#clipPath2)" stroke="none"/>
      <path fill="navy" d="M490 300 L478 294 L478 306 Z" clip-path="url(#clipPath2)" stroke="none"/>
      <rect x="326.4785" y="290.9336" clip-path="url(#clipPath2)" fill="white" width="122.043" height="18.1328" stroke="none"/>
      <text fill="navy" x="328.4785" xml:space="preserve" y="304.5352" clip-path="url(#clipPath2)" stroke="none">prov:wasInformedBy</text>
      <path fill="none" d="M514 300 L725 300 L725 246" clip-path="url(#clipPath2)" stroke="navy"/>
      <path fill="navy" d="M506 300 C506 297.7909 507.7909 296 510 296 C512.2092 296 514 297.7909 514 300 C514 302.2091 512.2092 304 510 304 C507.7909 304 506 302.2091 506 300 Z" clip-path="url(#clipPath2)" stroke="none"/>
      <path fill="navy" d="M725 235 L719 247 L731 247 Z" clip-path="url(#clipPath2)" stroke="none"/>
      <rect x="562.6623" y="290.9336" clip-path="url(#clipPath2)" fill="white" width="142.5566" height="18.1328" stroke="none"/>
      <text fill="navy" x="564.6623" xml:space="preserve" y="304.5352" clip-path="url(#clipPath2)" stroke="none">crmdig:L11_had_output</text>
      <path fill="none" d="M739 225 L929 225" clip-path="url(#clipPath2)" stroke="navy"/>
      <path fill="navy" d="M731 225 C731 222.7909 732.7908 221 735 221 C737.2092 221 739 222.7909 739 225 C739 227.2091 737.2092 229 735 229 C732.7908 229 731 227.2091 731 225 Z" clip-path="url(#clipPath2)" stroke="none"/>
      <path fill="navy" d="M940 225 L928 219 L928 231 Z" clip-path="url(#clipPath2)" stroke="none"/>
      <rect x="758.0889" y="215.9336" clip-path="url(#clipPath2)" fill="white" width="158.8223" height="18.1328" stroke="none"/>
      <text fill="navy" x="760.0889" xml:space="preserve" y="229.5352" clip-path="url(#clipPath2)" stroke="none">crm:P106_is_composed_of</text>
      <path fill="none" d="M950 269.9902 L950 243" clip-path="url(#clipPath2)"/>
      <path d="M950 235 L945 247 L950 244 L955 247 Z" clip-path="url(#clipPath2)" stroke="none"/>
      <path fill="none" d="M275 211 L275 161" clip-path="url(#clipPath2)" stroke="navy"/>
      <path fill="navy" d="M275 219 C272.7909 219 271 217.2091 271 215 C271 212.7909 272.7909 211 275 211 C277.2091 211 279 212.7909 279 215 C279 217.2091 277.2091 219 275 219 Z" clip-path="url(#clipPath2)" stroke="none"/>
      <path fill="navy" d="M275 150 L269 162 L281 162 Z" clip-path="url(#clipPath2)" stroke="none"/>
      <rect x="215.2031" y="173.4336" clip-path="url(#clipPath2)" fill="white" width="119.5938" height="18.1328" stroke="none"/>
      <text fill="navy" x="217.2031" xml:space="preserve" y="187.0352" clip-path="url(#clipPath2)" stroke="none">crmdig:L1_digitized</text>
      <path fill="none" d="M275 126 L275 86" clip-path="url(#clipPath2)" stroke="navy"/>
      <path fill="navy" d="M275 134 C272.7909 134 271 132.2091 271 130 C271 127.7909 272.7909 126 275 126 C277.2091 126 279 127.7909 279 130 C279 132.2091 277.2091 134 275 134 Z" clip-path="url(#clipPath2)" stroke="none"/>
      <path fill="navy" d="M275 75 L269 87 L281 87 Z" clip-path="url(#clipPath2)" stroke="none"/>
      <rect x="217.7373" y="93.4336" clip-path="url(#clipPath2)" fill="white" width="114.5254" height="18.1328" stroke="none"/>
      <text fill="navy" x="219.7373" xml:space="preserve" y="107.0352" clip-path="url(#clipPath2)" stroke="none">crm:P129_is_about</text>
      <path fill="none" d="M711 225 L521 225" clip-path="url(#clipPath2)" stroke="navy"/>
      <path fill="navy" d="M719 225 C719 227.2091 717.2092 229 715 229 C712.7908 229 711 227.2091 711 225 C711 222.7909 712.7908 221 715 221 C717.2092 221 719 222.7909 719 225 Z" clip-path="url(#clipPath2)" stroke="none"/>
      <path fill="navy" d="M510 225 L522 231 L522 219 Z" clip-path="url(#clipPath2)" stroke="none"/>
      <rect x="533.0889" y="215.9336" clip-path="url(#clipPath2)" fill="white" width="158.8223" height="18.1328" stroke="none"/>
      <text fill="navy" x="535.0889" xml:space="preserve" y="229.5352" clip-path="url(#clipPath2)" stroke="none">crm:P106_is_composed_of</text>
      <path fill="none" d="M500 286 L500 246" clip-path="url(#clipPath2)" stroke="navy"/>
      <path fill="navy" d="M500 294 C497.7909 294 496 292.2091 496 290 C496 287.7909 497.7909 286 500 286 C502.2091 286 504 287.7909 504 290 C504 292.2091 502.2091 294 500 294 Z" clip-path="url(#clipPath2)" stroke="none"/>
      <path fill="navy" d="M500 235 L494 247 L506 247 Z" clip-path="url(#clipPath2)" stroke="none"/>
      <rect x="432.917" y="253.4336" clip-path="url(#clipPath2)" fill="white" width="134.166" height="18.1328" stroke="none"/>
      <text fill="navy" x="434.917" xml:space="preserve" y="267.0352" clip-path="url(#clipPath2)" stroke="none">crmdig:L10_had_input</text>
      <path fill="none" d="M289 225 L479 225" clip-path="url(#clipPath2)" stroke="navy"/>
      <path fill="navy" d="M281 225 C281 222.7909 282.7909 221 285 221 C287.2091 221 289 222.7909 289 225 C289 227.2091 287.2091 229 285 229 C282.7909 229 281 227.2091 281 225 Z" clip-path="url(#clipPath2)" stroke="none"/>
      <path fill="navy" d="M490 225 L478 219 L478 231 Z" clip-path="url(#clipPath2)" stroke="none"/>
      <rect x="314.7891" y="215.9336" clip-path="url(#clipPath2)" fill="white" width="145.4219" height="18.1328" stroke="none"/>
      <text fill="navy" x="316.7891" xml:space="preserve" y="229.5352" clip-path="url(#clipPath2)" stroke="none">crmdig:L20_has_created</text>
      <path fill="none" d="M500 170 L500 207" clip-path="url(#clipPath2)"/>
      <path d="M500 215 L505 203 L500 206 L495 203 Z" clip-path="url(#clipPath2)" stroke="none"/>
      <path fill="none" d="M500 347.9629 L500 318" clip-path="url(#clipPath2)"/>
      <path d="M500 310 L495 322 L500 319 L505 322 Z" clip-path="url(#clipPath2)" stroke="none"/>
      <path fill="none" d="M203.5 225 L257 225" clip-path="url(#clipPath2)"/>
      <path d="M265 225 L253 220 L256 225 L253 230 Z" clip-path="url(#clipPath2)" stroke="none"/>
      <path fill="none" d="M203.5 140 L257 140" clip-path="url(#clipPath2)"/>
      <path d="M265 140 L253 135 L256 140 L253 145 Z" clip-path="url(#clipPath2)" stroke="none"/>
      <path fill="none" d="M275 19 L275 47" clip-path="url(#clipPath2)"/>
      <path d="M275 55 L280 43 L275 46 L270 43 Z" clip-path="url(#clipPath2)" stroke="none"/>
    </g>
  </g>
</svg>
