<?xml version="1.0" encoding="UTF-8"?><svg xmlns="http://www.w3.org/2000/svg" xmlns:xlink="http://www.w3.org/1999/xlink" fill-opacity="1" color-rendering="auto" color-interpolation="auto" text-rendering="auto" stroke="black" stroke-linecap="square" width="827" stroke-miterlimit="10" shape-rendering="auto" stroke-opacity="1" fill="black" stroke-dasharray="none" font-weight="normal" stroke-width="1" height="359" font-family="'Dialog'" font-style="normal" stroke-linejoin="miter" font-size="12px" stroke-dashoffset="0" image-rendering="auto">
  <!--Generated by ySVG 2.6-->
  <defs id="genericDefs"/>
  <g>
    <defs id="defs1">
      <clipPath clipPathUnits="userSpaceOnUse" id="clipPath1">
        <path d="M0 0 L827 0 L827 359 L0 359 L0 0 Z"/>
      </clipPath>
      <clipPath clipPathUnits="userSpaceOnUse" id="clipPath2">
        <path d="M388 221 L1215 221 L1215 580 L388 580 L388 221 Z"/>
      </clipPath>
    </defs>
    <g fill="white" text-rendering="geometricPrecision" shape-rendering="geometricPrecision" transform="translate(-388,-221)" stroke="white">
      <rect x="388" width="827" height="359" y="221" clip-path="url(#clipPath2)" stroke="none"/>
    </g>
    <g fill="yellow" text-rendering="geometricPrecision" shape-rendering="geometricPrecision" transform="matrix(1,0,0,1,-388,-221)" stroke="yellow">
      <rect x="690.0159" y="236" clip-path="url(#clipPath2)" width="178.9682" rx="4" ry="4" height="63" stroke="none"/>
    </g>
    <g font-size="16px" stroke-linecap="butt" transform="matrix(1,0,0,1,-388,-221)" text-rendering="geometricPrecision" font-family="sans-serif" shape-rendering="geometricPrecision" stroke-miterlimit="1.45">
      <text x="697.4727" xml:space="preserve" y="273.5469" clip-path="url(#clipPath2)" stroke="none">skos:ConceptScheme</text>
      <rect x="690.0159" y="236" clip-path="url(#clipPath2)" fill="none" width="178.9682" rx="4" ry="4" height="63"/>
    </g>
    <g fill="yellow" text-rendering="geometricPrecision" shape-rendering="geometricPrecision" transform="matrix(1,0,0,1,-388,-221)" stroke="yellow">
      <rect x="698.5159" y="422" clip-path="url(#clipPath2)" width="161.9682" rx="4" ry="4" height="55" stroke="none"/>
    </g>
    <g font-size="16px" stroke-linecap="butt" transform="matrix(1,0,0,1,-388,-221)" text-rendering="geometricPrecision" font-family="sans-serif" shape-rendering="geometricPrecision" stroke-miterlimit="1.45">
      <text x="727.2266" xml:space="preserve" y="455.5469" clip-path="url(#clipPath2)" stroke="none">skos:Concept</text>
      <rect x="698.5159" y="422" clip-path="url(#clipPath2)" fill="none" width="161.9682" rx="4" ry="4" height="55"/>
    </g>
    <g fill="rgb(204,255,204)" text-rendering="geometricPrecision" shape-rendering="geometricPrecision" transform="matrix(1,0,0,1,-388,-221)" stroke="rgb(204,255,204)">
      <path d="M1073.562 487 L1187.0475 487 L1174.438 530 L1060.9525 530 Z" fill-rule="evenodd" clip-path="url(#clipPath2)" stroke="none"/>
    </g>
    <g font-size="16px" stroke-linecap="butt" transform="matrix(1,0,0,1,-388,-221)" text-rendering="geometricPrecision" font-family="sans-serif" shape-rendering="geometricPrecision" stroke-miterlimit="1.45">
      <text x="1082.1094" xml:space="preserve" y="514.5469" clip-path="url(#clipPath2)" stroke="none">rdfs:Literal</text>
      <path fill="none" d="M1073.562 487 L1187.0475 487 L1174.438 530 L1060.9525 530 Z" fill-rule="evenodd" clip-path="url(#clipPath2)"/>
    </g>
    <g fill="rgb(204,255,204)" text-rendering="geometricPrecision" shape-rendering="geometricPrecision" transform="matrix(1,0,0,1,-388,-221)" stroke="rgb(204,255,204)">
      <path d="M1086.467 377 L1199.9525 377 L1187.343 420 L1073.8575 420 Z" fill-rule="evenodd" clip-path="url(#clipPath2)" stroke="none"/>
    </g>
    <g font-size="16px" stroke-linecap="butt" transform="matrix(1,0,0,1,-388,-221)" text-rendering="geometricPrecision" font-family="sans-serif" shape-rendering="geometricPrecision" stroke-miterlimit="1.45">
      <text x="1083.7449" xml:space="preserve" y="404.5469" clip-path="url(#clipPath2)" stroke="none">rdfs:Resource</text>
      <path fill="none" d="M1086.467 377 L1199.9525 377 L1187.343 420 L1073.8575 420 Z" fill-rule="evenodd" clip-path="url(#clipPath2)"/>
    </g>
    <g fill="yellow" text-rendering="geometricPrecision" shape-rendering="geometricPrecision" transform="matrix(1,0,0,1,-388,-221)" stroke="yellow">
      <rect x="403.0477" y="422" clip-path="url(#clipPath2)" width="161.9682" rx="4" ry="4" height="55" stroke="none"/>
    </g>
    <g font-size="16px" stroke-linecap="butt" transform="matrix(1,0,0,1,-388,-221)" text-rendering="geometricPrecision" font-family="sans-serif" shape-rendering="geometricPrecision" stroke-miterlimit="1.45">
      <text x="424.9419" xml:space="preserve" y="455.5469" clip-path="url(#clipPath2)" stroke="none">skos:Collection</text>
      <rect x="403.0477" y="422" clip-path="url(#clipPath2)" fill="none" width="161.9682" rx="4" ry="4" height="55"/>
    </g>
    <g stroke-linecap="butt" transform="matrix(1,0,0,1,-388,-221)" fill="navy" text-rendering="geometricPrecision" shape-rendering="geometricPrecision" stroke="navy" stroke-miterlimit="1.45">
      <path fill="none" d="M716.7653 481.0078 L716.7653 541.5 L849.275 541.5 L849.275 488.015" clip-path="url(#clipPath2)"/>
      <path d="M716.7653 473.0078 C718.9745 473.0078 720.7653 474.7987 720.7653 477.0078 C720.7653 479.2169 718.9745 481.0078 716.7653 481.0078 C714.5562 481.0078 712.7653 479.2169 712.7653 477.0078 C712.7653 474.7987 714.5562 473.0078 716.7653 473.0078 Z" clip-path="url(#clipPath2)" stroke="none"/>
      <path d="M849.275 477.015 L843.275 489.015 L855.275 489.015 Z" clip-path="url(#clipPath2)" stroke="none"/>
      <rect x="737.86" y="518.3008" clip-path="url(#clipPath2)" fill="white" width="90.3203" height="46.3984" stroke="none"/>
      <text x="739.86" xml:space="preserve" y="531.9023" clip-path="url(#clipPath2)" font-family="sans-serif" stroke="none">skos:narrower </text>
      <text x="743.1091" xml:space="preserve" y="546.0352" clip-path="url(#clipPath2)" font-family="sans-serif" stroke="none">skos:broader </text>
      <text x="747.6032" xml:space="preserve" y="560.168" clip-path="url(#clipPath2)" font-family="sans-serif" stroke="none">skos:related</text>
      <path fill="none" d="M779.5 417.9956 L779.5 309.9951" clip-path="url(#clipPath2)"/>
      <path d="M779.5 425.9956 C777.2908 425.9956 775.5 424.2047 775.5 421.9956 C775.5 419.7865 777.2908 417.9956 779.5 417.9956 C781.7092 417.9956 783.5 419.7865 783.5 421.9956 C783.5 424.2047 781.7092 425.9956 779.5 425.9956 Z" clip-path="url(#clipPath2)" stroke="none"/>
      <path d="M779.5 298.9951 L773.5 310.9951 L785.5 310.9951 Z" clip-path="url(#clipPath2)" stroke="none"/>
      <rect x="721.7217" y="344.3672" clip-path="url(#clipPath2)" fill="white" width="115.5566" height="32.2656" stroke="none"/>
      <text x="734.6201" xml:space="preserve" y="357.9688" clip-path="url(#clipPath2)" font-family="sans-serif" stroke="none">skos:inScheme </text>
      <text x="723.7217" xml:space="preserve" y="372.1016" clip-path="url(#clipPath2)" font-family="sans-serif" stroke="none">skos:topConceptOf</text>
      <path fill="none" d="M864.3951 464.0394 L1055.1996 496.7171" clip-path="url(#clipPath2)" stroke="green"/>
    </g>
    <g stroke-linecap="butt" transform="matrix(1,0,0,1,-388,-221)" fill-opacity="0" fill="rgb(0,0,0)" text-rendering="geometricPrecision" shape-rendering="geometricPrecision" stroke="rgb(0,0,0)" stroke-opacity="0" stroke-miterlimit="1.45">
      <path d="M856.5098 462.6889 C856.8828 460.5115 858.9503 459.0486 861.1277 459.4215 C863.3051 459.7945 864.7679 461.8619 864.3951 464.0394 C864.0222 466.2168 861.9547 467.6797 859.7772 467.3067 C857.5998 466.9338 856.137 464.8663 856.5098 462.6889 Z" stroke="none" clip-path="url(#clipPath2)"/>
    </g>
    <g stroke-linecap="butt" transform="matrix(1,0,0,1,-388,-221)" fill="green" text-rendering="geometricPrecision" shape-rendering="geometricPrecision" stroke="green" stroke-miterlimit="1.45">
      <path fill="none" d="M856.5098 462.6889 C856.8828 460.5115 858.9503 459.0486 861.1277 459.4215 C863.3051 459.7945 864.7679 461.8619 864.3951 464.0394 C864.0222 466.2168 861.9547 467.6797 859.7772 467.3067 C857.5998 466.9338 856.137 464.8663 856.5098 462.6889 Z" clip-path="url(#clipPath2)"/>
      <path fill="white" d="M1069.9844 499.2491 L1055.2268 490.6344 L1053.2012 502.4622 Z" clip-path="url(#clipPath2)" stroke="none"/>
      <path fill="none" d="M1069.9844 499.2491 L1055.2268 490.6344 L1053.2012 502.4622 Z" clip-path="url(#clipPath2)"/>
      <rect x="911.8082" y="450.2703" clip-path="url(#clipPath2)" fill="white" width="97.8203" height="60.5312" stroke="none"/>
      <text x="913.8082" xml:space="preserve" y="463.8719" clip-path="url(#clipPath2)" font-family="sans-serif" stroke="none">skos:definition  </text>
      <text x="920.9537" xml:space="preserve" y="478.0047" clip-path="url(#clipPath2)" font-family="sans-serif" stroke="none">skos:altLabel </text>
      <text x="916.4654" xml:space="preserve" y="492.1375" clip-path="url(#clipPath2)" font-family="sans-serif" stroke="none">skos:prefLabel </text>
      <text x="920.7193" xml:space="preserve" y="506.2703" clip-path="url(#clipPath2)" font-family="sans-serif" stroke="none">skos:example</text>
      <path fill="none" d="M864.4781 437.374 L1062.8441 409.0681" clip-path="url(#clipPath2)"/>
    </g>
    <g stroke-linecap="butt" transform="matrix(1,0,0,1,-388,-221)" fill-opacity="0" fill="rgb(0,0,0)" text-rendering="geometricPrecision" shape-rendering="geometricPrecision" stroke="rgb(0,0,0)" stroke-opacity="0" stroke-miterlimit="1.45">
      <path d="M856.5583 438.5042 C856.2462 436.3172 857.7661 434.2913 859.9531 433.9792 C862.1401 433.6671 864.166 435.187 864.4781 437.374 C864.7902 439.561 863.2703 441.5869 861.0833 441.899 C858.8962 442.2111 856.8704 440.6911 856.5583 438.5042 Z" stroke="none" clip-path="url(#clipPath2)"/>
    </g>
    <g stroke-linecap="butt" transform="matrix(1,0,0,1,-388,-221)" fill="green" text-rendering="geometricPrecision" shape-rendering="geometricPrecision" stroke="green" stroke-miterlimit="1.45">
      <path fill="none" d="M856.5583 438.5042 C856.2462 436.3172 857.7661 434.2913 859.9531 433.9792 C862.1401 433.6671 864.166 435.187 864.4781 437.374 C864.7902 439.561 863.2703 441.5869 861.0833 441.899 C858.8962 442.2111 856.8704 440.6911 856.5583 438.5042 Z" clip-path="url(#clipPath2)"/>
      <path fill="white" d="M1077.6937 406.9492 L1061.0066 403.2696 L1062.7018 415.1492 Z" clip-path="url(#clipPath2)" stroke="none"/>
      <path fill="none" d="M1077.6937 406.9492 L1061.0066 403.2696 L1062.7018 415.1492 Z" clip-path="url(#clipPath2)"/>
      <rect x="908.4345" y="399.521" clip-path="url(#clipPath2)" fill="white" width="117.4727" height="46.3984" stroke="none"/>
      <text x="917.6474" xml:space="preserve" y="413.1226" clip-path="url(#clipPath2)" font-family="sans-serif" stroke="none">skos:closeMatch </text>
      <text x="910.4345" xml:space="preserve" y="427.2554" clip-path="url(#clipPath2)" font-family="sans-serif" stroke="none">skos:relatedMatch  </text>
      <text x="922.3818" xml:space="preserve" y="441.3882" clip-path="url(#clipPath2)" font-family="sans-serif" stroke="none">dcterms:source</text>
      <path fill="none" d="M569.0042 449.5 L687.5142 449.5" clip-path="url(#clipPath2)" stroke="navy"/>
      <path fill="navy" d="M561.0042 449.5 C561.0042 447.2909 562.795 445.5 565.0042 445.5 C567.2134 445.5 569.0042 447.2909 569.0042 449.5 C569.0042 451.7091 567.2134 453.5 565.0042 453.5 C562.795 453.5 561.0042 451.7091 561.0042 449.5 Z" clip-path="url(#clipPath2)" stroke="none"/>
      <path fill="navy" d="M698.5142 449.5 L686.5142 443.5 L686.5142 455.5 Z" clip-path="url(#clipPath2)" stroke="none"/>
      <rect x="590.4378" y="440.4336" clip-path="url(#clipPath2)" fill="white" width="82.6562" height="18.1328" stroke="none"/>
      <text x="592.4377" y="454.0352" clip-path="url(#clipPath2)" fill="navy" font-family="sans-serif" stroke="none" xml:space="preserve">skos:member</text>
    </g>
  </g>
</svg>
