<?xml version="1.0" encoding="UTF-8"?><svg xmlns="http://www.w3.org/2000/svg" xmlns:xlink="http://www.w3.org/1999/xlink" fill-opacity="1" color-rendering="auto" color-interpolation="auto" text-rendering="auto" stroke="black" stroke-linecap="square" width="1038" stroke-miterlimit="10" shape-rendering="auto" stroke-opacity="1" fill="black" stroke-dasharray="none" font-weight="normal" stroke-width="1" height="310" font-family="'Dialog'" font-style="normal" stroke-linejoin="miter" font-size="12px" stroke-dashoffset="0" image-rendering="auto">
  <!--Generated by ySVG 2.6-->
  <defs id="genericDefs"/>
  <g>
    <defs id="defs1">
      <clipPath clipPathUnits="userSpaceOnUse" id="clipPath1">
        <path d="M0 0 L1038 0 L1038 310 L0 310 L0 0 Z"/>
      </clipPath>
      <clipPath clipPathUnits="userSpaceOnUse" id="clipPath2">
        <path d="M127 -21 L1165 -21 L1165 289 L127 289 L127 -21 Z"/>
      </clipPath>
    </defs>
    <g fill="white" text-rendering="geometricPrecision" shape-rendering="geometricPrecision" transform="translate(-127,21)" stroke="white">
      <rect x="127" width="1038" height="310" y="-21" clip-path="url(#clipPath2)" stroke="none"/>
    </g>
    <g fill="yellow" text-rendering="geometricPrecision" shape-rendering="geometricPrecision" transform="matrix(1,0,0,1,-127,21)" stroke="yellow">
      <rect x="142" y="68.7143" clip-path="url(#clipPath2)" width="115.0577" rx="4" ry="4" height="32.5279" stroke="none"/>
    </g>
    <g text-rendering="geometricPrecision" stroke-miterlimit="1.45" shape-rendering="geometricPrecision" font-family="sans-serif" transform="matrix(1,0,0,1,-127,21)" stroke-linecap="butt">
      <text x="163.2124" xml:space="preserve" y="89.5134" clip-path="url(#clipPath2)" stroke="none">dcat:Dataset</text>
      <rect x="142" y="68.7143" clip-path="url(#clipPath2)" fill="none" width="115.0577" rx="4" ry="4" height="32.5279"/>
    </g>
    <g fill="yellow" text-rendering="geometricPrecision" shape-rendering="geometricPrecision" transform="matrix(1,0,0,1,-127,21)" stroke="yellow">
      <rect x="594.9767" y="60" clip-path="url(#clipPath2)" width="115.0577" rx="4" ry="4" height="40.1211" stroke="none"/>
    </g>
    <g text-rendering="geometricPrecision" stroke-miterlimit="1.45" shape-rendering="geometricPrecision" font-family="sans-serif" transform="matrix(1,0,0,1,-127,21)" stroke-linecap="butt">
      <text x="604.5495" xml:space="preserve" y="84.5957" clip-path="url(#clipPath2)" stroke="none">dcat:DataService</text>
      <rect x="594.9767" y="60" clip-path="url(#clipPath2)" fill="none" width="115.0577" rx="4" ry="4" height="40.1211"/>
    </g>
    <g fill="rgb(255,153,204)" text-rendering="geometricPrecision" shape-rendering="geometricPrecision" transform="matrix(1,0,0,1,-127,21)" stroke="rgb(255,153,204)">
      <circle r="10" clip-path="url(#clipPath2)" cx="199.5288" cy="141.2422" stroke="none"/>
    </g>
    <g text-rendering="geometricPrecision" stroke-miterlimit="1.45" shape-rendering="geometricPrecision" font-family="sans-serif" transform="matrix(1,0,0,1,-127,21)" stroke-linecap="butt">
      <text x="215.5289" xml:space="preserve" y="145.7773" clip-path="url(#clipPath2)" stroke="none">:alcide_corpus</text>
      <circle fill="none" stroke-width="3" r="10" clip-path="url(#clipPath2)" cx="199.5288" cy="141.2422"/>
    </g>
    <g fill="rgb(255,153,204)" text-rendering="geometricPrecision" shape-rendering="geometricPrecision" transform="matrix(1,0,0,1,-127,21)" stroke="rgb(255,153,204)">
      <circle r="10" clip-path="url(#clipPath2)" cx="800.6848" cy="141.2422" stroke="none"/>
    </g>
    <g text-rendering="geometricPrecision" stroke-miterlimit="1.45" shape-rendering="geometricPrecision" font-family="sans-serif" transform="matrix(1,0,0,1,-127,21)" stroke-linecap="butt">
      <text x="816.6848" xml:space="preserve" y="126.7109" clip-path="url(#clipPath2)" stroke="none">:alcide_platform</text>
      <circle fill="none" stroke-width="3" r="10" clip-path="url(#clipPath2)" cx="800.6848" cy="141.2422"/>
      <text x="957.5266" xml:space="preserve" y="147.832" clip-path="url(#clipPath2)" stroke="none">"ALCIDE platform"@en</text>
      <text x="465.0012" xml:space="preserve" y="133.6992" clip-path="url(#clipPath2)" stroke="none">"La piattaforma ALCIDE </text>
      <text x="465.0012" xml:space="preserve" y="147.832" clip-path="url(#clipPath2)" stroke="none">nasce dalla collaborazione..."@it </text>
      <text x="496.4169" xml:space="preserve" y="260.0742" clip-path="url(#clipPath2)" stroke="none">&lt;alcidedigitale.fbk.eu/&gt;</text>
      <text x="704.0344" xml:space="preserve" y="12.6504" clip-path="url(#clipPath2)" stroke="none">&lt;alcidedigitale.fbk.eu/platform&gt;</text>
      <text x="909.098" xml:space="preserve" y="260.0742" clip-path="url(#clipPath2)" stroke="none">Controlled Vocabulary Concepts URIs</text>
      <text x="843.6848" xml:space="preserve" y="71.541" clip-path="url(#clipPath2)" stroke="none">&lt;http://purl.org/knot/taxonomy#digital_platform&gt;</text>
      <text x="737.0403" xml:space="preserve" y="264.9043" clip-path="url(#clipPath2)" stroke="none">2018/12/31^^xsd:date</text>
    </g>
    <g fill="rgb(255,153,204)" text-rendering="geometricPrecision" shape-rendering="geometricPrecision" transform="matrix(1,0,0,1,-127,21)" stroke="rgb(255,153,204)">
      <circle r="10" clip-path="url(#clipPath2)" cx="354.5662" cy="141.2422" stroke="none"/>
    </g>
    <g text-rendering="geometricPrecision" stroke-miterlimit="1.45" shape-rendering="geometricPrecision" font-family="sans-serif" transform="matrix(1,0,0,1,-127,21)" stroke-linecap="butt">
      <text x="370.5662" xml:space="preserve" y="145.7773" clip-path="url(#clipPath2)" stroke="none">:alcide</text>
      <circle fill="none" stroke-width="3" r="10" clip-path="url(#clipPath2)" cx="354.5662" cy="141.2422"/>
    </g>
    <g fill="yellow" text-rendering="geometricPrecision" shape-rendering="geometricPrecision" transform="matrix(1,0,0,1,-127,21)" stroke="yellow">
      <rect x="304.0662" y="68.7143" clip-path="url(#clipPath2)" width="101" rx="4" ry="4" height="32.5279" stroke="none"/>
    </g>
    <g text-rendering="geometricPrecision" stroke-miterlimit="1.45" shape-rendering="geometricPrecision" font-family="sans-serif" transform="matrix(1,0,0,1,-127,21)" stroke-linecap="butt">
      <text x="318.2351" xml:space="preserve" y="89.5134" clip-path="url(#clipPath2)" stroke="none">prov:Activity</text>
      <rect x="304.0662" y="68.7143" clip-path="url(#clipPath2)" fill="none" width="101" rx="4" ry="4" height="32.5279"/>
      <path fill="none" d="M199.5289 101.2422 L199.5289 123.2422" clip-path="url(#clipPath2)"/>
      <path d="M199.5289 131.2422 L204.5289 119.2422 L199.5289 122.2422 L194.5289 119.2422 Z" clip-path="url(#clipPath2)" stroke="none"/>
      <path fill="none" d="M710.0367 80.0605 L794.0181 80.0605 L794.0181 125.7734" clip-path="url(#clipPath2)"/>
      <path d="M794.0181 133.7734 L799.0181 121.7734 L794.0181 124.7734 L789.0181 121.7734 Z" clip-path="url(#clipPath2)" stroke="none"/>
      <path fill="none" d="M796.6848 154.4311 L796.6848 183.8633 L199.5289 183.8633 L199.5289 162.2422" clip-path="url(#clipPath2)" stroke="navy"/>
      <path fill="navy" d="M796.6848 146.4311 C798.894 146.4311 800.6848 148.222 800.6848 150.4311 C800.6848 152.6403 798.894 154.4311 796.6848 154.4311 C794.4756 154.4311 792.6848 152.6403 792.6848 150.4311 C792.6848 148.222 794.4756 146.4311 796.6848 146.4311 Z" clip-path="url(#clipPath2)" stroke="none"/>
      <path fill="navy" d="M199.5289 151.2422 L193.5289 163.2422 L205.5289 163.2422 Z" clip-path="url(#clipPath2)" stroke="none"/>
      <rect x="328.33" y="174.7969" clip-path="url(#clipPath2)" fill="white" width="113.3594" height="18.1328" stroke="none"/>
      <text fill="navy" x="330.33" xml:space="preserve" y="188.3984" clip-path="url(#clipPath2)" stroke="none">dcat:servesDataset</text>
      <path fill="none" d="M814.6848 141.2422 L927.6526 141.2422" clip-path="url(#clipPath2)" stroke="green"/>
    </g>
    <g stroke-linecap="butt" transform="matrix(1,0,0,1,-127,21)" fill-opacity="0" fill="rgb(0,0,0)" text-rendering="geometricPrecision" shape-rendering="geometricPrecision" stroke="rgb(0,0,0)" stroke-opacity="0" stroke-miterlimit="1.45">
      <path d="M806.6848 141.2422 C806.6848 139.0331 808.4756 137.2422 810.6848 137.2422 C812.894 137.2422 814.6848 139.0331 814.6848 141.2422 C814.6848 143.4513 812.894 145.2422 810.6848 145.2422 C808.4756 145.2422 806.6848 143.4513 806.6848 141.2422 Z" stroke="none" clip-path="url(#clipPath2)"/>
    </g>
    <g stroke-linecap="butt" transform="matrix(1,0,0,1,-127,21)" fill="green" text-rendering="geometricPrecision" shape-rendering="geometricPrecision" stroke="green" stroke-miterlimit="1.45">
      <path fill="none" d="M806.6848 141.2422 C806.6848 139.0331 808.4756 137.2422 810.6848 137.2422 C812.894 137.2422 814.6848 139.0331 814.6848 141.2422 C814.6848 143.4513 812.894 145.2422 810.6848 145.2422 C808.4756 145.2422 806.6848 143.4513 806.6848 141.2422 Z" clip-path="url(#clipPath2)"/>
      <path fill="white" d="M942.6526 141.2422 L926.6526 135.2422 L926.6526 147.2422 Z" clip-path="url(#clipPath2)" stroke="none"/>
      <path fill="none" d="M942.6526 141.2422 L926.6526 135.2422 L926.6526 147.2422 Z" clip-path="url(#clipPath2)"/>
      <rect x="852.3928" y="132.1758" clip-path="url(#clipPath2)" fill="white" width="48.584" height="18.1328" stroke="none"/>
      <text x="854.3928" xml:space="preserve" y="145.7773" clip-path="url(#clipPath2)" font-family="sans-serif" stroke="none">dct:title</text>
      <path fill="none" d="M786.6848 141.2422 L673.6848 141.2422" clip-path="url(#clipPath2)"/>
    </g>
    <g stroke-linecap="butt" transform="matrix(1,0,0,1,-127,21)" fill-opacity="0" fill="rgb(0,0,0)" text-rendering="geometricPrecision" shape-rendering="geometricPrecision" stroke="rgb(0,0,0)" stroke-opacity="0" stroke-miterlimit="1.45">
      <path d="M794.6848 141.2422 C794.6848 143.4513 792.894 145.2422 790.6848 145.2422 C788.4756 145.2422 786.6848 143.4513 786.6848 141.2422 C786.6848 139.0331 788.4756 137.2422 790.6848 137.2422 C792.894 137.2422 794.6848 139.0331 794.6848 141.2422 Z" stroke="none" clip-path="url(#clipPath2)"/>
    </g>
    <g stroke-linecap="butt" transform="matrix(1,0,0,1,-127,21)" fill="green" text-rendering="geometricPrecision" shape-rendering="geometricPrecision" stroke="green" stroke-miterlimit="1.45">
      <path fill="none" d="M794.6848 141.2422 C794.6848 143.4513 792.894 145.2422 790.6848 145.2422 C788.4756 145.2422 786.6848 143.4513 786.6848 141.2422 C786.6848 139.0331 788.4756 137.2422 790.6848 137.2422 C792.894 137.2422 794.6848 139.0331 794.6848 141.2422 Z" clip-path="url(#clipPath2)"/>
      <path fill="white" d="M658.6848 141.2422 L674.6848 147.2422 L674.6848 135.2422 Z" clip-path="url(#clipPath2)" stroke="none"/>
      <path fill="none" d="M658.6848 141.2422 L674.6848 147.2422 L674.6848 135.2422 Z" clip-path="url(#clipPath2)"/>
      <rect x="685.3235" y="132.1758" clip-path="url(#clipPath2)" fill="white" width="91.1934" height="18.1328" stroke="none"/>
      <text x="687.3235" xml:space="preserve" y="145.7773" clip-path="url(#clipPath2)" font-family="sans-serif" stroke="none">dct:description</text>
      <path fill="none" d="M800.6848 155.2422 L800.6848 199.8633 L568.0507 199.8633 L568.0507 231.3218" clip-path="url(#clipPath2)" stroke="navy"/>
      <path fill="navy" d="M800.6848 147.2422 C802.894 147.2422 804.6848 149.0331 804.6848 151.2422 C804.6848 153.4513 802.894 155.2422 800.6848 155.2422 C798.4756 155.2422 796.6848 153.4513 796.6848 151.2422 C796.6848 149.0331 798.4756 147.2422 800.6848 147.2422 Z" clip-path="url(#clipPath2)" stroke="none"/>
      <path fill="navy" d="M568.0507 242.3218 L574.0507 230.3218 L562.0507 230.3218 Z" clip-path="url(#clipPath2)" stroke="none"/>
      <rect x="608.733" y="190.7969" clip-path="url(#clipPath2)" fill="white" width="151.2695" height="18.1328" stroke="none"/>
      <text x="610.733" y="204.3984" clip-path="url(#clipPath2)" fill="navy" font-family="sans-serif" stroke="none" xml:space="preserve">dcat:endpointDescription</text>
      <path fill="none" d="M800.6848 127.2422 L800.6848 28.1816" clip-path="url(#clipPath2)" stroke="navy"/>
      <path fill="navy" d="M800.6848 135.2422 C798.4756 135.2422 796.6848 133.4513 796.6848 131.2422 C796.6848 129.0331 798.4756 127.2422 800.6848 127.2422 C802.894 127.2422 804.6848 129.0331 804.6848 131.2422 C804.6848 133.4513 802.894 135.2422 800.6848 135.2422 Z" clip-path="url(#clipPath2)" stroke="none"/>
      <path fill="navy" d="M800.6848 17.1816 L794.6848 29.1816 L806.6848 29.1816 Z" clip-path="url(#clipPath2)" stroke="none"/>
      <rect x="747.2219" y="38.0948" clip-path="url(#clipPath2)" fill="white" width="106.9258" height="18.1328" stroke="none"/>
      <text x="749.2219" y="51.6964" clip-path="url(#clipPath2)" fill="navy" font-family="sans-serif" stroke="none" xml:space="preserve">dcat:endpointURL</text>
      <path fill="none" d="M808.6848 151.2513 L808.6848 167.8633 L1017.2532 167.8633 L1017.2532 231.3269" clip-path="url(#clipPath2)" stroke="navy"/>
      <path fill="navy" d="M808.6848 143.2513 C810.894 143.2513 812.6848 145.0421 812.6848 147.2513 C812.6848 149.4604 810.894 151.2513 808.6848 151.2513 C806.4756 151.2513 804.6848 149.4604 804.6848 147.2513 C804.6848 145.0421 806.4756 143.2513 808.6848 143.2513 Z" clip-path="url(#clipPath2)" stroke="none"/>
      <path fill="navy" d="M1017.2532 242.3269 L1023.2532 230.3269 L1011.2532 230.3269 Z" clip-path="url(#clipPath2)" stroke="none"/>
      <rect x="878.4085" y="158.7969" clip-path="url(#clipPath2)" fill="white" width="69.1211" height="18.1328" stroke="none"/>
      <text x="880.4085" y="172.3984" clip-path="url(#clipPath2)" fill="navy" font-family="sans-serif" stroke="none" xml:space="preserve">dcat:theme</text>
      <path fill="none" d="M807.3514 129.7734 L807.3514 95.6816 L965.1848 95.6816 L965.1848 91.1816" clip-path="url(#clipPath2)" stroke="navy"/>
      <path fill="navy" d="M807.3514 137.7734 C805.1423 137.7734 803.3514 135.9826 803.3514 133.7734 C803.3514 131.5643 805.1423 129.7734 807.3514 129.7734 C809.5606 129.7734 811.3514 131.5643 811.3514 133.7734 C811.3514 135.9826 809.5606 137.7734 807.3514 137.7734 Z" clip-path="url(#clipPath2)" stroke="none"/>
      <path fill="navy" d="M965.1848 80.1816 L959.1848 92.1816 L971.1848 92.1816 Z" clip-path="url(#clipPath2)" stroke="none"/>
      <rect x="860.7779" y="86.6152" clip-path="url(#clipPath2)" fill="white" width="50.9805" height="18.1328" stroke="none"/>
      <text x="862.7779" y="100.2168" clip-path="url(#clipPath2)" fill="navy" font-family="sans-serif" stroke="none" xml:space="preserve">dct:type</text>
      <path fill="none" d="M804.6848 154.4477 L804.6848 236.2535" clip-path="url(#clipPath2)"/>
    </g>
    <g stroke-linecap="butt" transform="matrix(1,0,0,1,-127,21)" fill-opacity="0" fill="rgb(0,0,0)" text-rendering="geometricPrecision" shape-rendering="geometricPrecision" stroke="rgb(0,0,0)" stroke-opacity="0" stroke-miterlimit="1.45">
      <path d="M804.6848 146.4477 C806.894 146.4477 808.6848 148.2386 808.6848 150.4477 C808.6848 152.6568 806.894 154.4477 804.6848 154.4477 C802.4756 154.4477 800.6848 152.6568 800.6848 150.4477 C800.6848 148.2386 802.4756 146.4477 804.6848 146.4477 Z" stroke="none" clip-path="url(#clipPath2)"/>
    </g>
    <g stroke-linecap="butt" transform="matrix(1,0,0,1,-127,21)" fill="green" text-rendering="geometricPrecision" shape-rendering="geometricPrecision" stroke="green" stroke-miterlimit="1.45">
      <path fill="none" d="M804.6848 146.4477 C806.894 146.4477 808.6848 148.2386 808.6848 150.4477 C808.6848 152.6568 806.894 154.4477 804.6848 154.4477 C802.4756 154.4477 800.6848 152.6568 800.6848 150.4477 C800.6848 148.2386 802.4756 146.4477 804.6848 146.4477 Z" clip-path="url(#clipPath2)"/>
      <path fill="white" d="M804.6848 251.2535 L810.6848 235.2535 L798.6848 235.2535 Z" clip-path="url(#clipPath2)" stroke="none"/>
      <path fill="none" d="M804.6848 251.2535 L810.6848 235.2535 L798.6848 235.2535 Z" clip-path="url(#clipPath2)"/>
      <rect x="772.9983" y="212.2061" clip-path="url(#clipPath2)" fill="white" width="63.373" height="18.1328" stroke="none"/>
      <text x="774.9983" xml:space="preserve" y="225.8076" clip-path="url(#clipPath2)" font-family="sans-serif" stroke="none">dct:issued</text>
      <path fill="none" d="M792.6848 151.2513 L792.6848 167.8633 L354.5662 167.8633 L354.5662 162.2422" clip-path="url(#clipPath2)" stroke="navy"/>
      <path fill="navy" d="M792.6848 143.2513 C794.894 143.2513 796.6848 145.0421 796.6848 147.2513 C796.6848 149.4604 794.894 151.2513 792.6848 151.2513 C790.4756 151.2513 788.6848 149.4604 788.6848 147.2513 C788.6848 145.0421 790.4756 143.2513 792.6848 143.2513 Z" clip-path="url(#clipPath2)" stroke="none"/>
      <path fill="navy" d="M354.5662 151.2422 L348.5662 163.2422 L360.5662 163.2422 Z" clip-path="url(#clipPath2)" stroke="none"/>
      <rect x="509.2466" y="158.7969" clip-path="url(#clipPath2)" fill="white" width="128.7578" height="18.1328" stroke="none"/>
      <text x="511.2466" y="172.3984" clip-path="url(#clipPath2)" fill="navy" font-family="sans-serif" stroke="none" xml:space="preserve">prov:wasGeneratedBy</text>
      <path fill="none" d="M354.5662 101.2422 L354.5662 123.2422" clip-path="url(#clipPath2)" stroke="black"/>
      <path fill="black" d="M354.5662 131.2422 L359.5662 119.2422 L354.5662 122.2422 L349.5662 119.2422 Z" clip-path="url(#clipPath2)" stroke="none"/>
    </g>
  </g>
</svg>
