<?xml version="1.0" encoding="UTF-8"?><svg xmlns="http://www.w3.org/2000/svg" xmlns:xlink="http://www.w3.org/1999/xlink" fill-opacity="1" color-rendering="auto" color-interpolation="auto" text-rendering="auto" stroke="black" stroke-linecap="square" width="1285" stroke-miterlimit="10" shape-rendering="auto" stroke-opacity="1" fill="black" stroke-dasharray="none" font-weight="normal" stroke-width="1" height="359" font-family="'Dialog'" font-style="normal" stroke-linejoin="miter" font-size="12px" stroke-dashoffset="0" image-rendering="auto">
  <!--Generated by ySVG 2.6-->
  <defs id="genericDefs"/>
  <g>
    <defs id="defs1">
      <clipPath clipPathUnits="userSpaceOnUse" id="clipPath1">
        <path d="M0 0 L1285 0 L1285 359 L0 359 L0 0 Z"/>
      </clipPath>
      <clipPath clipPathUnits="userSpaceOnUse" id="clipPath2">
        <path d="M92 46 L1377 46 L1377 405 L92 405 L92 46 Z"/>
      </clipPath>
    </defs>
    <g fill="white" text-rendering="geometricPrecision" shape-rendering="geometricPrecision" transform="translate(-92,-46)" stroke="white">
      <rect x="92" width="1285" height="359" y="46" clip-path="url(#clipPath2)" stroke="none"/>
    </g>
    <g fill="rgb(255,153,204)" text-rendering="geometricPrecision" shape-rendering="geometricPrecision" transform="matrix(1,0,0,1,-92,-46)" stroke="rgb(255,153,204)">
      <circle r="10" clip-path="url(#clipPath2)" cx="496.0041" cy="255.0559" stroke="none"/>
    </g>
    <g text-rendering="geometricPrecision" stroke-miterlimit="1.45" shape-rendering="geometricPrecision" font-family="sans-serif" transform="matrix(1,0,0,1,-92,-46)" stroke-linecap="butt">
      <text x="392.0139" xml:space="preserve" y="240.5246" clip-path="url(#clipPath2)" stroke="none">:alcide_website</text>
      <circle fill="none" stroke-width="3" r="10" clip-path="url(#clipPath2)" cx="496.0041" cy="255.0559"/>
    </g>
    <g fill="yellow" text-rendering="geometricPrecision" shape-rendering="geometricPrecision" transform="matrix(1,0,0,1,-92,-46)" stroke="yellow">
      <rect x="445.5041" y="172.5279" clip-path="url(#clipPath2)" width="101" rx="4" ry="4" height="32.5279" stroke="none"/>
    </g>
    <g text-rendering="geometricPrecision" stroke-miterlimit="1.45" shape-rendering="geometricPrecision" font-family="sans-serif" transform="matrix(1,0,0,1,-92,-46)" stroke-linecap="butt">
      <text x="459.5149" xml:space="preserve" y="193.3271" clip-path="url(#clipPath2)" stroke="none">dcat:Catalog</text>
      <rect x="445.5041" y="172.5279" clip-path="url(#clipPath2)" fill="none" width="101" rx="4" ry="4" height="32.5279"/>
    </g>
    <g fill="rgb(255,153,204)" text-rendering="geometricPrecision" shape-rendering="geometricPrecision" transform="matrix(1,0,0,1,-92,-46)" stroke="rgb(255,153,204)">
      <circle r="10" clip-path="url(#clipPath2)" cx="361.041" cy="155.0559" stroke="none"/>
    </g>
    <g text-rendering="geometricPrecision" stroke-miterlimit="1.45" shape-rendering="geometricPrecision" font-family="sans-serif" transform="matrix(1,0,0,1,-92,-46)" stroke-linecap="butt">
      <text x="313.0957" xml:space="preserve" y="140.5246" clip-path="url(#clipPath2)" stroke="none">:italia</text>
      <circle fill="none" stroke-width="3" r="10" clip-path="url(#clipPath2)" cx="361.041" cy="155.0559"/>
    </g>
    <g fill="yellow" text-rendering="geometricPrecision" shape-rendering="geometricPrecision" transform="matrix(1,0,0,1,-92,-46)" stroke="yellow">
      <rect x="320.791" y="72.5279" clip-path="url(#clipPath2)" width="80.5" rx="4" ry="4" height="32.5279" stroke="none"/>
    </g>
    <g text-rendering="geometricPrecision" stroke-miterlimit="1.45" shape-rendering="geometricPrecision" font-family="sans-serif" transform="matrix(1,0,0,1,-92,-46)" stroke-linecap="butt">
      <text x="325.3896" xml:space="preserve" y="93.327" clip-path="url(#clipPath2)" stroke="none">dct:Location</text>
      <rect x="320.791" y="72.5279" clip-path="url(#clipPath2)" fill="none" width="80.5" rx="4" ry="4" height="32.5279"/>
    </g>
    <g fill="rgb(255,153,204)" text-rendering="geometricPrecision" shape-rendering="geometricPrecision" transform="matrix(1,0,0,1,-92,-46)" stroke="rgb(255,153,204)">
      <circle r="10" clip-path="url(#clipPath2)" cx="208.291" cy="255.0559" stroke="none"/>
    </g>
    <g text-rendering="geometricPrecision" stroke-miterlimit="1.45" shape-rendering="geometricPrecision" font-family="sans-serif" transform="matrix(1,0,0,1,-92,-46)" stroke-linecap="butt">
      <text x="109" xml:space="preserve" y="240.5246" clip-path="url(#clipPath2)" stroke="none">:alcide_corpus</text>
      <circle fill="none" stroke-width="3" r="10" clip-path="url(#clipPath2)" cx="208.291" cy="255.0559"/>
    </g>
    <g fill="rgb(255,153,204)" text-rendering="geometricPrecision" shape-rendering="geometricPrecision" transform="matrix(1,0,0,1,-92,-46)" stroke="rgb(255,153,204)">
      <circle r="10" clip-path="url(#clipPath2)" cx="758.995" cy="145.0559" stroke="none"/>
    </g>
    <g text-rendering="geometricPrecision" stroke-miterlimit="1.45" shape-rendering="geometricPrecision" font-family="sans-serif" transform="matrix(1,0,0,1,-92,-46)" stroke-linecap="butt">
      <text x="626.5048" xml:space="preserve" y="149.591" clip-path="url(#clipPath2)" stroke="none">:edition_digitization</text>
      <circle fill="none" stroke-width="3" r="10" clip-path="url(#clipPath2)" cx="758.995" cy="145.0559"/>
    </g>
    <g fill="rgb(255,153,204)" text-rendering="geometricPrecision" shape-rendering="geometricPrecision" transform="matrix(1,0,0,1,-92,-46)" stroke="rgb(255,153,204)">
      <circle r="10" clip-path="url(#clipPath2)" cx="1023.5537" cy="145.0559" stroke="none"/>
    </g>
    <g text-rendering="geometricPrecision" stroke-miterlimit="1.45" shape-rendering="geometricPrecision" font-family="sans-serif" transform="matrix(1,0,0,1,-92,-46)" stroke-linecap="butt">
      <text x="956.4365" xml:space="preserve" y="130.5246" clip-path="url(#clipPath2)" stroke="none">:bologna</text>
      <circle fill="none" stroke-width="3" r="10" clip-path="url(#clipPath2)" cx="1023.5537" cy="145.0559"/>
    </g>
    <g fill="yellow" text-rendering="geometricPrecision" shape-rendering="geometricPrecision" transform="matrix(1,0,0,1,-92,-46)" stroke="yellow">
      <rect x="1057.9121" y="182.5279" clip-path="url(#clipPath2)" width="101" rx="4" ry="4" height="32.5279" stroke="none"/>
    </g>
    <g text-rendering="geometricPrecision" stroke-miterlimit="1.45" shape-rendering="geometricPrecision" font-family="sans-serif" transform="matrix(1,0,0,1,-92,-46)" stroke-linecap="butt">
      <text x="1066.7637" xml:space="preserve" y="196.2607" clip-path="url(#clipPath2)" stroke="none">crm:E53_Place</text>
      <text x="1068.832" xml:space="preserve" y="210.3935" clip-path="url(#clipPath2)" stroke="none">prov:Location</text>
      <rect x="1057.9121" y="182.5279" clip-path="url(#clipPath2)" fill="none" width="101" rx="4" ry="4" height="32.5279"/>
    </g>
    <g fill="rgb(255,153,204)" text-rendering="geometricPrecision" shape-rendering="geometricPrecision" transform="matrix(1,0,0,1,-92,-46)" stroke="rgb(255,153,204)">
      <circle r="10" clip-path="url(#clipPath2)" cx="886.4501" cy="305.0559" stroke="none"/>
    </g>
    <g text-rendering="geometricPrecision" stroke-miterlimit="1.45" shape-rendering="geometricPrecision" font-family="sans-serif" transform="matrix(1,0,0,1,-92,-46)" stroke-linecap="butt">
      <text x="773.9638" xml:space="preserve" y="328.6574" clip-path="url(#clipPath2)" stroke="none">:corpus_creation</text>
      <circle fill="none" stroke-width="3" r="10" clip-path="url(#clipPath2)" cx="886.4501" cy="305.0559"/>
    </g>
    <g fill="rgb(255,153,204)" text-rendering="geometricPrecision" shape-rendering="geometricPrecision" transform="matrix(1,0,0,1,-92,-46)" stroke="rgb(255,153,204)">
      <circle r="10" clip-path="url(#clipPath2)" cx="886.4501" cy="255.0559" stroke="none"/>
    </g>
    <g text-rendering="geometricPrecision" stroke-miterlimit="1.45" shape-rendering="geometricPrecision" font-family="sans-serif" transform="matrix(1,0,0,1,-92,-46)" stroke-linecap="butt">
      <text x="902.4501" xml:space="preserve" y="240.5246" clip-path="url(#clipPath2)" stroke="none">:platform_creation</text>
      <circle fill="none" stroke-width="3" r="10" clip-path="url(#clipPath2)" cx="886.4501" cy="255.0559"/>
    </g>
    <g fill="rgb(255,153,204)" text-rendering="geometricPrecision" shape-rendering="geometricPrecision" transform="matrix(1,0,0,1,-92,-46)" stroke="rgb(255,153,204)">
      <circle r="10" clip-path="url(#clipPath2)" cx="1108.4121" cy="255.0559" stroke="none"/>
    </g>
    <g text-rendering="geometricPrecision" stroke-miterlimit="1.45" shape-rendering="geometricPrecision" font-family="sans-serif" transform="matrix(1,0,0,1,-92,-46)" stroke-linecap="butt">
      <text x="1124.4121" xml:space="preserve" y="240.5246" clip-path="url(#clipPath2)" stroke="none">:trento</text>
      <circle fill="none" stroke-width="3" r="10" clip-path="url(#clipPath2)" cx="1108.4121" cy="255.0559"/>
    </g>
    <g fill="yellow" text-rendering="geometricPrecision" shape-rendering="geometricPrecision" transform="matrix(1,0,0,1,-92,-46)" stroke="yellow">
      <rect x="636.5045" y="172.5279" clip-path="url(#clipPath2)" width="88" rx="4" ry="4" height="32.5279" stroke="none"/>
    </g>
    <g text-rendering="geometricPrecision" stroke-miterlimit="1.45" shape-rendering="geometricPrecision" font-family="sans-serif" transform="matrix(1,0,0,1,-92,-46)" stroke-linecap="butt">
      <text x="644.1735" xml:space="preserve" y="193.3271" clip-path="url(#clipPath2)" stroke="none">prov:Activity</text>
      <rect x="636.5045" y="172.5279" clip-path="url(#clipPath2)" fill="none" width="88" rx="4" ry="4" height="32.5279"/>
    </g>
    <g fill="rgb(255,153,204)" text-rendering="geometricPrecision" shape-rendering="geometricPrecision" transform="matrix(1,0,0,1,-92,-46)" stroke="rgb(255,153,204)">
      <circle r="10" clip-path="url(#clipPath2)" cx="680.5045" cy="255.0559" stroke="none"/>
    </g>
    <g text-rendering="geometricPrecision" stroke-miterlimit="1.45" shape-rendering="geometricPrecision" font-family="sans-serif" transform="matrix(1,0,0,1,-92,-46)" stroke-linecap="butt">
      <text x="626.7584" xml:space="preserve" y="240.5246" clip-path="url(#clipPath2)" stroke="none">:alcide</text>
      <circle fill="none" stroke-width="3" r="10" clip-path="url(#clipPath2)" cx="680.5045" cy="255.0559"/>
    </g>
    <g fill="yellow" text-rendering="geometricPrecision" shape-rendering="geometricPrecision" transform="matrix(1,0,0,1,-92,-46)" stroke="yellow">
      <rect x="157.791" y="172.5279" clip-path="url(#clipPath2)" width="101" rx="4" ry="4" height="32.5279" stroke="none"/>
    </g>
    <g text-rendering="geometricPrecision" stroke-miterlimit="1.45" shape-rendering="geometricPrecision" font-family="sans-serif" transform="matrix(1,0,0,1,-92,-46)" stroke-linecap="butt">
      <text x="171.9746" xml:space="preserve" y="193.3271" clip-path="url(#clipPath2)" stroke="none">dcat:Dataset</text>
      <rect x="157.791" y="172.5279" clip-path="url(#clipPath2)" fill="none" width="101" rx="4" ry="4" height="32.5279"/>
    </g>
    <g fill="yellow" text-rendering="geometricPrecision" shape-rendering="geometricPrecision" transform="matrix(1,0,0,1,-92,-46)" stroke="yellow">
      <rect x="783.4773" y="172.5279" clip-path="url(#clipPath2)" width="205.9456" rx="4" ry="4" height="32.5279" stroke="none"/>
    </g>
    <g text-rendering="geometricPrecision" stroke-miterlimit="1.45" shape-rendering="geometricPrecision" font-family="sans-serif" transform="matrix(1,0,0,1,-92,-46)" stroke-linecap="butt">
      <text x="788.1386" xml:space="preserve" y="193.3271" clip-path="url(#clipPath2)" stroke="none">crmdig:D7_Digital_Machine_Event</text>
      <rect x="783.4773" y="172.5279" clip-path="url(#clipPath2)" fill="none" width="205.9456" rx="4" ry="4" height="32.5279"/>
    </g>
    <g fill="yellow" text-rendering="geometricPrecision" shape-rendering="geometricPrecision" transform="matrix(1,0,0,1,-92,-46)" stroke="yellow">
      <rect x="783.4773" y="356.6082" clip-path="url(#clipPath2)" width="205.9456" rx="4" ry="4" height="32.5279" stroke="none"/>
    </g>
    <g text-rendering="geometricPrecision" stroke-miterlimit="1.45" shape-rendering="geometricPrecision" font-family="sans-serif" transform="matrix(1,0,0,1,-92,-46)" stroke-linecap="butt">
      <text x="792.5273" xml:space="preserve" y="377.4074" clip-path="url(#clipPath2)" stroke="none">crmdig:D10_Software_Execution</text>
      <rect x="783.4773" y="356.6082" clip-path="url(#clipPath2)" fill="none" width="205.9456" rx="4" ry="4" height="32.5279"/>
    </g>
    <g fill="yellow" text-rendering="geometricPrecision" shape-rendering="geometricPrecision" transform="matrix(1,0,0,1,-92,-46)" stroke="yellow">
      <rect x="656.0222" y="72.5279" clip-path="url(#clipPath2)" width="205.9456" rx="4" ry="4" height="32.5279" stroke="none"/>
    </g>
    <g text-rendering="geometricPrecision" stroke-miterlimit="1.45" shape-rendering="geometricPrecision" font-family="sans-serif" transform="matrix(1,0,0,1,-92,-46)" stroke-linecap="butt">
      <text x="666.6132" xml:space="preserve" y="93.327" clip-path="url(#clipPath2)" stroke="none">crmdig:D2_Digitization_Process</text>
      <rect x="656.0222" y="72.5279" clip-path="url(#clipPath2)" fill="none" width="205.9456" rx="4" ry="4" height="32.5279"/>
      <text x="178.0679" xml:space="preserve" y="160.5246" clip-path="url(#clipPath2)" stroke="none">"Italia"@it</text>
      <text x="993.3306" xml:space="preserve" y="77.2131" clip-path="url(#clipPath2)" stroke="none">"Bologna"@it</text>
      <text x="1230.1074" xml:space="preserve" y="260.5246" clip-path="url(#clipPath2)" stroke="none">"Trento"@it</text>
      <text x="408.8975" xml:space="preserve" y="113.5246" clip-path="url(#clipPath2)" stroke="none">&lt;geonames.org/3175395&gt;</text>
      <text x="1146.5791" xml:space="preserve" y="150.5246" clip-path="url(#clipPath2)" stroke="none">&lt;geonames.org/3181928&gt;</text>
      <text x="1197.625" xml:space="preserve" y="317.9967" clip-path="url(#clipPath2)" stroke="none">&lt;geonames.org/3165243&gt;</text>
      <path fill="none" d="M496.0041 205.0559 L496.0041 237.0559" clip-path="url(#clipPath2)"/>
      <path d="M496.0041 245.0559 L501.0041 233.0559 L496.0041 236.0559 L491.0041 233.0559 Z" clip-path="url(#clipPath2)" stroke="none"/>
      <path fill="none" d="M482.0041 255.0559 L361.041 255.0559 L361.041 176.0559" clip-path="url(#clipPath2)" stroke="navy"/>
      <path fill="navy" d="M490.0041 255.0559 C490.0041 257.265 488.2133 259.0558 486.0041 259.0558 C483.795 259.0558 482.0041 257.265 482.0041 255.0559 C482.0041 252.8467 483.795 251.0559 486.0041 251.0559 C488.2133 251.0559 490.0041 252.8467 490.0041 255.0559 Z" clip-path="url(#clipPath2)" stroke="none"/>
      <path fill="navy" d="M361.041 165.0559 L355.041 177.0559 L367.041 177.0559 Z" clip-path="url(#clipPath2)" stroke="none"/>
      <path fill="none" d="M361.041 105.0559 L361.041 137.0559" clip-path="url(#clipPath2)"/>
      <path d="M361.041 145.0559 L366.041 133.0559 L361.041 136.0559 L356.041 133.0559 Z" clip-path="url(#clipPath2)" stroke="none"/>
      <path fill="none" d="M222.291 255.0559 L361.041 255.0559 L361.041 176.0559" clip-path="url(#clipPath2)" stroke="navy"/>
      <path fill="navy" d="M214.291 255.0559 C214.291 252.8467 216.0819 251.0559 218.291 251.0559 C220.5002 251.0559 222.291 252.8467 222.291 255.0559 C222.291 257.265 220.5002 259.0558 218.291 259.0558 C216.0819 259.0558 214.291 257.265 214.291 255.0559 Z" clip-path="url(#clipPath2)" stroke="none"/>
      <path fill="navy" d="M361.041 165.0559 L355.041 177.0559 L367.041 177.0559 Z" clip-path="url(#clipPath2)" stroke="none"/>
      <rect x="328.874" y="245.9895" clip-path="url(#clipPath2)" fill="white" width="64.334" height="18.1328" stroke="none"/>
      <text fill="navy" x="330.874" xml:space="preserve" y="259.591" clip-path="url(#clipPath2)" stroke="none">dct:spatial</text>
      <path fill="none" d="M772.995 145.0559 L945.5 145.0559 L1002.5537 145.0559" clip-path="url(#clipPath2)" stroke="navy"/>
      <path fill="navy" d="M764.995 145.0559 C764.995 142.8467 766.7858 141.0559 768.995 141.0559 C771.2042 141.0559 772.995 142.8467 772.995 145.0559 C772.995 147.265 771.2042 149.0559 768.995 149.0559 C766.7858 149.0559 764.995 147.265 764.995 145.0559 Z" clip-path="url(#clipPath2)" stroke="none"/>
      <path fill="navy" d="M1013.5537 145.0559 L1001.5537 139.0559 L1001.5537 151.0559 Z" clip-path="url(#clipPath2)" stroke="none"/>
      <rect x="804.2704" y="135.9895" clip-path="url(#clipPath2)" fill="white" width="130.1172" height="18.1328" stroke="none"/>
      <text fill="navy" x="806.2704" xml:space="preserve" y="149.591" clip-path="url(#clipPath2)" stroke="none">crm:P7_took_place_at</text>
      <path fill="none" d="M1108.4121 182.5052 L1037.9701 155.1591" clip-path="url(#clipPath2)"/>
      <path d="M1030.5123 152.264 L1039.8895 161.2678 L1038.9023 155.521 L1043.5084 151.9456 Z" clip-path="url(#clipPath2)" stroke="none"/>
      <path fill="none" d="M900.4501 305.0558 L931.8718 305.0558 L931.8718 255.0559 L1087.4121 255.0559" clip-path="url(#clipPath2)" stroke="navy"/>
      <path fill="navy" d="M892.4501 305.0558 C892.4501 302.8467 894.241 301.0558 896.4501 301.0558 C898.6593 301.0558 900.4501 302.8467 900.4501 305.0558 C900.4501 307.265 898.6593 309.0558 896.4501 309.0558 C894.241 309.0558 892.4501 307.265 892.4501 305.0558 Z" clip-path="url(#clipPath2)" stroke="none"/>
      <path fill="navy" d="M1098.4121 255.0559 L1086.4121 249.0559 L1086.4121 261.0558 Z" clip-path="url(#clipPath2)" stroke="none"/>
      <path fill="none" d="M900.4501 255.0559 L1087.4121 255.0559" clip-path="url(#clipPath2)" stroke="navy"/>
      <path fill="navy" d="M892.4501 255.0559 C892.4501 252.8467 894.241 251.0559 896.4501 251.0559 C898.6593 251.0559 900.4501 252.8467 900.4501 255.0559 C900.4501 257.265 898.6593 259.0558 896.4501 259.0558 C894.241 259.0558 892.4501 257.265 892.4501 255.0559 Z" clip-path="url(#clipPath2)" stroke="none"/>
      <path fill="navy" d="M1098.4121 255.0559 L1086.4121 249.0559 L1086.4121 261.0558 Z" clip-path="url(#clipPath2)" stroke="none"/>
      <rect x="946.1331" y="245.9895" clip-path="url(#clipPath2)" fill="white" width="130.1172" height="18.1328" stroke="none"/>
      <text fill="navy" x="948.1331" xml:space="preserve" y="259.591" clip-path="url(#clipPath2)" stroke="none">crm:P7_took_place_at</text>
      <path fill="none" d="M1108.4121 215.0832 L1108.4121 237.0559" clip-path="url(#clipPath2)"/>
      <path d="M1108.4121 245.0559 L1113.4121 233.0559 L1108.4121 236.0559 L1103.4121 233.0559 Z" clip-path="url(#clipPath2)" stroke="none"/>
      <path fill="none" d="M680.5045 205.0559 L680.5045 237.0559" clip-path="url(#clipPath2)"/>
      <path d="M680.5045 245.0559 L685.5045 233.0559 L680.5045 236.0559 L675.5045 233.0559 Z" clip-path="url(#clipPath2)" stroke="none"/>
      <path fill="none" d="M510.0041 255.0559 L659.5045 255.0559" clip-path="url(#clipPath2)" stroke="navy"/>
      <path fill="navy" d="M502.0041 255.0559 C502.0041 252.8467 503.795 251.0559 506.0041 251.0559 C508.2133 251.0559 510.0041 252.8467 510.0041 255.0559 C510.0041 257.265 508.2133 259.0558 506.0041 259.0558 C503.795 259.0558 502.0041 257.265 502.0041 255.0559 Z" clip-path="url(#clipPath2)" stroke="none"/>
      <path fill="navy" d="M670.5045 255.0559 L658.5045 249.0559 L658.5045 261.0558 Z" clip-path="url(#clipPath2)" stroke="none"/>
      <path fill="none" d="M208.291 269.0558 L208.291 283.9807 L530.3958 283.9807 L530.3958 255.0559 L641.1062 255.0559 L659.5045 255.0559" clip-path="url(#clipPath2)" stroke="navy"/>
      <path fill="navy" d="M208.291 261.0558 C210.5002 261.0558 212.291 262.8467 212.291 265.0558 C212.291 267.265 210.5002 269.0558 208.291 269.0558 C206.0819 269.0558 204.291 267.265 204.291 265.0558 C204.291 262.8467 206.0819 261.0558 208.291 261.0558 Z" clip-path="url(#clipPath2)" stroke="none"/>
      <path fill="navy" d="M670.5045 255.0559 L658.5045 249.0559 L658.5045 261.0558 Z" clip-path="url(#clipPath2)" stroke="none"/>
      <rect x="521.372" y="245.9895" clip-path="url(#clipPath2)" fill="white" width="128.7578" height="18.1328" stroke="none"/>
      <text fill="navy" x="523.3721" xml:space="preserve" y="259.591" clip-path="url(#clipPath2)" stroke="none">prov:wasGeneratedBy</text>
      <path fill="none" d="M680.5045 269.0558 L680.5045 280.5558 L1079.2881 280.5558 L1092.7544 269.0607" clip-path="url(#clipPath2)" stroke="navy"/>
      <path fill="navy" d="M680.5045 261.0558 C682.7137 261.0558 684.5045 262.8467 684.5045 265.0558 C684.5045 267.265 682.7137 269.0558 680.5045 269.0558 C678.2953 269.0558 676.5045 267.265 676.5045 265.0558 C676.5045 262.8467 678.2953 261.0558 680.5045 261.0558 Z" clip-path="url(#clipPath2)" stroke="none"/>
      <path fill="navy" d="M1101.1207 261.9189 L1088.0983 265.1465 L1095.8893 274.2734 Z" clip-path="url(#clipPath2)" stroke="none"/>
      <rect x="950.4347" y="271.4895" clip-path="url(#clipPath2)" fill="white" width="94.2754" height="18.1328" stroke="none"/>
      <text fill="navy" x="952.4347" xml:space="preserve" y="285.091" clip-path="url(#clipPath2)" stroke="none">prov:atLocation</text>
      <path fill="none" d="M694.5045 255.0559 L758.995 255.0559 L758.995 166.0559" clip-path="url(#clipPath2)" stroke="navy"/>
      <path fill="navy" d="M686.5045 255.0559 C686.5045 252.8467 688.2953 251.0559 690.5045 251.0559 C692.7137 251.0559 694.5045 252.8467 694.5045 255.0559 C694.5045 257.265 692.7137 259.0558 690.5045 259.0558 C688.2953 259.0558 686.5045 257.265 686.5045 255.0559 Z" clip-path="url(#clipPath2)" stroke="none"/>
      <path fill="navy" d="M758.995 155.0559 L752.995 167.0559 L764.995 167.0559 Z" clip-path="url(#clipPath2)" stroke="none"/>
      <path fill="none" d="M694.5045 255.0559 L865.4501 255.0559" clip-path="url(#clipPath2)" stroke="navy"/>
      <path fill="navy" d="M686.5045 255.0559 C686.5045 252.8467 688.2953 251.0559 690.5045 251.0559 C692.7137 251.0559 694.5045 252.8467 694.5045 255.0559 C694.5045 257.265 692.7137 259.0558 690.5045 259.0558 C688.2953 259.0558 686.5045 257.265 686.5045 255.0559 Z" clip-path="url(#clipPath2)" stroke="none"/>
      <path fill="navy" d="M876.4501 255.0559 L864.4501 249.0559 L864.4501 261.0558 Z" clip-path="url(#clipPath2)" stroke="none"/>
      <path fill="none" d="M694.5045 255.0559 L849.5 255.0559 L849.5 305.0558 L865.4501 305.0558" clip-path="url(#clipPath2)" stroke="navy"/>
      <path fill="navy" d="M686.5045 255.0559 C686.5045 252.8467 688.2953 251.0559 690.5045 251.0559 C692.7137 251.0559 694.5045 252.8467 694.5045 255.0559 C694.5045 257.265 692.7137 259.0558 690.5045 259.0558 C688.2953 259.0558 686.5045 257.265 686.5045 255.0559 Z" clip-path="url(#clipPath2)" stroke="none"/>
      <path fill="navy" d="M876.4501 305.0558 L864.4501 299.0558 L864.4501 311.0558 Z" clip-path="url(#clipPath2)" stroke="none"/>
      <rect x="713.5433" y="245.9895" clip-path="url(#clipPath2)" fill="white" width="122.043" height="18.1328" stroke="none"/>
      <text fill="navy" x="715.5433" xml:space="preserve" y="259.591" clip-path="url(#clipPath2)" stroke="none">prov:wasInformedBy</text>
      <path fill="none" d="M208.291 205.0559 L208.291 237.0559" clip-path="url(#clipPath2)"/>
      <path d="M208.291 245.0559 L213.291 233.0559 L208.291 236.0559 L203.291 233.0559 Z" clip-path="url(#clipPath2)" stroke="none"/>
      <path fill="none" d="M886.4501 205.0667 L886.4501 237.0559" clip-path="url(#clipPath2)"/>
      <path d="M886.4501 245.0559 L891.4501 233.0559 L886.4501 236.0559 L881.4501 233.0559 Z" clip-path="url(#clipPath2)" stroke="none"/>
      <path fill="none" d="M886.4501 356.6135 L886.4501 323.0558" clip-path="url(#clipPath2)"/>
      <path d="M886.4501 315.0558 L881.4501 327.0558 L886.4501 324.0558 L891.4501 327.0558 Z" clip-path="url(#clipPath2)" stroke="none"/>
      <path fill="none" d="M758.995 105.0832 L758.995 127.0559" clip-path="url(#clipPath2)"/>
      <path d="M758.995 135.0559 L763.995 123.0559 L758.995 126.0559 L753.995 123.0559 Z" clip-path="url(#clipPath2)" stroke="none"/>
      <path fill="none" d="M347.041 155.0559 L255.5141 155.0559" clip-path="url(#clipPath2)" stroke="green"/>
    </g>
    <g stroke-linecap="butt" transform="matrix(1,0,0,1,-92,-46)" fill-opacity="0" fill="rgb(0,0,0)" text-rendering="geometricPrecision" shape-rendering="geometricPrecision" stroke="rgb(0,0,0)" stroke-opacity="0" stroke-miterlimit="1.45">
      <path d="M355.041 155.0559 C355.041 157.265 353.2502 159.0559 351.041 159.0559 C348.8319 159.0559 347.041 157.265 347.041 155.0559 C347.041 152.8467 348.8319 151.0559 351.041 151.0559 C353.2502 151.0559 355.041 152.8467 355.041 155.0559 Z" stroke="none" clip-path="url(#clipPath2)"/>
    </g>
    <g stroke-linecap="butt" transform="matrix(1,0,0,1,-92,-46)" fill="green" text-rendering="geometricPrecision" shape-rendering="geometricPrecision" stroke="green" stroke-miterlimit="1.45">
      <path fill="none" d="M355.041 155.0559 C355.041 157.265 353.2502 159.0559 351.041 159.0559 C348.8319 159.0559 347.041 157.265 347.041 155.0559 C347.041 152.8467 348.8319 151.0559 351.041 151.0559 C353.2502 151.0559 355.041 152.8467 355.041 155.0559 Z" clip-path="url(#clipPath2)"/>
      <path fill="white" d="M240.5141 155.0559 L256.5141 161.0559 L256.5141 149.0559 Z" clip-path="url(#clipPath2)" stroke="none"/>
      <path fill="none" d="M240.5141 155.0559 L256.5141 161.0559 L256.5141 149.0559 Z" clip-path="url(#clipPath2)"/>
      <rect x="266.4817" y="145.9895" clip-path="url(#clipPath2)" fill="white" width="58.5918" height="18.1328" stroke="none"/>
      <text x="268.4817" xml:space="preserve" y="159.591" clip-path="url(#clipPath2)" font-family="sans-serif" stroke="none">rdfs:label</text>
      <path fill="none" d="M1023.5537 131.0559 L1023.5537 96.7444" clip-path="url(#clipPath2)"/>
    </g>
    <g stroke-linecap="butt" transform="matrix(1,0,0,1,-92,-46)" fill-opacity="0" fill="rgb(0,0,0)" text-rendering="geometricPrecision" shape-rendering="geometricPrecision" stroke="rgb(0,0,0)" stroke-opacity="0" stroke-miterlimit="1.45">
      <path d="M1023.5537 139.0559 C1021.3445 139.0559 1019.5537 137.265 1019.5537 135.0559 C1019.5537 132.8467 1021.3445 131.0559 1023.5537 131.0559 C1025.7628 131.0559 1027.5537 132.8467 1027.5537 135.0559 C1027.5537 137.265 1025.7628 139.0559 1023.5537 139.0559 Z" stroke="none" clip-path="url(#clipPath2)"/>
    </g>
    <g stroke-linecap="butt" transform="matrix(1,0,0,1,-92,-46)" fill="green" text-rendering="geometricPrecision" shape-rendering="geometricPrecision" stroke="green" stroke-miterlimit="1.45">
      <path fill="none" d="M1023.5537 139.0559 C1021.3445 139.0559 1019.5537 137.265 1019.5537 135.0559 C1019.5537 132.8467 1021.3445 131.0559 1023.5537 131.0559 C1025.7628 131.0559 1027.5537 132.8467 1027.5537 135.0559 C1027.5537 137.265 1025.7628 139.0559 1023.5537 139.0559 Z" clip-path="url(#clipPath2)"/>
      <path fill="white" d="M1023.5537 81.7444 L1017.5537 97.7444 L1029.5537 97.7444 Z" clip-path="url(#clipPath2)" stroke="none"/>
      <path fill="none" d="M1023.5537 81.7444 L1017.5537 97.7444 L1029.5537 97.7444 Z" clip-path="url(#clipPath2)"/>
      <rect x="994.2578" y="99.3337" clip-path="url(#clipPath2)" fill="white" width="58.5918" height="18.1328" stroke="none"/>
      <text x="996.2578" xml:space="preserve" y="112.9353" clip-path="url(#clipPath2)" font-family="sans-serif" stroke="none">rdfs:label</text>
      <path fill="none" d="M1122.4121 255.0559 L1213.1074 255.0559" clip-path="url(#clipPath2)"/>
    </g>
    <g stroke-linecap="butt" transform="matrix(1,0,0,1,-92,-46)" fill-opacity="0" fill="rgb(0,0,0)" text-rendering="geometricPrecision" shape-rendering="geometricPrecision" stroke="rgb(0,0,0)" stroke-opacity="0" stroke-miterlimit="1.45">
      <path d="M1114.4121 255.0559 C1114.4121 252.8467 1116.203 251.0559 1118.4121 251.0559 C1120.6212 251.0559 1122.4121 252.8467 1122.4121 255.0559 C1122.4121 257.265 1120.6212 259.0558 1118.4121 259.0558 C1116.203 259.0558 1114.4121 257.265 1114.4121 255.0559 Z" stroke="none" clip-path="url(#clipPath2)"/>
    </g>
    <g stroke-linecap="butt" transform="matrix(1,0,0,1,-92,-46)" fill="green" text-rendering="geometricPrecision" shape-rendering="geometricPrecision" stroke="green" stroke-miterlimit="1.45">
      <path fill="none" d="M1114.4121 255.0559 C1114.4121 252.8467 1116.203 251.0559 1118.4121 251.0559 C1120.6212 251.0559 1122.4121 252.8467 1122.4121 255.0559 C1122.4121 257.265 1120.6212 259.0558 1118.4121 259.0558 C1116.203 259.0558 1114.4121 257.265 1114.4121 255.0559 Z" clip-path="url(#clipPath2)"/>
      <path fill="white" d="M1228.1074 255.0559 L1212.1074 249.0559 L1212.1074 261.0558 Z" clip-path="url(#clipPath2)" stroke="none"/>
      <path fill="none" d="M1228.1074 255.0559 L1212.1074 249.0559 L1212.1074 261.0558 Z" clip-path="url(#clipPath2)"/>
      <rect x="1143.9639" y="245.9895" clip-path="url(#clipPath2)" fill="white" width="58.5918" height="18.1328" stroke="none"/>
      <text x="1145.9639" xml:space="preserve" y="259.591" clip-path="url(#clipPath2)" font-family="sans-serif" stroke="none">rdfs:label</text>
      <path fill="none" d="M371.041 155.0559 L489.7305 155.0559 L489.7305 126.0559" clip-path="url(#clipPath2)" stroke="black"/>
      <path fill="black" d="M489.7305 118.0559 L484.7305 130.0559 L489.7305 127.0559 L494.7305 130.0559 Z" clip-path="url(#clipPath2)" stroke="none"/>
      <rect x="402.803" y="145.9895" clip-path="url(#clipPath2)" fill="white" width="72.9121" height="18.1328" stroke="none"/>
      <text x="404.803" y="159.591" clip-path="url(#clipPath2)" fill="black" font-family="sans-serif" stroke="none" xml:space="preserve">owl:sameAs</text>
      <path fill="none" d="M1033.5537 145.0559 L1130.7227 145.0559" clip-path="url(#clipPath2)" stroke="black"/>
      <path fill="black" d="M1138.7227 145.0559 L1126.7227 140.0559 L1129.7227 145.0559 L1126.7227 150.0559 Z" clip-path="url(#clipPath2)" stroke="none"/>
      <rect x="1049.6821" y="135.9895" clip-path="url(#clipPath2)" fill="white" width="72.9121" height="18.1328" stroke="none"/>
      <text x="1051.6821" y="149.591" clip-path="url(#clipPath2)" fill="black" font-family="sans-serif" stroke="none" xml:space="preserve">owl:sameAs</text>
      <path fill="none" d="M1117.8506 258.3596 L1236.4822 299.8849" clip-path="url(#clipPath2)" stroke="black"/>
      <path fill="black" d="M1244.033 302.5279 L1234.3586 293.8441 L1235.5383 299.5545 L1231.0549 303.2826 Z" clip-path="url(#clipPath2)" stroke="none"/>
      <rect x="1137.3553" y="268.8815" clip-path="url(#clipPath2)" fill="white" width="72.9121" height="18.1328" stroke="none"/>
      <text x="1139.3552" y="282.483" clip-path="url(#clipPath2)" fill="black" font-family="sans-serif" stroke="none" xml:space="preserve">owl:sameAs</text>
    </g>
  </g>
</svg>
