<?xml version="1.0" encoding="UTF-8"?><svg xmlns="http://www.w3.org/2000/svg" xmlns:xlink="http://www.w3.org/1999/xlink" fill-opacity="1" color-rendering="auto" color-interpolation="auto" text-rendering="auto" stroke="black" stroke-linecap="square" width="1562" stroke-miterlimit="10" shape-rendering="auto" stroke-opacity="1" fill="black" stroke-dasharray="none" font-weight="normal" stroke-width="1" height="373" font-family="'Dialog'" font-style="normal" stroke-linejoin="miter" font-size="12px" stroke-dashoffset="0" image-rendering="auto">
  <!--Generated by ySVG 2.6-->
  <defs id="genericDefs"/>
  <g>
    <defs id="defs1">
      <clipPath clipPathUnits="userSpaceOnUse" id="clipPath1">
        <path d="M0 0 L1562 0 L1562 373 L0 373 L0 0 Z"/>
      </clipPath>
      <clipPath clipPathUnits="userSpaceOnUse" id="clipPath2">
        <path d="M580 -41 L2142 -41 L2142 332 L580 332 L580 -41 Z"/>
      </clipPath>
    </defs>
    <g fill="white" text-rendering="geometricPrecision" shape-rendering="geometricPrecision" transform="translate(-580,41)" stroke="white">
      <rect x="580" width="1562" height="373" y="-41" clip-path="url(#clipPath2)" stroke="none"/>
    </g>
    <g fill="yellow" text-rendering="geometricPrecision" shape-rendering="geometricPrecision" transform="matrix(1,0,0,1,-580,41)" stroke="yellow">
      <rect x="631.9452" y="67.3205" clip-path="url(#clipPath2)" width="128.9682" rx="4" ry="4" height="37.8006" stroke="none"/>
    </g>
    <g font-size="16px" stroke-linecap="butt" transform="matrix(1,0,0,1,-580,41)" text-rendering="geometricPrecision" font-family="sans-serif" shape-rendering="geometricPrecision" stroke-miterlimit="1.45">
      <text x="648.0074" xml:space="preserve" y="92.2676" clip-path="url(#clipPath2)" stroke="none">dcat:Dataset</text>
      <rect x="631.9452" y="67.3205" clip-path="url(#clipPath2)" fill="none" width="128.9682" rx="4" ry="4" height="37.8006"/>
    </g>
    <g fill="yellow" text-rendering="geometricPrecision" shape-rendering="geometricPrecision" transform="matrix(1,0,0,1,-580,41)" stroke="yellow">
      <rect x="949.6164" y="66.1211" clip-path="url(#clipPath2)" width="154.9682" rx="4" ry="4" height="39" stroke="none"/>
    </g>
    <g font-size="16px" stroke-linecap="butt" transform="matrix(1,0,0,1,-580,41)" text-rendering="geometricPrecision" font-family="sans-serif" shape-rendering="geometricPrecision" stroke-miterlimit="1.45">
      <text x="961.8818" xml:space="preserve" y="91.668" clip-path="url(#clipPath2)" stroke="none">dcat:Distribution</text>
      <rect x="949.6164" y="66.1211" clip-path="url(#clipPath2)" fill="none" width="154.9682" rx="4" ry="4" height="39"/>
    </g>
    <g fill="rgb(255,153,204)" text-rendering="geometricPrecision" shape-rendering="geometricPrecision" transform="matrix(1,0,0,1,-580,41)" stroke="rgb(255,153,204)">
      <circle r="10" clip-path="url(#clipPath2)" cx="696.4293" cy="140.1211" stroke="none"/>
    </g>
    <g text-rendering="geometricPrecision" stroke-miterlimit="1.45" shape-rendering="geometricPrecision" font-family="sans-serif" transform="matrix(1,0,0,1,-580,41)" stroke-linecap="butt">
      <text x="597.1382" xml:space="preserve" y="144.6562" clip-path="url(#clipPath2)" stroke="none">:alcide_corpus</text>
      <circle fill="none" stroke-width="3" r="10" clip-path="url(#clipPath2)" cx="696.4293" cy="140.1211"/>
    </g>
    <g fill="rgb(255,153,204)" text-rendering="geometricPrecision" shape-rendering="geometricPrecision" transform="matrix(1,0,0,1,-580,41)" stroke="rgb(255,153,204)">
      <circle r="10" clip-path="url(#clipPath2)" cx="1286.4495" cy="140.1211" stroke="none"/>
    </g>
    <g text-rendering="geometricPrecision" stroke-miterlimit="1.45" shape-rendering="geometricPrecision" font-family="sans-serif" transform="matrix(1,0,0,1,-580,41)" stroke-linecap="butt">
      <text x="1302.4495" xml:space="preserve" y="125.5898" clip-path="url(#clipPath2)" stroke="none">:corpus_distro_txt</text>
      <circle fill="none" stroke-width="3" r="10" clip-path="url(#clipPath2)" cx="1286.4495" cy="140.1211"/>
      <text x="1433.2427" xml:space="preserve" y="142.6016" clip-path="url(#clipPath2)" stroke="none">&lt;publications.europa.eu/resource/authority/file-type/TXT&gt;</text>
      <text x="738.4293" xml:space="preserve" y="142.6016" clip-path="url(#clipPath2)" stroke="none">&lt;publications.europa.eu/resource/authority/file-type/ZIP&gt;</text>
      <text x="1815.2427" xml:space="preserve" y="142.6016" clip-path="url(#clipPath2)" stroke="none">&lt;github.com/StefanoMenini/De-Gasperi-s-Corpus&gt;</text>
      <text x="728.2332" xml:space="preserve" y="270.2398" clip-path="url(#clipPath2)" stroke="none">"Raw txt files contain only the </text>
      <text x="728.2332" xml:space="preserve" y="284.3727" clip-path="url(#clipPath2)" stroke="none">body of the documents..."@en </text>
      <text x="770.3767" xml:space="preserve" y="26.0898" clip-path="url(#clipPath2)" stroke="none">&lt;publications.europa.eu/resource/authority/language/ITA&gt;</text>
      <text x="1492.53" xml:space="preserve" y="268.9648" clip-path="url(#clipPath2)" stroke="none">&lt;creativecommons.org/licenses/by/4.0/&gt;</text>
      <text x="1685.8105" xml:space="preserve" y="21.9805" clip-path="url(#clipPath2)" stroke="none">"9420000.0"^^xsd:decimal</text>
      <text x="1414.3546" xml:space="preserve" y="268.9648" clip-path="url(#clipPath2)" stroke="none">URL</text>
      <text x="1350.4297" xml:space="preserve" y="21.9805" clip-path="url(#clipPath2)" stroke="none">&lt;publications.europa.eu/resource/authority/file-type/&gt;</text>
      <text x="1218.8049" xml:space="preserve" y="308.1083" clip-path="url(#clipPath2)" stroke="none">2018/12/31^^xsd:date</text>
      <text x="1160.4495" xml:space="preserve" y="-12.3664" clip-path="url(#clipPath2)" stroke="none">&lt;http://purl.org/adms/status/Completed&gt;</text>
      <text x="941.3367" xml:space="preserve" y="278.3326" clip-path="url(#clipPath2)" stroke="none">"De Gasperi's Corpus - Raw Text Files "@en</text>
      <path fill="none" d="M696.4293 105.1508 L696.4293 122.1211" clip-path="url(#clipPath2)"/>
      <path d="M696.4293 130.1211 L701.4293 118.1211 L696.4293 121.1211 L691.4293 118.1211 Z" clip-path="url(#clipPath2)" stroke="none"/>
      <path fill="none" d="M696.4293 154.1211 L696.4293 203.7539 L1279.7828 203.7539 L1279.7828 158.5898" clip-path="url(#clipPath2)" stroke="navy"/>
      <path fill="navy" d="M696.4293 146.1211 C698.6384 146.1211 700.4293 147.912 700.4293 150.1211 C700.4293 152.3302 698.6384 154.1211 696.4293 154.1211 C694.2201 154.1211 692.4293 152.3302 692.4293 150.1211 C692.4293 147.912 694.2201 146.1211 696.4293 146.1211 Z" clip-path="url(#clipPath2)" stroke="none"/>
      <path fill="navy" d="M1279.7828 147.5898 L1273.7828 159.5898 L1285.7828 159.5898 Z" clip-path="url(#clipPath2)" stroke="none"/>
      <rect x="937.9098" y="194.6875" clip-path="url(#clipPath2)" fill="white" width="100.3926" height="18.1328" stroke="none"/>
      <text fill="navy" x="939.9097" xml:space="preserve" y="208.2891" clip-path="url(#clipPath2)" stroke="none">dcat:distribution</text>
      <path fill="none" d="M1104.5886 85.6211 L1278.4495 85.6211 L1278.4495 126.1049" clip-path="url(#clipPath2)"/>
      <path d="M1278.4495 134.1049 L1283.4495 122.1049 L1278.4495 125.1049 L1273.4495 122.1049 Z" clip-path="url(#clipPath2)" stroke="none"/>
      <path fill="none" d="M1300.4495 140.1211 L1420.2098 140.1211" clip-path="url(#clipPath2)" stroke="navy"/>
      <path fill="navy" d="M1292.4495 140.1211 C1292.4495 137.912 1294.2404 136.1211 1296.4495 136.1211 C1298.6586 136.1211 1300.4495 137.912 1300.4495 140.1211 C1300.4495 142.3302 1298.6586 144.1211 1296.4495 144.1211 C1294.2404 144.1211 1292.4495 142.3302 1292.4495 140.1211 Z" clip-path="url(#clipPath2)" stroke="none"/>
      <path fill="navy" d="M1431.2098 140.1211 L1419.2098 134.1211 L1419.2098 146.1211 Z" clip-path="url(#clipPath2)" stroke="none"/>
      <rect x="1331.3481" y="131.0547" clip-path="url(#clipPath2)" fill="white" width="64.9961" height="18.1328" stroke="none"/>
      <text fill="navy" x="1333.348" xml:space="preserve" y="144.6562" clip-path="url(#clipPath2)" stroke="none">dct:format</text>
      <path fill="none" d="M1272.4495 140.1211 L1099.4293 140.1211" clip-path="url(#clipPath2)" stroke="navy"/>
      <path fill="navy" d="M1280.4495 140.1211 C1280.4495 142.3302 1278.6586 144.1211 1276.4495 144.1211 C1274.2404 144.1211 1272.4495 142.3302 1272.4495 140.1211 C1272.4495 137.912 1274.2404 136.1211 1276.4495 136.1211 C1278.6586 136.1211 1280.4495 137.912 1280.4495 140.1211 Z" clip-path="url(#clipPath2)" stroke="none"/>
      <path fill="navy" d="M1088.4293 140.1211 L1100.4293 146.1211 L1100.4293 134.1211 Z" clip-path="url(#clipPath2)" stroke="none"/>
      <rect x="1117.5654" y="131.0547" clip-path="url(#clipPath2)" fill="white" width="129.748" height="18.1328" stroke="none"/>
      <text fill="navy" x="1119.5653" xml:space="preserve" y="144.6562" clip-path="url(#clipPath2)" stroke="none">dcat:compressFormat</text>
      <path fill="none" d="M1295.3384 148.7148 L1295.3384 166.7422 L1874.9927 166.7422 L1874.9927 162.2422" clip-path="url(#clipPath2)" stroke="navy"/>
      <path fill="navy" d="M1295.3384 140.7148 C1297.5475 140.7148 1299.3384 142.5057 1299.3384 144.7148 C1299.3384 146.924 1297.5475 148.7148 1295.3384 148.7148 C1293.1293 148.7148 1291.3384 146.924 1291.3384 144.7148 C1291.3384 142.5057 1293.1293 140.7148 1295.3384 140.7148 Z" clip-path="url(#clipPath2)" stroke="none"/>
      <path fill="navy" d="M1874.9927 151.2422 L1868.9927 163.2422 L1880.9927 163.2422 Z" clip-path="url(#clipPath2)" stroke="none"/>
      <rect x="1710.2589" y="157.6758" clip-path="url(#clipPath2)" fill="white" width="92.752" height="18.1328" stroke="none"/>
      <text fill="navy" x="1712.2589" xml:space="preserve" y="171.2773" clip-path="url(#clipPath2)" stroke="none">dcat:accessURL</text>
      <path fill="none" d="M1282.005 153.0898 L1282.005 219.7539 L836.3367 219.7539 L836.3367 236.1578" clip-path="url(#clipPath2)" stroke="green"/>
    </g>
    <g stroke-linecap="butt" transform="matrix(1,0,0,1,-580,41)" fill-opacity="0" fill="rgb(0,0,0)" text-rendering="geometricPrecision" shape-rendering="geometricPrecision" stroke="rgb(0,0,0)" stroke-opacity="0" stroke-miterlimit="1.45">
      <path d="M1282.005 145.0898 C1284.2141 145.0898 1286.005 146.8807 1286.005 149.0898 C1286.005 151.299 1284.2141 153.0898 1282.005 153.0898 C1279.7959 153.0898 1278.005 151.299 1278.005 149.0898 C1278.005 146.8807 1279.7959 145.0898 1282.005 145.0898 Z" stroke="none" clip-path="url(#clipPath2)"/>
    </g>
    <g stroke-linecap="butt" transform="matrix(1,0,0,1,-580,41)" fill="green" text-rendering="geometricPrecision" shape-rendering="geometricPrecision" stroke="green" stroke-miterlimit="1.45">
      <path fill="none" d="M1282.005 145.0898 C1284.2141 145.0898 1286.005 146.8807 1286.005 149.0898 C1286.005 151.299 1284.2141 153.0898 1282.005 153.0898 C1279.7959 153.0898 1278.005 151.299 1278.005 149.0898 C1278.005 146.8807 1279.7959 145.0898 1282.005 145.0898 Z" clip-path="url(#clipPath2)"/>
      <path fill="white" d="M836.3367 251.1578 L842.3367 235.1578 L830.3367 235.1578 Z" clip-path="url(#clipPath2)" stroke="none"/>
      <path fill="none" d="M836.3367 251.1578 L842.3367 235.1578 L830.3367 235.1578 Z" clip-path="url(#clipPath2)"/>
      <rect x="1013.5742" y="210.6875" clip-path="url(#clipPath2)" fill="white" width="91.1934" height="18.1328" stroke="none"/>
      <text x="1015.5742" xml:space="preserve" y="224.2891" clip-path="url(#clipPath2)" font-family="sans-serif" stroke="none">dct:description</text>
      <path fill="none" d="M1282.4495 126.9234 L1282.4495 46.1211 L946.9314 46.1211 L946.9314 41.6211" clip-path="url(#clipPath2)" stroke="navy"/>
      <path fill="navy" d="M1282.4495 134.9234 C1280.2404 134.9234 1278.4495 133.1326 1278.4495 130.9234 C1278.4495 128.7143 1280.2404 126.9234 1282.4495 126.9234 C1284.6586 126.9234 1286.4495 128.7143 1286.4495 130.9234 C1286.4495 133.1326 1284.6586 134.9234 1282.4495 134.9234 Z" clip-path="url(#clipPath2)" stroke="none"/>
      <path fill="navy" d="M946.9314 30.6211 L940.9314 42.6211 L952.9314 42.6211 Z" clip-path="url(#clipPath2)" stroke="none"/>
      <rect x="1075.0645" y="37.0547" clip-path="url(#clipPath2)" fill="white" width="79.252" height="18.1328" stroke="none"/>
      <text x="1077.0645" y="50.6562" clip-path="url(#clipPath2)" fill="navy" font-family="sans-serif" stroke="none" xml:space="preserve">dct:language</text>
      <path fill="none" d="M1290.8939 153.0898 L1290.8939 198.7422 L1616.9421 198.7422 L1616.9421 240.2283" clip-path="url(#clipPath2)" stroke="navy"/>
      <path fill="navy" d="M1290.8939 145.0898 C1293.103 145.0898 1294.8939 146.8807 1294.8939 149.0898 C1294.8939 151.299 1293.103 153.0898 1290.8939 153.0898 C1288.6848 153.0898 1286.8939 151.299 1286.8939 149.0898 C1286.8939 146.8807 1288.6848 145.0898 1290.8939 145.0898 Z" clip-path="url(#clipPath2)" stroke="none"/>
      <path fill="navy" d="M1616.9421 251.2283 L1622.9421 239.2283 L1610.9421 239.2283 Z" clip-path="url(#clipPath2)" stroke="none"/>
      <rect x="1420.9161" y="189.6758" clip-path="url(#clipPath2)" fill="white" width="66.0039" height="18.1328" stroke="none"/>
      <text x="1422.9161" y="203.2773" clip-path="url(#clipPath2)" fill="navy" font-family="sans-serif" stroke="none" xml:space="preserve">dct:license</text>
      <path fill="none" d="M1294.4495 130.1172 L1294.4495 62.1211 L1773.4297 62.1211 L1773.4297 45.6211" clip-path="url(#clipPath2)"/>
    </g>
    <g stroke-linecap="butt" transform="matrix(1,0,0,1,-580,41)" fill-opacity="0" fill="rgb(0,0,0)" text-rendering="geometricPrecision" shape-rendering="geometricPrecision" stroke="rgb(0,0,0)" stroke-opacity="0" stroke-miterlimit="1.45">
      <path d="M1294.4495 138.1172 C1292.2404 138.1172 1290.4495 136.3263 1290.4495 134.1172 C1290.4495 131.908 1292.2404 130.1172 1294.4495 130.1172 C1296.6586 130.1172 1298.4495 131.908 1298.4495 134.1172 C1298.4495 136.3263 1296.6586 138.1172 1294.4495 138.1172 Z" stroke="none" clip-path="url(#clipPath2)"/>
    </g>
    <g stroke-linecap="butt" transform="matrix(1,0,0,1,-580,41)" fill="green" text-rendering="geometricPrecision" shape-rendering="geometricPrecision" stroke="green" stroke-miterlimit="1.45">
      <path fill="none" d="M1294.4495 138.1172 C1292.2404 138.1172 1290.4495 136.3263 1290.4495 134.1172 C1290.4495 131.908 1292.2404 130.1172 1294.4495 130.1172 C1296.6586 130.1172 1298.4495 131.908 1298.4495 134.1172 C1298.4495 136.3263 1296.6586 138.1172 1294.4495 138.1172 Z" clip-path="url(#clipPath2)"/>
      <path fill="white" d="M1773.4297 30.6211 L1767.4297 46.6211 L1779.4297 46.6211 Z" clip-path="url(#clipPath2)" stroke="none"/>
      <path fill="none" d="M1773.4297 30.6211 L1767.4297 46.6211 L1779.4297 46.6211 Z" clip-path="url(#clipPath2)"/>
      <rect x="1493.3878" y="53.0547" clip-path="url(#clipPath2)" fill="white" width="81.1035" height="18.1328" stroke="none"/>
      <text x="1495.3878" xml:space="preserve" y="66.6562" clip-path="url(#clipPath2)" font-family="sans-serif" stroke="none">dcat:byteSize</text>
      <path fill="none" d="M1288.6718 153.8715 L1288.6718 214.7422 L1425.505 214.7422 L1425.505 240.2182" clip-path="url(#clipPath2)" stroke="navy"/>
      <path fill="navy" d="M1288.6718 145.8715 C1290.8809 145.8715 1292.6718 147.6624 1292.6718 149.8715 C1292.6718 152.0807 1290.8809 153.8715 1288.6718 153.8715 C1286.4626 153.8715 1284.6718 152.0807 1284.6718 149.8715 C1284.6718 147.6624 1286.4626 145.8715 1288.6718 145.8715 Z" clip-path="url(#clipPath2)" stroke="none"/>
      <path fill="navy" d="M1425.505 251.2182 L1431.505 239.2182 L1419.505 239.2182 Z" clip-path="url(#clipPath2)" stroke="none"/>
      <rect x="1301.314" y="205.6758" clip-path="url(#clipPath2)" fill="white" width="111.5488" height="18.1328" stroke="none"/>
      <text x="1303.314" y="219.2773" clip-path="url(#clipPath2)" fill="navy" font-family="sans-serif" stroke="none" xml:space="preserve">dcat:downloadURL</text>
      <path fill="none" d="M1290.4495 126.9234 L1290.4495 46.1211 L1524.4297 46.1211 L1524.4297 41.6211" clip-path="url(#clipPath2)" stroke="navy"/>
      <path fill="navy" d="M1290.4495 134.9234 C1288.2404 134.9234 1286.4495 133.1326 1286.4495 130.9234 C1286.4495 128.7143 1288.2404 126.9234 1290.4495 126.9234 C1292.6586 126.9234 1294.4495 128.7143 1294.4495 130.9234 C1294.4495 133.1326 1292.6586 134.9234 1290.4495 134.9234 Z" clip-path="url(#clipPath2)" stroke="none"/>
      <path fill="navy" d="M1524.4297 30.6211 L1518.4297 42.6211 L1530.4297 42.6211 Z" clip-path="url(#clipPath2)" stroke="none"/>
      <rect x="1359.4787" y="37.0547" clip-path="url(#clipPath2)" fill="white" width="95.9219" height="18.1328" stroke="none"/>
      <text x="1361.4786" y="50.6562" clip-path="url(#clipPath2)" fill="navy" font-family="sans-serif" stroke="none" xml:space="preserve">dct:conformsTo</text>
      <path fill="none" d="M1286.4495 154.1211 L1286.4495 279.4715" clip-path="url(#clipPath2)"/>
    </g>
    <g stroke-linecap="butt" transform="matrix(1,0,0,1,-580,41)" fill-opacity="0" fill="rgb(0,0,0)" text-rendering="geometricPrecision" shape-rendering="geometricPrecision" stroke="rgb(0,0,0)" stroke-opacity="0" stroke-miterlimit="1.45">
      <path d="M1286.4495 146.1211 C1288.6586 146.1211 1290.4495 147.912 1290.4495 150.1211 C1290.4495 152.3302 1288.6586 154.1211 1286.4495 154.1211 C1284.2404 154.1211 1282.4495 152.3302 1282.4495 150.1211 C1282.4495 147.912 1284.2404 146.1211 1286.4495 146.1211 Z" stroke="none" clip-path="url(#clipPath2)"/>
    </g>
    <g stroke-linecap="butt" transform="matrix(1,0,0,1,-580,41)" fill="green" text-rendering="geometricPrecision" shape-rendering="geometricPrecision" stroke="green" stroke-miterlimit="1.45">
      <path fill="none" d="M1286.4495 146.1211 C1288.6586 146.1211 1290.4495 147.912 1290.4495 150.1211 C1290.4495 152.3302 1288.6586 154.1211 1286.4495 154.1211 C1284.2404 154.1211 1282.4495 152.3302 1282.4495 150.1211 C1282.4495 147.912 1284.2404 146.1211 1286.4495 146.1211 Z" clip-path="url(#clipPath2)"/>
      <path fill="white" d="M1286.4495 294.4715 L1292.4495 278.4715 L1280.4495 278.4715 Z" clip-path="url(#clipPath2)" stroke="none"/>
      <path fill="none" d="M1286.4495 294.4715 L1292.4495 278.4715 L1280.4495 278.4715 Z" clip-path="url(#clipPath2)"/>
      <rect x="1254.763" y="244.0223" clip-path="url(#clipPath2)" fill="white" width="63.373" height="18.1328" stroke="none"/>
      <text x="1256.7629" xml:space="preserve" y="257.6238" clip-path="url(#clipPath2)" font-family="sans-serif" stroke="none">dct:issued</text>
      <path fill="none" d="M1286.4495 126.1211 L1286.4495 7.2742" clip-path="url(#clipPath2)" stroke="navy"/>
      <path fill="navy" d="M1286.4495 134.1211 C1284.2404 134.1211 1282.4495 132.3302 1282.4495 130.1211 C1282.4495 127.912 1284.2404 126.1211 1286.4495 126.1211 C1288.6586 126.1211 1290.4495 127.912 1290.4495 130.1211 C1290.4495 132.3302 1288.6586 134.1211 1286.4495 134.1211 Z" clip-path="url(#clipPath2)" stroke="none"/>
      <path fill="navy" d="M1286.4495 -3.7258 L1280.4495 8.2742 L1292.4495 8.2742 Z" clip-path="url(#clipPath2)" stroke="none"/>
      <rect x="1249.1585" y="18.1842" clip-path="url(#clipPath2)" fill="white" width="74.582" height="18.1328" stroke="none"/>
      <text x="1251.1584" y="31.7857" clip-path="url(#clipPath2)" fill="navy" font-family="sans-serif" stroke="none" xml:space="preserve">adms:status</text>
      <path fill="none" d="M1284.2273 153.8818 L1284.2273 235.7539 L1067.3368 235.7539 L1067.3368 245.5731" clip-path="url(#clipPath2)"/>
    </g>
    <g stroke-linecap="butt" transform="matrix(1,0,0,1,-580,41)" fill-opacity="0" fill="rgb(0,0,0)" text-rendering="geometricPrecision" shape-rendering="geometricPrecision" stroke="rgb(0,0,0)" stroke-opacity="0" stroke-miterlimit="1.45">
      <path d="M1284.2273 145.8818 C1286.4364 145.8818 1288.2273 147.6727 1288.2273 149.8818 C1288.2273 152.0909 1286.4364 153.8818 1284.2273 153.8818 C1282.0182 153.8818 1280.2273 152.0909 1280.2273 149.8818 C1280.2273 147.6727 1282.0182 145.8818 1284.2273 145.8818 Z" stroke="none" clip-path="url(#clipPath2)"/>
    </g>
    <g stroke-linecap="butt" transform="matrix(1,0,0,1,-580,41)" fill="green" text-rendering="geometricPrecision" shape-rendering="geometricPrecision" stroke="green" stroke-miterlimit="1.45">
      <path fill="none" d="M1284.2273 145.8818 C1286.4364 145.8818 1288.2273 147.6727 1288.2273 149.8818 C1288.2273 152.0909 1286.4364 153.8818 1284.2273 153.8818 C1282.0182 153.8818 1280.2273 152.0909 1280.2273 149.8818 C1280.2273 147.6727 1282.0182 145.8818 1284.2273 145.8818 Z" clip-path="url(#clipPath2)"/>
      <path fill="white" d="M1067.3368 260.5731 L1073.3368 244.5731 L1061.3368 244.5731 Z" clip-path="url(#clipPath2)" stroke="none"/>
      <path fill="none" d="M1067.3368 260.5731 L1073.3368 244.5731 L1061.3368 244.5731 Z" clip-path="url(#clipPath2)"/>
      <rect x="1151.49" y="226.6875" clip-path="url(#clipPath2)" fill="white" width="48.584" height="18.1328" stroke="none"/>
      <text x="1153.49" xml:space="preserve" y="240.2891" clip-path="url(#clipPath2)" font-family="sans-serif" stroke="none">dct:title</text>
    </g>
  </g>
</svg>
