<?xml version="1.0" encoding="UTF-8"?><svg xmlns="http://www.w3.org/2000/svg" xmlns:xlink="http://www.w3.org/1999/xlink" fill-opacity="1" color-rendering="auto" color-interpolation="auto" text-rendering="auto" stroke="black" stroke-linecap="square" width="1111" stroke-miterlimit="10" shape-rendering="auto" stroke-opacity="1" fill="black" stroke-dasharray="none" font-weight="normal" stroke-width="1" height="371" font-family="'Dialog'" font-style="normal" stroke-linejoin="miter" font-size="12px" stroke-dashoffset="0" image-rendering="auto">
  <!--Generated by ySVG 2.6-->
  <defs id="genericDefs"/>
  <g>
    <defs id="defs1">
      <clipPath clipPathUnits="userSpaceOnUse" id="clipPath1">
        <path d="M0 0 L1111 0 L1111 371 L0 371 L0 0 Z"/>
      </clipPath>
      <clipPath clipPathUnits="userSpaceOnUse" id="clipPath2">
        <path d="M431 -33 L1542 -33 L1542 338 L431 338 L431 -33 Z"/>
      </clipPath>
    </defs>
    <g fill="white" text-rendering="geometricPrecision" shape-rendering="geometricPrecision" transform="translate(-431,33)" stroke="white">
      <rect x="431" width="1111" height="371" y="-33" clip-path="url(#clipPath2)" stroke="none"/>
    </g>
    <g fill="rgb(255,153,204)" text-rendering="geometricPrecision" shape-rendering="geometricPrecision" transform="matrix(1,0,0,1,-431,33)" stroke="rgb(255,153,204)">
      <circle r="10" clip-path="url(#clipPath2)" cx="1130.9032" cy="160.5493" stroke="none"/>
    </g>
    <g text-rendering="geometricPrecision" stroke-miterlimit="1.45" shape-rendering="geometricPrecision" font-family="sans-serif" transform="matrix(1,0,0,1,-431,33)" stroke-linecap="butt">
      <text x="1026.913" xml:space="preserve" y="146.018" clip-path="url(#clipPath2)" stroke="none">:alcide_website</text>
      <circle fill="none" stroke-width="3" r="10" clip-path="url(#clipPath2)" cx="1130.9032" cy="160.5493"/>
    </g>
    <g fill="yellow" text-rendering="geometricPrecision" shape-rendering="geometricPrecision" transform="matrix(1,0,0,1,-431,33)" stroke="yellow">
      <rect x="989.9032" y="79.9308" clip-path="url(#clipPath2)" width="101" rx="4" ry="4" height="32.5279" stroke="none"/>
    </g>
    <g text-rendering="geometricPrecision" stroke-miterlimit="1.45" shape-rendering="geometricPrecision" font-family="sans-serif" transform="matrix(1,0,0,1,-431,33)" stroke-linecap="butt">
      <text x="1003.9139" xml:space="preserve" y="100.7299" clip-path="url(#clipPath2)" stroke="none">dcat:Catalog</text>
      <rect x="989.9032" y="79.9308" clip-path="url(#clipPath2)" fill="none" width="101" rx="4" ry="4" height="32.5279"/>
      <text x="1306.2101" xml:space="preserve" y="142.6196" clip-path="url(#clipPath2)" stroke="none">"ALCIDE </text>
      <text x="1306.2101" xml:space="preserve" y="156.7524" clip-path="url(#clipPath2)" stroke="none">(Analysis of Language </text>
      <text x="1306.2101" xml:space="preserve" y="170.8852" clip-path="url(#clipPath2)" stroke="none">and Content In a </text>
      <text x="1306.2101" xml:space="preserve" y="185.018" clip-path="url(#clipPath2)" stroke="none">Digital Environment)"@en</text>
      <text x="1305.6514" xml:space="preserve" y="104.4993" clip-path="url(#clipPath2)" stroke="none">&lt;alcidedigitale.fbk.eu/&gt;</text>
      <text x="1312.4738" xml:space="preserve" y="222.9721" clip-path="url(#clipPath2)" stroke="none">"La piattaforma ALCIDE </text>
      <text x="1312.4738" xml:space="preserve" y="237.1049" clip-path="url(#clipPath2)" stroke="none">nasce dalla collaborazione..."@it </text>
    </g>
    <g fill="rgb(255,153,204)" text-rendering="geometricPrecision" shape-rendering="geometricPrecision" transform="matrix(1,0,0,1,-431,33)" stroke="rgb(255,153,204)">
      <circle r="10" clip-path="url(#clipPath2)" cx="775.7782" cy="141.5493" stroke="none"/>
    </g>
    <g text-rendering="geometricPrecision" stroke-miterlimit="1.45" shape-rendering="geometricPrecision" font-family="sans-serif" transform="matrix(1,0,0,1,-431,33)" stroke-linecap="butt">
      <text x="716.0028" xml:space="preserve" y="146.0844" clip-path="url(#clipPath2)" stroke="none">:dh_fbk</text>
      <circle fill="none" stroke-width="3" r="10" clip-path="url(#clipPath2)" cx="775.7782" cy="141.5493"/>
    </g>
    <g fill="rgb(255,153,204)" text-rendering="geometricPrecision" shape-rendering="geometricPrecision" transform="matrix(1,0,0,1,-431,33)" stroke="rgb(255,153,204)">
      <circle r="10" clip-path="url(#clipPath2)" cx="681.3468" cy="141.5493" stroke="none"/>
    </g>
    <g text-rendering="geometricPrecision" stroke-miterlimit="1.45" shape-rendering="geometricPrecision" font-family="sans-serif" transform="matrix(1,0,0,1,-431,33)" stroke-linecap="butt">
      <text x="582.0558" xml:space="preserve" y="146.0844" clip-path="url(#clipPath2)" stroke="none">:alcide_corpus</text>
      <circle fill="none" stroke-width="3" r="10" clip-path="url(#clipPath2)" cx="681.3468" cy="141.5493"/>
    </g>
    <g fill="yellow" text-rendering="geometricPrecision" shape-rendering="geometricPrecision" transform="matrix(1,0,0,1,-431,33)" stroke="yellow">
      <rect x="630.8468" y="79.9308" clip-path="url(#clipPath2)" width="101" rx="4" ry="4" height="32.5279" stroke="none"/>
    </g>
    <g text-rendering="geometricPrecision" stroke-miterlimit="1.45" shape-rendering="geometricPrecision" font-family="sans-serif" transform="matrix(1,0,0,1,-431,33)" stroke-linecap="butt">
      <text x="645.0304" xml:space="preserve" y="100.7299" clip-path="url(#clipPath2)" stroke="none">dcat:Dataset</text>
      <rect x="630.8468" y="79.9308" clip-path="url(#clipPath2)" fill="none" width="101" rx="4" ry="4" height="32.5279"/>
    </g>
    <g fill="yellow" text-rendering="geometricPrecision" shape-rendering="geometricPrecision" transform="matrix(1,0,0,1,-431,33)" stroke="yellow">
      <rect x="761.8468" y="79.9308" clip-path="url(#clipPath2)" width="101" rx="4" ry="4" height="32.5279" stroke="none"/>
    </g>
    <g text-rendering="geometricPrecision" stroke-miterlimit="1.45" shape-rendering="geometricPrecision" font-family="sans-serif" transform="matrix(1,0,0,1,-431,33)" stroke-linecap="butt">
      <text x="781.8458" xml:space="preserve" y="100.7299" clip-path="url(#clipPath2)" stroke="none">foaf:Agent</text>
      <rect x="761.8468" y="79.9308" clip-path="url(#clipPath2)" fill="none" width="101" rx="4" ry="4" height="32.5279"/>
      <text x="1046.701" xml:space="preserve" y="0.3324" clip-path="url(#clipPath2)" stroke="none">Controlled Vocabularies URIs</text>
    </g>
    <g fill="rgb(255,153,204)" text-rendering="geometricPrecision" shape-rendering="geometricPrecision" transform="matrix(1,0,0,1,-431,33)" stroke="rgb(255,153,204)">
      <circle r="10" clip-path="url(#clipPath2)" cx="558.7024" cy="141.5493" stroke="none"/>
    </g>
    <g text-rendering="geometricPrecision" stroke-miterlimit="1.45" shape-rendering="geometricPrecision" font-family="sans-serif" transform="matrix(1,0,0,1,-431,33)" stroke-linecap="butt">
      <text x="448.9231" xml:space="preserve" y="146.0844" clip-path="url(#clipPath2)" stroke="none">:alcide_platform</text>
      <circle fill="none" stroke-width="3" r="10" clip-path="url(#clipPath2)" cx="558.7024" cy="141.5493"/>
      <text x="1313.7365" xml:space="preserve" y="258.7733" clip-path="url(#clipPath2)" stroke="none">&lt;publications.europa.eu/resource/</text>
      <text x="1313.7365" xml:space="preserve" y="272.9061" clip-path="url(#clipPath2)" stroke="none">authority/language/ITA&gt;</text>
      <text x="1307.2902" xml:space="preserve" y="69.635" clip-path="url(#clipPath2)" stroke="none">2018/12/31^^xsd:date</text>
    </g>
    <g fill="rgb(255,153,204)" text-rendering="geometricPrecision" shape-rendering="geometricPrecision" transform="matrix(1,0,0,1,-431,33)" stroke="rgb(255,153,204)">
      <circle r="10" clip-path="url(#clipPath2)" cx="933.0968" cy="141.5493" stroke="none"/>
    </g>
    <g text-rendering="geometricPrecision" stroke-miterlimit="1.45" shape-rendering="geometricPrecision" font-family="sans-serif" transform="matrix(1,0,0,1,-431,33)" stroke-linecap="butt">
      <text x="885.1515" xml:space="preserve" y="146.0844" clip-path="url(#clipPath2)" stroke="none">:italia</text>
      <circle fill="none" stroke-width="3" r="10" clip-path="url(#clipPath2)" cx="933.0968" cy="141.5493"/>
    </g>
    <g fill="rgb(255,153,204)" text-rendering="geometricPrecision" shape-rendering="geometricPrecision" transform="matrix(1,0,0,1,-431,33)" stroke="rgb(255,153,204)">
      <circle r="10" clip-path="url(#clipPath2)" cx="848.9155" cy="141.5493" stroke="none"/>
    </g>
    <g text-rendering="geometricPrecision" stroke-miterlimit="1.45" shape-rendering="geometricPrecision" font-family="sans-serif" transform="matrix(1,0,0,1,-431,33)" stroke-linecap="butt">
      <text x="808.5815" xml:space="preserve" y="146.0844" clip-path="url(#clipPath2)" stroke="none">:isig</text>
      <circle fill="none" stroke-width="3" r="10" clip-path="url(#clipPath2)" cx="848.9155" cy="141.5493"/>
    </g>
    <g fill="yellow" text-rendering="geometricPrecision" shape-rendering="geometricPrecision" transform="matrix(1,0,0,1,-431,33)" stroke="yellow">
      <rect x="502.2024" y="79.9308" clip-path="url(#clipPath2)" width="113" rx="4" ry="4" height="32.5279" stroke="none"/>
    </g>
    <g text-rendering="geometricPrecision" stroke-miterlimit="1.45" shape-rendering="geometricPrecision" font-family="sans-serif" transform="matrix(1,0,0,1,-431,33)" stroke-linecap="butt">
      <text x="510.7463" xml:space="preserve" y="100.7299" clip-path="url(#clipPath2)" stroke="none">dcat:DataService</text>
      <rect x="502.2024" y="79.9308" clip-path="url(#clipPath2)" fill="none" width="113" rx="4" ry="4" height="32.5279"/>
    </g>
    <g fill="yellow" text-rendering="geometricPrecision" shape-rendering="geometricPrecision" transform="matrix(1,0,0,1,-431,33)" stroke="yellow">
      <rect x="892.8468" y="79.9308" clip-path="url(#clipPath2)" width="80.5" rx="4" ry="4" height="32.5279" stroke="none"/>
    </g>
    <g text-rendering="geometricPrecision" stroke-miterlimit="1.45" shape-rendering="geometricPrecision" font-family="sans-serif" transform="matrix(1,0,0,1,-431,33)" stroke-linecap="butt">
      <text x="897.4454" xml:space="preserve" y="100.7299" clip-path="url(#clipPath2)" stroke="none">dct:Location</text>
      <rect x="892.8468" y="79.9308" clip-path="url(#clipPath2)" fill="none" width="80.5" rx="4" ry="4" height="32.5279"/>
      <text x="1299.3204" xml:space="preserve" y="317.6671" clip-path="url(#clipPath2)" stroke="none">Controlled Vocabulary Concepts URIs</text>
      <path fill="none" d="M1090.9214 96.1948 L1124.2365 96.1948 L1124.2365 145.0805" clip-path="url(#clipPath2)"/>
      <path d="M1124.2365 153.0805 L1129.2365 141.0805 L1124.2365 144.0805 L1119.2365 141.0805 Z" clip-path="url(#clipPath2)" stroke="none"/>
      <path fill="none" d="M1144.9032 160.5493 L1285.15 160.5493" clip-path="url(#clipPath2)" stroke="green"/>
    </g>
    <g stroke-linecap="butt" transform="matrix(1,0,0,1,-431,33)" fill-opacity="0" fill="rgb(0,0,0)" text-rendering="geometricPrecision" shape-rendering="geometricPrecision" stroke="rgb(0,0,0)" stroke-opacity="0" stroke-miterlimit="1.45">
      <path d="M1136.9032 160.5493 C1136.9032 158.3401 1138.6941 156.5493 1140.9032 156.5493 C1143.1123 156.5493 1144.9032 158.3401 1144.9032 160.5493 C1144.9032 162.7584 1143.1123 164.5493 1140.9032 164.5493 C1138.6941 164.5493 1136.9032 162.7584 1136.9032 160.5493 Z" stroke="none" clip-path="url(#clipPath2)"/>
    </g>
    <g stroke-linecap="butt" transform="matrix(1,0,0,1,-431,33)" fill="green" text-rendering="geometricPrecision" shape-rendering="geometricPrecision" stroke="green" stroke-miterlimit="1.45">
      <path fill="none" d="M1136.9032 160.5493 C1136.9032 158.3401 1138.6941 156.5493 1140.9032 156.5493 C1143.1123 156.5493 1144.9032 158.3401 1144.9032 160.5493 C1144.9032 162.7584 1143.1123 164.5493 1140.9032 164.5493 C1138.6941 164.5493 1136.9032 162.7584 1136.9032 160.5493 Z" clip-path="url(#clipPath2)"/>
      <path fill="white" d="M1300.15 160.5493 L1284.15 154.5493 L1284.15 166.5493 Z" clip-path="url(#clipPath2)" stroke="none"/>
      <path fill="none" d="M1300.15 160.5493 L1284.15 154.5493 L1284.15 166.5493 Z" clip-path="url(#clipPath2)"/>
      <rect x="1210.8806" y="151.4829" clip-path="url(#clipPath2)" fill="white" width="48.584" height="18.1328" stroke="none"/>
      <text x="1212.8806" xml:space="preserve" y="165.0844" clip-path="url(#clipPath2)" font-family="sans-serif" stroke="none">dct:title</text>
      <path fill="none" d="M1140.9032 156.5493 L1140.9032 100.7515 L1285.7389 100.7515" clip-path="url(#clipPath2)"/>
    </g>
    <g stroke-linecap="butt" transform="matrix(1,0,0,1,-431,33)" fill-opacity="0" fill="rgb(0,0,0)" text-rendering="geometricPrecision" shape-rendering="geometricPrecision" stroke="rgb(0,0,0)" stroke-opacity="0" stroke-miterlimit="1.45">
      <path d="M1140.9032 164.5493 C1138.6941 164.5493 1136.9032 162.7584 1136.9032 160.5493 C1136.9032 158.3401 1138.6941 156.5493 1140.9032 156.5493 C1143.1123 156.5493 1144.9032 158.3401 1144.9032 160.5493 C1144.9032 162.7584 1143.1123 164.5493 1140.9032 164.5493 Z" stroke="none" clip-path="url(#clipPath2)"/>
    </g>
    <g stroke-linecap="butt" transform="matrix(1,0,0,1,-431,33)" fill="green" text-rendering="geometricPrecision" shape-rendering="geometricPrecision" stroke="green" stroke-miterlimit="1.45">
      <path fill="none" d="M1140.9032 164.5493 C1138.6941 164.5493 1136.9032 162.7584 1136.9032 160.5493 C1136.9032 158.3401 1138.6941 156.5493 1140.9032 156.5493 C1143.1123 156.5493 1144.9032 158.3401 1144.9032 160.5493 C1144.9032 162.7584 1143.1123 164.5493 1140.9032 164.5493 Z" clip-path="url(#clipPath2)"/>
      <path fill="white" d="M1300.7389 100.7515 L1284.7389 94.7515 L1284.7389 106.7515 Z" clip-path="url(#clipPath2)" stroke="none"/>
      <path fill="none" d="M1300.7389 100.7515 L1284.7389 94.7515 L1284.7389 106.7515 Z" clip-path="url(#clipPath2)"/>
      <rect x="1171.0201" y="91.6851" clip-path="url(#clipPath2)" fill="white" width="91.6738" height="18.1328" stroke="none"/>
      <text x="1173.02" xml:space="preserve" y="105.2867" clip-path="url(#clipPath2)" font-family="sans-serif" stroke="none">foaf:homepage</text>
      <path fill="none" d="M1144.9032 160.5493 L1175.6455 160.5493 L1175.6455 225.3722 L1285.7094 225.3722" clip-path="url(#clipPath2)"/>
    </g>
    <g stroke-linecap="butt" transform="matrix(1,0,0,1,-431,33)" fill-opacity="0" fill="rgb(0,0,0)" text-rendering="geometricPrecision" shape-rendering="geometricPrecision" stroke="rgb(0,0,0)" stroke-opacity="0" stroke-miterlimit="1.45">
      <path d="M1136.9032 160.5493 C1136.9032 158.3401 1138.6941 156.5493 1140.9032 156.5493 C1143.1123 156.5493 1144.9032 158.3401 1144.9032 160.5493 C1144.9032 162.7584 1143.1123 164.5493 1140.9032 164.5493 C1138.6941 164.5493 1136.9032 162.7584 1136.9032 160.5493 Z" stroke="none" clip-path="url(#clipPath2)"/>
    </g>
    <g stroke-linecap="butt" transform="matrix(1,0,0,1,-431,33)" fill="green" text-rendering="geometricPrecision" shape-rendering="geometricPrecision" stroke="green" stroke-miterlimit="1.45">
      <path fill="none" d="M1136.9032 160.5493 C1136.9032 158.3401 1138.6941 156.5493 1140.9032 156.5493 C1143.1123 156.5493 1144.9032 158.3401 1144.9032 160.5493 C1144.9032 162.7584 1143.1123 164.5493 1140.9032 164.5493 C1138.6941 164.5493 1136.9032 162.7584 1136.9032 160.5493 Z" clip-path="url(#clipPath2)"/>
      <path fill="white" d="M1300.7094 225.3722 L1284.7094 219.3722 L1284.7094 231.3722 Z" clip-path="url(#clipPath2)" stroke="none"/>
      <path fill="none" d="M1300.7094 225.3722 L1284.7094 219.3722 L1284.7094 231.3722 Z" clip-path="url(#clipPath2)"/>
      <rect x="1184.2573" y="216.3058" clip-path="url(#clipPath2)" fill="white" width="91.1934" height="18.1328" stroke="none"/>
      <text x="1186.2573" xml:space="preserve" y="229.9074" clip-path="url(#clipPath2)" font-family="sans-serif" stroke="none">dct:description</text>
      <path fill="none" d="M1128.046 174.143 L1128.046 219.1704 L775.7782 219.1704 L775.7782 162.5493" clip-path="url(#clipPath2)" stroke="navy"/>
      <path fill="navy" d="M1128.046 166.143 C1130.2551 166.143 1132.046 167.9339 1132.046 170.143 C1132.046 172.3522 1130.2551 174.143 1128.046 174.143 C1125.8369 174.143 1124.046 172.3522 1124.046 170.143 C1124.046 167.9339 1125.8369 166.143 1128.046 166.143 Z" clip-path="url(#clipPath2)" stroke="none"/>
      <path fill="navy" d="M775.7782 151.5493 L769.7782 163.5493 L781.7782 163.5493 Z" clip-path="url(#clipPath2)" stroke="none"/>
      <rect x="735.4608" y="179.7934" clip-path="url(#clipPath2)" fill="white" width="80.6348" height="32.2656" stroke="none"/>
      <text x="737.4608" y="193.395" clip-path="url(#clipPath2)" fill="navy" font-family="sans-serif" stroke="none" xml:space="preserve">dct:publisher</text>
      <text x="744.2167" y="207.5278" clip-path="url(#clipPath2)" fill="navy" font-family="sans-serif" stroke="none" xml:space="preserve">dct:creator</text>
      <path fill="none" d="M1130.9032 174.5493 L1130.9032 235.1704 L681.3468 235.1704 L681.3468 162.5493" clip-path="url(#clipPath2)" stroke="navy"/>
      <path fill="navy" d="M1130.9032 166.5493 C1133.1123 166.5493 1134.9032 168.3401 1134.9032 170.5493 C1134.9032 172.7584 1133.1123 174.5493 1130.9032 174.5493 C1128.6941 174.5493 1126.9032 172.7584 1126.9032 170.5493 C1126.9032 168.3401 1128.6941 166.5493 1130.9032 166.5493 Z" clip-path="url(#clipPath2)" stroke="none"/>
      <path fill="navy" d="M681.3468 151.5493 L675.3468 163.5493 L687.3468 163.5493 Z" clip-path="url(#clipPath2)" stroke="none"/>
      <rect x="643.7482" y="191.3266" clip-path="url(#clipPath2)" fill="white" width="75.1973" height="18.1328" stroke="none"/>
      <text x="645.7482" y="204.9282" clip-path="url(#clipPath2)" fill="navy" font-family="sans-serif" stroke="none" xml:space="preserve">dcat:dataset</text>
      <path fill="none" d="M681.3468 112.4587 L681.3468 123.5493" clip-path="url(#clipPath2)" stroke="black"/>
      <path fill="black" d="M681.3468 131.5493 L686.3468 119.5493 L681.3468 122.5493 L676.3468 119.5493 Z" clip-path="url(#clipPath2)" stroke="none"/>
      <path fill="none" d="M775.7782 112.4609 L775.7782 123.5493" clip-path="url(#clipPath2)" stroke="black"/>
      <path fill="black" d="M775.7782 131.5493 L780.7782 119.5493 L775.7782 122.5493 L770.7782 119.5493 Z" clip-path="url(#clipPath2)" stroke="none"/>
      <path fill="none" d="M1130.9032 146.5493 L1130.9032 15.8636" clip-path="url(#clipPath2)" stroke="navy"/>
      <path fill="navy" d="M1130.9032 154.5493 C1128.6941 154.5493 1126.9032 152.7584 1126.9032 150.5493 C1126.9032 148.3401 1128.6941 146.5493 1130.9032 146.5493 C1133.1123 146.5493 1134.9032 148.3401 1134.9032 150.5493 C1134.9032 152.7584 1133.1123 154.5493 1130.9032 154.5493 Z" clip-path="url(#clipPath2)" stroke="none"/>
      <path fill="navy" d="M1130.9032 4.8636 L1124.9032 16.8636 L1136.9032 16.8636 Z" clip-path="url(#clipPath2)" stroke="none"/>
      <rect x="1065.7245" y="27.5042" clip-path="url(#clipPath2)" fill="white" width="130.3574" height="18.1328" stroke="none"/>
      <text x="1067.7245" y="41.1058" clip-path="url(#clipPath2)" fill="navy" font-family="sans-serif" stroke="none" xml:space="preserve">dcat:themeTaxonomy</text>
      <path fill="none" d="M1133.7604 174.143 L1133.7604 251.1704 L558.7024 251.1704 L558.7024 162.5493" clip-path="url(#clipPath2)" stroke="navy"/>
      <path fill="navy" d="M1133.7604 166.143 C1135.9695 166.143 1137.7604 167.9339 1137.7604 170.143 C1137.7604 172.3522 1135.9695 174.143 1133.7604 174.143 C1131.5513 174.143 1129.7604 172.3522 1129.7604 170.143 C1129.7604 167.9339 1131.5513 166.143 1133.7604 166.143 Z" clip-path="url(#clipPath2)" stroke="none"/>
      <path fill="navy" d="M558.7024 151.5493 L552.7024 163.5493 L564.7024 163.5493 Z" clip-path="url(#clipPath2)" stroke="none"/>
      <rect x="522.2844" y="195.2404" clip-path="url(#clipPath2)" fill="white" width="72.8359" height="18.1328" stroke="none"/>
      <text x="524.2844" y="208.842" clip-path="url(#clipPath2)" fill="navy" font-family="sans-serif" stroke="none" xml:space="preserve">dcat:service</text>
      <path fill="none" d="M1144.0615 164.625 L1163.235 164.625 L1163.235 268.6272 L1288.0316 268.6272" clip-path="url(#clipPath2)" stroke="navy"/>
      <path fill="navy" d="M1136.0615 164.625 C1136.0615 162.4158 1137.8524 160.625 1140.0615 160.625 C1142.2706 160.625 1144.0615 162.4158 1144.0615 164.625 C1144.0615 166.8341 1142.2706 168.625 1140.0615 168.625 C1137.8524 168.625 1136.0615 166.8341 1136.0615 164.625 Z" clip-path="url(#clipPath2)" stroke="none"/>
      <path fill="navy" d="M1299.0316 268.6272 L1287.0316 262.6272 L1287.0316 274.6272 Z" clip-path="url(#clipPath2)" stroke="none"/>
      <rect x="1188.9395" y="259.5607" clip-path="url(#clipPath2)" fill="white" width="79.252" height="18.1328" stroke="none"/>
      <text x="1190.9396" y="273.1623" clip-path="url(#clipPath2)" fill="navy" font-family="sans-serif" stroke="none" xml:space="preserve">dct:language</text>
      <path fill="none" d="M1140.9032 156.5493 L1140.9032 66.7884 L1286.8955 67.1204" clip-path="url(#clipPath2)"/>
    </g>
    <g stroke-linecap="butt" transform="matrix(1,0,0,1,-431,33)" fill-opacity="0" fill="rgb(0,0,0)" text-rendering="geometricPrecision" shape-rendering="geometricPrecision" stroke="rgb(0,0,0)" stroke-opacity="0" stroke-miterlimit="1.45">
      <path d="M1140.9032 164.5493 C1138.6941 164.5493 1136.9032 162.7584 1136.9032 160.5493 C1136.9032 158.3401 1138.6941 156.5493 1140.9032 156.5493 C1143.1123 156.5493 1144.9032 158.3401 1144.9032 160.5493 C1144.9032 162.7584 1143.1123 164.5493 1140.9032 164.5493 Z" stroke="none" clip-path="url(#clipPath2)"/>
    </g>
    <g stroke-linecap="butt" transform="matrix(1,0,0,1,-431,33)" fill="green" text-rendering="geometricPrecision" shape-rendering="geometricPrecision" stroke="green" stroke-miterlimit="1.45">
      <path fill="none" d="M1140.9032 164.5493 C1138.6941 164.5493 1136.9032 162.7584 1136.9032 160.5493 C1136.9032 158.3401 1138.6941 156.5493 1140.9032 156.5493 C1143.1123 156.5493 1144.9032 158.3401 1144.9032 160.5493 C1144.9032 162.7584 1143.1123 164.5493 1140.9032 164.5493 Z" clip-path="url(#clipPath2)"/>
      <path fill="white" d="M1301.8955 67.1545 L1285.9092 61.1181 L1285.882 73.1181 Z" clip-path="url(#clipPath2)" stroke="none"/>
      <path fill="none" d="M1301.8955 67.1545 L1285.9092 61.1181 L1285.882 73.1181 Z" clip-path="url(#clipPath2)"/>
      <rect x="1187.4653" y="57.8999" clip-path="url(#clipPath2)" fill="white" width="63.373" height="18.1328" stroke="none"/>
      <text x="1189.4653" xml:space="preserve" y="71.5015" clip-path="url(#clipPath2)" font-family="sans-serif" stroke="none">dct:issued</text>
      <path fill="none" d="M1122.3318 169.7055 L1122.3318 187.1704 L933.0968 187.1704 L933.0968 162.5493" clip-path="url(#clipPath2)" stroke="navy"/>
      <path fill="navy" d="M1122.3318 161.7055 C1124.5409 161.7055 1126.3318 163.4964 1126.3318 165.7055 C1126.3318 167.9147 1124.5409 169.7055 1122.3318 169.7055 C1120.1227 169.7055 1118.3318 167.9147 1118.3318 165.7055 C1118.3318 163.4964 1120.1227 161.7055 1122.3318 161.7055 Z" clip-path="url(#clipPath2)" stroke="none"/>
      <path fill="navy" d="M933.0968 151.5493 L927.0968 163.5493 L939.0968 163.5493 Z" clip-path="url(#clipPath2)" stroke="none"/>
      <rect x="900.9298" y="167.3266" clip-path="url(#clipPath2)" fill="white" width="64.334" height="18.1328" stroke="none"/>
      <text x="902.9298" y="180.9282" clip-path="url(#clipPath2)" fill="navy" font-family="sans-serif" stroke="none" xml:space="preserve">dct:spatial</text>
      <path fill="none" d="M1125.1888 172.768 L1125.1888 203.1704 L848.9155 203.1704 L848.9155 162.5493" clip-path="url(#clipPath2)" stroke="navy"/>
      <path fill="navy" d="M1125.1888 164.768 C1127.3979 164.768 1129.1888 166.5589 1129.1888 168.768 C1129.1888 170.9772 1127.3979 172.768 1125.1888 172.768 C1122.9797 172.768 1121.1888 170.9772 1121.1888 168.768 C1121.1888 166.5589 1122.9797 164.768 1125.1888 164.768 Z" clip-path="url(#clipPath2)" stroke="none"/>
      <path fill="navy" d="M848.9155 151.5493 L842.9155 163.5493 L854.9155 163.5493 Z" clip-path="url(#clipPath2)" stroke="none"/>
      <rect x="815.354" y="175.3266" clip-path="url(#clipPath2)" fill="white" width="67.123" height="18.1328" stroke="none"/>
      <text x="817.3539" y="188.9282" clip-path="url(#clipPath2)" fill="navy" font-family="sans-serif" stroke="none" xml:space="preserve">dct:creator</text>
      <path fill="none" d="M848.9155 112.4826 L848.9155 123.5493" clip-path="url(#clipPath2)" stroke="black"/>
      <path fill="black" d="M848.9155 131.5493 L853.9155 119.5493 L848.9155 122.5493 L843.9155 119.5493 Z" clip-path="url(#clipPath2)" stroke="none"/>
      <path fill="none" d="M558.7024 112.4587 L558.7024 123.5493" clip-path="url(#clipPath2)" stroke="black"/>
      <path fill="black" d="M558.7024 131.5493 L563.7024 119.5493 L558.7024 122.5493 L553.7024 119.5493 Z" clip-path="url(#clipPath2)" stroke="none"/>
      <path fill="none" d="M933.0968 112.4587 L933.0968 123.5493" clip-path="url(#clipPath2)" stroke="black"/>
      <path fill="black" d="M933.0968 131.5493 L938.0968 119.5493 L933.0968 122.5493 L928.0968 119.5493 Z" clip-path="url(#clipPath2)" stroke="none"/>
      <path fill="none" d="M1144.043 164.625 L1163.235 164.625 L1163.235 184.7826 L1163.235 311.0772 L1286.9072 311.0772" clip-path="url(#clipPath2)" stroke="navy"/>
      <path fill="navy" d="M1136.043 164.625 C1136.043 162.4158 1137.8339 160.625 1140.043 160.625 C1142.2521 160.625 1144.043 162.4158 1144.043 164.625 C1144.043 166.8341 1142.2521 168.625 1140.043 168.625 C1137.8339 168.625 1136.043 166.8341 1136.043 164.625 Z" clip-path="url(#clipPath2)" stroke="none"/>
      <path fill="navy" d="M1297.9072 311.0772 L1285.9072 305.0772 L1285.9072 317.0772 Z" clip-path="url(#clipPath2)" stroke="none"/>
      <rect x="1196.7959" y="302.0108" clip-path="url(#clipPath2)" fill="white" width="69.1211" height="18.1328" stroke="none"/>
      <text x="1198.7959" y="315.6124" clip-path="url(#clipPath2)" fill="navy" font-family="sans-serif" stroke="none" xml:space="preserve">dcat:theme</text>
    </g>
  </g>
</svg>
