<?xml version="1.0" encoding="UTF-8"?><svg xmlns="http://www.w3.org/2000/svg" xmlns:xlink="http://www.w3.org/1999/xlink" fill-opacity="1" color-rendering="auto" color-interpolation="auto" text-rendering="auto" stroke="black" stroke-linecap="square" width="1367" stroke-miterlimit="10" shape-rendering="auto" stroke-opacity="1" fill="black" stroke-dasharray="none" font-weight="normal" stroke-width="1" height="372" font-family="'Dialog'" font-style="normal" stroke-linejoin="miter" font-size="12px" stroke-dashoffset="0" image-rendering="auto">
  <!--Generated by ySVG 2.6-->
  <defs id="genericDefs"/>
  <g>
    <defs id="defs1">
      <clipPath clipPathUnits="userSpaceOnUse" id="clipPath1">
        <path d="M0 0 L1367 0 L1367 372 L0 372 L0 0 Z"/>
      </clipPath>
      <clipPath clipPathUnits="userSpaceOnUse" id="clipPath2">
        <path d="M416 -44 L1783 -44 L1783 328 L416 328 L416 -44 Z"/>
      </clipPath>
    </defs>
    <g fill="white" text-rendering="geometricPrecision" shape-rendering="geometricPrecision" transform="translate(-416,44)" stroke="white">
      <rect x="416" width="1367" height="372" y="-44" clip-path="url(#clipPath2)" stroke="none"/>
    </g>
    <g fill="rgb(255,153,204)" text-rendering="geometricPrecision" shape-rendering="geometricPrecision" transform="matrix(1,0,0,1,-416,44)" stroke="rgb(255,153,204)">
      <circle r="10" clip-path="url(#clipPath2)" cx="1147.1588" cy="150.6607" stroke="none"/>
    </g>
    <g text-rendering="geometricPrecision" stroke-miterlimit="1.45" shape-rendering="geometricPrecision" font-family="sans-serif" transform="matrix(1,0,0,1,-416,44)" stroke-linecap="butt">
      <text x="1047.8678" xml:space="preserve" y="136.1295" clip-path="url(#clipPath2)" stroke="none">:alcide_corpus</text>
      <circle fill="none" stroke-width="3" r="10" clip-path="url(#clipPath2)" cx="1147.1588" cy="150.6607"/>
    </g>
    <g fill="yellow" text-rendering="geometricPrecision" shape-rendering="geometricPrecision" transform="matrix(1,0,0,1,-416,44)" stroke="yellow">
      <rect x="880.6393" y="90.7539" clip-path="url(#clipPath2)" width="101" rx="4" ry="4" height="32.5279" stroke="none"/>
    </g>
    <g text-rendering="geometricPrecision" stroke-miterlimit="1.45" shape-rendering="geometricPrecision" font-family="sans-serif" transform="matrix(1,0,0,1,-416,44)" stroke-linecap="butt">
      <text x="894.8229" xml:space="preserve" y="111.553" clip-path="url(#clipPath2)" stroke="none">dcat:Dataset</text>
      <rect x="880.6393" y="90.7539" clip-path="url(#clipPath2)" fill="none" width="101" rx="4" ry="4" height="32.5279"/>
      <text x="1324.4589" xml:space="preserve" y="148.2607" clip-path="url(#clipPath2)" stroke="none">"A collection of Alcide De Gasperi's </text>
      <text x="1324.4589" xml:space="preserve" y="162.3935" clip-path="url(#clipPath2)" stroke="none">public documents..."@en</text>
      <text x="795.8992" xml:space="preserve" y="157.2506" clip-path="url(#clipPath2)" stroke="none">"De Gasperi's Corpus"@en</text>
      <text x="433.3553" xml:space="preserve" y="297.9113" clip-path="url(#clipPath2)" stroke="none">&lt;http://purl.org/knot/taxonomy#corpus&gt;</text>
      <text x="613.845" xml:space="preserve" y="34.7227" clip-path="url(#clipPath2)" stroke="none">Controlled Vocabulary Concepts URIs</text>
    </g>
    <g fill="rgb(255,153,204)" text-rendering="geometricPrecision" shape-rendering="geometricPrecision" transform="matrix(1,0,0,1,-416,44)" stroke="rgb(255,153,204)">
      <circle r="10" clip-path="url(#clipPath2)" cx="1531.6396" cy="182.4247" stroke="none"/>
    </g>
    <g text-rendering="geometricPrecision" stroke-miterlimit="1.45" shape-rendering="geometricPrecision" font-family="sans-serif" transform="matrix(1,0,0,1,-416,44)" stroke-linecap="butt">
      <text x="1473.0781" xml:space="preserve" y="210.0263" clip-path="url(#clipPath2)" stroke="none">:corpus_distribution</text>
      <circle fill="none" stroke-width="3" r="10" clip-path="url(#clipPath2)" cx="1531.6396" cy="182.4247"/>
    </g>
    <g fill="yellow" text-rendering="geometricPrecision" shape-rendering="geometricPrecision" transform="matrix(1,0,0,1,-416,44)" stroke="yellow">
      <rect x="1579.5172" y="166.1607" clip-path="url(#clipPath2)" width="112.4083" rx="4" ry="4" height="32.5279" stroke="none"/>
    </g>
    <g text-rendering="geometricPrecision" stroke-miterlimit="1.45" shape-rendering="geometricPrecision" font-family="sans-serif" transform="matrix(1,0,0,1,-416,44)" stroke-linecap="butt">
      <text x="1586.8074" xml:space="preserve" y="186.9599" clip-path="url(#clipPath2)" stroke="none">dcat:Distribution</text>
      <rect x="1579.5172" y="166.1607" clip-path="url(#clipPath2)" fill="none" width="112.4083" rx="4" ry="4" height="32.5279"/>
    </g>
    <g fill="rgb(255,153,204)" text-rendering="geometricPrecision" shape-rendering="geometricPrecision" transform="matrix(1,0,0,1,-416,44)" stroke="rgb(255,153,204)">
      <circle r="10" clip-path="url(#clipPath2)" cx="1291.9088" cy="273.1887" stroke="none"/>
    </g>
    <g text-rendering="geometricPrecision" stroke-miterlimit="1.45" shape-rendering="geometricPrecision" font-family="sans-serif" transform="matrix(1,0,0,1,-416,44)" stroke-linecap="butt">
      <text x="1232.1334" xml:space="preserve" y="258.6574" clip-path="url(#clipPath2)" stroke="none">:dh_fbk</text>
      <circle fill="none" stroke-width="3" r="10" clip-path="url(#clipPath2)" cx="1291.9088" cy="273.1887"/>
    </g>
    <g fill="rgb(255,153,204)" text-rendering="geometricPrecision" shape-rendering="geometricPrecision" transform="matrix(1,0,0,1,-416,44)" stroke="rgb(255,153,204)">
      <circle r="10" clip-path="url(#clipPath2)" cx="1635.7214" cy="28.1328" stroke="none"/>
    </g>
    <g text-rendering="geometricPrecision" stroke-miterlimit="1.45" shape-rendering="geometricPrecision" font-family="sans-serif" transform="matrix(1,0,0,1,-416,44)" stroke-linecap="butt">
      <text x="1669.3494" xml:space="preserve" y="-14.6641" clip-path="url(#clipPath2)" stroke="none">:sara_tonelli, </text>
      <text x="1651.7214" xml:space="preserve" y="-0.5312" clip-path="url(#clipPath2)" stroke="none"> :giovanni_moretti, </text>
      <text x="1654.8679" xml:space="preserve" y="13.6016" clip-path="url(#clipPath2)" stroke="none">:rachele_sprugnoli</text>
      <circle fill="none" stroke-width="3" r="10" clip-path="url(#clipPath2)" cx="1635.7214" cy="28.1328"/>
    </g>
    <g fill="rgb(255,153,204)" text-rendering="geometricPrecision" shape-rendering="geometricPrecision" transform="matrix(1,0,0,1,-416,44)" stroke="rgb(255,153,204)">
      <circle r="10" clip-path="url(#clipPath2)" cx="1441.8544" cy="273.1887" stroke="none"/>
    </g>
    <g text-rendering="geometricPrecision" stroke-miterlimit="1.45" shape-rendering="geometricPrecision" font-family="sans-serif" transform="matrix(1,0,0,1,-416,44)" stroke-linecap="butt">
      <text x="1393.9091" xml:space="preserve" y="258.6574" clip-path="url(#clipPath2)" stroke="none">:italia</text>
      <circle fill="none" stroke-width="3" r="10" clip-path="url(#clipPath2)" cx="1441.8544" cy="273.1887"/>
      <text x="1354.7273" xml:space="preserve" y="30.6133" clip-path="url(#clipPath2)" stroke="none">&lt;https://www.wikidata.org/entity/Q6927&gt;</text>
      <text x="1026.9088" xml:space="preserve" y="304.0078" clip-path="url(#clipPath2)" stroke="none">&lt;github.com/StefanoMenini/De-Gasperi-s-Corpus&gt;</text>
    </g>
    <g fill="rgb(255,153,204)" text-rendering="geometricPrecision" shape-rendering="geometricPrecision" transform="matrix(1,0,0,1,-416,44)" stroke="rgb(255,153,204)">
      <circle r="10" clip-path="url(#clipPath2)" cx="652.2298" cy="177.2818" stroke="none"/>
    </g>
    <g text-rendering="geometricPrecision" stroke-miterlimit="1.45" shape-rendering="geometricPrecision" font-family="sans-serif" transform="matrix(1,0,0,1,-416,44)" stroke-linecap="butt">
      <text x="598.4837" xml:space="preserve" y="162.7506" clip-path="url(#clipPath2)" stroke="none">:alcide</text>
      <circle fill="none" stroke-width="3" r="10" clip-path="url(#clipPath2)" cx="652.2298" cy="177.2818"/>
    </g>
    <g fill="yellow" text-rendering="geometricPrecision" shape-rendering="geometricPrecision" transform="matrix(1,0,0,1,-416,44)" stroke="yellow">
      <rect x="601.7298" y="97.7182" clip-path="url(#clipPath2)" width="101" rx="4" ry="4" height="32.5279" stroke="none"/>
    </g>
    <g text-rendering="geometricPrecision" stroke-miterlimit="1.45" shape-rendering="geometricPrecision" font-family="sans-serif" transform="matrix(1,0,0,1,-416,44)" stroke-linecap="butt">
      <text x="615.8987" xml:space="preserve" y="118.5173" clip-path="url(#clipPath2)" stroke="none">prov:Activity</text>
      <rect x="601.7298" y="97.7182" clip-path="url(#clipPath2)" fill="none" width="101" rx="4" ry="4" height="32.5279"/>
      <text x="1285.4843" xml:space="preserve" y="34.7227" clip-path="url(#clipPath2)" stroke="none">PUBLIC</text>
      <text x="766.4006" xml:space="preserve" y="275.6691" clip-path="url(#clipPath2)" stroke="none">&lt;https://api.semanticscholar.org/CorpusID:204921128&gt;</text>
      <text x="1137.4967" xml:space="preserve" y="6.384" clip-path="url(#clipPath2)" stroke="none">ITA</text>
      <text x="614.5853" xml:space="preserve" y="275.6691" clip-path="url(#clipPath2)" stroke="none">2019/07/16^^xsd:date</text>
      <text x="850.4557" xml:space="preserve" y="34.7227" clip-path="url(#clipPath2)" stroke="none">&lt;http://data.europa.eu/r5r/&gt;</text>
      <text x="1336.8406" xml:space="preserve" y="121.6055" clip-path="url(#clipPath2)" stroke="none">CC BY-NC-SA</text>
      <path fill="none" d="M981.6632 107.0179 L1138.5874 107.0179 L1138.5874 137.5045" clip-path="url(#clipPath2)"/>
      <path d="M1138.5874 145.5045 L1143.5874 133.5045 L1138.5874 136.5045 L1133.5874 133.5045 Z" clip-path="url(#clipPath2)" stroke="none"/>
      <path fill="none" d="M1161.1588 150.6607 L1305.7418 150.6607" clip-path="url(#clipPath2)" stroke="green"/>
    </g>
    <g stroke-linecap="butt" transform="matrix(1,0,0,1,-416,44)" fill-opacity="0" fill="rgb(0,0,0)" text-rendering="geometricPrecision" shape-rendering="geometricPrecision" stroke="rgb(0,0,0)" stroke-opacity="0" stroke-miterlimit="1.45">
      <path d="M1153.1588 150.6607 C1153.1588 148.4516 1154.9497 146.6607 1157.1588 146.6607 C1159.3679 146.6607 1161.1588 148.4516 1161.1588 150.6607 C1161.1588 152.8699 1159.3679 154.6607 1157.1588 154.6607 C1154.9497 154.6607 1153.1588 152.8699 1153.1588 150.6607 Z" stroke="none" clip-path="url(#clipPath2)"/>
    </g>
    <g stroke-linecap="butt" transform="matrix(1,0,0,1,-416,44)" fill="green" text-rendering="geometricPrecision" shape-rendering="geometricPrecision" stroke="green" stroke-miterlimit="1.45">
      <path fill="none" d="M1153.1588 150.6607 C1153.1588 148.4516 1154.9497 146.6607 1157.1588 146.6607 C1159.3679 146.6607 1161.1588 148.4516 1161.1588 150.6607 C1161.1588 152.8699 1159.3679 154.6607 1157.1588 154.6607 C1154.9497 154.6607 1153.1588 152.8699 1153.1588 150.6607 Z" clip-path="url(#clipPath2)"/>
      <path fill="white" d="M1320.7418 150.6607 L1304.7418 144.6607 L1304.7418 156.6607 Z" clip-path="url(#clipPath2)" stroke="none"/>
      <path fill="none" d="M1320.7418 150.6607 L1304.7418 144.6607 L1304.7418 156.6607 Z" clip-path="url(#clipPath2)"/>
      <rect x="1200.403" y="141.5943" clip-path="url(#clipPath2)" fill="white" width="91.1934" height="18.1328" stroke="none"/>
      <text x="1202.4031" xml:space="preserve" y="155.1959" clip-path="url(#clipPath2)" font-family="sans-serif" stroke="none">dct:description</text>
      <path fill="none" d="M1133.1588 150.6607 L968.9582 150.6607" clip-path="url(#clipPath2)"/>
    </g>
    <g stroke-linecap="butt" transform="matrix(1,0,0,1,-416,44)" fill-opacity="0" fill="rgb(0,0,0)" text-rendering="geometricPrecision" shape-rendering="geometricPrecision" stroke="rgb(0,0,0)" stroke-opacity="0" stroke-miterlimit="1.45">
      <path d="M1141.1588 150.6607 C1141.1588 152.8699 1139.3679 154.6607 1137.1588 154.6607 C1134.9497 154.6607 1133.1588 152.8699 1133.1588 150.6607 C1133.1588 148.4516 1134.9497 146.6607 1137.1588 146.6607 C1139.3679 146.6607 1141.1588 148.4516 1141.1588 150.6607 Z" stroke="none" clip-path="url(#clipPath2)"/>
    </g>
    <g stroke-linecap="butt" transform="matrix(1,0,0,1,-416,44)" fill="green" text-rendering="geometricPrecision" shape-rendering="geometricPrecision" stroke="green" stroke-miterlimit="1.45">
      <path fill="none" d="M1141.1588 150.6607 C1141.1588 152.8699 1139.3679 154.6607 1137.1588 154.6607 C1134.9497 154.6607 1133.1588 152.8699 1133.1588 150.6607 C1133.1588 148.4516 1134.9497 146.6607 1137.1588 146.6607 C1139.3679 146.6607 1141.1588 148.4516 1141.1588 150.6607 Z" clip-path="url(#clipPath2)"/>
      <path fill="white" d="M953.9582 150.6607 L969.9582 156.6607 L969.9582 144.6607 Z" clip-path="url(#clipPath2)" stroke="none"/>
      <path fill="none" d="M953.9582 150.6607 L969.9582 156.6607 L969.9582 144.6607 Z" clip-path="url(#clipPath2)"/>
      <rect x="1016.704" y="141.5943" clip-path="url(#clipPath2)" fill="white" width="48.584" height="18.1328" stroke="none"/>
      <text x="1018.704" xml:space="preserve" y="155.1959" clip-path="url(#clipPath2)" font-family="sans-serif" stroke="none">dct:title</text>
      <path fill="none" d="M1140.9088 162.476 L1140.9088 193.2818 L554.8553 193.2818 L554.8553 273.2653" clip-path="url(#clipPath2)" stroke="navy"/>
      <path fill="navy" d="M1140.9088 154.476 C1143.1179 154.476 1144.9088 156.2669 1144.9088 158.476 C1144.9088 160.6852 1143.1179 162.476 1140.9088 162.476 C1138.6997 162.476 1136.9088 160.6852 1136.9088 158.476 C1136.9088 156.2669 1138.6997 154.476 1140.9088 154.476 Z" clip-path="url(#clipPath2)" stroke="none"/>
      <path fill="navy" d="M554.8553 284.2653 L560.8553 272.2653 L548.8553 272.2653 Z" clip-path="url(#clipPath2)" stroke="none"/>
      <rect x="822.3918" y="184.2154" clip-path="url(#clipPath2)" fill="white" width="50.9805" height="18.1328" stroke="none"/>
      <text x="824.3918" y="197.817" clip-path="url(#clipPath2)" fill="navy" font-family="sans-serif" stroke="none" xml:space="preserve">dct:type</text>
      <path fill="none" d="M1141.4445 138.442 L1141.4445 70.7539 L722.0002 70.7539 L722.0002 50.2539" clip-path="url(#clipPath2)" stroke="navy"/>
      <path fill="navy" d="M1141.4445 146.442 C1139.2354 146.442 1137.4445 144.6511 1137.4445 142.442 C1137.4445 140.2328 1139.2354 138.442 1141.4445 138.442 C1143.6536 138.442 1145.4445 140.2328 1145.4445 142.442 C1145.4445 144.6511 1143.6536 146.442 1141.4445 146.442 Z" clip-path="url(#clipPath2)" stroke="none"/>
      <path fill="navy" d="M722.0002 39.2539 L716.0002 51.2539 L728.0002 51.2539 Z" clip-path="url(#clipPath2)" stroke="none"/>
      <rect x="897.1618" y="61.6875" clip-path="url(#clipPath2)" fill="white" width="69.1211" height="18.1328" stroke="none"/>
      <text x="899.1619" y="75.2891" clip-path="url(#clipPath2)" fill="navy" font-family="sans-serif" stroke="none" xml:space="preserve">dcat:theme</text>
      <path fill="none" d="M1155.9088 159.5045 L1155.9088 182.4247 L1510.6396 182.4247" clip-path="url(#clipPath2)" stroke="navy"/>
      <path fill="navy" d="M1155.9088 151.5045 C1158.1179 151.5045 1159.9088 153.2953 1159.9088 155.5045 C1159.9088 157.7136 1158.1179 159.5045 1155.9088 159.5045 C1153.6997 159.5045 1151.9088 157.7136 1151.9088 155.5045 C1151.9088 153.2953 1153.6997 151.5045 1155.9088 151.5045 Z" clip-path="url(#clipPath2)" stroke="none"/>
      <path fill="navy" d="M1521.6396 182.4247 L1509.6396 176.4247 L1509.6396 188.4247 Z" clip-path="url(#clipPath2)" stroke="none"/>
      <rect x="1260.9798" y="173.3583" clip-path="url(#clipPath2)" fill="white" width="100.3926" height="18.1328" stroke="none"/>
      <text x="1262.9797" y="186.9599" clip-path="url(#clipPath2)" fill="navy" font-family="sans-serif" stroke="none" xml:space="preserve">dcat:distribution</text>
      <path fill="none" d="M1541.6396 182.4247 L1571.506 182.4247" clip-path="url(#clipPath2)" stroke="black"/>
      <path fill="black" d="M1579.506 182.4247 L1567.506 177.4247 L1570.506 182.4247 L1567.506 187.4247 Z" clip-path="url(#clipPath2)" stroke="none"/>
      <path fill="none" d="M1150.9088 163.942 L1150.9088 214.4247 L1291.9088 214.4247 L1291.9088 252.1887" clip-path="url(#clipPath2)" stroke="navy"/>
      <path fill="navy" d="M1150.9088 155.942 C1153.1179 155.942 1154.9088 157.7328 1154.9088 159.942 C1154.9088 162.1511 1153.1179 163.942 1150.9088 163.942 C1148.6997 163.942 1146.9088 162.1511 1146.9088 159.942 C1146.9088 157.7328 1148.6997 155.942 1150.9088 155.942 Z" clip-path="url(#clipPath2)" stroke="none"/>
      <path fill="navy" d="M1291.9088 263.1887 L1297.9088 251.1887 L1285.9088 251.1887 Z" clip-path="url(#clipPath2)" stroke="none"/>
      <rect x="1181.0914" y="205.3583" clip-path="url(#clipPath2)" fill="white" width="80.6348" height="18.1328" stroke="none"/>
      <text x="1183.0914" y="218.9599" clip-path="url(#clipPath2)" fill="navy" font-family="sans-serif" stroke="none" xml:space="preserve">dct:publisher</text>
      <path fill="none" d="M1155.7302 141.5045 L1155.7302 86.7539 L1635.7214 86.7539 L1635.7214 49.1328" clip-path="url(#clipPath2)" stroke="navy"/>
      <path fill="navy" d="M1155.7302 149.5045 C1153.5211 149.5045 1151.7302 147.7136 1151.7302 145.5045 C1151.7302 143.2953 1153.5211 141.5045 1155.7302 141.5045 C1157.9393 141.5045 1159.7302 143.2953 1159.7302 145.5045 C1159.7302 147.7136 1157.9393 149.5045 1155.7302 149.5045 Z" clip-path="url(#clipPath2)" stroke="none"/>
      <path fill="navy" d="M1635.7214 38.1328 L1629.7214 50.1328 L1641.7214 50.1328 Z" clip-path="url(#clipPath2)" stroke="none"/>
      <rect x="1362.1643" y="77.6875" clip-path="url(#clipPath2)" fill="white" width="67.123" height="18.1328" stroke="none"/>
      <text x="1364.1643" y="91.2891" clip-path="url(#clipPath2)" fill="navy" font-family="sans-serif" stroke="none" xml:space="preserve">dct:creator</text>
      <path fill="none" d="M1153.4088 162.481 L1153.4088 198.4247 L1441.8544 198.4247 L1441.8544 252.1887" clip-path="url(#clipPath2)" stroke="navy"/>
      <path fill="navy" d="M1153.4088 154.481 C1155.6179 154.481 1157.4088 156.2719 1157.4088 158.481 C1157.4088 160.6902 1155.6179 162.481 1153.4088 162.481 C1151.1997 162.481 1149.4088 160.6902 1149.4088 158.481 C1149.4088 156.2719 1151.1997 154.481 1153.4088 154.481 Z" clip-path="url(#clipPath2)" stroke="none"/>
      <path fill="navy" d="M1441.8544 263.1887 L1447.8544 251.1887 L1435.8544 251.1887 Z" clip-path="url(#clipPath2)" stroke="none"/>
      <rect x="1265.4646" y="189.3583" clip-path="url(#clipPath2)" fill="white" width="64.334" height="18.1328" stroke="none"/>
      <text x="1267.4646" y="202.9599" clip-path="url(#clipPath2)" fill="navy" font-family="sans-serif" stroke="none" xml:space="preserve">dct:spatial</text>
      <path fill="none" d="M1152.873 138.442 L1152.873 70.7539 L1476.2273 70.7539 L1476.2273 50.2539" clip-path="url(#clipPath2)" stroke="navy"/>
      <path fill="navy" d="M1152.873 146.442 C1150.6639 146.442 1148.873 144.6511 1148.873 142.442 C1148.873 140.2328 1150.6639 138.442 1152.873 138.442 C1155.0822 138.442 1156.873 140.2328 1156.873 142.442 C1156.873 144.6511 1155.0822 146.442 1152.873 146.442 Z" clip-path="url(#clipPath2)" stroke="none"/>
      <path fill="navy" d="M1476.2273 39.2539 L1470.2273 51.2539 L1482.2273 51.2539 Z" clip-path="url(#clipPath2)" stroke="none"/>
      <rect x="1275.4047" y="61.6875" clip-path="url(#clipPath2)" fill="white" width="78.291" height="18.1328" stroke="none"/>
      <text x="1277.4047" y="75.2891" clip-path="url(#clipPath2)" fill="navy" font-family="sans-serif" stroke="none" xml:space="preserve">dct:temporal</text>
      <path fill="none" d="M1148.4088 164.6607 L1148.4088 279.3746" clip-path="url(#clipPath2)" stroke="navy"/>
      <path fill="navy" d="M1148.4088 156.6607 C1150.6179 156.6607 1152.4088 158.4516 1152.4088 160.6607 C1152.4088 162.8699 1150.6179 164.6607 1148.4088 164.6607 C1146.1997 164.6607 1144.4088 162.8699 1144.4088 160.6607 C1144.4088 158.4516 1146.1997 156.6607 1148.4088 156.6607 Z" clip-path="url(#clipPath2)" stroke="none"/>
      <path fill="navy" d="M1148.4088 290.3746 L1154.4088 278.3746 L1142.4088 278.3746 Z" clip-path="url(#clipPath2)" stroke="none"/>
      <rect x="1096.6422" y="241.5671" clip-path="url(#clipPath2)" fill="white" width="103.5332" height="18.1328" stroke="none"/>
      <text x="1098.6422" y="255.1687" clip-path="url(#clipPath2)" fill="navy" font-family="sans-serif" stroke="none" xml:space="preserve">dcat:landingPage</text>
      <path fill="none" d="M1138.4088 159.5045 L1138.4088 177.2818 L673.2298 177.2818" clip-path="url(#clipPath2)" stroke="navy"/>
      <path fill="navy" d="M1138.4088 151.5045 C1140.6179 151.5045 1142.4088 153.2953 1142.4088 155.5045 C1142.4088 157.7136 1140.6179 159.5045 1138.4088 159.5045 C1136.1997 159.5045 1134.4088 157.7136 1134.4088 155.5045 C1134.4088 153.2953 1136.1997 151.5045 1138.4088 151.5045 Z" clip-path="url(#clipPath2)" stroke="none"/>
      <path fill="navy" d="M662.2298 177.2818 L674.2298 183.2818 L674.2298 171.2818 Z" clip-path="url(#clipPath2)" stroke="none"/>
      <rect x="870.6299" y="168.2154" clip-path="url(#clipPath2)" fill="white" width="128.7578" height="18.1328" stroke="none"/>
      <text x="872.6299" y="181.817" clip-path="url(#clipPath2)" fill="navy" font-family="sans-serif" stroke="none" xml:space="preserve">prov:wasGeneratedBy</text>
      <path fill="none" d="M652.2298 130.2461 L652.2298 159.2818" clip-path="url(#clipPath2)" stroke="black"/>
      <path fill="black" d="M652.2298 167.2818 L657.2298 155.2818 L652.2298 158.2818 L647.2298 155.2818 Z" clip-path="url(#clipPath2)" stroke="none"/>
      <path fill="none" d="M1150.016 137.067 L1150.016 54.7539 L1305.4882 54.7539 L1305.4882 50.2539" clip-path="url(#clipPath2)" stroke="navy"/>
      <path fill="navy" d="M1150.016 145.067 C1147.8069 145.067 1146.016 143.2761 1146.016 141.067 C1146.016 138.8578 1147.8069 137.067 1150.016 137.067 C1152.2251 137.067 1154.016 138.8578 1154.016 141.067 C1154.016 143.2761 1152.2251 145.067 1150.016 145.067 Z" clip-path="url(#clipPath2)" stroke="none"/>
      <path fill="navy" d="M1305.4882 39.2539 L1299.4882 51.2539 L1311.4882 51.2539 Z" clip-path="url(#clipPath2)" stroke="none"/>
      <rect x="1177.5441" y="45.6875" clip-path="url(#clipPath2)" fill="white" width="100.416" height="18.1328" stroke="none"/>
      <text x="1179.5441" y="59.2891" clip-path="url(#clipPath2)" fill="navy" font-family="sans-serif" stroke="none" xml:space="preserve">dct:accessRights</text>
      <path fill="none" d="M1145.9088 164.6607 L1145.9088 225.2818 L935.26 225.2818 L935.26 251.0317" clip-path="url(#clipPath2)" stroke="navy"/>
      <path fill="navy" d="M1145.9088 156.6607 C1148.1179 156.6607 1149.9088 158.4516 1149.9088 160.6607 C1149.9088 162.8699 1148.1179 164.6607 1145.9088 164.6607 C1143.6997 164.6607 1141.9088 162.8699 1141.9088 160.6607 C1141.9088 158.4516 1143.6997 156.6607 1145.9088 156.6607 Z" clip-path="url(#clipPath2)" stroke="none"/>
      <path fill="navy" d="M935.26 262.0317 L941.26 250.0317 L929.26 250.0317 Z" clip-path="url(#clipPath2)" stroke="none"/>
      <rect x="983.8139" y="216.2154" clip-path="url(#clipPath2)" fill="white" width="113.541" height="18.1328" stroke="none"/>
      <text x="985.8139" y="229.817" clip-path="url(#clipPath2)" fill="navy" font-family="sans-serif" stroke="none" xml:space="preserve">dct:isReferencedBy</text>
      <path fill="none" d="M1147.1588 136.6607 L1147.1588 21.9152" clip-path="url(#clipPath2)" stroke="navy"/>
      <path fill="navy" d="M1147.1588 144.6607 C1144.9497 144.6607 1143.1588 142.8699 1143.1588 140.6607 C1143.1588 138.4516 1144.9497 136.6607 1147.1588 136.6607 C1149.3679 136.6607 1151.1588 138.4516 1151.1588 140.6607 C1151.1588 142.8699 1149.3679 144.6607 1147.1588 144.6607 Z" clip-path="url(#clipPath2)" stroke="none"/>
      <path fill="navy" d="M1147.1588 10.9152 L1141.1588 22.9152 L1153.1588 22.9152 Z" clip-path="url(#clipPath2)" stroke="none"/>
      <rect x="1107.5328" y="31.3041" clip-path="url(#clipPath2)" fill="white" width="79.252" height="18.1328" stroke="none"/>
      <text x="1109.5328" y="44.9056" clip-path="url(#clipPath2)" fill="navy" font-family="sans-serif" stroke="none" xml:space="preserve">dct:language</text>
      <path fill="none" d="M1143.4088 163.942 L1143.4088 209.2818 L682.2298 209.2818 L682.2298 247.0418" clip-path="url(#clipPath2)"/>
    </g>
    <g stroke-linecap="butt" transform="matrix(1,0,0,1,-416,44)" fill-opacity="0" fill="rgb(0,0,0)" text-rendering="geometricPrecision" shape-rendering="geometricPrecision" stroke="rgb(0,0,0)" stroke-opacity="0" stroke-miterlimit="1.45">
      <path d="M1143.4088 155.942 C1145.6179 155.942 1147.4088 157.7328 1147.4088 159.942 C1147.4088 162.1511 1145.6179 163.942 1143.4088 163.942 C1141.1997 163.942 1139.4088 162.1511 1139.4088 159.942 C1139.4088 157.7328 1141.1997 155.942 1143.4088 155.942 Z" stroke="none" clip-path="url(#clipPath2)"/>
    </g>
    <g stroke-linecap="butt" transform="matrix(1,0,0,1,-416,44)" fill="green" text-rendering="geometricPrecision" shape-rendering="geometricPrecision" stroke="green" stroke-miterlimit="1.45">
      <path fill="none" d="M1143.4088 155.942 C1145.6179 155.942 1147.4088 157.7328 1147.4088 159.942 C1147.4088 162.1511 1145.6179 163.942 1143.4088 163.942 C1141.1997 163.942 1139.4088 162.1511 1139.4088 159.942 C1139.4088 157.7328 1141.1997 155.942 1143.4088 155.942 Z" clip-path="url(#clipPath2)"/>
      <path fill="white" d="M682.2298 262.0418 L688.2298 246.0418 L676.2298 246.0418 Z" clip-path="url(#clipPath2)" stroke="none"/>
      <path fill="none" d="M682.2298 262.0418 L688.2298 246.0418 L676.2298 246.0418 Z" clip-path="url(#clipPath2)"/>
      <rect x="881.1328" y="200.2154" clip-path="url(#clipPath2)" fill="white" width="63.373" height="18.1328" stroke="none"/>
      <text x="883.1328" xml:space="preserve" y="213.817" clip-path="url(#clipPath2)" font-family="sans-serif" stroke="none">dct:issued</text>
      <path fill="none" d="M1144.3016 137.067 L1144.3016 54.7539 L938.9791 54.7539 L938.9791 50.2539" clip-path="url(#clipPath2)" stroke="navy"/>
      <path fill="navy" d="M1144.3016 145.067 C1142.0925 145.067 1140.3016 143.2761 1140.3016 141.067 C1140.3016 138.8578 1142.0925 137.067 1144.3016 137.067 C1146.5107 137.067 1148.3016 138.8578 1148.3016 141.067 C1148.3016 143.2761 1146.5107 145.067 1144.3016 145.067 Z" clip-path="url(#clipPath2)" stroke="none"/>
      <path fill="navy" d="M938.9791 39.2539 L932.9791 51.2539 L944.9791 51.2539 Z" clip-path="url(#clipPath2)" stroke="none"/>
      <rect x="993.6795" y="45.6875" clip-path="url(#clipPath2)" fill="white" width="95.9219" height="18.1328" stroke="none"/>
      <text x="995.6794" y="59.2891" clip-path="url(#clipPath2)" fill="navy" font-family="sans-serif" stroke="none" xml:space="preserve">dct:conformsTo</text>
      <path fill="none" d="M1158.5507 145.7573 L1158.5507 115.6429 L1323.8406 115.6429" clip-path="url(#clipPath2)" stroke="navy"/>
      <path fill="navy" d="M1158.5507 153.7573 C1156.3416 153.7573 1154.5507 151.9665 1154.5507 149.7573 C1154.5507 147.5482 1156.3416 145.7573 1158.5507 145.7573 C1160.7598 145.7573 1162.5507 147.5482 1162.5507 149.7573 C1162.5507 151.9665 1160.7598 153.7573 1158.5507 153.7573 Z" clip-path="url(#clipPath2)" stroke="none"/>
      <path fill="navy" d="M1334.8406 115.6429 L1322.8406 109.6429 L1322.8406 121.6429 Z" clip-path="url(#clipPath2)" stroke="none"/>
      <rect x="1209.1312" y="106.5765" clip-path="url(#clipPath2)" fill="white" width="66.0039" height="18.1328" stroke="none"/>
      <text x="1211.1311" y="120.178" clip-path="url(#clipPath2)" fill="navy" font-family="sans-serif" stroke="none" xml:space="preserve">dct:license</text>
    </g>
  </g>
</svg>
