<?xml version="1.0" encoding="UTF-8"?><svg xmlns="http://www.w3.org/2000/svg" xmlns:xlink="http://www.w3.org/1999/xlink" fill-opacity="1" color-rendering="auto" color-interpolation="auto" text-rendering="auto" stroke="black" stroke-linecap="square" width="1047" stroke-miterlimit="10" shape-rendering="auto" stroke-opacity="1" fill="black" stroke-dasharray="none" font-weight="normal" stroke-width="1" height="663" font-family="'Dialog'" font-style="normal" stroke-linejoin="miter" font-size="12px" stroke-dashoffset="0" image-rendering="auto">
  <!--Generated by ySVG 2.6-->
  <defs id="genericDefs"/>
  <g>
    <defs id="defs1">
      <clipPath clipPathUnits="userSpaceOnUse" id="clipPath1">
        <path d="M0 0 L1047 0 L1047 663 L0 663 L0 0 Z"/>
      </clipPath>
      <clipPath clipPathUnits="userSpaceOnUse" id="clipPath2">
        <path d="M56 152 L1103 152 L1103 815 L56 815 L56 152 Z"/>
      </clipPath>
      <clipPath clipPathUnits="userSpaceOnUse" id="clipPath3">
        <path d="M-166.5793 678.4617 L-166.5793 -368.5383 L496.4207 -368.5383 L496.4207 678.4617 L-166.5793 678.4617 Z"/>
      </clipPath>
    </defs>
    <g fill="white" text-rendering="geometricPrecision" shape-rendering="geometricPrecision" transform="translate(-56,-152)" stroke="white">
      <rect x="56" width="1047" height="663" y="152" clip-path="url(#clipPath2)" stroke="none"/>
    </g>
    <g fill="rgb(255,153,204)" text-rendering="geometricPrecision" shape-rendering="geometricPrecision" transform="matrix(1,0,0,1,-56,-152)" stroke="rgb(255,153,204)">
      <circle r="10" clip-path="url(#clipPath2)" cx="385.3953" cy="544.4301" stroke="none"/>
    </g>
    <g text-rendering="geometricPrecision" stroke-miterlimit="1.45" shape-rendering="geometricPrecision" font-family="sans-serif" transform="matrix(1,0,0,1,-56,-152)" stroke-linecap="butt">
      <text x="401.3953" xml:space="preserve" y="529.8989" clip-path="url(#clipPath2)" stroke="none">:edition_digitization</text>
      <circle fill="none" stroke-width="3" r="10" clip-path="url(#clipPath2)" cx="385.3953" cy="544.4301"/>
    </g>
    <g fill="rgb(255,153,204)" text-rendering="geometricPrecision" shape-rendering="geometricPrecision" transform="matrix(1,0,0,1,-56,-152)" stroke="rgb(255,153,204)">
      <circle r="10" clip-path="url(#clipPath2)" cx="445.3953" cy="287.7453" stroke="none"/>
    </g>
    <g text-rendering="geometricPrecision" stroke-miterlimit="1.45" shape-rendering="geometricPrecision" font-family="sans-serif" transform="matrix(1,0,0,1,-56,-152)" stroke-linecap="butt">
      <text x="332.909" xml:space="preserve" y="273.2141" clip-path="url(#clipPath2)" stroke="none">:corpus_creation</text>
      <circle fill="none" stroke-width="3" r="10" clip-path="url(#clipPath2)" cx="445.3953" cy="287.7453"/>
    </g>
    <g fill="rgb(255,153,204)" text-rendering="geometricPrecision" shape-rendering="geometricPrecision" transform="matrix(1,0,0,1,-56,-152)" stroke="rgb(255,153,204)">
      <circle r="10" clip-path="url(#clipPath2)" cx="725.3953" cy="467.7453" stroke="none"/>
    </g>
    <g text-rendering="geometricPrecision" stroke-miterlimit="1.45" shape-rendering="geometricPrecision" font-family="sans-serif" transform="matrix(1,0,0,1,-56,-152)" stroke-linecap="butt">
      <text x="741.3953" xml:space="preserve" y="453.2141" clip-path="url(#clipPath2)" stroke="none">:platform_creation</text>
      <circle fill="none" stroke-width="3" r="10" clip-path="url(#clipPath2)" cx="725.3953" cy="467.7453"/>
    </g>
    <g fill="rgb(255,153,204)" text-rendering="geometricPrecision" shape-rendering="geometricPrecision" transform="matrix(1,0,0,1,-56,-152)" stroke="rgb(255,153,204)">
      <circle r="10" clip-path="url(#clipPath2)" cx="613.8953" cy="544.4301" stroke="none"/>
    </g>
    <g text-rendering="geometricPrecision" stroke-miterlimit="1.45" shape-rendering="geometricPrecision" font-family="sans-serif" transform="matrix(1,0,0,1,-56,-152)" stroke-linecap="butt">
      <text x="629.8953" xml:space="preserve" y="529.8989" clip-path="url(#clipPath2)" stroke="none">:edition_item</text>
      <circle fill="none" stroke-width="3" r="10" clip-path="url(#clipPath2)" cx="613.8953" cy="544.4301"/>
    </g>
    <g fill="rgb(255,153,204)" text-rendering="geometricPrecision" shape-rendering="geometricPrecision" transform="matrix(1,0,0,1,-56,-152)" stroke="rgb(255,153,204)">
      <circle r="10" clip-path="url(#clipPath2)" cx="385.3953" cy="407.7453" stroke="none"/>
    </g>
    <g text-rendering="geometricPrecision" stroke-miterlimit="1.45" shape-rendering="geometricPrecision" font-family="sans-serif" transform="matrix(1,0,0,1,-56,-152)" stroke-linecap="butt">
      <text x="401.3953" xml:space="preserve" y="393.2141" clip-path="url(#clipPath2)" stroke="none">:edition_digitized</text>
      <circle fill="none" stroke-width="3" r="10" clip-path="url(#clipPath2)" cx="385.3953" cy="407.7453"/>
    </g>
    <g fill="rgb(255,153,204)" text-rendering="geometricPrecision" shape-rendering="geometricPrecision" transform="matrix(1,0,0,1,-56,-152)" stroke="rgb(255,153,204)">
      <circle r="10" clip-path="url(#clipPath2)" cx="725.3953" cy="287.7453" stroke="none"/>
    </g>
    <g text-rendering="geometricPrecision" stroke-miterlimit="1.45" shape-rendering="geometricPrecision" font-family="sans-serif" transform="matrix(1,0,0,1,-56,-152)" stroke-linecap="butt">
      <text x="741.3953" xml:space="preserve" y="273.2141" clip-path="url(#clipPath2)" stroke="none">:alcide_corpus</text>
      <circle fill="none" stroke-width="3" r="10" clip-path="url(#clipPath2)" cx="725.3953" cy="287.7453"/>
    </g>
    <g fill="rgb(255,153,204)" text-rendering="geometricPrecision" shape-rendering="geometricPrecision" transform="matrix(1,0,0,1,-56,-152)" stroke="rgb(255,153,204)">
      <circle r="10" clip-path="url(#clipPath2)" cx="965.3953" cy="407.7453" stroke="none"/>
    </g>
    <g text-rendering="geometricPrecision" stroke-miterlimit="1.45" shape-rendering="geometricPrecision" font-family="sans-serif" transform="matrix(1,0,0,1,-56,-152)" stroke-linecap="butt">
      <text x="981.3953" xml:space="preserve" y="393.2141" clip-path="url(#clipPath2)" stroke="none">:alcide_platform</text>
      <circle fill="none" stroke-width="3" r="10" clip-path="url(#clipPath2)" cx="965.3953" cy="407.7453"/>
    </g>
    <g fill="yellow" text-rendering="geometricPrecision" shape-rendering="geometricPrecision" transform="matrix(1,0,0,1,-56,-152)" stroke="yellow">
      <rect x="542.3953" y="447.8789" clip-path="url(#clipPath2)" width="143" rx="4" ry="4" height="39.7328" stroke="none"/>
    </g>
    <g font-size="16px" stroke-linecap="butt" transform="matrix(1,0,0,1,-56,-152)" text-rendering="geometricPrecision" font-family="sans-serif" shape-rendering="geometricPrecision" stroke-miterlimit="1.45">
      <text x="556.4421" xml:space="preserve" y="473.7922" clip-path="url(#clipPath2)" stroke="none">frbroo:F5_Item</text>
      <rect x="542.3953" y="447.8789" clip-path="url(#clipPath2)" fill="none" width="143" rx="4" ry="4" height="39.7328"/>
    </g>
    <g fill="yellow" text-rendering="geometricPrecision" shape-rendering="geometricPrecision" transform="matrix(1,0,0,1,-56,-152)" stroke="yellow">
      <rect x="862.8953" y="307.7453" clip-path="url(#clipPath2)" width="205" rx="4" ry="4" height="40.1211" stroke="none"/>
    </g>
    <g font-size="16px" stroke-linecap="butt" transform="matrix(1,0,0,1,-56,-152)" text-rendering="geometricPrecision" font-family="sans-serif" shape-rendering="geometricPrecision" stroke-miterlimit="1.45">
      <text x="866.0789" xml:space="preserve" y="333.8528" clip-path="url(#clipPath2)" stroke="none">crmdig:D1_Digital_Object</text>
      <rect x="862.8953" y="307.7453" clip-path="url(#clipPath2)" fill="none" width="205" rx="4" ry="4" height="40.1211"/>
    </g>
    <g fill="rgb(255,153,204)" text-rendering="geometricPrecision" shape-rendering="geometricPrecision" transform="matrix(1,0,0,1,-56,-152)" stroke="rgb(255,153,204)">
      <circle r="10" clip-path="url(#clipPath2)" cx="613.8953" cy="637.6118" stroke="none"/>
    </g>
    <g text-rendering="geometricPrecision" stroke-miterlimit="1.45" shape-rendering="geometricPrecision" font-family="sans-serif" transform="matrix(1,0,0,1,-56,-152)" stroke-linecap="butt">
      <text x="467.7644" xml:space="preserve" y="642.1469" clip-path="url(#clipPath2)" stroke="none">:edition_manifestation</text>
      <circle fill="none" stroke-width="3" r="10" clip-path="url(#clipPath2)" cx="613.8953" cy="637.6118"/>
    </g>
    <g fill="rgb(255,153,204)" text-rendering="geometricPrecision" shape-rendering="geometricPrecision" transform="matrix(1,0,0,1,-56,-152)" stroke="rgb(255,153,204)">
      <circle r="10" clip-path="url(#clipPath2)" cx="613.8953" cy="713.6118" stroke="none"/>
    </g>
    <g text-rendering="geometricPrecision" stroke-miterlimit="1.45" shape-rendering="geometricPrecision" font-family="sans-serif" transform="matrix(1,0,0,1,-56,-152)" stroke-linecap="butt">
      <text x="629.8953" xml:space="preserve" y="718.1469" clip-path="url(#clipPath2)" stroke="none">:alcide_de_gasperi</text>
      <circle fill="none" stroke-width="3" r="10" clip-path="url(#clipPath2)" cx="613.8953" cy="713.6118"/>
    </g>
    <g fill="yellow" text-rendering="geometricPrecision" shape-rendering="geometricPrecision" transform="matrix(1,0,0,1,-56,-152)" stroke="yellow">
      <rect x="114.7906" y="390.5943" clip-path="url(#clipPath2)" width="192" rx="4" ry="4" height="34.3021" stroke="none"/>
    </g>
    <g font-size="16px" stroke-linecap="butt" transform="matrix(1,0,0,1,-56,-152)" text-rendering="geometricPrecision" font-family="sans-serif" shape-rendering="geometricPrecision" stroke-miterlimit="1.45">
      <text x="118.982" xml:space="preserve" y="413.7922" clip-path="url(#clipPath2)" stroke="none">crmdig:D9_Data_Object</text>
      <rect x="114.7906" y="390.5943" clip-path="url(#clipPath2)" fill="none" width="192" rx="4" ry="4" height="34.3021"/>
    </g>
    <g fill="yellow" text-rendering="geometricPrecision" shape-rendering="geometricPrecision" transform="matrix(1,0,0,1,-56,-152)" stroke="yellow">
      <rect x="702.7781" y="617.7453" clip-path="url(#clipPath2)" width="200" rx="4" ry="4" height="39.7328" stroke="none"/>
    </g>
    <g font-size="16px" stroke-linecap="butt" transform="matrix(1,0,0,1,-56,-152)" text-rendering="geometricPrecision" font-family="sans-serif" shape-rendering="geometricPrecision" stroke-miterlimit="1.45">
      <text x="709.8914" xml:space="preserve" y="643.6586" clip-path="url(#clipPath2)" stroke="none">frbroo:F3_Manifestation</text>
      <rect x="702.7781" y="617.7453" clip-path="url(#clipPath2)" fill="none" width="200" rx="4" ry="4" height="39.7328"/>
    </g>
    <g fill="yellow" text-rendering="geometricPrecision" shape-rendering="geometricPrecision" transform="matrix(1,0,0,1,-56,-152)" stroke="yellow">
      <rect x="542.3953" y="759.7934" clip-path="url(#clipPath2)" width="143" rx="4" ry="4" height="39.7328" stroke="none"/>
    </g>
    <g font-size="16px" stroke-linecap="butt" transform="matrix(1,0,0,1,-56,-152)" text-rendering="geometricPrecision" font-family="sans-serif" shape-rendering="geometricPrecision" stroke-miterlimit="1.45">
      <text x="561.3523" xml:space="preserve" y="785.7067" clip-path="url(#clipPath2)" stroke="none">crm:E1_Entity</text>
      <rect x="542.3953" y="759.7934" clip-path="url(#clipPath2)" fill="none" width="143" rx="4" ry="4" height="39.7328"/>
      <text x="759.4333" xml:space="preserve" font-size="12px" y="531.6938" clip-path="url(#clipPath2)" stroke="none">"A. De Gasperi, </text>
      <text x="759.4333" xml:space="preserve" font-size="12px" y="545.8266" clip-path="url(#clipPath2)" stroke="none">Scritti e discorsi politici, </text>
      <text x="759.4333" xml:space="preserve" font-size="12px" y="559.9594" clip-path="url(#clipPath2)" stroke="none">I-IV"@it </text>
      <text x="73.2906" xml:space="preserve" font-size="12px" y="466.8838" clip-path="url(#clipPath2)" stroke="none">"Digitized form of the edition"@en</text>
      <text x="660.8308" xml:space="preserve" font-size="12px" y="188.5657" clip-path="url(#clipPath2)" stroke="none">Controlled Vocabulary</text>
      <text x="660.8308" xml:space="preserve" font-size="12px" y="202.6985" clip-path="url(#clipPath2)" stroke="none">concept URIs</text>
    </g>
    <g stroke-linecap="butt" transform="matrix(1,0,0,1,-56,-152)" fill="navy" text-rendering="geometricPrecision" shape-rendering="geometricPrecision" stroke="navy" stroke-miterlimit="1.45">
      <path fill="none" d="M399.3953 544.4301 L592.8953 544.4301" clip-path="url(#clipPath2)"/>
      <path d="M391.3953 544.4301 C391.3953 542.2209 393.1862 540.4301 395.3953 540.4301 C397.6044 540.4301 399.3953 542.2209 399.3953 544.4301 C399.3953 546.6393 397.6044 548.4301 395.3953 548.4301 C393.1862 548.4301 391.3953 546.6393 391.3953 544.4301 Z" clip-path="url(#clipPath2)" stroke="none"/>
      <path d="M603.8953 544.4301 L591.8953 538.4301 L591.8953 550.4301 Z" clip-path="url(#clipPath2)" stroke="none"/>
      <rect x="439.8484" y="535.3637" clip-path="url(#clipPath2)" fill="white" width="119.5938" height="18.1328" stroke="none"/>
      <text x="441.8484" xml:space="preserve" y="548.9653" clip-path="url(#clipPath2)" font-family="sans-serif" stroke="none">crmdig:L1_digitized</text>
      <path fill="none" d="M385.3953 530.4301 L385.3953 428.7453" clip-path="url(#clipPath2)"/>
      <path d="M385.3953 538.4301 C383.1862 538.4301 381.3953 536.6393 381.3953 534.4301 C381.3953 532.2209 383.1862 530.4301 385.3953 530.4301 C387.6044 530.4301 389.3953 532.2209 389.3953 534.4301 C389.3953 536.6393 387.6044 538.4301 385.3953 538.4301 Z" clip-path="url(#clipPath2)" stroke="none"/>
      <path d="M385.3953 417.7453 L379.3953 429.7453 L391.3953 429.7453 Z" clip-path="url(#clipPath2)" stroke="none"/>
      <rect x="312.6843" y="489.6905" clip-path="url(#clipPath2)" fill="white" width="145.4219" height="18.1328" stroke="none"/>
      <text x="314.6844" xml:space="preserve" y="503.2921" clip-path="url(#clipPath2)" font-family="sans-serif" stroke="none">crmdig:L20_has_created</text>
      <path fill="none" d="M431.3953 287.7453 L385.3953 287.7453 L385.3953 347.7453 L385.3953 386.7453" clip-path="url(#clipPath2)"/>
      <path d="M439.3953 287.7453 C439.3953 289.9545 437.6044 291.7453 435.3953 291.7453 C433.1862 291.7453 431.3953 289.9545 431.3953 287.7453 C431.3953 285.5362 433.1862 283.7453 435.3953 283.7453 C437.6044 283.7453 439.3953 285.5362 439.3953 287.7453 Z" clip-path="url(#clipPath2)" stroke="none"/>
      <path d="M385.3953 397.7453 L391.3953 385.7453 L379.3953 385.7453 Z" clip-path="url(#clipPath2)" stroke="none"/>
      <rect x="305.5095" y="338.6789" clip-path="url(#clipPath2)" fill="white" width="159.7715" height="18.1328" stroke="none"/>
      <text x="307.5096" xml:space="preserve" y="352.2805" clip-path="url(#clipPath2)" font-family="sans-serif" stroke="none">crmdig:L2_used_as_source</text>
      <path fill="none" d="M459.3953 287.7453 L704.3953 287.7453" clip-path="url(#clipPath2)"/>
      <path d="M451.3953 287.7453 C451.3953 285.5362 453.1862 283.7453 455.3953 283.7453 C457.6044 283.7453 459.3953 285.5362 459.3953 287.7453 C459.3953 289.9545 457.6044 291.7453 455.3953 291.7453 C453.1862 291.7453 451.3953 289.9545 451.3953 287.7453 Z" clip-path="url(#clipPath2)" stroke="none"/>
      <path d="M715.3953 287.7453 L703.3953 281.7453 L703.3953 293.7453 Z" clip-path="url(#clipPath2)" stroke="none"/>
      <rect x="514.117" y="278.6789" clip-path="url(#clipPath2)" fill="white" width="142.5566" height="18.1328" stroke="none"/>
      <text x="516.1169" xml:space="preserve" y="292.2805" clip-path="url(#clipPath2)" font-family="sans-serif" stroke="none">crmdig:L11_had_output</text>
      <path fill="none" d="M725.3953 453.7453 L725.3953 308.7453" clip-path="url(#clipPath2)"/>
      <path d="M725.3953 461.7453 C723.1861 461.7453 721.3953 459.9545 721.3953 457.7453 C721.3953 455.5362 723.1861 453.7453 725.3953 453.7453 C727.6044 453.7453 729.3953 455.5362 729.3953 457.7453 C729.3953 459.9545 727.6044 461.7453 725.3953 461.7453 Z" clip-path="url(#clipPath2)" stroke="none"/>
      <path d="M725.3953 297.7453 L719.3953 309.7453 L731.3953 309.7453 Z" clip-path="url(#clipPath2)" stroke="none"/>
    </g>
    <g stroke-linecap="butt" transform="matrix(0,1,-1,0,678.4617,166.5793)" fill="white" text-rendering="geometricPrecision" shape-rendering="geometricPrecision" stroke="white" stroke-miterlimit="1.45">
      <rect x="0" width="134.166" height="18.1328" y="0" clip-path="url(#clipPath3)" stroke="none"/>
      <text x="2" y="13.6016" clip-path="url(#clipPath3)" fill="navy" font-family="sans-serif" stroke="none" xml:space="preserve">crmdig:L10_had_input</text>
    </g>
    <g stroke-linecap="butt" transform="matrix(1,0,0,1,-56,-152)" fill="navy" text-rendering="geometricPrecision" shape-rendering="geometricPrecision" stroke="navy" stroke-miterlimit="1.45">
      <path fill="none" d="M719.1292 300.2647 L665.3333 407.7453 L634.3333 407.7453 L406.3953 407.7453" clip-path="url(#clipPath2)"/>
      <path d="M722.7097 293.1107 C724.6852 294.0995 725.4852 296.5025 724.4964 298.478 C723.5077 300.4535 721.1047 301.2534 719.1292 300.2647 C717.1536 299.2759 716.3537 296.8729 717.3425 294.8974 C718.3312 292.9219 720.7342 292.122 722.7097 293.1107 Z" clip-path="url(#clipPath2)" stroke="none"/>
      <path d="M395.3953 407.7453 L407.3953 413.7453 L407.3953 401.7453 Z" clip-path="url(#clipPath2)" stroke="none"/>
      <rect x="477.6587" y="398.6789" clip-path="url(#clipPath2)" fill="white" width="158.8223" height="18.1328" stroke="none"/>
      <text x="479.6588" xml:space="preserve" y="412.2805" clip-path="url(#clipPath2)" font-family="sans-serif" stroke="none">crm:P106_is_composed_of</text>
      <path fill="none" d="M739.3953 467.7453 L965.3953 467.7453 L965.3953 428.7453" clip-path="url(#clipPath2)"/>
      <path d="M731.3953 467.7453 C731.3953 465.5362 733.1861 463.7453 735.3953 463.7453 C737.6044 463.7453 739.3953 465.5362 739.3953 467.7453 C739.3953 469.9545 737.6044 471.7453 735.3953 471.7453 C733.1861 471.7453 731.3953 469.9545 731.3953 467.7453 Z" clip-path="url(#clipPath2)" stroke="none"/>
      <path d="M965.3953 417.7453 L959.3953 429.7453 L971.3953 429.7453 Z" clip-path="url(#clipPath2)" stroke="none"/>
      <rect x="817.2561" y="458.6789" clip-path="url(#clipPath2)" fill="white" width="142.5566" height="18.1328" stroke="none"/>
      <text x="819.2561" xml:space="preserve" y="472.2805" clip-path="url(#clipPath2)" font-family="sans-serif" stroke="none">crmdig:L11_had_output</text>
      <path fill="none" d="M951.3953 407.7453 L888.3333 407.7453 L742.3044 300.1985" clip-path="url(#clipPath2)"/>
      <path d="M959.3953 407.7453 C959.3953 409.9545 957.6044 411.7453 955.3953 411.7453 C953.1861 411.7453 951.3953 409.9545 951.3953 407.7453 C951.3953 405.5362 953.1861 403.7453 955.3953 403.7453 C957.6044 403.7453 959.3953 405.5362 959.3953 407.7453 Z" clip-path="url(#clipPath2)" stroke="none"/>
      <path d="M733.4472 293.6754 L739.5515 305.6227 L746.6676 295.9603 Z" clip-path="url(#clipPath2)" stroke="none"/>
      <rect x="756.173" y="359.8304" clip-path="url(#clipPath2)" fill="white" width="158.8223" height="18.1328" stroke="none"/>
      <text x="758.173" xml:space="preserve" y="373.432" clip-path="url(#clipPath2)" font-family="sans-serif" stroke="none">crm:P106_is_composed_of</text>
      <path fill="none" d="M613.8953 487.6468 L613.8953 526.4301" clip-path="url(#clipPath2)" stroke="black"/>
      <path fill="black" d="M613.8953 534.4301 L618.8953 522.4301 L613.8953 525.4301 L608.8953 522.4301 Z" clip-path="url(#clipPath2)" stroke="none"/>
      <path fill="none" d="M965.3953 307.7166 L965.3953 287.7453 L743.3953 287.7453" clip-path="url(#clipPath2)" stroke="black"/>
      <path fill="black" d="M735.3953 287.7453 L747.3953 292.7453 L744.3953 287.7453 L747.3953 282.7453 Z" clip-path="url(#clipPath2)" stroke="none"/>
      <path fill="none" d="M965.3953 347.8664 L965.3953 389.7453" clip-path="url(#clipPath2)" stroke="black"/>
      <path fill="black" d="M965.3953 397.7453 L970.3953 385.7453 L965.3953 388.7453 L960.3953 385.7453 Z" clip-path="url(#clipPath2)" stroke="none"/>
      <path fill="none" d="M613.8953 558.4301 L613.8953 616.6118" clip-path="url(#clipPath2)"/>
      <path d="M613.8953 550.4301 C616.1044 550.4301 617.8953 552.2209 617.8953 554.4301 C617.8953 556.6393 616.1044 558.4301 613.8953 558.4301 C611.6861 558.4301 609.8953 556.6393 609.8953 554.4301 C609.8953 552.2209 611.6861 550.4301 613.8953 550.4301 Z" clip-path="url(#clipPath2)" stroke="none"/>
      <path d="M613.8953 627.6118 L619.8953 615.6118 L607.8953 615.6118 Z" clip-path="url(#clipPath2)" stroke="none"/>
      <rect x="520.8465" y="581.9545" clip-path="url(#clipPath2)" fill="white" width="186.0977" height="18.1328" stroke="none"/>
      <text x="522.8464" xml:space="preserve" y="595.5561" clip-path="url(#clipPath2)" font-family="sans-serif" stroke="none">frbroo:R7_is_materialization_of</text>
      <path fill="none" d="M613.8953 651.6118 L613.8953 692.6118" clip-path="url(#clipPath2)"/>
      <path d="M613.8953 643.6118 C616.1044 643.6118 617.8953 645.4026 617.8953 647.6118 C617.8953 649.8209 616.1044 651.6118 613.8953 651.6118 C611.6861 651.6118 609.8953 649.8209 609.8953 647.6118 C609.8953 645.4026 611.6861 643.6118 613.8953 643.6118 Z" clip-path="url(#clipPath2)" stroke="none"/>
      <path d="M613.8953 703.6118 L619.8953 691.6118 L607.8953 691.6118 Z" clip-path="url(#clipPath2)" stroke="none"/>
      <rect x="554.7342" y="666.5453" clip-path="url(#clipPath2)" fill="white" width="118.3223" height="18.1328" stroke="none"/>
      <text x="556.7341" xml:space="preserve" y="680.1469" clip-path="url(#clipPath2)" font-family="sans-serif" stroke="none">crm:P129_is_about </text>
      <path fill="none" d="M385.3953 558.4301 L385.3953 713.6118 L592.8953 713.6118" clip-path="url(#clipPath2)"/>
      <path d="M385.3953 550.4301 C387.6044 550.4301 389.3953 552.2209 389.3953 554.4301 C389.3953 556.6393 387.6044 558.4301 385.3953 558.4301 C383.1862 558.4301 381.3953 556.6393 381.3953 554.4301 C381.3953 552.2209 383.1862 550.4301 385.3953 550.4301 Z" clip-path="url(#clipPath2)" stroke="none"/>
      <path d="M603.8953 713.6118 L591.8953 707.6118 L591.8953 719.6118 Z" clip-path="url(#clipPath2)" stroke="none"/>
      <rect x="421.8236" y="704.5453" clip-path="url(#clipPath2)" fill="white" width="140.5938" height="18.1328" stroke="none"/>
      <text x="423.8236" xml:space="preserve" y="718.1469" clip-path="url(#clipPath2)" font-family="sans-serif" stroke="none">crmdig:L60_documents</text>
      <path fill="none" d="M306.7906 407.7453 L367.3953 407.7453" clip-path="url(#clipPath2)" stroke="black"/>
      <path fill="black" d="M375.3953 407.7453 L363.3953 402.7453 L366.3953 407.7453 L363.3953 412.7453 Z" clip-path="url(#clipPath2)" stroke="none"/>
      <path fill="none" d="M702.7569 637.6118 L631.8953 637.6118" clip-path="url(#clipPath2)" stroke="black"/>
      <path fill="black" d="M623.8953 637.6118 L635.8953 642.6118 L632.8953 637.6118 L635.8953 632.6118 Z" clip-path="url(#clipPath2)" stroke="none"/>
      <path fill="none" d="M613.8953 759.7615 L613.8953 731.6118" clip-path="url(#clipPath2)" stroke="black"/>
      <path fill="black" d="M613.8953 723.6118 L608.8953 735.6118 L613.8953 732.6118 L618.8953 735.6118 Z" clip-path="url(#clipPath2)" stroke="none"/>
      <path fill="none" d="M627.8953 544.4301 L744.7781 544.4301" clip-path="url(#clipPath2)" stroke="green"/>
    </g>
    <g stroke-linecap="butt" transform="matrix(1,0,0,1,-56,-152)" fill-opacity="0" fill="rgb(0,0,0)" text-rendering="geometricPrecision" shape-rendering="geometricPrecision" stroke="rgb(0,0,0)" stroke-opacity="0" stroke-miterlimit="1.45">
      <path d="M619.8953 544.4301 C619.8953 542.2209 621.6861 540.4301 623.8953 540.4301 C626.1044 540.4301 627.8953 542.2209 627.8953 544.4301 C627.8953 546.6393 626.1044 548.4301 623.8953 548.4301 C621.6861 548.4301 619.8953 546.6393 619.8953 544.4301 Z" stroke="none" clip-path="url(#clipPath2)"/>
    </g>
    <g stroke-linecap="butt" transform="matrix(1,0,0,1,-56,-152)" fill="green" text-rendering="geometricPrecision" shape-rendering="geometricPrecision" stroke="green" stroke-miterlimit="1.45">
      <path fill="none" d="M619.8953 544.4301 C619.8953 542.2209 621.6861 540.4301 623.8953 540.4301 C626.1044 540.4301 627.8953 542.2209 627.8953 544.4301 C627.8953 546.6393 626.1044 548.4301 623.8953 548.4301 C621.6861 548.4301 619.8953 546.6393 619.8953 544.4301 Z" clip-path="url(#clipPath2)"/>
      <path fill="white" d="M759.7781 544.4301 L743.7781 538.4301 L743.7781 550.4301 Z" clip-path="url(#clipPath2)" stroke="none"/>
      <path fill="none" d="M759.7781 544.4301 L743.7781 538.4301 L743.7781 550.4301 Z" clip-path="url(#clipPath2)"/>
      <rect x="667.5447" y="535.3637" clip-path="url(#clipPath2)" fill="white" width="48.584" height="18.1328" stroke="none"/>
      <text x="669.5447" xml:space="preserve" y="548.9653" clip-path="url(#clipPath2)" font-family="sans-serif" stroke="none">dct:title</text>
      <path fill="none" d="M381.5407 421.2042 L370 461.5 L291.2899 462.2128" clip-path="url(#clipPath2)"/>
    </g>
    <g stroke-linecap="butt" transform="matrix(1,0,0,1,-56,-152)" fill-opacity="0" fill="rgb(0,0,0)" text-rendering="geometricPrecision" shape-rendering="geometricPrecision" stroke="rgb(0,0,0)" stroke-opacity="0" stroke-miterlimit="1.45">
      <path d="M383.7433 413.5134 C385.8671 414.1217 387.0956 416.3364 386.4874 418.4601 C385.8792 420.5839 383.6644 421.8125 381.5407 421.2042 C379.4169 420.596 378.1884 418.3813 378.7966 416.2575 C379.4048 414.1338 381.6196 412.9052 383.7433 413.5134 Z" stroke="none" clip-path="url(#clipPath2)"/>
    </g>
    <g stroke-linecap="butt" transform="matrix(1,0,0,1,-56,-152)" fill="green" text-rendering="geometricPrecision" shape-rendering="geometricPrecision" stroke="green" stroke-miterlimit="1.45">
      <path fill="none" d="M383.7433 413.5134 C385.8671 414.1217 387.0956 416.3364 386.4874 418.4601 C385.8792 420.5839 383.6644 421.8125 381.5407 421.2042 C379.4169 420.596 378.1884 418.3813 378.7966 416.2575 C379.4048 414.1338 381.6196 412.9052 383.7433 413.5134 Z" clip-path="url(#clipPath2)"/>
      <path fill="white" d="M276.2906 462.3486 L292.3442 468.2035 L292.2356 456.204 Z" clip-path="url(#clipPath2)" stroke="none"/>
      <path fill="none" d="M276.2906 462.3486 L292.3442 468.2035 L292.2356 456.204 Z" clip-path="url(#clipPath2)"/>
      <rect x="310.9973" y="452.7026" clip-path="url(#clipPath2)" fill="white" width="58.5918" height="18.1328" stroke="none"/>
      <text x="312.9973" xml:space="preserve" y="466.3042" clip-path="url(#clipPath2)" font-family="sans-serif" stroke="none">rdfs:label</text>
      <path fill="none" d="M725.3953 273.7453 L725.3953 218.2298" clip-path="url(#clipPath2)" stroke="navy"/>
      <path fill="navy" d="M725.3953 281.7453 C723.1861 281.7453 721.3953 279.9545 721.3953 277.7453 C721.3953 275.5362 723.1861 273.7453 725.3953 273.7453 C727.6044 273.7453 729.3953 275.5362 729.3953 277.7453 C729.3953 279.9545 727.6044 281.7453 725.3953 281.7453 Z" clip-path="url(#clipPath2)" stroke="none"/>
      <path fill="navy" d="M725.3953 207.2298 L719.3953 219.2298 L731.3953 219.2298 Z" clip-path="url(#clipPath2)" stroke="none"/>
      <rect x="674.6629" y="233.4212" clip-path="url(#clipPath2)" fill="white" width="101.4648" height="18.1328" stroke="none"/>
      <text x="676.6628" y="247.0227" clip-path="url(#clipPath2)" fill="navy" font-family="sans-serif" stroke="none" xml:space="preserve">crm:P2_has_type</text>
      <path fill="none" d="M979.3953 407.7453 L1087.8953 407.7453 L1087.8953 187.1693 L807.8953 187.1693" clip-path="url(#clipPath2)" stroke="navy"/>
      <path fill="navy" d="M971.3953 407.7453 C971.3953 405.5362 973.1861 403.7453 975.3953 403.7453 C977.6044 403.7453 979.3953 405.5362 979.3953 407.7453 C979.3953 409.9545 977.6044 411.7453 975.3953 411.7453 C973.1861 411.7453 971.3953 409.9545 971.3953 407.7453 Z" clip-path="url(#clipPath2)" stroke="none"/>
      <path fill="navy" d="M796.8953 187.1693 L808.8953 193.1693 L808.8953 181.1693 Z" clip-path="url(#clipPath2)" stroke="none"/>
      <rect x="896.2254" y="178.1028" clip-path="url(#clipPath2)" fill="white" width="101.4648" height="18.1328" stroke="none"/>
      <text x="898.2253" y="191.7044" clip-path="url(#clipPath2)" fill="navy" font-family="sans-serif" stroke="none" xml:space="preserve">crm:P2_has_type</text>
    </g>
  </g>
</svg>
